<?xml version="1.0" encoding="utf-8"?>
<!-- Generator: Adobe Illustrator 16.0.0, SVG Export Plug-In . SVG Version: 6.00 Build 0)  -->
<!DOCTYPE svg PUBLIC "-//W3C//DTD SVG 1.1//EN" "http://www.w3.org/Graphics/SVG/1.1/DTD/svg11.dtd">
<svg version="1.1" id="Ebene_1" xmlns="http://www.w3.org/2000/svg" xmlns:xlink="http://www.w3.org/1999/xlink" x="0px" y="0px"
	 width="24px" height="24px" viewBox="0 0 24 24" enable-background="new 0 0 24 24" xml:space="preserve">
<path d="M4.03,20.083V7.512c0-1.73,1.407-3.137,3.137-3.137h9.666c1.729,0,3.138,1.407,3.14,3.137v6.531
	c0,1.729-1.408,3.137-3.139,3.137H7.309L4.03,20.083z M7.167,5.125c-1.316,0-2.387,1.071-2.387,2.387v10.905l2.245-1.987h9.809
	c1.317,0,2.389-1.07,2.389-2.387V7.512c-0.002-1.316-1.073-2.387-2.39-2.387H7.167z M11.999,6.384c0.318,0,0.576,0.258,0.576,0.576
	v5.044c0,0.319-0.258,0.577-0.576,0.577c-0.317,0-0.575-0.257-0.575-0.577V6.96C11.424,6.642,11.682,6.384,11.999,6.384z"/>
<circle cx="12" cy="14.146" r="0.75"/>
</svg>
