<?xml version="1.0" encoding="utf-8"?>
<!-- Generator: Adobe Illustrator 16.0.0, SVG Export Plug-In . SVG Version: 6.00 Build 0)  -->
<!DOCTYPE svg PUBLIC "-//W3C//DTD SVG 1.1//EN" "http://www.w3.org/Graphics/SVG/1.1/DTD/svg11.dtd">
<svg version="1.1" id="Ebene_1" xmlns="http://www.w3.org/2000/svg" xmlns:xlink="http://www.w3.org/1999/xlink" x="0px" y="0px"
	 width="24px" height="24px" viewBox="0 0 24 24" enable-background="new 0 0 24 24" xml:space="preserve">
<path d="M17.736,9.428c-0.178-0.394-0.387-0.741-0.617-1.016c-0.016-0.051-0.064-0.285,0.078-0.546
	c0.111-0.189,0.16-0.294,0.642-1.013c1.224-1.825,0.284-4.949-0.758-4.682C16.043,2.437,14.6,3.582,14.6,3.582h-0.004
	C14.842,2.586,15.3,1.98,15.85,1.65c0.651-0.387,0-0.485,0-0.485h-7.7c0,0-0.648,0.098,0,0.485c0.553,0.33,1.008,0.936,1.252,1.934
	L9.4,3.583c0,0-1.442-1.145-2.481-1.411c-1.04-0.269-1.982,2.854-0.759,4.68C6.64,7.57,6.694,7.677,6.803,7.864
	c0.145,0.264,0.091,0.501,0.08,0.549c-0.895,1.065-1.451,3.142-0.988,5.084c0.483,2.03,3.869,6.964,3.869,6.964
	s1.571,2.373,2.237,2.373c0.532,0,1.644-1.516,2.063-2.127c0.105-0.15,0.174-0.246,0.174-0.246l-1.092-1.732l-0.34-2.469
	l2.276-1.766l0.437-3.725L17.736,9.428z M8.149,7.492C8.106,7.511,8.062,7.533,8.02,7.557V7.554c0,0-0.743,0.111-1.287-0.835
	C5.915,5.296,6.522,3.034,7.298,3.232c0.774,0.199,2.343,1.751,2.4,2.131C9.826,6.226,9.93,6.92,9.93,6.92S9.032,7.073,8.149,7.492z
	 M14.068,6.918c0,0,0.103-0.692,0.23-1.557c0.057-0.378,1.629-1.932,2.402-2.131c0.775-0.198,1.379,2.064,0.564,3.488
	c-0.543,0.944-1.289,0.835-1.289,0.835v0.003c-0.037-0.024-0.088-0.045-0.129-0.064C14.971,7.073,14.068,6.918,14.068,6.918z"/>
</svg>


