<?xml version="1.0" encoding="utf-8"?>
<!-- Generator: Adobe Illustrator 16.0.0, SVG Export Plug-In . SVG Version: 6.00 Build 0)  -->
<!DOCTYPE svg PUBLIC "-//W3C//DTD SVG 1.1//EN" "http://www.w3.org/Graphics/SVG/1.1/DTD/svg11.dtd">
<svg enable-background="new 0 0 342 336.818" height="336.818px" id="Ebene_1" version="1.1" viewBox="0 0 342 336.818"
     width="342px" x="0px" xml:space="preserve" xmlns="http://www.w3.org/2000/svg"
     y="0px">
<path d="M178.029,34.765c12.332-2.661,23.311,3.662,34.83,7.536c1.408,0.474,2.766,1.135,4.199,1.488
	c6.66,1.644,11.736,5.516,16.582,10.306c10.975,10.847,22.356,21.282,33.664,31.785c6.188,5.746,12.59,11.261,18.823,16.955
	c1.072,0.979,2.044,2.23,2.636,3.548c4.936,10.992,9.778,22.025,14.621,33.062c0.457,1.043,0.969,2.168,1.014,3.273
	c0.547,13.008,1.539,25.933-1.539,38.927c-2.344,9.895-2.996,20.189-4.395,30.309c-0.429,3.104-0.434,6.336-1.359,9.28
	c-0.851,2.701-2.246,5.491-4.146,7.561c-13.907,15.156-28.015,30.13-42.026,45.189c-2.252,2.421-4.511,4.864-6.485,7.507
	c-4.886,6.537-11.671,9.089-19.425,10.563c-15.355,2.916-30.483,7.364-45.941,9.284c-11.445,1.421-23.371,2.847-34.835-2.039
	c-8.327-3.549-17.058-6.144-25.57-9.267c-1.667-0.611-3.405-1.432-4.69-2.613c-6.477-5.953-12.812-12.063-19.205-18.106
	c-13.029-12.318-26.146-24.544-39.015-37.028c-2.117-2.055-3.368-5.13-4.636-7.907c-3.771-8.257-7.563-16.518-10.905-24.951
	c-1.364-3.444-1.737-7.316-2.298-11.033c-0.514-3.419-0.99-6.898-0.918-10.339c0.105-4.945,0.49-9.91,1.17-14.811
	c1.427-10.268,3.113-20.5,4.715-30.743c0.939-6.013,2.209-11.992,2.762-18.038c0.275-3.01,1.747-4.81,3.594-6.765
	C59.389,96.96,69.495,86.191,79.563,75.386c7.91-8.491,15.751-17.049,23.615-25.583c1.838-1.994,3.893-3.021,6.747-3.594
	c17.904-3.591,35.69-7.771,53.604-11.312C168.006,34.013,172.809,34.765,178.029,34.765z M217.223,57.99
	c-5.24,1.133-9.736,2.121-14.238,3.075c-12.715,2.695-25.434,5.375-38.148,8.062c-2.976,0.628-4.522,2.121-4.444,5.502
	c0.07,3.101-0.564,6.233-1.054,9.327c-2.571,16.248-5.138,32.497-7.835,48.725c-0.783,4.712,0.141,8.256,4.019,11.604
	c9.027,7.794,17.621,16.092,26.365,24.213c5.469,5.08,10.821,10.288,16.397,15.247c1.053,0.937,3.038,1.604,4.37,1.326
	c21.248-4.438,42.451-9.104,63.699-13.544c2.279-0.478,3.14-1.619,3.424-3.527c1.07-7.165,2.052-14.341,3.086-21.511
	c1.412-9.778,2.656-19.588,4.396-29.307c0.416-2.316,0.209-3.428-1.488-4.998c-11.811-10.933-23.494-22.002-35.199-33.048
	c-6.758-6.381-13.457-12.825-20.246-19.173C219.309,59.013,217.941,58.437,217.223,57.99z M145.145,255.435
	c7.109,1.563,12.315-0.962,15.75-7.318c0.152-0.283,0.449-0.489,0.678-0.73c11.287-11.951,22.637-23.846,33.781-35.929
	c1.394-1.511,2.297-3.999,2.379-6.076c0.144-3.597-0.961-7.251-0.748-10.834c0.22-3.718-1.537-5.939-4.092-7.967
	c-0.901-0.716-1.988-1.221-2.822-2.001c-11.151-10.436-22.868-20.354-33.198-31.55c-7.184-7.786-14.694-11.817-25.146-9.974
	c-0.646,0.113-1.391-0.145-1.984,0.067c-1.19,0.424-2.61,0.775-3.411,1.643c-5.62,6.081-11.011,12.375-16.66,18.428
	c-7.369,7.896-14.934,15.608-22.352,23.458c-1.096,1.16-2.608,2.619-2.646,3.974c-0.262,9.811-0.385,19.693,9.354,25.945
	c1.11,0.713,2.262,1.412,3.217,2.306c11.39,10.669,22.885,21.232,34.026,32.155c3.226,3.163,6.332,5.145,10.879,4.426
	C143.124,255.303,144.145,255.435,145.145,255.435z M177.668,296.5c1.723-0.077,2.408-0.013,3.051-0.149
	c16.078-3.456,32.176-6.829,48.201-10.514c2.539-0.584,5.137-2.188,7.04-4.016c4.296-4.125,8.129-8.729,12.235-13.057
	c7.543-7.949,15.174-15.815,22.719-23.765c4.221-4.446,8.434-8.912,12.441-13.549c0.881-1.018,1.617-3.108,1.168-4.18
	c-3.767-8.968-7.814-17.816-11.803-26.69c-0.81-1.802-1.826-2.752-4.226-2.218c-20.548,4.573-41.082,9.224-61.735,13.258
	c-4.691,0.917-7.123,3.725-9.919,6.667c-0.786,0.827-1.265,1.946-2.047,2.779c-10.899,11.611-21.739,23.283-32.826,34.713
	c-2.169,2.235-2.231,4.095-1.113,6.505c1.531,3.297,3.14,6.56,4.634,9.872c3.257,7.222,6.4,14.494,9.746,21.674
	C175.809,295.067,177.146,295.946,177.668,296.5z M42.464,168.729c-0.928,2.35,1.229,3.097,3.29,3.85
	c10.679,3.901,21.354,7.813,32.06,11.639c1.932,0.689,3.84,0.752,5.312-1.31c0.957-1.337,2.352-2.351,3.478-3.575
	c11.224-12.194,22.317-24.513,33.728-36.531c2.838-2.989,4.056-6.209,4.556-10.052c1.021-7.842,2.055-15.684,3.254-23.498
	c1.821-11.87,3.804-23.716,5.685-35.576c0.395-2.49-0.1-4.322-2.982-5.279c-7.975-2.649-16.014-5.223-23.707-8.562
	c-3.668-1.592-5.575-0.862-7.93,1.815c-6.456,7.338-13.023,14.581-19.698,21.72c-7.486,8.006-15.194,15.805-22.699,23.795
	c-3.969,4.227-7.054,8.706-7.525,15.037c-0.61,8.175-2.486,16.252-3.713,24.386C44.49,153.749,43.553,160.931,42.464,168.729z
	 M147.813,295.104c-4.66-10.508-8.892-20.176-13.249-29.785c-1.084-2.39-2.128-5.064-3.955-6.807
	c-14.281-13.62-28.809-26.983-43.122-40.571c-3.804-3.611-7.835-6.54-12.95-7.916c-2.062-0.556-4.027-1.463-6.047-2.178
	c-6.521-2.31-13.043-4.623-19.586-6.87c-0.643-0.221-1.439,0.011-2.165,0.033c0.148,0.613,0.217,1.265,0.462,1.838
	c1.102,2.578,1.986,5.299,3.438,7.67c4.571,7.47,6.074,16.284,13.507,22.647c16.614,14.229,32.282,29.581,48.048,44.774
	c4.491,4.328,8.994,8.069,15.042,9.958C133.941,289.993,140.512,292.524,147.813,295.104z M274.175,175.336
	c0.958,10.091,0.683,18.819,5.372,26.856c3.479,5.96,5.828,12.578,8.725,18.884c0.42,0.916,1.086,1.719,1.639,2.574
	c0.654-0.884,1.711-1.69,1.898-2.665c1.125-5.813,2.119-11.652,3.025-17.504c1.611-10.415,2.605-20.959,4.838-31.236
	c2.066-9.516-0.214-18.799,0.059-28.18c0.01-0.313-0.162-0.645-0.297-0.944c-4.234-9.512-8.453-19.027-12.746-28.513
	c-0.367-0.813-1.227-1.401-1.856-2.094c-0.767,0.988-1.979,1.884-2.212,2.985c-0.609,2.894-0.734,5.886-1.154,8.823
	c-1.186,8.314-2.439,16.62-3.63,24.936C276.529,158.396,275.268,167.54,274.175,175.336z M177.393,38.875
	c-4.305,0.223-8.705-0.052-12.896,0.757c-13.573,2.619-27.073,5.622-40.595,8.509c-4.507,0.962-9.018,1.929-13.471,3.109
	c-0.951,0.252-1.655,1.44-2.473,2.196c0.778,0.49,1.501,1.128,2.345,1.445c6.792,2.549,13.623,4.992,20.409,7.558
	c5.632,2.128,11.326,3.399,17.445,3.09c5.619-0.284,11.101-0.509,16.682-1.888c12.936-3.196,26.074-5.568,39.121-8.315
	c4.344-0.915,8.68-1.885,12.973-3.004c0.775-0.202,1.33-1.253,1.985-1.913c-0.685-0.435-1.317-1.003-2.06-1.279
	c-3.242-1.208-6.483-2.435-9.783-3.465C197.371,42.644,188.251,36.95,177.393,38.875z M137.766,138.612
	c0.004-0.063,0.008-0.124,0.01-0.188c1.833,0,3.718,0.257,5.479-0.102c0.97-0.196,2.295-1.304,2.488-2.209
	c0.895-4.182,1.479-8.433,2.12-12.666c1.579-10.421,3.14-20.844,4.685-31.27c0.967-6.518,1.787-13.059,2.899-19.55
	c0.328-1.91-0.277-2.477-1.907-2.51c-2.499-0.052-4.999-0.042-7.498-0.041c-6.816,0-6.721,0.017-7.574,6.655
	c-0.756,5.877-1.779,11.72-2.641,17.584c-1.796,12.225-3.607,24.447-5.303,36.686c-0.32,2.317-1.074,5.846,0.057,6.786
	C132.131,139.08,135.294,138.43,137.766,138.612z M269.854,185.211c0-1.331,0.035-2.662-0.008-3.99
	c-0.131-4.056-1-4.797-4.762-4.001c-20.25,4.28-40.502,8.552-60.729,12.94c-0.92,0.199-2.254,1.497-2.272,2.313
	c-0.089,3.626,0.459,7.271,0.329,10.893c-0.104,2.826,1.02,3.528,3.47,2.999c19.75-4.267,39.474-8.666,59.269-12.711
	c3.789-0.774,5.172-2.329,4.722-5.948C269.77,186.885,269.855,186.043,269.854,185.211z M42.509,177.474
	c0,4.011,0.069,7.794-0.024,11.571c-0.061,2.43,0.551,3.795,3.227,4.684c10.165,3.376,20.194,7.159,30.295,10.729
	c3.794,1.341,3.821,1.267,3.874-2.836c0.006-0.5,0-0.999,0.001-1.499c0.006-8.732,0.086-8.941-7.945-12.033
	C62.137,184.319,52.186,180.944,42.509,177.474z M147.861,261.054c-2.154,0-3.486-0.019-4.818,0.003
	c-4.309,0.066-4.229,0.036-2.403,4.06c3.817,8.414,7.607,16.843,11.284,25.319c3.018,6.957,2.938,6.991,10.523,6.993
	c1.666,0,3.334-0.055,4.997,0.011c2.274,0.087,2.979-0.347,1.823-2.826c-4.186-8.976-8.34-17.979-12.054-27.155
	C155.231,262.563,152.76,259.508,147.861,261.054z M282.117,105.651c-0.936-0.646-2.275-1.374-3.383-2.364
	c-7.021-6.287-14.078-12.542-20.957-18.981c-8.232-7.705-16.276-15.611-24.457-23.373c-2.271-2.155-4.709-4.141-7.139-6.119
	c-0.535-0.437-1.359-0.517-2.052-0.76c0.235,0.809,0.228,1.878,0.755,2.379c1.791,1.696,3.873,3.087,5.665,4.782
	c13.604,12.876,27.153,25.813,40.757,38.691c2.635,2.494,5.41,4.846,8.182,7.19c0.396,0.336,1.136,0.316,1.721,0.342
	C281.336,107.442,281.484,106.922,282.117,105.651z"/>
</svg>
