<?xml version="1.0" encoding="utf-8"?>
<!-- Generator: Adobe Illustrator 16.0.0, SVG Export Plug-In . SVG Version: 6.00 Build 0)  -->
<!DOCTYPE svg PUBLIC "-//W3C//DTD SVG 1.1//EN" "http://www.w3.org/Graphics/SVG/1.1/DTD/svg11.dtd">
<svg version="1.1" id="Ebene_1" xmlns="http://www.w3.org/2000/svg" xmlns:xlink="http://www.w3.org/1999/xlink" x="0px" y="0px"
	 width="499.674px" height="500px" viewBox="0 0 499.674 500" enable-background="new 0 0 499.674 500" xml:space="preserve">
<path d="M213.246,313.818c-1.962,0-3.553-1.592-3.553-3.553v-65.139c0-1.962,1.591-3.553,3.553-3.553s3.553,1.591,3.553,3.553
	v65.139C216.799,312.229,215.208,313.818,213.246,313.818z M231.124,298.88v-42.364c0-1.962-1.591-3.553-3.553-3.553
	c-1.962,0-3.553,1.592-3.553,3.553v42.364c0,1.962,1.591,3.554,3.553,3.554C229.533,302.434,231.124,300.842,231.124,298.88z
	 M245.448,287.42v-19.445c0-1.961-1.591-3.553-3.553-3.553s-3.553,1.592-3.553,3.553v19.445c0,1.962,1.591,3.553,3.553,3.553
	S245.448,289.382,245.448,287.42z M188.149,287.42v-19.445c0-1.961-1.591-3.553-3.553-3.553c-1.962,0-3.553,1.592-3.553,3.553
	v19.445c0,1.962,1.591,3.553,3.553,3.553C186.558,290.973,188.149,289.382,188.149,287.42z M202.474,298.88v-42.364
	c0-1.962-1.591-3.553-3.553-3.553s-3.553,1.592-3.553,3.553v42.364c0,1.962,1.591,3.554,3.553,3.554S202.474,300.842,202.474,298.88
	z M288.31,307.25v-59.105c0-1.962-1.591-3.553-3.553-3.553s-3.553,1.591-3.553,3.553v59.105c0,1.962,1.591,3.553,3.553,3.553
	S288.31,309.212,288.31,307.25z M274.211,286.52v-17.645c0-1.962-1.591-3.553-3.553-3.553s-3.554,1.591-3.554,3.553v17.645
	c0,1.963,1.592,3.555,3.554,3.555S274.211,288.48,274.211,286.52z M302.747,299.41v-43.426c0-1.961-1.591-3.553-3.553-3.553
	c-1.963,0-3.553,1.592-3.553,3.553v43.426c0,1.962,1.59,3.553,3.553,3.553C301.156,302.963,302.747,301.372,302.747,299.41z
	 M317.072,286.52v-17.645c0-1.962-1.591-3.553-3.555-3.553c-1.962,0-3.553,1.591-3.553,3.553v17.645
	c0,1.963,1.591,3.555,3.553,3.555C315.481,290.073,317.072,288.48,317.072,286.52z M259.772,296.918v-38.441
	c0-1.961-1.59-3.553-3.554-3.553c-1.962,0-3.553,1.592-3.553,3.553v38.441c0,1.962,1.591,3.553,3.553,3.553
	C258.183,300.471,259.772,298.88,259.772,296.918z M377.768,181.514c0.704,2.544,3.184,4.258,5.883,3.928
	c2.972-0.362,5.087-3.066,4.723-6.038c-2.013-16.485-7.404-32.657-15.391-47.5c-8.083-14.795-18.816-28.276-31.697-39.436
	c-12.851-11.185-27.789-20.078-43.856-26.078c-8.031-3.012-16.354-5.255-24.801-6.799c-8.454-1.507-17.039-2.255-25.615-2.288
	c-8.575,0.033-17.161,0.781-25.614,2.288c-8.446,1.544-16.768,3.787-24.799,6.799c-16.07,6-31.01,14.893-43.859,26.078
	c-12.88,11.16-23.613,24.641-31.697,39.436c-7.987,14.843-13.378,31.015-15.391,47.5c-0.323,2.619,1.309,5.152,3.929,5.881
	c2.885,0.801,5.873-0.888,6.675-3.773l0.009-0.03c4.11-14.792,10.268-28.821,18.587-41.36c8.194-12.606,18.505-23.676,30.166-32.842
	c11.681-9.152,24.795-16.349,38.705-21.156c6.953-2.399,14.089-4.255,21.341-5.444c7.242-1.226,14.59-1.846,21.948-1.832
	c7.358-0.014,14.707,0.606,21.949,1.832c7.251,1.189,14.389,3.045,21.344,5.444c13.907,4.807,27.021,12.004,38.702,21.156
	c11.661,9.166,21.975,20.236,30.165,32.842c8.318,12.539,14.479,26.568,18.589,41.36L377.768,181.514z M111.659,324.891
	c14.29,0,25.982-11.69,25.982-25.981V227.89c0-14.291-11.692-25.983-25.982-25.983h-1.099c-14.291,0-25.983,11.692-25.983,25.983
	v71.019c0,14.291,11.692,25.981,25.983,25.981H111.659 M74.674,231.492c-11.672,7.548-19.052,18.59-19.052,30.908
	c0,12.316,7.382,23.354,19.052,30.903V231.492z M383.605,324.891h1.099c14.291,0,25.983-11.69,25.983-25.981V227.89
	c0-14.291-11.692-25.983-25.983-25.983h-1.099c-14.29,0-25.982,11.692-25.982,25.983v71.019
	C357.623,313.198,369.315,324.891,383.605,324.891 M420.59,293.305c11.67-7.549,19.052-18.586,19.052-30.902
	c0-12.318-7.38-23.36-19.052-30.908V293.305z"/>
<rect id="rect" x="15.335" y="383" fill="#C2D248" width="402.656" height="81"/>
<rect id="rect" x="445.552" y="383" fill="#C2D248" width="38.787" height="81"/>
</svg>
