<?xml version="1.0" encoding="utf-8"?>
<!-- Generator: Adobe Illustrator 16.0.0, SVG Export Plug-In . SVG Version: 6.00 Build 0)  -->
<!DOCTYPE svg PUBLIC "-//W3C//DTD SVG 1.1//EN" "http://www.w3.org/Graphics/SVG/1.1/DTD/svg11.dtd">
<svg version="1.1" id="Ebene_1" xmlns="http://www.w3.org/2000/svg" xmlns:xlink="http://www.w3.org/1999/xlink" x="0px" y="0px"
	 width="900px" height="400px" viewBox="0 0 900 400" enable-background="new 0 0 900 400" xml:space="preserve">
<text transform="matrix(1 0 0 1 178.3728 354.1504)" opacity="0.4" enable-background="new    " font-family="'Roboto'" font-size="29">Leider haben wir zu dieser Rebe kein Bild.</text>
<g id="XMLID_592_">
	<g id="XMLID_572_">
		<g id="XMLID_312_">
			<path id="XMLID_313_" fill="#1D1D1B" d="M424.034,94.62"/>
		</g>
	</g>
</g>
<g>
	<g opacity="0.4">
		<path fill="#1D1D1B" d="M497.939,232.654h-88.004c-13.743,0-24.929-10.906-24.929-24.313v-88.005
			c0-13.53,11.417-24.96,24.929-24.96h88.004c13.417,0,24.34,11.198,24.346,24.962v88.003
			C522.285,221.973,511.589,232.654,497.939,232.654z M409.935,101.04c-10.442,0-19.266,8.838-19.266,19.297v88.005
			c0,10.283,8.642,18.648,19.266,18.648h88.004c10.475,0,18.682-8.191,18.682-18.648V120.34c-0.005-10.642-8.384-19.3-18.682-19.3
			H409.935z"/>
		<path fill="#1D1D1B" d="M439.725,120.106c0.946,0.405,2.901,1.901,3.849,2.305c1.297,0.55,2.613,1.116,3.686,2.006
			c1.924,1.593,2.865,4.058,4.623,5.821c0.606,0.605,1.428,1.147,2.273,1.147c0.194,0,0.388-0.031,0.58-0.09
			c1.377-0.438,1.714-2.16,1.803-3.555c2.168,1.048,3.258,3.509,3.385,5.885c0.127,2.38-0.543,4.741-1.052,7.09
			c-0.226,1.051-0.42,2.182,0.023,3.144c0.314,0.69,1.095,1.205,1.836,1.205c0.299,0,0.586-0.08,0.84-0.259
			c0.692-0.484,0.819-1.416,0.863-2.229c0.299-5.247-0.072-10.782,2.511-15.464c1.588,2.562,3.877,4.612,5.939,6.821
			c2.063,2.207,3.977,4.718,4.529,7.683c0.447,2.384-0.044,4.952-1.36,7.068c3.174-0.512,6.211-1.978,8.577-4.147
			c-0.702,2.848-0.077,5.78,0.288,8.655c0.359,2.875,0.382,6.02-1.306,8.471c-1.481,2.158-4.125,3.412-6.752,3.633
			c-0.321,0.026-0.642,0.041-0.957,0.041c-2.301,0-4.558-0.673-6.604-1.644c-1.122-0.534-2.218-1.164-3.445-1.422
			c-0.071-0.014-0.139-0.02-0.205-0.02c-0.713,0-1.481,0.713-2.62,0.713c-0.549,0-1.179-0.164-1.925-0.641
			c-0.243,2.745-2.688,2.629-3.253,3.669c-0.591,1.105-0.812,2.345-1.126,3.553c-0.655,2.495-1.787,4.948-3.645,6.817
			c-1.693,1.703-4.057,2.861-6.438,2.861c-0.229,0-0.458-0.01-0.691-0.029c-2.961-0.291-5.354-2.335-7.317-4.461
			c-1.969-2.129-3.811-4.493-6.443-5.793c3.186-0.415,6.263-1.787,8.696-3.89c-2.463-0.357-4.748-1.632-6.283-3.511
			c-1.91-2.336-2.602-5.414-2.961-8.414c-0.362-3-0.453-6.072-1.396-8.934c5.246,1.041,9.244,4.888,13.447,8.035
			c0.548,0.407,1.192,0.825,1.864,0.825c0.133,0,0.266-0.016,0.398-0.05c1.067-0.283,1.455-1.7,1.001-2.657
			c-0.453-0.957-1.44-1.541-2.392-2.042c-2.124-1.12-4.361-2.133-6.1-3.76c-1.739-1.628-2.92-4.046-2.326-6.377
			c0.816,0.598,1.845,1.209,2.812,1.209c0.368,0,0.73-0.088,1.07-0.301c0.924-0.585,1.117-1.817,1.029-2.866
			c-0.216-2.482-1.499-4.788-1.479-7.285c0.011-1.395,0.426-2.766,0.838-4.112C438.713,123.829,439.423,121.092,439.725,120.106
			 M482.631,144.539L482.631,144.539 M439.725,119.379c-0.105,0-0.21,0.022-0.307,0.067c-0.188,0.086-0.33,0.249-0.393,0.448
			c-0.152,0.501-0.398,1.411-0.658,2.374c-0.249,0.91-0.503,1.849-0.65,2.332c-0.423,1.381-0.86,2.807-0.874,4.317
			c-0.008,1.477,0.393,2.863,0.783,4.208c0.315,1.079,0.608,2.099,0.699,3.148c0.042,0.498,0.064,1.709-0.694,2.188
			c-0.199,0.127-0.42,0.189-0.677,0.189c-0.617,0-1.416-0.359-2.381-1.067c-0.127-0.094-0.276-0.143-0.431-0.143
			c-0.08,0-0.166,0.014-0.243,0.042c-0.23,0.083-0.401,0.272-0.462,0.506c-0.716,2.811,0.838,5.504,2.533,7.09
			c1.535,1.435,3.421,2.406,5.24,3.344c0.343,0.174,0.683,0.35,1.021,0.527c0.849,0.449,1.714,0.953,2.071,1.71
			c0.161,0.336,0.155,0.805-0.014,1.164c-0.08,0.176-0.238,0.404-0.514,0.477c-0.069,0.019-0.139,0.027-0.213,0.027
			c-0.454,0-0.974-0.345-1.427-0.68c-0.774-0.58-1.56-1.197-2.317-1.795c-3.435-2.697-6.982-5.49-11.426-6.371
			c-0.044-0.01-0.094-0.015-0.141-0.015c-0.208,0-0.407,0.088-0.545,0.245c-0.171,0.196-0.226,0.464-0.146,0.711
			c0.689,2.099,0.916,4.391,1.131,6.607c0.072,0.716,0.146,1.458,0.233,2.187c0.326,2.716,0.978,6.168,3.119,8.788
			c1.319,1.609,3.155,2.813,5.188,3.427c-2.102,1.479-4.584,2.462-7.126,2.793c-0.318,0.039-0.572,0.283-0.622,0.604
			c-0.055,0.315,0.105,0.63,0.393,0.769c2.074,1.025,3.694,2.823,5.259,4.565c0.321,0.359,0.642,0.716,0.968,1.067
			c1.864,2.013,4.43,4.366,7.784,4.693c0.251,0.021,0.509,0.032,0.76,0.032c2.437,0,5.036-1.147,6.952-3.078
			c1.765-1.766,3.054-4.176,3.831-7.145c0.067-0.249,0.128-0.498,0.188-0.747c0.232-0.949,0.447-1.844,0.885-2.644
			c0.089-0.165,0.443-0.356,0.796-0.539c0.77-0.402,1.859-0.977,2.329-2.39c0.471,0.19,0.935,0.283,1.405,0.283
			c0.784,0,1.404-0.265,1.901-0.479c0.282-0.121,0.548-0.236,0.719-0.236c0.018,0,0.039,0.004,0.056,0.006
			c0.885,0.185,1.714,0.594,2.589,1.026c0.232,0.116,0.458,0.229,0.691,0.341c2.395,1.136,4.723,1.714,6.918,1.714
			c0.337,0,0.686-0.017,1.018-0.044c3.042-0.255,5.769-1.73,7.295-3.945c1.907-2.774,1.765-6.256,1.421-8.976
			c-0.061-0.475-0.127-0.951-0.193-1.428c-0.32-2.305-0.652-4.686-0.116-6.918c0.022-0.069,0.033-0.14,0.033-0.217
			c0-0.401-0.326-0.728-0.725-0.728c-0.006,0-0.006,0-0.006,0c-0.006,0-0.011,0-0.016,0c-0.183,0.004-0.349,0.076-0.476,0.192
			c-1.893,1.731-4.237,2.999-6.726,3.653c0.841-1.949,1.101-4.128,0.719-6.172c-0.624-3.328-2.854-6.05-4.717-8.047
			c-0.499-0.538-1.023-1.07-1.521-1.587c-1.56-1.594-3.169-3.242-4.33-5.121c-0.133-0.213-0.364-0.344-0.619-0.344
			c-0.006,0-0.012,0-0.017,0c-0.261,0.007-0.492,0.151-0.619,0.377c-2.185,3.966-2.335,8.481-2.478,12.846
			c-0.033,0.963-0.067,1.961-0.122,2.928c-0.038,0.662-0.133,1.379-0.559,1.675c-0.117,0.083-0.26,0.125-0.42,0.125
			c-0.46,0-0.975-0.343-1.179-0.78c-0.348-0.76-0.172-1.742,0.034-2.686c0.077-0.372,0.165-0.744,0.248-1.118
			c0.453-1.998,0.93-4.063,0.813-6.163c-0.123-2.316-1.179-5.242-3.788-6.503c-0.105-0.048-0.21-0.073-0.321-0.073
			c-0.128,0-0.255,0.033-0.365,0.1c-0.211,0.121-0.343,0.341-0.359,0.58c-0.11,1.692-0.548,2.667-1.296,2.908
			c-0.116,0.036-0.237,0.054-0.362,0.054c-0.525,0-1.166-0.338-1.758-0.933c-0.742-0.745-1.333-1.629-1.958-2.561
			c-0.774-1.163-1.579-2.366-2.715-3.307c-1.164-0.963-2.538-1.55-3.866-2.116c-0.415-0.174-1.125-0.64-1.811-1.089
			c-0.777-0.508-1.507-0.986-2.038-1.213C439.915,119.398,439.822,119.379,439.725,119.379L439.725,119.379z M472.14,173.823
			c-0.062-0.027-0.139-0.056-0.194-0.069l-0.071-0.019l-0.128-0.022l-0.21-0.041c-0.133-0.025-0.271-0.059-0.408-0.089
			c-0.277-0.071-0.549-0.158-0.825-0.251c-0.547-0.194-1.09-0.434-1.614-0.705c-1.062-0.542-2.052-1.242-2.98-2.025
			c-1.865-1.564-3.436-3.503-4.768-5.595c-0.564-0.89-1.09-1.808-1.576-2.747c2.654-3.641,4.744-7.701,6.061-12.003
			c1.355-4.37,1.892-8.987,1.527-13.527c-0.006-0.105-0.1-0.186-0.205-0.18c-0.11,0.005-0.193,0.096-0.188,0.206
			c0.226,4.499-0.432,9.02-1.881,13.258c-1.35,3.989-3.374,7.73-5.9,11.08c-0.438-0.914-0.869-1.848-1.306-2.766l-3.248-6.881
			l-1.922-4.092c0.011-0.009,0.017-0.016,0.024-0.026c0.83-1.021,1.221-2.201,1.533-3.356c0.295-1.168,0.495-2.341,0.61-3.521
			c0.128-1.178,0.202-2.358,0.232-3.538c0.011-0.59,0.017-1.18,0.015-1.769l-0.012-0.885l-0.014-0.443
			c-0.011-0.146,0.011-0.294-0.072-0.44c-0.017-0.022-0.033-0.042-0.059-0.053c-0.063-0.033-0.146-0.006-0.179,0.061
			c-0.075,0.146-0.05,0.293-0.056,0.438l-0.008,0.437l-0.025,0.878c-0.021,0.583-0.056,1.168-0.094,1.751
			c-0.084,1.166-0.211,2.327-0.382,3.476c-0.166,1.15-0.415,2.288-0.746,3.383c-0.288,0.953-0.653,1.911-1.212,2.666l-4.104-8.748
			l-6.404-13.804c-0.072-0.156-0.257-0.227-0.412-0.155c-0.158,0.07-0.227,0.255-0.155,0.414l6.275,13.866l3.981,8.896
			c-1.111-0.026-2.284-0.344-3.404-0.713c-1.2-0.396-2.386-0.863-3.55-1.383c-1.164-0.518-2.32-1.071-3.459-1.655l-1.698-0.896
			l-0.843-0.462l-0.418-0.234c-0.141-0.077-0.265-0.176-0.442-0.192c-0.03-0.002-0.061,0.003-0.083,0.02
			c-0.061,0.04-0.083,0.119-0.044,0.181c0.1,0.153,0.249,0.214,0.382,0.305l0.412,0.253l0.827,0.498
			c0.553,0.329,1.112,0.651,1.67,0.969c1.123,0.635,2.262,1.238,3.417,1.811c1.156,0.574,2.342,1.261,3.564,1.72
			c1.225,0.443,2.486,1.047,3.89,1.047c0.004,0,0.012,0,0.018,0c0.055,0,0.113-0.179,0.166-0.199l1.83,4.011l3.096,6.915
			l1.327,2.953c-4.332-0.193-8.646-1.064-12.702-2.648c-4.173-1.624-8.058-4.033-11.354-7.103c-0.078-0.07-0.199-0.073-0.274,0.001
			c-0.077,0.079-0.077,0.202,0.003,0.279c3.241,3.2,7.118,5.907,11.332,7.688c4.209,1.789,8.744,3.246,13.321,3.246
			c0.006,0,0.017,0,0.022,0c0.066,0,0.127-0.154,0.193-0.172c0.453,0.941,0.946,1.796,1.482,2.698
			c1.327,2.229,2.903,4.298,4.828,6.112c0.973,0.903,2.029,1.7,3.186,2.402c0.575,0.349,1.177,0.655,1.814,0.924
			c0.314,0.138,0.642,0.254,0.973,0.365c0.166,0.056,0.769,0.216,0.769,0.216s0.089,0.024,0.089,0.021
			c-0.05-0.012,0.259,0.05,0.42,0.042c0.011,0,0.216-0.022,0.453-0.067C472.538,175.781,472.748,175.424,472.14,173.823z"/>
		<path fill="#1D1D1B" d="M399.776,189.958h107.742v-77.812H399.776V189.958z M404.817,118.145h97.658v65.814h-97.658V118.145z"/>
	</g>
	<path opacity="0.4" fill="#C1272D" enable-background="new    " d="M453.646,29.515c-74.162,0-134.5,60.338-134.5,134.5
		c0,74.163,60.338,134.5,134.5,134.5c74.163,0,134.5-60.338,134.5-134.5C588.146,89.854,527.809,29.515,453.646,29.515z
		 M453.646,62.452c22.044,0,42.457,7.082,59.126,19.062L371.149,223.137c-11.982-16.664-19.063-37.078-19.063-59.122
		C352.086,108.016,397.647,62.452,453.646,62.452z M453.646,265.574c-22.088,0-42.536-7.109-59.22-19.133l141.646-141.649
		c12.023,16.687,19.134,37.133,19.134,59.223C555.206,220.016,509.647,265.574,453.646,265.574z"/>
</g>
</svg>
