<?xml version="1.0" encoding="utf-8"?>
<!-- Generator: Adobe Illustrator 16.0.0, SVG Export Plug-In . SVG Version: 6.00 Build 0)  -->
<!DOCTYPE svg PUBLIC "-//W3C//DTD SVG 1.1//EN" "http://www.w3.org/Graphics/SVG/1.1/DTD/svg11.dtd">
<svg version="1.1" id="Ebene_1" xmlns="http://www.w3.org/2000/svg" xmlns:xlink="http://www.w3.org/1999/xlink" x="0px" y="0px"
	 width="100px" height="100px" viewBox="0 0 100 100" enable-background="new 0 0 100 100" xml:space="preserve">
<g id="XMLID_592_">
	<g id="XMLID_572_">
		<g id="XMLID_312_">
			<path id="XMLID_313_" fill="#1D1D1B" d="M-52.966-84.38"/>
		</g>
	</g>
</g>
<g>
	<g opacity="0.4">
		<path fill="#1D1D1B" d="M65.643,74.24h-31.08c-4.854,0-8.804-3.852-8.804-8.586v-31.08c0-4.778,4.032-8.815,8.804-8.815h31.08
			c4.738,0,8.596,3.955,8.598,8.815v31.079C74.24,70.469,70.463,74.24,65.643,74.24z M34.563,27.76
			c-3.688,0-6.804,3.121-6.804,6.815v31.08c0,3.632,3.052,6.586,6.804,6.586h31.08c3.699,0,6.598-2.893,6.598-6.586V34.576
			c-0.002-3.758-2.961-6.816-6.598-6.816H34.563z"/>
		<path fill="#1D1D1B" d="M45.083,34.493c0.334,0.143,1.024,0.671,1.359,0.814c0.458,0.194,0.923,0.394,1.302,0.708
			c0.68,0.563,1.012,1.433,1.633,2.056c0.214,0.214,0.504,0.405,0.803,0.405c0.068,0,0.137-0.011,0.205-0.032
			c0.486-0.155,0.605-0.763,0.636-1.255c0.766,0.37,1.15,1.239,1.195,2.079c0.045,0.84-0.191,1.674-0.371,2.504
			c-0.08,0.371-0.148,0.771,0.008,1.11c0.111,0.244,0.387,0.425,0.648,0.425c0.105,0,0.207-0.028,0.297-0.091
			c0.244-0.171,0.289-0.5,0.305-0.787c0.105-1.853-0.025-3.808,0.887-5.461c0.561,0.905,1.369,1.629,2.098,2.409
			c0.729,0.779,1.404,1.666,1.6,2.713c0.158,0.842-0.016,1.749-0.48,2.496c1.121-0.181,2.193-0.699,3.029-1.465
			c-0.248,1.006-0.027,2.042,0.102,3.057c0.127,1.016,0.135,2.126-0.461,2.992c-0.523,0.762-1.457,1.205-2.385,1.283
			c-0.113,0.009-0.227,0.015-0.338,0.015c-0.813,0-1.609-0.237-2.332-0.581c-0.396-0.188-0.783-0.411-1.217-0.502
			c-0.025-0.005-0.049-0.007-0.072-0.007c-0.252,0-0.523,0.251-0.926,0.251c-0.193,0-0.416-0.058-0.68-0.226
			c-0.086,0.97-0.949,0.928-1.148,1.296c-0.209,0.391-0.287,0.828-0.398,1.255c-0.231,0.881-0.631,1.747-1.287,2.407
			c-0.598,0.602-1.433,1.011-2.273,1.011c-0.081,0-0.162-0.004-0.244-0.011c-1.046-0.103-1.891-0.824-2.584-1.575
			c-0.695-0.752-1.346-1.587-2.275-2.046c1.125-0.146,2.212-0.631,3.071-1.374c-0.87-0.126-1.677-0.576-2.219-1.24
			c-0.675-0.825-0.919-1.912-1.046-2.972c-0.128-1.06-0.16-2.145-0.493-3.155c1.853,0.368,3.265,1.726,4.749,2.838
			c0.193,0.144,0.421,0.291,0.658,0.291c0.047,0,0.094-0.005,0.141-0.018c0.377-0.1,0.514-0.601,0.354-0.938
			s-0.509-0.544-0.845-0.721c-0.75-0.396-1.54-0.753-2.154-1.328c-0.614-0.575-1.031-1.429-0.821-2.252
			c0.288,0.211,0.651,0.427,0.993,0.427c0.13,0,0.258-0.031,0.378-0.106c0.326-0.207,0.395-0.642,0.363-1.012
			c-0.076-0.876-0.529-1.691-0.522-2.573c0.004-0.493,0.15-0.977,0.296-1.452C44.726,35.808,44.977,34.841,45.083,34.493
			 M60.236,43.122L60.236,43.122 M45.083,34.236c-0.037,0-0.074,0.008-0.108,0.024c-0.066,0.03-0.116,0.088-0.139,0.158
			c-0.054,0.177-0.141,0.499-0.232,0.838c-0.088,0.321-0.178,0.653-0.229,0.823c-0.149,0.488-0.304,0.991-0.309,1.525
			c-0.003,0.521,0.139,1.011,0.276,1.486c0.111,0.381,0.215,0.741,0.247,1.112c0.015,0.176,0.022,0.604-0.245,0.772
			c-0.07,0.045-0.148,0.067-0.239,0.067c-0.218,0-0.5-0.127-0.841-0.377c-0.045-0.033-0.098-0.05-0.152-0.05
			c-0.028,0-0.059,0.005-0.086,0.015c-0.081,0.029-0.142,0.096-0.163,0.179c-0.253,0.993,0.296,1.944,0.895,2.504
			c0.542,0.507,1.208,0.85,1.851,1.181c0.121,0.062,0.241,0.124,0.36,0.186c0.3,0.159,0.605,0.336,0.731,0.604
			c0.057,0.119,0.055,0.284-0.005,0.411c-0.028,0.062-0.084,0.143-0.182,0.168c-0.024,0.006-0.049,0.009-0.075,0.009
			c-0.16,0-0.344-0.122-0.504-0.24c-0.273-0.205-0.551-0.423-0.818-0.634c-1.213-0.953-2.466-1.939-4.035-2.25
			c-0.016-0.003-0.033-0.005-0.05-0.005c-0.073,0-0.144,0.031-0.192,0.086c-0.061,0.069-0.08,0.164-0.052,0.251
			c0.243,0.741,0.323,1.551,0.399,2.333c0.025,0.253,0.052,0.515,0.082,0.772c0.115,0.959,0.346,2.178,1.102,3.104
			c0.466,0.568,1.114,0.994,1.832,1.21c-0.742,0.523-1.619,0.87-2.517,0.987c-0.112,0.014-0.202,0.1-0.22,0.213
			c-0.02,0.111,0.037,0.223,0.139,0.271c0.732,0.362,1.305,0.997,1.857,1.612c0.113,0.127,0.227,0.253,0.342,0.377
			c0.658,0.711,1.564,1.542,2.749,1.657c0.089,0.008,0.18,0.012,0.269,0.012c0.86,0,1.778-0.405,2.455-1.087
			c0.623-0.624,1.078-1.475,1.353-2.523c0.023-0.088,0.045-0.176,0.066-0.264c0.082-0.335,0.158-0.651,0.313-0.934
			c0.031-0.059,0.156-0.126,0.281-0.19c0.271-0.142,0.656-0.345,0.822-0.844c0.166,0.067,0.33,0.1,0.496,0.1
			c0.277,0,0.496-0.093,0.672-0.169c0.1-0.042,0.193-0.083,0.254-0.083c0.006,0,0.014,0.001,0.02,0.002
			c0.313,0.065,0.605,0.209,0.914,0.362c0.082,0.041,0.162,0.081,0.244,0.12c0.846,0.401,1.668,0.605,2.443,0.605
			c0.119,0,0.242-0.006,0.359-0.016c1.074-0.09,2.037-0.611,2.576-1.393c0.674-0.98,0.623-2.209,0.502-3.17
			c-0.021-0.167-0.045-0.336-0.068-0.504c-0.113-0.814-0.23-1.655-0.041-2.443c0.008-0.024,0.012-0.049,0.012-0.077
			c0-0.142-0.115-0.257-0.256-0.257c-0.002,0-0.002,0-0.002,0c-0.002,0-0.004,0-0.006,0c-0.064,0.001-0.123,0.027-0.168,0.068
			c-0.668,0.611-1.496,1.059-2.375,1.29c0.297-0.688,0.389-1.458,0.254-2.18c-0.221-1.175-1.008-2.137-1.666-2.842
			c-0.176-0.19-0.361-0.378-0.537-0.561c-0.551-0.563-1.119-1.145-1.529-1.809c-0.047-0.075-0.129-0.122-0.219-0.122
			c-0.002,0-0.004,0-0.006,0c-0.092,0.002-0.174,0.053-0.219,0.133c-0.771,1.401-0.824,2.995-0.875,4.537
			c-0.012,0.34-0.023,0.693-0.043,1.034c-0.014,0.234-0.047,0.487-0.197,0.591c-0.041,0.029-0.092,0.044-0.148,0.044
			c-0.162,0-0.344-0.121-0.416-0.275c-0.123-0.269-0.061-0.615,0.012-0.949c0.027-0.131,0.059-0.263,0.088-0.395
			c0.16-0.706,0.328-1.435,0.287-2.177c-0.043-0.818-0.416-1.851-1.338-2.296c-0.037-0.017-0.074-0.026-0.113-0.026
			c-0.045,0-0.09,0.012-0.129,0.035c-0.074,0.043-0.121,0.121-0.127,0.205c-0.039,0.598-0.193,0.942-0.458,1.027
			c-0.041,0.013-0.084,0.019-0.128,0.019c-0.186,0-0.412-0.12-0.621-0.33c-0.262-0.263-0.471-0.575-0.691-0.904
			c-0.273-0.411-0.558-0.835-0.959-1.168c-0.411-0.34-0.896-0.547-1.365-0.747c-0.146-0.062-0.397-0.226-0.64-0.385
			c-0.274-0.179-0.532-0.348-0.72-0.428C45.151,34.243,45.118,34.236,45.083,34.236L45.083,34.236z M56.531,53.464
			c-0.021-0.01-0.049-0.02-0.068-0.024l-0.025-0.007l-0.045-0.008l-0.074-0.015c-0.047-0.009-0.096-0.021-0.145-0.031
			c-0.098-0.025-0.193-0.056-0.291-0.089c-0.193-0.068-0.385-0.153-0.57-0.249c-0.375-0.191-0.725-0.438-1.053-0.715
			c-0.658-0.553-1.213-1.237-1.684-1.976c-0.199-0.314-0.385-0.638-0.557-0.97c0.938-1.286,1.676-2.72,2.141-4.239
			c0.479-1.543,0.668-3.174,0.539-4.777c-0.002-0.037-0.035-0.065-0.072-0.063c-0.039,0.002-0.068,0.034-0.066,0.073
			c0.08,1.589-0.152,3.186-0.664,4.682c-0.477,1.409-1.191,2.73-2.084,3.913c-0.154-0.323-0.307-0.653-0.461-0.977l-1.147-2.43
			l-0.679-1.445c0.004-0.003,0.006-0.006,0.009-0.009c0.293-0.36,0.431-0.777,0.541-1.185c0.104-0.413,0.175-0.827,0.216-1.244
			c0.045-0.416,0.071-0.833,0.082-1.25c0.004-0.208,0.006-0.417,0.005-0.625l-0.004-0.313l-0.005-0.156
			c-0.004-0.052,0.004-0.104-0.025-0.156c-0.006-0.008-0.012-0.015-0.021-0.019c-0.022-0.012-0.052-0.002-0.063,0.021
			c-0.026,0.051-0.018,0.104-0.02,0.155l-0.003,0.154l-0.009,0.31c-0.008,0.206-0.02,0.413-0.033,0.619
			c-0.029,0.412-0.074,0.822-0.135,1.228c-0.059,0.406-0.146,0.808-0.264,1.195c-0.102,0.336-0.23,0.675-0.428,0.941l-1.449-3.089
			l-2.262-4.875c-0.025-0.055-0.091-0.08-0.146-0.055c-0.056,0.025-0.08,0.09-0.055,0.146l2.216,4.897l1.406,3.142
			c-0.393-0.009-0.807-0.122-1.202-0.252c-0.424-0.14-0.843-0.305-1.254-0.488c-0.411-0.183-0.819-0.378-1.222-0.584l-0.6-0.316
			l-0.298-0.163l-0.147-0.083c-0.05-0.027-0.094-0.063-0.156-0.068c-0.011-0.001-0.021,0.001-0.029,0.007
			c-0.021,0.014-0.029,0.042-0.016,0.064c0.035,0.054,0.088,0.076,0.135,0.108l0.146,0.089l0.292,0.176
			c0.195,0.116,0.393,0.23,0.59,0.342c0.396,0.224,0.799,0.437,1.207,0.64s0.827,0.445,1.259,0.607
			c0.433,0.156,0.878,0.37,1.374,0.37c0.001,0,0.004,0,0.006,0c0.02,0,0.04-0.063,0.059-0.07l0.646,1.417l1.093,2.442l0.469,1.043
			c-1.53-0.068-3.053-0.376-4.486-0.935c-1.474-0.574-2.846-1.424-4.01-2.509c-0.027-0.025-0.07-0.026-0.097,0
			c-0.027,0.028-0.027,0.071,0.001,0.099c1.145,1.13,2.514,2.086,4.002,2.715c1.486,0.632,3.088,1.146,4.705,1.146
			c0.002,0,0.006,0,0.008,0c0.023,0,0.045-0.054,0.068-0.061c0.16,0.333,0.334,0.634,0.523,0.953
			c0.469,0.787,1.025,1.518,1.705,2.158c0.344,0.319,0.717,0.601,1.125,0.849c0.203,0.123,0.416,0.231,0.641,0.326
			c0.111,0.049,0.227,0.09,0.344,0.129c0.059,0.02,0.271,0.076,0.271,0.076s0.031,0.009,0.031,0.008
			c-0.018-0.004,0.092,0.018,0.148,0.015c0.004,0,0.076-0.008,0.16-0.023C56.672,54.155,56.746,54.029,56.531,53.464z"/>
		<path fill="#1D1D1B" d="M30.975,59.162h38.05v-27.48h-38.05V59.162z M32.755,33.8h34.489v23.243H32.755V33.8z"/>
	</g>
	<path opacity="0.4" fill="#C1272D" enable-background="new    " d="M50,2.5C23.809,2.5,2.5,23.809,2.5,50
		c0,26.191,21.309,47.5,47.5,47.5c26.191,0,47.5-21.309,47.5-47.5C97.5,23.809,76.191,2.5,50,2.5z M50,14.132
		c7.785,0,14.994,2.501,20.881,6.732L20.865,70.88c-4.231-5.886-6.732-13.095-6.732-20.88C14.133,30.223,30.223,14.132,50,14.132z
		 M50,85.867c-7.801,0-15.022-2.512-20.914-6.758l50.023-50.024c4.246,5.893,6.758,13.114,6.758,20.915
		C85.867,69.777,69.777,85.867,50,85.867z"/>
</g>
<rect x="-53.5" y="48.333" fill="#FFFFFF" width="42" height="36.167"/>
</svg>
