<?xml version="1.0" encoding="utf-8"?>
<!-- Generator: Adobe Illustrator 16.0.0, SVG Export Plug-In . SVG Version: 6.00 Build 0)  -->
<!DOCTYPE svg PUBLIC "-//W3C//DTD SVG 1.1//EN" "http://www.w3.org/Graphics/SVG/1.1/DTD/svg11.dtd">
<svg version="1.1" id="Ebene_1" xmlns="http://www.w3.org/2000/svg" xmlns:xlink="http://www.w3.org/1999/xlink" x="0px" y="0px"
	 width="100px" height="100px" viewBox="0 0 100 100" enable-background="new 0 0 100 100" xml:space="preserve">
<g id="XMLID_592_">
	<g id="XMLID_572_">
		<g id="XMLID_312_">
			<path id="XMLID_313_" fill="#1D1D1B" d="M-52.966-84.38"/>
		</g>
	</g>
</g>
<g>
	<g opacity="0.4">
		<path fill="#1D1D1B" d="M74.117,33.523c0-4.176-3.292-7.573-7.34-7.573H33.679c-4.099,0-7.562,3.469-7.562,7.573v33.098
			c0,4.041,3.393,7.329,7.562,7.329h33.098c4.116,0,7.341-3.22,7.341-7.329V33.523L74.117,33.523z M72.992,66.621
			c0,3.421-2.788,6.204-6.216,6.204H33.679c-3.398,0-6.061-2.725-6.061-6.203V33.523c0-3.405,2.662-6.072,6.061-6.072h33.098
			c3.485,0,6.216,2.667,6.216,6.072V66.621L72.992,66.621z"/>
		<path fill="#1D1D1B" d="M29.868,59.7h40.499V30.45H29.868V59.7z M31.404,32.145h37.427v25.861H31.404V32.145z"/>
		<path d="M60.223,46.066c-0.02-0.161-0.043-0.32-0.064-0.478c-0.113-0.786-0.219-1.527-0.046-2.239
			c0.042-0.178-0.036-0.366-0.194-0.458c-0.119-0.071-0.266-0.075-0.388-0.018c-0.04,0.018-0.072,0.04-0.106,0.071
			c-0.377,0.35-0.799,0.704-1.272,0.929c-0.173,0.081-0.432,0.16-0.612,0.223c0.188-0.587,0.298-1.287,0.185-1.882
			c-0.219-1.147-0.979-2.07-1.616-2.748c-0.632-0.672-1.228-1.451-1.767-2.319c-0.115-0.18-0.345-0.243-0.531-0.155
			c-0.015,0.005-0.031,0.014-0.043,0.024c-0.064,0.04-0.115,0.095-0.147,0.157c-0.104,0.116-0.334,0.383-0.465,0.837l-0.009,0.035
			c-0.062,0.214-0.126,0.437-0.165,0.674c-0.151,0.876,0.121,1.658,0.266,2.502c0.073,0.432,0.097,0.707,0.018,1.016
			c-0.096,0.383-0.37,0.979-0.931,0.887c-0.238-0.039-0.311-0.267-0.313-0.408c-0.01-0.236,0.245-1.059,0.298-1.266
			c0.15-0.577,0.221-1.197,0.185-1.831c-0.024-0.45-0.136-0.978-0.456-1.487c-0.192-0.309-0.504-0.747-1.062-1.012
			c-0.115-0.055-0.573-0.086-0.575-0.035c-0.013,0.188,0.094,0.282,0.122,0.516c0.031,0.263,0.038,0.478-0.093,0.763
			c-0.023,0.046-0.045,0.11-0.09,0.131c-0.004,0.001-0.011,0.003-0.019,0.005c-0.161,0.051-0.38-0.093-0.531-0.242
			c-0.235-0.233-0.427-0.518-0.63-0.819c-0.268-0.395-0.54-0.804-0.939-1.13c-0.405-0.334-0.895-0.539-1.325-0.723
			c-0.154-0.063-0.448-0.198-0.729-0.328c-0.173-0.078-0.345-0.159-0.492-0.225c-0.079-0.054-0.174-0.081-0.271-0.074
			c-0.048,0.004-0.099,0.017-0.14,0.037h-0.002l0,0c-0.002,0-0.002,0-0.004,0.002c0,0,0,0-0.002,0l0,0c0,0-0.001,0-0.003,0.002
			c-0.042,0.022-0.083,0.049-0.117,0.084c-0.068,0.07-0.111,0.161-0.116,0.256c-0.045,0.156-0.096,0.344-0.144,0.524
			c-0.081,0.301-0.164,0.61-0.21,0.769c-0.137,0.448-0.288,0.956-0.291,1.481c0,0.515,0.136,0.987,0.271,1.443
			c0.103,0.348,0.199,0.679,0.229,1.009c0.021,0.212-0.011,0.472-0.151,0.565c-0.005,0.002-0.011,0.005-0.014,0.007
			c-0.043,0.022-0.111-0.002-0.158-0.015c-0.304-0.08-0.467-0.225-0.646-0.415c-0.163-0.171-0.169-0.313-0.319-0.423
			c-0.043-0.03-0.312,0.342-0.342,0.465c-0.15,0.598-0.015,1.117,0.102,1.465c0.189,0.57,0.523,0.993,0.854,1.3
			c0.468,0.433,0.986,0.775,1.526,1.026c0.194,0.091,0.989,0.421,1.167,0.576c0.104,0.096,0.234,0.294,0.113,0.503
			c-0.287,0.489-0.923,0.322-1.278,0.151c-0.285-0.136-0.484-0.329-0.769-0.66c-0.558-0.651-0.987-1.358-1.758-1.802
			c-0.204-0.119-0.42-0.214-0.623-0.304l-0.034-0.014c-0.433-0.19-0.782-0.182-0.938-0.178c-0.071-0.014-0.146-0.011-0.219,0.013
			c-0.015,0.006-0.032,0.012-0.047,0.02c-0.187,0.088-0.283,0.307-0.217,0.509c0.325,0.97,0.544,1.925,0.655,2.838
			c0.117,0.922,0.343,2.1,1.085,3.001c0.386,0.465,0.994,0.826,1.567,1.058c-0.162,0.101-0.39,0.249-0.563,0.332
			c-0.478,0.225-1.02,0.319-1.527,0.389c-0.042,0.005-0.085,0.018-0.121,0.035c-0.122,0.058-0.212,0.173-0.233,0.311
			c-0.03,0.182,0.062,0.363,0.227,0.442c0.657,0.322,1.163,0.88,1.695,1.465c0.105,0.117,0.213,0.237,0.323,0.354
			c0.422,0.451,0.791,0.776,1.169,1.029c0.504,0.337,1.007,0.523,1.529,0.574c0.53,0.047,1.086-0.058,1.614-0.306
			c0.395-0.187,0.769-0.448,1.079-0.765c0.604-0.61,1.043-1.437,1.306-2.451c0.021-0.084,0.039-0.17,0.061-0.249
			c0.072-0.302,0.144-0.468,0.188-0.731c0.028-0.028,0.195-0.93,0.882-0.643c-0.122-0.226-0.24-0.454-0.345-0.686
			c-0.05-0.104-0.095-0.205-0.139-0.308c-0.019,0.004-0.034,0.008-0.049,0.009c-0.005,0-0.013,0-0.016,0
			c-0.729,0.024-1.462,0.008-2.189-0.067s-1.452-0.207-2.154-0.422c-0.702-0.214-1.383-0.516-1.995-0.927
			c-0.309-0.207-0.596-0.439-0.858-0.697c-0.262-0.256-0.499-0.538-0.703-0.84c-0.035-0.047-0.022-0.112,0.024-0.146
			c0.047-0.031,0.108-0.02,0.141,0.024l0,0c0.212,0.281,0.452,0.54,0.715,0.773c0.262,0.232,0.545,0.439,0.845,0.621
			c0.602,0.358,1.263,0.615,1.941,0.788s1.379,0.27,2.083,0.306c0.647,0.035,1.3,0.022,1.948-0.024l-0.109-0.241l-1.022-2.289
			L49.63,44.68c-0.025,0.007-0.054,0.013-0.084,0.013c-0.006,0-0.013,0-0.017,0l-0.169-0.012l-0.082-0.005l-0.083-0.008l-0.168-0.02
			l-0.166-0.026c-0.028-0.004-0.054-0.007-0.081-0.013l-0.082-0.017c-0.054-0.011-0.109-0.021-0.163-0.032
			c-0.108-0.026-0.216-0.049-0.323-0.08c-0.107-0.027-0.212-0.063-0.316-0.094c-0.054-0.019-0.105-0.037-0.158-0.055l-0.078-0.028
			l-0.076-0.029c-0.204-0.077-0.405-0.165-0.604-0.26c-0.05-0.023-0.099-0.045-0.146-0.07l-0.147-0.074
			c-0.094-0.054-0.19-0.103-0.284-0.157c-0.187-0.109-0.373-0.225-0.553-0.344c-0.18-0.123-0.355-0.249-0.528-0.381
			c-0.086-0.067-0.168-0.135-0.251-0.205c-0.043-0.035-0.083-0.07-0.124-0.104c-0.02-0.02-0.041-0.037-0.061-0.056
			c-0.021-0.021-0.034-0.043-0.041-0.081c-0.004-0.05,0.03-0.096,0.078-0.102c0.004,0,0.004,0,0.008,0h0.007
			c0.036-0.002,0.061,0.008,0.083,0.024l0.061,0.047c0.041,0.032,0.086,0.063,0.126,0.095c0.086,0.061,0.172,0.119,0.262,0.178
			c0.177,0.115,0.355,0.227,0.539,0.329c0.366,0.204,0.743,0.387,1.131,0.539c0.194,0.077,0.392,0.147,0.589,0.205l0.074,0.024
			l0.075,0.021c0.049,0.014,0.099,0.027,0.148,0.041c0.102,0.023,0.198,0.049,0.302,0.069c0.349,0.077,0.708,0.115,1.062,0.127
			l-0.228-0.51l-1.031-2.281l-0.521-1.142l-0.517-1.141c-0.346-0.76-0.694-1.518-1.044-2.275c-0.026-0.062-0.002-0.129,0.058-0.157
			c0.06-0.027,0.127-0.001,0.156,0.058l0,0c0.349,0.757,0.705,1.513,1.06,2.269l0.531,1.135l0.535,1.131l1.07,2.264l0.223,0.461
			c0.191-0.257,0.369-0.531,0.521-0.82c0.049-0.09,0.094-0.184,0.139-0.275c0.022-0.048,0.043-0.094,0.063-0.143l0.032-0.07
			l0.032-0.072c0.081-0.19,0.15-0.386,0.216-0.585c0.129-0.396,0.229-0.804,0.305-1.217c0.038-0.206,0.068-0.416,0.09-0.624
			c0.013-0.104,0.021-0.209,0.029-0.313c0.007-0.054,0.007-0.105,0.011-0.156l0.003-0.079c0.004-0.026,0.012-0.052,0.036-0.078
			l0.006-0.005c0.034-0.036,0.091-0.038,0.127-0.002c0,0,0.004,0.002,0.004,0.004c0.026,0.027,0.034,0.055,0.038,0.081
			c0,0.027,0.002,0.053,0.003,0.081c0,0.053,0.002,0.108,0.002,0.161c0,0.108-0.002,0.217-0.005,0.324
			c-0.008,0.216-0.021,0.432-0.042,0.648c-0.021,0.215-0.05,0.431-0.09,0.646c-0.018,0.107-0.037,0.214-0.061,0.32l-0.036,0.16
			c-0.011,0.054-0.025,0.107-0.039,0.158c-0.053,0.212-0.115,0.421-0.188,0.629l-0.025,0.081l-0.03,0.077
			c-0.021,0.052-0.038,0.104-0.058,0.154c-0.042,0.104-0.083,0.204-0.128,0.308c-0.045,0.101-0.095,0.198-0.144,0.3
			c-0.025,0.05-0.052,0.097-0.079,0.147l-0.041,0.073c-0.011,0.023-0.025,0.048-0.04,0.07l-0.088,0.141l-0.092,0.14l-0.044,0.072
			l-0.049,0.067l-0.101,0.137c-0.004,0.005-0.007,0.011-0.013,0.016l0.595,1.243l1.081,2.259l0.11,0.228
			c0.439-0.462,0.858-0.946,1.235-1.46c0.422-0.565,0.797-1.164,1.097-1.798c0.3-0.635,0.522-1.304,0.631-1.998
			c0.05-0.346,0.073-0.696,0.061-1.047c-0.015-0.352-0.06-0.699-0.141-1.043l0,0c-0.012-0.056,0.022-0.112,0.078-0.125
			c0.052-0.014,0.109,0.021,0.123,0.074c0.102,0.351,0.168,0.713,0.196,1.079c0.03,0.365,0.026,0.735-0.013,1.101
			c-0.074,0.734-0.276,1.449-0.561,2.126c-0.279,0.679-0.643,1.32-1.048,1.929c-0.409,0.609-0.862,1.184-1.344,1.728
			c-0.011,0.013-0.021,0.021-0.032,0.03l0.011,0.022c0.045,0.095,0.09,0.187,0.137,0.278c0.184,0.356,0.15,0.311,0.366,0.646
			c0,0,0.002,0.014,0.006,0.035l0,0c0,0.006,0,0.01,0,0.017c0.001,0.032,0,0.075-0.01,0.12c-0.014,0.063-0.039,0.129-0.104,0.169
			c-0.089,0.051-0.186,0.026-0.254,0c-0.04-0.019-0.07-0.034-0.074-0.038l-0.004-0.002c0.006,0.012,0.01,0.017,0.017,0.027
			c0.004,0.011,0.007,0.018,0.015,0.03l0,0c0.075,0.135,0.131,0.231,0.195,0.342c0.221,0.366,0.458,0.727,0.724,1.068
			c0.266,0.341,0.554,0.664,0.876,0.962c0.32,0.3,0.668,0.571,1.053,0.805c0.099,0.057,0.194,0.111,0.295,0.162
			c0.102,0.053,0.202,0.102,0.309,0.146c0.107,0.045,0.215,0.086,0.326,0.122c0.04,0.015,0.076,0.025,0.115,0.036
			c0.072,0.047,0.161,0.071,0.251,0.067l0.019-0.003h0.016h0.013c0.008,0,0.015,0,0.033-0.004c-0.331,0.113,0.682-0.02,0.132-0.779
			c-0.075-0.037-0.064-0.026-0.082-0.033c-0.009,0-0.015-0.004-0.019-0.004l-0.009-0.004l-0.026-0.005h-0.019
			c-0.018-0.004-0.034-0.008-0.05-0.012c-0.008,0.004-0.019,0.008-0.029,0.012c-0.011,0-0.02,0-0.03,0.003
			c-0.009,0-0.02,0.002-0.026,0.002c0.018-0.009,0.033-0.017,0.048-0.023c-0.037-0.007-0.075-0.014-0.116-0.023
			c-0.086-0.021-0.177-0.048-0.268-0.077c-0.09-0.032-0.178-0.064-0.268-0.103c-0.09-0.037-0.176-0.078-0.263-0.123
			c-0.345-0.175-0.671-0.399-0.977-0.65c-0.305-0.255-0.589-0.542-0.851-0.848c-0.263-0.307-0.503-0.634-0.726-0.975
			c-0.004-0.008-0.198-0.344-0.23-0.399c0.223-0.688,0.978-0.234,1.021-0.24c0.233,0.141,0.405,0.188,0.681,0.325
			c0.075,0.036,0.152,0.075,0.231,0.111c0.951,0.447,1.867,0.634,2.718,0.56c0.442-0.037,0.884-0.155,1.279-0.343
			c0.527-0.247,0.964-0.61,1.266-1.048c0.296-0.433,0.471-0.939,0.533-1.544C60.316,47.169,60.302,46.677,60.223,46.066z"/>
	</g>
	<path opacity="0.4" fill="#C1272D" enable-background="new    " d="M50,2.5C23.809,2.5,2.5,23.809,2.5,50
		c0,26.191,21.309,47.5,47.5,47.5c26.191,0,47.5-21.309,47.5-47.5C97.5,23.809,76.191,2.5,50,2.5z M50,14.132
		c7.785,0,14.994,2.501,20.881,6.732L20.865,70.88c-4.231-5.886-6.732-13.095-6.732-20.88C14.133,30.223,30.223,14.132,50,14.132z
		 M50,85.867c-7.801,0-15.022-2.512-20.914-6.758l50.023-50.024c4.246,5.893,6.758,13.114,6.758,20.915
		C85.867,69.777,69.777,85.867,50,85.867z"/>
</g>
</svg>
