<?xml version="1.0" encoding="utf-8"?>
<!-- Generator: Adobe Illustrator 16.0.0, SVG Export Plug-In . SVG Version: 6.00 Build 0)  -->
<!DOCTYPE svg PUBLIC "-//W3C//DTD SVG 1.1//EN" "http://www.w3.org/Graphics/SVG/1.1/DTD/svg11.dtd">
<svg version="1.1" id="Ebene_1" xmlns="http://www.w3.org/2000/svg" xmlns:xlink="http://www.w3.org/1999/xlink" x="0px" y="0px"
	 width="499.674px" height="500px" viewBox="0 0 499.674 500" enable-background="new 0 0 499.674 500" xml:space="preserve">
<rect x="15.335" y="383" fill="#C2D248" width="402.656" height="81"/>
<rect x="445.552" y="383" fill="#C2D248" width="38.787" height="81"/>
<g>
	<path d="M413.501,40.303H86.174c-20.317,0-36.847,16.529-36.847,36.846v158.904h17.75l2.25-155.904
		c0-10.943,8.903-19.846,19.847-19.846l324.327-3c10.943,0,19.846,8.903,19.846,19.846l-0.046,3.158h17.046v-3.158
		C450.347,56.832,433.817,40.303,413.501,40.303z"/>
	<path d="M430.347,265.043c0,10.943-8.902,19.846-19.846,19.846l-324.327,3c-10.943,0-19.847-8.902-19.847-19.846l0.045-3.158
		H49.327v3.158c0,20.316,16.529,36.846,36.847,36.846h327.327c20.316,0,36.846-16.529,36.846-36.846V109.139h-17.75L430.347,265.043
		z"/>
	<path d="M217.529,240.255l93.073-58.598c7.916-4.984,7.916-13.139,0-18.123l-93.073-58.598c-7.917-4.984-14.394-1.408-14.394,7.946
		v119.426C203.136,241.664,209.612,245.239,217.529,240.255z"/>
	<path d="M425.837,334h-102v15h102c4.143,0,7.5-3.357,7.5-7.5S429.979,334,425.837,334z"/>
	<path d="M153.337,325.5c-6.125,0-11.441,3.445-14.13,8.5h-65.37c-4.142,0-7.5,3.357-7.5,7.5s3.358,7.5,7.5,7.5h65.37
		c2.689,5.055,8.005,8.5,14.13,8.5s11.441-3.445,14.13-8.5h140.87v-15h-140.87C164.778,328.945,159.462,325.5,153.337,325.5z"/>
</g>
</svg>
