<!DOCTYPE svg PUBLIC "-//W3C//DTD SVG 1.1//EN" "http://www.w3.org/Graphics/SVG/1.1/DTD/svg11.dtd">
<svg version="1.1" id="Ebene_1" xmlns="http://www.w3.org/2000/svg" xmlns:xlink="http://www.w3.org/1999/xlink" x="0px" y="0px"
	 width="300px" height="500px" viewBox="0 0 500 500" enable-background="new 0 0 500 500" xml:space="preserve">
<path d="M213.246,313.818c-1.962,0-3.553-1.592-3.553-3.553v-65.138c0-1.962,1.591-3.553,3.553-3.553s3.553,1.591,3.553,3.553
	v65.138C216.799,312.229,215.208,313.818,213.246,313.818z M231.124,298.88v-42.364c0-1.962-1.591-3.553-3.553-3.553
	c-1.962,0-3.553,1.592-3.553,3.553v42.364c0,1.962,1.591,3.554,3.553,3.554C229.533,302.434,231.124,300.842,231.124,298.88z
	 M245.448,287.42v-19.445c0-1.961-1.591-3.553-3.553-3.553s-3.553,1.592-3.553,3.553v19.445c0,1.962,1.591,3.553,3.553,3.553
	S245.448,289.382,245.448,287.42z M188.149,287.42v-19.445c0-1.961-1.591-3.553-3.553-3.553c-1.962,0-3.553,1.592-3.553,3.553
	v19.445c0,1.962,1.591,3.553,3.553,3.553C186.558,290.973,188.149,289.382,188.149,287.42z M202.474,298.88v-42.364
	c0-1.962-1.591-3.553-3.553-3.553s-3.553,1.592-3.553,3.553v42.364c0,1.962,1.591,3.554,3.553,3.554S202.474,300.842,202.474,298.88
	z M288.31,307.25v-59.105c0-1.962-1.591-3.553-3.553-3.553s-3.553,1.591-3.553,3.553v59.105c0,1.962,1.591,3.553,3.553,3.553
	S288.31,309.212,288.31,307.25z M274.211,286.52v-17.645c0-1.962-1.591-3.553-3.553-3.553s-3.554,1.591-3.554,3.553v17.645
	c0,1.963,1.592,3.554,3.554,3.554S274.211,288.48,274.211,286.52z M302.747,299.41v-43.426c0-1.961-1.591-3.553-3.553-3.553
	c-1.963,0-3.553,1.592-3.553,3.553v43.426c0,1.962,1.59,3.553,3.553,3.553C301.156,302.963,302.747,301.372,302.747,299.41z
	 M317.072,286.52v-17.645c0-1.962-1.591-3.553-3.554-3.553c-1.962,0-3.553,1.591-3.553,3.553v17.645
	c0,1.963,1.591,3.554,3.553,3.554C315.481,290.073,317.072,288.48,317.072,286.52z M259.772,296.918v-38.441
	c0-1.961-1.59-3.553-3.553-3.553c-1.962,0-3.553,1.592-3.553,3.553v38.441c0,1.962,1.591,3.553,3.553,3.553
	C258.183,300.471,259.772,298.88,259.772,296.918z M377.768,181.514c0.704,2.544,3.183,4.258,5.882,3.928
	c2.972-0.362,5.087-3.066,4.723-6.038c-2.013-16.485-7.404-32.657-15.391-47.5c-8.083-14.795-18.816-28.276-31.697-39.436
	c-12.85-11.185-27.789-20.078-43.857-26.078c-8.031-3.012-16.354-5.255-24.8-6.799c-8.454-1.507-17.039-2.255-25.615-2.288
	c-8.575,0.033-17.161,0.781-25.614,2.288c-8.446,1.544-16.768,3.787-24.799,6.799c-16.07,6-31.01,14.893-43.859,26.078
	c-12.88,11.16-23.613,24.641-31.697,39.436c-7.987,14.843-13.378,31.015-15.391,47.5c-0.323,2.619,1.309,5.152,3.929,5.881
	c2.885,0.801,5.873-0.888,6.675-3.773l0.009-0.03c4.11-14.792,10.268-28.821,18.587-41.36c8.194-12.606,18.505-23.676,30.166-32.842
	c11.681-9.152,24.795-16.349,38.705-21.156c6.953-2.399,14.089-4.255,21.341-5.444c7.242-1.226,14.59-1.846,21.948-1.832
	c7.358-0.014,14.706,0.606,21.949,1.832c7.251,1.189,14.388,3.045,21.343,5.444c13.908,4.807,27.021,12.004,38.703,21.156
	c11.661,9.166,21.974,20.236,30.165,32.842c8.318,12.539,14.479,26.568,18.589,41.36L377.768,181.514z M111.659,324.891
	c14.29,0,25.982-11.691,25.982-25.982v-71.019c0-14.291-11.692-25.983-25.982-25.983h-1.099c-14.291,0-25.983,11.692-25.983,25.983
	v71.019c0,14.291,11.692,25.982,25.983,25.982H111.659 M74.674,231.492c-11.672,7.548-19.052,18.59-19.052,30.908
	c0,12.317,7.382,23.354,19.052,30.904V231.492z M383.605,324.891h1.099c14.291,0,25.983-11.691,25.983-25.982v-71.019
	c0-14.291-11.692-25.983-25.983-25.983h-1.099c-14.29,0-25.982,11.692-25.982,25.983v71.019
	C357.623,313.198,369.315,324.891,383.605,324.891 M420.59,293.305c11.67-7.549,19.052-18.586,19.052-30.902
	c0-12.319-7.38-23.361-19.052-30.909V293.305z"/>
<rect id="rect" y="383" width="439.642" height="81"/>
<rect id="rect" x="469.004" y="383" width="30.67" height="81"/>
<text transform="matrix(1 0 0 1 95.478 437.6035)" font-family="'Roboto'" font-weight="500" font-size="45.0291">{{title}}</text>
<path d="M56.632,441.751c-0.718,0-1.417-0.213-2.02-0.616c-0.063-0.041-0.124-0.086-0.182-0.134l-13.398-10.949h-8.298
	c-2.012,0-3.648-1.637-3.648-3.647v-8.495c0-2.013,1.636-3.648,3.648-3.648h7.886l13.846-11.006
	c0.057-0.046,0.117-0.089,0.178-0.128c0.596-0.389,1.284-0.595,1.989-0.595c2.014,0,3.652,1.638,3.652,3.649V438.1
	C60.284,440.112,58.646,441.751,56.632,441.751z M33.751,425.386h7.654c0.725,0,1.426,0.213,2.028,0.616
	c0.062,0.041,0.121,0.085,0.178,0.132l12.007,9.813v-27.648l-12.463,9.907c-0.057,0.045-0.115,0.088-0.176,0.127
	c-0.594,0.39-1.284,0.594-1.994,0.594h-7.233L33.751,425.386L33.751,425.386z M70.037,434.06c2.917-1.646,7.257-6.179,7.257-11.919
	c0-5.738-4.34-10.271-7.257-11.918c-0.722-0.404-1.636-0.15-2.042,0.569c-0.406,0.72-0.152,1.635,0.569,2.042
	c2.217,1.251,5.733,4.883,5.733,9.307c0,4.425-3.516,8.059-5.733,9.309c-0.721,0.407-0.976,1.32-0.569,2.042
	c0.275,0.487,0.784,0.763,1.307,0.763C69.552,434.253,69.804,434.19,70.037,434.06z M67.86,426.431
	c1.497-0.698,3.108-2.508,3.108-4.825c0-2.316-1.611-4.125-3.108-4.824c-0.683-0.321-1.494-0.024-1.813,0.658
	c-0.319,0.683-0.024,1.494,0.658,1.813c0.638,0.298,1.536,1.227,1.536,2.354c0,1.129-0.898,2.058-1.536,2.354
	c-0.682,0.318-0.977,1.13-0.658,1.813c0.232,0.495,0.724,0.786,1.237,0.786C67.476,426.56,67.673,426.519,67.86,426.431z
	 M72.032,439.202c5.273-2.466,10.611-9.118,10.611-17.063s-5.338-14.595-10.611-17.061c-0.682-0.32-1.495-0.024-1.813,0.657
	c-0.319,0.683-0.025,1.494,0.658,1.813c4.492,2.102,9.039,7.786,9.039,14.59c0,6.805-4.547,12.49-9.039,14.592
	c-0.683,0.318-0.977,1.131-0.658,1.813c0.231,0.495,0.723,0.786,1.236,0.786C71.648,439.331,71.845,439.29,72.032,439.202z"/>
</svg>
