<?xml version="1.0" encoding="utf-8"?>
<!-- Generator: Adobe Illustrator 16.0.0, SVG Export Plug-In . SVG Version: 6.00 Build 0)  -->
<!DOCTYPE svg PUBLIC "-//W3C//DTD SVG 1.1//EN" "http://www.w3.org/Graphics/SVG/1.1/DTD/svg11.dtd">
<svg version="1.1" id="Ebene_1" xmlns="http://www.w3.org/2000/svg" xmlns:xlink="http://www.w3.org/1999/xlink" x="0px" y="0px"
	 width="100px" height="100px" viewBox="0 0 100 100" enable-background="new 0 0 100 100" xml:space="preserve">
<g id="XMLID_592_">
	<g id="XMLID_572_">
		<g id="XMLID_312_">
			<path id="XMLID_313_" fill="#1D1D1B" d="M-52.966-84.38"/>
		</g>
	</g>
</g>
<g>
	<g opacity="0.4">
		<path fill="#1D1D1B" d="M76.921,31.574c0-4.685-3.692-8.495-8.233-8.495H31.56c-4.597,0-8.481,3.89-8.481,8.495v37.127
			c0,4.531,3.805,8.22,8.481,8.22h37.125c4.617,0,8.234-3.61,8.234-8.22L76.921,31.574L76.921,31.574z M75.659,68.701
			c0,3.836-3.128,6.958-6.974,6.958H31.56c-3.812,0-6.798-3.058-6.798-6.958V31.574c0-3.82,2.986-6.813,6.798-6.813h37.125
			c3.91,0,6.974,2.993,6.974,6.813V68.701z"/>
		<path fill="#1D1D1B" d="M56.823,41.477c-0.209-0.469-0.458-0.881-0.736-1.21c-0.017-0.062-0.076-0.34,0.098-0.649
			c0.127-0.226,0.191-0.352,0.763-1.205c1.456-2.175,0.333-5.887-0.903-5.571c-1.237,0.317-2.954,1.679-2.954,1.679h-0.001
			c0.292-1.187,0.833-1.907,1.492-2.301c0.77-0.46,0-0.576,0-0.576h-9.162c0,0-0.77,0.116,0,0.576
			c0.658,0.394,1.2,1.114,1.492,2.303l-0.001-0.002c0,0-1.717-1.362-2.954-1.679c-1.237-0.316-2.359,3.396-0.903,5.571
			c0.57,0.853,0.636,0.979,0.763,1.205c0.176,0.313,0.112,0.595,0.097,0.651c-1.065,1.268-1.726,3.736-1.176,6.047
			c0.575,2.417,4.604,8.286,4.604,8.286s1.868,2.819,2.66,2.819c0.634,0,1.955-1.803,2.459-2.526
			c0.126-0.18,0.201-0.293,0.201-0.293l-1.293-2.063l-0.403-2.934l2.705-2.101l0.518-4.431L56.823,41.477z M45.419,39.171
			c-0.052,0.025-0.104,0.051-0.155,0.077l0.002-0.001c0,0-0.888,0.131-1.534-0.995c-0.97-1.69-0.248-4.383,0.673-4.148
			c0.921,0.236,2.791,2.086,2.855,2.536c0.154,1.026,0.278,1.85,0.278,1.85S46.467,38.675,45.419,39.171z M52.461,38.49
			c0,0,0.124-0.824,0.279-1.85c0.063-0.45,1.935-2.3,2.855-2.536c0.921-0.235,1.642,2.458,0.673,4.148
			c-0.646,1.126-1.534,0.995-1.534,0.995l0.002,0.001c-0.052-0.026-0.104-0.052-0.155-0.077
			C53.532,38.675,52.461,38.49,52.461,38.49z"/>
		<path fill="#1D1D1B" d="M27.286,60.938h45.429V28.127H27.286V60.938z M29.009,30.027h41.982v29.009H29.009V30.027z"/>
	</g>
	<path opacity="0.4" fill="#C1272D" enable-background="new    " d="M50,2.5C23.809,2.5,2.5,23.809,2.5,50
		c0,26.191,21.309,47.5,47.5,47.5c26.191,0,47.5-21.309,47.5-47.5C97.5,23.809,76.191,2.5,50,2.5z M50,14.132
		c7.785,0,14.994,2.501,20.881,6.732L20.865,70.88c-4.231-5.886-6.732-13.095-6.732-20.88C14.133,30.223,30.223,14.132,50,14.132z
		 M50,85.867c-7.801,0-15.022-2.512-20.914-6.758l50.023-50.024c4.246,5.893,6.758,13.114,6.758,20.915
		C85.867,69.777,69.777,85.867,50,85.867z"/>
</g>
</svg>
