<?xml version="1.0" encoding="utf-8"?>
<!-- Generator: Adobe Illustrator 16.0.0, SVG Export Plug-In . SVG Version: 6.00 Build 0)  -->
<!DOCTYPE svg PUBLIC "-//W3C//DTD SVG 1.1//EN" "http://www.w3.org/Graphics/SVG/1.1/DTD/svg11.dtd">
<svg version="1.1" id="Ebene_1" xmlns="http://www.w3.org/2000/svg" xmlns:xlink="http://www.w3.org/1999/xlink" x="0px" y="0px"
	 width="24px" height="24px" viewBox="0 0 24 24" enable-background="new 0 0 24 24" xml:space="preserve">
<path d="M16.915,4.591H7.494c-1.802,0-3.268,1.466-3.268,3.269v6.198v3.316v3.032l1.83-2.418l0.501-0.662h0.937h1.164h8.257
	c1.803,0,3.269-1.465,3.269-3.269V7.861C20.184,6.058,18.718,4.591,16.915,4.591z M19.34,14.122c0,1.273-1.033,2.305-2.307,2.305
	H8.569H7.376H5.96l-0.716,0.947v-0.083l-0.174,0.229v-3.398V7.77c0-1.273,1.033-2.306,2.306-2.306h9.657
	c1.273,0,2.305,1.032,2.307,2.306V14.122z M10.332,11.594c0,0.388-0.313,0.702-0.7,0.702c-0.388,0-0.701-0.313-0.701-0.702
	c0-0.386,0.313-0.7,0.701-0.7C10.018,10.894,10.332,11.207,10.332,11.594 M12.766,11.594c0,0.388-0.313,0.702-0.701,0.702
	s-0.701-0.313-0.701-0.702c0-0.386,0.313-0.7,0.701-0.7S12.766,11.207,12.766,11.594 M15.199,11.594
	c0,0.388-0.314,0.702-0.701,0.702c-0.388,0-0.701-0.313-0.701-0.702c0-0.386,0.313-0.7,0.701-0.7
	C14.885,10.894,15.199,11.207,15.199,11.594"/>
</svg>
