<?xml version="1.0" encoding="utf-8"?>
<!-- Generator: Adobe Illustrator 16.0.0, SVG Export Plug-In . SVG Version: 6.00 Build 0)  -->
<!DOCTYPE svg PUBLIC "-//W3C//DTD SVG 1.1//EN" "http://www.w3.org/Graphics/SVG/1.1/DTD/svg11.dtd">
<svg version="1.1" id="Ebene_1" xmlns="http://www.w3.org/2000/svg" xmlns:xlink="http://www.w3.org/1999/xlink" x="0px" y="0px"
	 width="24px" height="24px" viewBox="0 0 24 24" enable-background="new 0 0 24 24" xml:space="preserve">
<path id="Black_Background_3_" d="M12,2.908c5.021,0,9.092,4.072,9.092,9.092c0,5.021-4.07,9.091-9.092,9.091
	c-5.021,0-9.092-4.069-9.092-9.091C2.908,6.98,6.979,2.908,12,2.908 M12,2C6.479,2,2,6.479,2,12c0,5.522,4.479,10,10,10
	s10-4.478,10-10C22,6.479,17.521,2,12,2z M12,18.094c-0.419,0-0.757-0.34-0.757-0.755v-5.72c0-0.42,0.338-0.757,0.757-0.757
	c0.42,0,0.757,0.336,0.757,0.757v5.72C12.757,17.754,12.42,18.094,12,18.094z M12.106,9.374h-0.162c-0.378,0-0.688-0.31-0.688-0.688
	V8.215c0-0.378,0.31-0.687,0.688-0.687h0.162c0.378,0,0.689,0.309,0.689,0.687v0.47C12.795,9.064,12.484,9.374,12.106,9.374z"/>
</svg>
