<?xml version="1.0" encoding="utf-8"?>
<!-- Generator: Adobe Illustrator 16.0.0, SVG Export Plug-In . SVG Version: 6.00 Build 0)  -->
<!DOCTYPE svg PUBLIC "-//W3C//DTD SVG 1.1//EN" "http://www.w3.org/Graphics/SVG/1.1/DTD/svg11.dtd">
<svg version="1.1" id="Ebene_1" xmlns="http://www.w3.org/2000/svg" xmlns:xlink="http://www.w3.org/1999/xlink" x="0px" y="0px"
	 width="24px" height="24px" viewBox="0 0 24 24" enable-background="new 0 0 24 24" xml:space="preserve">
<path fill="#FFFFFF" d="M11.734,13.92c-0.005,0.01-0.012,0.02-0.017,0.027c0.011-0.016,0.01-0.014,0.017-0.025V13.92z"/>
<polygon fill="#FFFFFF" points="10.414,15.359 10.414,15.359 10.415,15.359 "/>
<path d="M12.219,9.835c0.004,0.007,0.007,0.011,0.01,0.018c-0.002-0.005-0.006-0.012-0.008-0.017L12.219,9.835z"/>
<path d="M14.736,12.142c0.002,0.001,0.005,0.001,0.005,0.001c0.001,0,0.001,0,0,0c-0.001-0.001-0.005-0.001-0.009-0.002l-0.01-0.002
	C14.732,12.142,14.73,12.14,14.736,12.142"/>
<path d="M16.534,19.335l1.737-3.621l0.973-0.021l-2.48,4.52h-0.436l-1.715-2.41h0.842L16.534,19.335z M9.434,22.398
	c-2.592,0.115-4.768-1.322-4.852-3.205c-0.083-1.883,1.957-3.508,4.549-3.623c0.459-0.021,0.91,0.018,1.349,0.094
	c0.042-0.053,0.085-0.105,0.128-0.159c0.466-0.589,0.954-1.319,1.11-1.558c0.005-0.01,0.011-0.02,0.016-0.026v0.002
	c0.017-0.024,0.037-0.059,0.037-0.059s-0.002,0.083-0.001,0.214c0.097,0.42,0.353,1.66,0.339,1.845
	c0.011,0.021,0.019,0.048,0.031,0.067c0.124,0.212,0.29,0.338,0.459,0.455c0.213,0.148,0.422,0.3,0.58,0.553
	c0.127-0.18,0.272-0.346,0.434-0.498c-0.262-0.27-0.912-0.718-0.912-0.718s-0.482-2.372-0.507-2.439
	c-0.077-0.153-0.208-0.247-0.361-0.255c-0.208-0.023-0.365,0.137-0.429,0.239c-0.001,0-0.388,0.669-0.545,0.907
	c-0.104,0.158-0.358,0.512-0.525,0.738c-0.399-0.053-0.808-0.084-1.232-0.063c-2.962,0.131-5.283,2.063-5.183,4.313
	c0.099,2.252,2.582,3.971,5.544,3.84c1.737-0.078,3.236-0.783,4.174-1.799c-0.158-0.152-0.307-0.312-0.434-0.486
	C12.39,21.691,11.018,22.33,9.434,22.398z M9.024,21.095c-0.059,0.066-0.088,0.149-0.087,0.25c0.001,0.099,0.032,0.181,0.091,0.245
	c0.06,0.064,0.147,0.096,0.262,0.096c0.116-0.002,0.204-0.035,0.263-0.101c0.059-0.065,0.088-0.147,0.087-0.247
	s-0.032-0.183-0.091-0.248c-0.061-0.066-0.149-0.101-0.265-0.1C9.169,20.991,9.082,21.025,9.024,21.095z M10.122,19.18
	c0.344-0.373,0.512-0.752,0.509-1.134c-0.004-0.384-0.118-0.688-0.347-0.905c-0.227-0.22-0.543-0.326-0.948-0.324
	c-0.389,0.004-0.704,0.115-0.945,0.334c-0.242,0.222-0.362,0.507-0.363,0.86l0.594-0.006c-0.002-0.198,0.064-0.358,0.194-0.478
	c0.132-0.117,0.307-0.18,0.525-0.182c0.225-0.002,0.397,0.062,0.516,0.19c0.119,0.128,0.179,0.307,0.181,0.534
	c0.002,0.238-0.086,0.46-0.264,0.669l-0.417,0.444c-0.162,0.186-0.27,0.354-0.322,0.504c-0.053,0.15-0.079,0.356-0.082,0.614
	l0.595-0.005c-0.003-0.331,0.072-0.586,0.226-0.764L10.122,19.18z M19.133,16.771l-0.24,0.438c0.438,0.454,0.713,1.024,0.713,1.659
	c0,1.443-1.379,2.622-3.074,2.622s-3.074-1.179-3.074-2.622c0-1.446,1.379-2.622,3.074-2.622c0.334,0,0.648,0.058,0.949,0.142
	l0.211-0.438c-0.365-0.111-0.752-0.184-1.16-0.184c-1.963,0-3.555,1.389-3.555,3.102s1.592,3.101,3.555,3.101
	s3.554-1.388,3.554-3.101C20.084,18.057,19.719,17.324,19.133,16.771z M12.491,9.673c0.001-0.003,0.002-0.005,0.003-0.007
	C12.493,9.668,12.492,9.67,12.491,9.673L12.491,9.673z"/>
<path d="M12.221,9.836c0.002,0.005,0.006,0.012,0.008,0.017c0.003,0.005,0.004,0.01,0.009,0.017h0.001
	c0.002,0.002,0.017-0.004,0.032-0.011C12.246,9.849,12.223,9.837,12.221,9.836"/>
<path fill="#FFFFFF" d="M14.794,11.637c0.036-0.015,0.017-0.018-0.022-0.004c0.004,0.001,0.008,0.002,0.013,0.003
	C14.787,11.636,14.79,11.637,14.794,11.637"/>
<path d="M17.568,2.497H6.43l5.568,9.646L17.568,2.497z M12.212,10.919V6.338l4.339-2.932L12.212,10.919z M16.501,2.924l-4.502,3.043
	L7.497,2.924H16.501z M11.786,10.919L7.449,3.406l4.337,2.932V10.919z"/>
</svg>
