<?xml version="1.0" encoding="utf-8"?>
<!-- Generator: Adobe Illustrator 16.0.0, SVG Export Plug-In . SVG Version: 6.00 Build 0)  -->
<!DOCTYPE svg PUBLIC "-//W3C//DTD SVG 1.1//EN" "http://www.w3.org/Graphics/SVG/1.1/DTD/svg11.dtd">
<svg version="1.1" id="Ebene_1" xmlns="http://www.w3.org/2000/svg" xmlns:xlink="http://www.w3.org/1999/xlink" x="0px" y="0px"
	 width="203.004px" height="80px" viewBox="0 0 203.004 80" enable-background="new 0 0 203.004 80" xml:space="preserve">
<path fill="#006293" d="M37.442,40.861l8.956,0.223c2.24,0.049,4.479,0.111,6.156,0.213c1.677,0.078,2.796,0.165,2.796,0.165
	l-0.001,0.021c0,0-1.121,0.011-2.801-0.021c-1.68-0.013-3.918-0.1-6.156-0.198c-4.476-0.191-8.951-0.38-8.951-0.38L37.442,40.861z
	 M41.711,41.785c0,0,3.344,0.18,6.685,0.357c1.67,0.093,3.342,0.172,4.598,0.188c1.255,0.022,2.092,0.012,2.092,0.012V42.32
	c0,0-0.833-0.085-2.086-0.168c-1.251-0.085-2.924-0.146-4.597-0.189c-3.345-0.102-6.69-0.199-6.69-0.199L41.711,41.785z
	 M44.408,43.021c0,0,2.528,0.151,5.055,0.302c1.265,0.08,2.529,0.147,3.478,0.153c0.951,0.015,1.584-0.006,1.584-0.006l0.001-0.022
	c0,0-0.629-0.077-1.575-0.149c-0.948-0.075-2.212-0.122-3.479-0.155c-2.53-0.073-5.061-0.145-5.061-0.145L44.408,43.021z
	 M46.733,45.38c0,0,1.731,0.086,3.464,0.173c0.432,0.021,0.866,0.041,1.271,0.06c0.405,0.014,0.786,0.007,1.111,0.004
	c0.65-0.012,1.083-0.049,1.083-0.049l0.001-0.023c0,0-0.432-0.059-1.08-0.106c-0.325-0.021-0.702-0.047-1.109-0.058
	c-0.407,0-0.839-0.005-1.273-0.008c-1.732-0.01-3.467-0.015-3.467-0.015L46.733,45.38z M48.983,48.277c0,0,0.991,0.072,1.98,0.148
	c0.248,0.016,0.495,0.033,0.729,0.054c0.233,0.005,0.45-0.001,0.637-0.008c0.373-0.015,0.622-0.059,0.622-0.059v-0.022
	c0,0-0.246-0.055-0.617-0.097c-0.185-0.017-0.401-0.041-0.633-0.051c-0.233,0.001-0.481,0.001-0.73,0.002
	c-0.994,0.007-1.986,0.01-1.986,0.01L48.983,48.277z M23.226,61.011c0,0,0.014-0.83,0.042-2.287c0.018-0.722,0.015-1.615,0.06-2.611
	c0.05-1.019,0.158-2.14,0.472-3.325c0.267-1.205,0.785-2.443,1.435-3.679c0.663-1.235,1.566-2.421,2.645-3.486
	c1.083-1.063,2.372-1.998,3.822-2.646c1.441-0.651,3.023-1.047,4.619-1.131l0.602-0.021c0.088-0.003,0.225-0.015,0.274-0.01
	l0.31,0.022c0.408,0.039,0.838,0.041,1.229,0.106l1.143,0.211c0.378,0.111,0.754,0.222,1.131,0.332c1.477,0.515,2.835,1.276,4,2.202
	c0.602,0.441,1.119,0.961,1.634,1.46c0.466,0.55,0.941,1.07,1.325,1.637c0.429,0.54,0.728,1.144,1.066,1.696
	c0.27,0.59,0.591,1.134,0.776,1.712c0.107,0.281,0.211,0.561,0.315,0.831c0.08,0.275,0.157,0.549,0.233,0.813
	c0.174,0.531,0.253,1.053,0.346,1.538c0.111,0.484,0.129,0.952,0.172,1.38c0.051,0.427,0.086,0.827,0.101,1.19
	c0.083,1.455,0.152,2.286,0.152,2.286h0.119c0,0,0.069-0.831,0.151-2.286c0.027-0.359,0.044-0.764,0.04-1.213
	c-0.006-0.447,0.015-0.931-0.056-1.443c-0.052-0.513-0.089-1.069-0.221-1.634c-0.056-0.29-0.114-0.584-0.174-0.882
	c-0.089-0.295-0.181-0.598-0.274-0.902c-0.163-0.622-0.464-1.225-0.719-1.874c-0.335-0.607-0.636-1.265-1.07-1.866
	c-0.386-0.637-0.889-1.213-1.39-1.812c-0.552-0.55-1.109-1.126-1.761-1.616c-1.291-0.984-2.789-1.796-4.424-2.292
	c-0.412-0.105-0.826-0.214-1.241-0.32c-0.433-0.064-0.866-0.127-1.299-0.19c-0.43-0.053-0.833-0.042-1.251-0.065l-0.31-0.011
	c-0.158-0.003-0.229,0.011-0.348,0.016l-0.646,0.046c-1.713,0.139-3.396,0.606-4.911,1.346c-1.522,0.726-2.854,1.753-3.959,2.897
	c-1.097,1.147-2.016,2.404-2.653,3.713c-0.628,1.309-1.114,2.601-1.342,3.846c-0.28,1.234-0.348,2.405-0.361,3.405
	c-0.007,1.029,0.027,1.901,0.034,2.628c0.026,1.457,0.041,2.287,0.041,2.287H23.226z M87.778,57.201c0,0-0.001-0.269-0.004-0.772
	c0-0.505-0.023-1.254-0.1-2.194c-0.064-0.944-0.212-2.085-0.452-3.381c-0.245-1.296-0.604-2.748-1.139-4.283
	c-0.533-1.541-1.242-3.167-2.173-4.79c-0.943-1.616-2.111-3.235-3.571-4.685c-1.447-1.457-3.199-2.739-5.199-3.619
	c-1.989-0.879-4.267-1.306-6.475-1.099c-0.271,0.019-0.534,0.016-0.81,0.055l-0.835,0.152l-0.837,0.159
	c-0.275,0.059-0.532,0.164-0.8,0.245c-1.073,0.301-2.074,0.786-3.044,1.298c-1.943,1.047-3.546,2.542-4.912,4.1
	c-1.359,1.576-2.4,3.311-3.203,5.021c-0.189,0.436-0.376,0.863-0.562,1.282c-0.187,0.421-0.308,0.858-0.46,1.274
	c-0.139,0.423-0.299,0.831-0.413,1.24c-0.107,0.417-0.21,0.823-0.313,1.22c-0.234,0.79-0.333,1.573-0.456,2.31
	c-0.14,0.733-0.185,1.442-0.238,2.103c-0.157,1.324-0.077,2.484-0.085,3.433c0.074,1.886,0.146,2.964,0.146,2.964h0.12
	c0,0,0.056-1.078,0.156-2.963c0.039-0.469,0.082-0.985,0.13-1.547c0.026-0.281,0.029-0.574,0.073-0.876
	c0.045-0.299,0.092-0.609,0.141-0.933c0.095-0.64,0.185-1.327,0.369-2.031c0.167-0.709,0.314-1.458,0.563-2.214
	c0.113-0.379,0.229-0.77,0.348-1.163c0.125-0.396,0.295-0.778,0.444-1.183c0.163-0.394,0.292-0.809,0.488-1.205
	c0.193-0.395,0.387-0.796,0.585-1.205c0.182-0.417,0.429-0.802,0.662-1.205c0.239-0.395,0.447-0.818,0.718-1.207
	c0.27-0.387,0.544-0.778,0.82-1.174c0.265-0.405,0.613-0.749,0.918-1.132c1.266-1.486,2.75-2.905,4.526-3.931
	c0.89-0.499,1.811-0.979,2.8-1.284c0.244-0.081,0.487-0.187,0.734-0.246l0.745-0.162l0.748-0.163
	c0.256-0.044,0.533-0.05,0.798-0.075c2.084-0.24,4.186,0.113,6.089,0.899c1.906,0.792,3.61,1.978,5.036,3.358
	c1.44,1.368,2.602,2.926,3.572,4.478c0.953,1.562,1.696,3.141,2.264,4.64c0.569,1.5,0.963,2.926,1.243,4.201
	c0.271,1.277,0.451,2.407,0.541,3.341c0.101,0.938,0.146,1.671,0.159,2.178c0.018,0.505,0.026,0.774,0.026,0.774L87.778,57.201z
	 M132.435,54.7c0,0-0.001-0.359-0.004-1.033c0.003-0.671-0.022-1.659-0.091-2.911c-0.059-1.254-0.208-2.771-0.441-4.508
	c-0.244-1.735-0.621-3.677-1.189-5.761c-0.575-2.082-1.375-4.295-2.48-6.521c-0.561-1.106-1.189-2.224-1.94-3.296
	c-0.736-1.08-1.567-2.136-2.519-3.112c-1.881-1.974-4.238-3.651-6.915-4.73c-2.668-1.092-5.64-1.54-8.541-1.438
	c-2.924,0.062-5.86,0.697-8.482,1.986c-2.621,1.297-4.812,3.279-6.456,5.497c-1.621,2.246-2.772,4.67-3.56,7.045
	c-0.798,2.373-1.287,4.685-1.634,6.825c-0.345,2.144-0.487,4.12-0.584,5.872c-0.1,1.752-0.095,3.279-0.076,4.537
	c0.029,1.257,0.058,2.245,0.091,2.916c0.028,0.67,0.045,1.028,0.045,1.028h0.119c0,0,0.061-1.43,0.165-3.936
	c0.079-1.247,0.164-2.766,0.34-4.494c0.17-1.729,0.446-3.668,0.838-5.759c0.399-2.092,0.944-4.337,1.782-6.608
	c0.42-1.135,0.91-2.274,1.465-3.41c0.581-1.121,1.243-2.226,2.013-3.277c1.53-2.104,3.544-3.96,5.963-5.229
	c2.423-1.254,5.198-1.92,7.997-2.033c1.414-0.085,2.81-0.007,4.194,0.194c1.376,0.202,2.735,0.541,4.019,1.051
	c2.573,0.993,4.866,2.563,6.719,4.45c0.938,0.93,1.761,1.945,2.496,2.987c0.749,1.035,1.382,2.118,1.956,3.192
	c1.131,2.164,1.971,4.332,2.58,6.377c0.607,2.051,1.023,3.972,1.301,5.692c0.271,1.717,0.446,3.228,0.532,4.477
	c0.096,1.247,0.142,2.226,0.15,2.898c0.017,0.672,0.025,1.031,0.025,1.031H132.435z M30.698,43.472c0,0,3.428,0.053,6.856,0.108
	c0.855,0.01,1.713,0.024,2.517,0.033c0.804,0,1.554-0.021,2.196-0.035c1.285-0.04,2.142-0.106,2.142-0.106v-0.027
	c0,0-0.856-0.063-2.142-0.106c-0.642-0.015-1.392-0.035-2.196-0.035c-0.803,0.011-1.661,0.023-2.517,0.034
	c-3.428,0.054-6.856,0.107-6.856,0.107V43.472z M24.713,49.487c0,0,6.255,0.05,12.51,0.104c3.127,0.034,6.254,0.046,8.6-0.001
	c2.345-0.037,3.91-0.103,3.91-0.103v-0.031c0,0-1.565-0.063-3.91-0.103c-2.345-0.046-5.472-0.037-8.6,0
	c-6.255,0.049-12.51,0.103-12.51,0.103V49.487z M23.167,55.5c0,0,7.128,0.053,14.255,0.103c1.783,0.014,3.565,0.019,5.235,0.031
	c0.837-0.005,1.644,0.01,2.409-0.01c0.766-0.008,1.489-0.021,2.158-0.028c2.673-0.03,4.456-0.096,4.456-0.096v-0.032
	c0,0-1.782-0.064-4.456-0.094c-0.668-0.009-1.392-0.022-2.158-0.031c-0.766-0.015-1.572-0.005-2.409-0.009
	c-1.67,0.011-3.452,0.019-5.235,0.03c-7.127,0.055-14.255,0.104-14.255,0.104V55.5z M26.292,60.729c0,0,0.053-3.344,0.105-6.687
	c0.012-0.837,0.024-1.674,0.036-2.458c0-0.782-0.02-1.512-0.037-2.14c-0.039-1.256-0.104-2.089-0.104-2.089h-0.03
	c0,0-0.064,0.833-0.105,2.089c-0.014,0.628-0.036,1.357-0.036,2.14c0.012,0.784,0.023,1.621,0.036,2.458
	c0.053,3.343,0.105,6.687,0.105,6.687H26.292z M29.984,43.268c0,0-0.054,4.345-0.106,8.693c-0.034,2.174-0.045,4.347,0.001,5.975
	c0.04,1.633,0.105,2.717,0.105,2.717h0.029c0,0,0.064-1.084,0.104-2.717c0.046-1.628,0.035-3.801,0.001-5.975
	c-0.054-4.349-0.106-8.693-0.106-8.693H29.984z M33.705,41.761c0,0-0.053,4.666-0.104,9.333c-0.034,2.333-0.045,4.666,0,6.417
	c0.039,1.749,0.104,2.917,0.104,2.917h0.031c0,0,0.064-1.168,0.103-2.917c0.047-1.751,0.035-4.084,0.001-6.417
	c-0.051-4.667-0.104-9.333-0.104-9.333H33.705z M37.428,41.319l-0.106,9.407c-0.034,2.352-0.045,4.7,0.001,6.467
	c0.041,1.762,0.105,2.938,0.105,2.938h0.029c0,0,0.065-1.177,0.104-2.938c0.047-1.767,0.036-4.115,0.001-6.467l-0.105-9.407H37.428z
	 M41.148,42.186c0,0-0.054,4.43-0.105,8.857c-0.034,2.219-0.045,4.432,0.001,6.093c0.039,1.661,0.104,2.77,0.104,2.77h0.03
	c0,0,0.064-1.108,0.104-2.77c0.046-1.661,0.035-3.874,0.001-6.093c-0.053-4.428-0.105-8.857-0.105-8.857H41.148z M44.869,43.882
	c0,0-0.051,3.941-0.105,7.879c-0.034,1.974-0.045,3.943,0,5.419c0.041,1.477,0.104,2.462,0.104,2.462h0.03
	c0,0,0.065-0.985,0.103-2.462c0.047-1.476,0.036-3.445,0.001-5.419l-0.104-7.879H44.869z M48.592,47.356
	c0,0-0.054,3.054-0.106,6.106c-0.013,0.763-0.025,1.526-0.036,2.241c0,0.715,0.021,1.382,0.037,1.956
	c0.04,1.146,0.105,1.908,0.105,1.908h0.029c0,0,0.064-0.763,0.104-1.908c0.016-0.574,0.037-1.241,0.037-1.956
	c-0.011-0.715-0.023-1.479-0.035-2.241c-0.054-3.053-0.105-6.106-0.105-6.106H48.592z M54.511,45.366c0,0-0.054,3.428-0.106,6.858
	c-0.013,0.858-0.025,1.712-0.037,2.519c0,0.802,0.021,1.552,0.037,2.195c0.039,1.287,0.105,2.142,0.105,2.142h0.029
	c0,0,0.064-0.854,0.104-2.142c0.015-0.644,0.036-1.394,0.036-2.195c-0.011-0.807-0.023-1.66-0.035-2.519
	c-0.054-3.431-0.105-6.858-0.105-6.858H54.511z M58.34,38.037c0,0-0.055,5.243-0.106,10.485c-0.034,2.62-0.045,5.24,0.001,7.208
	c0.04,1.964,0.105,3.275,0.105,3.275h0.029c0,0,0.064-1.312,0.104-3.275c0.047-1.968,0.036-4.588,0.001-7.208
	c-0.054-5.242-0.105-10.485-0.105-10.485H58.34z M62.168,35.227c0,0-0.054,5.87-0.106,11.741c-0.034,2.933-0.045,5.868,0.001,8.069
	c0.04,2.201,0.105,3.669,0.105,3.669h0.029c0,0,0.063-1.468,0.104-3.669c0.047-2.201,0.036-5.137,0.001-8.069
	c-0.053-5.872-0.105-11.741-0.105-11.741H62.168z M65.998,33.29l-0.106,12.52c-0.034,3.132-0.045,6.263,0,8.609
	c0.04,2.348,0.106,3.913,0.106,3.913h0.029c0,0,0.064-1.565,0.104-3.913c0.047-2.347,0.035-5.478,0.001-8.609l-0.105-12.52H65.998z
	 M69.827,32.782c0,0-0.054,6.396-0.106,12.794c-0.034,3.195-0.045,6.396,0.001,8.794c0.04,2.397,0.105,3.998,0.105,3.998h0.029
	c0,0,0.064-1.601,0.104-3.998c0.047-2.397,0.035-5.599,0.001-8.794c-0.054-6.398-0.105-12.794-0.105-12.794H69.827z M73.656,33.29
	l-0.106,12.295c-0.034,3.074-0.045,6.151,0.001,8.455c0.041,2.303,0.105,3.842,0.105,3.842h0.029c0,0,0.064-1.539,0.104-3.842
	c0.047-2.304,0.036-5.381,0.001-8.455L73.685,33.29H73.656z M77.485,35.216c0,0-0.054,5.629-0.106,11.258
	c-0.034,2.813-0.045,5.628,0.001,7.737c0.04,2.112,0.105,3.521,0.105,3.521h0.029c0,0,0.064-1.408,0.104-3.521
	c0.048-2.109,0.036-4.924,0.001-7.737c-0.053-5.629-0.105-11.258-0.105-11.258H77.485z M81.314,38.55c0,0-0.053,4.759-0.106,9.517
	c-0.034,2.379-0.045,4.756,0.002,6.543c0.04,1.782,0.104,2.971,0.104,2.971h0.029c0,0,0.064-1.188,0.104-2.971
	c0.047-1.787,0.035-4.164,0.001-6.543c-0.053-4.758-0.105-9.517-0.105-9.517H81.314z M85.143,44.212c0,0-0.053,3.269-0.105,6.536
	c-0.014,0.815-0.025,1.633-0.037,2.399c0,0.766,0.022,1.479,0.038,2.092c0.04,1.225,0.105,2.043,0.105,2.043h0.029
	c0,0,0.064-0.818,0.104-2.043c0.017-0.612,0.038-1.326,0.038-2.092c-0.012-0.767-0.024-1.584-0.037-2.399
	c-0.052-3.268-0.105-6.536-0.105-6.536H85.143z M59.432,37.516c0,0,5.231,0.054,10.46,0.106c2.615,0.034,5.229,0.045,7.191-0.001
	c1.96-0.04,3.268-0.104,3.268-0.104v-0.029c0,0-1.308-0.064-3.268-0.105c-1.962-0.046-4.576-0.036-7.191-0.001
	c-5.229,0.054-10.46,0.106-10.46,0.106V37.516z M54.524,43.755c0,0,7.599,0.053,15.196,0.104c1.899,0.012,3.799,0.02,5.579,0.031
	c0.891-0.005,1.75,0.008,2.568-0.009c0.815-0.009,1.586-0.022,2.3-0.03c2.849-0.03,4.748-0.096,4.748-0.096v-0.031
	c0,0-1.899-0.065-4.748-0.096c-0.714-0.007-1.485-0.021-2.3-0.03c-0.818-0.015-1.677-0.004-2.568-0.009
	c-1.779,0.012-3.68,0.019-5.579,0.031c-7.597,0.053-15.196,0.104-15.196,0.104V43.755z M52.951,49.991c0,0,8.467,0.054,16.934,0.105
	c2.118,0.011,4.233,0.022,6.218,0.029c0.992-0.005,1.951,0.01,2.861-0.007c0.909-0.012,1.769-0.022,2.563-0.032
	c3.174-0.029,5.292-0.096,5.292-0.096v-0.029c0,0-2.118-0.067-5.292-0.093c-0.795-0.013-1.654-0.021-2.563-0.034
	c-0.91-0.015-1.869-0.005-2.861-0.008c-1.985,0.011-4.101,0.022-6.218,0.029c-8.467,0.055-16.934,0.105-16.934,0.105V49.991z
	 M85.156,43.624c0,0,0.746,0.138,1.495,0.245c0.188,0.028,0.373,0.066,0.551,0.086c0.175,0.017,0.342,0.01,0.484,0.01
	c0.287-0.016,0.481-0.062,0.481-0.062l0.002-0.028c0,0-0.182-0.083-0.461-0.149c-0.139-0.03-0.303-0.063-0.478-0.079
	c-0.177-0.014-0.366-0.014-0.557-0.019c-0.756-0.029-1.516-0.035-1.516-0.035L85.156,43.624z M82.997,40.063
	c0,0,1.429,0.16,2.858,0.292c0.358,0.036,0.716,0.072,1.051,0.105c0.335,0.021,0.65,0.021,0.921,0.022
	c0.54-0.005,0.901-0.045,0.901-0.045l0.001-0.029c0,0-0.353-0.088-0.889-0.164c-0.268-0.033-0.579-0.074-0.916-0.096
	c-0.336-0.01-0.696-0.021-1.055-0.032C84.438,40.063,83,40.034,83,40.034L82.997,40.063z M80.205,36.88l4.513,0.61
	c0.563,0.075,1.127,0.149,1.655,0.221c0.53,0.06,1.029,0.094,1.454,0.126c0.852,0.056,1.425,0.054,1.425,0.054l0.003-0.03
	c0,0-0.56-0.128-1.403-0.262c-0.421-0.064-0.913-0.14-1.443-0.199c-0.533-0.047-1.098-0.1-1.666-0.149
	c-2.268-0.201-4.536-0.401-4.536-0.401L80.205,36.88z M76.889,34.389c0,0,3.215,0.486,6.429,0.974
	c0.805,0.121,1.608,0.241,2.361,0.355c0.756,0.102,1.463,0.178,2.07,0.244c1.214,0.125,2.026,0.169,2.026,0.169l0.005-0.032
	c0,0-0.796-0.171-2-0.374c-0.602-0.099-1.304-0.213-2.06-0.316c-0.755-0.091-1.563-0.188-2.372-0.285
	c-3.227-0.384-6.457-0.768-6.457-0.768L76.889,34.389z M71.382,32.479c0,0,4.798,0.667,9.597,1.335
	c2.398,0.342,4.798,0.661,6.605,0.847c1.807,0.191,3.017,0.281,3.017,0.281l0.003-0.03c0,0-1.191-0.217-2.988-0.487
	c-1.796-0.278-4.2-0.574-6.607-0.85c-4.813-0.564-9.623-1.127-9.623-1.127L71.382,32.479z M92.659,31.063
	c0,0-0.054,6.48-0.105,12.96c-0.034,3.24-0.045,6.478,0,8.908c0.038,2.431,0.105,4.052,0.105,4.052h0.029
	c0,0,0.063-1.621,0.104-4.052c0.046-2.431,0.035-5.668,0.001-8.908c-0.054-6.48-0.105-12.96-0.105-12.96H92.659z M96.782,26.069
	c0,0-0.052,7.661-0.104,15.325c-0.01,1.917-0.021,3.83-0.03,5.627c0.003,0.897-0.008,1.768,0.008,2.59
	c0.011,0.822,0.022,1.602,0.032,2.321c0.028,2.873,0.094,4.789,0.094,4.789h0.032c0,0,0.064-1.916,0.092-4.789
	c0.01-0.72,0.021-1.499,0.033-2.321c0.017-0.822,0.004-1.692,0.008-2.59c-0.009-1.797-0.02-3.71-0.03-5.627
	c-0.052-7.664-0.103-15.325-0.103-15.325H96.782z M100.906,23.539c0,0-0.051,8.227-0.105,16.457c-0.01,2.059-0.02,4.113-0.028,6.041
	c0.003,0.965-0.009,1.899,0.005,2.78c0.013,0.885,0.023,1.722,0.033,2.492c0.03,3.086,0.095,5.144,0.095,5.144h0.029
	c0,0,0.067-2.058,0.096-5.144c0.01-0.771,0.021-1.607,0.032-2.492c0.018-0.881,0.006-1.815,0.007-2.78
	c-0.009-1.928-0.019-3.982-0.029-6.041c-0.051-8.229-0.106-16.457-0.106-16.457H100.906z M105.032,22.257
	c0,0-0.054,8.466-0.104,16.931c-0.011,2.117-0.022,4.235-0.029,6.217c0.004,0.992-0.011,1.951,0.007,2.861
	c0.011,0.909,0.022,1.77,0.032,2.564c0.03,3.173,0.095,5.289,0.095,5.289h0.03c0,0,0.066-2.116,0.092-5.289
	c0.014-0.795,0.021-1.655,0.035-2.564c0.014-0.91,0.005-1.869,0.008-2.861c-0.01-1.981-0.022-4.1-0.029-6.217
	c-0.055-8.465-0.105-16.931-0.105-16.931H105.032z M109.154,21.842c0,0-0.05,8.503-0.104,17.006
	c-0.011,2.125-0.019,4.25-0.029,6.241c0.004,0.998-0.007,1.961,0.008,2.874c0.01,0.915,0.022,1.776,0.03,2.576
	c0.03,3.188,0.095,5.311,0.095,5.311h0.032c0,0,0.065-2.123,0.096-5.311c0.008-0.8,0.021-1.661,0.03-2.576
	c0.017-0.913,0.005-1.876,0.009-2.874c-0.013-1.991-0.019-4.117-0.031-6.241c-0.051-8.503-0.104-17.006-0.104-17.006H109.154z
	 M113.282,22.257c0,0-0.054,8.363-0.107,16.727c-0.008,2.089-0.019,4.18-0.027,6.141c0.001,0.979-0.009,1.928,0.005,2.824
	c0.015,0.898,0.023,1.748,0.035,2.531c0.027,3.139,0.095,5.23,0.095,5.23h0.027c0,0,0.065-2.092,0.096-5.23
	c0.012-0.783,0.021-1.633,0.034-2.531c0.015-0.896,0-1.846,0.004-2.824c-0.006-1.961-0.019-4.052-0.026-6.141
	c-0.053-8.364-0.107-16.727-0.107-16.727H113.282z M117.406,23.539c0,0-0.056,7.967-0.104,15.936
	c-0.013,1.994-0.022,3.983-0.031,5.851c0.004,0.932-0.011,1.836,0.009,2.692c0.009,0.855,0.022,1.665,0.03,2.413
	c0.029,2.988,0.096,4.979,0.096,4.979h0.03c0,0,0.066-1.991,0.091-4.979c0.012-0.748,0.022-1.558,0.035-2.413
	c0.015-0.856,0.004-1.761,0.009-2.692c-0.012-1.868-0.021-3.857-0.031-5.851c-0.054-7.968-0.104-15.936-0.104-15.936H117.406z
	 M121.528,26.069c0,0-0.05,7.258-0.103,14.521c-0.013,1.814-0.02,3.628-0.032,5.329c0.004,0.854-0.005,1.675,0.01,2.454
	c0.01,0.78,0.022,1.521,0.031,2.197c0.028,2.724,0.094,4.539,0.094,4.539h0.032c0,0,0.064-1.815,0.095-4.539
	c0.008-0.677,0.02-1.417,0.03-2.197c0.019-0.779,0.004-1.601,0.008-2.454c-0.011-1.701-0.019-3.515-0.029-5.329
	c-0.051-7.262-0.104-14.521-0.104-14.521H121.528z M125.656,31.063c0,0-0.054,5.965-0.108,11.93
	c-0.032,2.982-0.045,5.963,0.001,8.203c0.041,2.234,0.107,3.728,0.107,3.728h0.026c0,0,0.064-1.493,0.107-3.728
	c0.046-2.24,0.032-5.221,0.001-8.203c-0.055-5.965-0.108-11.93-0.108-11.93H125.656z M88.43,50.312l21.596,0.302
	c2.699,0.035,5.399,0.067,7.93,0.101c1.268,0.012,2.491,0.018,3.65,0.028c1.159-0.002,2.255-0.003,3.269-0.005
	c4.051,0.01,6.752-0.034,6.752-0.034v-0.028c0,0-2.7-0.091-6.75-0.155c-1.014-0.019-2.108-0.041-3.267-0.063
	c-1.163-0.013-2.384-0.024-3.652-0.041c-2.529-0.013-5.229-0.026-7.93-0.043c-10.799-0.046-21.597-0.092-21.597-0.092L88.43,50.312z
	 M88.43,43.85l21.516,0.287c2.689,0.031,5.38,0.066,7.898,0.098c1.264,0.007,2.483,0.017,3.636,0.022c1.158,0,2.249,0,3.257-0.003
	c4.038,0.003,6.729-0.04,6.729-0.04v-0.026c0,0-2.688-0.09-6.726-0.155c-1.008-0.019-2.099-0.039-3.257-0.06
	c-1.152-0.01-2.373-0.025-3.635-0.036c-2.522-0.016-5.211-0.026-7.9-0.039c-10.759-0.041-21.517-0.08-21.517-0.08L88.43,43.85z
	 M90.19,37.556c0,0,9.861,0.051,19.723,0.104c2.465,0.011,4.93,0.021,7.24,0.031c1.158-0.005,2.274,0.008,3.333-0.008
	c1.061-0.011,2.061-0.022,2.985-0.033c3.696-0.027,6.161-0.093,6.161-0.093v-0.031c0,0-2.465-0.066-6.161-0.093
	c-0.925-0.01-1.925-0.021-2.985-0.033c-1.059-0.016-2.175-0.003-3.333-0.008c-2.311,0.011-4.775,0.021-7.24,0.03
	c-9.861,0.051-19.723,0.104-19.723,0.104V37.556z M92.672,31.079c0,0,8.379,0.054,16.757,0.105c2.096,0.01,4.189,0.019,6.152,0.029
	c0.98-0.002,1.931,0.01,2.831-0.007c0.9-0.012,1.75-0.023,2.537-0.032c3.141-0.028,5.236-0.096,5.236-0.096V31.05
	c0,0-2.096-0.066-5.236-0.094c-0.787-0.011-1.637-0.022-2.537-0.033c-0.9-0.014-1.851-0.002-2.831-0.006
	c-1.963,0.009-4.057,0.018-6.152,0.028c-8.378,0.054-16.757,0.105-16.757,0.105V31.079z M98.769,24.644
	c0,0,5.168,0.033,10.335,0.066c2.583,0.024,5.166,0.024,7.102-0.029c1.938-0.046,3.23-0.115,3.23-0.115v-0.031
	c0,0-1.294-0.059-3.23-0.092c-1.936-0.038-4.519-0.018-7.103,0.026c-5.166,0.073-10.334,0.144-10.334,0.144V24.644z M113.564,21.857
	c0,0,6.313,2.353,12.627,4.708c3.151,1.185,6.315,2.347,8.704,3.168c2.39,0.83,3.991,1.345,3.991,1.345l0.013-0.03
	c0,0-1.563-0.637-3.922-1.539c-2.357-0.908-5.526-2.049-8.705-3.17c-6.349-2.257-12.698-4.513-12.698-4.513L113.564,21.857z
	 M122.255,26.082c0,0,4.447,1.601,8.896,3.2c2.221,0.809,4.45,1.595,6.14,2.133c1.685,0.543,2.825,0.87,2.825,0.87l0.007-0.027
	c0,0-1.094-0.449-2.756-1.067c-1.658-0.627-3.895-1.392-6.141-2.133c-4.48-1.503-8.961-3.003-8.961-3.003L122.255,26.082z
	 M125.551,29.439c0,0,3.331,1.003,6.662,2.007c0.832,0.25,1.664,0.499,2.444,0.733c0.783,0.225,1.52,0.413,2.153,0.575
	c1.265,0.321,2.119,0.496,2.119,0.496l0.006-0.028c0,0-0.816-0.302-2.063-0.695c-0.62-0.194-1.348-0.424-2.131-0.647
	c-0.787-0.212-1.628-0.439-2.464-0.665c-3.36-0.902-6.718-1.805-6.718-1.805L125.551,29.439z M127.261,32.797
	c0,0,3.787,0.997,7.578,1.993c1.89,0.507,3.787,0.991,5.225,1.3c1.433,0.317,2.398,0.492,2.398,0.492l0.009-0.03
	c0,0-0.936-0.298-2.351-0.691c-1.415-0.401-3.318-0.862-5.226-1.302l-7.624-1.792L127.261,32.797z M129.632,36.88
	c0,0,4.278,0.984,8.558,1.971c2.14,0.501,4.285,0.979,5.904,1.284c1.618,0.312,2.701,0.483,2.701,0.483l0.009-0.029
	c0,0-1.061-0.297-2.663-0.685c-1.596-0.397-3.747-0.852-5.899-1.288c-4.301-0.882-8.606-1.765-8.606-1.765L129.632,36.88z
	 M131.463,43.456l8.332,1.317c2.081,0.337,4.166,0.651,5.738,0.831c1.572,0.188,2.626,0.275,2.626,0.275l0.001-0.028
	c0,0-1.032-0.218-2.592-0.482c-1.56-0.273-3.649-0.566-5.74-0.835l-8.36-1.108L131.463,43.456z M52.277,55.868
	c0,0,8.917,0.05,17.833,0.104c2.229,0.009,4.458,0.02,6.547,0.031c1.045-0.004,2.055,0.006,3.013-0.009
	c0.958-0.014,1.864-0.022,2.7-0.034c3.343-0.025,5.573-0.092,5.573-0.092v-0.031c0,0-2.229-0.064-5.573-0.095
	c-0.836-0.009-1.741-0.021-2.7-0.031c-0.958-0.018-1.968-0.003-3.013-0.007c-2.089,0.007-4.318,0.018-6.547,0.029
	c-8.917,0.051-17.833,0.104-17.833,0.104V55.868z M146.208,39.171c0,0,0.211,0.579,0.534,1.448c0.077,0.217,0.164,0.453,0.257,0.701
	c0.077,0.253,0.143,0.525,0.219,0.803c0.071,0.277,0.149,0.563,0.226,0.856c0.069,0.294,0.177,0.583,0.22,0.891
	c0.102,0.605,0.207,1.212,0.301,1.779c0.131,0.562,0.176,1.101,0.252,1.554c0.146,0.914,0.279,1.522,0.279,1.522l0.027-0.003
	c0,0-0.002-0.621-0.068-1.546c-0.021-0.233-0.042-0.484-0.063-0.75c-0.009-0.267-0.064-0.544-0.116-0.828
	c-0.12-0.571-0.248-1.178-0.379-1.784c-0.054-0.302-0.17-0.595-0.25-0.89c-0.09-0.292-0.18-0.578-0.266-0.857
	c-0.087-0.279-0.161-0.551-0.251-0.8c-0.102-0.243-0.202-0.475-0.292-0.688c-0.359-0.852-0.604-1.419-0.604-1.419L146.208,39.171z
	 M137.997,30.667c0,0,0.546,0.27,1.091,0.541c0.254,0.164,0.514,0.317,0.72,0.408c0.207,0.093,0.358,0.14,0.358,0.14l0.005-0.013
	c0,0-0.114-0.102-0.303-0.231c-0.19-0.133-0.46-0.28-0.734-0.413l-1.129-0.446L137.997,30.667z M132.373,50.506
	c0,0,3.872,0.287,7.745,0.568c1.935,0.148,3.869,0.279,5.326,0.317c1.456,0.05,2.426,0.04,2.426,0.04l0.001-0.031
	c0,0-0.964-0.121-2.413-0.248c-1.451-0.133-3.387-0.235-5.327-0.314c-3.877-0.18-7.756-0.359-7.756-0.359L132.373,50.506z
	 M183.452,59.824v4.761h-0.83l-1.878-4.127h-0.016v4.127h-0.539v-4.761h0.855l1.855,4.078h0.012v-4.078H183.452z M176.861,64.585
	v-4.761h2.451v0.53h-1.844v1.53h1.711v0.523h-1.711v1.651h1.885v0.525H176.861z M176.235,59.824v0.53h-1.256v4.23h-0.606v-4.23
	h-1.252v-0.53H176.235z M170.489,61.868h0.912c0.112,0,0.205-0.02,0.29-0.066c0.077-0.046,0.144-0.104,0.196-0.177
	c0.055-0.074,0.093-0.15,0.12-0.251c0.027-0.093,0.039-0.19,0.039-0.295c0-0.088-0.012-0.174-0.033-0.259
	c-0.021-0.084-0.061-0.165-0.106-0.235c-0.051-0.067-0.118-0.119-0.196-0.165c-0.086-0.047-0.187-0.065-0.304-0.065h-0.918V61.868z
	 M170.489,62.397v2.188h-0.606v-4.761h1.642c0.213,0,0.391,0.035,0.535,0.101c0.146,0.073,0.265,0.158,0.357,0.27
	c0.086,0.113,0.151,0.244,0.189,0.383c0.038,0.14,0.059,0.282,0.059,0.435c0,0.285-0.069,0.52-0.224,0.719
	c-0.152,0.2-0.36,0.323-0.646,0.369v0.013c0.138,0.022,0.251,0.054,0.352,0.092c0.09,0.043,0.17,0.108,0.228,0.193
	c0.062,0.094,0.108,0.209,0.14,0.364c0.034,0.15,0.054,0.339,0.061,0.579c0,0.052,0.004,0.132,0.012,0.236
	c0.009,0.112,0.02,0.224,0.038,0.352c0.017,0.123,0.036,0.249,0.056,0.367c0.02,0.119,0.039,0.22,0.057,0.289h-0.633
	c-0.045-0.084-0.069-0.183-0.091-0.294c-0.021-0.113-0.041-0.247-0.046-0.383c-0.007-0.138-0.015-0.285-0.021-0.436
	c-0.004-0.15-0.013-0.31-0.023-0.468c-0.016-0.147-0.046-0.259-0.108-0.344c-0.058-0.077-0.116-0.141-0.189-0.179
	s-0.151-0.066-0.224-0.074c-0.082-0.004-0.147-0.011-0.197-0.011H170.489z M167.313,60.384h-0.016l-0.742,2.54h1.522L167.313,60.384
	z M166.941,59.824h0.773l1.551,4.761h-0.682l-0.343-1.132h-1.84l-0.355,1.132h-0.612L166.941,59.824z M164.121,61.1
	c0-0.287-0.065-0.495-0.192-0.649c-0.124-0.143-0.34-0.217-0.651-0.217c-0.046,0-0.118,0.008-0.219,0.02
	c-0.097,0.017-0.189,0.055-0.29,0.12c-0.098,0.065-0.186,0.166-0.255,0.302c-0.073,0.138-0.113,0.337-0.113,0.587v1.612
	c0,0.254,0.021,0.474,0.06,0.636c0.031,0.174,0.093,0.307,0.165,0.402c0.07,0.102,0.163,0.175,0.275,0.205
	c0.106,0.039,0.231,0.061,0.377,0.061c0.218,0,0.403-0.025,0.547-0.071c0.139-0.047,0.242-0.093,0.306-0.14v-1.426h-0.878v-0.525
	h1.483v2.314c-0.2,0.104-0.417,0.189-0.649,0.255c-0.227,0.065-0.497,0.101-0.809,0.101c-0.509,0-0.883-0.147-1.127-0.429
	s-0.37-0.753-0.37-1.411v-1.564c0-0.472,0.126-0.851,0.37-1.132c0.244-0.283,0.618-0.421,1.127-0.421
	c0.516,0,0.897,0.104,1.142,0.309c0.243,0.211,0.356,0.567,0.336,1.063H164.121z M158.642,63.168v0.138
	c0,0.167,0.027,0.299,0.073,0.401c0.047,0.112,0.104,0.201,0.182,0.269c0.073,0.064,0.158,0.111,0.259,0.136
	c0.093,0.033,0.186,0.045,0.281,0.045c0.121,0,0.232-0.012,0.337-0.039c0.109-0.027,0.201-0.073,0.27-0.131
	c0.074-0.058,0.134-0.145,0.179-0.243c0.046-0.102,0.067-0.217,0.067-0.355c0-0.178-0.052-0.324-0.157-0.444
	c-0.107-0.117-0.239-0.225-0.397-0.321c-0.157-0.102-0.328-0.193-0.514-0.277c-0.186-0.086-0.354-0.19-0.514-0.311
	c-0.158-0.12-0.29-0.259-0.395-0.421c-0.108-0.158-0.158-0.354-0.158-0.596c0-0.208,0.03-0.394,0.105-0.56
	c0.073-0.159,0.169-0.29,0.298-0.401c0.122-0.113,0.27-0.19,0.438-0.252c0.171-0.051,0.355-0.076,0.553-0.076
	c0.438,0,0.772,0.111,1.006,0.328c0.229,0.223,0.336,0.579,0.316,1.063h-0.634c0.007-0.26-0.047-0.467-0.147-0.626
	c-0.104-0.158-0.301-0.24-0.587-0.24c-0.09,0-0.178,0.017-0.263,0.034c-0.085,0.028-0.164,0.067-0.235,0.118
	c-0.073,0.061-0.128,0.134-0.166,0.219c-0.048,0.093-0.067,0.205-0.067,0.329c0,0.177,0.056,0.325,0.16,0.436
	c0.104,0.117,0.235,0.225,0.394,0.317c0.158,0.096,0.333,0.188,0.515,0.274c0.185,0.093,0.358,0.199,0.517,0.316
	c0.157,0.119,0.29,0.265,0.395,0.429c0.104,0.173,0.158,0.383,0.158,0.635c0,0.251-0.038,0.459-0.126,0.626
	c-0.079,0.17-0.183,0.31-0.321,0.41c-0.132,0.104-0.29,0.178-0.469,0.224c-0.177,0.046-0.362,0.065-0.567,0.065
	c-0.232,0.009-0.43-0.02-0.587-0.08c-0.167-0.051-0.298-0.124-0.395-0.209c-0.108-0.085-0.185-0.186-0.244-0.298
	c-0.062-0.112-0.101-0.224-0.119-0.337c-0.026-0.111-0.038-0.216-0.046-0.324c-0.009-0.104-0.009-0.197,0-0.27H158.642z
	 M157.549,59.824v0.53h-1.258v4.23h-0.606v-4.23h-1.252v-0.53H157.549z M151.903,64.585v-4.761h2.361v0.53h-1.755v1.53h1.662v0.523
	h-1.662v2.177H151.903z M149.365,60.384h-0.013l-0.745,2.54h1.522L149.365,60.384z M148.993,59.824h0.774l1.549,4.761h-0.681
	l-0.341-1.132h-1.841l-0.357,1.132h-0.609L148.993,59.824z M143.931,64.585v-4.761h0.606v2.061h1.67v-2.061h0.605v4.761h-0.605
	v-2.177h-1.67v2.177H143.931z M142.322,61.138c0.007-0.139,0-0.27-0.021-0.396c-0.019-0.126-0.059-0.225-0.115-0.296l-0.121-0.1
	l-0.147-0.06l-0.149-0.039l-0.12-0.007c-0.124,0-0.236,0.012-0.32,0.046c-0.085,0.031-0.158,0.073-0.219,0.113
	c-0.06,0.046-0.099,0.084-0.126,0.123l-0.054,0.084l-0.022,0.064c-0.022,0.029-0.035,0.076-0.047,0.141
	c-0.021,0.073-0.035,0.167-0.047,0.29c-0.016,0.128-0.02,0.291-0.02,0.495v1.276c0,0.289,0.02,0.519,0.066,0.691
	c0.047,0.178,0.104,0.31,0.182,0.394c0.072,0.093,0.166,0.152,0.27,0.178c0.101,0.027,0.213,0.041,0.334,0.041
	c0.046,0,0.104-0.006,0.188-0.025c0.084-0.02,0.166-0.063,0.251-0.128s0.158-0.161,0.217-0.296c0.063-0.132,0.093-0.314,0.093-0.546
	h0.626c0.008,0.251-0.02,0.459-0.065,0.634c-0.05,0.17-0.116,0.309-0.197,0.421c-0.084,0.112-0.177,0.196-0.278,0.255
	c-0.104,0.063-0.208,0.109-0.31,0.135c-0.096,0.031-0.196,0.045-0.281,0.051c-0.086,0.008-0.159,0.008-0.213,0.008
	c-0.151,0-0.31-0.014-0.479-0.038c-0.178-0.021-0.336-0.093-0.491-0.214c-0.15-0.119-0.281-0.301-0.382-0.559
	c-0.097-0.258-0.15-0.615-0.15-1.075v-1.345c0-0.336,0.038-0.615,0.111-0.839c0.074-0.216,0.174-0.394,0.306-0.525
	c0.131-0.135,0.29-0.225,0.479-0.286c0.193-0.051,0.401-0.076,0.633-0.076c0.468,0,0.804,0.115,1.002,0.354
	c0.194,0.244,0.278,0.592,0.247,1.055H142.322z M137.027,63.168v0.138c0,0.167,0.026,0.299,0.073,0.401
	c0.046,0.112,0.104,0.201,0.186,0.269c0.072,0.064,0.158,0.111,0.255,0.136c0.093,0.033,0.186,0.045,0.287,0.045
	c0.115,0,0.227-0.012,0.335-0.039c0.104-0.027,0.196-0.073,0.271-0.131c0.069-0.058,0.13-0.145,0.177-0.243
	c0.046-0.102,0.065-0.217,0.065-0.355c0-0.178-0.055-0.324-0.158-0.444c-0.104-0.117-0.239-0.225-0.396-0.321
	c-0.156-0.102-0.33-0.193-0.516-0.277c-0.181-0.086-0.355-0.19-0.514-0.311s-0.29-0.259-0.394-0.421
	c-0.104-0.158-0.159-0.354-0.159-0.596c0-0.208,0.033-0.394,0.104-0.56c0.074-0.159,0.176-0.29,0.298-0.401
	c0.126-0.113,0.271-0.19,0.44-0.252c0.175-0.051,0.359-0.076,0.558-0.076c0.432,0,0.769,0.111,1,0.328
	c0.232,0.223,0.337,0.579,0.318,1.063h-0.636c0.009-0.26-0.046-0.467-0.142-0.626c-0.109-0.158-0.306-0.24-0.588-0.24
	c-0.093,0-0.178,0.017-0.265,0.034c-0.087,0.028-0.164,0.067-0.238,0.118c-0.073,0.061-0.123,0.134-0.165,0.219
	c-0.046,0.093-0.066,0.205-0.066,0.329c0,0.177,0.055,0.325,0.158,0.436c0.109,0.117,0.24,0.225,0.398,0.317
	c0.158,0.096,0.329,0.188,0.515,0.274c0.185,0.093,0.354,0.199,0.514,0.316c0.159,0.119,0.29,0.265,0.395,0.429
	c0.107,0.173,0.157,0.383,0.157,0.635c0,0.251-0.037,0.459-0.123,0.626c-0.081,0.17-0.186,0.31-0.324,0.41
	c-0.132,0.104-0.291,0.178-0.469,0.224c-0.177,0.046-0.363,0.065-0.567,0.065c-0.229,0.009-0.43-0.02-0.587-0.08
	c-0.163-0.051-0.293-0.124-0.394-0.209c-0.105-0.085-0.188-0.186-0.244-0.298c-0.059-0.112-0.101-0.224-0.12-0.337
	c-0.028-0.111-0.038-0.216-0.047-0.324c-0.005-0.104-0.005-0.197,0-0.27H137.027z M135.458,59.824v4.761h-0.831l-1.878-4.127h-0.016
	v4.127h-0.541v-4.761h0.857l1.856,4.078h0.01v-4.078H135.458z M128.866,64.585v-4.761h2.451v0.53h-1.845v1.53h1.712v0.523h-1.712
	v1.651h1.887v0.525H128.866z M125.667,63.168v0.138c0,0.167,0.027,0.299,0.073,0.401c0.047,0.112,0.104,0.201,0.186,0.269
	c0.069,0.064,0.158,0.111,0.255,0.136c0.093,0.033,0.186,0.045,0.285,0.045c0.116,0,0.229-0.012,0.337-0.039
	c0.104-0.027,0.197-0.073,0.27-0.131c0.07-0.058,0.133-0.145,0.179-0.243c0.046-0.102,0.066-0.217,0.066-0.355
	c0-0.178-0.055-0.324-0.159-0.444c-0.108-0.117-0.239-0.225-0.398-0.321c-0.158-0.102-0.328-0.193-0.514-0.277
	c-0.185-0.086-0.354-0.19-0.515-0.311c-0.157-0.12-0.289-0.259-0.393-0.421c-0.108-0.158-0.158-0.354-0.158-0.596
	c0-0.208,0.03-0.394,0.104-0.56c0.072-0.159,0.17-0.29,0.297-0.401c0.123-0.113,0.271-0.19,0.439-0.252
	c0.175-0.051,0.356-0.076,0.557-0.076c0.434,0,0.77,0.111,1.001,0.328c0.234,0.223,0.338,0.579,0.318,1.063h-0.635
	c0.008-0.26-0.046-0.467-0.146-0.626c-0.105-0.158-0.302-0.24-0.585-0.24c-0.093,0-0.179,0.017-0.267,0.034
	c-0.085,0.028-0.161,0.067-0.236,0.118c-0.073,0.061-0.125,0.134-0.165,0.219c-0.047,0.093-0.065,0.205-0.065,0.329
	c0,0.177,0.054,0.325,0.157,0.436c0.105,0.117,0.24,0.225,0.397,0.317c0.157,0.096,0.329,0.188,0.516,0.274
	c0.181,0.093,0.355,0.199,0.514,0.316c0.158,0.119,0.29,0.265,0.395,0.429c0.104,0.173,0.159,0.383,0.159,0.635
	c0,0.251-0.039,0.459-0.123,0.626c-0.082,0.17-0.187,0.31-0.325,0.41c-0.133,0.104-0.291,0.178-0.469,0.224
	s-0.364,0.065-0.568,0.065c-0.232,0.009-0.43-0.02-0.587-0.08c-0.162-0.051-0.297-0.124-0.395-0.209
	c-0.104-0.085-0.185-0.186-0.243-0.298c-0.062-0.112-0.102-0.224-0.12-0.337c-0.027-0.111-0.038-0.216-0.047-0.324
	c-0.008-0.104-0.008-0.197,0-0.27H125.667z M121.999,63.168v0.138c0,0.167,0.028,0.299,0.075,0.401
	c0.046,0.112,0.103,0.201,0.185,0.269c0.074,0.064,0.159,0.111,0.255,0.136c0.092,0.033,0.186,0.045,0.286,0.045
	c0.117,0,0.229-0.012,0.336-0.039c0.104-0.027,0.197-0.073,0.271-0.131c0.072-0.058,0.131-0.145,0.179-0.243
	c0.046-0.102,0.065-0.217,0.065-0.355c0-0.178-0.055-0.324-0.158-0.444c-0.104-0.117-0.238-0.225-0.396-0.321
	c-0.157-0.102-0.331-0.193-0.516-0.277c-0.183-0.086-0.357-0.19-0.515-0.311c-0.159-0.12-0.291-0.259-0.396-0.421
	c-0.104-0.158-0.158-0.354-0.158-0.596c0-0.208,0.035-0.394,0.104-0.56c0.073-0.159,0.175-0.29,0.298-0.401
	c0.127-0.113,0.27-0.19,0.441-0.252c0.173-0.051,0.358-0.076,0.556-0.076c0.433,0,0.769,0.111,1,0.328
	c0.233,0.223,0.337,0.579,0.317,1.063h-0.634c0.008-0.26-0.047-0.467-0.143-0.626c-0.108-0.158-0.306-0.24-0.587-0.24
	c-0.093,0-0.179,0.017-0.264,0.034c-0.089,0.028-0.166,0.067-0.239,0.118c-0.074,0.061-0.123,0.134-0.165,0.219
	c-0.045,0.093-0.066,0.205-0.066,0.329c0,0.177,0.053,0.325,0.157,0.436c0.109,0.117,0.24,0.225,0.398,0.317
	c0.159,0.096,0.329,0.188,0.514,0.274c0.187,0.093,0.356,0.199,0.515,0.316c0.158,0.119,0.289,0.265,0.393,0.429
	c0.109,0.173,0.16,0.383,0.16,0.635c0,0.251-0.039,0.459-0.123,0.626c-0.082,0.17-0.187,0.31-0.326,0.41
	c-0.13,0.104-0.29,0.178-0.467,0.224c-0.178,0.046-0.363,0.065-0.569,0.065c-0.227,0.009-0.427-0.02-0.585-0.08
	c-0.163-0.051-0.295-0.124-0.396-0.209c-0.104-0.085-0.186-0.186-0.243-0.298s-0.101-0.224-0.12-0.337
	c-0.026-0.111-0.038-0.216-0.047-0.324c-0.003-0.104-0.003-0.197,0-0.27H121.999z M120.383,64.585h-0.606v-4.761h0.606V64.585z
	 M113.344,59.824h0.645l0.897,4.129h0.013l0.957-4.129h0.784l0.864,4.129h0.015l0.969-4.129h0.634l-1.26,4.761h-0.739l-0.903-4.127
	h-0.016l-0.963,4.127h-0.737L113.344,59.824z M111.489,72.499h-0.607v-4.761h0.607V72.499z M107.606,71.081v0.139
	c0,0.167,0.026,0.298,0.073,0.401c0.046,0.112,0.104,0.197,0.187,0.264c0.071,0.065,0.158,0.11,0.254,0.139
	c0.093,0.035,0.186,0.047,0.286,0.047c0.116,0,0.228-0.012,0.336-0.039c0.104-0.027,0.197-0.073,0.271-0.132
	c0.069-0.062,0.131-0.146,0.178-0.243c0.046-0.1,0.065-0.22,0.065-0.358c0-0.179-0.054-0.321-0.158-0.442
	c-0.105-0.119-0.24-0.224-0.397-0.321c-0.157-0.099-0.33-0.192-0.516-0.276c-0.181-0.085-0.355-0.194-0.514-0.31
	c-0.158-0.12-0.29-0.26-0.394-0.425c-0.104-0.157-0.159-0.356-0.159-0.591c0-0.214,0.032-0.397,0.104-0.562
	c0.074-0.157,0.175-0.29,0.298-0.401c0.124-0.112,0.271-0.194,0.439-0.251c0.175-0.055,0.358-0.081,0.559-0.081
	c0.431,0,0.769,0.111,1.001,0.332c0.23,0.224,0.335,0.58,0.316,1.06h-0.634c0.008-0.257-0.048-0.469-0.144-0.628
	c-0.109-0.157-0.306-0.235-0.587-0.235c-0.094,0-0.178,0.012-0.266,0.032c-0.087,0.026-0.164,0.067-0.237,0.119
	c-0.073,0.061-0.123,0.131-0.166,0.218c-0.046,0.091-0.067,0.203-0.067,0.331c0,0.178,0.056,0.32,0.16,0.433
	c0.108,0.119,0.239,0.225,0.398,0.316c0.158,0.101,0.328,0.194,0.514,0.278c0.185,0.093,0.354,0.197,0.515,0.317
	c0.158,0.12,0.289,0.263,0.394,0.429c0.106,0.17,0.158,0.383,0.158,0.634c0,0.249-0.038,0.46-0.124,0.626
	c-0.081,0.171-0.185,0.31-0.324,0.409c-0.131,0.105-0.29,0.18-0.468,0.225s-0.363,0.066-0.568,0.066
	c-0.229,0.002-0.43-0.021-0.587-0.082c-0.163-0.052-0.293-0.122-0.395-0.209c-0.104-0.089-0.186-0.185-0.243-0.297
	c-0.06-0.112-0.102-0.223-0.12-0.336c-0.027-0.111-0.038-0.221-0.046-0.325c-0.006-0.104-0.006-0.196,0-0.27H107.606z
	 M104.067,69.781h0.907c0.112,0,0.205-0.019,0.29-0.065c0.082-0.046,0.146-0.104,0.201-0.177c0.05-0.073,0.091-0.151,0.115-0.252
	c0.027-0.093,0.043-0.19,0.043-0.298c0-0.085-0.016-0.169-0.034-0.254c-0.02-0.088-0.059-0.167-0.104-0.24
	c-0.055-0.065-0.12-0.117-0.198-0.162c-0.089-0.046-0.185-0.067-0.304-0.067h-0.916V69.781z M104.067,70.31v2.189h-0.606v-4.761
	h1.642c0.208,0,0.387,0.033,0.533,0.101c0.146,0.068,0.264,0.157,0.356,0.27c0.085,0.112,0.15,0.244,0.193,0.382
	c0.038,0.136,0.058,0.282,0.058,0.434c0,0.285-0.073,0.522-0.225,0.719c-0.151,0.197-0.363,0.325-0.645,0.371v0.011
	c0.138,0.02,0.25,0.055,0.348,0.094c0.092,0.038,0.172,0.104,0.231,0.191c0.058,0.09,0.104,0.21,0.14,0.36
	c0.03,0.155,0.05,0.344,0.058,0.583c0,0.052,0.008,0.134,0.013,0.237c0.007,0.111,0.022,0.224,0.042,0.348
	c0.01,0.128,0.029,0.252,0.049,0.371c0.021,0.12,0.044,0.216,0.063,0.29h-0.634c-0.047-0.085-0.074-0.187-0.093-0.298
	c-0.02-0.111-0.039-0.243-0.048-0.383c-0.008-0.139-0.011-0.281-0.019-0.432c-0.008-0.155-0.012-0.313-0.026-0.471
	c-0.012-0.145-0.047-0.257-0.104-0.342c-0.062-0.082-0.121-0.139-0.195-0.178c-0.068-0.042-0.149-0.065-0.224-0.074
	c-0.077-0.008-0.143-0.013-0.196-0.013H104.067z M100.175,72.499v-4.761h2.455v0.527h-1.849v1.527h1.717v0.529h-1.717v1.649h1.886
	v0.527H100.175z M98.164,72.499h-0.725l-1.378-4.761h0.66l1.087,4.188h0.014l1.114-4.188h0.62L98.164,72.499z M95.363,72.499h-0.606
	v-4.761h0.606V72.499z M93.576,67.738v4.761h-0.831l-1.881-4.128h-0.013v4.128h-0.54v-4.761h0.856l1.854,4.076h0.014v-4.076H93.576z
	 M86.23,67.738h0.606v3.044c0,0.26,0.02,0.476,0.061,0.643c0.039,0.169,0.099,0.301,0.17,0.402c0.074,0.1,0.166,0.168,0.278,0.204
	c0.112,0.039,0.237,0.059,0.383,0.059c0.145,0,0.27-0.02,0.382-0.059c0.113-0.036,0.203-0.104,0.277-0.204
	c0.072-0.102,0.131-0.233,0.172-0.402c0.038-0.167,0.057-0.383,0.057-0.643v-3.044h0.606v3.021c0,0.657-0.124,1.126-0.369,1.412
	c-0.243,0.282-0.62,0.429-1.126,0.429c-0.508,0-0.885-0.146-1.129-0.429c-0.243-0.286-0.369-0.755-0.369-1.412V67.738z
	 M83.889,70.446h1.451v0.511h-1.451V70.446z M80.756,72.499v-4.761h2.455v0.527h-1.848v1.527h1.717v0.529h-1.717v1.649h1.887v0.527
	H80.756z M76.769,72.499v-4.761h0.607v2.055h1.668v-2.055h0.606v4.761h-0.606v-2.177h-1.668v2.177H76.769z M76.104,67.738v0.527
	h-1.254v4.233h-0.606v-4.233H72.99v-0.527H76.104z M70.135,72.499v-4.761h2.454v0.527h-1.848v1.527h1.715v0.529h-1.715v1.649h1.886
	v0.527H70.135z M67.208,72.031c0.105,0.039,0.23,0.059,0.375,0.059c0.146,0,0.27-0.02,0.382-0.059
	c0.106-0.036,0.2-0.104,0.271-0.204c0.074-0.102,0.132-0.233,0.172-0.402c0.032-0.167,0.052-0.383,0.052-0.643v-1.607
	c0-0.251-0.034-0.448-0.104-0.587c-0.074-0.14-0.159-0.235-0.258-0.301c-0.101-0.066-0.199-0.109-0.298-0.121
	c-0.098-0.013-0.171-0.019-0.218-0.019c-0.045,0-0.118,0.006-0.217,0.019c-0.099,0.012-0.191,0.055-0.29,0.121
	c-0.101,0.065-0.186,0.161-0.258,0.301c-0.073,0.139-0.112,0.336-0.112,0.587v1.607c0,0.26,0.02,0.476,0.058,0.643
	c0.033,0.169,0.093,0.301,0.167,0.402C67.002,71.927,67.097,71.995,67.208,72.031 M68.712,72.171
	c-0.244,0.282-0.621,0.429-1.128,0.429c-0.506,0-0.884-0.146-1.127-0.429c-0.244-0.286-0.369-0.755-0.369-1.412v-1.564
	c0-0.476,0.125-0.85,0.369-1.133c0.243-0.286,0.621-0.424,1.127-0.424c0.508,0,0.885,0.138,1.128,0.424
	c0.243,0.283,0.369,0.657,0.369,1.133v1.564C69.081,71.416,68.955,71.885,68.712,72.171 M64.36,69.008
	c0-0.281-0.067-0.494-0.191-0.645c-0.125-0.143-0.344-0.216-0.652-0.216c-0.046,0-0.12,0.006-0.218,0.019
	c-0.099,0.012-0.191,0.055-0.29,0.121c-0.1,0.065-0.187,0.161-0.257,0.301c-0.075,0.139-0.112,0.336-0.112,0.587v1.607
	c0,0.26,0.019,0.476,0.059,0.643c0.033,0.169,0.092,0.301,0.166,0.402c0.071,0.1,0.164,0.168,0.276,0.204
	c0.106,0.039,0.232,0.059,0.377,0.059c0.216,0,0.402-0.027,0.547-0.073c0.139-0.045,0.243-0.09,0.303-0.135v-1.427H63.49v-0.527
	h1.483v2.313c-0.198,0.107-0.416,0.192-0.646,0.258c-0.23,0.065-0.501,0.101-0.81,0.101c-0.508,0-0.885-0.146-1.129-0.429
	c-0.243-0.286-0.369-0.755-0.369-1.412v-1.564c0-0.476,0.126-0.85,0.369-1.133c0.244-0.286,0.621-0.424,1.129-0.424
	c0.513,0,0.897,0.108,1.14,0.313c0.243,0.207,0.355,0.563,0.335,1.057H64.36z M121.659,67.737v0.528h-1.256v4.233h-0.606v-4.233
	h-1.252v-0.528H121.659z M117.819,67.177h-0.618v-0.686h0.618V67.177z M116.66,67.177h-0.618v-0.686h0.618V67.177z M116.891,68.298
	h-0.016l-0.742,2.54h1.523L116.891,68.298z M116.519,67.737h0.774l1.549,4.762h-0.68l-0.344-1.134h-1.84l-0.356,1.134h-0.611
	L116.519,67.737z M115.307,67.737v0.528h-1.253v4.233h-0.606v-4.233h-1.252v-0.528H115.307z M183.452,67.737v4.762h-0.83
	l-1.878-4.128h-0.016v4.128h-0.539v-4.762h0.855l1.855,4.077h0.012v-4.077H183.452z M179.008,72.499h-0.607v-4.762h0.607V72.499z
	 M175.741,68.298h-0.017l-0.745,2.54h1.525L175.741,68.298z M175.369,67.737h0.773l1.549,4.762h-0.68l-0.344-1.134h-1.84
	l-0.355,1.134h-0.615L175.369,67.737z M169.376,72.499h-0.569v-4.762h0.983l1.201,3.996h0.012l1.213-3.996h1.006v4.762h-0.608
	v-4.233h-0.016l-1.328,4.233h-0.576l-1.308-4.233h-0.01V72.499z M162.42,72.499h-0.567v-4.762h0.98l1.202,3.996h0.012l1.214-3.996
	h1.002v4.762h-0.606v-4.233h-0.012l-1.335,4.233h-0.572l-1.306-4.233h-0.012V72.499z M159.26,68.298h-0.012l-0.746,2.54h1.522
	L159.26,68.298z M158.893,67.737h0.769l1.55,4.762h-0.676l-0.345-1.134h-1.839l-0.355,1.134h-0.614L158.893,67.737z M155.729,67.737
	v0.528h-1.256v4.233h-0.607v-4.233h-1.252v-0.528H155.729z M149.982,69.781h0.912c0.112,0,0.205-0.019,0.29-0.065
	c0.077-0.046,0.145-0.104,0.197-0.177c0.054-0.073,0.093-0.151,0.119-0.252c0.027-0.093,0.039-0.19,0.039-0.298
	c0-0.085-0.012-0.169-0.032-0.255c-0.021-0.087-0.061-0.166-0.107-0.239c-0.05-0.066-0.117-0.117-0.197-0.162
	c-0.084-0.046-0.185-0.067-0.302-0.067h-0.919V69.781z M149.982,70.31v2.189h-0.606v-4.762h1.643c0.212,0,0.391,0.034,0.534,0.102
	c0.146,0.068,0.266,0.157,0.358,0.27c0.086,0.112,0.151,0.244,0.188,0.382c0.039,0.136,0.06,0.282,0.06,0.434
	c0,0.285-0.069,0.522-0.225,0.719c-0.15,0.197-0.359,0.325-0.646,0.371v0.012c0.139,0.019,0.251,0.054,0.353,0.093
	c0.091,0.038,0.169,0.104,0.227,0.191c0.063,0.09,0.109,0.21,0.139,0.361c0.036,0.155,0.056,0.344,0.063,0.582
	c0,0.051,0.004,0.134,0.012,0.238c0.009,0.11,0.019,0.223,0.038,0.347c0.016,0.128,0.035,0.252,0.055,0.37
	c0.02,0.121,0.038,0.217,0.058,0.291h-0.633c-0.046-0.085-0.07-0.187-0.091-0.299c-0.021-0.11-0.041-0.243-0.045-0.382
	c-0.008-0.139-0.016-0.281-0.022-0.432c-0.005-0.155-0.013-0.313-0.023-0.471c-0.017-0.145-0.046-0.256-0.109-0.341
	c-0.058-0.082-0.115-0.14-0.188-0.179c-0.073-0.042-0.15-0.066-0.225-0.074c-0.081-0.008-0.146-0.013-0.196-0.013H149.982z
	 M145.342,67.737h0.606v3.045c0,0.26,0.02,0.476,0.058,0.643c0.043,0.169,0.101,0.301,0.174,0.401
	c0.072,0.101,0.162,0.169,0.274,0.205c0.112,0.039,0.24,0.059,0.383,0.059c0.146,0,0.27-0.02,0.383-0.059
	c0.111-0.036,0.204-0.104,0.277-0.205c0.074-0.101,0.132-0.232,0.17-0.401c0.043-0.167,0.063-0.383,0.063-0.643v-3.045h0.606v3.021
	c0,0.657-0.128,1.125-0.37,1.412c-0.244,0.281-0.618,0.429-1.129,0.429c-0.506,0-0.881-0.147-1.124-0.429
	c-0.247-0.287-0.371-0.755-0.371-1.412V67.737z M142.389,72.499v-4.762h2.358v0.528h-1.752v1.527h1.661v0.529h-1.661v2.177H142.389z
	 M138.769,72.499v-4.762h0.607v2.091h0.019l1.662-2.091h0.683l-1.727,2.147l1.828,2.614h-0.777l-1.669-2.485h-0.019v2.485H138.769z
	 M137.668,67.737v4.762h-0.831l-1.882-4.128h-0.012v4.128h-0.54v-4.762h0.857l1.851,4.077h0.016v-4.077H137.668z M131.788,68.298
	h-0.016l-0.747,2.54h1.526L131.788,68.298z M131.416,67.737h0.773l1.55,4.762h-0.68l-0.345-1.134h-1.84l-0.354,1.134h-0.615
	L131.416,67.737z M127.27,69.781h0.907c0.112,0,0.206-0.019,0.29-0.065c0.081-0.046,0.147-0.104,0.199-0.177
	c0.053-0.073,0.091-0.151,0.118-0.252c0.027-0.093,0.039-0.19,0.039-0.298c0-0.085-0.012-0.169-0.031-0.255
	c-0.02-0.087-0.059-0.166-0.104-0.239c-0.055-0.066-0.121-0.117-0.202-0.162c-0.085-0.046-0.181-0.067-0.301-0.067h-0.916V69.781z
	 M127.27,70.31v2.189h-0.606v-4.762h1.643c0.208,0,0.386,0.034,0.533,0.102c0.143,0.068,0.262,0.157,0.354,0.27
	c0.086,0.112,0.152,0.244,0.191,0.382c0.041,0.136,0.062,0.282,0.062,0.434c0,0.285-0.075,0.522-0.226,0.719
	c-0.15,0.197-0.363,0.325-0.646,0.371v0.012c0.136,0.019,0.248,0.054,0.349,0.093c0.093,0.038,0.169,0.104,0.231,0.191
	c0.058,0.09,0.104,0.21,0.14,0.361c0.03,0.155,0.051,0.344,0.059,0.582c0,0.051,0.008,0.134,0.011,0.238
	c0.007,0.11,0.021,0.223,0.043,0.347c0.012,0.128,0.031,0.252,0.05,0.37c0.019,0.121,0.04,0.217,0.063,0.291h-0.635
	c-0.046-0.085-0.073-0.187-0.093-0.299c-0.02-0.11-0.039-0.243-0.046-0.382c-0.008-0.139-0.013-0.281-0.02-0.432
	c-0.008-0.155-0.016-0.313-0.027-0.471c-0.011-0.145-0.047-0.256-0.104-0.341c-0.062-0.082-0.12-0.14-0.193-0.179
	c-0.072-0.042-0.151-0.066-0.225-0.074c-0.076-0.008-0.141-0.013-0.196-0.013H127.27z M123.703,72.499v-4.762h2.358v0.528h-1.752
	v1.527h1.662v0.529h-1.662v2.177H123.703z M150.769,36.796c0,0,0.059,0.263,0.155,0.722c0.102,0.458,0.225,1.116,0.34,1.909
	c0.244,1.588,0.404,3.729,0.305,5.866c-0.025,1.07-0.15,2.137-0.185,3.144c-0.043,1.009-0.021,1.952,0.101,2.757
	c0.119,0.8,0.354,1.446,0.595,1.858c0.12,0.207,0.231,0.355,0.311,0.457c0.083,0.092,0.128,0.146,0.128,0.146l0.067-0.06
	c0,0-0.032-0.063-0.09-0.173c-0.063-0.109-0.126-0.279-0.206-0.489c-0.169-0.419-0.252-1.059-0.273-1.82
	c-0.013-0.382,0.009-0.797,0.03-1.24c0.022-0.442,0.083-0.91,0.122-1.396c0.103-0.979,0.247-2.031,0.294-3.146
	c0.026-0.551,0.015-1.099,0-1.64c0-0.542-0.075-1.072-0.121-1.588c-0.061-0.51-0.129-1.003-0.229-1.465
	c-0.046-0.229-0.091-0.455-0.135-0.672c-0.061-0.215-0.115-0.42-0.171-0.621c-0.097-0.396-0.223-0.757-0.341-1.071
	c-0.11-0.318-0.21-0.588-0.301-0.806c-0.181-0.441-0.309-0.688-0.309-0.688L150.769,36.796z M156.428,39.49
	c0,0-0.113-0.023-0.305-0.027c-0.049-0.005-0.102-0.009-0.157-0.015c-0.058,0.005-0.116,0.008-0.185-0.006
	c-0.133-0.021-0.292-0.03-0.449-0.066c-0.646-0.115-1.493-0.411-2.266-0.848c-0.773-0.433-1.47-0.996-1.923-1.479
	c-0.23-0.242-0.398-0.462-0.51-0.62c-0.102-0.162-0.16-0.256-0.16-0.256l-0.08,0.044c0,0,0.038,0.109,0.107,0.3
	c0.077,0.191,0.211,0.454,0.401,0.75c0.199,0.296,0.461,0.616,0.769,0.939c0.317,0.308,0.677,0.622,1.071,0.894
	c0.397,0.268,0.818,0.503,1.235,0.696c0.427,0.177,0.821,0.312,1.222,0.401c0.207,0.055,0.328,0.066,0.471,0.095l0.129,0.021
	l0.118,0.032c0.079-0.014,0.149-0.017,0.212-0.075c0.11-0.093,0.173-0.256,0.228-0.411c0.047-0.15,0.073-0.279,0.073-0.279
	L156.428,39.49z M149.913,25.385c0,0,0.02-0.125,0.09-0.314c0.075-0.191,0.228-0.453,0.477-0.712
	c0.49-0.523,1.358-1.019,2.303-1.208c0.469-0.096,0.95-0.118,1.398-0.065c0.445,0.053,0.844,0.184,1.163,0.341
	c0.316,0.162,0.594,0.305,0.769,0.418c0.186,0.102,0.292,0.159,0.292,0.159l0.051-0.075c0,0,0.025-0.249-0.072-0.531
	c-0.044-0.146-0.121-0.303-0.216-0.426c-0.055-0.056-0.1-0.135-0.168-0.182l-0.106-0.077l-0.027-0.021l-0.051-0.027l-0.076-0.04
	c-0.402-0.213-0.916-0.351-1.461-0.405c-0.546-0.062-1.119,0.02-1.657,0.162c-0.54,0.148-1.038,0.402-1.461,0.694
	c-0.415,0.306-0.757,0.652-0.977,1.006c-0.228,0.345-0.329,0.687-0.359,0.921c-0.009,0.123-0.012,0.214-0.004,0.271
	c0.004,0.06,0.004,0.091,0.004,0.091L149.913,25.385z M145.813,25.94c0,0-0.145-0.065-0.365-0.211
	c-0.21-0.149-0.535-0.399-0.667-0.828c-0.142-0.429,0.037-0.981,0.415-1.401c0.364-0.434,0.921-0.734,1.491-0.928
	c0.57-0.206,1.194-0.288,1.744-0.164c0.561,0.112,0.994,0.472,1.201,0.872c0.213,0.399,0.247,0.792,0.258,1.058
	c0,0.267-0.019,0.419-0.019,0.419l0.089,0.011c0,0,0.02-0.038,0.051-0.11c0.035-0.071,0.081-0.18,0.125-0.323
	c0.071-0.285,0.164-0.74-0.022-1.308c-0.094-0.28-0.268-0.585-0.536-0.833c-0.261-0.247-0.599-0.458-0.968-0.558
	c-0.362-0.106-0.749-0.165-1.123-0.129c-0.381,0.025-0.744,0.105-1.095,0.217c-0.173,0.063-0.333,0.136-0.51,0.221
	c-0.094,0.044-0.146,0.075-0.215,0.114c-0.099,0.052-0.176,0.097-0.257,0.151c-0.326,0.206-0.592,0.484-0.817,0.78
	c-0.228,0.293-0.381,0.648-0.452,1.015c-0.076,0.365-0.023,0.757,0.122,1.055c0.137,0.303,0.351,0.497,0.539,0.628
	c0.188,0.132,0.368,0.2,0.51,0.245c0.146,0.049,0.267,0.064,0.341,0.072c0.079,0.01,0.119,0.016,0.119,0.016L145.813,25.94z
	 M143.888,31c0.006,0-0.068-0.011-0.171-0.018c-0.102-0.009-0.252-0.025-0.447-0.044c-0.383-0.048-0.933-0.122-1.569-0.313
	c-0.315-0.096-0.653-0.221-0.98-0.403c-0.33-0.18-0.653-0.423-0.877-0.76c-0.235-0.331-0.332-0.756-0.284-1.179
	c0.04-0.424,0.197-0.839,0.392-1.229c0.215-0.384,0.439-0.76,0.726-1.088c0.275-0.32,0.622-0.571,0.991-0.737
	c0.744-0.332,1.552-0.27,2.181-0.103c0.635,0.167,1.128,0.43,1.45,0.638c0.325,0.208,0.462,0.375,0.462,0.375l0.07-0.058
	c0,0-0.02-0.06-0.072-0.163c-0.055-0.105-0.151-0.247-0.292-0.409c-0.136-0.165-0.328-0.341-0.562-0.527
	c-0.246-0.169-0.529-0.369-0.883-0.505c-0.35-0.147-0.757-0.271-1.225-0.295c-0.461-0.043-0.986,0.029-1.486,0.239
	c-0.516,0.2-0.938,0.55-1.303,0.996c-0.11,0.126-0.146,0.187-0.213,0.289l-0.206,0.332c-0.129,0.202-0.237,0.431-0.352,0.651
	c-0.206,0.46-0.396,0.966-0.414,1.531c-0.032,0.559,0.143,1.175,0.487,1.604c0.333,0.44,0.763,0.692,1.15,0.866
	c0.396,0.177,0.773,0.274,1.12,0.335c0.695,0.13,1.271,0.122,1.666,0.109c0.198-0.014,0.354-0.026,0.463-0.033
	c0.107-0.011,0.142-0.018,0.151-0.015L143.888,31z M143.639,35.939c0,0-0.167,0.031-0.455,0.085c-0.29,0.048-0.706,0.107-1.21,0.12
	c-0.502,0.012-1.097-0.012-1.687-0.214c-0.291-0.105-0.575-0.261-0.798-0.493c-0.227-0.226-0.38-0.528-0.446-0.845
	c-0.076-0.326-0.025-0.644,0.089-0.943c0.124-0.297,0.314-0.557,0.511-0.795c0.407-0.47,0.88-0.826,1.294-1.107
	c0.419-0.28,0.787-0.482,1.048-0.617c0.135-0.065,0.236-0.117,0.309-0.151c0.069-0.032,0.104-0.048,0.104-0.048l-0.028-0.087
	c0,0-0.047,0-0.139-0.003c-0.09-0.006-0.221,0-0.38,0.015c-0.161,0.015-0.354,0.05-0.571,0.097c-0.212,0.06-0.462,0.118-0.709,0.231
	c-0.253,0.104-0.524,0.234-0.791,0.417c-0.278,0.17-0.544,0.395-0.804,0.672c-0.265,0.272-0.486,0.632-0.65,1.06
	c-0.075,0.218-0.122,0.455-0.12,0.705c-0.007,0.113,0.009,0.295,0.029,0.403l0.026,0.125l0.022,0.109l0.022,0.081
	c0.116,0.427,0.362,0.86,0.701,1.157c0.333,0.308,0.725,0.479,1.087,0.57c0.727,0.184,1.368,0.126,1.892,0.043
	c0.526-0.087,0.943-0.22,1.23-0.323c0.285-0.105,0.441-0.174,0.441-0.174L143.639,35.939z M149.117,35.805
	c0,0-0.105,0.127-0.259,0.375c-0.151,0.249-0.36,0.604-0.615,1.03c-0.262,0.416-0.583,0.9-1.053,1.288
	c-0.463,0.395-1.103,0.613-1.746,0.581c-0.652-0.027-1.305-0.114-1.882-0.318c-0.566-0.199-1.072-0.543-1.224-1
	c-0.157-0.454,0.024-0.865,0.141-1.112c0.131-0.251,0.226-0.382,0.226-0.382l-0.069-0.053c0,0-0.039,0.026-0.107,0.076
	c-0.07,0.048-0.168,0.124-0.28,0.243c-0.111,0.117-0.242,0.274-0.349,0.505c-0.109,0.226-0.176,0.546-0.105,0.909
	c0.057,0.365,0.29,0.713,0.557,0.973c0.267,0.277,0.6,0.455,0.931,0.611c0.33,0.158,0.687,0.252,1.044,0.322
	c0.181,0.037,0.361,0.064,0.545,0.087c0.171,0.012,0.395,0.021,0.547,0.019c0.411,0.001,0.847-0.052,1.24-0.219
	c0.396-0.162,0.741-0.396,1.016-0.658c0.537-0.545,0.813-1.126,1.006-1.609c0.184-0.486,0.291-0.889,0.375-1.17
	c0.074-0.282,0.137-0.444,0.137-0.444L149.117,35.805z M147.232,53.93c0,0,0.055-0.269,0.185-0.731
	c0.121-0.461,0.321-1.116,0.563-1.903c0.233-0.788,0.512-1.713,0.68-2.731c0.085-0.511,0.146-1.044,0.149-1.589
	c0.004-0.539,0.004-1.087,0.007-1.639c-0.021-4.385-0.042-8.769-0.042-8.769h-0.091c0,0-0.013,0.068-0.043,0.196
	c-0.027,0.129-0.075,0.317-0.11,0.558c-0.069,0.479-0.218,1.165-0.301,1.988c-0.053,0.41-0.093,0.855-0.134,1.326
	c-0.046,0.472-0.073,0.97-0.096,1.484c-0.034,0.514-0.056,1.043-0.06,1.582c-0.004,0.54-0.027,1.091-0.009,1.636
	c0.009,0.549,0.01,1.101,0.031,1.636c0.024,0.492-0.003,0.987-0.057,1.468c-0.085,0.971-0.28,1.899-0.419,2.711
	c-0.084,0.401-0.127,0.784-0.18,1.118c-0.045,0.336-0.084,0.63-0.115,0.871c-0.033,0.244-0.033,0.437-0.041,0.569
	c-0.002,0.13-0.006,0.199-0.006,0.199L147.232,53.93z M161.592,11.462c0,0-0.09,0.104-0.255,0.3
	c-0.168,0.195-0.419,0.473-0.703,0.867c-0.3,0.379-0.618,0.868-0.982,1.434c-0.171,0.29-0.351,0.599-0.537,0.925
	c-0.173,0.335-0.353,0.685-0.543,1.055c-0.353,0.746-0.717,1.566-1.042,2.458c-0.34,0.886-0.622,1.844-0.898,2.842
	c-0.537,1.999-0.924,4.177-1.164,6.372c-0.23,2.197-0.33,4.413-0.212,6.488c0.066,1.037,0.171,2.039,0.326,2.98
	c0.171,0.938,0.35,1.825,0.575,2.627c0.204,0.809,0.489,1.526,0.734,2.156c0.14,0.311,0.269,0.6,0.389,0.865
	c0.141,0.258,0.27,0.494,0.388,0.707c0.264,0.411,0.466,0.736,0.639,0.933c0.163,0.202,0.248,0.311,0.248,0.311l0.073-0.053
	c0,0-0.067-0.12-0.189-0.344c-0.132-0.218-0.289-0.559-0.485-0.988c-0.179-0.442-0.381-0.979-0.58-1.607
	c-0.183-0.631-0.362-1.352-0.521-2.145c-0.179-0.791-0.3-1.662-0.415-2.583c-0.088-0.927-0.213-1.897-0.249-2.914
	c-0.076-1.012-0.1-2.061-0.109-3.129c-0.012-1.069,0.037-2.154,0.104-3.239c0.17-2.166,0.488-4.325,0.956-6.31
	c0.236-0.991,0.498-1.944,0.792-2.83c0.284-0.891,0.606-1.714,0.925-2.466c0.174-0.371,0.336-0.725,0.492-1.063
	c0.177-0.33,0.339-0.642,0.494-0.935c0.335-0.573,0.635-1.072,0.915-1.456c0.259-0.398,0.503-0.687,0.659-0.89
	c0.16-0.202,0.244-0.311,0.244-0.311L161.592,11.462z M164.113,16.9c0,0-0.064-0.372-0.18-0.924
	c-0.061-0.274-0.105-0.599-0.212-0.939c-0.107-0.343-0.218-0.709-0.328-1.075c-0.049-0.188-0.115-0.368-0.179-0.545
	c-0.063-0.181-0.129-0.354-0.207-0.518c-0.082-0.16-0.166-0.313-0.263-0.448c-0.086-0.138-0.209-0.253-0.306-0.362
	c-0.411-0.43-0.777-0.626-0.777-0.626l-0.069,0.053c0,0,0.036,0.435,0.229,0.947c0.043,0.132,0.112,0.26,0.164,0.412
	c0.048,0.151,0.114,0.302,0.189,0.453c0.079,0.151,0.176,0.3,0.275,0.448c0.107,0.147,0.198,0.306,0.282,0.47
	c0.167,0.326,0.337,0.654,0.494,0.96c0.159,0.309,0.279,0.618,0.403,0.87c0.23,0.515,0.399,0.853,0.399,0.853L164.113,16.9z
	 M158.668,41.552c0,0,0.031,0.178,0.061,0.511c0.03,0.33,0.06,0.804,0.092,1.372c0.06,1.137,0.12,2.657,0.137,4.173
	c0.037,1.521,0.038,3.039-0.049,4.173c-0.044,0.563-0.108,1.034-0.214,1.344c-0.052,0.147-0.123,0.265-0.185,0.274
	c-0.061,0.021-0.096-0.013-0.096-0.007l-0.043,0.076c0.004-0.008,0.031,0.064,0.181,0.059c0.151-0.023,0.272-0.162,0.372-0.32
	c0.203-0.325,0.381-0.804,0.523-1.38c0.146-0.579,0.258-1.256,0.323-1.977c0.024-0.359,0.069-0.733,0.069-1.11
	c0.004-0.378,0.01-0.763,0.016-1.146c-0.018-0.383-0.038-0.767-0.058-1.143c-0.009-0.375-0.07-0.746-0.103-1.104
	c-0.081-0.714-0.198-1.38-0.332-1.943c-0.128-0.567-0.273-1.035-0.39-1.364c-0.118-0.32-0.219-0.508-0.219-0.508L158.668,41.552z
	 M161.695,40.752c0,0-0.002,0.197-0.023,0.541c-0.026,0.345-0.063,0.835-0.106,1.426c-0.1,1.179-0.239,2.755-0.328,4.334
	c-0.035,0.791-0.051,1.583-0.058,2.324c-0.002,0.741,0.018,1.436,0.058,2.025c0.03,0.298,0.041,0.571,0.08,0.808
	c0.035,0.243,0.059,0.45,0.096,0.623c0.079,0.339,0.125,0.531,0.125,0.531l0.085-0.026c0,0,0.017-0.211,0.03-0.551
	c0.012-0.176,0.029-0.381,0.051-0.623c0.022-0.235,0.046-0.501,0.072-0.793c0.028-0.29,0.076-0.607,0.093-0.938
	c0.037-0.337,0.079-0.684,0.102-1.05c0.071-0.725,0.107-1.504,0.164-2.283c0.016-0.394,0.028-0.783,0.042-1.17
	c0.022-0.386,0.004-0.769,0.011-1.135c0.001-0.741-0.03-1.437-0.08-2.035c-0.044-0.596-0.123-1.102-0.19-1.458
	c-0.069-0.353-0.131-0.548-0.131-0.548L161.695,40.752z M161.665,44.777c0,0,0.104-0.137,0.281-0.375
	c0.17-0.244,0.447-0.568,0.699-1.021c0.133-0.223,0.274-0.463,0.429-0.718c0.162-0.25,0.286-0.536,0.436-0.819
	c0.146-0.287,0.295-0.585,0.446-0.888c0.14-0.309,0.281-0.622,0.421-0.934c0.293-0.622,0.561-1.26,0.787-1.862
	c0.105-0.306,0.18-0.613,0.245-0.903c0.063-0.292,0.133-0.56,0.156-0.824c0.031-0.262,0.05-0.504,0.069-0.715
	c0.022-0.207,0.005-0.406-0.012-0.563c-0.025-0.314-0.056-0.483-0.056-0.483h-0.09c0,0-0.072,0.169-0.17,0.449
	c-0.084,0.27-0.272,0.663-0.439,1.134c-0.081,0.234-0.199,0.486-0.294,0.757c-0.108,0.268-0.196,0.558-0.299,0.855
	c-0.094,0.301-0.19,0.612-0.275,0.934c-0.078,0.322-0.185,0.643-0.294,0.961c-0.107,0.321-0.214,0.64-0.318,0.955
	c-0.121,0.311-0.24,0.616-0.354,0.911c-0.116,0.292-0.217,0.584-0.34,0.846c-0.114,0.263-0.226,0.513-0.324,0.745
	c-0.102,0.23-0.194,0.446-0.303,0.625c-0.097,0.183-0.184,0.342-0.256,0.473c-0.141,0.262-0.219,0.411-0.219,0.411L161.665,44.777z
	 M169.49,32.135c0,0-0.063,0.318-0.18,0.876c-0.112,0.561-0.264,1.365-0.396,2.335c-0.073,0.484-0.134,1.012-0.189,1.572
	c-0.063,0.558-0.099,1.148-0.143,1.761c-0.062,1.223-0.081,2.531-0.026,3.838c0.066,1.308,0.188,2.604,0.227,3.827
	c0.045,1.216,0.026,2.359-0.092,3.325c-0.113,0.968-0.335,1.757-0.584,2.268c-0.116,0.254-0.238,0.442-0.325,0.562
	c-0.091,0.122-0.141,0.186-0.141,0.186l0.069,0.061c0,0,0.06-0.06,0.177-0.167c0.106-0.116,0.279-0.283,0.434-0.541
	c0.323-0.504,0.678-1.304,0.891-2.3c0.106-0.496,0.201-1.041,0.249-1.617c0.049-0.573,0.098-1.18,0.1-1.801
	c0.004-0.625-0.008-1.267-0.024-1.912c-0.034-0.646-0.077-1.293-0.091-1.927c0.002-0.642-0.056-1.28-0.046-1.91
	c-0.005-0.631-0.01-1.25-0.012-1.851c0.012-0.601,0.021-1.184,0.031-1.735c0.017-0.555,0.035-1.079,0.051-1.563
	c0.044-0.972,0.041-1.783,0.086-2.362c0.022-0.286,0.015-0.516,0.021-0.67c0.003-0.155,0.004-0.24,0.004-0.24L169.49,32.135z
	 M166.351,24.092c0,0-0.062,0.051-0.171,0.148c-0.118,0.086-0.254,0.256-0.434,0.473c-0.071,0.118-0.156,0.247-0.244,0.389
	c-0.069,0.149-0.157,0.309-0.228,0.486c-0.14,0.358-0.28,0.768-0.378,1.229c-0.207,0.918-0.309,2.016-0.353,3.185
	c-0.013,0.584-0.043,1.194-0.031,1.808c-0.001,0.306,0.005,0.617,0.046,0.931l0.049,0.471l0.105,0.462
	c0.156,0.604,0.4,1.261,0.987,1.594c0.585,0.331,1.278,0.188,1.798-0.101c0.518-0.306,0.911-0.74,1.236-1.168
	c0.324-0.436,0.583-0.877,0.792-1.299c0.428-0.837,0.677-1.584,0.843-2.104c0.079-0.263,0.139-0.471,0.171-0.613
	c0.037-0.14,0.058-0.217,0.058-0.217l-0.089-0.022c0,0-0.135,0.283-0.371,0.779c-0.228,0.493-0.604,1.175-1.091,1.932
	c-0.245,0.377-0.536,0.765-0.854,1.134c-0.321,0.365-0.708,0.694-1.083,0.892l-0.106,0.04l-0.05,0.027l-0.108,0.026l-0.11,0.029
	l-0.052,0.014l-0.029,0.006l-0.011,0.004c-0.02,0.003,0.111-0.03,0.052-0.015h-0.005l-0.142,0.01
	c-0.187-0.001-0.309-0.039-0.42-0.104l-0.156-0.132l-0.063-0.072l-0.118-0.202l-0.11-0.293c-0.048-0.102-0.076-0.23-0.099-0.363
	l-0.096-0.387l-0.049-0.402c-0.014-0.137-0.037-0.261-0.049-0.408l-0.011-0.462c-0.015-0.603-0.031-1.195-0.042-1.768
	c-0.018-1.147-0.008-2.204,0.093-3.093c0.048-0.448,0.117-0.846,0.201-1.201c0.04-0.176,0.097-0.333,0.141-0.484
	c0.064-0.144,0.121-0.276,0.175-0.395c0.124-0.208,0.215-0.406,0.32-0.515c0.092-0.119,0.142-0.181,0.142-0.181L166.351,24.092z
	 M165.522,13.868c0,0-0.046,0.034-0.134,0.097c-0.089,0.057-0.2,0.173-0.346,0.313c-0.278,0.29-0.634,0.735-1.002,1.312
	c-0.365,0.576-0.746,1.277-1.075,2.066c-0.161,0.394-0.317,0.811-0.434,1.242c-0.065,0.215-0.123,0.435-0.167,0.66
	c-0.054,0.221-0.089,0.447-0.118,0.674c-0.069,0.452-0.069,0.915-0.033,1.366c0.045,0.45,0.142,0.891,0.325,1.286
	c0.342,0.802,0.923,1.396,1.455,1.823c0.54,0.424,1.043,0.698,1.4,0.869c0.361,0.17,0.577,0.248,0.577,0.248l0.031-0.083
	c0,0-0.181-0.144-0.496-0.396c-0.307-0.251-0.729-0.618-1.159-1.079c-0.42-0.47-0.841-1.045-1.061-1.703
	c-0.067-0.169-0.086-0.321-0.123-0.467c-0.022-0.065-0.034-0.204-0.05-0.303l-0.024-0.166l-0.007-0.041l-0.003-0.01l0.008,0.042
	v-0.005v-0.018l-0.002-0.072c-0.023-0.382,0.007-0.776,0.045-1.181c0.02-0.202,0.045-0.405,0.09-0.607
	c0.033-0.204,0.079-0.405,0.134-0.604c0.085-0.404,0.2-0.803,0.33-1.182c0.131-0.38,0.248-0.757,0.394-1.101
	c0.143-0.345,0.266-0.682,0.411-0.977c0.27-0.603,0.523-1.094,0.725-1.429c0.105-0.148,0.175-0.293,0.254-0.372
	c0.07-0.084,0.105-0.129,0.105-0.129L165.522,13.868z M169.739,11.526c0,0-0.008-0.063-0.018-0.178
	c-0.015-0.115-0.04-0.292-0.096-0.505c-0.105-0.428-0.35-1.024-0.803-1.629c-0.454-0.6-1.122-1.228-2.012-1.59
	c-0.439-0.176-0.949-0.276-1.454-0.19c-0.508,0.085-0.98,0.399-1.272,0.819c-0.606,0.828-0.92,1.813-1.078,2.739
	c-0.157,0.93-0.118,1.832,0.08,2.564c0.193,0.736,0.579,1.274,0.909,1.567c0.164,0.151,0.312,0.249,0.411,0.312
	c0.104,0.059,0.156,0.091,0.156,0.091l0.043-0.079c0,0-0.204-0.163-0.452-0.495c-0.12-0.167-0.251-0.375-0.353-0.635
	c-0.103-0.258-0.163-0.566-0.211-0.897c-0.049-0.333-0.042-0.702-0.021-1.091c0.021-0.387,0.1-0.795,0.198-1.207
	c0.093-0.415,0.229-0.833,0.407-1.234c0.164-0.394,0.379-0.799,0.607-1.089c0.251-0.307,0.438-0.427,0.733-0.505
	c0.285-0.057,0.643-0.022,0.999,0.086c0.355,0.109,0.699,0.298,1.021,0.496c0.313,0.207,0.593,0.446,0.84,0.679
	c0.241,0.242,0.443,0.485,0.619,0.712c0.172,0.229,0.301,0.45,0.392,0.64c0.089,0.194,0.158,0.337,0.201,0.454
	c0.042,0.113,0.063,0.174,0.063,0.174L169.739,11.526z M173.768,14.216c-0.009-0.002,0.2-0.083,0.405-0.391
	c0.202-0.3,0.355-0.801,0.392-1.404c0.037-0.604-0.017-1.313-0.192-2.049c-0.09-0.367-0.204-0.741-0.377-1.104
	c-0.164-0.371-0.434-0.693-0.736-0.965c-0.302-0.274-0.644-0.502-1.016-0.663c-0.366-0.159-0.769-0.253-1.156-0.215
	c-0.392,0.028-0.753,0.206-1.005,0.456c-0.253,0.252-0.406,0.559-0.512,0.844c-0.199,0.579-0.214,1.09-0.228,1.439
	c-0.003,0.352,0.011,0.552,0.011,0.552l0.09-0.005c0,0,0.053-0.196,0.144-0.54c0.094-0.333,0.229-0.818,0.488-1.263
	c0.126-0.22,0.298-0.417,0.476-0.544c0.182-0.125,0.377-0.158,0.599-0.158c0.225,0,0.483,0.094,0.75,0.224
	c0.263,0.125,0.526,0.312,0.758,0.536l0.163,0.157l0.173,0.184c0.07,0.079,0.149,0.205,0.223,0.341
	c0.137,0.282,0.278,0.599,0.384,0.917c0.097,0.324,0.189,0.642,0.262,0.95c0.064,0.308,0.119,0.603,0.153,0.876
	c0.063,0.545,0.043,0.999-0.049,1.3c-0.047,0.152-0.108,0.262-0.152,0.337c-0.062,0.074-0.094,0.116-0.094,0.116L173.768,14.216z
	 M175.451,21.118l0.021,0.002c0.026,0.003,0.068,0.008,0.123,0.011c0.111,0.01,0.277,0.026,0.485,0.024
	c0.409-0.005,1.054-0.056,1.648-0.495c0.294-0.216,0.55-0.536,0.716-0.915c0.172-0.38,0.262-0.814,0.301-1.261
	c0.071-0.899-0.064-1.854-0.272-2.78c-0.104-0.465-0.232-0.924-0.37-1.372c-0.136-0.447-0.295-0.891-0.524-1.283
	c-0.235-0.385-0.545-0.744-0.961-0.893c-0.425-0.152-0.853-0.014-1.161,0.168c-0.623,0.39-0.972,0.902-1.197,1.249
	c-0.225,0.357-0.299,0.59-0.299,0.59l0.083,0.031c0,0,0.176-0.184,0.476-0.455c0.149-0.137,0.356-0.28,0.572-0.431
	c0.217-0.151,0.472-0.296,0.715-0.381c0.254-0.077,0.433-0.068,0.532,0.009c0.102,0.078,0.307,0.252,0.469,0.566
	c0.182,0.313,0.329,0.647,0.49,1.078c0.151,0.425,0.287,0.861,0.405,1.298c0.223,0.874,0.429,1.755,0.414,2.555
	c0.019,0.803-0.201,1.485-0.628,1.908c-0.432,0.43-1.021,0.562-1.41,0.62c-0.2,0.034-0.359,0.046-0.472,0.054
	c-0.057,0.002-0.101,0.005-0.132,0.007l-0.067,0.015L175.451,21.118z M175.58,29.439c0,0,0.167,0.091,0.485,0.205
	c0.316,0.104,0.803,0.251,1.388,0.132c0.287-0.063,0.589-0.206,0.828-0.448c0.246-0.233,0.427-0.549,0.56-0.886
	c0.258-0.679,0.342-1.466,0.332-2.226c-0.017-0.392-0.067-0.775-0.143-1.146c-0.082-0.372-0.203-0.728-0.33-1.065
	c-0.138-0.333-0.285-0.65-0.442-0.941c-0.158-0.288-0.317-0.556-0.478-0.795c-0.322-0.478-0.624-0.85-0.848-1.102
	c-0.111-0.126-0.202-0.221-0.267-0.285c-0.067-0.065-0.101-0.101-0.101-0.101l-0.056,0.071c0,0,0.02,0.045,0.056,0.129
	c0.032,0.089,0.087,0.215,0.153,0.373c0.13,0.316,0.328,0.747,0.53,1.26c0.115,0.248,0.218,0.527,0.329,0.811
	c0.052,0.143,0.107,0.288,0.163,0.436c0.047,0.151,0.09,0.307,0.155,0.457c0.046,0.153,0.093,0.309,0.142,0.467
	c0.04,0.16,0.066,0.322,0.123,0.48c0.032,0.163,0.069,0.325,0.103,0.49c0.029,0.16,0.035,0.306,0.073,0.462
	c0.033,0.15,0.032,0.371,0.049,0.551l0.007,0.144v0.093c-0.001,0.088-0.001,0.174-0.006,0.258c-0.018,0.339-0.063,0.663-0.144,0.954
	c-0.144,0.59-0.448,0.983-0.881,1.158c-0.434,0.169-0.916,0.134-1.233,0.088c-0.322-0.044-0.512-0.102-0.512-0.102L175.58,29.439z
	 M171.464,29.159c0,0,0.065,0.189,0.157,0.525c0.086,0.339,0.21,0.824,0.355,1.406c0.148,0.584,0.319,1.268,0.582,1.976
	c0.135,0.354,0.292,0.717,0.52,1.053c0.218,0.328,0.548,0.663,0.993,0.719c0.85,0.047,1.652-0.419,2.091-1.054
	c0.229-0.313,0.367-0.665,0.448-1.008c0.045-0.171,0.073-0.338,0.083-0.502c0.023-0.163,0.024-0.321,0.02-0.475
	c0.014-0.306-0.04-0.58-0.067-0.824c-0.051-0.242-0.079-0.455-0.129-0.624c-0.096-0.34-0.149-0.533-0.149-0.533l-0.087,0.025
	c0,0-0.021,0.218-0.021,0.57c-0.001,0.176-0.024,0.389-0.029,0.623c-0.039,0.236-0.036,0.496-0.102,0.761
	c-0.056,0.268-0.104,0.548-0.226,0.802c-0.046,0.134-0.124,0.247-0.176,0.375c-0.076,0.11-0.144,0.229-0.238,0.324
	c-0.185,0.189-0.376,0.373-0.622,0.48c-0.112,0.057-0.267,0.097-0.359,0.128l-0.069,0.023l-0.137,0.021l-0.075,0.01l-0.036,0.003
	l-0.021,0.003l-0.01,0.001c0.096-0.007,0.027-0.002,0.048-0.005h-0.001l-0.033,0.003c-0.049,0.012-0.222-0.079-0.413-0.319
	c-0.19-0.228-0.352-0.542-0.505-0.853c-0.306-0.626-0.559-1.277-0.794-1.831c-0.236-0.556-0.449-1.024-0.622-1.346
	c-0.173-0.32-0.29-0.491-0.29-0.491L171.464,29.159z M173.454,52.344c0,0-0.057-0.316-0.189-0.866
	c-0.129-0.55-0.338-1.333-0.587-2.267c-0.246-0.934-0.531-2.031-0.7-3.225c-0.082-0.596-0.14-1.216-0.138-1.848
	c0.003-0.638,0.006-1.281,0.01-1.926c-0.021-5.167-0.04-10.332-0.04-10.332h-0.092c0,0-0.017,0.081-0.043,0.231
	c-0.027,0.152-0.078,0.374-0.111,0.656c-0.067,0.565-0.222,1.372-0.301,2.341c-0.057,0.483-0.097,1.009-0.133,1.562
	c-0.046,0.556-0.078,1.141-0.102,1.746c-0.027,0.605-0.052,1.23-0.055,1.866c-0.005,0.635-0.032,1.281-0.015,1.928
	c0.016,0.646,0.014,1.286,0.038,1.93c0.026,0.677,0.112,1.332,0.224,1.956c0.248,1.237,0.616,2.334,0.958,3.247
	c0.161,0.46,0.349,0.867,0.487,1.235c0.146,0.369,0.269,0.687,0.372,0.952c0.211,0.53,0.328,0.832,0.328,0.832L173.454,52.344z
	 M18.788,61.3l165.435-9.237l-0.007-0.091c0,0-2.588,0.1-7.115,0.27c-2.263,0.085-5.014,0.19-8.164,0.309
	c-3.156,0.117-6.715,0.248-10.593,0.438c-3.879,0.177-8.083,0.367-12.527,0.571c-4.445,0.205-9.133,0.405-13.982,0.672
	c-9.694,0.513-20.034,1.053-30.377,1.595c-10.337,0.612-20.675,1.226-30.368,1.797c-4.845,0.273-9.527,0.594-13.968,0.887
	c-4.439,0.294-8.639,0.57-12.513,0.825c-3.875,0.244-7.426,0.509-10.573,0.746c-3.147,0.234-5.891,0.437-8.15,0.602
	c-4.52,0.333-7.102,0.527-7.102,0.527L18.788,61.3z"/>
</svg>
