<?xml version="1.0" encoding="utf-8"?>
<!-- Generator: Adobe Illustrator 16.0.0, SVG Export Plug-In . SVG Version: 6.00 Build 0)  -->
<!DOCTYPE svg PUBLIC "-//W3C//DTD SVG 1.1//EN" "http://www.w3.org/Graphics/SVG/1.1/DTD/svg11.dtd">
<svg version="1.1" id="Ebene_1" xmlns="http://www.w3.org/2000/svg" xmlns:xlink="http://www.w3.org/1999/xlink" x="0px" y="0px"
	 width="177.199px" height="100px" viewBox="0 0 177.199 100" enable-background="new 0 0 177.199 100" xml:space="preserve">
<path fill-rule="evenodd" clip-rule="evenodd" fill="#1452A2" d="M172.708,86.567c-0.637,0.051-1.262,0.102-1.886,0.102
	c-0.567,0-1.149-0.051-1.718-0.102v0.178l0.915,0.342c0.4,0.151,0.512,0.254,0.54,0.608c0.042,0.621,0.056,1.243,0.056,1.853v3.068
	l-3.95-4.795c-0.333-0.405-0.624-0.811-0.888-1.254c-0.414,0.051-0.831,0.102-1.247,0.102c-0.443,0-0.887-0.051-1.33-0.102v0.178
	c0.443,0.126,0.873,0.266,1.303,0.443l0.181,0.253v2.512c0,1.622-0.098,3.513-0.153,3.919c-0.014,0.114-0.138,0.228-0.332,0.291
	l-1.053,0.368v0.177c0.595-0.051,1.178-0.102,1.772-0.102c0.61,0,1.234,0.051,1.844,0.102v-0.177l-0.914-0.267
	c-0.402-0.114-0.5-0.215-0.541-0.418c-0.042-0.241-0.069-2.74-0.069-4.414v-1.42l2.842,3.462c0.942,1.167,1.898,2.32,2.785,3.525
	h0.333c-0.028-1.445-0.028-2.904-0.028-3.425c0-0.735,0.111-2.979,0.153-4.007c0.014-0.228,0.152-0.355,0.456-0.456l0.93-0.305
	V86.567z M156.739,94.708c0.622-0.051,1.427-0.102,2.119-0.102c0.61,0,1.414,0.051,2.065,0.102v-0.177l-1.067-0.33
	c-0.346-0.114-0.388-0.165-0.4-1.141c-0.016-0.762-0.043-1.536-0.043-2.297c0-0.76,0.027-1.535,0.043-2.295
	c0.026-1.191,0.041-1.28,0.304-1.37l1.164-0.354v-0.178c-0.692,0.051-1.372,0.102-2.065,0.102c-0.776,0-1.455-0.051-2.119-0.102
	v0.178l1.164,0.354c0.263,0.09,0.276,0.179,0.304,1.37c0.016,0.76,0.042,1.535,0.042,2.295c0,0.761-0.026,1.535-0.042,2.297
	c-0.014,0.976-0.056,1.026-0.402,1.141l-1.065,0.33V94.708z M151.775,91.512h-3.118l1.595-3.36L151.775,91.512z M145.691,94.708
	c0.513-0.051,1.025-0.102,1.538-0.102c0.555,0,1.095,0.051,1.636,0.102v-0.177l-1.192-0.395c0.194-0.709,0.416-1.459,0.79-2.104
	c0.582-0.013,1.15-0.025,1.733-0.025c0.582,0,1.178,0.013,1.759,0.025c0.195,0.38,0.639,1.573,0.806,2.104
	c-0.417,0.153-1.014,0.317-1.358,0.395v0.177c0.623-0.051,1.232-0.102,1.856-0.102c0.734,0,1.455,0.051,2.189,0.102v-0.177
	l-1.164-0.368c-1.178-2.573-2.425-5.212-3.534-7.852h-0.305c-0.998,2.285-2.495,5.2-3.7,7.801c-0.334,0.165-1.559,0.305-1.892,0.419
	L145.691,94.708z M131.831,94.708c0.54-0.051,1.08-0.102,1.62-0.102c0.597,0,1.179,0.051,1.774,0.102v-0.177l-0.721-0.229
	c-0.389-0.114-0.514-0.241-0.514-0.532c0-0.85,0.264-4.426,0.443-6.102c1.151,2.321,2.314,4.63,3.3,7.039h0.18
	c1.04-2.32,2.093-4.502,3.313-6.898c0.124,0.622,0.775,5.44,0.775,6.074c0,0.114-0.138,0.292-0.608,0.432l-0.68,0.216v0.177
	c0.637-0.051,1.275-0.102,1.927-0.102c0.65,0,1.303,0.051,1.94,0.102v-0.177l-0.75-0.191c-0.331-0.088-0.498-0.177-0.566-0.569
	c-0.152-0.8-0.764-5.429-0.764-6.305c0-0.228,0.111-0.303,0.68-0.506l0.609-0.215v-0.178c-0.928,0.051-1.843,0.089-2.66,0.102
	c-0.915,1.991-1.871,3.981-2.967,5.922c-0.971-1.966-1.926-3.931-2.785-5.922c-0.832-0.013-1.76-0.051-2.646-0.102v0.178
	l0.789,0.266c0.264,0.088,0.361,0.228,0.361,0.455c0,0.941-0.361,4.199-0.707,6.178c-0.069,0.418-0.125,0.481-0.609,0.646
	l-0.734,0.241V94.708z M112.425,94.708c0.541-0.051,1.082-0.102,1.622-0.102c0.597,0,1.178,0.051,1.774,0.102v-0.177l-0.721-0.229
	c-0.389-0.114-0.514-0.241-0.514-0.532c0-0.85,0.264-4.426,0.443-6.102c1.15,2.321,2.314,4.63,3.299,7.039h0.181
	c1.04-2.32,2.093-4.502,3.313-6.898c0.124,0.622,0.775,5.44,0.775,6.074c0,0.114-0.139,0.292-0.61,0.432l-0.678,0.216v0.177
	c0.637-0.051,1.275-0.102,1.926-0.102c0.651,0,1.303,0.051,1.939,0.102v-0.177l-0.748-0.191c-0.331-0.088-0.498-0.177-0.568-0.569
	c-0.151-0.8-0.762-5.429-0.762-6.305c0-0.228,0.11-0.303,0.68-0.506l0.609-0.215v-0.178c-0.928,0.051-1.843,0.089-2.661,0.102
	c-0.914,1.991-1.87,3.981-2.965,5.922c-0.972-1.966-1.927-3.931-2.786-5.922c-0.832-0.013-1.76-0.051-2.648-0.102v0.178l0.791,0.266
	c0.264,0.088,0.36,0.228,0.36,0.455c0,0.941-0.36,4.199-0.708,6.178c-0.068,0.418-0.124,0.481-0.608,0.646l-0.735,0.241V94.708z
	 M107.507,91.512h-3.119l1.596-3.36L107.507,91.512z M101.422,94.708c0.513-0.051,1.025-0.102,1.539-0.102
	c0.554,0,1.095,0.051,1.636,0.102v-0.177l-1.193-0.395c0.195-0.709,0.417-1.459,0.791-2.104c0.582-0.013,1.149-0.025,1.732-0.025
	c0.582,0,1.178,0.013,1.76,0.025c0.193,0.38,0.637,1.573,0.805,2.104c-0.417,0.153-1.012,0.317-1.359,0.395v0.177
	c0.625-0.051,1.234-0.102,1.857-0.102c0.734,0,1.455,0.051,2.19,0.102v-0.177l-1.164-0.368c-1.179-2.573-2.427-5.212-3.534-7.852
	h-0.306c-0.998,2.285-2.494,5.2-3.7,7.801c-0.333,0.165-0.721,0.305-1.054,0.419V94.708z M87.462,88.722h0.194l0.417-1.014
	c0.194-0.431,0.332-0.481,2.411-0.481v5.529c0,0.633-0.028,0.964-0.11,1.141c-0.07,0.165-0.375,0.317-1.429,0.635v0.177
	c0.651-0.051,1.262-0.102,2.12-0.102c0.859,0,1.47,0.051,2.121,0.102v-0.177c-1.053-0.317-1.346-0.47-1.428-0.635
	c-0.084-0.177-0.109-0.508-0.109-1.141v-5.529c2.076,0,2.216,0.051,2.409,0.481l0.415,1.014h0.195v-2.154
	c-1.205,0.051-2.396,0.102-3.604,0.102c-1.205,0-2.397-0.051-3.603-0.102V88.722z M79.957,87.099c0.416,0,0.832-0.012,1.275-0.012
	c1.303,0,2.148,0.481,2.148,1.598c0,1.396-1.191,1.586-2.48,1.586h-0.943V87.099z M77.282,94.708
	c0.666-0.051,1.469-0.102,2.176-0.102c0.485,0,1.414,0.051,2.01,0.102v-0.177l-1.109-0.343c-0.36-0.102-0.402-0.394-0.402-2.042
	v-1.458h1.067c0.859,1.026,2.093,2.65,2.98,4.02c0.347-0.024,0.692-0.051,1.025-0.051c0.319,0,0.652,0.026,0.97,0.051v-0.177
	c-0.776-0.127-0.845-0.216-1.648-1.321l-1.913-2.61c1.276-0.19,2.273-0.799,2.273-2.08c0-1.268-1.192-1.952-3.021-1.952
	c-0.984,0-1.774,0.102-2.495,0.102c-0.748,0-1.4-0.051-1.913-0.102v0.178l1.165,0.354c0.304,0.09,0.347,0.179,0.347,1.37v4.592
	c0,0.976-0.056,1.026-0.444,1.141l-1.067,0.33V94.708z M75.52,86.567c-0.555,0.051-1.095,0.102-1.622,0.102
	c-0.61,0-1.207-0.051-1.802-0.102v0.178l0.762,0.215c0.374,0.114,0.582,0.216,0.609,0.443c0.111,0.874,0.125,2.892,0.125,4.45
	c0,1.523-0.874,2.348-2.329,2.348c-2.204,0-2.605-1.065-2.605-2.689c0-1.952,0-3.043,0.042-3.791c0.027-0.443,0.138-0.494,0.9-0.761
	l0.638-0.215v-0.178c-0.734,0.051-1.454,0.102-2.189,0.102c-0.652,0-1.051-0.051-1.73-0.102v0.178l0.746,0.354
	c0.389,0.14,0.43,0.394,0.43,1.459v3.564c0,1.939,1.4,2.739,3.41,2.739c2.065,0,3.382-0.913,3.41-3.374
	c0.028-2.259,0-3.298,0.028-4.006c0.014-0.269,0.208-0.383,0.568-0.521l0.61-0.215V86.567z M159.891,67.502h0.325l0.699-1.837
	c0.326-0.78,0.559-0.869,4.053-0.869v10.003c0,1.146-0.046,1.744-0.186,2.066c-0.116,0.296-0.629,0.572-2.399,1.146v0.32
	c1.095-0.092,2.119-0.184,3.563-0.184c1.445,0,2.47,0.092,3.564,0.184v-0.32c-1.77-0.574-2.26-0.851-2.399-1.146
	c-0.139-0.322-0.187-0.92-0.187-2.066V64.796c3.495,0,3.729,0.089,4.055,0.869l0.698,1.837h0.327v-3.901
	c-2.027,0.092-4.031,0.185-6.059,0.185c-2.026,0-4.029-0.093-6.056-0.185V67.502z M153.404,72.55h-5.241l2.679-6.08L153.404,72.55z
	 M143.177,78.332c0.861-0.092,1.725-0.184,2.586-0.184c0.933,0,1.84,0.092,2.749,0.184v-0.32l-2.003-0.713
	c0.326-1.285,0.699-2.637,1.327-3.81c0.979-0.022,1.934-0.045,2.913-0.045c0.978,0,1.979,0.022,2.958,0.045
	c0.326,0.691,1.071,2.849,1.352,3.81c-0.699,0.277-1.7,0.574-2.283,0.713v0.32c1.049-0.092,2.073-0.184,3.122-0.184
	c1.233,0,2.445,0.092,3.681,0.184v-0.32l-1.958-0.666c-1.979-4.657-4.076-9.432-5.939-14.203h-0.513
	c-1.678,4.13-4.194,9.407-6.22,14.111c-0.561,0.298-1.213,0.55-1.771,0.758V78.332z M154.802,61.169
	c0-0.527-0.559-1.055-1.142-1.055c-0.536,0-1.095,0.55-1.095,1.055c0,0.598,0.536,1.147,1.095,1.147
	C154.267,62.316,154.802,61.788,154.802,61.169z M150.188,61.169c0-0.527-0.559-1.055-1.141-1.055c-0.56,0-1.094,0.55-1.094,1.055
	c0,0.598,0.511,1.147,1.094,1.147C149.653,62.316,150.188,61.788,150.188,61.169z M130.332,67.502h0.326l0.698-1.837
	c0.326-0.78,0.56-0.869,4.054-0.869v10.003c0,1.146-0.047,1.744-0.187,2.066c-0.115,0.296-0.628,0.572-2.398,1.146v0.32
	c1.094-0.092,2.119-0.184,3.563-0.184s2.47,0.092,3.565,0.184v-0.32c-1.771-0.574-2.261-0.851-2.399-1.146
	c-0.142-0.322-0.188-0.92-0.188-2.066V64.796c3.494,0,3.728,0.089,4.054,0.869l0.699,1.837h0.325v-3.901
	c-2.026,0.092-4.03,0.185-6.057,0.185s-4.03-0.093-6.057-0.185V67.502z M120.095,78.332c1.049-0.092,2.4-0.184,3.564-0.184
	c1.025,0,2.377,0.092,3.471,0.184v-0.32l-1.793-0.598c-0.583-0.206-0.652-0.297-0.676-2.065c-0.023-1.377-0.07-2.776-0.07-4.152
	s0.047-2.777,0.07-4.152c0.047-2.159,0.07-2.318,0.513-2.479l1.956-0.644v-0.321c-1.164,0.092-2.305,0.185-3.471,0.185
	c-1.304,0-2.445-0.093-3.564-0.185v0.321l1.957,0.644c0.443,0.16,0.467,0.319,0.514,2.479c0.022,1.375,0.068,2.776,0.068,4.152
	s-0.046,2.775-0.068,4.152c-0.023,1.769-0.094,1.859-0.677,2.065l-1.794,0.598V78.332z M105.839,77.966
	c1.328,0.504,2.33,0.642,3.449,0.642c4.589,0,6.104-2.294,6.104-4.291c0-4.75-7.293-3.83-7.293-7.434
	c0-1.538,1.352-2.661,2.819-2.661c0.792,0,1.562,0.137,2.353,0.435l0.91,2.548h0.256l0.139-3.145
	c-0.979-0.437-2.469-0.734-3.447-0.734c-2.517,0-5.125,1.354-5.125,4.13c0,4.314,7.291,4.04,7.291,7.298
	c0,2.133-1.7,2.96-3.564,2.96c-0.582,0-1.678-0.137-2.375-0.528l-0.793-2.961h-0.326L105.839,77.966z M92.101,64.565
	c0.7,0,1.398-0.024,2.145-0.024c2.19,0,3.611,0.873,3.611,2.892c0,2.524-2.004,2.868-4.17,2.868h-1.586V64.565z M87.606,78.332
	c1.119-0.092,2.469-0.184,3.657-0.184c0.814,0,2.376,0.092,3.378,0.184v-0.32l-1.863-0.62c-0.606-0.184-0.678-0.712-0.678-3.693
	v-2.64h1.796c1.444,1.859,3.517,4.796,5.008,7.273c0.582-0.047,1.165-0.092,1.724-0.092c0.536,0,1.096,0.045,1.631,0.092v-0.32
	c-1.305-0.23-1.421-0.39-2.772-2.387l-3.214-4.727c2.143-0.346,3.82-1.446,3.82-3.764c0-2.294-2.004-3.534-5.079-3.534
	c-1.653,0-2.981,0.185-4.192,0.185c-1.258,0-2.354-0.093-3.215-0.185v0.321l1.957,0.644c0.512,0.16,0.581,0.319,0.581,2.479v8.305
	c0,1.769-0.092,1.859-0.745,2.065l-1.793,0.598V78.332z M73.061,75.349c0,1.769-0.094,1.859-0.746,2.065l-1.793,0.598v0.32
	c1.677-0.092,3.914-0.184,5.963-0.184c1.305,0,4.893,0.092,6.104,0.184v-1.743c0-0.665,0.093-1.354,0.14-2.02h-0.326
	c-0.419,1.354-0.675,2.086-0.955,2.433c-0.233,0.275-0.583,0.297-3.075,0.297c-1.048,0-2.143-0.067-3.238-0.091
	c-0.047-0.964-0.116-2.019-0.116-3.074v-3.12h2.423c2.819,0,3.075,0.045,3.285,0.55l0.605,1.743h0.327
	c-0.023-0.964-0.047-1.834-0.047-2.776c0-0.848,0.024-1.72,0.047-2.593h-0.327l-0.605,1.629c-0.209,0.505-0.466,0.553-3.285,0.553
	h-2.423v-2.823c0-0.965,0.069-1.813,0.116-2.617c0.862-0.022,1.934-0.045,3.285-0.045c2.679,0,2.866,0,3.098,0.642l0.606,1.722
	h0.326c-0.023-0.527-0.07-1.308-0.07-1.652c0-0.344,0.046-1.171,0.07-1.744c-2.05,0.092-4.24,0.185-6.454,0.185
	c-1.771,0-3.541-0.093-5.474-0.185v0.321l1.957,0.644c0.513,0.16,0.583,0.319,0.583,2.479V75.349z M102.094,43.952
	c0,2.041-0.107,2.146-0.849,2.386l-2.043,0.69v0.37c1.908-0.105,4.455-0.212,6.789-0.212c1.484,0,5.566,0.106,6.946,0.212v-2.015
	c0-0.769,0.106-1.564,0.159-2.333h-0.371c-0.479,1.564-0.768,2.411-1.088,2.81c-0.266,0.317-0.662,0.345-3.499,0.345
	c-1.193,0-2.438-0.079-3.687-0.106c-0.052-1.111-0.131-2.333-0.131-3.552v-3.605h2.756c3.207,0,3.502,0.052,3.74,0.637l0.689,2.014
	h0.371c-0.026-1.114-0.054-2.122-0.054-3.208c0-0.98,0.027-1.988,0.054-2.997h-0.371l-0.689,1.883
	c-0.238,0.583-0.533,0.637-3.74,0.637h-2.756v-3.262c0-1.114,0.079-2.095,0.131-3.023c0.982-0.025,2.202-0.052,3.738-0.052
	c3.051,0,3.263,0,3.528,0.742l0.688,1.989h0.371c-0.025-0.61-0.078-1.511-0.078-1.909c0-0.397,0.053-1.353,0.078-2.015
	c-2.333,0.106-4.824,0.211-7.344,0.211c-2.016,0-4.029-0.105-6.232-0.211v0.371l2.229,0.743c0.583,0.185,0.663,0.37,0.663,2.862
	V43.952z M78.295,47.398c1.273-0.105,2.81-0.212,4.163-0.212c0.929,0,2.704,0.106,3.845,0.212v-0.37l-2.12-0.717
	c-0.692-0.213-0.77-0.821-0.77-4.268v-3.103h7.848v3.103c0,3.446-0.082,4.055-0.77,4.268l-2.121,0.717v0.37
	c1.141-0.105,2.917-0.212,3.845-0.212c1.351,0,2.891,0.106,4.161,0.212v-0.37l-2.04-0.69c-0.743-0.239-0.849-0.345-0.849-2.386v-9.6
	c0-2.492,0.078-2.677,0.664-2.862l2.225-0.743v-0.371c-1.352,0.106-2.649,0.211-3.896,0.211c-1.354,0-2.706-0.105-4.11-0.211v0.371
	l1.989,0.664c0.794,0.264,0.901,0.45,0.901,1.75v4.747h-7.848v-4.747c0-1.3,0.105-1.485,0.9-1.75l1.99-0.664v-0.371
	c-1.406,0.106-2.759,0.211-4.11,0.211c-1.247,0-2.545-0.105-3.897-0.211v0.371l2.227,0.743c0.583,0.185,0.664,0.37,0.664,2.862v9.6
	c0,2.041-0.106,2.146-0.85,2.386l-2.04,0.69V47.398z M61.652,34.884h0.369l0.796-2.121c0.372-0.902,0.637-1.008,4.614-1.008v11.562
	c0,1.324-0.054,2.014-0.211,2.386c-0.134,0.345-0.717,0.661-2.731,1.326v0.37c1.245-0.105,2.412-0.212,4.056-0.212
	s2.811,0.106,4.057,0.212v-0.37c-2.014-0.665-2.571-0.981-2.73-1.326c-0.16-0.372-0.212-1.062-0.212-2.386V31.755
	c3.977,0,4.242,0.106,4.614,1.008l0.794,2.121h0.371v-4.507c-2.306,0.106-4.585,0.211-6.894,0.211c-2.306,0-4.584-0.105-6.892-0.211
	V34.884z M46.63,43.952c0,2.041-0.106,2.146-0.848,2.386l-2.042,0.69v0.37c1.909-0.105,4.454-0.212,6.787-0.212
	c1.485,0,5.568,0.106,6.946,0.212v-2.015c0-0.769,0.106-1.564,0.159-2.333h-0.371c-0.476,1.564-0.769,2.411-1.086,2.81
	c-0.267,0.317-0.663,0.345-3.5,0.345c-1.192,0-2.438-0.079-3.685-0.106c-0.054-1.111-0.133-2.333-0.133-3.552v-3.605h2.758
	c3.208,0,3.497,0.052,3.737,0.637l0.69,2.014h0.372c-0.028-1.114-0.054-2.122-0.054-3.208c0-0.98,0.026-1.988,0.054-2.997h-0.372
	l-0.69,1.883c-0.24,0.583-0.529,0.637-3.737,0.637h-2.758v-3.262c0-1.114,0.079-2.095,0.133-3.023
	c0.982-0.025,2.2-0.052,3.737-0.052c3.051,0,3.262,0,3.527,0.742l0.689,1.989h0.371c-0.026-0.61-0.08-1.511-0.08-1.909
	c0-0.397,0.053-1.353,0.08-2.015c-2.333,0.106-4.825,0.211-7.342,0.211c-2.019,0-4.034-0.105-6.232-0.211v0.371l2.227,0.743
	c0.583,0.185,0.663,0.37,0.663,2.862V43.952z M32.597,47.717c5.278,0,8.432-4.161,8.432-9.412c0-4.825-3.127-8.246-8.007-8.246
	c-5.355,0-8.668,3.711-8.668,8.987C24.353,43.343,27.083,47.717,32.597,47.717z M32.862,46.842c-3.869,0-5.806-3.607-5.806-9.067
	c0-3.766,1.988-6.841,5.673-6.841c4.375,0,5.596,4.215,5.596,8.644C38.326,43.184,36.893,46.842,32.862,46.842z M16.953,45.25
	c0,0.188-0.025,0.585-0.053,0.982c-0.93,0.317-1.936,0.451-3.05,0.451c-3.948,0-6.654-3.156-6.654-7.716
	c0-5.303,3.154-7.874,6.895-7.874c1.033,0,2.625,0.238,2.891,0.582c0.396,0.504,0.901,1.963,1.272,3.103h0.372
	c-0.028-0.769-0.053-1.537-0.053-2.307c0-0.662,0.025-1.352,0.053-2.042c-1.14-0.239-2.307-0.37-3.766-0.37
	c-4.694,0-10.367,3.075-10.367,9.146c0,4.985,3.712,8.511,9.756,8.511c1.776,0,3.977-0.424,4.985-0.742
	c-0.026-0.479-0.054-0.928-0.054-1.193v-4.083c0-0.557,0.081-0.822,0.557-1.06l1.67-0.795v-0.372
	c-1.165,0.054-2.332,0.212-3.525,0.212c-1.274,0-2.546-0.159-3.82-0.212v0.372l1.591,0.609c1.193,0.452,1.3,0.609,1.3,1.035V45.25z
	 M57.153,94.708c0.72-0.051,1.385-0.102,2.065-0.102c0.818,0,1.399,0.051,2.148,0.102v-0.177l-1.067-0.33
	c-0.416-0.114-0.472-0.165-0.472-1.141v-2.397h1.221c1.676,0,1.829,0.025,1.953,0.304l0.36,0.964h0.194
	c-0.013-0.531-0.027-1.015-0.027-1.534c0-0.47,0.014-0.95,0.027-1.434h-0.194l-0.36,0.9c-0.124,0.28-0.277,0.306-1.953,0.306h-1.221
	v-1.422c0-0.507,0.042-1.014,0.069-1.521h2.897c0.388,0,0.555,0,0.707,0.38l0.332,0.926h0.194C64.014,88.179,64,87.81,64,87.455
	c0-0.292,0.014-0.597,0.027-0.888c-1.123,0.051-2.259,0.102-3.396,0.102c-1.136,0-2.259-0.051-3.478-0.102v0.178l1.164,0.354
	c0.305,0.09,0.347,0.179,0.347,1.37v4.592c0,0.976-0.055,1.026-0.443,1.141l-1.067,0.33V94.708z M45.938,94.708
	c0.624-0.051,1.428-0.102,2.12-0.102c0.61,0,1.414,0.051,2.065,0.102v-0.177l-1.066-0.33c-0.347-0.114-0.388-0.165-0.402-1.141
	c-0.014-0.762-0.042-1.536-0.042-2.297c0-0.76,0.028-1.535,0.042-2.295c0.028-1.191,0.042-1.28,0.305-1.37l1.164-0.354v-0.178
	c-0.692,0.051-1.372,0.102-2.065,0.102c-0.775,0-1.455-0.051-2.12-0.102v0.178l1.164,0.354c0.264,0.09,0.277,0.179,0.305,1.37
	c0.014,0.76,0.042,1.535,0.042,2.295c0,0.761-0.028,1.535-0.042,2.297c-0.014,0.976-0.056,1.026-0.402,1.141l-1.067,0.33V94.708z
	 M51.662,94.708c0.596-0.051,1.191-0.102,1.802-0.102c0.679,0,1.372,0.051,2.038,0.102v-0.177c-0.347-0.077-0.721-0.216-0.859-0.279
	c-0.042-0.013-0.25-0.177-0.333-0.254l-4.074-3.969l3.284-2.626c0.541-0.431,1.137-0.57,1.511-0.658v-0.178
	c-0.513,0.051-1.025,0.102-1.538,0.102c-0.596,0-1.206-0.051-1.802-0.102v0.178c0.582,0.189,0.97,0.266,0.97,0.405
	c0,0.127-0.276,0.393-0.776,0.811l-2.924,2.436l3.493,3.476c0.125,0.126,0.235,0.203,0.235,0.304c0,0.089-0.25,0.152-1.025,0.355
	V94.708z M43.643,86.567c-0.638,0.051-1.261,0.102-1.885,0.102c-0.568,0-1.15-0.051-1.719-0.102v0.178l0.916,0.342
	c0.401,0.151,0.513,0.254,0.541,0.608c0.041,0.621,0.055,1.243,0.055,1.853v3.068l-3.95-4.795c-0.332-0.405-0.624-0.811-0.887-1.254
	c-0.416,0.051-0.832,0.102-1.247,0.102c-0.443,0-0.887-0.051-1.331-0.102v0.178c0.443,0.126,0.873,0.266,1.303,0.443l0.18,0.253
	v2.512c0,1.622-0.096,3.513-0.152,3.919c-0.014,0.114-0.139,0.228-0.333,0.291l-1.053,0.368v0.177
	c0.596-0.051,1.178-0.102,1.774-0.102c0.61,0,1.234,0.051,1.843,0.102v-0.177l-0.915-0.267c-0.401-0.114-0.499-0.215-0.541-0.418
	c-0.042-0.241-0.069-2.74-0.069-4.414v-1.42l2.841,3.462c0.942,1.167,1.898,2.32,2.786,3.525h0.333
	c-0.027-1.445-0.027-2.904-0.027-3.425c0-0.735,0.11-2.979,0.151-4.007c0.014-0.228,0.153-0.355,0.458-0.456l0.928-0.305V86.567z
	 M29.354,91.512h-3.119l1.594-3.36L29.354,91.512z M23.27,94.708c0.513-0.051,1.026-0.102,1.538-0.102
	c0.555,0,1.095,0.051,1.636,0.102v-0.177l-1.193-0.395c0.194-0.709,0.416-1.459,0.791-2.104c0.582-0.013,1.15-0.025,1.732-0.025
	s1.178,0.013,1.76,0.025c0.194,0.38,0.637,1.573,0.804,2.104c-0.416,0.153-1.012,0.317-1.359,0.395v0.177
	c0.624-0.051,1.234-0.102,1.858-0.102c0.734,0,1.455,0.051,2.189,0.102v-0.177l-1.164-0.368c-1.178-2.573-2.425-5.212-3.534-7.852
	h-0.305c-0.998,2.285-2.494,5.2-3.7,7.801c-0.332,0.165-0.721,0.305-1.053,0.419V94.708z M16.561,87.099
	c0.416,0,0.832-0.012,1.275-0.012c1.303,0,2.148,0.481,2.148,1.598c0,1.396-1.191,1.586-2.481,1.586h-0.942V87.099z M13.886,94.708
	c0.665-0.051,1.469-0.102,2.176-0.102c0.485,0,1.413,0.051,2.009,0.102v-0.177l-1.109-0.343c-0.36-0.102-0.402-0.394-0.402-2.042
	v-1.458h1.067c0.859,1.026,2.093,2.65,2.98,4.02c0.346-0.024,0.693-0.051,1.025-0.051c0.318,0,0.651,0.026,0.97,0.051v-0.177
	c-0.776-0.127-0.846-0.216-1.649-1.321l-1.913-2.61c1.275-0.19,2.273-0.799,2.273-2.08c0-1.268-1.192-1.952-3.021-1.952
	c-0.984,0-1.774,0.102-2.495,0.102c-0.748,0-1.399-0.051-1.912-0.102v0.178l1.164,0.354c0.305,0.09,0.346,0.179,0.346,1.37v4.592
	c0,0.976-0.055,1.026-0.443,1.141l-1.067,0.33V94.708z M4.942,94.708c0.721-0.051,1.386-0.102,2.066-0.102
	c0.817,0,1.399,0.051,2.148,0.102v-0.177l-1.067-0.33c-0.417-0.114-0.472-0.165-0.472-1.141v-2.397h1.22
	c1.677,0,1.83,0.025,1.955,0.304l0.36,0.964h0.194c-0.014-0.531-0.028-1.015-0.028-1.534c0-0.47,0.014-0.95,0.028-1.434h-0.194
	l-0.36,0.9c-0.125,0.28-0.277,0.306-1.955,0.306h-1.22v-1.422c0-0.507,0.042-1.014,0.069-1.521h2.897c0.388,0,0.554,0,0.706,0.38
	l0.333,0.926h0.194c-0.013-0.354-0.027-0.723-0.027-1.077c0-0.292,0.014-0.597,0.027-0.888c-1.122,0.051-2.259,0.102-3.396,0.102
	c-1.136,0-2.259-0.051-3.479-0.102v0.178l1.165,0.354c0.305,0.09,0.346,0.179,0.346,1.37v4.592c0,0.976-0.055,1.026-0.443,1.141
	l-1.068,0.33V94.708z M53.419,63.922l0.653,0.229c0.745,0.253,0.908,0.322,1.28,1.171c1.468,3.328,3.845,9.111,5.359,13.286h0.536
	c2.143-5.735,3.984-10.257,5.451-13.4c0.374-0.779,0.699-1.033,1.701-1.285v-0.321c-0.699,0.092-1.398,0.185-2.121,0.185
	c-0.885,0-1.77-0.093-2.655-0.185v0.321c1.025,0.322,1.747,0.574,1.747,0.826c0,0.253-0.094,0.506-0.232,0.917
	c-0.815,2.547-2.121,5.852-3.542,9.202c-1.094-2.432-4.077-9.568-4.077-10.05c0-0.252,0.21-0.367,1.281-0.667l0.815-0.229v-0.321
	c-0.979,0.092-1.98,0.185-2.959,0.185c-1.071,0-2.166-0.093-3.238-0.185V63.922z M43.649,78.332
	c1.048-0.092,2.399-0.184,3.564-0.184c1.025,0,2.377,0.092,3.471,0.184v-0.32l-1.793-0.598c-0.582-0.206-0.652-0.297-0.675-2.065
	c-0.024-1.377-0.07-2.776-0.07-4.152s0.046-2.777,0.07-4.152c0.046-2.159,0.069-2.318,0.512-2.479l1.957-0.644v-0.321
	c-1.164,0.092-2.306,0.185-3.471,0.185c-1.304,0-2.446-0.093-3.564-0.185v0.321l1.957,0.644c0.442,0.16,0.466,0.319,0.513,2.479
	c0.023,1.375,0.069,2.776,0.069,4.152s-0.046,2.775-0.069,4.152c-0.024,1.769-0.093,1.859-0.676,2.065l-1.793,0.598V78.332z
	 M39.472,63.601c-1.072,0.092-2.12,0.185-3.168,0.185c-0.956,0-1.934-0.093-2.89-0.185v0.321l1.538,0.619
	c0.676,0.276,0.862,0.46,0.909,1.103c0.07,1.124,0.094,2.249,0.094,3.35v5.553l-0.047,0.047l-6.593-8.721
	c-0.559-0.732-1.049-1.469-1.491-2.271c-0.699,0.092-1.398,0.185-2.097,0.185c-0.745,0-1.491-0.093-2.236-0.185v0.321
	c0.745,0.229,1.467,0.481,2.189,0.804l0.303,0.459v4.543c0,2.937-0.163,6.355-0.256,7.09c-0.023,0.207-0.233,0.414-0.559,0.528
	l-1.771,0.666v0.32c1.002-0.092,1.98-0.184,2.982-0.184c1.025,0,2.074,0.092,3.099,0.184v-0.32l-1.538-0.482
	c-0.676-0.207-0.839-0.391-0.909-0.758c-0.069-0.434-0.116-4.957-0.116-7.984v-2.569h0.047l4.729,6.264
	c1.584,2.111,3.192,4.198,4.683,6.379h0.559c-0.046-2.616-0.046-5.254-0.046-6.196c0-1.331,0.186-5.392,0.256-7.25
	c0.024-0.413,0.256-0.643,0.769-0.827l1.561-0.549V63.601z M20.873,63.601c-0.932,0.092-1.841,0.185-2.726,0.185
	c-1.025,0-2.027-0.093-3.028-0.185v0.321l1.281,0.392c0.629,0.205,0.979,0.39,1.025,0.802c0.186,1.584,0.209,5.233,0.209,8.055
	c0,2.754-1.468,4.244-3.914,4.244c-3.704,0-4.38-1.927-4.38-4.864c0-3.533,0-5.506,0.07-6.86c0.047-0.805,0.232-0.894,1.514-1.376
	l1.071-0.392v-0.321c-1.234,0.092-2.445,0.185-3.68,0.185c-1.095,0-2.19-0.093-3.332-0.185v0.321l1.677,0.644
	c0.652,0.252,0.723,0.71,0.723,2.639v6.448c0,3.509,2.352,4.955,5.73,4.955c3.471,0,5.685-1.652,5.731-6.104
	c0.047-4.085,0-5.965,0.047-7.25c0.023-0.482,0.349-0.688,0.955-0.94l1.026-0.392V63.601z M135.808,36.384
	c0.01,0.031,0.174,0.855,0.174,0.989c0,0.134,0.292,0.652,0.439,0.954c0.328,0.663,0.762,1.396,1.23,1.98
	c0.551,0.69,1.643,1.569,2.374,2.046c0.966,0.623,2.225,0.954,3.224,0.961c0.16,0,0.356,0.041,0.585,0.111
	c0.079,0.1,0.139,0.196,0.139,0.331c0,0.784-2.493,3.834-3.353,3.834c-0.462,0-1.061-0.529-1.466-0.793
	c-1.259-0.818-2.559-2.25-3.317-3.51c-0.402-0.677-1.304-2.166-1.304-2.883c0-0.134,0.054-0.483,0.054-0.617
	c0-0.134,0.482-1.743,0.482-1.876c0-0.135,0.537-1.449,0.537-1.583L135.808,36.384z M132.065,44.266
	c0.322,0,0.915,1.099,1.049,1.313c0.107,0.173,1.167,1.703,1.449,2.186c0.596,1.013,2.275,3.158,2.274,3.292
	c0,0,0.104,0.275-0.001,0.376c-0.05,0.048-0.024,0.073-0.158,0.073s-0.518,0.03-0.846-0.292c-0.266-0.261-4.035-5.99-4.035-6.627
	C131.798,44.453,131.933,44.266,132.065,44.266z M135.131,43.789c0.084-0.048,0.247-0.002,0.247-0.002
	c1.147,1.507,2.23,3.263,3.84,4.034c0.309,0.146,0.685,0.308,0.919,0.542c0.321,0.328,1.101,1.587,1.101,2.069
	c0,0.471-0.522,0.483-0.67,0.483c-0.289,0-1.112-0.405-1.354-0.526c-2.434-1.26-3.514-4.14-4.145-6.202
	C135.069,44.188,134.993,43.865,135.131,43.789z M127.524,27.486c0.149-0.004,0.336-0.017,0.512,0.066
	c0.209,0.29,0.001,0.873,0.425,1.146c0.103,0.019,0.205,0.072,0.339,0.072c0.604,0,1.126-0.965,1.207-0.965
	c0.135,0,0.382,0.161,0.613,0.225c0,0,0.043,0.102,0,0.278c-0.037,0.156-1.158,1.542-1.353,1.674
	c-0.087,0.058-0.263,0.147-0.431,0.214c-0.201,0.087-0.492,0.13-0.627,0.13c-0.644,0-1.072-0.885-1.072-1.288
	C127.138,28.575,127.321,27.927,127.524,27.486z M144.512,45.719c0.412,0.114,0.51,0.952,0.51,1.233c0,0.463-0.39,1.957-1.072,1.957
	c-0.136,0-0.321-0.133-0.456-0.133c-0.322,0-0.992,0.671-0.992,0.885c0,0.416,0.764,0.484,1.316,0.562
	c0.286,0.04,0.74,0.003,0.74,0.003c0.541-0.425,0.378-1.258,0.922-1.755c0.105-0.049,0.21-0.072,0.42-0.121h0.181
	c0.021,0.019,0.657,1.004,0.657,1.258c0,1.167-2.795,1.797-3.297,1.797c-1.268,0-1.904-2.105-1.904-2.789
	c0-0.61,0.273-1.019,0.83-1.019c0.135,0,1.02,0.321,1.153,0.321c0.503,0,0.644-0.55,0.644-0.832c0-0.134-0.114-0.563-0.106-0.696
	C144.076,46.03,144.274,45.718,144.512,45.719z M153.115,44.758c0.161,0.005,0.125,0.335,0.125,0.443
	c0.018,0.65,0.018,0.308-0.015,0.749c-0.011,0.735-0.511,1.66-0.826,2.202c-0.302,0.523-2.041,3.198-3.167,3.198
	c-0.638,0-1.476-0.992-1.476-1.421c0-0.315,0.442-0.455,0.718-0.529c0.274-0.073,0.552-0.159,0.801-0.266
	c1.381-0.624,2.389-2.008,3.133-3.242c0.171-0.285,0.316-0.977,0.465-1.062C152.958,44.782,153.003,44.754,153.115,44.758z
	 M152.453,37.835c0.167,0.059,0.225,0.07,0.271,0.289c0.237,1.114,0.503,3.331,0.503,3.465c0,0.618-0.533,1.724-0.828,2.22
	c-0.396,0.657-1.149,1.712-1.807,2.204c-0.125,0.094-2.151,1.458-2.97,1.53c-0.581,0.052-1.533-0.887-1.776-1.243
	c-0.343-0.501-0.594-1.037-0.842-1.507c-0.175-0.328-0.465-0.844-0.465-0.979c0-0.201,0.229-0.368,0.344-0.389
	c0.053-0.006,1.313-0.212,1.764-0.406c2.044-0.885,4.731-2.451,5.469-4.791C152.163,38.075,152.268,37.946,152.453,37.835z
	 M146.309,31.907c0,0.43-0.335,0.778-0.724,0.778c-0.135,0-0.139,0.001-0.188-0.058c-0.062-0.073,0.005-0.244,0.005-0.244
	c-0.004-0.134,0.212-0.369,0.211-0.503c-0.004-0.244-0.054-0.399-0.098-0.906C146.091,31.199,146.309,31.364,146.309,31.907z
	 M148.267,24.855c0.309,0,0.503,0.295,0.51,0.509c0.007,0.213-0.295,0.456-0.429,0.456c-0.248,0-0.423-0.319-0.43-0.537
	C147.914,25.177,148.072,24.855,148.267,24.855z M138.639,24.801c0.362,0,0.376,0.328,0.376,0.429c0,0.248-0.188,0.536-0.402,0.536
	c-0.389,0-0.456-0.308-0.456-0.483C138.156,24.962,138.324,24.801,138.639,24.801z M148.803,23.084c0.135,0,0.258,0.102,0.433,0.121
	c0.456,0.054,1.311,0.496,1.311,1.085c0,0.134-0.057,0.388-0.184,0.617c-0.237-0.222-0.503-0.542-0.817-0.806h-0.144
	c-0.043,0.047-0.089-0.025-0.089,0.109s0.051,0.175,0.107,0.299c-0.062,0.068-0.054,0.129-0.188,0.129
	c-0.08,0-0.644-0.268-0.966-0.268c-0.563,0-1.287,0.429-1.448,0.429c-0.134,0-0.241-0.161-0.241-0.295
	c0-0.644,1.02-0.483,1.02-0.966c0-0.248,0.649-0.349,0.67-0.349C148.4,23.191,148.669,23.084,148.803,23.084z M137.377,22.709
	c0.442-0.035,0.64-0.022,0.81,0c0.566,0.134,1.687,0.61,1.687,1.341c0,0.134-0.026,0.268-0.161,0.268s-0.489-0.375-0.623-0.375
	h-0.359c-0.045,0.046-0.037-0.026-0.037,0.108c0,0.134,0.107,0.134,0.107,0.268c0,0.135-0.054,0.135-0.063,0.208
	c-0.572-0.074-0.869,0.066-1.535,0.215c-0.012-0.182-0.012-0.342-0.01-0.493c-0.047-0.045-0.028-0.037-0.162-0.037
	c-0.43,0-0.75,0.804-1.18,0.804c-0.322,0-0.482-0.294-0.482-0.482c0-0.577,0.686-1.393,1.248-1.647
	C136.818,22.799,137.105,22.763,137.377,22.709z M138.077,22.065c0.432,0.054,0.481,0,0.537,0c0.431,0.054,0.963,0.083,1.352,0.285
	c0.67,0.342,1.67,0.966,2.24,1.656c0.094,0.114,0.295,0.943,0.295,1.198c0,0.133-0.376,1.625-0.375,2.064
	c0,0.317,0.268,1.556,0.268,1.69c0,0.274,0.035,0.733-0.23,1.097c-0.236-0.032-1.057-1.345-1.057-1.822
	c0-0.704,0.645-0.818,0.645-1.77c0-0.174-0.034-0.322-0.215-0.322c-0.135,0-0.705,0.644-0.838,0.642c0,0-0.289,0.089-0.43-0.001
	c-0.061-0.038-0.127-0.131-0.127-0.131c0.225-0.37,0.643-0.873,0.643-1.181c0-0.214-0.566-0.637-0.718-0.617
	c-0.327,0.106-0.08,0.567-0.106,0.782c-0.066,0.482-0.704,1.149-1.187,1.149c-0.235,0-0.837-0.264-0.972-0.404
	c-0.563-0.597-0.289-0.682-0.289-1.205c0-0.134-0.055-0.08-0.046-0.168c-0.034,0.007-0.034-0.046-0.169-0.046
	c-0.355,0-0.697,0.563-0.697,0.778c0,0.409,0.268,0.926,0.855,1.062c-0.174,0.372-0.299,0.413-0.561,0.413
	c-1.012,0-0.891-1.341-1.34-1.341c-0.135,0-0.269,0.107-0.402,0.107c-0.135,0-0.394-0.248-0.514-0.348
	c-0.221-0.181-0.184-0.384-0.184-0.51C134.456,23.266,135.97,22.193,138.077,22.065z M155.213,21.261
	c0.536,0,1.395,0.751,1.395,1.287c0,0.148-0.152,0.349-0.239,0.355c-0.965,0.101-1.478,1.086-1.478,1.764
	c0,0.745,0.498,1.322,1.322,1.7c0.174,0.08,0.451,0.11,0.586,0.11c0.134,0,0.546-0.13,0.841-0.298
	c0.477-0.282,0.721-1.175,1.316-0.943c0.454,0.595,0.601,1.02,0.601,1.523c0,0.804-1.79,1.099-2.012,1.099
	c-0.845,0-2.052-0.519-2.796-1.404c-0.308-0.369-0.578-0.84-0.771-1.26c-0.219-0.475-0.374-1.07-0.374-1.412
	C153.604,23.178,154.287,21.261,155.213,21.261z M152.396,15.093c0.134,0,0.691,0.216,1.026,0.302
	c1.356,0.35,1.909,1.956,2.179,2.992c0.03,0.121,0.071,0.271,0.071,0.405s-0.005,0.292-0.064,0.517c0,0-0.021,0.128-0.154,0.128
	c-0.322,0-0.611-0.251-0.986-0.708c-0.469-0.576-0.712-1.322-1.147-1.932c-0.255-0.349-0.631-0.67-0.943-0.949
	c-0.096-0.086-0.421-0.294-0.437-0.488c-0.009-0.109,0.015-0.167,0.058-0.203C152.085,15.089,152.263,15.093,152.396,15.093z
	 M141.079,12.894c1.449,0,2.293,0.858,3.621,0.858c0.134,0,2.279-0.215,2.414-0.215c0.871,0,2.137,1.116,2.285,2.169
	c0.026,0.208,0.074,0.486,0.074,0.621c0,0.134-0.269,1.635-0.269,1.77c0,1.388,1.555,2.32,1.555,3.541
	c0,0.349-0.176,0.952-0.448,1.179c-0.187-0.04-0.588-0.363-0.715-0.417c-0.416-0.195-1.249-0.387-1.384-0.387
	c-1.327,0-2.991,0.857-3.722,1.548c-0.363,0.342-0.435,1.382-0.435,1.777c0,0.959,0.483,1.844,0.483,2.763
	c0,0.134-0.164,1.886-0.183,1.933c0.021,0.1,0.021,0.263,0.034,0.429c-0.014,0.059-0.014-0.002-0.014,0.132s0.268,1.073,0.268,1.207
	c0,0.644-0.395,1.153-1.071,1.153c-0.323,0-0.698-0.268-0.698-0.59c0-0.342-0.269-0.889-0.469-1.01
	c-0.088-0.054-0.148-0.063-0.281-0.063c-0.135,0-0.603,0.585-0.938,0.805c-0.275-0.145-0.18-0.471-0.455-0.471
	c-0.376,0-0.379,0.437-0.379,0.471c0,0.469,0.604,1.072,1.1,1.072c0.135,0,0.863-0.336,0.997-0.336c0.402,0,0.632,0.734,0.699,0.801
	c0.12,0.127,0.315,0.206,0.45,0.206s0.456-0.359,0.59-0.359c0.449,0,0.698,0.094,1.244,0.199c0.225,0.042,0.467,0.069,0.65-0.244
	c0.115-0.198,0.099-0.215,0.209-0.36c0.133-0.115,0.211-0.207,0.371-0.267c0.168-0.067,0.663-0.707,0.663-0.929
	c0-1.092-0.804-0.751-0.804-1.951v-0.818c0-0.133-0.322-1.495-0.322-1.629c0-0.476,0.857-0.034,0.857-0.59
	c0-0.214-0.911-0.717-0.911-1.019c0-0.382,0.856-0.763,1-0.803c0.142,0.184,0.072,0.12,0.072,0.294c0,0.509,0.199,1.101,0.93,1.321
	c0.062,0.019,0.304,0.047,0.438,0.047c0.134,0,0.433-0.128,0.626-0.283c0.323-0.254,0.561-0.938,0.488-1.309
	c0,0-0.042-0.072,0.093-0.072c0.321,0,0.697,0.423,0.697,0.563c0,0.409-0.665,1.32-1.04,1.401c-0.376,0.081-0.747,0.125-1.109,0.277
	c-0.1,0.136,0,0.188,0,0.188c0.253,0.156,0.433,0.112,0.433,0.333c0,0.134-0.268,0.375-0.268,0.51c0,0.395,0.288,0.482,0.429,0.482
	c0.469,0,1.604-0.708,1.859-1.271c0.114-0.248,0.071-0.767,0.071-0.9c0-0.229,0.282-0.687,0.352-0.722
	c0.192-0.098,0.512,0.138,0.593,0.446c0.067,0.269,0.128,0.785,0.128,0.919c0,0.979-0.529,1.701-0.482,2.68
	c0.047,0.858-0.054,1.45-0.054,1.583c0,0.135-0.136,0.738-0.235,1.106c-0.041,0.148-1.957,3.828-2.694,3.828h-0.637
	c-0.135,0-0.146-0.095-0.221-0.169c-0.087-0.087-0.148-0.287-0.148-0.448c0-0.161,0.048-0.321,0.001-0.475
	c-0.053-0.168-0.249-0.464-0.383-0.464c-0.55,0-0.872,0.43-1.181,0.43c-0.302,0-0.844-0.644-1.394-0.644
	c-0.678,0-0.838,0.858-1.314,0.858c-0.583,0-0.644-0.911-1.395-0.911c-0.637,0-0.557,0.644-1.314,0.644
	c-0.135,0-0.613-0.353-0.747-0.353c-0.536,0-0.604,0.818-0.646,0.913c0.094,0.04,0.133,0.194,0.266,0.194
	c0.135,0,0.552-0.391,0.687-0.391c0.134,0,0.774,0.644,0.986,0.65c0.241,0.006,1.119-0.406,1.253-0.406
	c0.135,0,0.715,0.278,0.848,0.278c0.584,0,1.121-0.456,1.617-0.456c0.396,0,1.074,0.275,1.074,0.698
	c0,0.771-0.758,1.073-1.262,1.073c-0.134,0-1.582-0.375-1.716-0.375c-0.281,0-1.475,0.073-1.475,0.536
	c0,0.322,0.798,0.543,0.938,0.537c0.289-0.015,1.233-0.215,1.367-0.215c0.751,0,1.984,0.181,1.984,1.288
	c0,1.267-1.308,1.77-2.178,1.77h-2.093c-1.381-0.025-4.944-3.546-5.258-3.813c0,0-0.556-0.773-0.556-0.908s-0.285-0.607-0.412-0.929
	c-0.081-0.201-0.182-0.377-0.27-0.646c-0.051-0.152-0.515-1.617-0.609-2.367c-0.045-0.363,0.175-1.068-0.127-1.154
	c-0.279,0.098-0.492,0.804-0.86,0.804c-0.134,0-0.599-0.225-0.651-0.298c-0.094-0.121-0.232-0.36-0.273-0.581
	c-0.067-0.37-0.121-1.051-0.121-1.185c0-1.435,1.073-0.625,1.18-2.146l-0.161-5.068c0-1.213,0.906-2.166,1.247-3.52
	c0.062-0.254-0.014-0.744-0.014-0.878c0-2.909,1.474-5.035,4.424-5.243C139.624,13.075,140.945,12.894,141.079,12.894z
	 M151.056,8.764c0.134,0,0.212,0.022,0.332,0.109c0.063,0.059,0.077,0.089,0.074,0.157c-0.003,0.062-0.017,0.105-0.074,0.141
	c-0.538,0.173-1.807,1.877-1.914,2.195c-0.11,0.322-0.215,0.778-0.215,0.912c0,0.22,0.101,0.456,0.295,0.456
	c0.134,0,0.591-0.201,0.854-0.254c0.482-0.101,1.319-0.229,1.452-0.229c0.859,0,2.28,0.791,2.28,1.609
	c0,0.134-0.004,0.319-0.119,0.479c-0.11,0.153-0.396-0.276-0.561-0.359c-0.241-0.123-0.688-0.226-0.822-0.226
	c-1.3,0-1.454,0.858-2.359,0.858c-0.402,0-0.686-0.023-1.107-0.546c-0.214-0.262-0.131-0.723-0.305-1.078
	c-0.087-0.181-0.365-0.317-0.5-0.478c-0.127-0.154-0.267-0.386-0.327-0.6c-0.04-0.154-0.078-0.364-0.025-0.586
	c0.189-0.794,0.425-1.271,1.039-1.734C149.235,9.452,150.633,8.764,151.056,8.764z M137.353,8.12c0.133,0,0.349,0.053,0.482,0.053
	c0.133,0,0.771,0.272,1.06,0.447c0.241,0.147,0.499,0.387,0.8,0.5c0.396,0.154,1.145,0.287,1.278,0.287
	c0.234,0,1.643-0.268,1.662-0.268c0.55,0,1.765,0.782,2.147,1.298c0.127,0.174,0.186,0.552,0.186,0.687
	c0,0.133-0.053,0.509-0.053,0.644c0,0.248-0.322,0.644-0.564,0.644c-0.294,0-0.643-1.142-0.736-1.243
	c-0.49-0.55-2.019-1.332-2.803-1.332c-0.066,0-0.563,0.033-0.563,0.321c0,0.604,1.555,0.846,1.555,1.449
	c0,0.194-0.322,0.322-0.429,0.322c-0.37,0-1.312-0.78-1.485-0.847c-0.523-0.208-1.121-0.334-1.654-0.441
	c-0.648-0.015-0.75,0-0.799,0c-0.922,0.241-1.678,1.078-2.275,1.92c-0.15,0.212-0.143,0.708-0.276,0.708s-0.67-0.161-0.805-0.161
	c-1.14,0-1.575,0.791-1.575,1.797c0,0.281-0.141,0.6-0.328,0.822c-0.141,0.167-0.537,0.385-0.67,0.385
	c-0.391,0-0.646-0.295-0.646-0.509c0-0.134,0.017-0.241,0.055-0.375c0.036-0.129,0.335-0.7,0.555-0.982
	c0.952-1.207,2.269-2.28,3.696-3.031c0.234-0.121,0.611-0.101,0.859-0.215c0.135-0.061,1.11-0.713,1.11-1.028
	c0-0.134-0.249-0.351-0.405-0.404c0,0-1.594,0.071-1.731,0.046c-0.024-0.021-0.062-0.072-0.062-0.207
	c0-0.254,0.339-0.395,0.49-0.511C135.845,8.576,136.923,8.12,137.353,8.12z M171.576,55.807H4.75l0.083-1.345l111.424,0.136
	c0.107-6.449,7.152-7.505,14.613-11.419l-0.063-0.168c-0.061-0.759-2.756-4.494-2.788-5.417c-0.062-1.758,4.257-4.063,4.29-4.505
	c-0.311-0.411-0.625-0.826-0.898-1.265c-0.311-0.016-1.49,1.238-3.016,1.238c-3.826,0-3.68-4.568-2.092-6.945
	c-2.19-4.403,0.367-4.331,0.214-5.471c-0.156-1.165-0.487-2.047-0.483-3.285c0,0-0.026-0.667,0.07-0.91
	c0.447-1.123,1.396-0.761,1.379-2.134c-0.029-2.336,1.967-3.299,3.717-4.228c0.332-0.177,0.043-2.172,1.875-3.184
	c2.139-1.18,4.994-2.175,7.093-0.554c1.892-0.934,4.348-1.21,6.435-1.34c1.549-0.097,2.24,0.594,3.092,1.739l0.209,0.348
	c1.511-1.014,2.485-0.619,3.083,0.917c2.508-1.861,6.806,2.922,5.229,6.33l0.091,0.196c2.002,0.517,2.246,4.607,2.376,6.16
	c0.106,1.251-0.624,2.203-0.696,3.271c-0.01,0.137,0.212,0.284,0.298,0.356c0.926,0.771,1.174,0.916,1.472,2.112
	c0.311,1.247,0.244,2.918-0.562,4.018c-1.662,2.271-2.883,1.388-5.036,0.782c-0.216,0.292-0.862,1.16-0.892,1.476
	c6.534,3.354,5.29,2.949,2.552,9.236c-0.069,0.159-0.566,1.276-0.567,1.357c-0.003,0.079,0.163,0.156,0.214,0.186
	c1.183,0.687,9.326,3.876,11.717,5.952c2.035,1.77,2.354,4.426,2.402,5.154L171.576,55.807z"/>
</svg>
