<?xml version="1.0" encoding="utf-8"?>
<!-- Generator: Adobe Illustrator 16.0.0, SVG Export Plug-In . SVG Version: 6.00 Build 0)  -->
<!DOCTYPE svg PUBLIC "-//W3C//DTD SVG 1.1//EN" "http://www.w3.org/Graphics/SVG/1.1/DTD/svg11.dtd">
<svg version="1.1" id="Ebene_1" xmlns="http://www.w3.org/2000/svg" xmlns:xlink="http://www.w3.org/1999/xlink" x="0px" y="0px"
	 width="24px" height="24px" viewBox="244 244 24 24" enable-background="new 244 244 24 24" xml:space="preserve">
<title>Geomat_Icons_finalforms</title>
<path id="Black_Background" d="M256,246.909c5.021,0,9.091,4.07,9.091,9.091c0,5.021-4.07,9.091-9.091,9.091
	s-9.091-4.069-9.091-9.091C246.909,250.98,250.979,246.909,256,246.909 M256,246c-5.523,0-10,4.478-10,10c0,5.523,4.477,10,10,10
	c5.523,0,10-4.477,10-10C266,250.478,261.522,246,256,246z M256,262.095c-0.418,0-0.758-0.34-0.758-0.758v-6.643
	c0-0.418,0.339-0.757,0.758-0.757s0.758,0.338,0.758,0.757v6.643C256.758,261.755,256.418,262.095,256,262.095z M257.302,251.905
	c0.548-1.428,2.035-2.217,2.05-2.225l0.128-0.068l-0.141-0.033c-0.007-0.001-0.686-0.161-1.509-0.221
	c-1.111-0.083-1.942,0.043-2.471,0.374c-0.599,0.374-0.961,0.776-1.108,1.229c-0.12,0.369-0.101,0.776,0.062,1.281
	c0.148-0.159,0.33-0.326,0.538-0.499l0.232-1.242c0.005-0.029,0.034-0.049,0.063-0.043s0.049,0.034,0.043,0.063l-0.208,1.117
	c0.197-0.157,0.416-0.317,0.65-0.476l0.306-1.198c0.007-0.029,0.037-0.046,0.066-0.039s0.046,0.037,0.039,0.066l-0.276,1.081
	c0.165-0.108,0.336-0.216,0.515-0.322c0.009-0.005,0.018-0.01,0.026-0.015l0.453-1.042c0.012-0.028,0.044-0.04,0.071-0.028
	c0.027,0.011,0.04,0.043,0.027,0.071l-0.394,0.907c0.231-0.133,0.461-0.256,0.684-0.366l0.378-0.674
	c0.016-0.026,0.049-0.036,0.074-0.021c0.026,0.015,0.035,0.048,0.021,0.074l-0.302,0.538c0.618-0.294,1.178-0.488,1.59-0.544
	c0.029-0.005,0.057,0.016,0.061,0.045c0.004,0.03-0.017,0.057-0.047,0.061c-0.42,0.059-0.978,0.259-1.566,0.54l0.549,0.104
	c0.029,0.005,0.049,0.033,0.043,0.063c-0.005,0.029-0.033,0.049-0.063,0.043l-0.691-0.129c-0.224,0.11-0.449,0.231-0.673,0.36
	l0.908,0.127c0.03,0.004,0.051,0.032,0.047,0.061s-0.032,0.05-0.062,0.046l-1.044-0.146c-0.188,0.111-0.372,0.226-0.551,0.344
	l1.074,0.189c0.029,0.005,0.049,0.033,0.043,0.063c-0.005,0.029-0.032,0.049-0.063,0.044l-1.184-0.209
	c-0.239,0.162-0.465,0.328-0.671,0.493l1.242,0.309c0.029,0.007,0.047,0.037,0.04,0.066s-0.037,0.046-0.065,0.039l-1.321-0.329
	c-0.207,0.171-0.39,0.342-0.54,0.503c0.376,0.385,1.092,0.696,1.784,0.568C256.531,252.834,257.033,252.605,257.302,251.905z"/>
</svg>
