<?xml version="1.0" encoding="utf-8"?>
<!-- Generator: Adobe Illustrator 16.0.0, SVG Export Plug-In . SVG Version: 6.00 Build 0)  -->
<!DOCTYPE svg PUBLIC "-//W3C//DTD SVG 1.1//EN" "http://www.w3.org/Graphics/SVG/1.1/DTD/svg11.dtd">
<svg version="1.1" id="Ebene_1" xmlns="http://www.w3.org/2000/svg" xmlns:xlink="http://www.w3.org/1999/xlink" x="0px" y="0px"
	 width="24px" height="24px" viewBox="0 244 24 24" enable-background="new 0 244 24 24" xml:space="preserve">
<path d="M12,245.091c6.024,0,10.909,4.884,10.909,10.909c0,6.024-4.885,10.908-10.909,10.908c-6.025,0-10.909-4.884-10.909-10.908
	C1.091,249.975,5.975,245.091,12,245.091 M12,244c-6.628,0-12,5.372-12,12s5.372,12,12,12s12-5.372,12-12S18.628,244,12,244z
	 M19.013,252.363c-0.334-0.207-0.85-0.413-1.545-0.413c-0.759,0-1.34,0.374-1.34,0.953c0,0.67,0.645,0.915,1.611,1.236
	c1.184,0.387,2.099,0.876,2.099,2.035c0,0.67-0.323,1.159-0.838,1.558c0.219,0.182,0.489,0.605,0.489,1.133
	c0,1.354-1.249,1.934-2.446,1.934c-0.786,0-1.533-0.182-2.021-0.541l0.309-0.736c0.309,0.221,0.939,0.529,1.7,0.529
	c0.823,0,1.441-0.373,1.441-1.057c0-0.604-0.373-0.928-1.57-1.338c-1.327-0.453-2.241-0.928-2.241-2.034
	c0-0.49,0.258-1.07,0.94-1.508c-0.258-0.206-0.463-0.644-0.476-1.081c0-1.135,1.056-1.829,2.381-1.829
	c0.722,0,1.34,0.181,1.777,0.425L19.013,252.363z M16.94,256.702c0.656,0.23,1.172,0.424,1.469,0.617
	c0.321-0.232,0.488-0.592,0.488-0.991c0-0.49-0.309-0.901-1.146-1.197c-0.515-0.193-1.172-0.412-1.585-0.656
	c-0.411,0.296-0.592,0.618-0.592,1.005C15.575,255.943,15.924,256.328,16.94,256.702z M12.319,264.531v-17.36
	c0-0.176-0.143-0.319-0.319-0.319s-0.319,0.144-0.319,0.319v17.36c0,0.178,0.143,0.32,0.319,0.32S12.319,264.709,12.319,264.531z
	 M7,260.733c-0.433,0-0.783-0.351-0.783-0.781v-4.982c0-0.433,0.351-0.782,0.783-0.782c0.432,0,0.782,0.35,0.782,0.782v4.982
	C7.782,260.382,7.432,260.733,7,260.733z M6.999,251.58c-0.502,0-0.908,0.407-0.908,0.909s0.406,0.908,0.908,0.908
	s0.909-0.406,0.909-0.908S7.501,251.58,6.999,251.58z"/>
</svg>
