<?xml version="1.0" encoding="utf-8"?>
<!-- Generator: Adobe Illustrator 16.0.0, SVG Export Plug-In . SVG Version: 6.00 Build 0)  -->
<!DOCTYPE svg PUBLIC "-//W3C//DTD SVG 1.1//EN" "http://www.w3.org/Graphics/SVG/1.1/DTD/svg11.dtd">
<svg version="1.1" id="Ebene_1" xmlns="http://www.w3.org/2000/svg" xmlns:xlink="http://www.w3.org/1999/xlink" x="0px" y="0px"
	 width="24px" height="24px" viewBox="0 0 24 24" enable-background="new 0 0 24 24" xml:space="preserve">
<path d="M9.862,21.79v-2.455c0.771-0.098,1.371-0.756,1.371-1.555c0-0.863-0.703-1.566-1.568-1.566
	c-0.864,0-1.566,0.703-1.566,1.566c0,0.799,0.599,1.457,1.37,1.555v2.455c0,0.47,0.382,0.853,0.851,0.853h3.558v-0.394h-3.558
	C10.067,22.249,9.862,22.043,9.862,21.79z M8.491,17.78c0-0.647,0.527-1.174,1.174-1.174c0.648,0,1.175,0.526,1.175,1.174
	c0,0.646-0.527,1.175-1.175,1.175C9.018,18.955,8.491,18.427,8.491,17.78z M21.992,21.482h-7.097v-0.59h7.097V21.482z M14.896,22.15
	h4.908v0.59h-4.908V22.15z M14.896,23.41H24V24h-9.104V23.41z M7.953,0.59H0.857V0h7.096V0.59z M7.953,1.849H0v-0.59h7.954V1.849z
	 M1.56,3.108v-0.59h6.393v0.59H1.56z M15.941,5.9V2.209c0-0.471-0.381-0.852-0.851-0.852H8.955V1.75h6.136
	c0.253,0,0.458,0.206,0.458,0.459V5.9c-0.771,0.097-1.369,0.756-1.369,1.554c0,0.864,0.701,1.567,1.565,1.567
	c0.866,0,1.567-0.703,1.567-1.567C17.313,6.657,16.714,5.998,15.941,5.9z M15.745,8.628c-0.647,0-1.173-0.526-1.173-1.174
	s0.525-1.174,1.173-1.174s1.175,0.526,1.175,1.174S16.393,8.628,15.745,8.628z M3.18,17.566c0.009,0.012,0.019,0.022,0.029,0.032
	C3.198,17.589,3.188,17.578,3.18,17.566L3.18,17.566z M15.754,8.39c-0.079,0-0.156-0.011-0.228-0.029
	c-0.005-0.184-0.028-0.372-0.074-0.564c-0.011-0.043-0.004-0.088,0.021-0.126c0.024-0.038,0.061-0.064,0.104-0.074
	c0.01-0.004,0.026-0.005,0.038-0.005c0.077,0,0.145,0.052,0.163,0.127c0.054,0.227,0.08,0.45,0.082,0.666
	C15.825,8.387,15.789,8.39,15.754,8.39z M10.546,17.548c-0.258,0.117-0.531,0.236-0.818,0.354c0.11,0.174,0.331,0.255,0.455,0.255
	c0.103,0,0.208-0.003,0.315-0.006c-0.063,0.141-0.162,0.264-0.284,0.356c-0.01,0-0.02,0-0.031,0c-0.254,0-0.624-0.149-0.79-0.474
	c-0.169,0.066-0.343,0.132-0.521,0.196c-0.058-0.102-0.097-0.215-0.112-0.338c0.185-0.068,0.366-0.137,0.542-0.207
	c-0.02-0.349,0.168-0.516,0.324-0.651c0.054-0.047,0.112-0.099,0.171-0.155c0.133,0.02,0.257,0.066,0.365,0.138
	c-0.105,0.103-0.207,0.195-0.3,0.277c-0.1,0.088-0.164,0.153-0.192,0.241c0.249-0.103,0.488-0.206,0.717-0.309
	C10.46,17.319,10.515,17.43,10.546,17.548z M14.91,13.402c-0.235,0.734-0.638,1.426-1.194,2.057
	c0.862-0.219,2.541-0.835,3.197-2.412c0.035-0.084,0.139-0.125,0.221-0.09c0.083,0.036,0.123,0.134,0.087,0.219
	c-0.216,0.52-0.55,0.984-0.99,1.377c-0.354,0.32-0.781,0.595-1.266,0.82c-0.75,0.347-1.438,0.478-1.659,0.512
	c-0.348,0.329-1.012,0.785-1.949,1.27c-0.042-0.112-0.094-0.218-0.156-0.318c0.823-0.416,1.443-0.807,1.773-1.099
	c-0.242-0.213-0.64-0.641-0.911-1.341c-0.016-0.042-0.014-0.089,0.004-0.129c0.018-0.04,0.052-0.073,0.093-0.087
	c0.018-0.007,0.038-0.011,0.058-0.011c0.071,0,0.133,0.042,0.157,0.108c0.261,0.676,0.671,1.079,0.841,1.225
	c0.616-0.624,1.063-1.319,1.328-2.066c-0.218-0.034-0.535-0.11-0.906-0.281c-0.647-0.296-1.233-0.769-1.741-1.404
	c-0.028-0.033-0.041-0.078-0.036-0.123c0.005-0.045,0.027-0.085,0.063-0.112c0.063-0.051,0.175-0.042,0.232,0.026
	c0.485,0.607,1.043,1.054,1.66,1.328c0.367,0.164,0.663,0.222,0.831,0.243c0.203-0.724,0.241-1.485,0.11-2.263
	c-0.236-0.015-0.761-0.066-1.361-0.225c-0.925-0.242-1.644-0.633-2.138-1.16c-0.031-0.033-0.047-0.076-0.045-0.121
	c0.001-0.043,0.02-0.084,0.053-0.115c0.069-0.063,0.177-0.057,0.237,0.007c0.945,1.009,2.591,1.227,3.187,1.274
	c-0.187-0.82-0.557-1.629-1.101-2.408c-0.31,0.016-2.009,0.077-2.966-0.585c-0.037-0.024-0.063-0.064-0.069-0.108
	c-0.008-0.045,0.002-0.087,0.028-0.124c0.05-0.073,0.154-0.093,0.231-0.044c0.713,0.493,1.949,0.542,2.537,0.533
	c-0.857-1.115-2.025-2.114-3.301-2.82C10.012,4.934,9.983,4.9,9.97,4.857C9.958,4.811,9.962,4.768,9.984,4.729
	c0.043-0.078,0.151-0.109,0.228-0.064c1.279,0.707,2.457,1.705,3.333,2.819c0.021-0.415,0.008-1.05-0.2-1.535
	c-0.036-0.086,0.002-0.182,0.085-0.22c0.092-0.032,0.184,0.004,0.222,0.087c0.331,0.771,0.228,1.815,0.195,2.071
	c0.54,0.769,0.92,1.57,1.13,2.386c0.14-0.232,0.322-0.59,0.438-1.023c0.107,0.021,0.22,0.032,0.335,0.032
	c-0.185,0.724-0.546,1.269-0.673,1.448c0.133,0.74,0.121,1.47-0.032,2.175c0.557-0.421,1.572-1.396,1.572-2.899
	c0-0.093,0.075-0.167,0.169-0.167c0.091,0,0.166,0.075,0.166,0.167c0,0.904-0.329,1.74-0.977,2.484
	C15.534,12.996,15.069,13.304,14.91,13.402z M17.857,12.713c-0.47,3.946-3.909,5.395-6.511,5.72c0.045-0.117,0.079-0.24,0.1-0.367
	c2.466-0.344,5.627-1.735,6.063-5.394c0.179-1.513-0.133-2.78-0.621-3.792c0.096-0.078,0.184-0.166,0.263-0.262
	C17.694,9.699,18.054,11.067,17.857,12.713z M16.629,7.735c-0.038,0.129-0.105,0.247-0.192,0.345
	c-0.231-0.357-0.478-0.671-0.717-0.94c-0.137-0.154-0.281-0.303-0.43-0.447c0.112-0.066,0.239-0.11,0.375-0.123
	c0.108,0.109,0.215,0.222,0.317,0.337C16.197,7.148,16.418,7.425,16.629,7.735z M8.021,18.522c-0.603,0.195-1.249,0.38-1.936,0.545
	c-0.021,0.007-0.036,0.011-0.053,0.011c-0.068,0-0.13-0.044-0.156-0.105c-0.017-0.044-0.015-0.088,0.003-0.13
	c0.022-0.048,0.057-0.08,0.1-0.089c0.667-0.165,1.313-0.356,1.929-0.562C7.936,18.307,7.974,18.417,8.021,18.522z M8.429,3.991
	L8.413,3.817l0.172-0.018C8.8,3.778,9.022,3.766,9.247,3.766c1.936,0,4.033,0.805,5.661,2.119c-0.108,0.058-0.211,0.127-0.306,0.206
	c-1.553-1.226-3.529-1.973-5.355-1.973c-0.153,0-0.304,0.005-0.452,0.016c0.361,3.755,1.361,5.424,2.096,6.647
	c0.524,0.875,0.938,1.564,0.969,2.634c0.034,1.184-0.504,2.193-1.094,2.937c-0.094-0.072-0.194-0.134-0.301-0.188
	c0.562-0.698,1.075-1.641,1.043-2.739c-0.028-0.977-0.421-1.633-0.919-2.462C9.826,9.69,8.782,7.948,8.429,3.991z"/>
</svg>
