<?xml version="1.0" encoding="utf-8"?>
<!-- Generator: Adobe Illustrator 16.0.0, SVG Export Plug-In . SVG Version: 6.00 Build 0)  -->
<!DOCTYPE svg PUBLIC "-//W3C//DTD SVG 1.1//EN" "http://www.w3.org/Graphics/SVG/1.1/DTD/svg11.dtd">
<svg version="1.1" id="Ebene_1" xmlns="http://www.w3.org/2000/svg" xmlns:xlink="http://www.w3.org/1999/xlink" x="0px" y="0px"
	 width="800px" height="520px" viewBox="0 0 900 400" enable-background="new 0 0 900 400" xml:space="preserve">
<text transform="matrix(1 0 0 1 164.6726 354.1504)" opacity="0.4" enable-background="new    " font-family="'Roboto'" font-size="29">Leider haben wir zu dieser Pflanze kein Bild.</text>
<g id="XMLID_592_">
	<g id="XMLID_572_">
		<g id="XMLID_312_">
			<path id="XMLID_313_" fill="#1D1D1B" d="M424.034,94.62"/>
		</g>
	</g>
</g>
<g opacity="0.4">
	<path fill="#1D1D1B" d="M525.172,107.55c0-13.08-10.313-23.721-22.992-23.721H398.51c-12.837,0-23.682,10.863-23.682,23.721
		v103.668c0,12.656,10.624,22.953,23.682,22.953h103.668c12.893,0,22.992-10.082,22.992-22.953L525.172,107.55L525.172,107.55z
		 M521.647,211.218c0,10.714-8.733,19.431-19.469,19.431H398.51c-10.645,0-18.982-8.535-18.982-19.43V107.55
		c0-10.667,8.338-19.022,18.982-19.022h103.668c10.918,0,19.469,8.356,19.469,19.022V211.218L521.647,211.218z"/>
	<path fill="#1D1D1B" d="M386.574,189.538h126.852V97.924H386.574V189.538z M391.386,103.231h117.227v81H391.386V103.231z"/>
	<path d="M435.73,171.405c5.785-2.236,10.563-5.042,14.208-8.345c-1.091-1.001-2.72-2.858-3.851-5.788
		c-0.097-0.247-0.089-0.525,0.023-0.767c0.103-0.238,0.309-0.431,0.561-0.518c0.094-0.037,0.214-0.059,0.336-0.059
		c0.419,0,0.783,0.251,0.929,0.639c1.043,2.694,2.625,4.376,3.434,5.108c2.509-2.585,4.354-5.442,5.49-8.505
		c-0.954-0.171-2.246-0.516-3.738-1.199c-2.868-1.319-5.466-3.416-7.721-6.231c-0.162-0.198-0.241-0.467-0.208-0.732
		c0.028-0.263,0.161-0.503,0.377-0.666c0.363-0.295,1.039-0.249,1.372,0.158c2.104,2.633,4.517,4.568,7.179,5.753
		c1.433,0.638,2.609,0.903,3.354,1.013c0.813-3.012,0.965-6.169,0.452-9.396c-1.127-0.084-3.321-0.322-5.816-0.979
		c-4.1-1.076-7.295-2.813-9.494-5.164c-0.181-0.189-0.281-0.451-0.267-0.715c0.008-0.253,0.118-0.497,0.307-0.678
		c0.416-0.373,1.049-0.335,1.404,0.044c3.909,4.174,10.625,5.217,13.457,5.474c-0.828-3.404-2.382-6.767-4.629-10.01
		c-1.986,0.091-8.937,0.208-13.021-2.616c-0.217-0.145-0.371-0.382-0.413-0.644c-0.044-0.262,0.017-0.522,0.163-0.734
		c0.302-0.426,0.923-0.547,1.365-0.257c2.878,1.987,7.766,2.292,10.458,2.296c-3.703-4.699-8.664-8.896-14.073-11.886
		c-0.224-0.125-0.391-0.332-0.467-0.582c-0.074-0.273-0.044-0.529,0.078-0.759c0.259-0.47,0.896-0.65,1.358-0.383
		c5.423,2.998,10.44,7.188,14.253,11.883c0.038-1.755-0.1-4.098-0.885-5.931c-0.213-0.509,0.015-1.077,0.51-1.297
		c0.545-0.185,1.085,0.024,1.308,0.508c1.438,3.351,1.043,7.837,0.891,9.126c2.224,3.18,3.826,6.491,4.777,9.863
		c1.184-2.142,2.748-5.986,1.741-10.133c-0.063-0.262-0.018-0.529,0.123-0.753c0.14-0.224,0.357-0.379,0.613-0.438l0.226-0.026
		c0.458,0,0.852,0.308,0.964,0.749c1.521,6.287-2.015,11.874-3.046,13.329c0.525,3.003,0.518,5.971-0.023,8.846
		c2.47-2.007,6.251-6.066,6.251-12.084c0-0.545,0.443-0.99,0.991-0.99c0.546,0,0.988,0.444,0.988,0.99
		c0,4.03-1.461,7.753-4.349,11.065c-1.86,2.137-3.769,3.454-4.648,4.002c-0.973,2.979-2.555,5.793-4.719,8.385
		c3.896-1.109,10.407-3.86,13.049-10.209c0.211-0.498,0.819-0.741,1.303-0.53c0.498,0.209,0.734,0.791,0.524,1.292
		c-0.97,2.32-2.455,4.385-4.416,6.136c-1.573,1.416-3.462,2.638-5.614,3.632c-3.243,1.504-6.207,2.084-7.258,2.254
		c-3.903,3.718-9.097,6.846-15.441,9.301c0,0,0.704,1.197,1.222,1.193c12.587-0.098,31.046-5.818,33.295-24.732
		c2.889-24.327-22.265-40.046-39.813-38.231c2.547,28.581,13.182,30.171,13.506,41.419c0.27,9.444-6.675,12.81-8.933,16.464
		C435.064,170.43,435.73,171.405,435.73,171.405z"/>
</g>
<path opacity="0.4" fill="#C1272D" enable-background="new    " d="M450,29.119c-74.381,0-134.896,60.514-134.896,134.896
	c0,74.381,60.515,134.896,134.896,134.896c74.382,0,134.896-60.515,134.896-134.896C584.894,89.633,524.382,29.119,450,29.119z
	 M450,62.154c22.11,0,42.582,7.104,59.3,19.119l-142.04,142.04c-12.016-16.715-19.119-37.187-19.119-59.296
	C348.139,107.848,393.834,62.154,450,62.154z M450,265.874c-22.153,0-42.661-7.131-59.396-19.188l142.067-142.066
	c12.058,16.734,19.188,37.242,19.188,59.396C551.859,220.182,506.166,265.874,450,265.874z"/>
</svg>
