<?xml version="1.0" encoding="utf-8"?>
<!-- Generator: Adobe Illustrator 16.0.0, SVG Export Plug-In . SVG Version: 6.00 Build 0)  -->
<!DOCTYPE svg PUBLIC "-//W3C//DTD SVG 1.1//EN" "http://www.w3.org/Graphics/SVG/1.1/DTD/svg11.dtd">
<svg enable-background="new 244 244 24 24" height="24px" id="Ebene_1" version="1.1" viewBox="244 244 24 24"
     width="24px" x="0px" xml:space="preserve" xmlns="http://www.w3.org/2000/svg" y="0px">
<path d="M264,244h-16c-2.083,0-3.793,1.593-3.982,3.626H244V248v0.593V264c0,2.209,1.791,4,4,4h16c2.209,0,4-1.791,4-4v-16
	C268,245.791,266.209,244,264,244z M248,245h2.473v2.407c-0.017,0.135-0.138,0.232-0.273,0.22h-5.176
	C245.208,246.146,246.469,245,248,245z M267,264c0,1.657-1.343,3-3,3h-16c-1.657,0-3-1.343-3-3v-15.407h5.2c0.001,0,0.002,0,0.004,0
	c0.668,0.013,1.22-0.519,1.232-1.187V245H264c1.657,0,3,1.343,3,3V264z M255.97,250.484c-3.384,0.002-6.125,2.746-6.124,6.13
	s2.746,6.125,6.13,6.123c3.381-0.005,6.12-2.745,6.123-6.126c0-0.001,0-0.003,0-0.004
	C262.098,253.223,259.353,250.482,255.97,250.484z M261.099,256.616c-0.001,2.832-2.298,5.126-5.129,5.124s-5.125-2.299-5.124-5.13
	c0.002-2.832,2.299-5.125,5.13-5.124c2.828,0.003,5.12,2.295,5.123,5.124C261.099,256.613,261.099,256.615,261.099,256.616z
	 M258.84,256.144l1-0.124c0.021,0.164,0.03,0.328,0.03,0.494c0.004,2.19-1.77,3.97-3.96,3.973c-0.003,0-0.007,0-0.01,0
	c-0.155,0.001-0.31-0.01-0.463-0.029l0.117-1c1.627,0.189,3.101-0.977,3.291-2.604c0.013-0.113,0.02-0.227,0.02-0.34
	C258.864,256.39,258.856,256.266,258.84,256.144z M262.29,250.407c0,0.552-0.448,1-1,1c-0.553,0-1-0.448-1-1s0.447-1,1-1
	C261.842,249.407,262.29,249.855,262.29,250.407z"/>
</svg>
