<?xml version="1.0" encoding="utf-8"?>
<!-- Generator: Adobe Illustrator 16.0.0, SVG Export Plug-In . SVG Version: 6.00 Build 0)  -->
<!DOCTYPE svg PUBLIC "-//W3C//DTD SVG 1.1//EN" "http://www.w3.org/Graphics/SVG/1.1/DTD/svg11.dtd">
<svg enable-background="new 854 244 24 24" height="24px" id="Ebene_1" version="1.1" viewBox="854 244 24 24"
     width="24px" x="0px" xml:space="preserve" xmlns="http://www.w3.org/2000/svg" y="0px">
<path d="M875.786,246.717L878,244h-24l2.354,2.717H854l2.602,3.002H854L856.056,268h19.887L878,249.719h-2.447l2.447-3.002H875.786z
	 M856.282,245.05h19.515l-1.36,1.667h-16.712L856.282,245.05z M875.069,266.919H856.93l-1.876-16.171h21.891L875.069,266.919z
	 M857.971,249.719l-1.689-1.952h0.981h1.369h14.946h1.351h0.867l-1.594,1.952H857.971z M866.041,261.953l-4.994-8.643h9.906
	L866.041,261.953z M858.099,263.883H873.9l1.635-12.286h-19.07L858.099,263.883z M873.206,263.024h-14.412l-1.49-10.609h17.393
	L873.206,263.024z"/>
</svg>
