<?xml version="1.0" encoding="utf-8"?>
<!-- Generator: Adobe Illustrator 16.0.0, SVG Export Plug-In . SVG Version: 6.00 Build 0)  -->
<!DOCTYPE svg PUBLIC "-//W3C//DTD SVG 1.1//EN" "http://www.w3.org/Graphics/SVG/1.1/DTD/svg11.dtd">
<svg enable-background="new 0 244 24 24" height="24px" id="Ebene_1" version="1.1" viewBox="0 244 24 24"
     width="24px" x="0px" xml:space="preserve" xmlns="http://www.w3.org/2000/svg" y="0px">
<path d="M20,244H4c-2.209,0-4,1.791-4,4v16c0,2.209,1.791,4,4,4h16c2.209,0,4-1.791,4-4v-16C24,245.791,22.209,244,20,244z M23,264
	c0,1.657-1.343,3-3,3H4c-1.657,0-3-1.343-3-3v-0.767h2.244c0.251,0.17,0.791,0.502,0.933,0.62c0.157,0.13,0.653,0.576,0.823,0.736
	l0.14,0.137h13.527h0.229l0.146-0.153c0.266-0.283,0.546-0.551,0.841-0.804c0.32-0.195,0.651-0.373,0.99-0.536H23V264z
	 M18.967,263.234c-0.175,0.158-0.345,0.322-0.507,0.493H5.533c-0.138-0.133-0.36-0.335-0.544-0.493H18.967z M5.033,262.234
	c0.182-0.166,0.388-0.361,0.523-0.493h12.937c0.14,0.131,0.354,0.328,0.545,0.493H5.033z M23,262.234h-2.113
	c-0.339-0.181-0.817-0.453-0.963-0.566c-0.164-0.127-0.634-0.551-0.891-0.794l-0.146-0.137H5.153l-0.146,0.144
	c-0.18,0.174-0.677,0.657-0.874,0.807c-0.154,0.117-0.547,0.375-0.813,0.547H1v-3.797h2.243c0.25,0.172,0.792,0.499,0.934,0.62
	c0.157,0.134,0.653,0.577,0.823,0.736l0.14,0.137h13.527h0.229l0.146-0.153c0.266-0.282,0.546-0.551,0.841-0.803
	c0.321-0.194,0.652-0.373,0.99-0.537H23V262.234z M18.969,258.437c-0.176,0.158-0.346,0.322-0.509,0.493H5.533
	c-0.138-0.134-0.363-0.336-0.547-0.493H18.969z M5.035,257.437c0.182-0.165,0.386-0.362,0.521-0.493h12.937
	c0.14,0.131,0.354,0.327,0.544,0.493H5.035z M23,257.437h-2.124c-0.336-0.175-0.802-0.441-0.949-0.554
	c-0.167-0.126-0.637-0.549-0.894-0.793l-0.146-0.137H5.153l-0.146,0.144c-0.18,0.177-0.677,0.656-0.874,0.807
	c-0.15,0.114-0.527,0.361-0.793,0.533H1V248c0-1.657,1.343-3,3-3h16c1.657,0,3,1.343,3,3V257.437z M12.757,253.74
	c0,0.448-0.364,0.812-0.812,0.812c-0.448,0-0.812-0.363-0.812-0.812c0-0.448,0.363-0.811,0.812-0.811
	C12.393,252.929,12.757,253.293,12.757,253.74z M9.829,246.719h4.872v3.996h-2.112v1.241h-1.288v-2.528h2.112v-1.421H9.829V246.719z
	"/>
</svg>
