<?xml version="1.0" encoding="utf-8"?>
<!-- Generator: Adobe Illustrator 16.0.0, SVG Export Plug-In . SVG Version: 6.00 Build 0)  -->
<!DOCTYPE svg PUBLIC "-//W3C//DTD SVG 1.1//EN" "http://www.w3.org/Graphics/SVG/1.1/DTD/svg11.dtd">
<svg version="1.1" id="Ebene_1" xmlns="http://www.w3.org/2000/svg" xmlns:xlink="http://www.w3.org/1999/xlink" x="0px" y="0px"
	 width="900px" height="400px" viewBox="0 0 900 400" enable-background="new 0 0 900 400" xml:space="preserve">
<text transform="matrix(1 0 0 1 178.3728 354.1504)" opacity="0.4" enable-background="new" font-family="'Roboto'" font-size="29">Leider haben wir zu dieser Pflanze kein Bild.</text>
<g id="XMLID_592_">
	<g id="XMLID_572_">
		<g id="XMLID_312_">
			<path id="XMLID_313_" fill="#1D1D1B" d="M424.034,94.62"/>
		</g>
	</g>
</g>
<g>
	<path opacity="0.4" fill="#C1272D" enable-background="new    " d="M450,29.515c-74.162,0-134.5,60.338-134.5,134.5
		c0,74.163,60.338,134.5,134.5,134.5c74.163,0,134.5-60.338,134.5-134.5C584.5,89.854,524.163,29.515,450,29.515z M450,62.452
		c22.044,0,42.457,7.082,59.126,19.062L367.503,223.137c-11.981-16.664-19.063-37.078-19.063-59.122
		C348.44,108.016,394.001,62.452,450,62.452z M450,265.574c-22.088,0-42.536-7.109-59.22-19.133l141.646-141.649
		c12.023,16.687,19.134,37.133,19.134,59.223C551.559,220.016,506.001,265.574,450,265.574z"/>
</g>
<g opacity="0.4">
	<path fill="#1D1D1B" d="M525.5,112.341c0-13.137-10.357-23.824-23.092-23.824H398.286c-12.893,0-23.786,10.91-23.786,23.824v104.12
		c0,12.712,10.671,23.054,23.786,23.054h104.119c12.95,0,23.094-10.126,23.094-23.054L525.5,112.341L525.5,112.341z M521.96,216.461
		c0,10.761-8.771,19.516-19.555,19.516H398.286c-10.692,0-19.065-8.572-19.065-19.515V112.341c0-10.713,8.374-19.104,19.065-19.104
		h104.119c10.967,0,19.555,8.393,19.555,19.104V216.461L521.96,216.461z"/>
	<path fill="#1D1D1B" d="M386.298,194.687h127.405v-92.014H386.298V194.687z M391.131,108.003h117.738v81.354H391.131V108.003z"/>
	<path d="M481.79,151.798c-0.062-0.505-0.136-1.008-0.203-1.502c-0.355-2.474-0.688-4.804-0.146-7.044
		c0.135-0.562-0.114-1.151-0.611-1.44c-0.372-0.226-0.835-0.237-1.22-0.057c-0.123,0.057-0.226,0.128-0.333,0.226
		c-1.187,1.099-2.514,2.214-4.005,2.921c-0.542,0.254-1.355,0.502-1.926,0.699c0.593-1.847,0.938-4.05,0.582-5.92
		c-0.69-3.609-3.08-6.512-5.084-8.644c-1.988-2.113-3.864-4.565-5.559-7.295c-0.362-0.567-1.085-0.769-1.672-0.492
		c-0.046,0.017-0.096,0.045-0.136,0.077c-0.202,0.127-0.36,0.299-0.463,0.497c-0.327,0.365-1.052,1.204-1.463,2.633l-0.028,0.11
		c-0.192,0.675-0.396,1.375-0.52,2.122c-0.475,2.753,0.383,5.216,0.836,7.871c0.231,1.355,0.305,2.222,0.057,3.194
		c-0.3,1.203-1.164,3.078-2.927,2.788c-0.752-0.122-0.977-0.838-0.988-1.282c-0.029-0.744,0.773-3.333,0.938-3.982
		c0.474-1.816,0.694-3.765,0.581-5.759c-0.079-1.417-0.43-3.078-1.435-4.68c-0.604-0.972-1.585-2.35-3.342-3.183
		c-0.36-0.173-1.802-0.271-1.808-0.111c-0.039,0.591,0.294,0.887,0.385,1.622c0.097,0.827,0.118,1.502-0.294,2.4
		c-0.073,0.144-0.142,0.347-0.283,0.409c-0.011,0.007-0.033,0.012-0.056,0.018c-0.508,0.158-1.197-0.294-1.672-0.762
		c-0.74-0.734-1.345-1.629-1.983-2.579c-0.843-1.24-1.699-2.528-2.955-3.553c-1.275-1.051-2.813-1.695-4.168-2.273
		c-0.486-0.2-1.411-0.625-2.294-1.034c-0.542-0.242-1.084-0.498-1.548-0.705c-0.248-0.167-0.547-0.255-0.851-0.232
		c-0.153,0.012-0.312,0.051-0.441,0.116h-0.005l0,0c-0.007,0-0.007,0-0.012,0.005c0,0,0,0-0.005,0l0,0c0,0-0.005,0-0.011,0.005
		c-0.131,0.071-0.26,0.156-0.367,0.266c-0.215,0.221-0.351,0.508-0.368,0.805c-0.141,0.491-0.299,1.082-0.451,1.649
		c-0.255,0.946-0.515,1.921-0.661,2.417c-0.43,1.41-0.905,3.008-0.916,4.661c0,1.621,0.429,3.106,0.853,4.541
		c0.322,1.094,0.628,2.136,0.718,3.174c0.068,0.667-0.033,1.483-0.475,1.777c-0.016,0.005-0.034,0.017-0.045,0.022
		c-0.134,0.071-0.35-0.005-0.496-0.045c-0.955-0.254-1.469-0.706-2.034-1.308c-0.514-0.536-0.532-0.983-1.005-1.331
		c-0.135-0.093-0.978,1.077-1.073,1.463c-0.475,1.881-0.045,3.517,0.317,4.609c0.599,1.794,1.649,3.125,2.688,4.09
		c1.469,1.362,3.101,2.437,4.801,3.228c0.61,0.285,3.112,1.325,3.672,1.811c0.327,0.302,0.734,0.925,0.356,1.584
		c-0.905,1.54-2.904,1.014-4.021,0.475c-0.899-0.426-1.526-1.034-2.42-2.077c-1.755-2.047-3.106-4.272-5.529-5.668
		c-0.644-0.375-1.322-0.671-1.96-0.955l-0.106-0.045c-1.362-0.595-2.463-0.567-2.949-0.556c-0.226-0.045-0.463-0.034-0.689,0.04
		c-0.045,0.02-0.102,0.037-0.147,0.059c-0.586,0.277-0.892,0.967-0.682,1.602c1.022,3.05,1.71,6.055,2.062,8.93
		c0.366,2.896,1.079,6.603,3.411,9.438c1.214,1.464,3.129,2.599,4.932,3.328c-0.508,0.316-1.226,0.785-1.769,1.045
		c-1.502,0.706-3.208,1.005-4.807,1.219c-0.13,0.018-0.265,0.057-0.379,0.113c-0.384,0.181-0.667,0.542-0.734,0.977
		c-0.096,0.571,0.193,1.141,0.711,1.39c2.068,1.017,3.661,2.768,5.333,4.609c0.333,0.368,0.673,0.746,1.016,1.113
		c1.328,1.418,2.492,2.44,3.679,3.236c1.587,1.062,3.168,1.649,4.812,1.807c1.666,0.147,3.417-0.181,5.078-0.96
		c1.242-0.586,2.417-1.412,3.394-2.407c1.898-1.92,3.281-4.519,4.107-7.71c0.068-0.265,0.124-0.536,0.191-0.785
		c0.228-0.949,0.452-1.469,0.588-2.299c0.092-0.091,0.615-2.926,2.776-2.022c-0.384-0.71-0.757-1.429-1.085-2.158
		c-0.158-0.327-0.299-0.643-0.437-0.966c-0.057,0.012-0.108,0.024-0.154,0.028c-0.016,0-0.038,0-0.049,0
		c-2.294,0.074-4.599,0.022-6.887-0.214c-2.289-0.238-4.569-0.649-6.778-1.327c-2.209-0.671-4.35-1.621-6.275-2.914
		c-0.972-0.651-1.876-1.385-2.701-2.193c-0.825-0.807-1.57-1.695-2.214-2.644c-0.107-0.147-0.069-0.353,0.079-0.457
		c0.147-0.099,0.339-0.063,0.441,0.076l0,0c0.666,0.884,1.422,1.697,2.249,2.432c0.823,0.734,1.715,1.383,2.66,1.955
		c1.892,1.129,3.971,1.937,6.106,2.479c2.134,0.542,4.338,0.848,6.552,0.96c2.039,0.113,4.09,0.074,6.13-0.073l-0.345-0.762
		l-3.215-7.199l-1.745-3.881c-0.08,0.022-0.17,0.04-0.266,0.04c-0.017,0-0.04,0-0.051,0l-0.531-0.035l-0.259-0.016l-0.26-0.025
		l-0.53-0.063l-0.52-0.082c-0.09-0.011-0.169-0.022-0.255-0.039l-0.259-0.054c-0.17-0.035-0.345-0.063-0.513-0.103
		c-0.34-0.082-0.679-0.152-1.017-0.249c-0.339-0.087-0.667-0.197-0.994-0.296c-0.17-0.057-0.333-0.116-0.497-0.172l-0.249-0.088
		l-0.237-0.092c-0.645-0.243-1.277-0.52-1.899-0.817c-0.157-0.073-0.31-0.145-0.463-0.223l-0.463-0.231
		c-0.294-0.17-0.599-0.325-0.893-0.497c-0.587-0.342-1.175-0.706-1.74-1.082c-0.565-0.384-1.117-0.782-1.66-1.197
		c-0.272-0.21-0.531-0.424-0.791-0.644c-0.136-0.111-0.26-0.221-0.39-0.328c-0.063-0.06-0.13-0.115-0.192-0.174
		c-0.063-0.063-0.107-0.134-0.129-0.255c-0.012-0.155,0.095-0.302,0.246-0.318c0.012,0,0.012,0,0.024,0h0.021
		c0.114-0.007,0.193,0.024,0.26,0.076l0.193,0.15c0.129,0.099,0.271,0.197,0.394,0.296c0.272,0.189,0.543,0.375,0.827,0.56
		c0.553,0.364,1.117,0.711,1.693,1.037c1.153,0.64,2.339,1.214,3.56,1.694c0.61,0.242,1.23,0.462,1.853,0.646l0.231,0.077
		l0.237,0.062c0.153,0.043,0.311,0.088,0.469,0.13c0.316,0.073,0.622,0.156,0.949,0.218c1.096,0.243,2.225,0.364,3.339,0.401
		l-0.718-1.605l-3.243-7.176l-1.638-3.593l-1.625-3.586c-1.085-2.39-2.182-4.776-3.282-7.16c-0.086-0.192-0.006-0.404,0.18-0.491
		c0.187-0.088,0.4-0.006,0.492,0.178l0,0c1.096,2.384,2.219,4.762,3.331,7.14l1.674,3.567l1.683,3.559l3.367,7.12l0.7,1.452
		c0.605-0.811,1.164-1.672,1.638-2.582c0.153-0.282,0.295-0.576,0.436-0.866c0.072-0.151,0.136-0.295,0.197-0.447l0.103-0.223
		l0.101-0.226c0.256-0.602,0.475-1.215,0.679-1.842c0.405-1.249,0.723-2.527,0.96-3.828c0.119-0.649,0.215-1.308,0.283-1.962
		c0.038-0.329,0.067-0.659,0.09-0.988c0.022-0.167,0.022-0.332,0.035-0.492l0.011-0.249c0.011-0.082,0.033-0.162,0.111-0.244
		l0.018-0.016c0.107-0.116,0.288-0.122,0.4-0.006c0,0,0.012,0.006,0.012,0.012c0.085,0.087,0.107,0.172,0.119,0.254
		c0,0.087,0.006,0.167,0.011,0.254c0,0.169,0.006,0.341,0.006,0.508c0,0.342-0.006,0.684-0.017,1.021
		c-0.022,0.68-0.067,1.357-0.131,2.042c-0.066,0.675-0.157,1.352-0.282,2.03c-0.056,0.339-0.118,0.675-0.191,1.012l-0.113,0.502
		c-0.033,0.17-0.078,0.337-0.124,0.497c-0.163,0.667-0.361,1.325-0.593,1.98l-0.078,0.254l-0.098,0.243
		c-0.062,0.161-0.119,0.324-0.181,0.486c-0.13,0.325-0.26,0.641-0.401,0.965c-0.141,0.32-0.299,0.625-0.452,0.944
		c-0.079,0.155-0.163,0.305-0.248,0.463l-0.13,0.231c-0.033,0.073-0.079,0.151-0.124,0.223l-0.277,0.441l-0.289,0.44l-0.14,0.226
		l-0.153,0.212l-0.317,0.43c-0.01,0.017-0.021,0.033-0.039,0.05l1.87,3.912l3.4,7.104l0.348,0.717
		c1.384-1.452,2.7-2.977,3.886-4.593c1.328-1.779,2.508-3.663,3.451-5.657c0.944-1.997,1.644-4.1,1.982-6.283
		c0.159-1.088,0.233-2.193,0.193-3.297c-0.047-1.104-0.187-2.197-0.441-3.279l0,0c-0.039-0.175,0.068-0.353,0.243-0.393
		c0.164-0.043,0.345,0.063,0.39,0.231c0.316,1.104,0.525,2.243,0.615,3.395c0.097,1.149,0.084,2.313-0.038,3.462
		c-0.232,2.311-0.871,4.559-1.764,6.688c-0.88,2.136-2.022,4.154-3.298,6.07c-1.288,1.914-2.712,3.722-4.226,5.434
		c-0.034,0.039-0.067,0.068-0.103,0.096L456,160.57c0.141,0.299,0.282,0.587,0.429,0.875c0.576,1.125,0.474,0.978,1.152,2.034
		c0,0,0.005,0.045,0.017,0.113l0,0c0,0.017,0,0.028,0,0.05c0.006,0.101,0,0.237-0.027,0.379c-0.046,0.197-0.125,0.406-0.328,0.531
		c-0.282,0.158-0.587,0.084-0.803,0c-0.123-0.056-0.221-0.107-0.231-0.12l-0.012-0.005c0.019,0.035,0.029,0.051,0.052,0.085
		c0.011,0.034,0.022,0.056,0.046,0.097l0,0c0.236,0.422,0.412,0.728,0.615,1.072c0.694,1.153,1.44,2.288,2.276,3.36
		c0.835,1.074,1.739,2.09,2.756,3.029c1.005,0.943,2.101,1.796,3.311,2.529c0.312,0.181,0.61,0.352,0.927,0.509
		c0.322,0.169,0.638,0.322,0.971,0.462c0.339,0.142,0.679,0.271,1.028,0.386c0.125,0.044,0.237,0.077,0.361,0.112
		c0.227,0.146,0.508,0.226,0.791,0.214l0.058-0.011h0.049h0.04c0.022,0,0.045,0,0.103-0.011c-1.04,0.355,2.146-0.062,0.418-2.452
		c-0.237-0.119-0.204-0.085-0.26-0.106c-0.029,0-0.045-0.012-0.058-0.012l-0.027-0.012l-0.085-0.016h-0.058
		c-0.056-0.012-0.106-0.023-0.157-0.034c-0.022,0.011-0.057,0.022-0.09,0.034c-0.034,0-0.063,0-0.096,0.011
		c-0.029,0-0.063,0.005-0.085,0.005c0.056-0.028,0.107-0.05,0.151-0.073c-0.118-0.022-0.236-0.045-0.366-0.073
		c-0.271-0.068-0.554-0.151-0.842-0.243c-0.282-0.102-0.56-0.203-0.842-0.322c-0.281-0.118-0.554-0.249-0.824-0.39
		c-1.085-0.548-2.112-1.254-3.073-2.045c-0.96-0.802-1.854-1.705-2.678-2.665c-0.824-0.967-1.581-1.995-2.281-3.068
		c-0.011-0.022-0.621-1.08-0.724-1.254c0.7-2.169,3.073-0.739,3.21-0.758c0.732,0.44,1.275,0.593,2.14,1.024
		c0.236,0.112,0.479,0.235,0.729,0.35c2.993,1.407,5.874,1.994,8.552,1.761c1.39-0.117,2.779-0.491,4.022-1.078
		c1.66-0.778,3.033-1.92,3.982-3.298c0.931-1.361,1.479-2.955,1.677-4.857C482.084,155.266,482.04,153.718,481.79,151.798z"/>
</g>
</svg>
