<?xml version="1.0" encoding="utf-8"?>
<!-- Generator: Adobe Illustrator 16.0.0, SVG Export Plug-In . SVG Version: 6.00 Build 0)  -->
<!DOCTYPE svg PUBLIC "-//W3C//DTD SVG 1.1//EN" "http://www.w3.org/Graphics/SVG/1.1/DTD/svg11.dtd">
<svg version="1.1" id="Ebene_1" xmlns="http://www.w3.org/2000/svg" xmlns:xlink="http://www.w3.org/1999/xlink" x="0px" y="0px"
	 width="40px" height="40px" viewBox="0 0 40 40" enable-background="new 0 0 40 40" xml:space="preserve">
<path fill="#477F20" d="M20,0C8.972,0,0,8.972,0,20s8.972,20,20,20s20-8.972,20-20S31.028,0,20,0z M20,38.767
	C9.652,38.767,1.233,30.348,1.233,20S9.652,1.233,20,1.233S38.767,9.652,38.767,20S30.348,38.767,20,38.767z M15.37,4.415
	c1.196,13.411,6.184,14.155,6.336,19.434c0.137,4.768-3.998,6.614-4.788,8.472c0,0-1.972,0.719-4.033,1.024
	c-0.646-4.526,0.713-20.489,0.886-30.064c-1.044,0.39-2.043,0.875-2.985,1.446c0.003,8.623-0.641,20.376-0.819,20.239
	c-0.256-0.197-0.913-0.89-1.124-1.225c0.185-0.416,0.366-1.463-0.46-2.296s-2.064-1.41-2.298-2.875c-0.993,0.82-1.121,2.867,0,4.674
	c1.121,1.807,1.566,1.153,2.193,1.19c0.471,0.249,1.553,1.354,1.651,1.821c0.06,0.281,0.004,4.318,0.064,8.508
	c0.899,0.611,1.857,1.142,2.863,1.583c0.046-0.416,0.096-0.808,0.14-1.095c2.828-0.507,4.718-1.303,4.718-1.303
	c5.894,0.182,15.236-2.355,16.334-11.594C35.405,10.938,23.604,3.564,15.37,4.415z M33.076,23.335
	c-0.808,1.941-2.366,3.458-4.634,4.508c-1.591,0.737-3.038,0.996-3.411,1.053c-1.821,1.744-4.253,3.213-7.23,4.366
	c-0.038,0.014-0.076,0.021-0.115,0.021c-0.133,0-0.25-0.08-0.297-0.204c-0.031-0.079-0.028-0.166,0.006-0.243
	c0.034-0.078,0.097-0.138,0.176-0.168c2.794-1.082,5.09-2.444,6.829-4.052c-0.453-0.392-1.313-1.28-1.887-2.766
	c-0.031-0.08-0.029-0.166,0.006-0.244c0.034-0.078,0.097-0.137,0.177-0.168c0.035-0.014,0.074-0.021,0.115-0.021
	c0.13,0,0.25,0.082,0.297,0.204c0.542,1.403,1.38,2.23,1.754,2.548c1.29-1.303,2.22-2.75,2.768-4.308
	c-0.913-0.137-3.291-0.747-5.46-3.459c-0.053-0.066-0.078-0.149-0.068-0.234c0.009-0.084,0.051-0.16,0.117-0.213
	c0.058-0.045,0.127-0.07,0.199-0.07c0.097,0,0.188,0.043,0.249,0.119c2.136,2.67,4.4,3.156,5.16,3.244
	c0.427-1.511,0.505-3.093,0.23-4.708c-1.003-0.066-4.983-0.473-7.202-2.843c-0.12-0.128-0.113-0.33,0.015-0.45
	c0.059-0.055,0.136-0.086,0.217-0.086c0.087,0,0.172,0.037,0.232,0.1c1.959,2.093,5.397,2.539,6.609,2.632
	c-0.388-1.709-1.156-3.393-2.287-5.009c-0.169,0.009-0.446,0.02-0.795,0.02c-1.323,0-3.772-0.158-5.304-1.216
	c-0.145-0.1-0.181-0.299-0.081-0.443c0.06-0.086,0.157-0.138,0.262-0.138c0.064,0,0.127,0.02,0.181,0.056
	c1.496,1.034,4.108,1.118,5.28,1.098c-1.768-2.316-4.177-4.381-6.827-5.847c-0.075-0.041-0.128-0.109-0.152-0.19
	c-0.024-0.082-0.014-0.168,0.027-0.243c0.056-0.101,0.163-0.164,0.279-0.164c0.054,0,0.107,0.014,0.154,0.04
	c2.659,1.47,5.085,3.532,6.893,5.848c0.046-0.839,0.031-2.204-0.411-3.236c-0.069-0.161,0.005-0.348,0.167-0.418
	c0.166-0.069,0.352,0.011,0.419,0.167c0.675,1.575,0.476,3.659,0.399,4.257c1.126,1.6,1.913,3.267,2.343,4.964
	c0.596-0.977,1.539-2.972,1.009-5.163c-0.02-0.083-0.006-0.168,0.038-0.241c0.044-0.072,0.114-0.124,0.197-0.143
	c0.024-0.006,0.049-0.009,0.075-0.009c0.147,0,0.275,0.101,0.31,0.244c0.719,2.969-1.029,5.613-1.44,6.181
	c0.279,1.549,0.252,3.075-0.08,4.545c1.178-0.876,3.303-2.893,3.303-6.03c0-0.175,0.143-0.318,0.318-0.318s0.318,0.143,0.318,0.318
	c0,4.209-3.503,6.552-4.199,6.976c-0.496,1.542-1.339,2.981-2.509,4.291c1.684-0.416,5.292-1.673,6.675-4.997
	c0.05-0.119,0.165-0.196,0.294-0.196c0.042,0,0.084,0.008,0.123,0.025c0.077,0.032,0.139,0.093,0.171,0.172
	C33.109,23.17,33.109,23.257,33.076,23.335z"/>
</svg>
