<?xml version="1.0" encoding="utf-8"?>
<!-- Generator: Adobe Illustrator 16.0.0, SVG Export Plug-In . SVG Version: 6.00 Build 0)  -->
<!DOCTYPE svg PUBLIC "-//W3C//DTD SVG 1.1//EN" "http://www.w3.org/Graphics/SVG/1.1/DTD/svg11.dtd">
<svg version="1.1" id="Ebene_1" xmlns="http://www.w3.org/2000/svg" xmlns:xlink="http://www.w3.org/1999/xlink" x="0px" y="0px"
	 width="24px" height="24px" viewBox="0 0 24 24" enable-background="new 0 0 24 24" xml:space="preserve">
<g>
	<g>
		<rect x="7.027" y="17.903" width="11.019" height="0.462"/>
		<path d="M21.926,3.83c0-2.112-1.719-3.83-3.83-3.83H5.904c-2.112,0-3.83,1.718-3.83,3.83v16.34c0,2.111,1.718,3.83,3.83,3.83
			h12.191c2.111,0,3.83-1.719,3.83-3.83V3.83z M21.416,20.17c0,1.83-1.489,3.319-3.32,3.319H5.904c-1.83,0-3.319-1.489-3.319-3.319
			V3.83c0-1.83,1.489-3.319,3.319-3.319h12.191c1.831,0,3.32,1.489,3.32,3.319V20.17z"/>
		<circle cx="5.646" cy="18.135" r="0.512"/>
		<rect x="7.027" y="19.31" width="10.331" height="0.462"/>
		<circle cx="5.646" cy="19.541" r="0.512"/>
		<rect x="7.027" y="20.716" width="11.894" height="0.462"/>
		<circle cx="5.646" cy="20.947" r="0.512"/>
	</g>
	<path d="M15.994,7.605c-0.123-0.274-0.269-0.515-0.43-0.708c-0.011-0.036-0.046-0.198,0.056-0.379
		c0.074-0.132,0.112-0.207,0.445-0.706c0.853-1.272,0.195-3.446-0.527-3.261c-0.726,0.186-1.73,0.982-1.73,0.982v0.001
		c0.172-0.695,0.488-1.117,0.874-1.347c0.449-0.27,0-0.337,0-0.337H9.318c0,0-0.451,0.067,0,0.337
		c0.385,0.229,0.702,0.652,0.873,1.347V3.533c0,0-1.004-0.797-1.729-0.982c-0.724-0.185-1.38,1.988-0.528,3.261
		c0.334,0.5,0.373,0.574,0.446,0.706C8.482,6.7,8.446,6.865,8.436,6.897c-0.623,0.742-1.01,2.187-0.688,3.541
		c0.337,1.414,2.694,4.849,2.694,4.849s1.095,1.65,1.559,1.65c0.371,0,1.146-1.057,1.438-1.479c0.075-0.105,0.119-0.171,0.119-0.171
		L12.8,14.08l-0.236-1.717l1.583-1.23L14.45,8.54L15.994,7.605z M9.318,6.257C9.288,6.271,9.258,6.286,9.227,6.302l0.001-0.001
		c0,0-0.52,0.076-0.896-0.583c-0.568-0.99-0.146-2.566,0.393-2.428c0.539,0.138,1.633,1.221,1.671,1.483
		c0.091,0.601,0.163,1.083,0.163,1.083S9.933,5.966,9.318,6.257z M13.439,5.857c0,0,0.074-0.482,0.164-1.083
		c0.037-0.262,1.133-1.346,1.672-1.483c0.538-0.139,0.96,1.438,0.394,2.428c-0.378,0.659-0.897,0.583-0.897,0.583l0.002,0.001
		c-0.031-0.016-0.063-0.03-0.092-0.045C14.067,5.966,13.439,5.857,13.439,5.857z"/>
</g>
</svg>
