<?xml version="1.0" encoding="utf-8"?>
<!-- Generator: Adobe Illustrator 16.0.0, SVG Export Plug-In . SVG Version: 6.00 Build 0)  -->
<!DOCTYPE svg PUBLIC "-//W3C//DTD SVG 1.1//EN" "http://www.w3.org/Graphics/SVG/1.1/DTD/svg11.dtd">
<svg version="1.1" id="Ebene_1" xmlns="http://www.w3.org/2000/svg" xmlns:xlink="http://www.w3.org/1999/xlink" x="0px" y="0px"
	 width="24px" height="24px" viewBox="0 0 24 24" enable-background="new 0 0 24 24" xml:space="preserve">
<path d="M14.878,6.657c-0.155-0.291-0.354-0.469-0.574-0.413c-0.046,0.012-0.102,0.042-0.153,0.063
	c-0.068-0.113-0.118-0.237-0.118-0.378c0-0.195,0.079-0.369,0.201-0.502c0.142-0.06,0.28-0.111,0.411-0.145
	c0.329-0.084,0.646,0.211,0.874,0.695C15.494,6.332,15.226,6.609,14.878,6.657z M15.813,7.009c0.114,0.823,0.009,1.784-0.481,2.516
	c-0.435,0.649-0.483,0.746-0.58,0.917c-0.133,0.235-0.087,0.448-0.074,0.494c0.212,0.251,0.401,0.564,0.561,0.922l-2.008,1.215
	l-0.205,1.75c-0.143-0.046-0.293-0.077-0.452-0.077c-0.826,0-1.498,0.672-1.498,1.498c0,0.463,0.215,0.872,0.545,1.146l-0.844,0.656
	l0.307,2.234l0.984,1.571c0,0-0.057,0.087-0.153,0.224C11.531,22.627,10.524,24,10.042,24c-0.604,0-2.026-2.147-2.026-2.147
	s-3.067-4.47-3.505-6.31c-0.419-1.76,0.084-3.64,0.896-4.605c0.012-0.043,0.06-0.258-0.074-0.496
	c-0.096-0.172-0.146-0.269-0.58-0.917C3.643,7.868,4.498,5.041,5.44,5.282C6.382,5.523,7.689,6.56,7.689,6.56L7.69,6.562
	C7.468,5.656,7.055,5.107,6.554,4.808c-0.586-0.35,0-0.438,0-0.438h6.978c0,0,0.586,0.088,0,0.438
	c-0.502,0.3-0.915,0.848-1.137,1.752l0.001,0c0,0,0.387-0.304,0.888-0.621c0.002,0.28,0.085,0.541,0.222,0.765
	c-0.654,0.498-1.342,1.235-1.376,1.472c-0.118,0.781-0.212,1.409-0.212,1.409s0.816,0.142,1.615,0.52
	c0.039,0.019,0.078,0.039,0.118,0.058l-0.002-0.001c0,0,0.676,0.1,1.168-0.758c0.349-0.608,0.404-1.382,0.298-2.016
	C15.381,7.325,15.621,7.192,15.813,7.009z M8.167,9.583c0,0-0.094-0.627-0.212-1.409C7.907,7.832,6.482,6.423,5.781,6.244
	C5.08,6.064,4.53,8.115,5.269,9.402c0.492,0.858,1.167,0.758,1.167,0.758l-0.001,0.001c0.04-0.02,0.079-0.039,0.118-0.058
	C7.352,9.725,8.167,9.583,8.167,9.583z M12.935,15.603c-0.108-0.062-0.228-0.106-0.361-0.106c-0.413,0-0.748,0.336-0.748,0.748
	c0,0.293,0.173,0.54,0.417,0.663l0.593-0.46L12.935,15.603z M13.095,19.795h1.04v0.313h-1.04c-0.373,0-0.677-0.304-0.677-0.677
	v-1.951c-0.613-0.077-1.089-0.602-1.089-1.235c0-0.687,0.559-1.245,1.245-1.245c0.687,0,1.246,0.559,1.246,1.245
	c0,0.634-0.476,1.158-1.089,1.235v1.951C12.73,19.631,12.894,19.795,13.095,19.795z M12.574,17.178c0.515,0,0.933-0.419,0.933-0.934
	s-0.418-0.933-0.933-0.933c-0.514,0-0.933,0.418-0.933,0.933S12.06,17.178,12.574,17.178z M20.582,18.717h-5.639v0.468h5.639V18.717
	z M14.943,20.186h3.9v-0.469h-3.9V20.186z M14.943,21.186h7.234v-0.469h-7.234V21.186z M8.142,0H2.503v0.468h5.639V0z M8.142,1
	h-6.32v0.468h6.32V1z M8.142,2.469V2.001h-5.08v0.468H8.142z M16.015,5.923c0,0.687-0.558,1.245-1.244,1.245
	c-0.688,0-1.246-0.559-1.246-1.245c0-0.634,0.477-1.158,1.089-1.235V1.755c0-0.201-0.163-0.365-0.364-0.365H8.938V1.078h5.311
	c0.373,0,0.677,0.304,0.677,0.677v2.933C15.539,4.766,16.015,5.29,16.015,5.923z M15.703,5.923c0-0.514-0.419-0.933-0.933-0.933
	c-0.515,0-0.934,0.418-0.934,0.933s0.419,0.933,0.934,0.933C15.284,6.856,15.703,6.438,15.703,5.923z M7.42,16.074
	c0.007,0.009,0.015,0.018,0.024,0.026C7.437,16.092,7.428,16.083,7.42,16.074L7.42,16.074z"/>
</svg>
