<?xml version="1.0" encoding="utf-8"?>
<!-- Generator: Adobe Illustrator 16.0.0, SVG Export Plug-In . SVG Version: 6.00 Build 0)  -->
<!DOCTYPE svg PUBLIC "-//W3C//DTD SVG 1.1//EN" "http://www.w3.org/Graphics/SVG/1.1/DTD/svg11.dtd">
<svg enable-background="new 0 0 512 512" height="512px" id="Ebene_1" version="1.1" viewBox="0 0 512 512"
     width="512px" x="0px" xml:space="preserve" xmlns="http://www.w3.org/2000/svg" y="0px">
<path d="M0,443.023C0,478.578,27.662,512,62.364,512c2.377,0.003,4.752-0.14,7.111-0.427C116.48,505.458,256,475.307,256,475.307
	s139.592,30.151,186.738,36.195c2.359,0.288,4.734,0.43,7.111,0.427c34.702,0,62.15-33.351,62.15-68.906V69.262
	C512,33.707,484.693,0,450.205,0c-2.379,0.001-4.755,0.168-7.111,0.498C395.592,6.969,256,39.396,256,39.396
	S116.622,6.969,69.334,0.498C66.977,0.168,64.601,0.001,62.222,0h-0.214C27.52,0,0,33.707,0,69.262V443.023z M490.738,443.023
	c0,24.889-19.484,47.645-40.817,47.645c-1.423,0-2.845,0-4.267,0c-45.725-5.831-183.538-35.556-184.89-35.556L256,453.476
	l-4.479,0.995c-1.423,0-139.307,30.009-184.889,35.556c-1.423,0-2.845,0-4.268,0c-21.333,0-41.03-22.755-41.03-47.645V69.262
	c0-25.173,19.413-47.929,40.675-47.929c1.494,0,2.987,0,4.409,0c45.796,6.329,183.538,38.258,184.889,38.543l4.836,1.138
	l4.836-1.138c0.729,0,41.228-9.397,85.547-19.038v105.936l45.653-50.063l48.568,48.143V22.088c1.808-0.28,3.524-0.535,5.12-0.755
	c1.422,0,2.916,0,4.409,0c21.333,0,40.462,22.756,40.462,47.716V443.023z M266.88,423.894h-21.333V94.863h21.333V423.894z"/>
</svg>
