<svg xmlns="http://www.w3.org/2000/svg" viewBox="0 0 64 64" width="128" height="128">
  <defs>
    <radialGradient id="bulbGlow" cx="32" cy="20" r="20" gradientUnits="userSpaceOnUse">
      <stop offset="0%" stop-color="#fffbb3"></stop>
      <stop offset="100%" stop-color="#ffd700"></stop>
    </radialGradient>
    <linearGradient id="baseGradient" x1="26" y1="48" x2="38" y2="48" gradientUnits="userSpaceOnUse">
      <stop offset="0%" stop-color="#999"></stop>
      <stop offset="100%" stop-color="#666"></stop>
    </linearGradient>
  </defs>
  <!-- Bulb glass -->
  <path d="M32 4C20 4 12 14 12 24c0 6.7 3.7 12.9 9 17v3c0 1.1 0.9 2 2 2h18c1.1 0 2-0.9 2-2v-3c5.3-4.1 9-10.3 9-17 0-10-8-20-20-20z" fill="url(#bulbGlow)" stroke="#e6c200" stroke-width="1"></path>
  
  <!-- Filament -->
  <line x1="24" y1="28" x2="40" y2="28" stroke="#ff8c00" stroke-width="1.5"></line>
  <circle cx="28" cy="28" r="1.5" fill="#ff8c00"></circle>
  <circle cx="36" cy="28" r="1.5" fill="#ff8c00"></circle>

  <!-- Base -->
  <rect x="26" y="44" width="12" height="4" rx="1" fill="url(#baseGradient)"></rect>
  <rect x="26" y="48" width="12" height="4" rx="1" fill="url(#baseGradient)"></rect>
  <rect x="26" y="52" width="12" height="4" rx="1" fill="url(#baseGradient)"></rect>

  <!-- Bottom -->
  <rect x="28" y="56" width="8" height="4" rx="1" fill="#444"></rect>

</svg>
