<?xml version="1.0" encoding="utf-8"?>
<!-- Generator: Adobe Illustrator 16.0.0, SVG Export Plug-In . SVG Version: 6.00 Build 0)  -->
<!DOCTYPE svg PUBLIC "-//W3C//DTD SVG 1.1//EN" "http://www.w3.org/Graphics/SVG/1.1/DTD/svg11.dtd">
<svg version="1.1" id="Ebene_1" xmlns="http://www.w3.org/2000/svg" xmlns:xlink="http://www.w3.org/1999/xlink" x="0px" y="0px"
	 width="24px" height="24px" viewBox="0 0 24 24" enable-background="new 0 0 24 24" xml:space="preserve">
<g>
	<g>
		<rect x="5.933" y="17.902" width="11.019" height="0.463"/>
		<circle cx="4.552" cy="18.135" r="0.512"/>
		<rect x="5.933" y="19.311" width="11.393" height="0.461"/>
		<circle cx="4.552" cy="19.541" r="0.512"/>
		<rect x="5.933" y="20.716" width="12.3" height="0.462"/>
		<circle cx="4.552" cy="20.947" r="0.512"/>
	</g>
</g>
<path d="M14.879,4.756c0.228,0.035,0.458,0.084,0.688,0.164c0.841,0.297,1.256,0.403,1.542,0.403c0,0,0.535,0.008,0.882-0.068
	c0.332-0.074,0.602-0.168,1.04-0.381c0.029-0.013,0.041,1.997,0.035,4.462l-0.021,4.479l-0.537,0.266
	c-0.519,0.259-0.56,0.264-1.194,0.264c-0.592,0-0.715-0.024-1.267-0.243c-1.146-0.441-2.101-0.469-3.061-0.079
	c-0.231,0.092-0.471,0.185-0.533,0.205c-0.116,0.033-0.124-0.205-0.124-4.402V5.391l0.314-0.199
	c0.501-0.307,1.051-0.451,1.621-0.465L14.879,4.756z M14.553,4.099c-0.619-0.032-1.204,0.102-1.901,0.413L12.126,4.75l-0.308-0.211
	c-0.395-0.279-1.316-0.696-1.841-0.833C9.495,3.579,8.152,3.52,7.641,3.612c-0.499,0.085-1.295,0.35-1.807,0.594
	C5.186,4.523,4.627,4.914,4.627,5.052c0,0.139-0.129,0.251-0.56,0.463C3.897,5.607,3.686,5.727,3.611,5.78
	c-0.136,0.105-0.143,0.139-0.143,5.127c0,2.765,0,5.058,0,5.104c0,0.048,0.062,0.112,0.129,0.151
	c0.109,0.053,0.232,0.014,0.634-0.198c1.078-0.562,2.126-0.832,3.462-0.898c1.275-0.066,2.065,0.046,3.886,0.535l0.443,0.118
	l0.718-0.205c1.287-0.37,1.765-0.442,3.066-0.442c1.656,0.007,2.679,0.232,3.933,0.892c0.389,0.205,0.539,0.251,0.635,0.197
	c0.062-0.031,0.13-0.097,0.142-0.145c0.015-0.046,0.021-2.353,0.009-5.122L20.51,5.859l-0.375-0.218l-0.374-0.218V4.808
	c0-0.337-0.033-0.675-0.068-0.746c-0.087-0.159-0.421-0.172-0.552-0.02c-0.047,0.06-0.251,0.198-0.449,0.304
	c-0.208,0.11-0.695,0.45-1.604,0.369c-0.253-0.02-0.68-0.132-1.042-0.271c-0.22-0.083-0.425-0.147-0.625-0.201
	C15.421,4.243,15.171,4.131,14.553,4.099z M4.293,15.251l-0.279,0.113v-4.562V6.248L4.24,6.116c0.115-0.072,0.239-0.131,0.272-0.131
	c0.027,0,0.048,2.035,0.048,4.529c0,2.49,0,4.545,0.007,4.572C4.566,15.111,4.443,15.185,4.293,15.251z M11.321,14.902
	c-1.131-0.339-1.759-0.417-3.149-0.417c-0.981,0-1.452,0.027-1.806,0.104c-0.259,0.059-0.485,0.101-0.498,0.086
	c-0.088-0.086,1.2-0.563,1.862-0.688c0.599-0.117,1.709-0.038,2.323,0.16c0.594,0.191,1.18,0.476,1.493,0.728l0.205,0.157
	L11.321,14.902z M11.785,9.759c0,2.47-0.021,4.488-0.048,4.474c-1.554-0.767-1.944-0.88-3.156-0.872
	c-1.097,0-1.678,0.132-2.692,0.613l-0.647,0.313V9.778c0-4.204,0.006-4.508,0.122-4.6c0.191-0.172,0.981-0.569,1.418-0.721
	c1.097-0.371,2.297-0.41,3.259-0.099c0.621,0.205,1.057,0.409,1.459,0.694l0.286,0.206L11.785,9.759L11.785,9.759z M14.348,14.544
	c-0.354,0.054-0.893,0.152-1.179,0.224c-0.293,0.073-0.539,0.12-0.553,0.107c-0.04-0.041,0.457-0.266,0.839-0.384
	c0.416-0.126,0.737-0.173,1.057-0.14c0.13,0.014,0.312,0.026,0.402,0.026C15.235,14.378,14.995,14.452,14.348,14.544z
	 M19.967,15.356l-0.716-0.276c-0.649-0.246-0.86-0.371-0.629-0.371c0.104,0,1.01-0.562,1.082-0.674
	c0.027-0.048,0.056-1.851,0.056-4.011c0-3.478,0.013-3.914,0.102-3.841c0.088,0.073,0.104,0.667,0.104,4.627v4.546H19.967z"/>
<path d="M22.623,2.274C22.623,1.02,21.604,0,20.35,0H3.651C2.397,0,1.377,1.02,1.377,2.274v19.453c0,1.253,1.02,2.273,2.274,2.273
	H20.35c1.254,0,2.273-1.021,2.273-2.273V2.274z M22.119,21.727c0,0.975-0.795,1.769-1.77,1.769H3.651
	c-0.975,0-1.769-0.794-1.769-1.769V2.274c0-0.975,0.793-1.769,1.769-1.769H20.35c0.975,0,1.77,0.793,1.77,1.769V21.727z"/>
</svg>
