<?xml version="1.0" encoding="utf-8"?>
<!-- Generator: Adobe Illustrator 16.0.0, SVG Export Plug-In . SVG Version: 6.00 Build 0)  -->
<!DOCTYPE svg PUBLIC "-//W3C//DTD SVG 1.1//EN" "http://www.w3.org/Graphics/SVG/1.1/DTD/svg11.dtd">
<svg version="1.1" id="Ebene_1" xmlns="http://www.w3.org/2000/svg" xmlns:xlink="http://www.w3.org/1999/xlink" x="0px" y="0px"
	 width="24px" height="24px" viewBox="0 0 24 24" enable-background="new 0 0 24 24" xml:space="preserve">
<path d="M15.58,1.635c0.203,0.2,0.305,0.475,0.305,0.823c0,0.345-0.156,0.685-0.469,1.021L15.1,3.798
	c-0.143,0.16-0.213,0.389-0.213,0.689H14.35c0.004-0.234,0.029-0.42,0.078-0.556c0.049-0.136,0.146-0.287,0.297-0.453l0.379-0.399
	c0.164-0.188,0.244-0.389,0.244-0.604c0-0.207-0.053-0.369-0.16-0.486c-0.106-0.117-0.26-0.175-0.463-0.175
	c-0.199,0-0.356,0.054-0.477,0.16c-0.121,0.107-0.182,0.25-0.182,0.43h-0.537c0.004-0.32,0.115-0.578,0.334-0.774
	c0.221-0.197,0.508-0.295,0.859-0.295C15.09,1.334,15.375,1.435,15.58,1.635z M14.643,5.111c-0.104,0-0.184,0.03-0.236,0.091
	s-0.08,0.136-0.08,0.226c0,0.09,0.027,0.164,0.08,0.223c0.054,0.058,0.132,0.088,0.236,0.088s0.185-0.029,0.238-0.088
	c0.055-0.059,0.082-0.133,0.082-0.223c0-0.09-0.027-0.165-0.082-0.226S14.748,5.111,14.643,5.111z M20.006,3.126h-0.807l1.641,2.306
	h0.416l2.375-4.324l-0.932,0.02l-1.662,3.465L20.006,3.126z M23.295,2.555C23.732,3.026,24,3.623,24,4.276
	c0,1.513-1.406,2.739-3.141,2.739c-0.969,0-1.834-0.384-2.41-0.986c-0.229,0.215-0.48,0.417-0.77,0.587
	c-0.228,0.133-2.034,2.665-2.43,2.665c-0.241,0,1.216-2.083,1.001-2.083c-0.006,0-0.013,0.001-0.017,0.002
	c-0.479,0.12-0.991,0.185-1.522,0.185c-2.684,0-4.858-1.653-4.858-3.692c0-1.914,1.914-3.486,4.367-3.674
	C14.383,0.007,14.547,0,14.713,0s0.332,0.006,0.494,0.019c1.689,0.129,3.111,0.923,3.84,2.028c0.514-0.319,1.139-0.509,1.816-0.509
	c0.393,0,0.764,0.067,1.107,0.182l-0.187,0.384c-0.287-0.09-0.599-0.143-0.925-0.143c-1.496,0-2.715,1.039-2.715,2.315
	c0,1.277,1.219,2.315,2.715,2.315c1.498,0,2.718-1.039,2.718-2.315c0-0.495-0.187-0.954-0.496-1.33L23.295,2.555z M18.045,5.478
	c-0.205-0.363-0.322-0.77-0.322-1.202c0-0.716,0.318-1.366,0.832-1.854c-0.65-1.069-2.127-1.819-3.844-1.819
	c-2.319,0-4.206,1.362-4.206,3.036c0,1.673,1.886,3.036,4.206,3.036C16.07,6.675,17.275,6.203,18.045,5.478z"/>
<path d="M22.973,10.688l-0.484-0.281l-0.482-0.281V9.333c0-0.435-0.043-0.87-0.089-0.962c-0.112-0.205-0.543-0.222-0.711-0.025
	c-0.061,0.077-0.324,0.255-0.579,0.392C20.359,8.88,19.73,9.318,18.56,9.213c-0.325-0.025-0.877-0.17-1.343-0.349
	c-0.284-0.107-0.548-0.189-0.806-0.259c-0.261,0.263-0.498,0.484-0.699,0.661c0.294,0.045,0.59,0.109,0.888,0.212
	c1.083,0.383,1.619,0.52,1.988,0.52c0,0,0.69,0.011,1.136-0.088c0.428-0.095,0.776-0.216,1.342-0.491
	c0.037-0.017,0.052,2.574,0.045,5.753l-0.027,5.776l-0.694,0.341c-0.668,0.334-0.721,0.341-1.538,0.341
	c-0.764,0-0.923-0.033-1.634-0.313c-1.478-0.571-2.708-0.606-3.946-0.103c-0.3,0.118-0.607,0.238-0.687,0.264
	c-0.149,0.043-0.159-0.264-0.159-5.675v-5.719l0.405-0.256c0.646-0.396,1.354-0.581,2.09-0.6l0.37-0.809
	c-0.798-0.041-1.553,0.131-2.451,0.532l-0.677,0.307l-0.396-0.273C11.257,8.625,10.07,8.088,9.393,7.91
	C8.77,7.748,7.038,7.672,6.379,7.791c-0.642,0.11-1.67,0.451-2.33,0.766C3.214,8.966,2.494,9.469,2.494,9.648
	s-0.167,0.324-0.721,0.597c-0.22,0.119-0.493,0.272-0.589,0.341C1.009,10.722,1,10.765,1,17.198c0,3.563,0,6.52,0,6.579
	c0,0.062,0.079,0.146,0.167,0.195c0.141,0.068,0.299,0.018,0.818-0.255c1.389-0.724,2.742-1.072,4.464-1.159
	c1.644-0.085,2.664,0.06,5.01,0.69l0.572,0.153l0.924-0.264c1.66-0.478,2.276-0.571,3.954-0.571c2.136,0.009,3.454,0.299,5.072,1.15
	c0.499,0.264,0.694,0.323,0.817,0.255c0.08-0.042,0.168-0.126,0.183-0.187c0.019-0.059,0.027-3.034,0.011-6.604L22.973,10.688z
	 M2.063,22.798l-0.36,0.145v-5.88V11.19l0.291-0.17c0.149-0.093,0.308-0.17,0.351-0.17c0.035,0,0.062,2.625,0.062,5.839
	c0,3.211,0,5.861,0.009,5.896C2.415,22.618,2.256,22.712,2.063,22.798z M11.124,22.347c-1.458-0.436-2.267-0.537-4.06-0.537
	c-1.266,0-1.872,0.035-2.329,0.136c-0.334,0.076-0.625,0.129-0.642,0.11c-0.114-0.11,1.547-0.725,2.4-0.887
	c0.772-0.152,2.205-0.05,2.996,0.206c0.765,0.247,1.521,0.613,1.925,0.937l0.264,0.204L11.124,22.347z M11.723,15.717
	c0,3.186-0.026,5.786-0.062,5.769c-2.004-0.989-2.506-1.134-4.069-1.125c-1.415,0-2.163,0.171-3.472,0.792l-0.834,0.401v-5.813
	c0-5.419,0.008-5.812,0.158-5.931c0.246-0.222,1.265-0.733,1.828-0.929c1.415-0.478,2.962-0.528,4.202-0.128
	c0.8,0.264,1.362,0.528,1.881,0.895l0.369,0.265V15.717z M15.028,21.886c-0.457,0.069-1.152,0.196-1.521,0.289
	c-0.378,0.095-0.694,0.154-0.712,0.137c-0.053-0.052,0.589-0.342,1.081-0.494c0.537-0.161,0.95-0.222,1.362-0.179
	c0.168,0.018,0.403,0.033,0.519,0.033C16.171,21.672,15.862,21.768,15.028,21.886z M22.271,22.934l-0.922-0.357
	C20.512,22.26,20.24,22.1,20.538,22.1c0.134,0,1.302-0.725,1.396-0.87c0.035-0.061,0.071-2.386,0.071-5.172
	c0-4.483,0.017-5.046,0.132-4.952c0.113,0.094,0.133,0.861,0.133,5.966V22.934z"/>
</svg>
