<?xml version="1.0" encoding="utf-8"?>
<!-- Generator: Adobe Illustrator 16.0.0, SVG Export Plug-In . SVG Version: 6.00 Build 0)  -->
<!DOCTYPE svg PUBLIC "-//W3C//DTD SVG 1.1//EN" "http://www.w3.org/Graphics/SVG/1.1/DTD/svg11.dtd">
<svg version="1.1" id="Ebene_1" xmlns="http://www.w3.org/2000/svg" xmlns:xlink="http://www.w3.org/1999/xlink" x="0px" y="0px"
	 width="24px" height="24px" viewBox="0 0 24 24" enable-background="new 0 0 24 24" xml:space="preserve">
<path fill="none" d="M0,0h24v24H0V0z"/>
<path d="M9.473,15.623l-3.579-3.579l-1.193,1.193l4.772,4.772L19.699,7.784l-1.193-1.193L9.473,15.623z"/>
<path d="M21.624,18.65l-0.822-0.57c1.247-1.799,1.906-3.905,1.906-6.09c0-2.381-0.775-4.642-2.241-6.538l0.791-0.611
	c1.603,2.073,2.45,4.545,2.45,7.149C23.708,14.38,22.987,16.683,21.624,18.65z"/>
<path d="M2.376,18.66C1.013,16.692,0.292,14.39,0.292,12c0-2.604,0.848-5.077,2.451-7.149l0.791,0.611
	C2.067,7.358,1.292,9.619,1.292,12c0,2.186,0.659,4.291,1.906,6.09L2.376,18.66z"/>
</svg>
