<?xml version="1.0" encoding="utf-8"?>
<!-- Generator: Adobe Illustrator 16.0.0, SVG Export Plug-In . SVG Version: 6.00 Build 0)  -->
<!DOCTYPE svg PUBLIC "-//W3C//DTD SVG 1.1//EN" "http://www.w3.org/Graphics/SVG/1.1/DTD/svg11.dtd">
<svg version="1.1" id="Ebene_1" xmlns="http://www.w3.org/2000/svg" xmlns:xlink="http://www.w3.org/1999/xlink" x="0px" y="0px"
	 width="202.666px" height="50px" viewBox="0 0 202.666 50" enable-background="new 0 0 202.666 50" xml:space="preserve">
<g>
	<g>
		<path fill-rule="evenodd" clip-rule="evenodd" d="M29.263,15.39c0.785,0,1.569,0,2.353,0c8.294,0.589,14.52,3.902,19.754,7.843
			c0.837,0.63,1.752,1.107,1.814,2.108c0.047,0.748-0.418,1.473-0.931,1.568c-0.987,0.187-2.102-0.876-2.696-1.471
			c-2.092-2.091-4.541-3.886-7.206-5.293c-3.484-1.84-7.935-3.536-13.333-3.333c-10.51,0.394-16.814,5.477-22.746,10.588
			c2.533-3.113,5.76-5.798,9.46-7.941C19.475,17.293,23.878,15.7,29.263,15.39z"/>
		<path fill-rule="evenodd" clip-rule="evenodd" d="M35.783,20.145c0.271,0.496,0.675,0.916,0.932,1.421
			c1.242,2.449,0.876,5.481-0.294,7.402c-1.146,1.881-3.219,3.332-5.491,3.872c-2.745,0.653-5.686-0.068-7.548-1.323
			c-1.784-1.202-3.326-3.136-3.529-5.785c-0.195-2.533,0.661-4.057,1.667-5.489c-5.342,1.602-9.662,4.227-13.725,7.106
			c2.674-2.583,5.866-4.777,9.509-6.567c3.49-1.716,7.935-3.191,13.187-2.942c7.47,0.356,12.35,3.816,16.569,7.648
			c0.666,0.604,1.303,1.182,1.911,2.107c0.507,0.771,1.236,1.893,0.932,2.989c-0.208,0.747-1.239,1.425-2.206,1.324
			c-0.978-0.103-1.363-1.284-2.108-1.275c-0.522,0.008-0.708,0.636-1.03,0.932c-0.863,0.797-2.666,1.629-3.872,2.157
			c-4.058,1.776-9.412,3.053-15.294,2.549c-7.29-0.624-12.486-3.625-17.06-7.009c-0.098-0.114,0.022-0.114,0.049,0
			c4.55,2.775,10.4,5.858,17.794,6.372c6.946,0.48,12.329-1.533,16.421-4.511c1.121-0.814,3.058-2.12,2.158-4.265
			c-0.33-0.782-1.107-1.498-1.765-2.155C41.012,22.727,38.65,21.161,35.783,20.145z M26.714,24.704
			c0.042,1.94,2.967,2.411,3.775,0.734c0.742-1.542-0.811-2.754-2.207-2.5C27.378,23.104,26.691,23.643,26.714,24.704z"/>
	</g>
	<path d="M69.87,13.991c-4.097,4.096-4.097,10.762,0,14.857c3.726,3.725,9.576,4.061,13.686,1.01l14.059,14.059
		c0.626,0.625,1.622,0.645,2.224,0.042c0.603-0.602,0.583-1.598-0.043-2.224L85.737,27.676c3.051-4.109,2.716-9.959-1.01-13.685
		C80.631,9.896,73.966,9.896,69.87,13.991z M83.455,27.575c-3.395,3.396-8.918,3.396-12.313,0c-3.395-3.394-3.395-8.917,0-12.312
		c3.395-3.395,8.918-3.395,12.313,0C86.85,18.658,86.85,24.181,83.455,27.575z M74.465,28.998c-1.151-0.359-2.234-0.995-3.146-1.905
		c-3.011-3.01-3.011-7.893,0-10.904c0.085-0.085,0.174-0.168,0.262-0.249c-2.553,3.487-2.254,8.411,0.897,11.561
		C73.082,28.106,73.752,28.603,74.465,28.998z"/>
	<path fill-rule="evenodd" clip-rule="evenodd" d="M178.057,37.4c-0.867,0-1.734,0-2.602,0c-0.965,0-1.394-0.323-1.514-1.281
		c-0.242-1.932-1.033-3.643-2.021-5.285c-0.844-1.401-1.628-2.825-2.222-4.362c-1.246-3.217-0.386-6.82,1.958-9.035
		c1.273-1.203,2.804-1.92,4.521-2.234c2.382-0.437,4.659-0.114,6.768,1.096c2.024,1.163,3.275,2.923,3.851,5.188
		c0.415,1.628,0.201,3.198-0.289,4.762c-0.526,1.681-1.431,3.171-2.327,4.664c-0.795,1.324-1.468,2.699-1.807,4.217
		c-0.084,0.375-0.134,0.757-0.205,1.133c-0.154,0.812-0.533,1.131-1.361,1.137C179.891,37.407,178.974,37.4,178.057,37.4z
		 M178.071,36.253L178.071,36.253c0.877-0.001,1.755-0.011,2.632,0.005c0.251,0.004,0.337-0.082,0.382-0.321
		c0.12-0.617,0.237-1.24,0.417-1.842c0.466-1.573,1.321-2.963,2.119-4.377c0.527-0.936,1.07-1.864,1.538-2.828
		c0.433-0.892,0.617-1.868,0.686-2.854c0.212-3.034-1.022-5.351-3.636-6.843c-2.523-1.44-5.186-1.482-7.806-0.254
		c-2.216,1.04-3.584,2.81-4.042,5.24c-0.152,0.81-0.092,1.616,0.001,2.436c0.094,0.82,0.346,1.592,0.677,2.311
		c0.585,1.266,1.28,2.485,1.987,3.69c0.978,1.662,1.759,3.391,2.039,5.313c0.039,0.271,0.152,0.333,0.404,0.329
		C176.337,36.244,177.205,36.253,178.071,36.253z M174.833,37.941c-0.234-0.002-0.307,0.076-0.306,0.309
		c0.01,1.22,0.002,2.442,0.005,3.663c0.002,0.567,0.376,0.954,0.938,0.955c1.723,0.006,3.445,0.006,5.169,0
		c0.602-0.001,0.978-0.384,0.979-0.979c0.005-1.211-0.003-2.423,0.008-3.635c0.003-0.252-0.085-0.315-0.323-0.314
		c-1.073,0.012-2.147,0.006-3.221,0.006C177,37.946,175.916,37.951,174.833,37.941z M162.219,15.15
		c1.219,0.704,2.443,1.396,3.651,2.117c0.342,0.204,0.363-0.071,0.488-0.234c0.148-0.195,0.082-0.292-0.116-0.404
		c-1.114-0.629-2.219-1.274-3.326-1.913c-0.563-0.325-0.563-0.325-0.847,0.274c-0.005,0.008,0,0.02-0.003,0.062
		C162.121,15.088,162.17,15.122,162.219,15.15z M171.46,11.705c-0.693-1.2-1.391-2.397-2.075-3.603
		c-0.127-0.224-0.247-0.229-0.439-0.097c-0.174,0.119-0.387,0.161-0.202,0.471c0.715,1.198,1.399,2.415,2.103,3.62
		c0.044,0.072,0.181,0.165,0.231,0.145c0.181-0.074,0.342-0.193,0.514-0.295C171.525,11.825,171.494,11.764,171.46,11.705z
		 M193.755,14.492c-0.036-0.037-0.227,0.056-0.331,0.116c-1.171,0.669-2.337,1.349-3.511,2.013c-0.211,0.119-0.271,0.23-0.118,0.429
		c0.041,0.054,0.077,0.115,0.108,0.175c0.063,0.128,0.136,0.169,0.277,0.086c1.244-0.722,2.491-1.437,3.735-2.156
		c0.063-0.037,0.109-0.097,0.18-0.161C193.977,14.808,193.891,14.625,193.755,14.492z M162.197,33.007
		c0.206,0.341,0.206,0.34,0.546,0.142c1.167-0.675,2.332-1.353,3.501-2.022c0.173-0.098,0.285-0.191,0.12-0.375
		c-0.122-0.139-0.103-0.487-0.471-0.265c-0.857,0.518-1.737,1.004-2.606,1.505c-0.414,0.238-0.824,0.484-1.253,0.736
		C162.102,32.841,162.148,32.925,162.197,33.007z M186.695,8.227c-0.655,1.135-1.309,2.27-1.964,3.405
		c-0.188,0.325-0.18,0.311,0.211,0.558c0.262,0.166,0.315-0.022,0.408-0.184c0.634-1.101,1.269-2.203,1.905-3.302
		c0.318-0.55,0.321-0.549-0.269-0.806c-0.017-0.007-0.038-0.003-0.09-0.007C186.835,7.995,186.762,8.11,186.695,8.227z
		 M189.789,30.724c-0.129,0.169-0.116,0.277,0.084,0.391c1.212,0.69,2.425,1.382,3.624,2.094c0.265,0.156,0.333,0.015,0.438-0.167
		c0.104-0.181,0.205-0.317-0.065-0.471c-1.225-0.689-2.438-1.397-3.654-2.1c-0.052-0.029-0.104-0.054-0.192-0.1
		C189.944,30.491,189.875,30.612,189.789,30.724z M164.21,24.242c0.222,0.004,0.31-0.066,0.282-0.286
		c-0.024-0.192,0.098-0.451-0.276-0.449c-1.387,0.009-2.775,0.01-4.163,0c-0.342-0.003-0.297,0.208-0.313,0.43
		c-0.018,0.269,0.111,0.308,0.337,0.304c0.688-0.01,1.377-0.003,2.066-0.003S163.522,24.229,164.21,24.242z M178.433,5.9
		c0.005-0.222-0.052-0.334-0.298-0.309c-0.202,0.021-0.436-0.069-0.432,0.298c0.016,1.378,0.014,2.758,0,4.137
		c-0.004,0.344,0.203,0.275,0.406,0.292c0.239,0.02,0.33-0.059,0.325-0.311c-0.016-0.68-0.005-1.359-0.005-2.039
		C178.43,7.278,178.423,6.589,178.433,5.9z M196.111,24.243c0.265,0.007,0.29-0.127,0.281-0.326c-0.009-0.19,0.048-0.408-0.27-0.407
		c-1.396,0.006-2.792,0.006-4.188,0c-0.335-0.001-0.27,0.224-0.282,0.425c-0.017,0.227,0.063,0.313,0.3,0.309
		c0.688-0.013,1.377-0.004,2.065-0.004C194.715,24.238,195.413,24.226,196.111,24.243z M178.308,44.398
		c0.704-0.078,1.474-0.598,1.481-1.109c-1.163,0-2.326,0-3.496,0C176.533,44.036,177.403,44.499,178.308,44.398z M178.805,34.574
		c0.188,0.016,0.263-0.07,0.295-0.244c0.135-0.695,0.279-1.389,0.417-2.084c0.372-1.873,0.746-3.745,1.113-5.619
		c0.015-0.076-0.037-0.165-0.057-0.249c-0.075,0.05-0.191,0.086-0.216,0.154c-0.108,0.292-0.199,0.594-0.277,0.895
		c-0.485,1.866-0.967,3.734-1.447,5.603c-0.127,0.492-0.248,0.986-0.388,1.543C178.475,34.572,178.641,34.562,178.805,34.574z
		 M177.726,33.888c-0.612-2.401-1.223-4.803-1.845-7.202c-0.025-0.1-0.154-0.255-0.218-0.247c-0.192,0.023-0.142,0.187-0.114,0.325
		c0.305,1.534,0.605,3.069,0.908,4.604c0.186,0.945,0.37,1.892,0.564,2.837c0.025,0.124,0.084,0.327,0.159,0.342
		c0.219,0.046,0.454,0.018,0.714,0.018C177.829,34.302,177.777,34.095,177.726,33.888z M181.238,24.813
		c0.08-0.154,0.127-0.323-0.057-0.409c-0.161-0.076-0.334-0.09-0.41,0.171c-0.032,0.108-0.209,0.248-0.313,0.243
		c-0.123-0.007-0.246-0.148-0.359-0.242c-0.081-0.065-0.167-0.223-0.212-0.209c-0.108,0.033-0.192,0.144-0.288,0.22
		c-0.102,0.08-0.203,0.215-0.309,0.22c-0.108,0.004-0.229-0.113-0.33-0.193c-0.041-0.031-0.031-0.127-0.073-0.155
		c-0.072-0.051-0.167-0.1-0.252-0.099c-0.068,0.001-0.146,0.068-0.2,0.125c-0.101,0.108-0.208,0.337-0.273,0.323
		c-0.148-0.029-0.268-0.184-0.405-0.275c-0.1-0.064-0.212-0.149-0.317-0.148c-0.072,0-0.137,0.141-0.213,0.21
		c-0.101,0.093-0.208,0.248-0.313,0.248c-0.112,0-0.233-0.14-0.338-0.234c-0.084-0.075-0.167-0.253-0.217-0.242
		c-0.123,0.027-0.256,0.119-0.333,0.222c-0.189,0.256-0.441,0.259-0.604-0.018c-0.025-0.042-0.033-0.115-0.066-0.128
		c-0.094-0.037-0.201-0.077-0.294-0.063c-0.058,0.009-0.138,0.11-0.146,0.176c-0.042,0.365,0.288,0.769,0.651,0.765
		c0.263-0.002,0.525-0.08,0.823-0.129c0.201,0.191,0.551,0.22,0.905,0.067c0.104-0.045,0.271-0.08,0.35-0.028
		c0.298,0.199,0.572,0.132,0.862,0.001c0.071-0.032,0.181-0.041,0.247-0.009c0.391,0.189,0.757,0.175,1.099-0.09
		C180.383,25.531,180.999,25.271,181.238,24.813z"/>
	<g>
		<path d="M127.705,34.224l-0.09-1.17c-0.27-2.427,0.54-5.08,2.788-7.778c2.023-2.382,3.147-4.136,3.147-6.16
			c0-2.293-1.438-3.822-4.271-3.867c-1.619,0-3.417,0.54-4.542,1.395l-1.079-2.833c1.484-1.079,4.047-1.798,6.43-1.798
			c5.171,0,7.508,3.192,7.508,6.609c0,3.058-1.708,5.261-3.867,7.824c-1.979,2.338-2.697,4.316-2.563,6.608l0.045,1.17H127.705z
			 M126.716,40.518c0-1.664,1.124-2.832,2.697-2.832c1.574,0,2.653,1.168,2.653,2.832c0,1.574-1.034,2.788-2.698,2.788
			C127.795,43.306,126.716,42.092,126.716,40.518z"/>
	</g>
</g>
<rect fill="none" width="203" height="50"/>
</svg>
