<?xml version="1.0" encoding="utf-8"?>
<!-- Generator: Adobe Illustrator 16.0.0, SVG Export Plug-In . SVG Version: 6.00 Build 0)  -->
<!DOCTYPE svg PUBLIC "-//W3C//DTD SVG 1.1//EN" "http://www.w3.org/Graphics/SVG/1.1/DTD/svg11.dtd">
<svg version="1.1" id="Ebene_1" xmlns="http://www.w3.org/2000/svg" xmlns:xlink="http://www.w3.org/1999/xlink" x="0px" y="0px"
	 width="1943px" height="422.5px" viewBox="0 0 1943 422.5" enable-background="new 0 0 1943 422.5" xml:space="preserve">
<path fill-rule="evenodd" clip-rule="evenodd" d="M1482.635,182.08c-6.041-14.564-12.745-28.854-19.301-43.201
	c-0.672-1.469-1.863-2.79-3.061-3.915c-6.977-6.551-14.086-12.961-21.039-19.537c-9.275-8.773-18.422-17.682-27.678-26.477
	c-5.031-4.782-10.12-9.507-15.297-14.131c-1.505-1.344-3.276-2.575-5.144-3.292c-7.89-3.028-15.897-5.561-23.793-8.572
	c-7.692-2.935-15.3-5.955-22.944-8.955c-2.258,0-4.514,0-6.771,0c-2.275,0-4.498,1.646-6.836,2.148
	c-23.516,5.049-47.059,9.87-70.561,14.975c-2.289,0.497-4.735,1.547-6.453,3.095c-4.463,4.022-8.688,8.309-12.78,12.717
	c-12.514,13.48-24.621,27.343-37.503,40.459c-5.922,6.03-9.553,12.084-10.627,20.76c-2.928,23.654-6.975,47.167-10.533,70.744
	c-0.568,3.774-0.147,7.378,1.497,10.981c5.848,12.82,11.322,25.811,17.273,38.58c1.707,3.663,4.073,7.284,6.954,10.084
	c9.96,9.679,20.334,18.928,30.446,28.451c9.437,8.888,18.593,18.074,28.176,26.797c3.397,3.092,7.44,5.76,11.631,7.633
	c6.847,3.062,14.088,5.057,21.101,7.759c7.509,2.896,14.945,5.815,22.415,8.815c2.257,0,4.514,0,6.771,0
	c1.382,0,2.727-1.031,4.152-1.338c24.051-5.183,48.085-10.367,72.19-15.278c5.357-1.091,9.42-3.365,12.477-7.739
	c0.645-0.923,1.299-1.833,2.065-2.648c12.734-13.532,25.508-27.019,38.227-40.565c4.11-4.376,8.328-8.679,12.024-13.389
	c1.633-2.081,2.534-5.007,2.995-7.683c1.626-9.428,2.92-18.912,4.336-28.375c2.308-15.406,4.819-30.783,6.781-46.232
	C1484.353,190.613,1484.196,185.846,1482.635,182.08z M1393.204,82.28c3.04,3.049,6.473,5.704,9.611,8.658
	c14.084,13.251,28.108,26.562,42.191,39.813c2.456,2.311,5.114,4.406,7.633,6.652c1.979,1.766,2.619,3.979,2.211,6.623
	c-2.368,15.397-4.686,30.801-7.017,46.203c-1.32,8.722-2.624,17.446-3.96,26.166c-0.168,1.092-0.478,2.163-0.932,4.175
	c-6.437,1.384-12.659,2.719-18.881,4.058c-16.159,3.478-32.358,6.78-48.454,10.53c-5.765,1.344-9.767,0.021-14.016-4.158
	c-14.856-14.611-30.113-28.812-45.25-43.138c-4.769-4.514-9.626-8.936-14.453-13.389c-1.938-1.788-2.584-3.766-2.151-6.537
	c2.754-17.616,5.309-35.262,7.913-52.9c0.549-3.714,1.087-7.43,1.537-11.157c0.8-6.635,1.299-7.418,8.037-8.894
	c15.412-3.375,30.862-6.58,46.295-9.863c7.164-1.524,14.356-2.936,21.473-4.666C1388.183,79.681,1390.735,79.804,1393.204,82.28z
	 M1360.293,241.154c-1.898,2.498-3.384,4.858-5.259,6.855c-13.224,14.092-26.544,28.093-39.789,42.164
	c-2.438,2.591-4.604,5.438-7.026,8.046c-1.232,1.328-2.752,2.389-4.57,3.936c-22.451-19.866-43.518-40.549-65.769-61.063
	c18.853-20.742,37.457-40.938,57.061-61.221C1316.955,200.157,1338.653,220.17,1360.293,241.154z M1275.678,75.501
	c1.382-0.474,2.731-1.098,4.148-1.399c19.077-4.049,38.156-8.087,57.257-12.022c1.959-0.403,4.246-0.683,6.062-0.07
	c10.099,3.413,20.1,7.12,31.251,11.127c-1.961,1.002-2.907,1.759-3.965,1.987c-19.251,4.135-38.521,8.173-57.769,12.317
	c-4.178,0.899-8.001,0.556-12.02-1.13c-6.39-2.682-13.034-4.755-19.553-7.134c-1.883-0.688-3.703-1.545-5.553-2.323
	C1275.585,76.402,1275.631,75.952,1275.678,75.501z M1189.68,220.652c0.391-3.777,0.624-7.473,1.175-11.119
	c3.275-21.694,6.566-43.387,10.037-65.05c0.359-2.245,1.491-4.698,3.017-6.372c10.35-11.37,20.945-22.515,31.369-33.817
	c6.354-6.887,12.528-13.937,18.814-20.885c0.996-1.101,2.154-2.052,3.429-3.253c1.456,0.414,2.894,0.739,4.271,1.227
	c11.679,4.134,23.358,8.27,35.015,12.469c4.544,1.637,5.2,2.846,4.487,7.595c-3.233,21.51-6.535,43.009-9.661,64.534
	c-0.655,4.512-2.624,8.07-5.71,11.305c-13.596,14.249-27.12,28.566-40.636,42.891c-3.986,4.227-7.858,8.561-11.788,12.84
	c-2,2.177-4.356,2.712-7.155,1.685c-11.097-4.077-22.214-8.103-33.313-12.182C1192.168,222.203,1191.401,221.623,1189.68,220.652z
	 M1310.707,345.605c-10.44-3.695-20.871-7.425-31.271-11.233c-1.562-0.571-3.159-1.377-4.382-2.475
	c-4.456-4.004-8.771-8.167-13.121-12.289c-14.976-14.197-29.588-28.81-45.104-42.391c-5.603-4.904-8.469-10.755-11.375-16.97
	c-3.34-7.138-6.51-14.356-9.676-21.575c-0.622-1.42-0.889-2.995-1.666-5.71c3.121,0.715,5.092,0.968,6.92,1.617
	c8.668,3.079,17.473,5.87,25.866,9.582c4.151,1.836,7.788,5.153,11.189,8.304c9.36,8.668,18.392,17.69,27.708,26.408
	c10.542,9.865,21.27,19.532,31.864,29.34c1.196,1.109,2.352,2.44,3.032,3.9c4.602,9.864,9.095,19.782,13.555,29.713
	c0.578,1.291,0.766,2.758,1.311,4.801C1313.486,346.202,1312.036,346.076,1310.707,345.605z M1462.271,275.013
	c-6.271,6.734-12.596,13.417-18.88,20.138c-10.514,11.246-21.055,22.467-31.483,33.792c-2.796,3.036-6.035,4.854-10.063,5.699
	c-23.723,4.973-47.422,10.053-71.135,15.075c-0.888,0.188-1.821,0.159-3.433,0.287c-5.979-13.274-11.966-26.563-18.07-40.116
	c3.702-4.374,6.7-8.218,10.013-11.771c7.682-8.245,15.58-16.288,23.267-24.527c7.425-7.958,14.712-16.044,22.022-24.107
	c2.183-2.407,4.474-4.498,7.818-5.203c22.061-4.655,44.106-9.388,66.168-14.033c5.041-1.062,5.886-0.858,7.774,3.194
	c6.025,12.921,11.824,25.946,17.674,38.854C1463.24,273.458,1462.884,274.355,1462.271,275.013z M1476.954,191.877
	c-2.745,19.691-5.637,39.363-8.531,59.034c-0.265,1.792-0.825,3.542-1.587,6.724c-3.927-8.538-6.806-16.086-10.745-23.033
	c-4.804-8.469-4.37-16.915-2.735-26.026c2.779-15.503,4.747-31.15,7.105-46.729c0.271-1.78,0.857-3.514,1.297-5.27
	c0.395-0.059,0.79-0.118,1.185-0.178c1.284,2.813,2.581,5.618,3.85,8.438c3.157,7.018,6.407,13.997,9.376,21.093
	C1476.919,187.721,1477.223,189.955,1476.954,191.877z M1863.979,202.548c-7.819-7.017-15.742-13.985-23.459-21.115
	c-11.721-10.83-23.362-21.776-35.022-32.671c-11.247-10.51-22.516-21.012-33.756-31.529c-12.066-11.287-24.157-22.557-36.178-33.891
	c-8.472-7.988-16.848-16.083-25.282-24.111c-4.428-4.213-7.128-3.945-11.279,0.711c-6.867,7.703-13.772,15.377-20.806,22.928
	c-7.681,8.245-15.55,16.315-23.292,24.502c-5.548,5.865-11.04,11.783-16.526,17.705c-13.651,14.731-27.269,29.494-40.932,44.213
	c-6.132,6.606-12.362,13.119-18.508,19.712c-3.966,4.256-7.879,8.563-11.776,12.881c-3.041,3.368-3.02,4.871-0.007,8.193
	c0.504,0.557,1.042,1.086,1.601,1.589c7.382,6.665,14.844,13.24,22.138,19.999c12.12,11.228,24.127,22.577,36.192,33.864
	c11.241,10.517,22.502,21.012,33.744,31.528c12.066,11.287,24.138,22.566,36.17,33.891c7.796,7.336,15.5,14.769,23.29,22.109
	c4.029,3.798,6.708,3.634,10.472-0.572c2-2.235,3.788-4.668,5.846-6.847c7.995-8.466,16.088-16.84,24.09-25.299
	c5.16-5.455,10.254-10.975,15.331-16.506c11.929-12.998,23.762-26.082,35.763-39.012c8.05-8.671,16.405-17.059,24.468-25.718
	c6.391-6.864,12.553-14.049,18.964-20.894c3.319-3.545,7.391-6.661,10.777-9.972c0-1.504,0-3.009,0-4.514
	C1864.871,203.336,1864.525,203.04,1863.979,202.548z M1577.811,200.913c6.794-7.267,13.704-14.425,20.469-21.72
	c12.885-13.895,25.687-27.862,38.536-41.79c5.089-5.517,10.169-11.044,15.322-16.502c7.732-8.189,15.588-16.265,23.276-24.497
	c6.913-7.402,13.663-14.955,20.506-22.422c0.466-0.507,1.104-0.856,2.747-2.102c-8.426,56.366-16.675,111.551-24.913,166.658
	c-5.082-0.08-91.825-31.225-97.518-34.901C1576.744,202.735,1577.107,201.665,1577.811,200.913z M1709.85,332.686
	c-1.923-1.447-3.986-2.741-5.742-4.367c-7.017-6.501-13.947-13.094-20.893-19.672c-14.711-13.931-29.38-27.901-44.12-41.798
	c-11.189-10.548-22.454-21.014-33.705-31.493c-4.526-4.217-9.138-8.343-13.647-12.578c-1.006-0.943-1.748-2.168-3.313-4.151
	c2.185,0.466,3.27,0.567,4.26,0.925c25.593,9.263,51.153,18.61,76.782,27.769c3.616,1.292,5.382,3.805,6.795,6.967
	c5.059,11.306,10.142,22.601,15.197,33.907c6.05,13.533,12.085,27.073,18.116,40.615c0.447,1.001,0.802,2.044,1.198,3.067
	C1710.47,332.146,1710.16,332.415,1709.85,332.686z M1839.178,225.414c-6.089,6.646-12.355,13.13-18.492,19.732
	c-14.061,15.124-28.081,30.287-42.131,45.421c-5.622,6.056-11.245,12.11-16.925,18.109c-7.878,8.322-15.839,16.565-23.7,24.901
	c-2.057,2.18-3.802,4.653-5.836,6.858c-1.363,1.479-2.981,2.724-5.086,4.611c-1.37-2.193-2.619-3.769-3.421-5.545
	c-6.73-14.897-13.388-29.828-20.053-44.756c-5.819-13.04-11.632-26.084-17.412-39.142c-0.812-1.833-1.407-3.761-2.359-6.34
	c2.71-0.979,4.853-2.047,7.119-2.528c38.231-8.125,76.479-16.174,114.724-24.248c12.686-2.678,25.366-5.391,38.057-8.048
	c1.209-0.254,2.478-0.229,3.719-0.333c0.139,0.354,0.277,0.707,0.416,1.061C1844.933,218.592,1842.19,222.127,1839.178,225.414z
	 M1849.449,204.557c-55.403,11.795-110.816,23.547-167.253,35.521c2.375-20.105,5.628-39.064,8.438-58.08
	c2.797-18.932,5.444-37.887,8.402-56.793c2.97-18.967,5.293-38.048,8.993-57.639c1.614,1.114,2.431,1.536,3.072,2.144
	c8.305,7.881,16.556,15.819,24.878,23.684c13.229,12.502,26.478,24.984,39.762,37.428c10.268,9.619,20.589,19.181,30.912,28.739
	c14.314,13.252,28.661,26.47,42.969,39.731c1.051,0.974,1.889,2.177,3.112,3.607
	C1851.354,203.612,1850.457,204.343,1849.449,204.557z M299.136,242.784c0-42.69,0.014-85.38-0.031-128.069
	c-0.003-2.735,0.724-5.689-1.943-8.654c-4.286-0.449-9.099-1.142-13.935-1.406c-5.064-0.276-10.161,0.046-15.225-0.225
	c-10.857-0.581-21.696-1.544-32.557-2.038c-12.75-0.581-25.516-0.828-38.274-1.224c-0.564-0.018-1.126-0.077-1.689-0.11
	c-11.792-0.7-23.583-1.407-35.375-2.096c-5.989-0.351-11.99-0.547-17.968-1.028c-10.908-0.877-20.927,0.244-30.292,7.272
	C100.751,113.534,88.66,120.535,77,128.11c0,59.062,0,118.123,0,177.184c4.064,0.686,8.105,1.677,12.198,1.991
	c7.664,0.588,15.358,0.79,23.041,1.145c16.679,0.771,33.355,1.614,50.038,2.277c12.942,0.517,25.894,0.804,38.841,1.197
	c0.75,0.023,1.501,0.086,2.252,0.125c13.672,0.701,27.353,1.273,41.013,2.167c5.384,0.352,9.898-1.283,14.255-4.171
	c11.906-7.894,23.821-15.777,35.862-23.461c3.409-2.175,4.763-4.79,4.698-8.803C299.011,266.105,299.136,254.444,299.136,242.784z
	 M243.084,306.927c-15.066-0.489-30.074-0.889-45.074-1.487c-16.494-0.658-32.981-1.495-49.471-2.262
	c-15.927-0.739-31.858-1.405-47.778-2.278c-5.375-0.294-10.722-1.121-15.842-1.678c-1.659-4.935-1.918-157.26-0.289-163.761
	c1.918-0.236,4.089-0.811,6.23-0.718c13.863,0.604,27.72,1.354,41.58,2.059c0.563,0.028,1.125,0.088,1.688,0.106
	c12.57,0.393,25.146,0.644,37.708,1.213c10.86,0.493,21.702,1.361,32.555,2.029c2.25,0.138,4.51,0.103,6.763,0.187
	c10.314,0.388,20.628,0.772,30.939,1.218c1.078,0.047,2.138,0.496,3.683,0.875c0.234,2.032,0.661,4.023,0.663,6.013
	c0.037,49.833,0.028,99.666,0.031,149.499C246.473,301.174,246.517,304.409,243.084,306.927z M240.941,133.714
	c-3.716-0.453-7.463-0.731-11.205-0.877c-11.815-0.461-23.636-0.788-35.452-1.237c-7.496-0.286-14.992-0.622-22.479-1.07
	c-10.666-0.636-21.324-1.401-31.987-2.098c-1.312-0.086-2.63-0.087-3.945-0.128c-12.57-0.388-25.14-0.769-37.709-1.179
	c-0.905-0.029-1.803-0.269-3.431-0.524c1.064-1.204,1.595-2.127,2.389-2.652c9.093-6.011,18.134-12.11,27.42-17.81
	c2.022-1.241,4.946-1.253,7.475-1.36c2.602-0.111,5.224,0.423,7.843,0.556c14.609,0.742,29.221,1.447,43.831,2.166
	c0.375,0.018,0.75,0.05,1.126,0.061c12.758,0.393,25.522,0.641,38.272,1.22c10.859,0.495,21.697,1.471,32.554,2.038
	c5.44,0.284,10.905,0.047,16.353,0.216c2.555,0.079,5.096,0.561,7.645,0.86c0.104,0.504,0.208,1.008,0.313,1.511
	c-6.22,4.141-12.425,8.304-18.666,12.413c-2.667,1.756-5.553,3.21-8.078,5.143C249.477,133.82,245.399,134.257,240.941,133.714z
	 M285.402,283.873c-8.431,4.925-16.478,10.506-24.704,15.783c-1.667,1.069-3.42,2.003-6.016,3.512
	c-0.301-2.791-0.659-4.564-0.659-6.339c-0.029-50.218,0.006-100.437-0.073-150.655c-0.006-4.237,1.52-6.86,5.214-9.083
	c8.691-5.231,17.085-10.956,25.613-16.459c1.688-1.09,3.438-2.085,6.409-3.877c0.197,3.4,0.415,5.412,0.416,7.425
	c0.019,49.654-0.056,99.309,0.118,148.962C291.739,278.391,289.813,281.297,285.402,283.873z M1084.403,174.264
	c-10.363-23.345-20.995-46.571-31.312-69.937c-1.687-3.818-4.095-5.814-7.913-7.168c-22.839-8.101-45.631-16.336-68.368-24.722
	c-3.711-1.368-7.096-1.608-10.945-0.771c-30.283,6.586-60.601,13.007-90.911,19.471c-10.839,2.311-21.679,4.608-32.523,6.895
	c-3.457,0.729-5.528,2.327-5.932,6.305c-0.644,6.337-2.028,12.596-2.968,18.908c-4.59,30.814-9.137,61.634-13.697,92.452
	c-0.824,5.566-1.639,11.136-2.591,17.599c0.636,1.947,1.307,4.66,2.393,7.197c2.587,6.041,5.382,11.993,8.07,17.991
	c7.221,16.111,14.52,32.187,21.585,48.365c1.979,4.53,5.181,7.055,9.724,8.592c8.718,2.95,17.346,6.165,26.001,9.3
	c13.778,4.987,27.557,9.976,41.315,15.018c3.278,1.201,6.452,1.342,9.917,0.593c24.049-5.197,48.138-10.216,72.206-15.322
	c17.087-3.626,34.168-7.283,51.244-10.961c5.047-1.087,6.188-2.457,6.896-7.432c1.527-10.777,3.07-21.554,4.694-32.316
	c4.678-30.99,9.44-61.968,14.021-92.973C1085.648,179.064,1085.334,176.363,1084.403,174.264z M1042.607,108.54
	c0,1.694,0.225,3.488-0.033,5.209c-4.194,28.009-8.463,56.007-12.683,84.012c-1.308,8.684-2.521,17.383-3.976,27.44
	c-6.69-6.043-12.313-10.947-17.743-16.058c-14.756-13.884-29.399-27.889-44.147-41.782c-10.784-10.159-21.674-20.205-32.487-30.331
	c-1.343-1.257-2.514-2.699-3.814-4.111C932.247,130.247,1036.698,107.998,1042.607,108.54z M871.132,99.26
	c31.766-6.747,63.545-13.43,95.299-20.234c3.092-0.663,5.813-0.373,8.76,0.708c15.862,5.821,31.792,11.463,47.688,17.198
	c2.445,0.883,4.832,1.931,7.245,2.902c0.009,0.413,0.019,0.826,0.028,1.239c-1.582,0.432-3.146,0.944-4.748,1.285
	c-34.148,7.278-68.294,14.569-102.466,21.733c-2.48,0.52-5.4,0.794-7.707-0.003c-19.321-6.672-38.548-13.622-57.802-20.488
	c-0.002-0.392-0.005-0.785-0.007-1.177C861.991,101.366,866.545,100.234,871.132,99.26z M844.711,107.954
	c20.978,7.598,42.056,15.233,63.399,22.964c-0.936,3.871-3.141,6.159-5.28,8.419c-8.127,8.586-16.37,17.064-24.473,25.674
	c-10.671,11.337-21.285,22.728-31.857,34.159c-6.107,6.604-12.08,13.333-18.141,19.98c-0.196,0.216-0.691,0.158-1.047,0.228
	C827.145,209.997,842.08,112.926,844.711,107.954z M906.841,324.785c-14.838-5.337-29.623-10.827-44.504-16.037
	c-3.718-1.303-5.698-3.485-7.233-7.086c-5.372-12.601-11.18-25.016-16.776-37.522c-1.352-3.02-2.523-6.119-3.778-9.182
	c0.361-0.163,0.722-0.326,1.083-0.489c4.881,4.337,9.832,8.601,14.629,13.03c6.891,6.363,13.645,12.872,20.5,19.272
	c10.416,9.728,20.894,19.389,31.288,29.139c2.83,2.654,5.456,5.524,7.69,9.177C908.771,324.996,907.729,325.104,906.841,324.785z
	 M935.529,327.843c-1.138,1.186-2.516,2.139-4.244,3.585c-4.026-3.423-7.988-6.512-11.633-9.938
	c-14.905-14.014-29.685-28.163-44.569-42.199c-11.194-10.557-22.462-21.034-33.731-31.511c-3.571-3.319-7.29-6.479-10.861-9.799
	c-1.334-1.238-2.44-2.725-3.781-4.247c3.283-3.916,6.136-7.616,9.297-11.032c7.009-7.579,14.191-14.997,21.269-22.513
	c12.094-12.844,24.209-25.667,36.219-38.588c6.766-7.279,13.319-14.756,20.018-22.1c0.985-1.08,2.241-1.913,3.74-3.167
	c2.064,1.484,4.188,2.681,5.91,4.306c9.283,8.765,18.413,17.689,27.695,26.456c11.869,11.21,23.816,22.336,35.758,33.469
	c10.155,9.468,20.364,18.876,30.515,28.348c1.491,1.393,2.787,2.994,4.709,5.077c-1.381,2.052-2.447,4.197-4.017,5.872
	c-8.087,8.63-16.408,17.04-24.446,25.714c-11.473,12.382-22.707,24.987-34.168,37.38
	C951.431,311.358,943.457,319.58,935.529,327.843z M1051.256,308.521c-34.132,7.224-68.273,14.403-102.421,21.55
	c-0.449,0.094-1.01-0.344-2.367-0.851c2.834-3.377,5.289-6.595,8.042-9.532c12.951-13.817,26.04-27.506,38.968-41.343
	c10.994-11.766,21.838-23.671,33.854-36.714c10.398,22.277,19.728,43.429,29.213,65.006
	C1054.35,307.433,1052.848,308.186,1051.256,308.521z M1077.778,184.276c-3.721,24.465-7.323,48.948-10.958,73.427
	c-1.541,10.385-3.04,20.775-4.626,31.154c-0.189,1.238-0.808,2.409-1.646,4.815c-2.678-5.583-4.987-10.148-7.082-14.811
	c-5.69-12.662-11.021-25.494-17.054-37.99c-2.522-5.225-3.109-10.256-2.28-15.765c3.739-24.84,7.414-49.692,11.15-74.534
	c1.394-9.27,2.883-18.525,4.356-27.783c0.141-0.885,0.48-1.737,0.729-2.604c0.452-0.111,0.904-0.222,1.356-0.333
	c2.242,4.66,4.586,9.275,6.71,13.988c6.012,13.342,11.864,26.755,17.938,40.067C1077.924,177.309,1078.338,180.602,1077.778,184.276
	z M700.716,185.716c-0.543-9.919-1.203-19.84-2.135-29.73c-0.698-7.408-0.997-14.792-4.586-21.819
	c-5.463-10.694-10.506-21.674-14.7-32.917c-2.472-6.627-6.656-9.766-12.915-11.865c-11.576-3.884-22.943-8.388-34.479-12.398
	c-2.956-1.027-6.215-1.634-9.34-1.653c-22.943-0.135-45.887-0.083-68.831-0.052c-1.87,0.002-3.782,0.085-5.603,0.468
	c-25.004,5.265-49.993,10.609-74.997,15.871c-3.077,0.647-5.578,2.02-7.681,4.344c-4.66,5.15-9.583,10.076-14.013,15.414
	c-1.561,1.88-2.473,4.62-2.867,7.097c-2.625,16.5-5.057,33.032-7.495,49.562c-1.343,9.098-3.282,18.183-3.667,27.327
	c-0.417,9.901,0.476,19.877,1.129,29.8c0.899,13.654,2.036,27.296,3.246,40.928c0.243,2.738,0.894,5.568,1.984,8.084
	c5.756,13.271,11.807,26.413,17.544,39.69c1.7,3.938,4.245,6.233,8.323,7.631c12.619,4.326,25.086,9.097,37.689,13.472
	c2.958,1.027,6.211,1.604,9.34,1.654c11.657,0.191,23.319,0.076,34.979,0.079c7.898,0.002,15.804-0.195,23.695,0.053
	c9.461,0.298,18.744-0.497,27.907-2.934c4.172-1.108,8.438-1.867,12.664-2.766c16.358-3.474,32.734-6.862,49.058-10.489
	c2.644-0.587,5.47-1.736,7.487-3.471c4.267-3.666,8.248-7.717,11.979-11.936c3.329-3.765,5.944-7.739,6.625-13.279
	c2.015-16.391,4.873-32.675,7.331-49.013c1.284-8.538,3.144-17.075,3.437-25.657C702.182,206.737,701.29,196.208,700.716,185.716z
	 M465.461,106.717c4.562-5.632,10.299-8.564,17.586-9.965c22.692-4.364,45.241-9.477,67.864-14.211
	c2.735-0.572,5.582-0.843,8.378-0.853c19.373-0.072,38.746-0.063,58.119-0.006c2.422,0.007,5.002-0.015,7.238,0.757
	c12.256,4.231,24.432,8.699,36.624,13.112c0.861,0.312,1.641,0.849,3.232,1.689c-3.595,4.169-6.588,7.998-9.994,11.413
	c-1.351,1.355-3.537,2.169-5.481,2.592c-19.28,4.194-38.588,8.254-57.889,12.352c-2.022,0.429-4.118,0.643-6.054,1.314
	c-9.402,3.261-19.084,3.605-28.919,3.454c-15.607-0.241-31.222-0.107-46.833-0.036c-4.001,0.019-7.747-0.602-11.538-2.042
	c-10.539-4.005-21.214-7.656-31.824-11.477c-1.554-0.56-3.047-1.287-5.393-2.289C462.47,110.276,463.998,108.523,465.461,106.717z
	 M648.869,125.435c-2.833,19.276-5.736,38.542-8.678,57.802c-0.186,1.22-0.834,2.369-1.432,4.001
	c-7.372-4.817-53.494-48.298-56.376-53.246c21.933-4.651,43.63-9.252,66.201-14.038
	C648.726,122.351,649.089,123.936,648.869,125.435z M455.524,120.145c12.47,4.523,24.179,8.771,36.931,13.397
	c-2.399,3.192-4.041,5.847-6.132,8.081c-8.212,8.768-16.597,17.373-24.854,26.1c-3.737,3.95-7.291,8.073-11.001,12.049
	c-0.95,1.018-2.181,1.774-4.399,3.54C449.307,161.674,452.346,141.376,455.524,120.145z M488.357,320.174
	c-3.704-1.318-7.296-3.166-11.108-3.914c-6.903-1.356-9.81-6.182-12.045-12.018c-1.136-2.965-2.647-5.783-3.915-8.701
	c-0.627-1.44-1.087-2.955-1.809-4.95c5.336,2.106,29.288,23.924,34.57,31.433C491.592,321.228,489.959,320.743,488.357,320.174z
	 M579.934,330.335c-19.74-0.085-39.481,0.034-59.219-0.15c-2.223-0.022-4.892-0.993-6.567-2.438
	c-6.106-5.268-11.896-10.904-17.774-16.435c-13.397-12.605-26.374-25.703-40.353-37.628c-5.988-5.107-8-10.15-8.156-17.712
	c-0.274-13.278-2.039-26.522-2.925-39.797c-0.361-5.41-0.06-10.863-0.06-17.805c2.998-3.318,6.606-7.381,10.288-11.377
	c13.222-14.351,26.467-28.681,39.709-43.014c0.893-0.965,1.937-1.809,2.73-2.847c3.264-4.267,7.504-5.498,12.828-5.414
	c17.292,0.271,34.594,0.27,51.886,0.008c5.891-0.089,10.252,1.759,14.486,5.901c14.491,14.178,29.33,28,44.07,41.921
	c3.955,3.734,7.887,7.517,12.099,10.947c4.51,3.674,5.841,8.549,6.166,13.929c0.824,13.664,1.564,27.332,2.384,40.996
	c0.28,4.676,0.954,9.344,0.932,14.015c-0.01,2.072-0.8,4.548-2.099,6.134c-3.916,4.784-8.234,9.242-12.434,13.793
	c-13.232,14.342-26.51,28.643-39.698,43.024C585.934,328.892,583.455,330.35,579.934,330.335z M655.711,315.371
	c-17.067,3.667-34.149,7.27-51.238,10.834c-1.167,0.243-2.426,0.032-4.976,0.032c15.584-16.783,30.403-32.744,45.224-48.703
	c0.6,0.084,1.201,0.167,1.802,0.251c5.118,11.557,10.235,23.111,15.662,35.361C659.444,314.104,657.625,314.96,655.711,315.371z
	 M694.407,221.136c-2.334,15.979-4.781,31.939-7.182,47.906c-0.95,6.313-2.06,12.607-2.77,18.945
	c-0.592,5.286-2.349,9.751-6.574,13.206c-2.565,2.1-4.845,4.546-7.793,7.352c-1.539-2.963-2.816-5.198-3.89-7.527
	c-4.874-10.576-9.75-21.153-14.475-31.797c-0.884-1.99-1.393-4.268-1.54-6.448c-0.83-12.349-1.487-24.709-2.221-37.064
	c-0.388-6.554-0.813-13.105-1.219-19.658c-0.61-9.847,1.229-19.458,2.707-29.115c2.499-16.331,4.874-32.681,7.298-49.023
	c0.028-0.186,0.07-0.379,0.047-0.561c-1.416-11.468,7.275-16.75,14.759-24.67c2.949,6.308,5.347,11.333,7.652,16.399
	c3.035,6.668,5.91,13.411,9.023,20.042c1.874,3.988,2.773,8.056,2.978,12.483c0.414,8.984,1.333,17.945,1.968,26.921
	c0.504,7.111,0.879,14.231,1.345,21.346c0.233,3.552,0.763,7.101,0.751,10.649C695.26,214.062,694.919,217.628,694.407,221.136z"/>
</svg>
