<?xml version="1.0" encoding="utf-8"?>
<!-- Generator: Adobe Illustrator 16.0.0, SVG Export Plug-In . SVG Version: 6.00 Build 0)  -->
<!DOCTYPE svg PUBLIC "-//W3C//DTD SVG 1.1//EN" "http://www.w3.org/Graphics/SVG/1.1/DTD/svg11.dtd">
<svg version="1.1" id="Ebene_1" xmlns="http://www.w3.org/2000/svg" xmlns:xlink="http://www.w3.org/1999/xlink" x="0px" y="0px"
	 width="342px" height="336.818px" viewBox="0 0 342 336.818" enable-background="new 0 0 342 336.818" xml:space="preserve">
<path d="M154.8,284.058c-3.997,0-8.017-0.266-11.989,0.048c-13.974,1.099-27.266-1.09-40.097-6.904
	c-6.891-3.122-14.292-5.104-21.27-8.059c-2.173-0.92-4.438-2.995-5.426-5.116c-5.651-12.122-10.998-24.388-16.275-36.679
	c-1.019-2.372-1.612-5.049-1.808-7.63c-0.535-7.102-0.621-14.233-1.128-21.337c-0.849-11.856-2.007-23.693-2.761-35.556
	c-0.206-3.245,0.425-6.573,0.906-9.828c2.607-17.592,5.282-35.174,7.951-52.756c0.617-4.065,1.224-8.139,1.995-12.178
	c0.233-1.223,0.767-2.551,1.572-3.475c3.597-4.119,7.478-7.996,10.99-12.184c2.969-3.536,6.823-4.99,11.112-5.894
	c21.582-4.544,43.152-9.141,64.735-13.676c1.447-0.304,2.97-0.353,4.457-0.354c19.822-0.022,39.646-0.126,59.469,0.088
	c3.534,0.038,7.172,1.078,10.558,2.248c10.909,3.771,21.692,7.903,32.591,11.707c3.206,1.119,4.94,2.848,6.302,6.141
	c4.668,11.294,9.822,22.394,15.019,33.459c1.805,3.845,2.576,7.687,2.817,11.915c0.706,12.364,2.056,24.691,2.757,37.058
	c0.701,12.346,1.513,24.681-0.927,37.031c-2.104,10.647-3.29,21.476-4.955,32.212c-1.21,7.801-2.335,15.625-3.932,23.35
	c-0.536,2.593-2.322,4.961-3.714,7.329c-0.57,0.974-1.758,1.571-2.405,2.517c-6.758,9.874-17.124,12.478-28.029,14.58
	c-17.942,3.46-35.775,7.477-53.663,11.221c-1.764,0.369-3.577,0.679-5.37,0.689C174.457,284.093,164.628,284.058,154.8,284.058z
	 M154.687,279.439c7.83,0,15.665-0.184,23.485,0.072c4.266,0.14,6.993-1.041,10.057-4.492
	c13.539-15.265,27.311-30.364,41.772-44.743c5.572-5.54,7.817-11.076,6.792-18.43c-0.25-1.793-0.813-3.56-0.92-5.355
	c-0.732-12.227-1.398-24.458-2.051-36.69c-0.227-4.232-1.175-7.98-4.58-11.032c-8.892-7.97-17.644-16.098-26.336-24.283
	c-8.589-8.09-17.018-16.349-25.553-24.495c-3.426-3.271-7.126-5.174-12.317-5.052c-16.481,0.387-32.98,0.215-49.473,0.079
	c-2.979-0.024-5.006,1.023-6.874,3.163c-5.338,6.109-10.682,12.222-16.201,18.167c-10.503,11.313-21.137,22.506-31.691,33.771
	c-0.771,0.824-1.909,1.843-1.905,2.769c0.018,4.298,0.318,8.601,0.626,12.894c0.954,13.351,2.12,26.689,2.836,40.052
	c0.203,3.785,1.25,6.67,4.004,9.197c9.289,8.523,18.55,17.079,27.716,25.733c8.82,8.328,17.558,16.748,26.226,25.236
	c2.409,2.359,4.97,3.552,8.401,3.49C137.358,279.333,146.022,279.438,154.687,279.439z M238.176,162.443
	c0.828,11.475,1.592,21.371,2.241,31.272c0.436,6.611,0.55,13.247,1.118,19.846c0.322,3.746,0.648,7.694,2.054,11.106
	c4.715,11.448,9.936,22.688,14.906,34.031c0.805,1.835,1.563,2.327,3.11,0.688c2.398-2.545,4.73-5.201,7.422-7.407
	c2.772-2.273,4.099-5.177,4.624-8.471c1.168-7.323,2.106-14.685,3.167-22.025c1.411-9.787,2.314-19.688,4.408-29.327
	c2.563-11.81,2.169-23.61,1.469-35.446c-0.692-11.703-2.241-23.361-2.729-35.068c-0.223-5.319-1.431-10.068-3.672-14.735
	c-0.928-1.933-1.688-3.945-2.567-5.902c-3.457-7.687-6.896-15.383-10.446-23.026c-0.445-0.959-0.544-3.736-2.818-1.223
	c-3.114,3.444-6.384,6.749-9.5,10.192c-0.967,1.068-2.166,2.305-2.384,3.609c-1.197,7.148-2.091,14.349-3.146,21.521
	c-1.536,10.428-3.158,20.843-4.672,31.275C239.766,150.208,238.897,157.083,238.176,162.443z M142.647,100.461
	c8.828,0,17.656,0.018,26.482-0.016c1.484-0.006,3.004-0.057,4.445-0.367c17.857-3.853,35.648-8.031,53.57-11.546
	c10.752-2.109,20.899-4.758,27.624-14.345c0.188-0.269,0.447-0.494,0.704-0.705c2.403-1.98,1.177-2.654-1.027-3.45
	c-9.771-3.527-19.422-7.4-29.268-10.698c-3.998-1.34-8.372-2.09-12.589-2.149c-16.652-0.239-33.313-0.208-49.968-0.021
	c-4.246,0.048-8.534,0.791-12.713,1.649c-17.898,3.678-35.782,7.437-53.628,11.356c-4.246,0.934-8.742,1.927-12.373,4.129
	c-3.597,2.184-6.191,5.983-9.329,8.967c-1.955,1.857-2.272,2.809,0.804,3.813c6.423,2.103,12.76,4.483,19.056,6.945
	c10.853,4.243,21.75,7.826,33.727,6.521C132.938,100.028,137.816,100.462,142.647,100.461z M180.429,103.999
	c-0.132,0.411-0.263,0.822-0.394,1.233c1.844,1.658,3.706,3.297,5.527,4.979c8.883,8.209,17.78,16.4,26.62,24.655
	c6.547,6.114,13.002,12.325,19.526,18.462c0.406,0.382,1.071,0.487,2.092,0.927c1.082-7.765,2.01-15.104,3.146-22.415
	c1.868-12.021,3.926-24.014,5.794-36.034c0.672-4.321-0.309-5.094-4.467-4.217c-10.461,2.203-20.94,4.318-31.395,6.556
	C198.05,100.033,189.244,102.042,180.429,103.999z M195.247,276.794c1.949-0.211,3.612-0.248,5.211-0.586
	c15.435-3.26,30.849-6.604,46.283-9.851c7.854-1.65,8.099-1.68,4.984-9.082c-3.645-8.663-7.764-17.125-11.627-25.696
	c-0.771-1.708-1.007-2.638-2.848-0.511c-5.523,6.382-11.348,12.51-17.144,18.652c-7.287,7.722-14.684,15.339-21.978,23.054
	C197.045,273.924,196.264,275.36,195.247,276.794z M60.389,150.231c0.378,0.178,0.755,0.354,1.133,0.531
	c3.604-4.053,7.13-8.177,10.824-12.143c10.155-10.901,20.339-21.777,30.616-32.563c1.942-2.038,1.436-2.648-0.915-3.471
	c-9.47-3.312-18.875-6.808-28.335-10.147c-4.293-1.518-4.693-0.947-5.307,3.776c-1.332,10.264-2.921,20.493-4.445,30.73
	C62.804,134.713,61.581,142.47,60.389,150.231z M107.64,273.516c0.207-0.314,0.414-0.628,0.62-0.942
	C95.59,260.716,82.921,248.858,70.251,237c3.197,8.53,6.729,16.7,10.402,24.806c0.485,1.068,1.542,2.222,2.604,2.633
	C91.349,267.562,99.504,270.511,107.64,273.516z"/>
</svg>
