<?xml version="1.0" encoding="utf-8"?>
<!-- Generator: Adobe Illustrator 16.0.0, SVG Export Plug-In . SVG Version: 6.00 Build 0)  -->
<!DOCTYPE svg PUBLIC "-//W3C//DTD SVG 1.1//EN" "http://www.w3.org/Graphics/SVG/1.1/DTD/svg11.dtd">
<svg version="1.1" id="Ebene_1" xmlns="http://www.w3.org/2000/svg" xmlns:xlink="http://www.w3.org/1999/xlink" x="0px" y="0px"
	 width="342px" height="336.818px" viewBox="0 0 342 336.818" enable-background="new 0 0 342 336.818" xml:space="preserve">
<path d="M289.261,144.473c-1.404,9.522-2.642,18.001-3.906,26.474c-1.506,10.095-3.046,20.186-4.55,30.28
	c-1.821,12.219-3.585,24.445-5.438,36.66c-1.112,7.319-2.519,14.601-3.445,21.941c-0.327,2.588-1.403,3-3.687,3.476
	c-33.199,6.905-66.371,13.962-99.542,21.011c-2.253,0.479-4.498,1.067-6.673,1.823c-8.42,2.923-15.893-0.689-23.451-3.395
	c-14.285-5.109-28.513-10.378-42.763-15.588c-3.563-1.303-7.174-2.5-10.646-4.016c-1.181-0.516-2.394-1.677-2.927-2.847
	c-8.434-18.486-16.761-37.023-25.11-55.55c-1.288-2.86-2.78-5.652-3.777-8.611c-0.59-1.751-0.741-3.813-0.491-5.655
	c1.351-9.954,2.863-19.887,4.368-29.818c1.825-12.048,3.727-24.084,5.542-36.134c1.521-10.098,2.928-20.21,4.456-30.306
	c0.886-5.854,2.033-11.672,2.811-17.538c0.303-2.287,1.332-2.89,3.435-3.309c10.977-2.189,21.919-4.554,32.859-6.921
	c25.738-5.568,51.442-11.308,77.236-16.599c3.485-0.714,7.624,0.147,11.108,1.322c13.595,4.579,27.051,9.565,40.551,14.425
	c6.828,2.458,13.688,4.844,20.419,7.543c1.624,0.65,3.368,2.152,4.094,3.711c5.509,11.827,10.766,23.769,16.123,35.666
	c3.597,7.982,7.314,15.914,10.802,23.944C287.878,139.275,288.57,142.31,289.261,144.473z M234.733,193.411
	c-0.688-0.808-1.25-1.605-1.946-2.26c-4.72-4.424-9.472-8.813-14.204-13.219c-9.711-9.042-19.452-18.052-29.115-27.146
	c-12.693-11.946-25.306-23.978-37.99-35.933c-3.011-2.837-6.239-5.444-9.228-8.304c-1.499-1.434-2.461-1.091-3.662,0.276
	c-5.022,5.719-9.994,11.488-15.172,17.065c-14.447,15.563-28.973,31.053-43.501,46.54c-6.361,6.78-12.722,13.566-19.262,20.174
	c-2.022,2.042-1.471,3.279,0.344,4.766c2.045,1.675,4.13,3.312,6.068,5.104c9.499,8.781,18.974,17.59,28.421,26.426
	c11.029,10.313,22.047,20.641,33.023,31.01c7.484,7.07,14.946,14.167,22.293,21.38c1.691,1.66,2.749,1.865,4.359,0.018
	c3.484-3.997,7.104-7.875,10.701-11.771c8.21-8.894,16.406-17.801,24.673-26.643c10.652-11.396,21.382-22.721,32.05-34.102
	c3.627-3.867,7.174-7.808,10.751-11.721C233.776,194.59,234.18,194.072,234.733,193.411z M253.146,82.836
	c1.304-4.052-1.884-2.94-3.785-2.542c-18.037,3.781-36.046,7.702-54.064,11.568c-14.485,3.108-28.979,6.185-43.459,9.313
	c-1.387,0.301-2.713,0.872-4.067,1.317c0.909,1.136,1.692,2.408,2.747,3.387c7.902,7.324,15.916,14.529,23.786,21.889
	c12.005,11.225,23.938,22.525,35.872,33.825c7.479,7.08,14.862,14.262,22.389,21.291c1.39,1.297,3.259,2.075,4.906,3.094
	c0.259-1.569,0.52-3.14,0.777-4.708c0.025-0.164,0.037-0.331,0.063-0.495c2.294-14.802,4.582-29.606,6.885-44.407
	c1.57-10.084,3.219-20.155,4.729-30.248C251.068,98.464,252.053,90.785,253.146,82.836z M258.104,85.669
	c-1.29,9.371-2.319,17.548-3.559,25.692c-1.831,12.04-3.843,24.054-5.716,36.088c-2,12.848-4.031,25.692-5.811,38.571
	c-0.395,2.855-0.326,6.008,0.481,8.741c1.114,3.765,3.161,7.25,4.764,10.875c4.938,11.173,9.828,22.367,14.801,33.524
	c1.576,3.536,3.355,6.981,5.041,10.468c1.631-6.545,2.421-13.019,3.399-19.464c1.829-12.042,3.788-24.063,5.654-36.1
	c1.967-12.688,3.892-25.38,5.83-38.071c1.082-7.076,1.395-13.77-2.44-20.581c-4.271-7.584-7.128-15.956-10.696-23.942
	C266.158,103.196,262.346,94.97,258.104,85.669z M245.963,75.482c-0.457-0.504-0.545-0.69-0.683-0.74
	c-18.281-6.657-36.559-13.332-54.873-19.901c-1.489-0.533-3.322-0.744-4.855-0.427c-15.801,3.271-31.579,6.654-47.351,10.062
	c-18.299,3.954-36.584,7.963-55.913,12.175c5.644,1.977,10.435,3.604,15.19,5.33c13.648,4.949,27.269,9.98,40.945,14.853
	c1.632,0.582,3.639,0.808,5.316,0.456c18.209-3.815,36.383-7.803,54.575-11.698C214.09,82.211,229.876,78.892,245.963,75.482z
	 M238.567,198.348c-5.193,5.693-9.953,10.962-14.768,16.177c-8.433,9.133-16.86,18.269-25.361,27.338
	c-11.116,11.86-22.305,23.653-33.45,35.487c-0.809,0.857-1.515,1.813-2.946,3.545c5.101-1.074,9.093-1.911,13.084-2.757
	c15.125-3.205,30.256-6.391,45.375-9.625c13.668-2.926,27.332-5.867,40.979-8.889c4.161-0.922,4.226-1.32,2.414-5.258
	c-2.62-5.696-5.184-11.418-7.766-17.131C250.378,224.505,244.631,211.772,238.567,198.348z M58.932,183.426
	c0.236,0.022,0.473,0.045,0.709,0.067c0.564-0.798,1.045-1.674,1.705-2.383c14.135-15.172,28.284-30.332,42.444-45.481
	c9.856-10.546,19.718-21.087,29.62-31.589c1.485-1.576,1.975-2.244-0.697-3.203c-18.615-6.684-37.156-13.572-55.729-20.374
	c-2.249-0.823-3.219-0.211-3.25,2.447c-0.036,3.112-0.635,6.229-1.109,9.323c-2.246,14.642-4.525,29.276-6.808,43.913
	c-1.597,10.243-3.276,20.474-4.805,30.727C60.193,172.372,59.617,177.907,58.932,183.426z M138.908,277.238
	c0.177-0.305,0.354-0.609,0.53-0.913c-4.676-4.198-9.427-8.316-14.013-12.61c-11.988-11.229-23.915-22.522-35.847-33.813
	c-7.113-6.731-14.166-13.528-21.306-20.231c-1.093-1.025-2.509-1.706-4.421-2.975c2.583,5.797,4.787,10.769,7.012,15.729
	c4.997,11.147,9.954,22.313,15.075,33.404c0.633,1.371,1.963,2.885,3.318,3.387C105.771,265.327,122.348,271.26,138.908,277.238z"/>
</svg>
