<?xml version="1.0" encoding="utf-8"?>
<!-- Generator: Adobe Illustrator 16.0.0, SVG Export Plug-In . SVG Version: 6.00 Build 0)  -->
<!DOCTYPE svg PUBLIC "-//W3C//DTD SVG 1.1//EN" "http://www.w3.org/Graphics/SVG/1.1/DTD/svg11.dtd">
<svg version="1.1" id="Ebene_1" xmlns="http://www.w3.org/2000/svg" xmlns:xlink="http://www.w3.org/1999/xlink" x="0px" y="0px"
	 width="1920px" height="1280px" viewBox="0 0 1920 1280" enable-background="new 0 0 1920 1280" xml:space="preserve">
<g>
	<path fill-rule="evenodd" clip-rule="evenodd" d="M1746.383,1039.096c-4.602,4.95-10.581,6.711-16.981,7.954
		c-14.736,2.864-29.467,5.801-44.071,9.256c-6.269,1.483-12.157,1.03-18.249-0.253c-14.859-3.128-29.8-5.898-44.606-9.255
		c-8.62-1.954-14.662-10.438-14.662-19.276c0-327.037,0-452,0.047-779.038c0-2.534-0.209-5.89,1.22-7.417
		c2.457-2.62,5.903-5.102,9.335-5.888c19.02-4.358,38.161-8.198,57.268-12.176c1.077-0.224,2.275-0.338,3.334-0.116
		c17.791,3.752,35.972,5.516,53.49,10.716c4.022,1.195,7.164,2.915,9.367,6.465c0.886,1.428,2.036,2.699,3.142,3.977
		c1.808,2.088,2.774,4.406,2.466,7.229c-0.139,1.301-0.021,2.632-0.021,3.949c0,311.984,0.018,421.894-0.046,733.878
		C1747.41,1005.629,1746.747,1022.158,1746.383,1039.096z M1677.039,1051.135c-1.37-37.104-0.671-73.563-0.68-110.018
		c-0.066-289.772-0.037-377.469-0.037-667.24c0-1.882,0.044-3.766-0.016-5.645c-0.045-1.458-0.223-2.914-0.383-4.896
		c-13.736-1.188-27.234-2.358-41.266-3.573c0,3.551-0.079,6.331,0.012,9.103c0.296,8.814,0.949,17.627,0.951,26.44
		c0.052,314.798,0.044,427.52,0.044,742.318c0,1.883-0.06,3.766,0.021,5.645c0.059,1.444,0.291,2.881,0.484,4.679
		C1650.008,1048.938,1663.478,1050.66,1677.039,1051.135z M1703.557,262.176c0,1.812-0.035,2.923,0.005,4.032
		c0.321,9.19,0.942,18.38,0.942,27.57c0.052,285.077,0.044,368.081,0.044,653.158c0,32.176,0,64.354,0,96.53c0,1.98,0,3.965,0,6.449
		c11.41-2.439,21.979-4.697,32.754-6.998c0-2.438,0.048-4.305-0.007-6.169c-0.233-7.879-0.711-15.76-0.711-23.639
		c-0.043-147.715-0.034-234.806-0.034-382.519c0-169.729,0-198.006,0-367.736c0-2.398,0-4.797,0-7.708
		C1725.193,257.567,1714.585,259.826,1703.557,262.176z M1702.527,1050.236c-0.361-5.404-0.872-10.046-0.943-14.694
		c-0.229-14.293-0.4-28.591-0.402-42.887c-0.021-308.053-0.016-414.032-0.016-722.085c0-2.589,0-5.18,0-8.241
		c-7.837,0.432-15.014,0.826-22.561,1.24c0,2.981-0.059,5.406,0.012,7.83c0.344,12.204,1.039,24.406,1.042,36.608
		c0.058,311.818,0.044,421.56,0.044,733.377c0,1.693-0.045,3.391,0.016,5.081c0.056,1.442,0.232,2.882,0.41,4.947
		C1687.535,1051.023,1694.575,1050.653,1702.527,1050.236z M1617.624,255.224c0,2.413-0.031,3.902,0.005,5.389
		c0.359,15.593,1.045,31.186,1.049,46.777c0.063,309.532,0.047,416.991,0.047,726.523c0,1.692-0.049,3.388,0.017,5.081
		c0.056,1.45,0.24,2.896,0.387,4.564c4.46,1.216,8.691,2.368,13.036,3.552c0-330.315,0-457.826,0-787.736
		C1627.337,257.998,1622.885,256.727,1617.624,255.224z M1616.472,1040.045c0-3.055,0.032-4.928-0.003-6.797
		c-0.242-12.219-0.61-24.436-0.723-36.653c-0.21-23.142-0.385-46.286-0.387-69.427c-0.024-289.242-0.016-376.408-0.016-665.647
		c0-1.882,0.147-3.779-0.044-5.642c-0.402-3.931-2.877-6.376-6.548-8.922c0,2.701-0.031,4.569,0.004,6.438
		c0.305,16.913,0.738,33.825,0.908,50.739c0.236,23.705,0.387,47.414,0.389,71.121c0.025,284.536,0.029,366.996-0.098,651.533
		C1609.952,1032.166,1611.495,1036.061,1616.472,1040.045z M1738.805,254.761c0,2.025-0.032,3.898,0.003,5.771
		c0.241,12.593,0.61,25.184,0.721,37.778c0.213,23.892,0.387,47.785,0.387,71.677c0.027,288.265,0.019,374.456,0.019,662.721
		c0,2.368,0,4.735,0,7.356c5.566-0.941,5.292-4.557,5.292-8.174c-0.02-325.709-0.019-449.344-0.03-775.053
		c0-1.806-0.153-3.611-0.273-6.172C1742.512,252.28,1740.716,253.48,1738.805,254.761z M1639.711,255.325
		c0.031,0.479,0.063,0.959,0.093,1.439c11.996,1.005,23.99,2.011,36.738,3.078c-0.414-11.143-0.796-21.452-1.214-32.755
		C1662.842,236.986,1651.274,246.155,1639.711,255.325z M1731.198,252.716c0.081-0.372,0.16-0.744,0.239-1.116
		c-15.479-7.565-30.963-15.131-46.513-22.729c-0.323,0.878-0.478,1.096-0.425,1.175c5.918,8.903,11.806,17.827,17.85,26.642
		c0.588,0.858,2.271,1.645,3.249,1.453C1714.156,256.464,1722.671,254.555,1731.198,252.716z M1698.727,258.949
		c-2.878-6.645-16.391-25.946-19.924-28.388c0.313,5.137,0.68,9.972,0.881,14.813c0.197,4.784-0.21,9.603,0.256,14.605
		C1686.625,259.612,1692.563,259.286,1698.727,258.949z M1657.076,231.53c-0.131-0.314-0.263-0.626-0.393-0.94
		c-14.972,4.055-29.941,8.111-45.477,12.319c2.36,2.979,4.296,5.418,6.354,8.012C1631.012,244.319,1644.044,237.925,1657.076,231.53
		z M1623.26,252.086c0.08,0.379,0.156,0.759,0.233,1.139c2.494,0.714,4.953,1.631,7.495,2.058c1.293,0.217,3.066-0.017,4.057-0.78
		c8.27-6.364,16.402-12.898,24.582-19.382c-0.19-0.306-0.38-0.611-0.569-0.917C1647.126,240.164,1635.191,246.125,1623.26,252.086z
		 M1714.877,238.015c-0.193,0.399-0.387,0.796-0.58,1.195c6.836,3.441,13.738,6.761,20.481,10.375
		c3.112,1.669,5.113,0.928,7.3-2.191C1732.764,244.183,1723.819,241.099,1714.877,238.015z M1713.174,232.458
		c7.305,4.514,22.971,9.587,27.882,9.543c-2.37-1.979-3.946-4.281-5.987-4.819C1727.858,235.281,1720.485,233.984,1713.174,232.458z
		"/>
	<path fill-rule="evenodd" clip-rule="evenodd" d="M1352.796,879.326c-4.677,4.42-9.753,6.676-15.684,7.924
		c-53.815,11.327-107.582,22.895-161.368,34.355c-10.097,2.151-20.195,4.307-30.353,6.13c-4.213,0.756-8.583,0.721-12.886,0.908
		c-11.255,0.491-22.512,0.89-33.768,1.361c-4.494,0.189-8.987,0.746-13.471,0.653c-6.182-0.128-12.377-0.5-18.525-1.145
		c-15.842-1.66-31.663-3.534-47.494-5.309c-22.911-2.565-45.818-5.146-68.734-7.662c-14.534-1.598-29.081-3.075-43.62-4.632
		c-11.372-1.218-22.782-2.187-34.093-3.83c-5.898-0.857-11.665-2.791-17.394-4.556c-1.456-0.449-2.751-1.943-3.763-3.235
		c-15.164-19.396-30.253-38.851-45.41-58.253c-1.573-2.015-2.596-4.055-2.269-6.676c0.137-1.113,0.021-2.256,0.021-3.385
		c0-184.435,0-207.21,0.001-391.645c0-1.882-0.14-3.781,0.077-5.638c0.117-1.006,0.599-2.261,1.35-2.85
		c3.529-2.76,7.022-5.455,11.676-6.437c56.562-11.943,113.1-23.999,169.645-36.023c7.16-1.522,14.283-3.278,21.501-4.449
		c5.347-0.869,10.813-1.116,16.24-1.371c12.191-0.572,24.391-0.957,36.586-1.464c3.744-0.156,7.489-0.743,11.221-0.635
		c5.99,0.172,11.988,0.594,17.954,1.205c11.931,1.223,23.841,2.647,35.759,3.981c19.746,2.21,39.489,4.439,59.239,6.611
		c11.183,1.23,22.375,2.339,33.556,3.543c21.996,2.368,44.007,4.584,65.963,7.269c5.717,0.699,11.291,2.756,16.836,4.492
		c1.461,0.457,2.803,1.862,3.801,3.141c15.16,19.399,30.284,38.824,45.298,58.336c1.16,1.505,1.614,3.657,2.044,5.587
		c0.316,1.435,0.063,2.997,0.063,4.502c0,175.024,0,188.39,0,363.416C1352.796,855.398,1352.796,867.249,1352.796,879.326z
		 M872.828,503.356c0,188.299,0,214.308,0,402.538c20.61,1.714,40.934,3.365,61.25,5.108c20.35,1.744,40.691,3.596,61.039,5.376
		c20.536,1.794,41.062,3.728,61.613,5.284c20.26,1.535,40.477,3.743,60.931,4.914c0-188.346,0-214.219,0-401.842
		c-1.06-0.384-1.905-0.9-2.788-0.977c-9.523-0.832-19.051-1.61-28.58-2.371c-11.591-0.925-23.187-1.756-34.77-2.743
		c-15.118-1.289-30.225-2.733-45.345-4.032c-11.396-0.979-22.809-1.774-34.204-2.757c-14.932-1.288-29.854-2.68-44.782-4.027
		c-12.131-1.096-24.259-2.231-36.394-3.264C885.022,504.073,879.229,503.779,872.828,503.356z M1342.155,883.79
		c0-188.465,0-214.345,0-402.583c-65.517,13.927-130.587,27.759-195.712,41.604c0,188.214,0,214.256,0,402.584
		C1211.951,911.469,1277.046,897.632,1342.155,883.79z M806.239,438.121c0,4.647,0,8.319,0,11.991c0,180.45,0,199.24,0,379.69
		c0,1.507,0.092,3.018-0.02,4.516c-0.19,2.569,0.58,4.688,2.186,6.739c14.023,17.895,27.972,35.851,41.968,53.767
		c0.61,0.783,1.471,1.37,2.171,2.007c0-4.385,0-8.45,0-12.517c0-180.825-0.013-199.993,0.075-380.819
		c0.001-4.383-1.1-7.787-3.862-11.257c-12.868-16.172-25.448-32.573-38.146-48.881C809.396,441.794,808.075,440.313,806.239,438.121
		z M1077.561,384.611c-66.788,38.342-132.969,76.336-199.983,114.81c1.762,0.7,2.4,1.135,3.069,1.193
		c22.215,1.922,44.432,3.831,66.652,5.694c19.047,1.598,38.104,3.086,57.15,4.716c20.532,1.757,41.055,3.64,61.586,5.433
		c13.438,1.172,26.882,2.334,40.332,3.38c3.325,0.257,6.686,0.037,10.859,0.037C1104.039,474.906,1090.959,430.307,1077.561,384.611
		z M1145.703,519.464c63.714-13.548,126.851-26.973,189.984-40.399c0.023-0.426,0.047-0.854,0.072-1.282
		c-84.144-30.722-168.285-61.443-252.426-92.166c-0.236,0.317-0.478,0.634-0.714,0.951
		C1103.533,430.626,1124.447,474.684,1145.703,519.464z M1143.752,926.2c0-3.356,0.074-5.958-0.017-8.553
		c-0.292-8.624-0.919-17.248-0.93-25.871c-0.077-69.796-0.045-139.595-0.045-209.392c0-104.413,0-47.167,0-151.581
		c0-2.374,0-4.748,0-7.64c-7.823,0.449-14.838,0.853-21.459,1.232c0,186.872,0,211.416,0.009,397.62
		c0,1.128,0.102,2.253,0.192,3.376c0.013,0.157,0.209,0.302,0.327,0.445c0.119,0.141,0.25,0.274,0.328,0.363
		C1129.117,926.2,1136.027,926.2,1143.752,926.2z M1063.521,387.809c-0.152-0.365-0.303-0.731-0.454-1.096
		c-16.939,3.112-33.887,6.189-50.818,9.346c-16.956,3.159-33.891,6.435-50.847,9.591c-17.142,3.19-34.302,6.286-51.45,9.44
		c-16.963,3.122-33.947,6.139-50.879,9.429c-16.781,3.26-33.676,5.976-51.157,9.761c16.035,20.587,31.443,40.37,46.845,60.143
		C924.763,458.673,994.143,423.241,1063.521,387.809z M854.807,498.603c0,2.967-0.055,5.008,0.01,7.047
		c0.353,11.256,1.057,22.513,1.062,33.769c0.069,171.958,0.048,182.258,0.048,354.216c0,2.428,0,4.856,0,7.663
		c4.698,1.354,9.12,2.631,14.29,4.12c0-3.747,0.074-6.711-0.014-9.671c-0.338-11.447-1.045-22.894-1.05-34.339
		c-0.069-171.02-0.048-180.378-0.048-351.396c0-2.411,0-4.82,0-7.377C864.355,501.296,860.079,500.09,854.807,498.603z
		 M1101.359,386.695c-0.08,0.357-0.158,0.715-0.237,1.073c81.58,27.109,163.159,54.219,244.739,81.329
		c-4.081-6.881-8.707-12.782-13.305-18.706c-9.332-12.027-18.629-24.083-27.998-36.08c-1.33-1.704-2.486-3.445-5.25-3.706
		c-9.326-0.878-18.614-2.179-27.918-3.295c-23.086-2.772-46.176-5.475-69.252-8.309c-29.02-3.565-58.028-7.247-87.045-10.848
		C1110.527,387.587,1105.938,387.178,1101.359,386.695z M1350.544,477.594c-4.683,1.092-5.859,3.641-5.713,7.568
		c0.423,11.265,0.636,22.54,0.789,33.812c0.206,14.862,0.383,29.726,0.383,44.589c0.028,157.336,0.021,153.012,0.021,310.346
		c0,2.146,0,4.295,0,6.643c5-0.961,5.767-3.809,5.691-7.598c-0.46-23.31-1.105-46.621-1.121-69.933
		c-0.094-159.781-0.05-157.904-0.05-317.686C1350.544,482.899,1350.544,480.462,1350.544,477.594z M1089.574,409.204
		c-0.377,0.13-0.754,0.261-1.133,0.392c10.9,37.121,21.803,74.241,32.678,111.267c7.161-0.417,13.568-0.792,20.872-1.218
		C1124.258,482.277,1106.916,445.741,1089.574,409.204z M994.395,428.336c-0.197-0.353-0.393-0.708-0.589-1.062
		c-44.555,22.749-89.109,45.497-134.104,68.471c6.564,3.536,11.688,3.567,17.887-0.068c35.62-20.888,71.548-41.25,107.367-61.798
		C988.119,432.063,991.249,430.186,994.395,428.336z M1041.613,386.565c-11.199-0.892-22.377-1.566-33.367,0.673
		c-20.564,4.189-41.069,8.678-61.592,13.074c-9.135,1.958-18.256,3.991-27.381,5.991c0.063,0.313,0.127,0.625,0.19,0.939
		C960.18,400.35,1000.896,393.457,1041.613,386.565z M1229.854,434.124c-0.146,0.313-0.291,0.626-0.438,0.94
		c0.832,0.412,1.634,0.905,2.502,1.224c15.158,5.528,30.331,11.017,45.487,16.551c20.799,7.597,41.599,15.194,62.37,22.872
		c3.063,1.134,5.695,1.563,7.949-2.355C1308.326,460.242,1269.091,447.183,1229.854,434.124z M1057.38,925.168
		c-0.023,0.278-0.048,0.557-0.071,0.835c8.987,0.924,17.975,1.847,26.963,2.771c0.037-0.436,0.077-0.874,0.116-1.311
		C1075.386,926.697,1066.383,925.932,1057.38,925.168z"/>
	<path fill-rule="evenodd" clip-rule="evenodd" d="M661.314,698.903c-4.648,4.324-9.579,6.79-15.561,8.034
		c-49.784,10.36-99.512,20.979-149.249,31.56c-13.031,2.771-25.97,6.015-39.063,8.431c-13.555,2.502-27.329,2.096-41.02,1.201
		c-11.963-0.78-23.885-2.158-35.829-3.226c-19.969-1.784-39.939-3.558-59.915-5.278c-10.458-0.9-20.93-1.645-31.39-2.522
		c-17.555-1.473-35.104-2.998-52.657-4.495c-18.3-1.563-36.628-2.871-54.888-4.815c-6.083-0.647-12.025-2.803-17.959-4.52
		c-1.297-0.375-2.494-1.651-3.382-2.79c-15.382-19.692-30.743-39.4-45.977-59.207c-1.145-1.491-1.811-3.733-1.833-5.639
		c-0.159-12.979-0.032-25.963-0.128-38.944c-0.018-2.494,0.648-4.251,2.786-5.663c3.122-2.062,5.988-4.247,9.895-5.067
		c43.89-9.208,87.744-18.591,131.61-27.914c20.373-4.33,40.676-9.048,61.159-12.778c11.394-2.074,23.067-2.505,34.735-1.319
		c11.562,1.175,23.172,1.861,34.753,2.862c14.929,1.292,29.847,2.729,44.778,4.017c11.396,0.984,22.808,1.776,34.203,2.753
		c15.118,1.297,30.225,2.729,45.343,4.032c11.208,0.966,22.427,1.786,33.637,2.73c16.243,1.369,32.511,2.534,48.706,4.333
		c5.521,0.613,10.894,2.763,16.253,4.466c1.291,0.412,2.451,1.693,3.341,2.833c15.27,19.535,30.521,39.085,45.651,58.73
		c1.152,1.496,1.895,3.716,1.915,5.609C661.387,670.425,661.314,684.533,661.314,698.903z M286.412,636.466
		c-2.167,0.575-4.382,1.018-6.497,1.746c-35.672,12.294-71.332,24.62-106.988,36.961c-0.995,0.346-1.903,0.938-3.508,1.745
		c4.743,1.284,8.292,3.611,13.015,1.717c33.454-13.423,67-26.619,100.495-39.942c1.237-0.492,2.247-1.561,3.377-2.344
		c2.015,0.735,3.417-0.149,4.41-2.072C289.28,635.006,287.846,635.735,286.412,636.466z M189.014,679.67
		c0.082,0.28,0.165,0.559,0.247,0.84c2.177,0.36,4.341,0.874,6.533,1.06c14.747,1.243,29.502,2.386,44.25,3.621
		c17.542,1.469,35.08,3.019,52.622,4.493c10.642,0.896,21.294,1.66,31.933,2.575c15.109,1.303,30.21,2.69,45.315,4.046
		c12.123,1.089,24.24,2.234,36.368,3.264c6.103,0.519,12.222,0.843,19.217,1.314c-13.306-33.455-26.317-66.171-39.497-99.308
		C319.972,627.753,254.492,653.712,189.014,679.67z M453.917,699.9c63.118-13.424,125.428-26.675,187.795-39.938
		c-0.21-0.574-0.244-0.886-0.345-0.909c-74.82-17.064-149.641-34.121-224.469-51.144c-8.042-1.829-16.125-3.467-24.192-5.178
		c-0.156-0.033-0.393,0.076-0.514,0.195c-0.104,0.101-0.098,0.314-0.268,0.968C412.415,635.626,433.09,667.645,453.917,699.9z
		 M180.907,725.258c1.614,0.274,2.874,0.574,4.15,0.691c11.382,1.04,22.763,2.094,34.152,3.058
		c19.24,1.629,38.485,3.18,57.727,4.796c17.557,1.473,35.11,3.01,52.668,4.472c10.463,0.873,20.94,1.581,31.399,2.502
		c21.608,1.907,43.207,3.906,65.069,5.889c0-13.955,0-27.773,0-41.722c-1.209-0.279-2.092-0.6-2.996-0.679
		c-8.401-0.735-16.805-1.422-25.208-2.139c-17.553-1.493-35.106-3.017-52.661-4.489c-10.463-0.876-20.938-1.621-31.398-2.522
		c-19.977-1.721-39.947-3.538-59.923-5.263c-11.021-0.951-22.057-1.729-33.077-2.708c-13.213-1.172-26.414-2.476-39.903-3.751
		C180.907,697.222,180.907,710.913,180.907,725.258z M455.002,745.074c65.749-13.972,130.792-27.793,195.76-41.598
		c1.121-10.996,0.65-37.754-0.794-41.75c-64.841,13.772-129.719,27.553-194.965,41.41
		C455.002,716.714,455.002,730.535,455.002,745.074z M163.228,674.972c69.639-24.107,138.734-48.026,207.829-71.943
		c-0.07-0.392-0.14-0.783-0.21-1.174c-1.401,0-2.808-0.075-4.203,0.012c-9.535,0.59-19.064,1.288-28.604,1.808
		c-9.552,0.52-19.118,0.815-28.671,1.316c-12.168,0.64-24.328,1.433-36.495,2.075c-10.116,0.534-20.241,0.905-30.358,1.42
		c-12.169,0.621-24.334,1.347-36.502,1.972c-10.118,0.521-20.239,0.957-30.358,1.439c-13.673,0.65-27.347,1.283-41.017,1.978
		c-5.671,0.29-11.337,0.724-18.066,1.159C132.563,635.579,147.767,655.109,163.228,674.972z M655.152,650.648
		c-0.228-1.34-0.17-1.793-0.367-2.046c-14.166-18.262-28.367-36.499-42.514-54.777c-1.288-1.665-2.762-2.343-4.819-2.194
		c-4.297,0.311-8.601,0.582-12.906,0.759c-11.443,0.47-22.89,0.829-34.331,1.329c-14.62,0.639-29.233,1.436-43.854,2.049
		c-11.444,0.481-22.896,0.794-34.345,1.17c-4.509,0.148-9.022,0.191-13.528,0.41c-11.799,0.572-23.595,1.246-35.393,1.819
		c-9.1,0.442-18.204,0.792-27.305,1.184c-0.016,0.325-0.032,0.649-0.046,0.975C488.689,617.729,571.635,634.133,655.152,650.648z
		 M378.567,597.794c-0.95-1.032-1.146-1.394-1.451-1.554c-17.825-9.313-35.672-18.583-53.476-27.938
		c-2.126-1.117-4.083-1.272-6.423-0.76c-13.75,3.007-27.537,5.845-41.306,8.768c-34.517,7.326-69.031,14.659-103.543,22.007
		c-8.766,1.867-17.518,3.798-26.276,5.7c7.171,0.729,14.216,0.324,21.266,0.069c11.826-0.429,23.653-0.776,35.48-1.135
		c12.953-0.393,25.907-0.75,38.86-1.143c11.825-0.359,23.647-0.78,35.472-1.11c14.834-0.416,29.669-0.76,44.503-1.146
		c14.647-0.382,29.293-0.763,43.94-1.18C369.679,598.258,373.741,598.014,378.567,597.794z M353.285,566.339
		c-0.14,0.468-0.28,0.936-0.421,1.403c10.941,9.414,21.833,18.888,32.893,28.16c1.245,1.043,3.453,1.368,5.191,1.315
		c5.617-0.173,11.224-0.704,16.837-1.047c8.801-0.538,17.611-0.961,26.407-1.567c13.459-0.927,26.909-2.006,40.367-2.945
		c8.607-0.602,17.229-1.005,25.838-1.609c13.083-0.921,26.157-1.971,39.239-2.908c8.732-0.625,17.472-1.149,26.208-1.718
		c-1.833-0.902-3.628-1.475-5.46-1.636c-22.03-1.927-44.066-3.79-66.101-5.675c-17.552-1.502-35.103-3.028-52.657-4.509
		c-23.534-1.986-47.069-3.949-70.605-5.903C365.111,567.211,359.197,566.792,353.285,566.339z M115.98,619.914
		c-0.404,0.188-0.809,0.375-1.212,0.564c0,11.819-0.108,23.641,0.114,35.456c0.035,1.821,1.3,3.839,2.492,5.385
		c13.398,17.372,26.887,34.674,40.375,51.978c0.729,0.936,1.659,1.712,3.314,3.394c0-2.595,0-4.031,0-5.468
		c0-9.577-0.149-19.16,0.079-28.73c0.083-3.45-0.982-6.063-3.062-8.686c-9.667-12.199-19.208-24.498-28.786-36.769
		C124.847,631.336,120.418,625.622,115.98,619.914z M449.537,699.45c-17.26-26.722-34.269-53.057-51.278-79.392
		c-0.336,0.184-0.672,0.367-1.009,0.551c10.67,26.783,21.341,53.567,32.151,80.704C436.085,700.129,442.672,701.884,449.537,699.45z
		 M451.313,745.848c-0.206-14.641,0.318-28.381-0.332-42.253c-7.392,0.424-14.029,0.805-20.754,1.189c0,14.07,0,27.622,0,41.063
		C437.298,745.848,443.953,745.848,451.313,745.848z M176.996,682.931c-4.227-1.206-8.092-2.307-12.291-3.504
		c0,14.314,0,27.935,0,41.727c4.111,1.18,8.027,2.303,12.291,3.524C176.996,710.673,176.996,697.078,176.996,682.931z
		 M553.911,634.149c-0.116,0.259-0.231,0.519-0.347,0.779c0.323,0.172,0.627,0.426,0.971,0.504
		c20.105,4.582,40.211,9.148,60.319,13.718c10.971,2.493,21.938,5.002,32.915,7.467c2.66,0.597,5.451,1.418,7.692-2.412
		C621.33,647.465,587.62,640.806,553.911,634.149z M328.543,566.989c14.346,7.566,27.556,14.653,41.354,20.697
		c-6.364-6.205-13.387-11.576-19.584-17.772c-4.167-4.167-8.731-4.567-13.855-4.142
		C334.239,565.956,332.043,566.438,328.543,566.989z M654.414,700.5c3.067-1.158,5.134-1.865,5.062-5.117
		c-0.243-11.051-0.274-22.104-0.433-33.156c-0.02-1.356-0.315-2.71-0.576-4.806c-2.123,1.547-3.563,2.597-4.053,2.954
		C654.414,674.293,654.414,687.148,654.414,700.5z M121.734,609.163c-0.017,0.657-0.035,1.313-0.052,1.97
		c17.832-0.941,35.664-1.883,53.496-2.824c-0.012-0.271-0.024-0.542-0.037-0.814C157.338,608.051,139.536,608.607,121.734,609.163z
		 M553.57,589.509c0.013,0.3,0.026,0.6,0.039,0.899c14.649-0.535,29.299-1.07,44.75-1.635c-1.215-0.796-1.815-1.535-2.378-1.507
		C581.842,587.964,567.707,588.744,553.57,589.509z"/>
</g>
<rect fill-rule="evenodd" clip-rule="evenodd" fill="none" width="1920" height="1280"/>
</svg>
