<?xml version="1.0" encoding="utf-8"?>
<!-- Generator: Adobe Illustrator 16.0.0, SVG Export Plug-In . SVG Version: 6.00 Build 0)  -->
<!DOCTYPE svg PUBLIC "-//W3C//DTD SVG 1.1//EN" "http://www.w3.org/Graphics/SVG/1.1/DTD/svg11.dtd">
<svg version="1.1" id="Ebene_1" xmlns="http://www.w3.org/2000/svg" xmlns:xlink="http://www.w3.org/1999/xlink" x="0px" y="0px"
	 width="342px" height="336.818px" viewBox="0 0 342 336.818" enable-background="new 0 0 342 336.818" xml:space="preserve">
<path d="M178.342,34.344c2.98,0.818,6.527,1.568,9.916,2.762c10.892,3.833,21.754,7.752,32.557,11.823
	c2.239,0.844,4.461,2.181,6.209,3.809c12.514,11.664,24.852,23.514,37.348,35.193c6.174,5.768,12.691,11.166,18.78,17.017
	c1.806,1.734,2.86,4.354,3.951,6.709c5.136,11.098,9.858,22.396,15.342,33.316c3.459,6.893,1.772,13.517,0.761,20.325
	c-1.474,9.937-2.967,19.873-4.465,29.807c-1.67,11.073-3.324,22.149-5.08,33.209c-0.168,1.051-0.884,2.115-1.598,2.959
	c-2.564,3.034-5.161,6.051-7.889,8.94c-7.068,7.493-14.285,14.848-21.307,22.385c-6.099,6.547-12.136,13.159-17.953,19.954
	c-3.033,3.543-6.89,4.858-11.179,5.746c-18.379,3.803-36.745,7.669-55.108,11.536c-3.547,0.746-7.049,1.712-10.609,2.376
	c-5.668,1.058-10.786-1.3-15.892-3.093c-9.649-3.39-19.06-7.496-28.808-10.547c-5.407-1.69-9.091-5.347-12.919-8.813
	c-8.743-7.918-17.022-16.346-25.625-24.423c-7.371-6.922-14.872-13.709-22.431-20.427c-3.695-3.284-6.222-7.261-8.182-11.72
	c-5.32-12.096-10.74-24.146-15.998-36.27c-0.611-1.408-0.813-3.199-0.597-4.729c1.446-10.271,3.026-20.524,4.621-30.774
	c1.874-12.039,4.479-24.015,5.464-36.123c0.609-7.48,4.568-11.897,9.206-16.76C69.911,84.847,82.892,71.076,95.4,56.896
	c4.991-5.657,11.012-7.8,17.924-9.198c19.529-3.951,39.012-8.142,58.516-12.22C173.769,35.078,175.721,34.799,178.342,34.344z
	 M280.17,111.168c-0.392-0.676-0.949-2.259-2.017-3.345c-1.843-1.877-4.09-3.35-6.01-5.158
	c-12.679-11.951-25.298-23.963-37.976-35.917c-3.612-3.408-7.262-6.792-11.088-9.954c-0.896-0.739-2.656-0.928-3.885-0.688
	c-10.172,1.993-20.316,4.13-30.462,6.255c-11.592,2.43-23.187,4.853-34.759,7.371c-2.138,0.465-4.174,0.709-4.436,4.105
	c-0.556,7.205-1.854,14.356-2.967,21.513c-2.147,13.808-4.422,27.595-6.484,41.414c-0.153,1.034,0.703,2.526,1.54,3.345
	c2.599,2.54,5.473,4.795,8.136,7.272c10.202,9.482,20.381,18.992,30.535,28.525c6.533,6.134,13.051,12.285,19.484,18.521
	c1.686,1.632,3.03,2.219,5.608,1.513c6.491-1.778,13.176-2.853,19.771-4.26c13.834-2.953,27.672-5.889,41.471-8.996
	c1.287-0.291,3.123-1.613,3.322-2.709c1.271-6.958,2.131-13.989,3.172-20.99c1.57-10.574,3.194-21.145,4.768-31.72
	C278.646,122.22,279.326,117.162,280.17,111.168z M269.32,188.218c-1.9,0.104-2.755,0.041-3.558,0.212
	c-20.273,4.309-40.548,8.616-60.798,13.024c-1.368,0.297-2.848,1.117-3.795,2.141c-5.063,5.457-9.879,11.146-14.959,16.587
	c-11.097,11.887-22.266,23.705-33.476,35.484c-4.222,4.436-4.21,4.304-1.535,10.092c3.948,8.54,7.668,17.186,11.61,25.729
	c3.418,7.408,1.355,6.269,9.268,4.705c18.236-3.604,36.356-7.791,54.576-11.478c6.609-1.338,12.86-2.899,16.963-8.854
	c0.936-1.356,1.862-2.748,2.985-3.942c11.247-11.975,22.549-23.896,33.796-35.868c2.035-2.165,3.744-4.649,5.872-6.709
	c1.628-1.575,1.554-2.896,0.679-4.778c-5.287-11.378-10.445-22.814-15.729-34.192C270.746,189.346,269.674,188.603,269.32,188.218z
	 M144.172,73.589c0.46-2.572-0.497-3.611-3.141-4.524c-11.688-4.032-23.272-8.377-34.795-12.861
	c-2.183-0.85-2.567,0.517-3.486,1.497c-9.522,10.185-19.012,20.4-28.559,30.563c-6.482,6.901-13.068,13.708-19.534,20.627
	c-0.845,0.904-1.617,2.169-1.794,3.36c-1.788,12.062-3.363,24.153-5.163,36.214c-1.481,9.928-3.115,19.835-4.833,29.724
	c-0.571,3.289,0.82,4.946,3.704,5.96c10.271,3.611,20.558,7.189,30.768,10.97c2.284,0.846,3.816,0.407,5.291-1.253
	c2.64-2.972,5.225-5.994,7.94-8.896c10.669-11.393,21.394-22.733,32.07-34.119c3.742-3.992,7.433-8.035,11.081-12.113
	c0.626-0.699,1.187-1.652,1.327-2.559c0.479-3.095,0.667-6.234,1.126-9.334c1.497-10.101,3.077-20.189,4.6-30.287
	C141.929,88.906,143.042,81.247,144.172,73.589z M196.424,199.854c-0.641-0.609-1.203-1.157-1.777-1.693
	c-5.093-4.76-10.212-9.489-15.275-14.278c-12.911-12.211-25.895-24.347-38.617-36.752c-2.719-2.651-4.157-2.671-6.616,0.088
	c-7.614,8.54-15.391,16.938-23.224,25.28c-7.622,8.114-15.342,16.142-23.135,24.092c-1.775,1.811-2.014,3.026-0.035,4.795
	c4.702,4.199,9.307,8.508,13.887,12.841c13.149,12.443,26.297,24.889,39.382,37.399c4.414,4.221,4.216,4.213,8.179-0.317
	c5.892-6.732,11.875-13.388,17.971-19.934c7.021-7.538,14.23-14.898,21.306-22.387c2.27-2.4,4.375-4.959,6.55-7.447
	C195.446,201.047,195.854,200.539,196.424,199.854z M158.472,295.81c-5.419-11.947-10.306-22.768-15.261-33.558
	c-0.445-0.971-1.233-1.845-2.029-2.582c-8.748-8.113-17.587-16.129-26.283-24.298c-8.229-7.729-16.267-15.66-24.488-23.397
	c-3.852-3.625-7.403-8.215-12.023-10.246c-10.531-4.631-21.639-7.951-33.315-12.089c0.987,2.298,1.604,3.796,2.27,5.271
	c2.107,4.664,4.403,9.252,6.314,13.995c3.979,9.877,8.174,19.563,16.979,26.313c1.964,1.506,3.908,3.059,5.713,4.748
	c11.502,10.77,23.135,21.408,34.367,32.454c5.826,5.729,11.546,10.986,19.753,13.372
	C139.589,288.445,148.403,292.155,158.472,295.81z M289.744,216.917c0.289-0.173,0.577-0.347,0.866-0.52
	c1.167-7.313,2.373-14.623,3.491-21.943c1.641-10.744,3.29-21.487,4.777-32.251c0.465-3.362,1.529-7.226,0.408-10.117
	c-3.877-10.002-8.578-19.686-13.018-29.465c-0.396-0.869-1.161-1.569-1.955-2.611c-1.247,7.938-2.426,15.252-3.539,22.574
	c-1.633,10.744-3.298,21.483-4.792,32.248c-0.667,4.805-1.905,9.528,1.229,14.312c2.406,3.667,3.553,8.146,5.369,12.214
	C284.914,206.567,287.354,211.73,289.744,216.917z M212.689,51.592c-11.669-4.235-22.193-8.104-32.77-11.831
	c-1.338-0.472-3.008-0.521-4.408-0.219c-20.223,4.344-40.427,8.78-61.217,13.321c1.221,0.698,1.982,1.293,2.847,1.604
	c8.692,3.12,17.435,6.104,26.09,9.322c3.525,1.31,6.748,1.263,10.46,0.39c11.855-2.792,23.85-5.002,35.773-7.504
	C196.862,55.123,204.233,53.447,212.689,51.592z"/>
</svg>
