<?xml version="1.0" encoding="utf-8"?>
<!-- Generator: Adobe Illustrator 16.0.0, SVG Export Plug-In . SVG Version: 6.00 Build 0)  -->
<!DOCTYPE svg PUBLIC "-//W3C//DTD SVG 1.1//EN" "http://www.w3.org/Graphics/SVG/1.1/DTD/svg11.dtd">
<svg version="1.1" id="Ebene_1" xmlns="http://www.w3.org/2000/svg" xmlns:xlink="http://www.w3.org/1999/xlink" x="0px" y="0px"
	 width="112.809px" height="80px" viewBox="103.483 73.385 112.809 80" enable-background="new 103.483 73.385 112.809 80"
	 xml:space="preserve">
<g>
	<rect x="103.483" y="73.385" fill="#FFFFFF" width="112.809" height="80"/>
	<g>
		<path d="M143.239,120.106c0,0.627-0.412,0.873-0.739,0.873c-0.433,0-0.643-0.306-0.643-0.761v-2.614h-0.612v2.875
			c0,0.642,0.358,0.971,1.016,0.971c0.395,0,0.753-0.187,0.956-0.53h0.022v0.455h0.649c-0.022-0.261-0.038-0.522-0.038-0.783v-2.987
			h-0.612V120.106L143.239,120.106z"/>
		<path d="M147.614,121.375v-2.613c0-0.746-0.202-1.231-1.007-1.231c-0.486,0-0.77,0.135-1.008,0.561h-0.03v-0.486h-0.65
			c0.022,0.262,0.037,0.522,0.037,0.784v2.986h0.613v-2.232c0-0.515,0.096-1.111,0.768-1.111c0.522,0,0.664,0.328,0.664,0.73v2.613
			H147.614L147.614,121.375z"/>
		<path d="M150.623,119.337c0,0.761,0,1.613-0.687,1.613c-0.769,0-0.769-0.822-0.769-1.39c0-1.008,0.09-1.531,0.747-1.531
			C150.593,118.03,150.623,118.837,150.623,119.337L150.623,119.337z M150.623,117.984h-0.022c-0.209-0.298-0.47-0.454-0.828-0.454
			c-1.218,0-1.248,1.082-1.248,2.023c0,1.657,0.612,1.896,1.217,1.896c0.396,0,0.657-0.172,0.866-0.523h0.015v0.448h0.612v-5.391
			h-0.612V117.984L150.623,117.984z"/>
		<polygon points="154.497,121.375 154.497,118.911 156.379,118.911 156.379,118.313 154.497,118.313 154.497,116.581 
			156.483,116.581 156.483,115.984 153.81,115.984 153.81,121.375 		"/>
		<path d="M158.364,120.95c-0.635,0-0.792-0.441-0.792-1.666c0-1.031,0.32-1.255,0.792-1.255c0.47,0,0.792,0.224,0.792,1.255
			C159.155,120.509,158.998,120.95,158.364,120.95L158.364,120.95z M158.364,121.45c0.799,0,1.433-0.239,1.433-1.904
			c0-1.105-0.126-2.016-1.433-2.016c-1.307,0-1.434,0.91-1.434,2.016C156.93,121.211,157.564,121.45,158.364,121.45L158.364,121.45z
			"/>
		<path d="M161.365,117.604h-0.612v3.771h0.612v-2.225c0-0.508,0.171-1.023,0.85-1.023c0.112,0,0.218,0.023,0.33,0.038v-0.635
			c-0.598,0-0.91,0.066-1.164,0.642h-0.016V117.604L161.365,117.604z"/>
		<path d="M165.602,120.3c0-1.149-1.883-1.135-1.883-1.8c0-0.328,0.256-0.507,0.583-0.507c0.389,0,0.598,0.208,0.591,0.604h0.68
			c0.051-0.746-0.522-1.066-1.194-1.066c-1.062,0-1.301,0.635-1.301,1.029c0,1.128,1.883,1.143,1.883,1.814
			c0,0.389-0.284,0.576-0.651,0.576c-0.618,0-0.626-0.508-0.626-0.725h-0.694c-0.023,0.865,0.485,1.225,1.299,1.225
			C165.034,121.45,165.602,121.129,165.602,120.3L165.602,120.3z"/>
		<path d="M168.982,118.813c0.038-0.845-0.403-1.283-1.157-1.283c-1.306,0-1.434,0.91-1.434,2.016c0,1.665,0.636,1.903,1.434,1.903
			c0.419,0,1.211-0.269,1.188-1.329h-0.642c0.022,0.68-0.404,0.829-0.546,0.829c-0.634,0-0.79-0.44-0.79-1.665
			c0-1.031,0.32-1.255,0.79-1.255c0.231,0,0.538,0.165,0.523,0.784H168.982L168.982,118.813z"/>
		<path d="M172.655,121.375v-2.673c0-0.851-0.358-1.172-0.999-1.172c-0.493,0-0.776,0.119-1.022,0.561h-0.03v-2.106h-0.611v5.391
			h0.611v-2.218c0-0.634,0.156-1.127,0.769-1.127c0.523,0,0.672,0.329,0.672,0.791v2.554H172.655L172.655,121.375z"/>
		<path d="M175.747,120.106c0,0.627-0.41,0.873-0.739,0.873c-0.434,0-0.643-0.306-0.643-0.761v-2.614h-0.611v2.875
			c0,0.642,0.358,0.971,1.016,0.971c0.396,0,0.754-0.187,0.956-0.53h0.021v0.455h0.65c-0.023-0.261-0.038-0.522-0.038-0.783v-2.987
			h-0.611L175.747,120.106L175.747,120.106z"/>
		<path d="M180.122,121.375v-2.613c0-0.746-0.202-1.231-1.008-1.231c-0.484,0-0.769,0.135-1.008,0.561h-0.03v-0.486h-0.648
			c0.021,0.262,0.037,0.522,0.037,0.784v2.986h0.611v-2.232c0-0.515,0.098-1.111,0.77-1.111c0.522,0,0.664,0.328,0.664,0.73v2.613
			H180.122L180.122,121.375z"/>
		<path d="M183.146,119.47c0,0.523,0.022,1.396-0.716,1.396c-0.455,0-0.732-0.283-0.732-1.492c0-0.501,0.023-1.337,0.717-1.337
			C183.183,118.038,183.146,118.911,183.146,119.47L183.146,119.47z M183.132,118.067h-0.016c-0.172-0.365-0.484-0.537-0.881-0.537
			c-0.306,0-1.179,0.111-1.179,1.845c0,1.12,0.2,2,1.224,2c0.328,0,0.672-0.172,0.828-0.47h0.023v0.784
			c0,0.388-0.231,0.649-0.657,0.649c-0.336,0-0.567-0.194-0.574-0.545h-0.688c-0.052,0.694,0.516,1.007,1.142,1.007
			c0.828,0,1.39-0.201,1.39-1.045v-4.151h-0.612V118.067L183.132,118.067z"/>
		<path d="M140.977,109.605v0.463h0.581v3.308h0.613v-3.308h0.762v-0.463h-0.762v-0.642c0-0.306,0.111-0.583,0.762-0.538v-0.44
			c-0.09-0.015-0.165-0.022-0.292-0.022c-0.545,0-1.083,0.149-1.083,0.911v0.731L140.977,109.605L140.977,109.605z"/>
		<path d="M144.543,108.194h-0.702v0.776h0.702V108.194L144.543,108.194z M145.858,108.194h-0.702v0.776h0.702V108.194
			L145.858,108.194z M145.536,112.107c0,0.626-0.411,0.873-0.74,0.873c-0.432,0-0.641-0.307-0.641-0.761v-2.614h-0.613v2.875
			c0,0.642,0.359,0.971,1.015,0.971c0.396,0,0.754-0.187,0.956-0.53h0.022v0.455h0.649c-0.022-0.262-0.037-0.523-0.037-0.784v-2.987
			h-0.612V112.107L145.536,112.107z"/>
		<path d="M147.888,109.605h-0.612v3.771h0.612v-2.225c0-0.508,0.171-1.023,0.852-1.023c0.111,0,0.215,0.023,0.328,0.038v-0.635
			c-0.598,0-0.911,0.066-1.165,0.642h-0.015L147.888,109.605L147.888,109.605z"/>
		<path d="M151.616,110.852h0.732c0.702,0,1.231,0.148,1.231,1.008c0,0.395-0.261,0.918-0.993,0.918h-0.97L151.616,110.852
			L151.616,110.852z M151.616,108.582h0.97c0.576,0,0.829,0.366,0.829,0.813c0,0.523-0.261,0.853-0.799,0.859h-1V108.582
			L151.616,108.582z M152.662,113.375c0.612,0,1.619-0.134,1.619-1.516c0-0.739-0.335-1.202-1.104-1.292v-0.037
			c0.694-0.157,0.925-0.606,0.925-1.278c0-0.104-0.03-0.424-0.217-0.716c-0.201-0.298-0.455-0.551-1.202-0.551h-1.754v5.39H152.662
			L152.662,113.375z"/>
		<path d="M155.876,109.605h-0.612v3.771h0.612V109.605L155.876,109.605z M155.227,108.641h0.688v-0.656h-0.688V108.641
			L155.227,108.641z"/>
		<polygon points="157.608,107.985 156.995,107.985 156.995,113.375 157.608,113.375 		"/>
		<path d="M160.66,111.337c0,0.761,0,1.613-0.687,1.613c-0.77,0-0.77-0.822-0.77-1.39c0-1.007,0.09-1.53,0.747-1.53
			C160.631,110.031,160.66,110.837,160.66,111.337L160.66,111.337z M160.66,109.985h-0.023c-0.208-0.297-0.469-0.454-0.828-0.454
			c-1.217,0-1.247,1.082-1.247,2.023c0,1.657,0.613,1.896,1.217,1.896c0.396,0,0.656-0.172,0.867-0.524h0.014v0.449h0.612v-5.39
			h-0.612V109.985L160.66,109.985z"/>
		<path d="M164.417,112.107c0,0.626-0.412,0.873-0.739,0.873c-0.435,0-0.643-0.307-0.643-0.761v-2.614h-0.612v2.875
			c0,0.642,0.357,0.971,1.016,0.971c0.396,0,0.755-0.187,0.955-0.53h0.023v0.455h0.648c-0.022-0.262-0.038-0.523-0.038-0.784v-2.987
			h-0.61V112.107L164.417,112.107z"/>
		<path d="M168.792,113.375v-2.613c0-0.747-0.202-1.231-1.008-1.231c-0.486,0-0.77,0.134-1.008,0.56h-0.031v-0.485h-0.648
			c0.022,0.262,0.038,0.522,0.038,0.785v2.986h0.61v-2.233c0-0.515,0.098-1.112,0.77-1.112c0.523,0,0.665,0.33,0.665,0.732v2.613
			L168.792,113.375L168.792,113.375z"/>
		<path d="M171.817,111.471c0,0.523,0.021,1.397-0.718,1.397c-0.456,0-0.731-0.283-0.731-1.493c0-0.501,0.022-1.336,0.717-1.336
			C171.853,110.038,171.817,110.911,171.817,111.471L171.817,111.471z M171.801,110.068h-0.015
			c-0.172-0.365-0.485-0.537-0.881-0.537c-0.307,0-1.181,0.111-1.181,1.845c0,1.12,0.202,2,1.225,2c0.328,0,0.672-0.172,0.829-0.47
			h0.022v0.783c0,0.389-0.231,0.65-0.656,0.65c-0.337,0-0.568-0.194-0.575-0.545h-0.688c-0.052,0.694,0.516,1.008,1.144,1.008
			c0.827,0,1.388-0.201,1.388-1.045v-4.152h-0.612V110.068L171.801,110.068z"/>
		<path d="M141.955,102.852h0.732c0.702,0,1.231,0.148,1.231,1.007c0,0.396-0.261,0.919-0.992,0.919h-0.971V102.852L141.955,102.852
			z M141.955,100.582h0.971c0.574,0,0.829,0.367,0.829,0.814c0,0.523-0.262,0.853-0.8,0.858h-1V100.582L141.955,100.582z
			 M143,105.376c0.613,0,1.621-0.135,1.621-1.516c0-0.739-0.335-1.203-1.105-1.292v-0.037c0.695-0.157,0.926-0.605,0.926-1.278
			c0-0.104-0.03-0.424-0.217-0.717c-0.201-0.298-0.455-0.551-1.202-0.551h-1.755v5.391H143L143,105.376z"/>
		<path d="M147.508,104.107c0,0.627-0.412,0.874-0.741,0.874c-0.432,0-0.641-0.307-0.641-0.761v-2.614h-0.612v2.875
			c0,0.642,0.358,0.971,1.015,0.971c0.396,0,0.754-0.187,0.956-0.53h0.023v0.456h0.648c-0.022-0.262-0.037-0.523-0.037-0.784v-2.987
			h-0.611V104.107L147.508,104.107z"/>
		<path d="M151.883,105.376v-2.613c0-0.747-0.202-1.231-1.008-1.231c-0.485,0-0.769,0.134-1.007,0.56h-0.03v-0.486h-0.649
			c0.022,0.262,0.038,0.522,0.038,0.785v2.986h0.612v-2.232c0-0.515,0.097-1.112,0.77-1.112c0.522,0,0.664,0.329,0.664,0.732v2.613
			H151.883L151.883,105.376z"/>
		<path d="M154.891,103.338c0,0.761,0,1.613-0.687,1.613c-0.769,0-0.769-0.822-0.769-1.389c0-1.007,0.089-1.531,0.747-1.531
			C154.861,102.031,154.891,102.838,154.891,103.338L154.891,103.338z M154.891,101.985h-0.022
			c-0.208-0.297-0.471-0.454-0.829-0.454c-1.218,0-1.248,1.082-1.248,2.023c0,1.657,0.612,1.896,1.217,1.896
			c0.396,0,0.657-0.172,0.866-0.524h0.015v0.449h0.613v-5.39h-0.613V101.985L154.891,101.985z"/>
		<path d="M157.087,103.225c0.007-1.045,0.329-1.231,0.717-1.231c0.447,0,0.754,0.133,0.754,1.231H157.087L157.087,103.225z
			 M159.207,103.688v-0.321c0-1.247-0.27-1.836-1.344-1.836c-1.307,0-1.434,0.91-1.434,2.015c0,1.666,0.634,1.905,1.434,1.905
			c0.791,0,1.306-0.381,1.314-1.217h-0.672c-0.022,0.379-0.239,0.716-0.657,0.716c-0.478,0-0.762-0.21-0.762-1.262H159.207
			L159.207,103.688z"/>
		<path d="M162.582,104.301c0-1.149-1.882-1.135-1.882-1.799c0-0.329,0.255-0.507,0.582-0.507c0.389,0,0.599,0.209,0.59,0.604h0.68
			c0.053-0.746-0.522-1.067-1.195-1.067c-1.06,0-1.298,0.634-1.298,1.03c0,1.127,1.882,1.143,1.882,1.815
			c0,0.388-0.284,0.575-0.65,0.575c-0.619,0-0.627-0.508-0.627-0.725h-0.694c-0.022,0.866,0.484,1.225,1.3,1.225
			C162.015,105.451,162.582,105.129,162.582,104.301L162.582,104.301z"/>
		<path d="M166,105.376v-2.538c0-0.142,0.028-0.516,0.21-0.665c0.162-0.134,0.23-0.142,0.462-0.142c0.494,0,0.598,0.351,0.598,0.732
			v2.613h0.612v-2.867c0-0.889-0.636-0.978-1.03-0.978c-0.344,0-0.688,0.081-0.896,0.485c-0.144-0.343-0.539-0.485-0.882-0.485
			c-0.439,0-0.762,0.142-0.939,0.545h-0.016v-0.471h-0.65c0.022,0.262,0.038,0.522,0.038,0.785v2.986h0.611v-2.538
			c0-0.142,0.03-0.366,0.143-0.553c0.09-0.142,0.344-0.253,0.529-0.253c0.493,0,0.596,0.351,0.596,0.732v2.613H166L166,105.376z"/>
		<path d="M169.575,101.605h-0.611v3.771h0.611V101.605L169.575,101.605z M168.926,100.642h0.688v-0.656h-0.688V100.642
			L168.926,100.642z"/>
		<path d="M173.345,105.376v-2.613c0-0.747-0.2-1.231-1.008-1.231c-0.485,0-0.769,0.134-1.008,0.56h-0.03v-0.486h-0.649
			c0.022,0.262,0.037,0.522,0.037,0.785v2.986h0.612v-2.232c0-0.515,0.099-1.112,0.771-1.112c0.521,0,0.664,0.329,0.664,0.732v2.613
			H173.345L173.345,105.376z"/>
		<path d="M175.04,101.605h-0.612v3.771h0.612V101.605L175.04,101.605z M174.391,100.642h0.686v-0.656h-0.686V100.642
			L174.391,100.642z"/>
		<path d="M178.519,104.301c0-1.149-1.882-1.135-1.882-1.799c0-0.329,0.253-0.507,0.581-0.507c0.39,0,0.599,0.209,0.59,0.604h0.682
			c0.052-0.746-0.523-1.067-1.196-1.067c-1.06,0-1.299,0.634-1.299,1.03c0,1.127,1.883,1.143,1.883,1.815
			c0,0.388-0.285,0.575-0.65,0.575c-0.621,0-0.627-0.508-0.627-0.725h-0.695c-0.021,0.866,0.485,1.225,1.301,1.225
			C177.95,105.451,178.519,105.129,178.519,104.301L178.519,104.301z"/>
		<path d="M178.928,101.605v0.463h0.618v2.681c0,0.433,0.262,0.672,0.844,0.672c0.202,0,0.404-0.045,0.605-0.061v-0.469
			c-0.134,0.015-0.231,0.029-0.276,0.029c-0.56,0-0.56-0.307-0.56-0.545v-2.308h0.82v-0.463h-0.82v-1l-0.613,0.275v0.725H178.928
			L178.928,101.605z"/>
		<path d="M182.151,103.225c0.008-1.045,0.328-1.231,0.717-1.231c0.448,0,0.755,0.133,0.755,1.231H182.151L182.151,103.225z
			 M184.272,103.688v-0.321c0-1.247-0.269-1.836-1.345-1.836c-1.307,0-1.433,0.91-1.433,2.015c0,1.666,0.634,1.905,1.433,1.905
			c0.791,0,1.307-0.381,1.314-1.217h-0.672c-0.023,0.379-0.238,0.716-0.655,0.716c-0.479,0-0.764-0.21-0.764-1.262H184.272
			L184.272,103.688z"/>
		<path d="M185.787,101.605h-0.612v3.771h0.612v-2.225c0-0.508,0.172-1.023,0.852-1.023c0.111,0,0.216,0.023,0.328,0.038v-0.635
			c-0.598,0-0.91,0.066-1.164,0.642h-0.016V101.605L185.787,101.605z"/>
		<path d="M188.232,101.605h-0.612v3.771h0.612V101.605L188.232,101.605z M187.582,100.642h0.688v-0.656h-0.688V100.642
			L187.582,100.642z"/>
		<path d="M191.306,104.107c0,0.627-0.408,0.874-0.738,0.874c-0.434,0-0.642-0.307-0.642-0.761v-2.614h-0.611v2.875
			c0,0.642,0.357,0.971,1.016,0.971c0.396,0,0.753-0.187,0.955-0.53h0.021v0.456h0.65c-0.023-0.262-0.037-0.523-0.037-0.784v-2.987
			h-0.613L191.306,104.107L191.306,104.107z"/>
		<path d="M195.51,105.376v-2.538c0-0.142,0.03-0.516,0.21-0.665c0.164-0.134,0.23-0.142,0.463-0.142
			c0.493,0,0.597,0.351,0.597,0.732v2.613h0.613v-2.867c0-0.889-0.636-0.978-1.031-0.978c-0.344,0-0.686,0.081-0.896,0.485
			c-0.142-0.343-0.538-0.485-0.882-0.485c-0.439,0-0.762,0.142-0.939,0.545h-0.016v-0.471h-0.65
			c0.023,0.262,0.038,0.522,0.038,0.785v2.986h0.611v-2.538c0-0.142,0.03-0.366,0.142-0.553c0.09-0.142,0.345-0.253,0.531-0.253
			c0.491,0,0.597,0.351,0.597,0.732v2.613H195.51L195.51,105.376z"/>
		<polygon fill="#F8D200" points="134.182,126.709 136.544,126.709 136.544,140.042 134.182,140.042 		"/>
		<polygon fill="#E30613" points="134.182,113.329 136.544,113.329 136.544,126.709 134.182,126.709 		"/>
		<polygon points="134.182,100.043 136.544,100.043 136.544,113.375 134.182,113.375 		"/>
		<path d="M120.695,113.378L120.695,113.378L120.695,113.378z M120.696,113.384L120.696,113.384L120.696,113.384z M120.695,113.385
			L120.695,113.385L120.695,113.385z M120.695,113.375L120.695,113.375L120.695,113.375z M126.815,102.298
			c0-0.759-0.552-1.36-0.747-1.53l-0.14,0.032c0.207,0.252,0.571,0.675,0.571,1.235c0,1.101-1.164,2.059-2.493,2.077
			c0.011,0.113,0.01,0.213,0.01,0.299c0,0.158-0.01,0.312-0.029,0.462C125.494,104.844,126.815,103.618,126.815,102.298
			L126.815,102.298z M124.736,111.419c-0.644,0-0.784-0.067-0.954-0.067c-0.109,0-0.213,0.01-0.213,0.165
			c0,0.107,0.121,0.264,0.229,0.346c0.151-0.15,0.359-0.183,0.695-0.183c0.157,0,0.371,0.031,0.465,0.043
			c-0.013,0.093-0.032,0.213-0.032,0.381c0,0.088,0.003,0.192,0.003,0.301c0,0.38-0.056,0.581-0.188,0.734
			c0.029,0.018,0.105,0.033,0.15,0.033c0.246,0,0.309-0.126,0.309-0.766c0-0.193,0.016-0.373,0.016-0.419
			c0.345,0.263,0.696,0.732,0.696,1.071c0.112-0.058,0.245-0.228,0.245-0.355c0-0.231-0.386-0.575-0.795-0.989
			c0.057-0.014,0.209-0.058,0.334-0.058c0.322,0,0.582,0.053,0.733,0.232c0.06-0.065,0.109-0.261,0.109-0.372
			c0-0.193-0.111-0.186-0.191-0.186c-0.343,0-0.766,0.053-1.068,0.104c-0.11-0.147-0.812-1.097-0.994-1.603
			c-0.053-0.019-0.093-0.034-0.179-0.034c-0.169,0-0.213,0.118-0.256,0.279C124.238,110.546,124.61,111.056,124.736,111.419
			L124.736,111.419z M120.893,110.077c-0.044-0.162-0.087-0.279-0.256-0.279c-0.086,0-0.127,0.015-0.178,0.033
			c-0.184,0.506-0.884,1.456-0.995,1.603c-0.302-0.051-0.727-0.104-1.068-0.104c-0.081,0-0.191-0.007-0.191,0.186
			c0,0.11,0.049,0.307,0.11,0.372c0.15-0.179,0.411-0.232,0.733-0.232c0.125,0,0.276,0.043,0.333,0.057
			c-0.41,0.415-0.795,0.758-0.795,0.989c0,0.128,0.133,0.298,0.246,0.355c0-0.339,0.351-0.808,0.695-1.07
			c0,0.046,0.016,0.226,0.016,0.419c0,0.639,0.063,0.765,0.31,0.765c0.044,0,0.121-0.015,0.15-0.033
			c-0.132-0.153-0.188-0.354-0.188-0.734c0-0.11,0.004-0.213,0.004-0.302c0-0.168-0.02-0.288-0.032-0.381
			c0.094-0.012,0.309-0.043,0.465-0.043c0.334,0,0.543,0.033,0.695,0.183c0.109-0.082,0.229-0.238,0.229-0.345
			c0-0.154-0.104-0.165-0.212-0.165c-0.171,0-0.309,0.067-0.954,0.067C120.135,111.056,120.507,110.546,120.893,110.077
			L120.893,110.077z M118.245,102.034c0-0.56,0.365-0.983,0.571-1.235l-0.139-0.032c-0.196,0.17-0.747,0.771-0.747,1.53
			c0,1.33,1.338,2.564,2.86,2.574c-0.016-0.145-0.026-0.297-0.026-0.462c0-0.102,0.004-0.203,0.013-0.297
			C119.432,104.113,118.245,103.146,118.245,102.034L118.245,102.034z M122.334,101.01c0.07-0.16,0.163-0.349,0.163-0.557
			c0-0.577-0.478-0.852-1.118-0.852c-0.329,0-0.494,0.106-0.494,0.213s0.108,0.341,0.15,0.413c0.118-0.052,0.332-0.115,0.456-0.115
			C121.929,100.113,122.258,100.605,122.334,101.01L122.334,101.01z M122.649,100.272c0.375,0.073,0.629-0.404,0.274-0.49
			c0.049,0.158-0.19,0.269-0.19,0.269s-0.091-0.21,0.027-0.331c-0.218-0.106-0.272,0.022-0.277,0.157
			C122.568,99.991,122.624,100.125,122.649,100.272L122.649,100.272z M123.86,103.548c0.06,0.004,0.117,0.008,0.177,0.008
			c1.053,0,2.098-0.682,2.098-1.554c0-0.465-0.209-0.791-0.468-1.151c-0.151,0.025-0.29,0.039-0.398,0.039
			c-0.478,0-0.736-0.256-0.755-0.507c0-0.227,0.184-0.397,0.47-0.397c0.443,0,1.251,0.415,2.064,0.415
			c-0.08,0.061-0.213,0.125-0.374,0.184c0.477,0.43,0.796,1.005,0.917,1.62l1.247,1.996c0.209,0.333,0.652,0.988,1.319,1.5
			c-0.806,0-1.342,0.019-2.023-1.06l-0.64-1.022c-0.047,0.132-0.106,0.261-0.174,0.387l1.271,2.036
			c0.212,0.336,0.649,0.987,1.32,1.5c-0.808,0-1.342,0.02-2.024-1.06l-1.094-1.752c-0.082,0.086-0.168,0.172-0.259,0.254
			l1.544,2.471c0.213,0.339,0.649,0.985,1.32,1.5c-0.807,0-1.342,0.019-2.024-1.06l-1.505-2.409c-0.1,0.063-0.201,0.123-0.305,0.181
			l1.836,2.94c0.212,0.337,0.648,0.985,1.319,1.5c-0.806,0-1.342,0.02-2.023-1.061l-1.892-3.028
			c-0.111,0.043-0.226,0.084-0.341,0.122l2.138,3.422c0.208,0.332,0.655,0.989,1.319,1.5c-0.807,0-1.342,0.019-2.023-1.061
			l-2.279-3.647l-0.07,0.012c-0.062,0.197-0.104,0.382-0.104,0.565c0,1.146,0.751,2.157,1.654,2.938
			c-0.058,0.025-0.158,0.035-0.251,0.035c-0.186,0-0.307-0.011-0.391-0.025c0.209,0.476,0.659,1.089,0.886,1.407
			c0.295-0.053,0.726-0.096,1.006-0.096c0.294,0,0.328,0.173,0.328,0.327c0,0.267-0.125,0.481-0.27,0.6
			c-0.054-0.138-0.165-0.32-0.709-0.32l-0.055,0.002c0.16,0.178,0.658,0.58,0.658,0.904c0,0.214-0.235,0.536-0.546,0.536
			c0.02-0.069,0.016-0.133,0.016-0.181c0-0.262-0.232-0.569-0.428-0.784c0.005,0.063,0.002,0.056,0.002,0.131
			c0,0.621-0.056,0.905-0.451,0.905c-0.193,0-0.326-0.106-0.372-0.137c0.255-0.236,0.269-0.422,0.269-0.77l-0.002-0.302
			c-0.001-0.079,0-0.184,0.013-0.261c-0.141-0.02-0.197-0.019-0.306-0.019c0,0-0.561-0.044-0.695,0.247
			c-0.151-0.139-0.372-0.335-0.372-0.554c0-0.143,0.067-0.305,0.354-0.305c0.109,0,0.454,0.067,0.741,0.067
			c-0.077-0.172-0.421-0.674-0.718-1.041c-0.045,0.142-0.116,0.296-0.272,0.42c-0.022-0.235-0.159-0.976-0.526-1.409
			c-0.042,0.292-0.101,0.593-0.101,1.227c0,1.542,0.371,2.681,1.159,2.899c-0.103,0.179-0.319,0.339-0.543,0.339
			c-0.289,0-0.445-0.326-0.605-0.634c-0.083,0.228-0.313,0.783-0.544,0.783c-0.23,0-0.46-0.555-0.543-0.783
			c-0.161,0.308-0.317,0.634-0.606,0.634c-0.225,0-0.441-0.16-0.543-0.339c0.787-0.218,1.158-1.357,1.158-2.899
			c0-0.634-0.058-0.935-0.101-1.227c-0.366,0.433-0.504,1.174-0.525,1.409c-0.157-0.125-0.227-0.278-0.272-0.42
			c-0.297,0.366-0.641,0.869-0.718,1.041c0.288,0,0.631-0.067,0.741-0.067c0.288,0,0.356,0.162,0.356,0.305
			c0,0.219-0.221,0.416-0.373,0.554c-0.135-0.291-0.695-0.247-0.695-0.247c-0.109,0-0.166,0-0.306,0.019
			c0.011,0.077,0.014,0.182,0.012,0.261l-0.001,0.302c0,0.347,0.013,0.533,0.269,0.77c-0.045,0.031-0.179,0.137-0.373,0.137
			c-0.394,0-0.451-0.285-0.451-0.905c0-0.075-0.002-0.068,0.003-0.131c-0.197,0.214-0.429,0.521-0.429,0.784
			c0,0.048-0.003,0.111,0.016,0.181c-0.31,0-0.545-0.322-0.545-0.536c0-0.325,0.498-0.727,0.656-0.904l-0.055-0.002
			c-0.544,0-0.655,0.183-0.708,0.32c-0.146-0.119-0.271-0.333-0.271-0.6c0-0.154,0.033-0.327,0.327-0.327
			c0.282,0,0.711,0.042,1.007,0.096c0.226-0.318,0.675-0.932,0.885-1.407c-0.084,0.015-0.205,0.025-0.391,0.025
			c-0.093,0-0.194-0.01-0.251-0.035c0.902-0.781,1.653-1.793,1.653-2.938c0-0.184-0.042-0.368-0.104-0.565l-0.069-0.012
			l-2.279,3.647c-0.682,1.08-1.217,1.061-2.023,1.061c0.664-0.51,1.11-1.168,1.318-1.5l2.139-3.422
			c-0.116-0.037-0.229-0.078-0.342-0.121l-1.892,3.027c-0.682,1.08-1.218,1.061-2.023,1.061c0.671-0.515,1.107-1.163,1.319-1.5
			l1.837-2.94c-0.105-0.058-0.207-0.118-0.306-0.181l-1.505,2.409c-0.683,1.08-1.217,1.061-2.024,1.061
			c0.671-0.515,1.108-1.162,1.32-1.5l1.544-2.471c-0.09-0.082-0.177-0.168-0.258-0.254l-1.094,1.752
			c-0.683,1.079-1.218,1.06-2.024,1.06c0.67-0.513,1.108-1.164,1.32-1.5l1.271-2.035c-0.067-0.126-0.125-0.255-0.173-0.388
			l-0.64,1.023c-0.682,1.079-1.217,1.06-2.023,1.06c0.668-0.512,1.11-1.167,1.32-1.5l1.247-1.996c0.121-0.615,0.44-1.191,0.917-1.62
			c-0.159-0.06-0.293-0.124-0.373-0.185c0.814,0,1.621-0.414,2.064-0.414c0.287,0,0.469,0.17,0.469,0.396
			c-0.018,0.251-0.277,0.507-0.755,0.507c-0.107,0-0.246-0.015-0.398-0.04c-0.258,0.36-0.467,0.686-0.467,1.151
			c0,0.873,1.044,1.554,2.098,1.554c0.06,0,0.117-0.003,0.176-0.008c0.208-0.707,0.653-1.17,1.007-1.624
			c-0.426-0.155-0.899-0.56-0.899-0.743c0.054-0.031,0.869,0.226,0.954,0.248c0.017,0.005,0.035,0.006,0.055,0
			c0.099-0.03,0.182-0.175,0.182-0.189c-0.087-0.015-0.599-0.081-0.949-0.208c-0.266-0.097-0.4-0.273-0.4-0.341
			c0.085-0.013,0.409,0.156,0.883,0.156c0.176,0,0.21-0.007,0.385-0.028c-0.123-0.292-0.354-0.539-0.612-0.539
			c-0.104,0-0.333,0.065-0.523,0.16c-0.132-0.206-0.25-0.478-0.25-0.625c0-0.174,0.173-0.379,0.661-0.379
			c0.137,0,0.264,0.011,0.382,0.034c0.095,0.018,0.175,0.039,0.262,0.073c-0.007-0.012-0.011-0.038-0.011-0.062
			c0-0.068,0.062-0.139,0.291-0.139c0.402,0,0.813,0.131,1.318,0.131c0.131,0,0.219-0.004,0.295-0.036
			c-0.033,0.1-0.175,0.248-0.305,0.369c0.081,0.11,0.289,0.374,0.289,0.802c0,0.687-0.453,1.253-0.453,1.948
			C123.448,102.968,123.765,103.331,123.86,103.548L123.86,103.548z"/>
		<g>
			<path d="M142.876,84.242c0-0.396-0.163-0.611-0.597-0.611c-0.135,0-0.62,0.023-0.62,0.728v1.139c0,0.737,0.214,0.924,0.62,0.924
				c0.308,0,0.513-0.084,0.602-0.15v-1.007h-0.621v-0.374h1.05v1.638c-0.275,0.15-0.597,0.252-1.031,0.252
				c-0.714,0-1.059-0.369-1.059-1.302v-1.106c0-0.672,0.345-1.102,1.059-1.102c0.728,0,1.073,0.267,1.045,0.971L142.876,84.242
				L142.876,84.242z"/>
			<path d="M144.112,86.711v-3.369h1.736v0.374h-1.307v1.083h1.213v0.373h-1.213v1.167h1.334v0.374L144.112,86.711L144.112,86.711z"
				/>
			<path d="M146.413,86.711v-3.369h1.67v0.374h-1.241v1.083h1.176v0.373h-1.176v1.54H146.413z"/>
			<path d="M148.503,85.479v-1.106c0-0.672,0.345-1.101,1.06-1.101c0.713,0,1.059,0.429,1.059,1.101v1.106
				c0,0.933-0.346,1.302-1.059,1.302C148.848,86.781,148.503,86.412,148.503,85.479z M149.376,82.945h-0.438V82.46h0.438V82.945z
				 M150.183,85.498v-1.139c0-0.705-0.485-0.728-0.62-0.728c-0.136,0-0.622,0.023-0.622,0.728v1.139
				c0,0.737,0.215,0.924,0.622,0.924C149.969,86.422,150.183,86.235,150.183,85.498z M150.198,82.945h-0.439V82.46h0.439V82.945z"/>
			<path d="M151.788,85.161v1.55h-0.429v-3.369h1.162c0.598,0,0.807,0.42,0.807,0.84c0,0.397-0.219,0.7-0.616,0.77v0.009
				c0.387,0.061,0.527,0.191,0.551,0.868c0.004,0.145,0.051,0.672,0.117,0.882h-0.448c-0.122-0.233-0.094-0.672-0.131-1.12
				c-0.033-0.411-0.364-0.43-0.509-0.43H151.788z M151.788,84.788h0.644c0.308,0,0.457-0.266,0.457-0.56
				c0-0.243-0.121-0.513-0.453-0.513h-0.648V84.788L151.788,84.788z"/>
			<path d="M153.972,83.342h1.036c0.429,0,0.737,0.154,0.905,0.513c0.135,0.285,0.149,0.957,0.149,1.064
				c0,0.719-0.065,1.134-0.205,1.358c-0.182,0.289-0.523,0.434-1.111,0.434h-0.774V83.342z M154.402,86.337h0.406
				c0.598,0,0.817-0.224,0.817-1.007v-0.681c0-0.682-0.21-0.934-0.658-0.934h-0.565V86.337z"/>
			<path d="M156.814,86.711v-3.369h1.736v0.374h-1.307v1.083h1.214v0.373h-1.214v1.167h1.335v0.374L156.814,86.711L156.814,86.711z"
				/>
			<path d="M159.567,85.161v1.55h-0.429v-3.369h1.162c0.597,0,0.808,0.42,0.808,0.84c0,0.397-0.22,0.7-0.616,0.77v0.009
				c0.387,0.061,0.527,0.191,0.551,0.868c0.005,0.145,0.051,0.672,0.116,0.882h-0.447c-0.122-0.233-0.094-0.672-0.132-1.12
				c-0.032-0.411-0.364-0.43-0.508-0.43H159.567z M159.567,84.788h0.645c0.308,0,0.457-0.266,0.457-0.56
				c0-0.243-0.12-0.513-0.453-0.513h-0.648L159.567,84.788L159.567,84.788z"/>
			<path d="M163.632,83.342v0.373h-0.887v2.996h-0.43v-2.996h-0.887v-0.374L163.632,83.342L163.632,83.342z"/>
			<path d="M166.282,86.711h-0.513l-0.976-3.369h0.466l0.771,2.963h0.009l0.788-2.963h0.438L166.282,86.711z"/>
			<path d="M167.692,85.479v-1.106c0-0.672,0.345-1.101,1.06-1.101c0.714,0,1.059,0.429,1.059,1.101v1.106
				c0,0.933-0.345,1.302-1.059,1.302C168.036,86.781,167.692,86.412,167.692,85.479z M169.371,85.498v-1.139
				c0-0.705-0.485-0.728-0.621-0.728c-0.135,0-0.62,0.023-0.62,0.728v1.139c0,0.737,0.214,0.924,0.62,0.924
				S169.371,86.235,169.371,85.498z"/>
			<path d="M170.963,86.711h-0.402v-3.369h0.695l0.85,2.828h0.01l0.858-2.828h0.709v3.369h-0.43v-2.996h-0.009l-0.942,2.996h-0.406
				l-0.924-2.996h-0.009V86.711L170.963,86.711z"/>
		</g>
	</g>
</g>
</svg>
