<?xml version="1.0" encoding="utf-8"?>
<!-- Generator: Adobe Illustrator 16.0.0, SVG Export Plug-In . SVG Version: 6.00 Build 0)  -->
<!DOCTYPE svg PUBLIC "-//W3C//DTD SVG 1.1//EN" "http://www.w3.org/Graphics/SVG/1.1/DTD/svg11.dtd">
<svg version="1.1" id="Ebene_1" xmlns="http://www.w3.org/2000/svg" xmlns:xlink="http://www.w3.org/1999/xlink" x="0px" y="0px"
	 width="180px" height="80px" viewBox="80.583 0 180 80" enable-background="new 80.583 0 180 80" xml:space="preserve">
<g>
	<g>
		<path fill="#00A7D1" d="M123.96,48.497l-0.685,2.75c-0.465,2.125,0.255,3,2.627,3h14.189c2.813,0,4.359-0.189,6.997-1.254
			l-2.868,7.006h-29.372c-6.625,0-7.814-2.755-6.291-8.875l2.892-11.626c1.525-6.123,4.085-8.874,10.711-8.874h22.436
			c6.621,0,7.814,2.751,6.288,8.874l-2.236,9H123.96L123.96,48.497z M135.702,42.747l0.994-4.003c0.42-1.684,0.091-2.369-1.53-2.369
			H129.1c-1.623,0-2.294,0.685-2.714,2.369l-0.998,4.003H135.702z"/>
		<path fill="#84AD29" d="M181.978,53.372c1.747,0,4.935-0.253,6.888-1.31L185.576,60h-34.497c1.141-1.568,2.014-3.066,2.959-6.881
			l6.533-26.246c0.946-3.815,0.824-5.31,0.46-6.874h17.748c-1.137,1.563-2.013,3.058-2.959,6.874l-6.597,26.5h12.754V53.372z"/>
		<path fill="#84AD29" d="M206.836,53.119c-0.953,3.813-0.824,5.313-0.467,6.88h-17.743c1.134-1.567,2.009-3.066,2.961-6.88
			l6.527-26.246c0.949-3.816,0.821-5.311,0.464-6.873H233.2l-0.723,7.685c-1.441-0.499-3.055-1.06-6.614-1.06h-12.437l-2.333,9.369
			h10.877c3.492,0,5.387-0.555,7.136-1.058l-2.176,8.749c-1.504-0.5-3.11-1.06-6.613-1.06h-10.871L206.836,53.119z"/>
	</g>
	<rect x="80.583" fill="none" width="180" height="80"/>
</g>
</svg>
