<?xml version="1.0" encoding="utf-8"?>
<!-- Generator: Adobe Illustrator 16.0.0, SVG Export Plug-In . SVG Version: 6.00 Build 0)  -->
<!DOCTYPE svg PUBLIC "-//W3C//DTD SVG 1.1//EN" "http://www.w3.org/Graphics/SVG/1.1/DTD/svg11.dtd">
<svg version="1.1" id="Ebene_1" xmlns="http://www.w3.org/2000/svg" xmlns:xlink="http://www.w3.org/1999/xlink" x="0px" y="0px"
	 width="60px" height="80px" viewBox="-0.378 0 60 80" enable-background="new -0.378 0 60 80" xml:space="preserve">
<g>
	<g>
		<g>
			<path fill="#DADADA" d="M29.435,32.522c0-0.394-0.056-1.257-0.283-1.871c-0.083-0.222-0.187-0.412-0.32-0.535
				c-1.015-0.935-3.325-2.095-5.168-2.095c-0.185,0-1.343,0.26-1.921,0.523c-0.176,0.072-0.733,0.51-0.991,0.565
				c-0.378-0.308-0.624-1.125-0.624-1.596c0-1.652,2.16-2.912,2.16-4.791c0-0.182-0.373-2.214-0.373-2.395
				c0-0.183,0.066-0.559,0.102-0.839c0.206-1.425,1.965-2.935,3.174-2.935c0.185,0,3.164,0.291,3.35,0.291
				c0.213,0,0.416-0.016,0.611-0.043v-1.82c-0.043,0.029-0.086,0.049-0.127,0.049c-0.335,0-0.782-0.536-0.782-0.872
				c0-0.182-0.073-0.689-0.073-0.871s0.081-0.694,0.259-0.93c0.157-0.208,0.417-0.446,0.725-0.68V5.311
				c-1.109-0.147-2.214-0.236-3.252-0.299c-2.152-0.132-3.109,0.805-4.293,2.354l-0.291,0.472C19.22,6.465,17.866,7,17.038,9.078
				c-3.483-2.519-9.449,3.955-7.262,8.565L9.65,17.909c-2.78,0.698-3.116,6.235-3.297,8.336c-0.149,1.693,0.865,2.98,0.966,4.427
				c0.013,0.185-0.294,0.384-0.415,0.481c-1.283,1.044-1.629,1.239-2.042,2.857c-0.431,1.688-0.338,3.95,0.779,5.437
				c2.309,3.072,4.002,1.879,6.991,1.057c0.299,0.396,1.198,1.571,1.24,1.998c-9.072,4.539-7.346,3.99-3.544,12.499
				c0.096,0.214,0.786,1.728,0.789,1.837c0.002,0.107-0.227,0.211-0.297,0.252c-0.791,0.447-3.819,1.679-7.117,3.149h0.075
				c-0.003,0.098-0.007,0.195-0.007,0.293C3.772,68.522,9.025,75,29.146,75c0.002,0,0.004,0,0.006,0v-7.39
				c-1.388-0.332-3.441-1.096-3.441-2.243c0-0.345,0.886-1.677,0.915-1.703h0.253c0.289,0.067,0.434,0.1,0.583,0.164
				c0.754,0.674,0.526,1.802,1.28,2.376c0,0,0.181,0.014,0.412,0.019v-1.952c-0.678-0.477-1.057-1.974-1.057-2.496
				c0-0.382,0.136-1.513,0.708-1.668c0.128-0.002,0.249,0.063,0.349,0.172v-6.649c-0.989-0.289-1.95-0.986-1.95-2.235
				c0-1.149,1.009-1.559,1.95-1.687v-0.788c-0.218,0.048-0.377,0.08-0.425,0.08c-0.697,0-1.75-0.408-1.75-1.451
				c0-0.572,0.94-0.943,1.489-0.943c0.222,0,0.45,0.063,0.685,0.151v-1.469c-0.106-0.038-0.22-0.062-0.35-0.062
				c-0.763,0-1.517,0.869-1.936,0.869c-0.427,0-0.875-0.58-1.638-0.58c-0.187,0-0.458,0.401-0.533,0.629
				c-0.064,0.209,0.002,0.424,0.002,0.642s-0.085,0.49-0.206,0.606c-0.104,0.099-0.119,0.229-0.307,0.229h-0.882
				c-1.024,0-3.685-4.979-3.74-5.181c-0.14-0.499-0.327-1.316-0.327-1.497c0-0.182-0.139-0.982-0.074-2.143
				c0.065-1.325-0.669-2.302-0.669-3.627c0-0.181,0.084-0.88,0.178-1.242c0.111-0.418,0.554-0.736,0.823-0.604
				c0.095,0.049,0.488,0.667,0.488,0.975c0,0.183-0.06,0.884,0.099,1.22c0.354,0.762,1.93,1.721,2.582,1.721
				c0.195,0,0.595-0.119,0.595-0.655c0-0.181-0.372-0.507-0.372-0.688c0-0.299,0.25-0.239,0.6-0.452c0,0,0.14-0.071,0-0.254
				c-0.502-0.205-1.017-0.266-1.539-0.375c-0.521-0.109-1.445-1.342-1.445-1.895c0-0.192,0.522-0.763,0.968-0.763
				c0.185,0,0.127,0.098,0.127,0.098c-0.101,0.5,0.231,1.425,0.678,1.771c0.269,0.208,0.685,0.383,0.87,0.383
				c0.186,0,0.525-0.038,0.607-0.063c1.015-0.298,1.291-1.098,1.291-1.788c0-0.236-0.095-0.148,0.102-0.398
				c0.2,0.055,1.388,0.569,1.388,1.087c0,0.408-1.265,1.088-1.265,1.378c0,0.754,1.191,0.155,1.191,0.8
				c0,0.181-0.447,2.023-0.447,2.205v1.107c0,1.624-1.117,1.16-1.117,2.639c0,0.3,0.688,1.165,0.919,1.257
				c0.225,0.081,0.331,0.206,0.517,0.36c0.152,0.197,0.129,0.221,0.289,0.487c0.256,0.424,0.593,0.389,0.903,0.33
				c0.717-0.132,1.067-0.253,1.631-0.265v-1.037c-0.347-0.284-0.537-0.73-0.537-1.241c0-0.181,0.373-1.453,0.373-1.634
				c0-0.182,0.002-0.101-0.019-0.179c0.019-0.223,0.021-0.443,0.047-0.58c-0.026-0.063-0.252-2.435-0.252-2.616
				c0-0.687,0.204-1.359,0.388-2.042C29.299,33.664,29.435,33.104,29.435,32.522z M15.66,32.329
				c-0.269,0.567-0.644,1.207-1.072,1.706c-1.033,1.197-2.708,1.9-3.883,1.9c-0.308,0-2.791-0.4-2.791-1.488
				c0-0.68,0.203-1.257,0.833-2.061c0.829-0.313,1.167,0.896,1.828,1.277c0.41,0.227,0.981,0.402,1.167,0.402
				c0.186,0,0.572-0.041,0.813-0.149c1.145-0.51,1.834-1.292,1.834-2.3c0-0.916-0.71-2.25-2.052-2.386
				c-0.12-0.009-0.33-0.281-0.33-0.482c0-0.725,1.191-1.742,1.936-1.742c1.285,0,2.234,2.594,2.234,3.412
				C16.181,30.88,15.964,31.686,15.66,32.329z M22.248,67.727c-1.563,0-3.979-3.621-4.397-4.328c-0.437-0.735-1.13-1.986-1.147-2.98
				c-0.046-0.598-0.046-0.134-0.021-1.015c0-0.146-0.049-0.593,0.174-0.6c0.157-0.005,0.219,0.032,0.337,0.1
				c0.205,0.114,0.407,1.049,0.644,1.436c1.033,1.669,2.434,3.544,4.35,4.388c0.345,0.146,0.729,0.262,1.112,0.361
				c0.381,0.099,0.995,0.289,0.995,0.714C24.297,66.383,23.133,67.727,22.248,67.727z M25.837,56.452
				c0.624,0.264,2.375,0.541,2.448,0.551c0.158,0.026,0.478,0.253,0.478,0.526c0,0.181-0.404,0.879-0.646,1.323
				c-0.345,0.635-0.694,1.361-1.167,2.038c-0.338,0.483-1.66,1.752-2.467,1.683c-1.136-0.097-3.949-1.944-4.123-2.07
				c-0.913-0.667-1.959-2.093-2.508-2.982c-0.41-0.673-1.149-2.169-1.149-3.004c0-0.182,0.369-3.182,0.699-4.688
				c0.065-0.297,0.146-0.312,0.377-0.392c0.256,0.15,0.402,0.325,0.467,0.532C19.269,53.135,22.999,55.254,25.837,56.452z
				 M18.488,19.021c-0.021,0.263-0.473,0.545-0.605,0.66c-0.434,0.378-0.957,0.813-1.309,1.286
				c-0.606,0.825-0.942,1.833-1.594,2.614c-0.521,0.619-0.922,0.958-1.369,0.958c-0.186,0-0.215-0.174-0.215-0.174
				c-0.082-0.305-0.089-0.517-0.089-0.699c0-0.181,0.058-0.385,0.1-0.547c0.374-1.403,1.141-3.575,3.026-4.049
				c0.463-0.116,1.237-0.41,1.423-0.41c0.185,0,0.433-0.005,0.552,0.09C18.469,18.795,18.5,18.874,18.488,19.021z M17.521,16.844
				c-0.186,0-0.804,0.139-1.141,0.307c-0.228,0.113-0.625,0.692-0.778,0.485c-0.159-0.217-0.165-0.466-0.165-0.647
				c0-1.107,1.973-2.177,3.165-2.177c0.185,0,1.347,0.172,2.017,0.309c0.362,0.072,0.998,0.344,1.185,0.344
				c0.27,0,0.41-0.316,0.41-0.617c0-0.182-0.147-0.797-0.299-1.235c-0.148-0.43-1.909-2.736-2.656-2.968
				c-0.081-0.049-0.098-0.107-0.103-0.19c-0.003-0.092,0.016-0.133,0.103-0.214c0.166-0.118,0.274-0.147,0.461-0.147
				c0.585,0,2.528,0.931,2.779,1.118c0.853,0.625,1.179,1.271,1.442,2.345c0.074,0.302,0.021,0.584-0.035,0.793
				c-0.085,0.291-0.278,0.604-0.456,0.813c-0.185,0.217-0.572,0.4-0.692,0.646c-0.243,0.48-0.126,1.104-0.424,1.458
				c-0.585,0.708-0.978,0.74-1.536,0.74C19.54,18.005,19.326,16.844,17.521,16.844z M23.477,33.176
				c-0.186,0-0.605-0.328-0.596-0.617c0.009-0.291,0.278-0.69,0.708-0.69c0.269,0,0.488,0.436,0.484,0.58
				C24.063,32.745,23.822,33.176,23.477,33.176z M25.6,31.797c-0.225,0-1.229-0.581-2.011-0.581c-0.447,0-1.228,0.363-1.341,0.363
				c-0.186,0-0.176-0.084-0.26-0.176c0.079-0.167,0.149-0.223,0.149-0.404c0-0.182-0.065-0.083-0.123-0.148h-0.2
				c-0.436,0.357-0.805,0.791-1.136,1.091c-0.176-0.31-0.255-0.653-0.255-0.835c0-0.798,1.187-1.397,1.82-1.469
				c0.243-0.028,0.414-0.164,0.601-0.164c0.187,0,0.559,0.144,0.746,0.144c0.027,0,0.93,0.136,0.93,0.472
				c0,0.654,1.415,0.436,1.415,1.307C25.935,31.578,25.786,31.797,25.6,31.797z M27.573,42.388c-0.07,0.08-0.075,0.078-0.261,0.078
				c-0.54,0-1.005-0.472-1.005-1.052c0-0.735,0.302-0.958,1.102-1.263c-0.06,0.686-0.13,0.896-0.133,1.227
				c-0.003,0.183,0.297,0.498,0.292,0.682C27.568,42.06,27.659,42.29,27.573,42.388z"/>
			<path d="M38.595,34.502c0.242,0.504,0.415,0.561,0.778,0.561c1.405,0,1.239-1.814,1.863-1.814c0.187,0,0.372,0.146,0.557,0.146
				c0.187,0,0.547-0.336,0.713-0.472c0.308-0.245,0.257-0.519,0.257-0.69c0-2.514-2.103-3.965-5.028-4.138
				c-0.601,0.073-0.669,0-0.746,0c-0.599,0.073-1.336,0.113-1.877,0.385c-0.93,0.462-2.319,1.307-3.111,2.241
				c-0.131,0.154-0.407,1.275-0.407,1.62c0,0.182,0.521,2.2,0.52,2.794c0,0.429-0.371,2.105-0.371,2.286
				c0,0.373-0.05,0.991,0.319,1.485c0.328-0.042,1.468-1.82,1.468-2.464c0-0.952-0.894-1.107-0.894-2.396
				c0-0.236,0.046-0.435,0.298-0.435c0.186,0,0.978,0.871,1.165,0.869c0,0,0.396,0.121,0.594,0c0.083-0.053,0.177-0.178,0.177-0.178
				c-0.311-0.501-0.893-1.181-0.893-1.599c0-0.291,0.785-0.862,0.995-0.836c0.455,0.144,0.111,0.768,0.149,1.058
				c0.093,0.654,0.978,1.556,1.647,1.556c0.326,0,1.162-0.355,1.35-0.546c0.782-0.807,0.4-0.923,0.4-1.631
				c0-0.181,0.075-0.108,0.064-0.228c0.047,0.01,0.047-0.063,0.233-0.063c0.493,0,0.968,0.762,0.968,1.053
				C39.783,33.62,39.414,34.319,38.595,34.502z M36.992,33.103c-0.298,0-0.559-0.39-0.559-0.726c0-0.137,0.019-0.581,0.521-0.581
				c0.437,0,0.669,0.218,0.669,0.653C37.624,32.686,37.53,33.103,36.992,33.103z M39.188,30.998c-0.187,0-0.161-0.011-0.226,0.05
				c0.001,0.204,0.001,0.421-0.014,0.667c-0.924-0.203-1.338-0.392-2.133-0.292c-0.013-0.101-0.088-0.101-0.088-0.282
				s0.15-0.181,0.15-0.363s0.01-0.084-0.051-0.146h-0.499c-0.185,0-0.678,0.509-0.864,0.509s-0.224-0.181-0.224-0.363
				c0-0.989,1.555-1.633,2.342-1.814c0.234-0.031,0.509-0.047,1.123,0c0.377,0.072,0.775,0.121,1.056,0.238
				c0.78,0.344,1.731,1.448,1.731,2.229c0,0.254-0.223,0.653-0.67,0.653C40.23,32.086,39.783,30.998,39.188,30.998z M29.151,66.223
				v-1.952c0.131,0.095,0.277,0.153,0.431,0.153c0.187,0,0.448-0.182,0.633-0.182c0.446,0,1.378,0.908,1.378,1.198
				c0,0.563-1.061,0.655-1.828,0.76C29.582,66.225,29.349,66.228,29.151,66.223z M47.738,56.666l0.087-0.227
				c0.087-1.028,3.827-6.082,3.872-7.331c0.084-2.38-5.908-5.498-5.956-6.098c0.432-0.557,0.867-1.118,1.248-1.712
				c0.431-0.022,2.068,1.675,4.187,1.675c5.311,0,5.108-6.181,2.902-9.398c3.04-5.958-0.511-5.86-0.295-7.404
				c0.217-1.576,0.674-2.77,0.669-4.447c0,0,0.037-0.901-0.097-1.229c-0.62-1.52-1.938-1.03-1.914-2.888
				c0.041-3.162-2.729-4.465-5.159-5.723c-0.462-0.239-0.059-2.939-2.604-4.308c-2.97-1.598-6.932-2.944-9.846-0.749
				c-1.686-0.811-3.693-1.254-5.681-1.516v6.368c0.727-0.554,1.718-1.077,2.256-1.077c0.029,0,1.982,0.362,2.309,0.362
				c0.186,0,1.224-0.178,1.772-0.387c0.419-0.154,0.776-0.478,1.111-0.677c0.4-0.237,1.286-0.604,1.473-0.604
				s0.481-0.072,0.67-0.072c0.596,0,2.094,0.617,2.669,1.049c0.211,0.158,0.682,0.348,0.682,0.692c0,0.183-0.053,0.251-0.087,0.28
				c-0.192,0.033-2.402-0.062-2.402-0.062c-0.217,0.07-0.564,0.362-0.564,0.545c0,0.425,1.354,1.309,1.541,1.391
				c0.345,0.154,0.868,0.127,1.194,0.291c1.981,1.017,3.811,2.469,5.131,4.102c0.307,0.382,0.72,1.155,0.771,1.329
				c0.053,0.183,0.073,0.326,0.073,0.509c0,0.291-0.353,0.688-0.894,0.688c-0.187,0-0.736-0.294-0.93-0.521
				c-0.262-0.299-0.458-0.73-0.458-1.111c0-1.36-0.604-2.432-2.186-2.432c-0.187,0-0.931,0.218-1.116,0.218s-0.176-0.67-0.383-0.958
				c-0.831-1.14-1.879-2.273-3.158-2.6c-0.071,0-0.21-0.021-1.111,0c-0.739,0.146-1.57,0.315-2.297,0.597
				c-0.24,0.092-1.548,1.146-2.061,1.146c-0.15,0-0.595-0.172-0.595-0.436c0-0.816,2.158-1.143,2.158-1.96
				c0-0.39-0.688-0.436-0.782-0.436c-1.09,0-3.211,1.058-3.89,1.803c-0.118,0.123-0.52,1.378-0.896,1.633v1.819
				c1.512-0.209,2.635-1.118,4.416-1.118c0.186,0,2.021,0.245,2.98,0.308c4.095,0.282,6.14,3.158,6.14,7.096
				c0,0.182-0.102,0.844-0.019,1.189c0.474,1.832,1.732,3.121,1.732,4.763l-0.224,6.858c0.148,2.058,1.637,0.962,1.637,2.903
				c0,0.181-0.075,1.104-0.168,1.603c-0.055,0.299-0.248,0.624-0.379,0.788c-0.075,0.1-0.719,0.404-0.904,0.404
				c-0.513,0-0.808-0.958-1.196-1.088c-0.418,0.115-0.112,1.07-0.175,1.561c-0.132,1.016-0.776,2.999-0.844,3.203
				c-0.124,0.362-0.264,0.603-0.376,0.875c-0.177,0.434-0.573,1.074-0.573,1.257c0,0.016-0.008,0.041-0.02,0.069
				c0.102,0.386,0.731,1.896,0.731,2.064c0,0.181,0.669,2.357,0.669,2.539c0,0.183,0.075,0.654,0.075,0.835
				c0,0.97-1.253,2.985-1.812,3.901c-1.051,1.707-2.854,3.643-4.604,4.752c-0.562,0.355-1.394,1.074-2.034,1.074
				c-1.191,0-4.653-4.13-4.653-5.189c0-0.183,0.082-0.313,0.192-0.447c0.317-0.096,0.588-0.152,0.812-0.152
				c1.387-0.01,3.135-0.456,4.475-1.301c1.015-0.644,2.532-1.834,3.297-2.769c0.65-0.788,1.252-1.78,1.707-2.68
				c0.206-0.408,0.61-1.109,0.61-1.29c0-0.082,0.046-0.346,0.096-0.619c-0.165,0.239-0.312,0.439-0.312,0.439
				c-0.434,0.359-5.382,5.125-7.3,5.159h-2.902c-0.33,0-0.704-0.053-1.075-0.161v6.648c0.157,0.168,0.266,0.439,0.283,0.737
				c0.01,0.179-0.149,0.76-0.149,0.941c0,0.381,0.196,1.125,0.893,1.125c0.188,0,1.416-0.437,1.603-0.437
				c0.771,0,1.153,0.556,1.153,1.38c0,0.926-0.885,3.774-2.644,3.774c-0.189,0-0.619-0.064-1.138-0.188V75
				c20.117-0.001,25.369-6.478,25.369-14.468c0-0.098-0.004-0.512-0.006-0.609C54.514,59.925,50.399,58.028,47.738,56.666z
				 M48.085,36.165c0.322-0.085,0.667-0.304,0.852-0.304c0.111,0,0.838,1.306,1.675,1.306c0.188,0,0.33-0.072,0.474-0.098
				c0.588-0.367,0.298-1.157,0.588-1.549c0.246-0.112,0.503-0.095,0.711-0.09c0.284,0.597,0.539,1.474,0.539,2.1
				c0,0.544-0.597,1.743-1.491,1.743c-0.185,0-0.59-0.058-0.869-0.176c-0.234-0.091-0.477-0.211-0.597-0.292
				c-0.271-0.178-1.827-2.052-1.879-2.264C48.025,36.303,48.085,36.165,48.085,36.165z M36.155,66.426
				c-0.334,0.164-1.478,0.711-1.877,0.711c-0.204,0-0.931-0.018-0.931-0.652c0-0.653,1.079-2.356,1.528-2.803
				c0.326-0.316,0.848-0.532,1.276-0.733c2.233-1.041,3.736-3.416,5.332-5.457c0,0,0.226-0.063,0.343,0.002
				c0.191,0.104,0.085,0.54,0.085,0.54C41.034,60.825,39.535,64.721,36.155,66.426z M40.849,67.54
				c-0.457,0.438-0.988,0.396-1.173,0.396c-0.188,0-0.152-0.036-0.221-0.098c-0.146-0.138-0.003-0.511-0.003-0.511
				c0-0.18,2.331-3.084,3.159-4.453c0.391-0.653,1.861-2.725,2.01-2.96c0.188-0.291,1.011-1.776,1.457-1.776
				c0.185,0,0.374,0.253,0.374,0.435C46.453,59.435,41.218,67.187,40.849,67.54z M41.179,47.472
				c-0.059,0.152-0.261,0.458-0.439,0.72c0.064-0.342,0.138-0.696,0.145-0.719l0.279-0.079
				C41.164,47.409,41.17,47.438,41.179,47.472z M31.07,42.03c0-0.462,0.374-1.203,0.654-1.367c0.12-0.072,0.203-0.085,0.389-0.085
				s0.835,0.792,1.3,1.088c0.384-0.194,0.25-0.638,0.633-0.638c0.522,0,0.524,0.592,0.524,0.638c0,0.635-0.837,1.451-1.526,1.451
				c-0.186,0-1.195-0.455-1.382-0.455c-0.56,0-0.879,0.993-0.971,1.084c-0.168,0.173-0.438,0.28-0.624,0.28
				c-0.186,0-0.634-0.486-0.819-0.486c-0.034,0-0.065,0.003-0.097,0.003v-1.036c0.244,0.2,0.565,0.318,0.953,0.318
				C30.55,42.828,31.07,42.464,31.07,42.03z M33.626,47.393c-0.335,0.011-1.554-0.55-1.739-0.55s-0.991,0.378-1.176,0.378
				c-0.551,0-1.068-0.282-1.561-0.465v-1.469c0.659,0.238,0.904,1.1,1.473,1.1c0.813,0,0.895-1.234,1.938-1.234
				c0.882,0,0.771,0.87,1.821,0.87c0.187,0,0.852-0.477,1.038-0.477c0.746,0,0.841,1.107,0.896,1.235
				c-0.131,0.053-0.185,0.263-0.37,0.263s-0.766-0.529-0.951-0.529C34.813,46.513,33.922,47.385,33.626,47.393z M29.955,49.653
				c-0.242,0-0.52,0.014-0.804,0.053v-0.787c0.653-0.142,1.818-0.428,1.957-0.428c0.392,0,2.049,0.1,2.049,0.727
				c0,0.437-1.107,0.735-1.304,0.725C31.453,49.922,30.14,49.653,29.955,49.653z"/>
		</g>
		<g>
			<path fill="#44537E" d="M27.722,72.271l-0.568-1.684c-0.197-0.567-0.285-0.699-1.968-0.699h-7.915
				c-2.056,0-2.208,0.063-2.362,0.547l-0.612,1.836h-0.307c0.088-0.853,0.175-1.617,0.175-2.383c0-1.399-0.175-2.799-0.175-4.198
				c0-2.033,0.918-4.635,3.783-4.635c2.82,0,3.738,2.862,3.738,5.027c0,0.612,0,1.291-0.043,1.968h2.361
				c3.016,0,3.104-0.065,3.213-0.416l0.678-1.967h0.306c-0.087,0.94-0.175,2.404-0.175,3.169c0,1.115,0.088,2.384,0.175,3.433
				L27.722,72.271L27.722,72.271z M20.748,68.051c0.044-0.634,0.044-1.005,0.044-1.486c0-2.23-1.355-3.409-2.908-3.409
				c-2.099,0-3.04,1.312-3.04,3.147c0,0.635,0.022,1.203,0.044,1.75h5.858V68.051z M27.722,60.137
				c-0.328-1.005-0.526-1.836-0.854-1.879c-0.438-0.065-8.678-0.065-11.28-0.065c-0.918,0-1.706,0.089-1.858,0.152
				c-0.109,0.046-0.198,0.197-0.241,0.351l-0.415,1.289h-0.306c0-1.202-0.044-2.404-0.176-3.585c1.489,0.044,2.974,0.109,4.46,0.132
				l2.361,0.042v-0.042c-1.268-0.896-1.836-2.231-1.836-3.718c0-1.377,0.371-3.301,2.601-3.301c0.677,0,1.815,0.044,3.825,0.044
				c2.317,0,2.646,0,3.018-0.196c0.349-0.175,0.547-1.182,0.699-1.75h0.307c-0.088,1.115-0.175,1.553-0.175,2.777
				c0,1.158,0.087,1.77,0.175,2.821H27.72c-0.284-1.094-0.393-1.641-0.766-1.838c-0.306-0.153-1.683-0.153-5.508-0.153
				c-1.553,0-3.017,0.393-3.017,2.47c0,1.729,1.246,2.842,2.995,2.842h2.886c0.854,0,2.47-0.021,2.645-0.196
				c0.328-0.307,0.612-1.291,0.766-1.793h0.307c-0.088,0.919-0.175,1.793-0.175,2.71c0,0.984,0.087,1.947,0.175,2.887H27.722
				L27.722,60.137z M27.886,45.469L27.613,44.2c-0.108-0.524-0.32-0.764-0.714-1.027l-1.945-1.355l-3.722,2.098
				c-0.653,0.35-2.6,1.443-2.842,1.902c-0.061,0.132-0.137,0.263-0.212,0.502l-0.167,0.547h-0.213
				c0.062-0.743,0.121-1.508,0.121-2.273c0-0.896-0.06-1.705-0.121-2.776h0.213l0.35,1.312c0.061,0.197,0.136,0.395,0.244,0.395
				c0.136,0,0.805-0.371,1.687-0.896l3.146-1.881l-2.506-1.572c-1.459-0.918-2.234-1.203-2.447-1.203
				c-0.076,0-0.122,0.196-0.167,0.35l-0.303,1.115h-0.213c0.062-0.701,0.123-1.399,0.123-2.099c0-0.524-0.061-1.049-0.123-1.553
				h0.213c0.244,0.701,0.685,1.049,1.139,1.355c1.444,0.963,7.477,5.073,8.069,5.073c0.258,0,0.334-0.219,0.425-0.655l0.243-1.05
				H28.1c-0.062,0.787-0.121,1.574-0.121,2.361c0,0.875,0.06,1.728,0.121,2.602L27.886,45.469L27.886,45.469z M25.492,34.145v-0.241
				c0.787-0.175,1.596-0.591,1.728-0.766c0.241-0.285,0.438-0.787,0.438-1.4c0-1.092-0.547-2.143-1.815-2.143
				c-2.733,0-2.275,4.876-5.378,4.876c-1.203,0-2.885-1.114-2.885-3.825c0-0.526,0.152-1.837,0.262-2.275l2.295,0.132v0.241
				l-0.787,0.328c-0.612,0.262-1.18,0.567-1.18,1.945c0,1.115,0.786,1.793,1.661,1.793c2.601,0,1.902-4.876,5.4-4.876
				c1.313,0,3.016,0.875,3.016,4.351c0,0.809-0.131,1.42-0.196,1.988L25.492,34.145z M27.722,26.537l-0.394-1.246
				c-0.153-0.48-0.394-0.547-3.826-0.547c-4.57,0-4.722,0.109-4.898,0.677l-0.328,1.115h-0.306c0-1.203-0.043-2.406-0.174-3.585
				c0.306,0.044,2.186,0.132,3.541,0.132h4.373c1.071,0,1.486-0.109,1.661-0.7l0.351-1.093h0.306
				c-0.087,0.896-0.175,1.815-0.175,2.71c0,0.875,0.088,1.749,0.175,2.536H27.722L27.722,26.537L27.722,26.537z M15.588,18.667
				c-0.918,0-1.706,0.087-1.858,0.153c-0.109,0.043-0.198,0.197-0.241,0.35l-0.415,1.29h-0.307c0-1.203-0.043-2.405-0.174-3.585
				c1.487,0.043,2.973,0.132,4.46,0.132h8.657c1.072,0,1.443-0.044,1.662-0.721l0.35-1.072h0.307
				c-0.088,0.874-0.175,1.793-0.175,2.689c0,0.875,0.087,1.75,0.175,2.558H27.72l-0.35-1.027c-0.219-0.677-0.589-0.766-1.662-0.766
				H15.588L15.588,18.667z M27.722,14.054l-0.219-0.875c-0.088-0.372-0.154-0.502-0.307-0.502c-0.175,0-0.503,0.284-1.333,1.005
				l-3.717,3.215l-3.148-4.045c-0.043-0.066-0.152-0.176-0.261-0.176c-0.089,0-0.197,0.088-0.306,0.35l-0.328,0.94h-0.306
				c0.087-0.743,0.174-1.464,0.174-2.208c0-0.743-0.087-1.464-0.174-2.207h0.306c0.153,0.743,0.481,1.508,0.919,2.12l2.557,3.542
				l5.203-4.504c0.547-0.48,0.678-0.853,0.939-1.748h0.307c-0.088,0.808-0.175,1.639-0.175,2.448c0,0.896,0.087,1.771,0.175,2.645
				L27.722,14.054L27.722,14.054z"/>
			<path fill="#8D151B" d="M16.621,52.74c0,1.759-0.878,2.904-2.076,2.904c-1.213,0-2.126-1.223-2.126-3.07
				c0-1.719,0.836-2.84,1.98-2.84C15.492,49.734,16.621,50.767,16.621,52.74z M16.439,52.574c0-1.35-1.102-1.693-1.859-1.693
				c-0.757,0-1.98,0.433-1.98,1.834c0,1.287,0.801,1.784,1.8,1.784C15.535,54.497,16.439,53.836,16.439,52.574z M12.574,48.869
				c0-0.688-0.035-1.389-0.069-2.078l0.637,0.04v-0.026c-0.499-0.522-0.723-1.299-0.723-2.153c0-0.814,0.146-1.936,1.025-1.936
				c0.267,0,0.715,0.025,1.506,0.025c0.913,0,1.042,0,1.188-0.115c0.138-0.102,0.215-0.688,0.276-1.02h0.121
				c-0.035,0.65-0.069,0.905-0.069,1.618c0,0.675,0.034,1.033,0.069,1.645h-0.121c-0.113-0.638-0.155-0.956-0.301-1.071
				c-0.121-0.09-0.663-0.09-2.17-0.09c-0.612,0-1.188,0.229-1.188,1.439c0,1.007,0.491,1.657,1.18,1.657h1.136
				c0.337,0,0.974-0.014,1.042-0.116c0.129-0.178,0.241-0.75,0.301-1.043h0.121c-0.034,0.534-0.069,1.043-0.069,1.579
				c0,0.573,0.035,1.134,0.069,1.683h-0.121c-0.129-0.586-0.207-1.07-0.336-1.096c-0.173-0.039-0.422-0.039-1.602-0.039
				c-1.464,0-1.601,0.077-1.671,0.459l-0.111,0.637L12.574,48.869L12.574,48.869L12.574,48.869z M11.635,40.08
				c-0.362,0-0.672,0.05-0.733,0.089c-0.043,0.026-0.077,0.115-0.094,0.204l-0.164,0.751h-0.12c0-0.7-0.018-1.401-0.069-2.09
				c0.585,0.026,1.17,0.077,1.756,0.077h3.409c0.422,0,0.568-0.026,0.654-0.42l0.139-0.624h0.12
				c-0.033,0.509-0.068,1.044-0.068,1.567c0,0.51,0.035,1.019,0.068,1.491h-0.12l-0.139-0.599c-0.086-0.396-0.232-0.446-0.654-0.446
				L11.635,40.08L11.635,40.08z M11.169,35.48c0.26,0,0.475,0.307,0.475,0.688c0,0.383-0.215,0.688-0.465,0.688
				c-0.258,0-0.465-0.305-0.465-0.688C10.713,35.787,10.92,35.48,11.169,35.48z M16.414,37.582l-0.155-0.725
				c-0.06-0.28-0.155-0.319-1.506-0.319c-1.801,0-1.859,0.064-1.929,0.395l-0.128,0.649h-0.121c0-0.701-0.017-1.402-0.069-2.09
				c0.121,0.025,0.861,0.077,1.396,0.077h1.721c0.422,0,0.586-0.065,0.655-0.408l0.138-0.637h0.122
				c-0.035,0.522-0.069,1.057-0.069,1.579c0,0.51,0.034,1.02,0.069,1.478L16.414,37.582L16.414,37.582z M12.574,34.003
				c0-0.689-0.035-1.39-0.069-2.077l0.637,0.038v-0.025c-0.499-0.523-0.723-1.3-0.723-2.153c0-0.816,0.146-1.937,1.025-1.937
				c0.267,0,0.715,0.026,1.506,0.026c0.913,0,1.042,0,1.188-0.115c0.138-0.101,0.215-0.687,0.276-1.019h0.121
				c-0.035,0.649-0.069,0.904-0.069,1.617c0,0.675,0.034,1.032,0.069,1.644h-0.121c-0.113-0.637-0.155-0.955-0.301-1.07
				c-0.121-0.09-0.663-0.09-2.17-0.09c-0.612,0-1.188,0.23-1.188,1.44c0,1.006,0.491,1.656,1.18,1.656h1.136
				c0.337,0,0.974-0.014,1.042-0.115c0.129-0.179,0.241-0.752,0.301-1.045h0.121c-0.034,0.534-0.069,1.045-0.069,1.58
				c0,0.572,0.035,1.133,0.069,1.682h-0.121c-0.129-0.586-0.207-1.071-0.336-1.096c-0.173-0.038-0.422-0.038-1.602-0.038
				c-1.464,0-1.601,0.075-1.671,0.458l-0.111,0.638H12.574L12.574,34.003z"/>
			
				<radialGradient id="SVGID_1_" cx="-753.459" cy="-317.0093" r="3.8228" fx="-753.3593" fy="-316.8891" gradientTransform="matrix(0 -1 -1 0 -301.4839 -730.6802)" gradientUnits="userSpaceOnUse">
				<stop  offset="0" style="stop-color:#99BADF"/>
				<stop  offset="0.0976" style="stop-color:#95B5DB"/>
				<stop  offset="0.2312" style="stop-color:#89A7D1"/>
				<stop  offset="0.3856" style="stop-color:#778FC0"/>
				<stop  offset="0.5558" style="stop-color:#5F70A9"/>
				<stop  offset="0.7363" style="stop-color:#434C90"/>
				<stop  offset="0.9059" style="stop-color:#202D7B"/>
			</radialGradient>
			<path fill="url(#SVGID_1_)" d="M14.476,21.198c1.658,0,3.001,1.342,3.001,3c0,1.002-0.495,1.888-1.251,2.434
				c0.52-0.461,0.812-1.191,0.778-2.204c-0.032-0.942-0.342-1.714-0.895-2.208L15.91,22.42c0.222,0.335,0.35,0.737,0.35,1.169
				c0,1.304-0.931,2.104-2.104,2.104c0-2.955,0-2.951,0-3.491c0-0.218-0.07-0.328-0.327-0.328c-1.382,0-2.034,1.261-2.034,2.553
				c0,0.772,0.222,1.472,0.656,1.979c-0.6-0.548-0.977-1.333-0.977-2.21C11.477,22.54,12.819,21.198,14.476,21.198z M12.25,24.366
				c0.021,0.606,0.588,1.097,1.465,1.097l-0.097-2.028C12.544,23.435,12.232,23.813,12.25,24.366z"/>
		</g>
	</g>
	<rect x="-0.378" fill="none" width="60" height="80"/>
</g>
</svg>
