<?xml version="1.0" encoding="utf-8"?>
<!-- Generator: Adobe Illustrator 16.0.0, SVG Export Plug-In . SVG Version: 6.00 Build 0)  -->
<!DOCTYPE svg PUBLIC "-//W3C//DTD SVG 1.1//EN" "http://www.w3.org/Graphics/SVG/1.1/DTD/svg11.dtd">
<svg version="1.1" id="Ebene_1" xmlns="http://www.w3.org/2000/svg" xmlns:xlink="http://www.w3.org/1999/xlink" x="0px" y="0px"
	 width="180px" height="80px" viewBox="-0.75 0 180 80" enable-background="new -0.75 0 180 80" xml:space="preserve">
<g>
	<g>
		<path fill="#00597C" d="M94.667,38.978v11.711h-3.099V38.978h-6.413c-0.619,0.015-1.685,0.253-1.685,1.685v5.012
			c0,2.261-1.498,5.622-5.622,5.622h-5.294v-2.895h5.294c2.597,0,2.729-2.272,2.729-2.729v-5.012c0-3.359,2.737-4.578,4.578-4.578
			h13.897v2.894H94.667z M84.212,25.486v-5.012c0-1.432,1.065-1.67,1.686-1.685h6.139v11.713h3.098V18.79h4.37v-2.894H85.896
			c-1.84,0-4.578,1.219-4.578,4.578v5.012c0,0.456-0.132,2.729-2.729,2.729h-5.294v2.894h5.294
			C82.715,31.108,84.212,27.746,84.212,25.486z M107.794,36.333l4.983,14.356h-3.098l-1.033-3.098h-5.678l-1.074,3.098h-2.938
			l5.185-14.356H107.794z M107.872,45.27l-1.985-6.117l-2.123,6.117H107.872z M108.26,16.146l4.983,14.356h-3.099l-1.033-3.098
			h-5.678l-1.072,3.098h-2.939l5.184-14.356H108.26z M108.338,25.082l-1.984-6.116l-2.125,6.116H108.338z M149.464,24.248h6.116
			v-2.344h-6.116v-3.416h6.532v-2.342h-9.611v14.356h9.83V28.12h-6.751V24.248z M171.387,30.503h-3.396
			c-0.14-0.794-0.576-4.428-0.775-4.984c-0.276-0.813-1.032-0.813-1.549-0.813h-2.701v5.798h-3.137V16.146h5.501
			c1.589-0.021,3.197-0.021,4.35,0.973c0.893,0.774,1.25,1.826,1.25,2.76c0,2.681-2.303,3.317-2.998,3.515
			c2.164,0.199,2.323,1.431,2.582,3.297c0.219,1.688,0.336,2.383,0.437,2.779C171.107,30.105,171.227,30.265,171.387,30.503z
			 M167.713,20.356c0-0.974-0.477-1.431-0.755-1.609c-0.478-0.338-1.054-0.338-2.024-0.338h-2.065v4.012h2.481
			c0.357,0,1.072,0,1.569-0.396C167.137,21.865,167.713,21.368,167.713,20.356z M142.891,16.146h-3.595l-4.806,6.215v-6.176h-3.077
			v14.317h3.077v-7.307l5.023,7.307h3.834l-5.72-7.924L142.891,16.146z M127.096,49.657c0.158,0.637,0.277,0.795,0.438,1.032h-3.396
			c-0.14-0.795-0.576-4.428-0.773-4.983c-0.278-0.813-1.033-0.813-1.551-0.813h-2.699v5.799h-3.139V36.333h5.502
			c1.588-0.02,3.195-0.02,4.349,0.973c0.894,0.774,1.251,1.827,1.251,2.761c0,2.681-2.305,3.316-2.999,3.515
			c2.165,0.199,2.323,1.43,2.582,3.298C126.877,48.566,126.996,49.262,127.096,49.657z M123.857,40.543
			c0-0.973-0.477-1.431-0.754-1.608c-0.478-0.338-1.054-0.338-2.026-0.338h-2.063v4.012h2.481c0.356,0,1.071,0,1.567-0.397
			C123.281,42.053,123.857,41.557,123.857,40.543z M129.502,38.716h4.27v11.974h3.099V38.716h4.271v-2.383h-11.638L129.502,38.716
			L129.502,38.716z M127.563,29.47c0.156,0.636,0.276,0.795,0.436,1.033h-3.396c-0.139-0.794-0.574-4.428-0.772-4.984
			c-0.278-0.813-1.034-0.813-1.55-0.813h-2.701v5.798h-3.137V16.146h5.5c1.588-0.021,3.197-0.021,4.35,0.973
			c0.893,0.774,1.25,1.826,1.25,2.76c0,2.681-2.303,3.317-2.997,3.515c2.163,0.199,2.321,1.431,2.581,3.297
			C127.344,28.379,127.462,29.073,127.563,29.47z M124.322,20.356c0-0.974-0.475-1.431-0.754-1.609
			c-0.477-0.338-1.053-0.338-2.024-0.338h-2.065v4.012h2.482c0.357,0,1.072,0,1.568-0.396
			C123.748,21.865,124.322,21.368,124.322,20.356z M73.14,64.955h1.089l1.203-5.813h-1.089L73.14,64.955z M74.505,57.813h1.31
			l0.242-1.191h-1.309L74.505,57.813z M76.589,64.955h1.09l0.693-3.346c0.243-1.17,1.088-1.736,1.876-1.736
			c0.37,0,0.717,0.128,0.949,0.395c0.208,0.267,0.185,0.612,0.104,0.994l-0.764,3.693h1.111l0.81-3.947
			c0.371-1.783-1.169-1.979-1.688-1.979c-1.319,0-1.91,0.81-2.084,1.053l0.186-0.938h-1.088l-0.128,0.672L76.589,64.955z
			 M83.676,63.23c-0.302,1.399,0.706,1.887,1.888,1.887c0.602,0,1.227-0.081,1.806-0.395c0.476-0.267,0.949-0.822,1.089-1.471
			c0.08-0.37,0.046-0.775-0.221-1.076c-0.277-0.324-0.602-0.417-2.13-0.799c-0.289-0.081-0.787-0.208-0.671-0.74
			c0.174-0.834,1.191-0.834,1.354-0.834c0.396,0,1.146,0.069,0.927,0.949h1.111c0.047-0.243,0.104-0.521,0.023-0.846
			c-0.197-0.694-1.183-0.902-1.911-0.902c-1.343,0-2.407,0.693-2.627,1.76c-0.255,1.215,0.718,1.459,1.875,1.736
			c0.822,0.197,1.204,0.301,1.088,0.868c-0.046,0.196-0.15,0.394-0.301,0.544c-0.289,0.289-0.638,0.369-1.088,0.369
			c-1.055,0-1.157-0.612-1.065-1.053h-1.146V63.23z M93.413,62.514c-0.081,0.404-0.208,1.075,0.14,1.688
			c0.486,0.846,1.76,0.948,2.396,0.948c2.142,0,3.531-1.121,3.844-2.604c0.068-0.347,0.186-1.156-0.486-1.667
			c-0.416-0.323-0.637-0.37-2.522-0.879c-0.962-0.244-1.4-0.498-1.239-1.239c0.174-0.832,0.973-1.354,2.131-1.354
			c0.821,0,1.655,0.23,1.493,1.273h1.204c0.046-0.349,0.15-0.916-0.209-1.425c-0.521-0.729-1.62-0.821-2.176-0.821
			c-1.574,0-3.346,0.74-3.693,2.442c-0.115,0.556-0.068,1.181,0.521,1.644c0.369,0.289,0.902,0.43,2.117,0.74
			c1.111,0.291,1.817,0.475,1.621,1.413c-0.08,0.417-0.521,1.493-2.258,1.493c-1.922,0-1.771-1.076-1.679-1.654H93.413z
			 M101.38,59.92h1.029l-0.81,3.878c-0.197,0.949,0.219,1.238,1.215,1.238c0.394,0,0.717-0.035,0.914-0.069l0.174-0.845
			c-0.092,0.022-0.313,0.058-0.531,0.058c-0.775,0-0.672-0.486-0.614-0.775l0.729-3.483h1.297l0.162-0.799h-1.297l0.324-1.563
			l-1.146,0.348l-0.256,1.217h-1.029L101.38,59.92z M106.393,59.145l-0.81,3.9c-0.244,1.146,0.254,1.969,1.688,1.969
			c1.25,0,1.783-0.647,2.072-1.055l-0.174,0.996h1.135c0.047-0.324,0.162-0.973,0.187-1.088l0.983-4.725h-1.123l-0.684,3.289
			c-0.059,0.289-0.15,0.74-0.475,1.088c-0.405,0.463-0.949,0.647-1.493,0.647c-1.111,0-1.089-0.718-0.974-1.285l0.775-3.739h-1.109
			V59.145z M117.67,59.932c-0.093-0.244-0.359-0.984-1.609-0.984c-1.365,0-2.824,0.961-3.287,3.173
			c-0.521,2.547,1.11,2.952,1.888,2.952c0.394,0,0.983-0.104,1.528-0.43c0.347-0.209,0.521-0.451,0.646-0.613l-0.162,0.927h1.09
			c0.033-0.302,0.114-0.8,0.139-0.927l1.539-7.42h-1.088L117.67,59.932z M117.275,61.969c-0.092,0.451-0.485,2.338-2.199,2.338
			c-1.331,0-1.344-1.191-1.135-2.223c0.082-0.395,0.486-2.327,2.084-2.327c0.613,0,0.983,0.29,1.146,0.591
			C117.357,60.66,117.449,61.123,117.275,61.969z M119.895,64.955h1.088l1.203-5.813h-1.088L119.895,64.955z M121.26,57.813h1.309
			l0.242-1.191h-1.308L121.26,57.813z M124.409,59.145l-0.812,3.9c-0.242,1.146,0.256,1.969,1.69,1.969
			c1.25,0,1.782-0.647,2.071-1.055l-0.174,0.996h1.135c0.047-0.324,0.162-0.973,0.186-1.088l0.984-4.725h-1.123l-0.684,3.289
			c-0.058,0.289-0.149,0.74-0.475,1.088c-0.404,0.463-0.949,0.647-1.494,0.647c-1.109,0-1.088-0.718-0.972-1.285l0.774-3.739h-1.108
			V59.145z M130.604,64.955h1.102l0.684-3.301c0.068-0.369,0.184-0.844,0.498-1.18c0.16-0.174,0.658-0.638,1.399-0.638
			c0.856,0,1.157,0.558,1.019,1.272l-0.799,3.845h1.1l0.672-3.253c0.047-0.256,0.187-0.893,0.511-1.25
			c0.196-0.209,0.659-0.614,1.364-0.614c0.557,0,0.881,0.243,1.009,0.511c0.08,0.149,0.127,0.369,0.011,0.879l-0.764,3.729h1.1
			l0.811-3.9c0.348-1.714-0.867-2.062-1.701-2.062c-1.284,0-1.922,0.764-2.188,1.088c-0.115-0.429-0.383-1.088-1.668-1.088
			c-0.498,0-1.308,0.081-2.049,0.995l0.174-0.846h-1.1l-0.141,0.776L130.604,64.955z"/>
		<line fill="none" stroke="#1D1D1B" stroke-width="1.212" x1="66.498" y1="5" x2="66.498" y2="75"/>
		<g>
			<path fill="#006688" d="M42.579,37.894c-8.649,0-10.937,7.154-10.937,10.937v7.045c0,3.524-2.965,3.845-3.859,3.858h-6.537v3.764
				h6.537c3.064,0,7.623-2.029,7.623-7.622v-7.037c0.007-0.733,0.267-7.18,7.173-7.18h18.455v-3.765H42.579z"/>
			<path fill="#00597C" d="M38.193,16.592c-8.65,0-10.937,7.154-10.937,10.937v7.045c0,3.525-2.965,3.845-3.858,3.859h-2.152v3.764
				h2.152c3.063,0,7.623-2.03,7.623-7.623v-7.036c0.007-0.735,0.267-7.181,7.172-7.181h22.841v-3.765H38.193z"/>
			<path fill="#C4BAB2" d="M42.579,46.607c-6.906,0-7.166-6.445-7.173-7.172V32.39c0-5.594-4.559-7.623-7.623-7.623h-6.537v3.764
				h6.523c0.908,0.014,3.873,0.334,3.873,3.859v7.045c0,3.782,2.286,10.936,10.937,10.936h18.455v-3.764H42.579z"/>
			<path fill="#7798B1" d="M33.585,54.357c-6.904,0-7.165-6.445-7.172-7.172V40.14c0-4.21-2.583-6.401-5.167-7.228v4.136
				c0.954,0.645,1.402,1.639,1.402,3.092v7.045c0,3.781,2.286,10.937,10.937,10.937h27.449v-3.765H33.585z"/>
		</g>
		<g>
			<rect x="7.114" y="38.433" fill="#D13239" width="14.132" height="3.764"/>
			<path fill="#E9540D" d="M21.246,32.913c-0.85-0.271-1.698-0.396-2.455-0.396H7.113v3.765h11.678c0.01,0,1.035,0.022,2.028,0.519
				c0.152,0.076,0.294,0.159,0.427,0.249V32.913z"/>
			<rect x="7.114" y="24.768" fill="#F8AC00" width="14.132" height="3.764"/>
			<rect x="7.114" y="59.732" fill="#8C1D40" width="14.132" height="3.765"/>
		</g>
	</g>
	<rect x="-0.75" fill="none" width="180" height="80"/>
</g>
</svg>
