<?xml version="1.0" encoding="utf-8"?>
<!-- Generator: Adobe Illustrator 16.0.0, SVG Export Plug-In . SVG Version: 6.00 Build 0)  -->
<!DOCTYPE svg PUBLIC "-//W3C//DTD SVG 1.1//EN" "http://www.w3.org/Graphics/SVG/1.1/DTD/svg11.dtd">
<svg version="1.1" id="Ebene_1" xmlns="http://www.w3.org/2000/svg" xmlns:xlink="http://www.w3.org/1999/xlink" x="0px" y="0px"
	 width="275px" height="80px" viewBox="-0.98 0 275 80" enable-background="new -0.98 0 275 80" xml:space="preserve">
<g>
	<g>
		<polygon points="76.405,25 76.405,23.065 67.341,23.065 67.341,24.748 74.45,24.748 74.45,24.791 67.088,36.064 67.088,38.252 
			76.574,38.252 76.574,36.568 68.876,36.568 		"/>
		<polygon points="81.547,31.31 87.016,31.31 87.016,29.627 81.547,29.627 81.547,24.748 87.435,24.748 87.435,23.065 
			79.611,23.065 79.611,38.252 87.562,38.252 87.562,36.568 81.547,36.568 		"/>
		<polygon points="99.491,36.064 99.448,36.064 93.539,23.065 90.805,23.065 90.805,38.252 92.529,38.252 92.529,25.084 
			92.571,25.084 98.565,38.252 101.215,38.252 101.215,23.065 99.491,23.065 		"/>
		<polygon points="104.207,24.748 108.203,24.748 108.203,38.252 110.139,38.252 110.139,24.748 114.135,24.748 114.135,23.065 
			104.207,23.065 		"/>
		<path d="M122.717,30.365v-0.043c1.787-0.314,2.777-1.683,2.777-3.471c0-1.893-0.947-3.786-3.64-3.786h-5.238v15.187h1.937V31.27
			h2.271c0.652,0,2.146,0.084,2.292,1.936c0.168,2.018,0.042,3.996,0.59,5.047h2.02c-0.295-0.946-0.506-3.323-0.526-3.977
			C125.094,31.226,124.463,30.637,122.717,30.365z M121.455,29.586h-2.902v-4.838h2.923c1.493,0,2.041,1.221,2.041,2.314
			C123.517,28.387,122.844,29.586,121.455,29.586z"/>
		<path d="M136.41,32.783c0,3.322-1.009,4.166-2.838,4.166c-1.83,0-2.839-0.844-2.839-4.166v-9.718h-1.937v9.634
			c0,4.207,1.557,5.867,4.775,5.867s4.773-1.662,4.773-5.867v-9.634h-1.934L136.41,32.783L136.41,32.783z"/>
		<polygon points="152.928,23.065 149.059,35.812 149.017,35.812 145.188,23.065 142.053,23.065 142.053,38.252 143.862,38.252 
			143.862,24.748 143.905,24.748 148.07,38.252 149.899,38.252 154.147,24.748 154.19,24.748 154.19,38.252 156.125,38.252 
			156.125,23.065 		"/>
	</g>
	<g>
		<path fill="#477F20" d="M77.191,55.721c-0.892-0.125-0.94-0.371-0.94-2.155v-4.262c0-1.66-0.844-3.071-2.898-3.071
			c-1.264,0-2.428,0.619-3.469,1.264c-0.173,0-0.272-0.123-0.272-0.271c0-0.225,0-0.596,0.05-1.164
			c-0.05-0.124-0.174-0.174-0.272-0.174c-0.496,0.371-1.908,1.016-2.478,1.214c-0.124,0.074-0.124,0.347-0.025,0.446l0.223,0.148
			c0.669,0.445,0.669,0.569,0.669,1.535v4.336c0,1.783-0.024,2.031-0.94,2.155l-0.521,0.073c-0.174,0.123-0.124,0.546,0.049,0.619
			c0.693-0.049,1.438-0.072,2.329-0.072c0.867,0,1.585,0.023,2.254,0.072c0.175-0.072,0.224-0.496,0.05-0.619l-0.446-0.073
			c-0.893-0.147-0.941-0.371-0.941-2.155v-3.791c0-0.719,0.049-1.064,0.372-1.484c0.348-0.471,1.164-0.867,2.105-0.867
			c1.685,0,2.33,1.04,2.33,2.453v3.689c0,1.783-0.025,2.008-0.942,2.155l-0.471,0.073c-0.173,0.123-0.124,0.546,0.049,0.619
			c0.669-0.049,1.412-0.072,2.304-0.072c0.867,0,1.585,0.023,2.328,0.072c0.174-0.072,0.223-0.496,0.05-0.619L77.191,55.721z"/>
		<path fill="#477F20" d="M88.082,55.275c-0.074,0-0.197,0.1-0.322,0.172c-0.148,0.074-0.371,0.148-0.619,0.148
			c-0.965,0-1.189-1.016-1.139-2.155l0.148-4.312c0.074-1.857-0.793-2.896-2.576-2.896c-1.809,0-4.608,1.76-4.608,3.047
			c0,0.223,0.125,0.348,0.347,0.348c0.372,0,1.041-0.174,1.412-0.471c0.199-0.148,0.224-0.447,0.248-0.844
			c0.05-0.768,0.893-1.113,1.586-1.113c1.535,0,1.833,1.238,1.808,2.155l-0.024,1.14c0,0.371-0.049,0.595-0.42,0.719l-2.947,1.064
			c-1.586,0.57-2.057,1.139-2.057,2.105c0,0.693,0.297,1.313,0.768,1.734c0.421,0.371,1.015,0.569,1.732,0.569
			c0.693,0,1.239-0.321,1.785-0.62c0.494-0.271,0.791-0.494,0.965-0.494c0.149,0,0.297,0.197,0.397,0.346
			c0.421,0.545,1.015,0.77,1.61,0.77c1.213,0,2.08-0.966,2.08-1.091C88.256,55.424,88.182,55.275,88.082,55.275z M84.217,53.787
			c-0.024,0.521-0.024,0.867-0.321,1.164c-0.248,0.248-1.017,0.619-1.511,0.619c-1.264,0-1.562-1.064-1.562-1.484
			c0-0.967,0.718-1.338,2.179-1.834c0.447-0.148,0.867-0.248,1.017-0.248s0.248,0.05,0.248,0.322L84.217,53.787z"/>
		<path fill="#477F20" d="M91.941,47.619h2.8c0.224-0.148,0.272-0.817-0.024-1.041h-2.75c-0.422,0-0.446-0.023-0.446-0.471v-1.113
			C91.422,44.82,91.125,44.82,91,44.871c-0.248,0.492-0.719,1.162-1.041,1.459c-0.248,0.224-0.867,0.545-1.584,0.769
			c-0.1,0.149-0.076,0.422,0.073,0.521h0.694c0.496,0,0.521,0.051,0.521,0.721v5.672c0,1.486,0.445,2.675,2.575,2.675
			c1.265,0,2.155-0.618,2.601-1.139c0.049-0.147-0.049-0.423-0.248-0.423c-0.074,0-0.396,0.273-0.619,0.348
			c-0.198,0.074-0.422,0.124-0.67,0.124c-1.633,0-1.807-1.312-1.807-2.749v-4.632C91.496,47.693,91.521,47.619,91.941,47.619z"/>
		<path fill="#477F20" d="M106.383,55.424c-0.694,0-0.769-0.744-0.769-2.7v-4.163c0-0.916,0.024-1.686,0.074-2.154
			c-0.024-0.1-0.099-0.148-0.222-0.174c-0.545,0.248-1.907,0.422-2.899,0.446c-0.198,0.099-0.198,0.444-0.024,0.545l0.322,0.123
			c0.743,0.298,0.917,0.349,0.917,1.957v4.063c0,0.768-0.174,1.14-0.495,1.436c-0.546,0.472-1.339,0.744-2.008,0.744
			c-1.882,0-2.303-1.141-2.303-2.85V48.56c0-1.214,0.025-1.733,0.074-2.153c-0.024-0.101-0.1-0.149-0.248-0.175
			c-0.545,0.198-1.512,0.421-2.65,0.446c-0.174,0.074-0.197,0.421-0.05,0.545l0.297,0.123c0.744,0.322,0.744,0.545,0.744,2.105
			v4.137c0,2.007,0.817,3.098,2.998,3.098c1.461,0,2.675-0.816,3.419-1.288c0.148,0,0.222,0.124,0.222,0.347v1.016
			c0.05,0.1,0.173,0.174,0.298,0.174c0.842-0.471,2.278-0.719,3.246-0.917c0.197-0.101,0.172-0.594,0.024-0.718
			C107.002,55.373,106.68,55.424,106.383,55.424z"/>
		<path fill="#477F20" d="M114.744,46.232c-0.918,0-1.859,0.768-2.726,1.486c-0.05-0.023-0.074-0.1-0.074-0.223v-1.438
			c0-0.1-0.075-0.148-0.198-0.174c-0.621,0.371-1.932,1.016-2.503,1.214c-0.122,0.074-0.122,0.347-0.024,0.446l0.224,0.148
			c0.669,0.445,0.669,0.569,0.669,1.535v4.336c0,1.783-0.025,2.008-0.941,2.155l-0.471,0.073c-0.173,0.123-0.124,0.545,0.049,0.619
			c0.645-0.049,1.389-0.072,2.279-0.072c0.867,0,1.585,0.023,2.75,0.072c0.172-0.072,0.223-0.496,0.049-0.619l-0.892-0.073
			c-0.942-0.074-0.991-0.371-0.991-2.155v-3.367c0-0.843,0.074-1.562,0.322-1.908c0.197-0.271,0.494-0.494,0.892-0.494
			c0.347,0,0.718,0.148,1.091,0.396c0.172,0.101,0.297,0.173,0.543,0.173c0.397,0,1.065-0.322,1.065-1.139
			C115.857,46.627,115.362,46.232,114.744,46.232z"/>
		<path fill="#477F20" d="M131.508,46.578c-0.621,0-1.239-0.022-1.959-0.074c-0.172,0.074-0.223,0.472-0.024,0.596l0.62,0.1
			c0.298,0.049,0.445,0.174,0.445,0.322c0,0.174-0.049,0.495-0.248,1.064c-0.371,1.041-1.361,3.668-1.685,4.386
			c-0.173,0.396-0.297,0.644-0.347,0.692c-0.075-0.049-0.174-0.321-0.322-0.692c-0.271-0.669-1.611-3.815-1.883-4.632
			c-0.297-0.867-0.348-0.942,0.645-1.141l0.521-0.1c0.147-0.124,0.147-0.52-0.075-0.596c-0.843,0.051-1.585,0.074-2.354,0.074
			c-0.645,0-1.438-0.023-2.057-0.074c-0.197,0.074-0.246,0.445-0.074,0.596l0.397,0.1c0.545,0.125,0.916,0.321,1.14,0.867
			c0.123,0.321,0.098,0.645-0.224,1.438l-1.213,2.998c-0.298,0.718-0.496,1.14-0.57,1.188c0-0.048-0.223-0.494-0.446-1.064
			l-1.535-3.791c-0.272-0.668-0.396-1.139-0.396-1.286c0-0.149,0.198-0.298,0.544-0.347l0.57-0.102
			c0.174-0.124,0.149-0.494-0.05-0.594c-0.67,0.05-1.387,0.074-2.155,0.074c-0.744,0-1.437-0.024-2.205-0.074
			c-0.224,0.1-0.198,0.47-0.073,0.594l0.395,0.102c0.621,0.146,0.918,0.396,1.486,1.781l2.279,5.602
			c0.198,0.52,0.596,1.535,0.744,2.055c0.074,0.074,0.197,0.1,0.297,0.1c0.123,0,0.223-0.023,0.297-0.1
			c0.198-0.568,0.547-1.461,0.992-2.525l1.288-3.098c0.174-0.445,0.521-1.215,0.545-1.215s0.397,0.816,0.569,1.264l1.189,2.85
			c0.422,0.99,0.867,2.279,1.016,2.726c0.074,0.073,0.174,0.099,0.272,0.099c0.124,0,0.224-0.023,0.322-0.099
			c0.198-0.644,0.496-1.362,0.842-2.254c0.472-1.265,1.661-4.237,2.329-5.623c0.521-1.091,0.744-1.438,1.337-1.562l0.496-0.101
			c0.149-0.124,0.124-0.495-0.074-0.595C132.572,46.556,131.978,46.578,131.508,46.578z"/>
		<path fill="#477F20" d="M136.07,43.457c0.693,0,1.313-0.396,1.313-1.287c0-0.694-0.494-1.289-1.238-1.289
			c-0.743,0-1.338,0.521-1.338,1.338C134.807,42.889,135.303,43.457,136.07,43.457z"/>
		<path fill="#477F20" d="M138.103,55.721c-0.894-0.125-0.94-0.371-0.94-2.156v-4.458c0-1.016,0.049-2.204,0.098-3.071
			c-0.023-0.101-0.123-0.149-0.246-0.149c-0.571,0.371-1.982,1.017-2.553,1.214c-0.123,0.074-0.123,0.348-0.024,0.445l0.224,0.15
			c0.668,0.444,0.668,0.568,0.668,1.535v4.335c0,1.784-0.025,2.031-0.941,2.156l-0.52,0.073c-0.174,0.123-0.123,0.545,0.049,0.619
			c0.694-0.049,1.438-0.073,2.33-0.073c0.866,0,1.586,0.024,2.328,0.073c0.174-0.073,0.221-0.496,0.051-0.619L138.103,55.721z"/>
		<path fill="#477F20" d="M143.773,50.518c-0.868-0.494-1.908-1.04-1.908-2.057c0-0.893,0.619-1.512,1.586-1.512
			c1.016,0,1.758,0.719,2.18,1.81c0.125,0.147,0.496,0.099,0.596-0.074c0-0.668-0.174-1.461-0.396-2.007
			c-0.223-0.198-1.14-0.446-2.181-0.446c-1.883,0-3.368,1.017-3.368,2.824c0,1.362,1.016,2.229,2.452,3.047
			c0.917,0.521,1.907,1.14,1.907,2.279c0,1.063-0.768,1.585-1.659,1.585c-1.413,0-2.205-1.188-2.627-2.553
			c-0.125-0.147-0.446-0.123-0.569,0.024c-0.051,0.818,0.098,2.031,0.297,2.503c0.619,0.495,1.485,0.743,2.65,0.743
			c1.833,0,3.566-0.94,3.566-2.823C146.299,52.104,145.086,51.262,143.773,50.518z"/>
		<path fill="#477F20" d="M151.562,50.518c-0.867-0.494-1.907-1.04-1.907-2.057c0-0.893,0.619-1.512,1.585-1.512
			c1.015,0,1.759,0.719,2.181,1.81c0.123,0.147,0.496,0.099,0.594-0.074c0-0.668-0.172-1.461-0.395-2.007
			c-0.225-0.198-1.142-0.446-2.182-0.446c-1.883,0-3.369,1.017-3.369,2.824c0,1.362,1.016,2.229,2.453,3.047
			c0.917,0.521,1.906,1.14,1.906,2.279c0,1.063-0.769,1.585-1.659,1.585c-1.412,0-2.205-1.188-2.626-2.553
			c-0.124-0.147-0.446-0.123-0.57,0.024c-0.05,0.818,0.1,2.031,0.297,2.503c0.62,0.495,1.486,0.743,2.651,0.743
			c1.834,0,3.567-0.94,3.567-2.823C154.088,52.104,152.873,51.262,151.562,50.518z"/>
		<path fill="#477F20" d="M163.408,54.086c-0.768,0.966-1.462,1.214-2.277,1.214c-2.651,0-4.113-2.132-4.113-4.632
			c0-0.62,0.025-0.67,0.669-0.67h4.584c1.039,0,1.387-0.023,1.46-0.174c0.049-0.099,0.102-0.297,0.102-0.644
			c0-1.485-1.389-2.949-3.52-2.949c-2.973,0-4.979,2.554-4.979,5.601c0,1.09,0.297,2.254,1.039,3.22
			c0.721,0.94,1.982,1.636,3.594,1.636c1.287,0,3.07-0.619,3.891-2.304C163.83,54.16,163.656,54.011,163.408,54.086z
			 M160.039,46.977c1.437,0,1.906,0.866,1.906,1.561c0,0.322-0.072,0.422-0.148,0.472c-0.197,0.147-0.742,0.248-2.576,0.248h-1.758
			c-0.174,0-0.174-0.074-0.174-0.124C157.313,48.313,158.578,46.977,160.039,46.977z"/>
		<path fill="#477F20" d="M175.594,55.721c-0.893-0.125-0.941-0.371-0.941-2.155v-4.262c0-1.66-0.841-3.071-2.896-3.071
			c-1.264,0-2.428,0.619-3.469,1.264c-0.174,0-0.273-0.123-0.273-0.271c0-0.225,0-0.596,0.05-1.164
			c-0.05-0.124-0.173-0.174-0.271-0.174c-0.496,0.371-1.908,1.016-2.479,1.214c-0.125,0.074-0.125,0.347-0.023,0.446l0.221,0.148
			c0.67,0.445,0.67,0.569,0.67,1.535v4.336c0,1.783-0.024,2.031-0.941,2.155l-0.521,0.073c-0.172,0.123-0.123,0.546,0.052,0.619
			c0.692-0.049,1.437-0.072,2.328-0.072c0.866,0,1.585,0.023,2.254,0.072c0.174-0.072,0.222-0.496,0.05-0.619l-0.445-0.073
			c-0.894-0.147-0.943-0.371-0.943-2.155v-3.791c0-0.719,0.051-1.064,0.373-1.484c0.347-0.471,1.164-0.867,2.104-0.867
			c1.687,0,2.329,1.04,2.329,2.453v3.689c0,1.783-0.023,2.008-0.941,2.155l-0.471,0.073c-0.173,0.123-0.123,0.546,0.051,0.619
			c0.668-0.049,1.412-0.072,2.303-0.072c0.867,0,1.586,0.023,2.328,0.072c0.174-0.072,0.225-0.496,0.052-0.619L175.594,55.721z"/>
		<path fill="#477F20" d="M181.291,50.518c-0.867-0.494-1.906-1.04-1.906-2.057c0-0.893,0.619-1.512,1.586-1.512
			c1.016,0,1.759,0.719,2.18,1.81c0.125,0.147,0.495,0.099,0.596-0.074c0-0.668-0.174-1.461-0.396-2.007
			c-0.223-0.198-1.141-0.446-2.18-0.446c-1.885,0-3.369,1.017-3.369,2.824c0,1.362,1.016,2.229,2.453,3.047
			c0.916,0.521,1.906,1.14,1.906,2.279c0,1.063-0.769,1.585-1.66,1.585c-1.412,0-2.205-1.188-2.625-2.553
			c-0.125-0.147-0.447-0.123-0.57,0.024c-0.049,0.818,0.1,2.031,0.297,2.503c0.619,0.495,1.486,0.743,2.65,0.743
			c1.834,0,3.567-0.94,3.567-2.823C183.819,52.104,182.605,51.262,181.291,50.518z"/>
		<path fill="#477F20" d="M193.575,53.813c-0.569,0.841-1.313,1.485-2.75,1.485c-2.649,0-3.987-2.305-3.987-4.236
			c0-2.626,1.685-3.986,3.418-3.986c1.017,0,1.934,0.644,2.479,1.312c0.1,0.124,0.223,0.174,0.348,0.174
			c0.297,0,0.545-0.471,0.545-0.917c0-0.421-0.174-0.816-0.373-0.99c-0.668-0.298-1.633-0.422-2.203-0.422
			c-4.112,0-5.996,2.85-5.996,5.524c0,1.61,0.57,2.823,1.438,3.667c0.867,0.842,2.081,1.263,3.395,1.263
			c1.438,0,3.296-0.692,4.138-2.526C193.996,53.937,193.773,53.764,193.575,53.813z"/>
		<path fill="#477F20" d="M205.451,55.721c-0.892-0.1-0.941-0.371-0.941-2.156v-4.137c0-1.732-0.842-3.195-3.194-3.195
			c-1.265,0-2.452,0.596-3.345,1.288c-0.074-0.05-0.1-0.249-0.1-0.471v-5.202c0-1.09,0.051-2.329,0.074-3.072
			c-0.05-0.098-0.148-0.148-0.248-0.148c-0.893,0.471-2.057,0.844-2.676,1.041c-0.124,0.074-0.124,0.422,0,0.496l0.249,0.148
			c0.741,0.447,0.769,0.596,0.769,2.055v11.198c0,1.784-0.025,2.056-0.941,2.156l-0.62,0.073c-0.173,0.123-0.124,0.545,0.05,0.619
			c0.793-0.049,1.536-0.073,2.428-0.073c0.866,0,1.586,0.024,2.328,0.073c0.174-0.073,0.225-0.521,0.051-0.619l-0.521-0.073
			c-0.893-0.125-0.941-0.372-0.941-2.156v-4.161c0-0.869,0.074-0.992,0.521-1.363c0.445-0.371,1.089-0.668,1.932-0.668
			c1.586,0,2.354,1.065,2.354,2.65v3.542c0,1.784-0.024,2.007-0.941,2.156l-0.495,0.073c-0.173,0.123-0.124,0.545,0.05,0.619
			c0.668-0.049,1.412-0.073,2.305-0.073c0.865,0,1.584,0.024,2.477,0.073c0.174-0.073,0.225-0.496,0.051-0.619L205.451,55.721z"/>
		<path fill="#477F20" d="M216.41,55.275c-0.074,0-0.197,0.1-0.322,0.172c-0.147,0.074-0.371,0.148-0.619,0.148
			c-0.967,0-1.189-1.016-1.141-2.155l0.149-4.312c0.073-1.857-0.793-2.896-2.575-2.896c-1.811,0-4.609,1.76-4.609,3.047
			c0,0.223,0.125,0.348,0.348,0.348c0.371,0,1.041-0.174,1.412-0.471c0.197-0.148,0.224-0.447,0.248-0.844
			c0.049-0.768,0.893-1.113,1.586-1.113c1.535,0,1.834,1.238,1.809,2.155l-0.025,1.14c0,0.371-0.049,0.595-0.42,0.719l-2.949,1.064
			c-1.586,0.57-2.057,1.139-2.057,2.105c0,0.693,0.299,1.313,0.77,1.734c0.42,0.371,1.016,0.569,1.732,0.569
			c0.694,0,1.239-0.321,1.784-0.62c0.495-0.271,0.792-0.494,0.966-0.494c0.149,0,0.297,0.197,0.397,0.346
			c0.421,0.545,1.015,0.77,1.608,0.77c1.215,0,2.082-0.966,2.082-1.091C216.582,55.424,216.508,55.275,216.41,55.275z
			 M212.543,53.787c-0.022,0.521-0.022,0.867-0.32,1.164c-0.248,0.248-1.016,0.619-1.512,0.619c-1.265,0-1.562-1.064-1.562-1.484
			c0-0.967,0.719-1.338,2.181-1.834c0.445-0.148,0.867-0.248,1.016-0.248s0.246,0.05,0.246,0.322L212.543,53.787z"/>
		<path fill="#477F20" d="M221.403,40.98c0.372-0.892,0.992-1.361,1.761-1.361c0.815,0,1.51,0.545,1.98,1.09
			c0.174,0.197,0.322,0.297,0.595,0.297c0.472,0,0.94-0.396,0.94-0.891c0-0.894-1.113-1.488-2.428-1.488
			c-2.451,0-3.84,1.736-4.459,3.146c-0.595,1.387-0.768,2.924-0.768,4.361c0,0.247-0.174,0.396-0.371,0.494l-1.066,0.521
			c-0.099,0.146-0.072,0.37,0.076,0.471h0.866c0.495,0,0.495,0.049,0.495,0.72v5.226c0,1.784-0.023,2.031-0.941,2.156l-0.568,0.072
			c-0.174,0.123-0.125,0.546,0.049,0.619c0.742-0.047,1.486-0.072,2.378-0.072c0.867,0,1.585,0.025,2.7,0.072
			c0.174-0.072,0.223-0.496,0.05-0.619l-0.894-0.072c-0.893-0.075-0.94-0.372-0.94-2.156v-5.226c0-0.671,0-0.72,0.422-0.72h2.649
			c0.272-0.101,0.447-0.793,0.174-1.041h-2.823c-0.422,0-0.422-0.024-0.422-0.693v-0.721
			C220.858,43.93,220.957,42.119,221.403,40.98z"/>
		<path fill="#477F20" d="M228.643,47.619h2.8c0.224-0.148,0.272-0.817-0.024-1.041h-2.75c-0.42,0-0.445-0.023-0.445-0.471v-1.113
			c-0.1-0.174-0.396-0.174-0.52-0.123c-0.248,0.492-0.72,1.162-1.041,1.459c-0.248,0.224-0.867,0.545-1.586,0.769
			c-0.1,0.149-0.074,0.422,0.073,0.521h0.692c0.496,0,0.521,0.051,0.521,0.721v5.672c0,1.486,0.446,2.675,2.576,2.675
			c1.264,0,2.154-0.618,2.602-1.139c0.049-0.147-0.05-0.423-0.248-0.423c-0.074,0-0.396,0.273-0.619,0.348
			c-0.197,0.074-0.422,0.124-0.668,0.124c-1.635,0-1.81-1.312-1.81-2.749v-4.632C228.196,47.693,228.221,47.619,228.643,47.619z"/>
		<path fill="#477F20" d="M240.194,54.086c-0.769,0.966-1.461,1.214-2.278,1.214c-2.649,0-4.111-2.132-4.111-4.632
			c0-0.62,0.023-0.67,0.668-0.67h4.582c1.041,0,1.389-0.023,1.463-0.174c0.049-0.099,0.1-0.297,0.1-0.644
			c0-1.485-1.388-2.949-3.518-2.949c-2.973,0-4.98,2.554-4.98,5.601c0,1.09,0.299,2.254,1.041,3.22
			c0.719,0.94,1.982,1.636,3.592,1.636c1.289,0,3.072-0.619,3.892-2.304C240.615,54.16,240.441,54.011,240.194,54.086z
			 M236.825,46.977c1.437,0,1.907,0.866,1.907,1.561c0,0.322-0.074,0.422-0.148,0.472c-0.197,0.147-0.744,0.248-2.576,0.248h-1.758
			c-0.175,0-0.175-0.074-0.175-0.124C234.101,48.313,235.364,46.977,236.825,46.977z"/>
		<path fill="#477F20" d="M252.926,55.795l-0.547-0.073c-0.892-0.125-0.94-0.372-0.94-2.155v-4.262c0-1.66-0.843-3.072-2.897-3.072
			c-1.264,0-2.428,0.62-3.469,1.264c-0.173,0-0.271-0.123-0.271-0.271c0-0.224,0-0.597,0.049-1.165
			c-0.049-0.124-0.174-0.173-0.271-0.173c-0.496,0.371-1.908,1.015-2.479,1.214c-0.124,0.074-0.124,0.348-0.023,0.446l0.223,0.147
			c0.668,0.446,0.668,0.57,0.668,1.536v4.337c0,1.782-0.024,2.029-0.94,2.154l-0.521,0.072c-0.174,0.125-0.125,0.547,0.049,0.621
			c0.693-0.049,1.438-0.074,2.328-0.074c0.867,0,1.586,0.025,2.256,0.074c0.174-0.074,0.223-0.496,0.05-0.621l-0.447-0.072
			c-0.892-0.148-0.94-0.371-0.94-2.154v-3.791c0-0.72,0.05-1.066,0.371-1.486c0.348-0.471,1.164-0.866,2.105-0.866
			c1.686,0,2.329,1.04,2.329,2.452v3.691c0,1.782-0.024,2.006-0.942,2.154l-0.471,0.072c-0.173,0.125-0.123,0.547,0.051,0.621
			c0.668-0.049,1.411-0.074,2.305-0.074c0.867,0,1.584,0.025,2.328,0.074C253.049,56.34,253.098,55.918,252.926,55.795z"/>
		<path fill="#477F20" d="M40.004,20.002c-11.045,0-19.999,8.953-19.999,19.998c0,5.252,2.024,10.025,5.333,13.595h4.138
			c0,0,7.021,0.144,8.159,0.129c4.595-0.065,8.279-3.856,8.214-8.452c-0.046-3.175-1.904-5.99-4.644-7.352l-3.318,5.746
			l-4.733-2.732l8.884-15.387l1.585,0.914l0.775-1.344l1.564,0.902l-0.777,1.346l1.584,0.914l-4.363,7.559
			c3.456,1.779,5.79,5.365,5.849,9.4c0.047,3.289-1.401,6.254-3.709,8.256c-0.248,0.213,7.829,0.066,10.202,0.02
			c3.264-3.561,5.256-8.303,5.256-13.512C60.004,28.955,51.05,20.002,40.004,20.002z M38.681,47.359l-1.419,2.457l-9.67-5.582
			l1.418-2.457L38.681,47.359z M28.248,56.176h23.513C48.461,58.578,44.399,60,40.005,60C35.609,60,31.548,58.578,28.248,56.176z"/>
	</g>
	<rect x="-0.98" fill="none" width="275" height="80"/>
</g>
</svg>
