<?xml version="1.0" encoding="utf-8"?>
<!-- Generator: Adobe Illustrator 16.0.0, SVG Export Plug-In . SVG Version: 6.00 Build 0)  -->
<!DOCTYPE svg PUBLIC "-//W3C//DTD SVG 1.1//EN" "http://www.w3.org/Graphics/SVG/1.1/DTD/svg11.dtd">
<svg version="1.1" id="Ebene_1" xmlns="http://www.w3.org/2000/svg" xmlns:xlink="http://www.w3.org/1999/xlink" x="0px" y="0px"
	 width="24px" height="24px" viewBox="0 0 24 24" enable-background="new 0 0 24 24" xml:space="preserve">
<path d="M16.833,4.75H7.167c-1.525,0-2.762,1.237-2.762,2.762V19.25l2.762-2.445h9.667c1.525,0,2.764-1.236,2.764-2.762V7.512
	C19.596,5.987,18.357,4.75,16.833,4.75z M11.999,6.384c0.318,0,0.576,0.258,0.576,0.576v5.044c0,0.319-0.258,0.577-0.576,0.577
	c-0.317,0-0.575-0.257-0.575-0.577V6.96C11.424,6.642,11.682,6.384,11.999,6.384z M12.75,14.146c0,0.414-0.337,0.75-0.75,0.75
	c-0.415,0-0.75-0.336-0.75-0.75s0.335-0.75,0.75-0.75C12.413,13.396,12.75,13.732,12.75,14.146z"/>
</svg>
