<?xml version="1.0" encoding="utf-8"?>
<!-- Generator: Adobe Illustrator 16.0.0, SVG Export Plug-In . SVG Version: 6.00 Build 0)  -->
<!DOCTYPE svg PUBLIC "-//W3C//DTD SVG 1.1//EN" "http://www.w3.org/Graphics/SVG/1.1/DTD/svg11.dtd">
<svg version="1.1" id="Ebene_1" xmlns="http://www.w3.org/2000/svg" xmlns:xlink="http://www.w3.org/1999/xlink" x="0px" y="0px"
	 width="24px" height="24px" viewBox="0 0 24 24" enable-background="new 0 0 24 24" xml:space="preserve">
<path d="M15.58,1.635c0.203,0.2,0.305,0.475,0.305,0.823c0,0.345-0.156,0.685-0.469,1.021l-0.317,0.319
	c-0.142,0.16-0.212,0.389-0.212,0.689H14.35c0.004-0.234,0.029-0.42,0.078-0.556c0.048-0.136,0.146-0.287,0.296-0.453l0.38-0.399
	c0.163-0.188,0.244-0.389,0.244-0.604c0-0.207-0.053-0.369-0.16-0.486c-0.107-0.117-0.26-0.175-0.464-0.175
	c-0.198,0-0.356,0.054-0.476,0.16c-0.121,0.107-0.181,0.25-0.181,0.43h-0.538c0.004-0.32,0.116-0.578,0.335-0.774
	c0.22-0.197,0.507-0.295,0.858-0.295C15.09,1.334,15.375,1.435,15.58,1.635z M14.643,5.111c-0.105,0-0.184,0.03-0.237,0.091
	c-0.053,0.061-0.08,0.136-0.08,0.226c0,0.09,0.027,0.164,0.08,0.223c0.054,0.058,0.132,0.088,0.237,0.088
	c0.104,0,0.184-0.029,0.238-0.088c0.054-0.059,0.082-0.133,0.082-0.223c0-0.09-0.028-0.165-0.082-0.226
	C14.826,5.141,14.748,5.111,14.643,5.111z M17.945,16.311L17.945,16.311c-0.004-0.004-0.006-0.008-0.01-0.012
	C17.939,16.305,17.941,16.307,17.945,16.311z M17.928,16.287l-0.002-0.002c0.004,0.006,0.006,0.009,0.01,0.016
	C17.934,16.295,17.93,16.29,17.928,16.287L17.928,16.287z M17.971,16.299c-0.023-0.005-0.039-0.011-0.041-0.012
	C17.932,16.288,17.947,16.294,17.971,16.299L17.971,16.299z M20.006,3.126h-0.807l1.641,2.306h0.416l2.375-4.324l-0.932,0.02
	l-1.662,3.465L20.006,3.126z M23.295,2.555C23.732,3.026,24,3.623,24,4.276c0,1.513-1.406,2.739-3.141,2.739
	c-0.969,0-1.834-0.384-2.41-0.986c-0.229,0.215-0.48,0.417-0.77,0.587c-0.227,0.133-0.961,1.876-1.356,1.876
	c-0.241,0,0.144-1.294-0.071-1.294c-0.006,0-0.012,0.001-0.017,0.002c-0.479,0.12-0.991,0.185-1.522,0.185
	c-2.684,0-4.858-1.653-4.858-3.692c0-1.914,1.914-3.486,4.366-3.674C14.383,0.007,14.547,0,14.713,0s0.332,0.006,0.494,0.019
	c1.689,0.129,3.111,0.923,3.84,2.028c0.514-0.319,1.139-0.509,1.816-0.509c0.393,0,0.764,0.067,1.107,0.182l-0.186,0.384
	c-0.287-0.09-0.598-0.143-0.924-0.143c-1.496,0-2.715,1.039-2.715,2.315c0,1.277,1.219,2.315,2.715,2.315
	c1.498,0,2.717-1.039,2.717-2.315c0-0.495-0.186-0.954-0.496-1.33L23.295,2.555z M18.045,5.478c-0.205-0.363-0.322-0.77-0.322-1.202
	c0-0.716,0.318-1.366,0.832-1.854c-0.65-1.069-2.127-1.819-3.844-1.819c-2.319,0-4.206,1.362-4.206,3.036
	c0,1.673,1.886,3.036,4.206,3.036C16.07,6.675,17.275,6.203,18.045,5.478z M20.318,17.837c0.008,0.002,0.006,0,0.012,0.001
	c0.004,0.001,0.004,0.001,0.004,0.001c0.002,0,0.002,0,0.002,0c-0.002-0.001-0.006-0.001-0.01-0.001L20.318,17.837z M18.143,16.182
	c0.002-0.024,0-0.047-0.004-0.063l0,0C18.143,16.133,18.145,16.156,18.143,16.182z"/>
<path d="M4.986,14.826c0.146,0.257,0.094,0.489,0.081,0.534c-0.875,1.043-1.418,3.07-0.966,4.971
	C4.311,21.217,5.085,22.665,5.879,24h5.116l-0.133-0.967l2.223-1.726l0.425-3.643l2.169-1.312c-0.173-0.385-0.377-0.723-0.605-0.993
	c-0.016-0.052-0.065-0.28,0.077-0.534c0.109-0.186,0.159-0.291,0.629-0.991c1.198-1.789,0.273-4.839-0.74-4.58
	c-1.019,0.261-2.43,1.38-2.43,1.38c0.239-0.976,0.682-1.567,1.226-1.891c0.632-0.377,0-0.473,0-0.473h-7.53c0,0-0.633,0.096,0,0.473
	c0.541,0.324,0.986,0.915,1.227,1.893L7.53,10.636c0,0-1.411-1.119-2.429-1.38c-1.015-0.26-1.938,2.791-0.741,4.58
	C4.829,14.535,4.882,14.641,4.986,14.826z M12.324,12.378c0.05-0.37,1.585-1.89,2.344-2.083s1.35,2.02,0.555,3.408
	c-0.533,0.927-1.26,0.817-1.26,0.817v0.002c-0.043-0.021-0.085-0.043-0.128-0.063c-0.858-0.409-1.742-0.56-1.742-0.56
	S12.194,13.222,12.324,12.378z M5.471,10.295c0.756,0.193,2.294,1.713,2.346,2.083c0.128,0.844,0.229,1.521,0.229,1.521
	s-0.88,0.15-1.741,0.56c-0.043,0.021-0.086,0.043-0.128,0.063l0.001-0.002c0,0-0.728,0.109-1.261-0.817
	C4.121,12.314,4.714,10.102,5.471,10.295z"/>
</svg>
