<?xml version="1.0" encoding="utf-8"?>
<!-- Generator: Adobe Illustrator 16.0.0, SVG Export Plug-In . SVG Version: 6.00 Build 0)  -->
<!DOCTYPE svg PUBLIC "-//W3C//DTD SVG 1.1//EN" "http://www.w3.org/Graphics/SVG/1.1/DTD/svg11.dtd">
<svg version="1.1" id="Ebene_1" xmlns="http://www.w3.org/2000/svg" xmlns:xlink="http://www.w3.org/1999/xlink" x="0px" y="0px"
	 width="24px" height="24px" viewBox="0 0 24 24" enable-background="new 0 0 24 24" xml:space="preserve">
<g>
	<line fill="none" stroke="#000000" stroke-linecap="round" stroke-miterlimit="10" x1="2.789" y1="7.873" x2="2.789" y2="16.127"/>
	<line fill="none" stroke="#000000" stroke-linecap="round" stroke-miterlimit="10" x1="1.008" y1="9.569" x2="1.008" y2="14.431"/>
	
		<line fill="none" stroke="#000000" stroke-linecap="round" stroke-miterlimit="10" x1="21.211" y1="16.127" x2="21.211" y2="7.873"/>
	
		<line fill="none" stroke="#000000" stroke-linecap="round" stroke-miterlimit="10" x1="22.992" y1="14.431" x2="22.992" y2="9.569"/>
	<g>
		<path d="M20.197,17.281V6.718c0-1.492-1.209-2.701-2.701-2.701H6.69c-1.491,0-2.701,1.209-2.701,2.701v10.563
			c0,1.492,1.21,2.702,2.701,2.702h10.806C18.988,19.983,20.197,18.773,20.197,17.281z M6.69,19.308
			c-1.118,0-2.025-0.907-2.025-2.026V6.718c0-1.119,0.907-2.025,2.025-2.025h10.806c1.119,0,2.025,0.906,2.025,2.025v10.563
			c0,1.119-0.906,2.026-2.025,2.026H6.69z"/>
		<circle cx="9.949" cy="18.013" r="0.592"/>
		<circle cx="12.093" cy="18.013" r="0.592"/>
		<circle cx="14.239" cy="18.013" r="0.592"/>
		<path d="M15.05,10.039c-0.091-0.203-0.198-0.382-0.318-0.524c-0.008-0.026-0.033-0.147,0.041-0.281
			c0.057-0.098,0.083-0.152,0.331-0.522c0.631-0.941,0.145-2.551-0.392-2.413c-0.535,0.137-1.278,0.727-1.278,0.727h-0.002
			c0.126-0.514,0.362-0.826,0.646-0.996c0.335-0.2,0-0.25,0-0.25h-3.969c0,0-0.334,0.05,0,0.25c0.285,0.17,0.52,0.482,0.646,0.997
			l-0.001-0.001c0,0-0.744-0.59-1.279-0.727C8.939,6.16,8.453,7.77,9.084,8.711c0.247,0.37,0.275,0.425,0.331,0.522
			C9.49,9.369,9.462,9.491,9.456,9.516c-0.461,0.549-0.748,1.619-0.509,2.62c0.249,1.047,1.994,3.591,1.994,3.591
			s0.81,1.222,1.153,1.222c0.274,0,0.848-0.781,1.064-1.095c0.055-0.079,0.089-0.127,0.089-0.127l-0.562-0.894l-0.175-1.272
			l1.173-0.91l0.224-1.92L15.05,10.039z M10.109,9.041c-0.022,0.01-0.045,0.021-0.067,0.033V9.073c0,0-0.383,0.057-0.663-0.431
			C8.957,7.909,9.27,6.743,9.67,6.845c0.399,0.103,1.208,0.903,1.237,1.099c0.066,0.444,0.12,0.802,0.12,0.802
			S10.564,8.825,10.109,9.041z M13.16,8.745c0,0,0.053-0.357,0.12-0.802c0.028-0.195,0.839-0.996,1.237-1.099
			c0.4-0.102,0.711,1.064,0.292,1.798c-0.28,0.487-0.664,0.431-0.664,0.431v0.001c-0.021-0.012-0.045-0.023-0.067-0.033
			C13.624,8.825,13.16,8.745,13.16,8.745z"/>
	</g>
</g>
</svg>
