<?xml version="1.0" encoding="utf-8"?>
<!-- Generator: Adobe Illustrator 16.0.0, SVG Export Plug-In . SVG Version: 6.00 Build 0)  -->
<!DOCTYPE svg PUBLIC "-//W3C//DTD SVG 1.1//EN" "http://www.w3.org/Graphics/SVG/1.1/DTD/svg11.dtd">
<svg version="1.1" id="Ebene_1" xmlns="http://www.w3.org/2000/svg" xmlns:xlink="http://www.w3.org/1999/xlink" x="0px" y="0px"
	 width="24px" height="24px" viewBox="0 0 24 24" enable-background="new 0 0 24 24" xml:space="preserve">
<path d="M22.99,13.356l-0.018-6.698l-0.483-0.29l-0.483-0.29V5.262c0-0.448-0.043-0.896-0.088-0.993
	c-0.132-0.246-0.483-0.211-0.861,0.097c-0.176,0.14-0.562,0.369-0.853,0.5c-0.466,0.22-0.633,0.246-1.362,0.246
	c-0.756,0-0.914-0.035-1.625-0.325c-1.662-0.667-2.805-0.641-4.378,0.079l-0.677,0.317l-0.395-0.282
	c-0.51-0.369-1.697-0.922-2.373-1.107C8.77,3.627,7.038,3.547,6.379,3.67C5.737,3.785,4.709,4.136,4.05,4.461
	c-0.834,0.422-1.556,0.94-1.556,1.125c0,0.184-0.167,0.333-0.721,0.615c-0.22,0.123-0.492,0.281-0.589,0.352
	C1.009,6.694,1,6.738,1,13.374c0,3.675,0,6.724,0,6.785c0,0.061,0.079,0.15,0.167,0.202c0.141,0.07,0.299,0.017,0.817-0.264
	c1.389-0.747,2.743-1.108,4.466-1.195c1.643-0.088,2.663,0.062,5.009,0.712l0.571,0.158l0.923-0.271
	c1.662-0.492,2.276-0.591,3.956-0.591c2.135,0.011,3.453,0.309,5.071,1.188c0.5,0.272,0.693,0.334,0.817,0.264
	c0.079-0.043,0.167-0.133,0.184-0.193C22.999,20.106,23.008,17.038,22.99,13.356z M2.063,19.148l-0.36,0.149v-6.064V7.178
	l0.29-0.176c0.149-0.097,0.307-0.176,0.351-0.176c0.035,0,0.062,2.707,0.062,6.021c0,3.314,0,6.047,0.009,6.083
	C2.415,18.964,2.257,19.061,2.063,19.148z M11.125,18.684c-1.459-0.449-2.267-0.555-4.06-0.555c-1.266,0-1.873,0.035-2.329,0.142
	c-0.334,0.079-0.625,0.131-0.642,0.113c-0.114-0.113,1.547-0.747,2.4-0.914c0.773-0.158,2.206-0.053,2.997,0.21
	c0.765,0.255,1.521,0.634,1.925,0.968l0.264,0.211L11.125,18.684z M11.723,11.845c0,3.287-0.027,5.968-0.062,5.95
	c-2.004-1.02-2.505-1.17-4.069-1.159c-1.416,0-2.162,0.175-3.472,0.817l-0.835,0.413v-5.995c0-5.59,0.008-5.994,0.158-6.117
	c0.246-0.229,1.266-0.756,1.828-0.958C6.687,4.304,8.233,4.25,9.473,4.664c0.799,0.273,1.362,0.545,1.881,0.923l0.369,0.272V11.845z
	 M15.028,18.208c-0.458,0.07-1.151,0.202-1.521,0.298c-0.378,0.098-0.694,0.158-0.711,0.142c-0.053-0.054,0.588-0.352,1.082-0.51
	c0.535-0.167,0.948-0.229,1.361-0.185c0.167,0.018,0.404,0.035,0.52,0.035C16.171,17.988,15.862,18.085,15.028,18.208z
	 M18.852,17.945c-0.766,0-0.924-0.036-1.635-0.325c-1.478-0.591-2.708-0.625-3.946-0.107c-0.3,0.124-0.607,0.246-0.686,0.273
	c-0.15,0.044-0.158-0.273-0.158-5.854V6.035l0.404-0.264c0.254-0.16,0.637-0.322,1.013-0.448v4.474l1.094-1.523l1.094,1.523V5.256
	c0.2,0.049,0.404,0.108,0.614,0.181c1.186,0.413,1.59,0.51,2.196,0.51c0.8-0.009,1.31-0.141,2.225-0.598
	c0.034-0.017,0.052,2.655,0.043,5.933l-0.025,5.959l-0.695,0.352C19.721,17.935,19.668,17.945,18.852,17.945z M22.27,19.289
	l-0.923-0.368c-0.834-0.327-1.107-0.494-0.809-0.494c0.133,0,1.301-0.747,1.397-0.895c0.036-0.063,0.07-2.463,0.07-5.336
	c0-4.624,0.018-5.204,0.133-5.106c0.113,0.097,0.131,0.887,0.131,6.152V19.289z"/>
</svg>
