<?xml version="1.0" encoding="utf-8"?>
<!-- Generator: Adobe Illustrator 16.0.0, SVG Export Plug-In . SVG Version: 6.00 Build 0)  -->
<!DOCTYPE svg PUBLIC "-//W3C//DTD SVG 1.1//EN" "http://www.w3.org/Graphics/SVG/1.1/DTD/svg11.dtd">
<svg version="1.1" id="Ebene_1" xmlns="http://www.w3.org/2000/svg" xmlns:xlink="http://www.w3.org/1999/xlink" x="0px" y="0px"
	 width="24px" height="24px" viewBox="0 0 24 24" enable-background="new 0 0 24 24" xml:space="preserve">
<path d="M6.189,22.547h3.332v0.313H6.189c-0.373,0-0.678-0.303-0.678-0.676v-5.951c-0.613-0.078-1.089-0.603-1.089-1.235
	c0-0.687,0.559-1.245,1.245-1.245c0.688,0,1.246,0.559,1.246,1.245c0,0.634-0.477,1.157-1.09,1.235v5.951
	C5.824,22.383,5.988,22.547,6.189,22.547z M5.667,15.93c0.515,0,0.933-0.419,0.933-0.934c0-0.516-0.418-0.934-0.933-0.934
	c-0.514,0-0.933,0.418-0.933,0.934C4.734,15.511,5.153,15.93,5.667,15.93z"/>
<rect x="10.787" y="21.531" width="7.916" height="0.469"/>
<rect x="10.787" y="22.531" width="9.884" height="0.469"/>
<rect x="10.787" y="23.531" width="5.83" height="0.469"/>
<rect x="3.722" width="8.108" height="0.468"/>
<rect x="4.572" y="1" width="7.258" height="0.468"/>
<rect x="3.656" y="2.001" width="8.174" height="0.468"/>
<path d="M7.42,16.074c0.007,0.009,0.015,0.018,0.024,0.025C7.437,16.092,7.428,16.083,7.42,16.074L7.42,16.074z"/>
<path d="M19.489,7.923c0,0.687-0.559,1.245-1.244,1.245c-0.688,0-1.246-0.559-1.246-1.245c0-0.634,0.477-1.158,1.088-1.235V1.755
	c0-0.201-0.162-0.365-0.363-0.365h-5.099V1.078h5.098c0.373,0,0.677,0.304,0.677,0.677v4.933C19.013,6.766,19.489,7.29,19.489,7.923
	z M19.177,7.923c0-0.514-0.419-0.933-0.934-0.933S17.31,7.408,17.31,7.923c0,0.515,0.419,0.933,0.934,0.933
	S19.177,8.438,19.177,7.923z"/>
<path d="M22.992,13.313l-0.02-6.492l-0.484-0.281L22.007,6.26V5.467c0-0.435-0.043-0.87-0.089-0.962
	C21.807,4.3,21.375,4.283,21.207,4.48c-0.061,0.077-0.324,0.255-0.579,0.392c-0.261,0.138-0.872,0.546-1.979,0.474v0.786
	c0.173,0,0.704-0.006,1.075-0.088c0.428-0.095,0.775-0.216,1.342-0.491c0.037-0.017,0.052,2.574,0.045,5.753l-0.027,5.775
	l-0.693,0.342c-0.668,0.334-0.722,0.341-1.539,0.341c-0.764,0-0.922-0.032-1.634-0.313c-1.478-0.57-2.708-0.605-3.946-0.103
	c-0.299,0.118-0.606,0.238-0.687,0.265c-0.149,0.043-0.159-0.265-0.159-5.676V6.218l0.405-0.256c0.646-0.396,1.354-0.581,2.09-0.6
	L15.712,5.4c0.294,0.045,0.591,0.109,0.888,0.212c0.529,0.187,0.925,0.314,1.237,0.396V5.2c-0.206-0.058-0.42-0.125-0.62-0.202
	c-0.283-0.107-0.548-0.189-0.806-0.259c0,0-0.322-0.145-1.12-0.186s-1.553,0.131-2.451,0.532l-0.677,0.307l-0.396-0.273
	c-0.51-0.36-1.697-0.897-2.374-1.075C8.77,3.882,7.038,3.806,6.379,3.925c-0.643,0.11-1.67,0.451-2.33,0.766
	C3.214,5.1,2.494,5.603,2.494,5.782c0,0.179-0.167,0.324-0.722,0.597C1.553,6.498,1.279,6.651,1.184,6.72
	C1.009,6.856,1,6.899,1,13.331c0,3.564,0,6.521,0,6.58c0,0.062,0.079,0.146,0.167,0.195c0.141,0.067,0.299,0.018,0.817-0.256
	c1.054-0.549,2.088-0.88,3.277-1.047v-0.803c-0.204,0.02-0.375,0.045-0.527,0.078c-0.334,0.076-0.625,0.13-0.642,0.111
	c-0.069-0.067,0.511-0.317,1.168-0.541v-0.832c-0.35,0.116-0.715,0.267-1.141,0.469l-0.834,0.402v-5.813
	c0-5.419,0.008-5.812,0.157-5.931c0.246-0.222,1.266-0.733,1.828-0.929c1.415-0.478,2.962-0.528,4.202-0.128
	c0.8,0.264,1.362,0.528,1.881,0.895l0.369,0.265v5.804h-0.001c0,3.186-0.026,5.786-0.062,5.77c-2.004-0.989-2.507-1.135-4.069-1.125
	c-0.594,0-1.068,0.033-1.518,0.113v0.793c0.151-0.04,0.295-0.075,0.419-0.099c0.771-0.151,2.204-0.05,2.995,0.206
	c0.766,0.247,1.521,0.613,1.926,0.938l0.264,0.203l-0.554-0.168c-1.458-0.437-2.268-0.537-4.061-0.537
	c-0.389,0-0.71,0.004-0.99,0.012v0.771c0.127-0.01,0.244-0.028,0.375-0.035c1.644-0.086,2.663,0.06,5.01,0.689l0.571,0.152
	l0.925-0.264c1.66-0.478,2.275-0.57,3.954-0.57c2.136,0.009,3.454,0.299,5.071,1.149c0.5,0.265,0.694,0.323,0.817,0.255
	c0.08-0.041,0.168-0.125,0.183-0.187C23,19.858,23.008,16.884,22.992,13.313z M2.063,18.932l-0.359,0.146v-5.881V7.324l0.291-0.17
	c0.148-0.093,0.308-0.17,0.351-0.17c0.035,0,0.063,2.625,0.063,5.839c0,3.211,0,5.86,0.009,5.896
	C2.415,18.752,2.256,18.846,2.063,18.932z M15.027,18.021c-0.457,0.068-1.151,0.195-1.521,0.288
	c-0.378,0.095-0.694,0.154-0.712,0.138c-0.053-0.053,0.589-0.342,1.081-0.494c0.537-0.162,0.95-0.223,1.362-0.18
	c0.168,0.018,0.402,0.033,0.519,0.033C16.171,17.806,15.861,17.901,15.027,18.021z M22.27,19.066l-0.92-0.355
	c-0.838-0.317-1.109-0.478-0.812-0.478c0.134,0,1.302-0.725,1.396-0.869c0.035-0.062,0.071-2.387,0.071-5.172
	c0-4.483,0.017-5.046,0.132-4.953c0.113,0.094,0.133,0.861,0.133,5.966V19.066z"/>
</svg>
