<?xml version="1.0" encoding="utf-8"?>
<!-- Generator: Adobe Illustrator 16.0.0, SVG Export Plug-In . SVG Version: 6.00 Build 0)  -->
<!DOCTYPE svg PUBLIC "-//W3C//DTD SVG 1.1//EN" "http://www.w3.org/Graphics/SVG/1.1/DTD/svg11.dtd">
<svg enable-background="new 0 0 112.809 80" height="80px" id="Ebene_1" version="1.1" viewBox="0 0 112.809 80"
     width="112.809px" x="0px" xml:space="preserve" xmlns="http://www.w3.org/2000/svg"
     y="0px">
<g>
	<rect fill="none" height="80" width="112.809" x="0"/>
  <g>
		<path d="M39.756,46.721c0,0.627-0.411,0.873-0.738,0.873c-0.434,0-0.644-0.306-0.644-0.76v-2.615h-0.611v2.875
			c0,0.643,0.357,0.972,1.016,0.972c0.395,0,0.753-0.187,0.956-0.53h0.021v0.455h0.649c-0.021-0.262-0.038-0.521-0.038-0.783v-2.986
			h-0.612L39.756,46.721L39.756,46.721z"/>
    <path d="M44.131,47.99v-2.613c0-0.746-0.201-1.23-1.007-1.23c-0.485,0-0.77,0.135-1.008,0.561h-0.03v-0.486h-0.649
			c0.021,0.263,0.037,0.522,0.037,0.785v2.985h0.612V45.76c0-0.516,0.097-1.111,0.769-1.111c0.521,0,0.664,0.328,0.664,0.73v2.612
			L44.131,47.99L44.131,47.99z"/>
    <path d="M47.14,45.952c0,0.761,0,1.613-0.688,1.613c-0.769,0-0.769-0.822-0.769-1.39c0-1.008,0.09-1.531,0.747-1.531
			C47.11,44.645,47.14,45.452,47.14,45.952L47.14,45.952z M47.14,44.6h-0.022c-0.209-0.299-0.47-0.455-0.828-0.455
			c-1.218,0-1.248,1.082-1.248,2.023c0,1.657,0.612,1.896,1.218,1.896c0.396,0,0.656-0.172,0.865-0.523h0.016v0.448h0.611v-5.392
			H47.14V44.6L47.14,44.6z"/>
    <polygon points="51.014,47.99 51.014,45.526 52.896,45.526 52.896,44.928 51.014,44.928 51.014,43.196 53,43.196 53,42.6
			50.327,42.6 50.327,47.99 		"/>
    <path d="M54.881,47.565c-0.635,0-0.792-0.441-0.792-1.666c0-1.031,0.32-1.255,0.792-1.255c0.471,0,0.792,0.224,0.792,1.255
			C55.672,47.124,55.515,47.565,54.881,47.565L54.881,47.565z M54.881,48.065c0.8,0,1.434-0.239,1.434-1.904
			c0-1.104-0.126-2.017-1.434-2.017c-1.307,0-1.434,0.91-1.434,2.017C53.447,47.826,54.081,48.065,54.881,48.065L54.881,48.065z"/>
    <path d="M57.881,44.219H57.27v3.771h0.611v-2.225c0-0.508,0.172-1.023,0.852-1.023c0.111,0,0.217,0.023,0.33,0.038v-0.636
			c-0.6,0-0.91,0.066-1.164,0.643h-0.018V44.219L57.881,44.219z"/>
    <path d="M62.119,46.915c0-1.149-1.883-1.135-1.883-1.8c0-0.328,0.256-0.507,0.582-0.507c0.389,0,0.598,0.208,0.592,0.604h0.68
			c0.051-0.746-0.521-1.066-1.193-1.066c-1.063,0-1.301,0.635-1.301,1.029c0,1.127,1.883,1.143,1.883,1.813
			c0,0.39-0.285,0.576-0.652,0.576c-0.617,0-0.625-0.509-0.625-0.726h-0.695c-0.021,0.865,0.486,1.226,1.301,1.226
			C61.551,48.065,62.119,47.744,62.119,46.915L62.119,46.915z"/>
    <path d="M65.498,45.428c0.039-0.844-0.402-1.283-1.156-1.283c-1.307,0-1.434,0.91-1.434,2.017c0,1.665,0.635,1.903,1.434,1.903
			c0.42,0,1.211-0.27,1.188-1.329h-0.641c0.021,0.68-0.404,0.829-0.547,0.829c-0.635,0-0.789-0.44-0.789-1.665
			c0-1.031,0.318-1.255,0.789-1.255c0.23,0,0.537,0.164,0.523,0.783H65.498L65.498,45.428z"/>
    <path d="M69.172,47.99v-2.673c0-0.851-0.357-1.173-1-1.173c-0.492,0-0.775,0.119-1.021,0.562h-0.029V42.6H66.51v5.392h0.611
			v-2.218c0-0.635,0.156-1.127,0.77-1.127c0.521,0,0.672,0.328,0.672,0.791v2.554L69.172,47.99L69.172,47.99z"/>
    <path d="M72.264,46.721c0,0.627-0.41,0.873-0.738,0.873c-0.436,0-0.645-0.306-0.645-0.76v-2.615h-0.609v2.875
			c0,0.643,0.357,0.972,1.016,0.972c0.396,0,0.754-0.187,0.955-0.53h0.021v0.455h0.65c-0.023-0.262-0.039-0.521-0.039-0.783v-2.986
			h-0.609L72.264,46.721L72.264,46.721z"/>
    <path d="M76.639,47.99v-2.613c0-0.746-0.201-1.23-1.008-1.23c-0.484,0-0.77,0.135-1.008,0.561h-0.029v-0.486h-0.648
			c0.021,0.263,0.037,0.522,0.037,0.785v2.985h0.611V45.76c0-0.516,0.098-1.111,0.77-1.111c0.521,0,0.664,0.328,0.664,0.73v2.612
			L76.639,47.99L76.639,47.99z"/>
    <path d="M79.662,46.086c0,0.522,0.023,1.396-0.715,1.396c-0.455,0-0.732-0.283-0.732-1.492c0-0.501,0.023-1.337,0.717-1.337
			C79.699,44.653,79.662,45.526,79.662,46.086L79.662,46.086z M79.649,44.682h-0.016c-0.172-0.364-0.484-0.537-0.881-0.537
			c-0.307,0-1.18,0.111-1.18,1.846c0,1.12,0.201,2,1.225,2c0.328,0,0.672-0.172,0.828-0.471h0.023v0.785
			c0,0.388-0.232,0.648-0.658,0.648c-0.336,0-0.566-0.193-0.574-0.545h-0.688c-0.051,0.693,0.516,1.007,1.143,1.007
			c0.828,0,1.391-0.2,1.391-1.045v-4.151h-0.613V44.682L79.649,44.682z"/>
    <path d="M37.494,36.221v0.463h0.581v3.308h0.613v-3.308h0.762v-0.463h-0.762v-0.643c0-0.306,0.11-0.583,0.762-0.538V34.6
			c-0.09-0.014-0.165-0.021-0.292-0.021c-0.545,0-1.083,0.148-1.083,0.911v0.731H37.494L37.494,36.221z"/>
    <path d="M41.06,34.809h-0.702v0.777h0.702V34.809L41.06,34.809z M42.375,34.809h-0.702v0.777h0.702V34.809L42.375,34.809z
			 M42.053,38.723c0,0.625-0.411,0.873-0.74,0.873c-0.433,0-0.642-0.308-0.642-0.762v-2.613h-0.612v2.875
			c0,0.642,0.358,0.971,1.015,0.971c0.396,0,0.754-0.188,0.956-0.53h0.022v0.455h0.648c-0.021-0.263-0.037-0.522-0.037-0.784v-2.986
			h-0.611L42.053,38.723L42.053,38.723z"/>
    <path d="M44.405,36.221h-0.612v3.771h0.612v-2.226c0-0.508,0.171-1.022,0.852-1.022c0.111,0,0.216,0.022,0.328,0.038v-0.635
			c-0.598,0-0.91,0.066-1.165,0.642h-0.015V36.221L44.405,36.221z"/>
    <path d="M48.134,37.467h0.731c0.702,0,1.231,0.148,1.231,1.008c0,0.396-0.262,0.918-0.993,0.918h-0.97V37.467L48.134,37.467z
			 M48.134,35.197h0.97c0.576,0,0.829,0.365,0.829,0.813c0,0.523-0.262,0.854-0.799,0.859h-1V35.197L48.134,35.197z M49.179,39.99
			c0.611,0,1.618-0.134,1.618-1.516c0-0.739-0.335-1.203-1.104-1.293v-0.037c0.694-0.156,0.925-0.605,0.925-1.277
			c0-0.104-0.03-0.424-0.217-0.716C50.201,34.854,49.947,34.6,49.2,34.6h-1.754v5.391H49.179L49.179,39.99z"/>
    <path
      d="M52.393,36.221h-0.612v3.771h0.612V36.221L52.393,36.221z M51.744,35.256h0.688V34.6h-0.688V35.256L51.744,35.256z"/>
    <polygon points="54.125,34.6 53.512,34.6 53.512,39.99 54.125,39.99 		"/>
    <path d="M57.178,37.952c0,0.761,0,1.613-0.688,1.613c-0.77,0-0.77-0.822-0.77-1.39c0-1.008,0.09-1.531,0.747-1.531
			C57.149,36.646,57.178,37.452,57.178,37.952L57.178,37.952z M57.178,36.6h-0.023c-0.209-0.297-0.469-0.453-0.829-0.453
			c-1.217,0-1.247,1.082-1.247,2.023c0,1.656,0.613,1.896,1.217,1.896c0.396,0,0.656-0.173,0.867-0.524h0.016v0.449h0.611V34.6
			h-0.611V36.6L57.178,36.6z"/>
    <path d="M60.934,38.723c0,0.625-0.412,0.873-0.738,0.873c-0.436,0-0.643-0.308-0.643-0.762v-2.613H58.94v2.875
			c0,0.642,0.357,0.971,1.016,0.971c0.396,0,0.756-0.188,0.955-0.53h0.023v0.455h0.648c-0.021-0.263-0.039-0.522-0.039-0.784v-2.986
			h-0.609V38.723L60.934,38.723z"/>
    <path d="M65.309,39.99v-2.613c0-0.746-0.201-1.23-1.008-1.23c-0.486,0-0.77,0.134-1.008,0.56h-0.031v-0.485h-0.648
			c0.023,0.263,0.039,0.522,0.039,0.785v2.986h0.609V37.76c0-0.516,0.098-1.113,0.77-1.113c0.523,0,0.666,0.33,0.666,0.732v2.613
			L65.309,39.99L65.309,39.99z"/>
    <path d="M68.334,38.086c0,0.523,0.021,1.397-0.719,1.397c-0.455,0-0.73-0.283-0.73-1.493c0-0.501,0.021-1.336,0.717-1.336
			C68.369,36.653,68.334,37.526,68.334,38.086L68.334,38.086z M68.319,36.684h-0.016c-0.172-0.365-0.484-0.537-0.881-0.537
			c-0.307,0-1.182,0.111-1.182,1.845c0,1.12,0.203,2,1.227,2c0.326,0,0.672-0.172,0.828-0.47h0.021v0.783
			c0,0.389-0.23,0.649-0.656,0.649c-0.336,0-0.566-0.194-0.574-0.545h-0.688c-0.053,0.694,0.516,1.009,1.143,1.009
			c0.828,0,1.389-0.201,1.389-1.046v-4.151h-0.611V36.684L68.319,36.684z"/>
    <path d="M38.472,29.467h0.731c0.702,0,1.231,0.148,1.231,1.008c0,0.396-0.262,0.918-0.992,0.918h-0.971V29.467L38.472,29.467z
			 M38.472,27.197h0.971c0.574,0,0.829,0.367,0.829,0.814c0,0.522-0.262,0.853-0.8,0.857h-1V27.197L38.472,27.197z M39.517,31.991
			c0.612,0,1.621-0.135,1.621-1.517c0-0.738-0.335-1.203-1.105-1.291v-0.037c0.695-0.157,0.926-0.605,0.926-1.278
			c0-0.104-0.029-0.424-0.217-0.717c-0.201-0.298-0.455-0.552-1.202-0.552h-1.755v5.392H39.517L39.517,31.991z"/>
    <path d="M44.025,30.723c0,0.627-0.412,0.873-0.741,0.873c-0.432,0-0.641-0.307-0.641-0.76v-2.615h-0.612v2.875
			c0,0.643,0.358,0.972,1.015,0.972c0.396,0,0.755-0.187,0.956-0.53h0.023v0.456h0.647c-0.021-0.262-0.036-0.522-0.036-0.784v-2.986
			h-0.611V30.723L44.025,30.723z"/>
    <path d="M48.4,31.991v-2.612c0-0.748-0.202-1.232-1.008-1.232c-0.485,0-0.77,0.135-1.007,0.561h-0.03v-0.486h-0.649
			c0.022,0.263,0.038,0.522,0.038,0.785v2.986h0.612V29.76c0-0.515,0.097-1.111,0.77-1.111c0.522,0,0.664,0.328,0.664,0.732v2.612
			h0.61V31.991z"/>
    <path d="M51.408,29.953c0,0.762,0,1.613-0.687,1.613c-0.77,0-0.77-0.822-0.77-1.389c0-1.008,0.089-1.531,0.747-1.531
			C51.378,28.646,51.408,29.453,51.408,29.953L51.408,29.953z M51.408,28.6h-0.021c-0.208-0.297-0.472-0.453-0.829-0.453
			c-1.219,0-1.248,1.082-1.248,2.023c0,1.656,0.611,1.896,1.217,1.896c0.396,0,0.657-0.173,0.866-0.524h0.015v0.449h0.613V26.6
			h-0.613L51.408,28.6L51.408,28.6z"/>
    <path d="M53.604,29.84c0.007-1.045,0.329-1.23,0.717-1.23c0.447,0,0.754,0.133,0.754,1.23H53.604L53.604,29.84z M55.724,30.303
			v-0.32c0-1.247-0.271-1.836-1.345-1.836c-1.307,0-1.434,0.91-1.434,2.015c0,1.666,0.634,1.905,1.434,1.905
			c0.791,0,1.307-0.381,1.314-1.217h-0.672c-0.022,0.379-0.239,0.716-0.657,0.716c-0.478,0-0.762-0.21-0.762-1.263H55.724
			L55.724,30.303z"/>
    <path d="M59.1,30.916c0-1.148-1.883-1.135-1.883-1.799c0-0.329,0.256-0.507,0.582-0.507c0.389,0,0.6,0.209,0.59,0.604h0.68
			c0.053-0.746-0.521-1.068-1.195-1.068c-1.059,0-1.297,0.635-1.297,1.031c0,1.127,1.881,1.143,1.881,1.814
			c0,0.389-0.283,0.575-0.648,0.575c-0.619,0-0.627-0.509-0.627-0.726h-0.695c-0.022,0.866,0.484,1.226,1.3,1.226
			C58.531,32.066,59.1,31.744,59.1,30.916L59.1,30.916z"/>
    <path d="M62.518,31.991v-2.538c0-0.143,0.027-0.516,0.209-0.665c0.162-0.134,0.23-0.142,0.463-0.142
			c0.494,0,0.598,0.351,0.598,0.732v2.612h0.611v-2.867c0-0.889-0.635-0.978-1.029-0.978c-0.344,0-0.688,0.08-0.896,0.484
			c-0.145-0.343-0.539-0.484-0.881-0.484c-0.439,0-0.764,0.142-0.939,0.545h-0.016v-0.471h-0.65
			c0.021,0.262,0.037,0.521,0.037,0.785v2.985h0.611v-2.538c0-0.143,0.029-0.365,0.143-0.553c0.09-0.143,0.344-0.253,0.529-0.253
			c0.494,0,0.596,0.351,0.596,0.731v2.613L62.518,31.991L62.518,31.991z"/>
    <path
      d="M66.092,28.221h-0.611v3.771h0.611V28.221L66.092,28.221z M65.444,27.258h0.688v-0.656h-0.688V27.258L65.444,27.258z"/>
    <path d="M69.862,31.991v-2.612c0-0.748-0.199-1.232-1.008-1.232c-0.484,0-0.77,0.135-1.008,0.561h-0.029v-0.486h-0.65
			c0.023,0.263,0.037,0.522,0.037,0.785v2.986h0.613V29.76c0-0.515,0.098-1.111,0.77-1.111c0.521,0,0.664,0.328,0.664,0.732v2.612
			h0.611V31.991z"/>
    <path
      d="M71.557,28.221h-0.611v3.771h0.611V28.221L71.557,28.221z M70.908,27.258h0.686v-0.656h-0.686V27.258L70.908,27.258z"/>
    <path d="M75.035,30.916c0-1.148-1.881-1.135-1.881-1.799c0-0.329,0.252-0.507,0.58-0.507c0.391,0,0.6,0.209,0.59,0.604h0.682
			c0.053-0.746-0.521-1.068-1.195-1.068c-1.061,0-1.299,0.635-1.299,1.031c0,1.127,1.883,1.143,1.883,1.814
			c0,0.389-0.285,0.575-0.65,0.575c-0.621,0-0.627-0.509-0.627-0.726h-0.695c-0.02,0.866,0.486,1.226,1.303,1.226
			C74.467,32.066,75.035,31.744,75.035,30.916L75.035,30.916z"/>
    <path d="M75.446,28.221v0.463h0.617v2.681c0,0.433,0.262,0.672,0.844,0.672c0.203,0,0.404-0.045,0.605-0.062v-0.469
			c-0.135,0.016-0.23,0.029-0.275,0.029c-0.561,0-0.561-0.307-0.561-0.545v-2.309h0.82v-0.463h-0.82v-1l-0.613,0.275v0.725h-0.617
			V28.221z"/>
    <path d="M78.668,29.84c0.008-1.045,0.328-1.23,0.717-1.23c0.447,0,0.756,0.133,0.756,1.23H78.668L78.668,29.84z M80.789,30.303
			v-0.32c0-1.247-0.27-1.836-1.346-1.836c-1.307,0-1.432,0.91-1.432,2.015c0,1.666,0.633,1.905,1.432,1.905
			c0.791,0,1.307-0.381,1.314-1.217h-0.672c-0.023,0.379-0.238,0.716-0.654,0.716c-0.48,0-0.766-0.21-0.766-1.263H80.789
			L80.789,30.303z"/>
    <path d="M82.305,28.221h-0.613v3.771h0.613v-2.226c0-0.508,0.172-1.022,0.852-1.022c0.111,0,0.215,0.022,0.328,0.038v-0.635
			c-0.598,0-0.91,0.066-1.164,0.642h-0.016V28.221L82.305,28.221z"/>
    <path
      d="M84.748,28.221h-0.611v3.771h0.611V28.221L84.748,28.221z M84.1,27.258h0.688v-0.656H84.1V27.258L84.1,27.258z"/>
    <path d="M87.823,30.723c0,0.627-0.408,0.873-0.738,0.873c-0.434,0-0.641-0.307-0.641-0.76v-2.615h-0.611v2.875
			c0,0.643,0.357,0.972,1.016,0.972c0.396,0,0.754-0.187,0.955-0.53h0.021v0.456h0.65c-0.023-0.262-0.037-0.522-0.037-0.784v-2.986
			h-0.613L87.823,30.723L87.823,30.723z"/>
    <path d="M92.028,31.991v-2.538c0-0.143,0.029-0.516,0.209-0.665c0.164-0.134,0.23-0.142,0.463-0.142
			c0.494,0,0.598,0.351,0.598,0.732v2.612h0.613v-2.867c0-0.889-0.637-0.978-1.031-0.978c-0.344,0-0.686,0.08-0.896,0.484
			c-0.141-0.343-0.537-0.484-0.881-0.484c-0.439,0-0.764,0.142-0.939,0.545h-0.016v-0.471h-0.65
			c0.023,0.262,0.037,0.521,0.037,0.785v2.985h0.611v-2.538c0-0.143,0.031-0.365,0.143-0.553c0.09-0.143,0.344-0.253,0.531-0.253
			c0.49,0,0.596,0.351,0.596,0.731v2.613L92.028,31.991L92.028,31.991z"/>
    <polygon fill="#F8D200" points="30.699,53.324 33.061,53.324 33.061,66.657 30.699,66.657 		"/>
    <polygon fill="#E30613" points="30.699,39.944 33.061,39.944 33.061,53.324 30.699,53.324 		"/>
    <polygon points="30.699,26.658 33.061,26.658 33.061,39.99 30.699,39.99 		"/>
    <path d="M17.212,39.993L17.212,39.993L17.212,39.993z M17.213,39.999L17.213,39.999L17.213,39.999z M17.212,40L17.212,40
			L17.212,40z M17.212,39.99L17.212,39.99L17.212,39.99z M23.332,28.913c0-0.759-0.552-1.36-0.747-1.53l-0.14,0.032
			c0.207,0.253,0.571,0.675,0.571,1.235c0,1.102-1.164,2.059-2.493,2.076c0.011,0.113,0.01,0.214,0.01,0.3
			c0,0.157-0.01,0.312-0.029,0.462C22.011,31.459,23.332,30.233,23.332,28.913L23.332,28.913z M21.253,38.034
			c-0.644,0-0.783-0.067-0.954-0.067c-0.108,0-0.213,0.01-0.213,0.166c0,0.106,0.121,0.264,0.229,0.346
			c0.151-0.15,0.358-0.184,0.695-0.184c0.156,0,0.37,0.031,0.465,0.043c-0.014,0.094-0.032,0.213-0.032,0.381
			c0,0.088,0.003,0.192,0.003,0.301c0,0.381-0.056,0.582-0.188,0.734c0.028,0.018,0.104,0.033,0.149,0.033
			c0.246,0,0.31-0.126,0.31-0.766c0-0.193,0.016-0.373,0.016-0.42c0.345,0.264,0.696,0.732,0.696,1.072
			c0.111-0.059,0.244-0.229,0.244-0.355c0-0.23-0.386-0.575-0.795-0.989c0.058-0.014,0.209-0.058,0.334-0.058
			c0.322,0,0.582,0.053,0.733,0.232c0.06-0.066,0.109-0.262,0.109-0.373c0-0.193-0.111-0.186-0.191-0.186
			c-0.343,0-0.766,0.053-1.068,0.104c-0.109-0.146-0.812-1.097-0.993-1.603c-0.054-0.019-0.094-0.034-0.18-0.034
			c-0.169,0-0.213,0.118-0.256,0.279C20.755,37.161,21.127,37.672,21.253,38.034L21.253,38.034z M17.41,36.692
			c-0.044-0.162-0.087-0.279-0.256-0.279c-0.086,0-0.127,0.015-0.178,0.033c-0.185,0.506-0.884,1.456-0.995,1.603
			c-0.302-0.051-0.728-0.104-1.068-0.104c-0.081,0-0.19-0.008-0.19,0.186c0,0.11,0.049,0.307,0.109,0.373
			c0.15-0.18,0.411-0.232,0.733-0.232c0.125,0,0.276,0.043,0.333,0.057c-0.41,0.415-0.795,0.758-0.795,0.989
			c0,0.128,0.133,0.298,0.246,0.354c0-0.338,0.351-0.808,0.694-1.07c0,0.047,0.017,0.227,0.017,0.42c0,0.639,0.063,0.765,0.31,0.765
			c0.044,0,0.121-0.015,0.15-0.032c-0.132-0.154-0.188-0.354-0.188-0.734c0-0.11,0.004-0.213,0.004-0.303
			c0-0.168-0.02-0.287-0.031-0.381c0.094-0.012,0.309-0.043,0.465-0.043c0.334,0,0.543,0.033,0.694,0.184
			c0.109-0.082,0.229-0.238,0.229-0.346c0-0.154-0.104-0.164-0.212-0.164c-0.171,0-0.31,0.066-0.954,0.066
			C16.652,37.672,17.024,37.161,17.41,36.692L17.41,36.692z M14.762,28.649c0-0.56,0.364-0.983,0.57-1.235l-0.139-0.031
			c-0.196,0.17-0.747,0.771-0.747,1.529c0,1.33,1.338,2.564,2.86,2.574c-0.017-0.145-0.026-0.297-0.026-0.462
			c0-0.103,0.004-0.203,0.013-0.298C15.949,30.729,14.762,29.762,14.762,28.649L14.762,28.649z M18.851,27.625
			c0.069-0.16,0.163-0.349,0.163-0.557c0-0.577-0.479-0.852-1.118-0.852c-0.329,0-0.494,0.105-0.494,0.213
			c0,0.106,0.108,0.34,0.15,0.412c0.117-0.052,0.332-0.115,0.456-0.115C18.446,26.729,18.775,27.221,18.851,27.625L18.851,27.625z
			 M19.166,26.887c0.375,0.074,0.629-0.403,0.274-0.489c0.049,0.157-0.19,0.269-0.19,0.269s-0.091-0.21,0.027-0.33
			c-0.218-0.107-0.272,0.021-0.277,0.156C19.085,26.606,19.141,26.74,19.166,26.887L19.166,26.887z M20.377,30.163
			c0.061,0.005,0.117,0.009,0.178,0.009c1.053,0,2.098-0.683,2.098-1.555c0-0.465-0.209-0.791-0.468-1.15
			c-0.151,0.024-0.29,0.039-0.398,0.039c-0.478,0-0.735-0.257-0.755-0.508c0-0.227,0.184-0.396,0.47-0.396
			c0.443,0,1.251,0.414,2.064,0.414c-0.08,0.062-0.213,0.125-0.374,0.185c0.477,0.431,0.796,1.005,0.917,1.62l1.247,1.996
			c0.209,0.333,0.651,0.988,1.318,1.5c-0.806,0-1.342,0.02-2.022-1.061l-0.64-1.021c-0.048,0.132-0.106,0.261-0.175,0.387
			l1.271,2.036c0.212,0.336,0.648,0.987,1.32,1.5c-0.809,0-1.343,0.021-2.024-1.06l-1.094-1.752
			c-0.082,0.086-0.168,0.172-0.259,0.254l1.544,2.471c0.213,0.339,0.648,0.984,1.319,1.5c-0.807,0-1.342,0.02-2.023-1.061
			l-1.505-2.408c-0.101,0.063-0.201,0.123-0.306,0.181l1.836,2.94c0.212,0.336,0.648,0.984,1.319,1.5
			c-0.806,0-1.342,0.02-2.023-1.062l-1.892-3.028c-0.111,0.043-0.226,0.084-0.341,0.123l2.138,3.422
			c0.208,0.332,0.655,0.988,1.319,1.5c-0.808,0-1.342,0.019-2.023-1.062l-2.278-3.647l-0.07,0.013
			c-0.063,0.196-0.104,0.382-0.104,0.565c0,1.146,0.751,2.156,1.654,2.938c-0.058,0.025-0.158,0.035-0.251,0.035
			c-0.186,0-0.307-0.012-0.391-0.025c0.209,0.477,0.658,1.09,0.886,1.407c0.295-0.054,0.726-0.097,1.006-0.097
			c0.294,0,0.328,0.174,0.328,0.328c0,0.267-0.125,0.48-0.271,0.6c-0.054-0.139-0.164-0.32-0.709-0.32l-0.055,0.002
			c0.16,0.178,0.658,0.58,0.658,0.904c0,0.214-0.235,0.535-0.546,0.535c0.02-0.068,0.016-0.133,0.016-0.18
			c0-0.263-0.231-0.57-0.428-0.785c0.005,0.063,0.002,0.057,0.002,0.131c0,0.621-0.056,0.906-0.451,0.906
			c-0.192,0-0.326-0.106-0.372-0.138c0.255-0.235,0.27-0.422,0.27-0.771l-0.002-0.301c-0.001-0.08,0-0.185,0.013-0.262
			c-0.141-0.02-0.197-0.02-0.306-0.02c0,0-0.562-0.043-0.695,0.248c-0.151-0.139-0.372-0.336-0.372-0.555
			c0-0.143,0.067-0.305,0.354-0.305c0.108,0,0.453,0.066,0.74,0.066c-0.077-0.172-0.421-0.674-0.718-1.041
			c-0.045,0.143-0.116,0.297-0.271,0.42c-0.022-0.234-0.159-0.975-0.526-1.408c-0.042,0.292-0.102,0.593-0.102,1.227
			c0,1.543,0.371,2.682,1.159,2.899c-0.103,0.179-0.318,0.339-0.543,0.339c-0.289,0-0.444-0.326-0.604-0.634
			c-0.083,0.228-0.313,0.782-0.544,0.782s-0.46-0.555-0.543-0.782c-0.161,0.308-0.317,0.634-0.606,0.634
			c-0.225,0-0.44-0.16-0.543-0.339c0.787-0.218,1.158-1.356,1.158-2.899c0-0.634-0.059-0.935-0.102-1.227
			c-0.365,0.434-0.504,1.174-0.524,1.408c-0.157-0.125-0.228-0.277-0.272-0.42c-0.297,0.367-0.641,0.869-0.718,1.041
			c0.288,0,0.631-0.066,0.741-0.066c0.288,0,0.355,0.162,0.355,0.305c0,0.219-0.221,0.416-0.373,0.555
			c-0.135-0.291-0.694-0.248-0.694-0.248c-0.109,0-0.166,0-0.307,0.02c0.012,0.077,0.015,0.182,0.013,0.262l-0.001,0.301
			c0,0.348,0.013,0.533,0.269,0.771c-0.045,0.031-0.179,0.138-0.373,0.138c-0.394,0-0.451-0.285-0.451-0.906
			c0-0.074-0.002-0.067,0.003-0.131c-0.196,0.215-0.429,0.521-0.429,0.785c0,0.047-0.003,0.11,0.017,0.18
			c-0.311,0-0.546-0.321-0.546-0.535c0-0.325,0.498-0.727,0.656-0.904l-0.055-0.002c-0.544,0-0.655,0.184-0.708,0.32
			c-0.146-0.119-0.271-0.333-0.271-0.6c0-0.154,0.033-0.328,0.327-0.328c0.282,0,0.711,0.043,1.007,0.097
			c0.227-0.317,0.676-0.933,0.886-1.407c-0.084,0.016-0.205,0.025-0.392,0.025c-0.093,0-0.193-0.01-0.251-0.035
			c0.902-0.781,1.653-1.793,1.653-2.938c0-0.185-0.042-0.369-0.104-0.565l-0.068-0.013l-2.279,3.647
			c-0.682,1.08-1.217,1.062-2.023,1.062c0.664-0.51,1.11-1.168,1.318-1.5l2.139-3.422c-0.115-0.037-0.229-0.078-0.342-0.121
			l-1.892,3.026c-0.683,1.08-1.218,1.062-2.023,1.062c0.671-0.516,1.107-1.164,1.319-1.5l1.837-2.94
			c-0.104-0.058-0.207-0.118-0.306-0.181l-1.505,2.408c-0.684,1.08-1.218,1.062-2.024,1.062c0.671-0.515,1.108-1.162,1.32-1.5
			l1.544-2.472c-0.09-0.082-0.178-0.168-0.258-0.254l-1.095,1.752c-0.683,1.08-1.218,1.061-2.023,1.061
			c0.67-0.514,1.107-1.164,1.319-1.5l1.271-2.035c-0.067-0.126-0.125-0.255-0.173-0.388l-0.641,1.022
			c-0.682,1.08-1.217,1.061-2.022,1.061c0.668-0.512,1.109-1.167,1.32-1.5l1.246-1.996c0.121-0.615,0.44-1.191,0.917-1.62
			c-0.158-0.06-0.293-0.124-0.373-0.185c0.814,0,1.621-0.414,2.064-0.414c0.287,0,0.469,0.17,0.469,0.396
			c-0.018,0.251-0.276,0.507-0.755,0.507c-0.106,0-0.246-0.015-0.397-0.039c-0.259,0.359-0.468,0.686-0.468,1.15
			c0,0.873,1.044,1.555,2.099,1.555c0.06,0,0.117-0.004,0.176-0.009c0.208-0.707,0.653-1.17,1.007-1.624
			c-0.426-0.154-0.898-0.561-0.898-0.742c0.054-0.031,0.868,0.225,0.953,0.248c0.018,0.004,0.035,0.006,0.056,0
			c0.099-0.031,0.182-0.176,0.182-0.189c-0.087-0.016-0.599-0.081-0.949-0.209c-0.266-0.096-0.399-0.272-0.399-0.34
			c0.085-0.014,0.409,0.156,0.883,0.156c0.176,0,0.21-0.008,0.385-0.029c-0.123-0.291-0.354-0.539-0.611-0.539
			c-0.104,0-0.333,0.066-0.523,0.16c-0.132-0.205-0.25-0.478-0.25-0.625c0-0.174,0.173-0.379,0.661-0.379
			c0.137,0,0.264,0.012,0.382,0.035c0.095,0.018,0.175,0.038,0.262,0.072c-0.007-0.012-0.011-0.038-0.011-0.063
			c0-0.067,0.063-0.139,0.291-0.139c0.402,0,0.813,0.131,1.318,0.131c0.131,0,0.219-0.004,0.295-0.035
			c-0.033,0.1-0.175,0.248-0.306,0.369c0.081,0.109,0.289,0.373,0.289,0.801c0,0.688-0.453,1.254-0.453,1.949
			C19.965,29.584,20.282,29.946,20.377,30.163L20.377,30.163z"/>
    <g>
			<path d="M39.393,10.857c0-0.396-0.163-0.611-0.598-0.611c-0.135,0-0.619,0.023-0.619,0.729v1.139
				c0,0.736,0.214,0.924,0.619,0.924c0.309,0,0.514-0.084,0.603-0.15v-1.006h-0.621v-0.375h1.05v1.639
				c-0.274,0.15-0.597,0.252-1.031,0.252c-0.714,0-1.059-0.369-1.059-1.303v-1.105c0-0.672,0.345-1.102,1.059-1.102
				c0.729,0,1.073,0.267,1.046,0.971H39.393L39.393,10.857z"/>
      <path
        d="M40.629,13.326V9.957h1.736v0.374h-1.307v1.083h1.213v0.373h-1.213v1.167h1.334v0.374L40.629,13.326L40.629,13.326z"/>
      <path d="M42.93,13.326V9.957h1.67v0.374h-1.241v1.083h1.176v0.373h-1.176v1.54L42.93,13.326L42.93,13.326z"/>
      <path d="M45.02,12.094v-1.105c0-0.672,0.345-1.102,1.06-1.102c0.713,0,1.06,0.43,1.06,1.102v1.105
				c0,0.934-0.347,1.303-1.06,1.303C45.365,13.396,45.02,13.027,45.02,12.094z M45.893,9.561h-0.438V9.075h0.438V9.561z
				 M46.7,12.113v-1.139c0-0.705-0.485-0.729-0.62-0.729c-0.136,0-0.622,0.023-0.622,0.729v1.139c0,0.736,0.215,0.924,0.622,0.924
				C46.486,13.037,46.7,12.85,46.7,12.113z M46.715,9.561h-0.438V9.075h0.438V9.561z"/>
      <path d="M48.305,11.776v1.55h-0.43V9.957h1.162c0.599,0,0.808,0.42,0.808,0.84c0,0.397-0.22,0.7-0.616,0.771v0.009
				c0.387,0.061,0.526,0.191,0.551,0.868c0.004,0.146,0.051,0.672,0.117,0.882h-0.448c-0.122-0.232-0.094-0.672-0.131-1.12
				c-0.033-0.411-0.364-0.43-0.509-0.43H48.305z M48.305,11.403h0.644c0.308,0,0.457-0.267,0.457-0.56
				c0-0.244-0.121-0.514-0.453-0.514h-0.647V11.403L48.305,11.403z"/>
      <path d="M50.489,9.957h1.036c0.429,0,0.737,0.154,0.905,0.514c0.135,0.285,0.148,0.957,0.148,1.063
				c0,0.72-0.064,1.134-0.205,1.358c-0.182,0.289-0.522,0.434-1.11,0.434h-0.774V9.957z M50.919,12.952h0.406
				c0.598,0,0.817-0.224,0.817-1.007v-0.682c0-0.682-0.21-0.934-0.658-0.934h-0.565V12.952z"/>
      <path
        d="M53.331,13.326V9.957h1.736v0.374H53.76v1.083h1.214v0.373H53.76v1.167h1.335v0.374L53.331,13.326L53.331,13.326z"/>
      <path d="M56.084,11.776v1.55h-0.429V9.957h1.162c0.597,0,0.808,0.42,0.808,0.84c0,0.397-0.221,0.7-0.615,0.771v0.009
				c0.387,0.061,0.525,0.191,0.551,0.868c0.004,0.146,0.051,0.672,0.115,0.882h-0.447c-0.121-0.232-0.094-0.672-0.131-1.12
				c-0.033-0.411-0.365-0.43-0.509-0.43H56.084z M56.084,11.403h0.646c0.308,0,0.457-0.267,0.457-0.56
				c0-0.244-0.119-0.514-0.453-0.514h-0.648L56.084,11.403L56.084,11.403z"/>
      <path d="M60.149,9.957v0.373h-0.887v2.996h-0.43V10.33h-0.887V9.956L60.149,9.957L60.149,9.957z"/>
      <path d="M62.799,13.326h-0.514l-0.975-3.369h0.465l0.771,2.963h0.01l0.787-2.963h0.438L62.799,13.326z"/>
      <path d="M64.209,12.094v-1.105c0-0.672,0.346-1.102,1.061-1.102c0.713,0,1.059,0.43,1.059,1.102v1.105
				c0,0.934-0.346,1.303-1.059,1.303C64.553,13.396,64.209,13.027,64.209,12.094z M65.889,12.113v-1.139
				c0-0.705-0.486-0.729-0.621-0.729c-0.137,0-0.621,0.023-0.621,0.729v1.139c0,0.736,0.215,0.924,0.621,0.924
				C65.672,13.037,65.889,12.85,65.889,12.113z"/>
      <path d="M67.481,13.326h-0.402V9.957h0.695l0.85,2.828h0.01l0.857-2.828h0.709v3.369h-0.43V10.33h-0.008l-0.943,2.996h-0.406
				l-0.924-2.996h-0.008V13.326L67.481,13.326z"/>
		</g>
	</g>
</g>
</svg>
