<?xml version="1.0" encoding="utf-8"?>
<!-- Generator: Adobe Illustrator 16.0.0, SVG Export Plug-In . SVG Version: 6.00 Build 0)  -->
<!DOCTYPE svg PUBLIC "-//W3C//DTD SVG 1.1//EN" "http://www.w3.org/Graphics/SVG/1.1/DTD/svg11.dtd">
<svg version="1.1" id="Ebene_1" xmlns="http://www.w3.org/2000/svg" xmlns:xlink="http://www.w3.org/1999/xlink" x="0px" y="0px"
	 width="250px" height="45.947px" viewBox="30.072 5.527 250 45.947" enable-background="new 30.072 5.527 250 45.947"
	 xml:space="preserve">
<path fill="#006293" d="M30.072,45.722l3.616-3.183c1.877,2.065,5.062,4.185,8.68,4.185c3.374,0,6.183-1.433,6.183-4.185
	c0-3.302-3.934-4.804-8.117-6.422c-5.493-2.252-10.053-4.364-10.053-9.868c0-5.052,4.811-8.304,11.178-8.304
	c4.806,0,8.552,1.937,11.171,4.935l-3.555,2.937c-1.623-1.5-4.058-3.25-7.744-3.25c-3.682,0-6.117,1.374-6.117,3.683
	c0,2.813,3.686,4.117,7.493,5.621c5.119,1.997,10.67,4.056,10.67,10.483c0,5.553-4.426,8.988-11.486,8.988
	C37.188,51.342,32.818,48.975,30.072,45.722z M63.841,47.224c0-2.249,1.812-4.238,4.249-4.238c2.436,0,4.245,1.989,4.245,4.238
	c0,2.183-1.809,4.25-4.245,4.25C65.653,51.474,63.841,49.407,63.841,47.224z M115.78,47.224c0-2.249,1.805-4.238,4.24-4.238
	c2.437,0,4.249,1.989,4.249,4.238c0,2.183-1.812,4.25-4.249,4.25C117.584,51.474,115.78,49.407,115.78,47.224z M157.604,45.853
	v4.742h-23.223v-4.742h8.92V10.271h-7.678l-2.368-4.745h15.357v40.326H157.604z M167.707,47.224c0-2.249,1.818-4.238,4.254-4.238
	c2.43,0,4.242,1.989,4.242,4.238c0,2.183-1.813,4.25-4.242,4.25C169.525,51.474,167.707,49.407,167.707,47.224z M210.152,45.853
	v4.742h-22.904v-4.742h8.803V23.441h-8.803v-4.744h14.106v27.155H210.152z M195.366,9.52c0-1.934,1.434-3.434,3.304-3.434
	c1.942,0,3.38,1.5,3.38,3.434c0,1.874-1.438,3.309-3.38,3.309C196.8,12.83,195.366,11.394,195.366,9.52z M219.653,47.224
	c0-2.249,1.801-4.238,4.235-4.238s4.254,1.989,4.254,4.238c0,2.183-1.819,4.25-4.254,4.25
	C221.455,51.474,219.653,49.407,219.653,47.224z M235.129,34.621c0-10.431,5.364-16.675,13.669-16.675
	c4.114,0,6.805,1.435,8.617,3.003V8.086l5.304-2.559v45.068h-5.304v-2.621c-1.682,1.816-4.369,3.368-8.548,3.368
	C240.375,51.342,235.129,44.92,235.129,34.621z M257.415,42.039V26.941c-1.249-1.874-3.685-4.125-7.932-4.125
	c-5.737,0-8.921,4.251-8.921,11.805c0,6.678,3.368,11.802,8.984,11.802C253.046,46.421,255.791,44.854,257.415,42.039z
	 M271.584,47.224c0-2.249,1.805-4.238,4.241-4.238c2.435,0,4.247,1.989,4.247,4.238c0,2.183-1.813,4.25-4.247,4.25
	C273.388,51.474,271.584,49.407,271.584,47.224z M94.83,51.297c-3.711,0-7.13-1.207-9.913-3.226h19.819
	C101.954,50.09,98.528,51.297,94.83,51.297 M94.83,17.563c9.306,0,16.856,7.558,16.856,16.872c0,4.391-1.683,8.382-4.427,11.388
	c-2.007,0.042-8.813,0.155-8.61-0.021c1.949-1.685,3.173-4.186,3.133-6.954c-0.047-3.412-2.017-6.426-4.929-7.93l3.679-6.374
	l-1.34-0.769l0.656-1.134l-1.322-0.762l-0.648,1.136l-1.338-0.774L89.048,35.21l3.993,2.31l2.794-4.84
	c2.313,1.139,3.883,3.515,3.919,6.19c0.06,3.881-3.051,7.066-6.926,7.127c-0.957,0.015-6.878-0.104-6.878-0.104h-3.489
	c-2.788-3.011-4.497-7.036-4.497-11.457C77.964,25.121,85.512,17.563,94.83,17.563 M85.554,35.927l-1.197,2.069l8.15,4.712
	l1.205-2.073L85.554,35.927z"/>
</svg>
