<?xml version="1.0" encoding="UTF-8"?>
<svg xmlns="http://www.w3.org/2000/svg" width="757.747" height="332.28" viewBox="0 0 568.31 249.21">
  <defs>
    <clipPath id="prefix__a">
      <path d="M53.746 53.742h460.817v141.723H53.745zm0 0"></path>
    </clipPath>
  </defs>
  <g clip-path="url(#prefix__a)">
    <path d="M514.563 110.96v-3.69a14.151 14.151 0 00-1.934-.118c-1.969 0-3.524.86-4.668 2.575l-.434-2.165h-3.886v20.247h4.32v-10.871c0-2.028.351-3.528 1.055-4.508.703-.98 1.789-1.47 3.261-1.47zm-28.215 11.907c-.946-1.086-1.438-2.39-1.477-3.914h13.914c.05-.457.078-1.094.078-1.914 0-3.047-.824-5.457-2.465-7.227-1.64-1.773-3.867-2.66-6.68-2.66-2.816 0-5.07.97-6.769 2.91-1.703 1.942-2.554 4.485-2.554 7.622 0 3.113.894 5.644 2.668 7.59 1.78 1.949 4.062 2.921 6.851 2.921 1.316 0 2.524-.183 3.625-.558 1.102-.371 2.016-.875 2.738-1.5a9.975 9.975 0 001.786-2.004 8.817 8.817 0 001.078-2.238c-2.332-.684-3.657-1.067-3.965-1.141-.485 1.3-1.192 2.25-2.125 2.851-.934.598-1.977.899-3.137.899-1.434 0-2.621-.543-3.566-1.637m-1.262-7.137c.066-1.332.512-2.48 1.34-3.44.828-.962 1.926-1.442 3.293-1.442 1.441 0 2.547.43 3.3 1.289.754.855 1.168 2.054 1.235 3.593zm-2.063 30.598c-2.812 0-5.07.973-6.77 2.91-1.698 1.946-2.55 4.485-2.55 7.621 0 3.114.89 5.645 2.664 7.594 1.781 1.945 4.063 2.918 6.852 2.918 1.316 0 2.523-.184 3.625-.559 1.101-.375 2.015-.875 2.738-1.503a9.877 9.877 0 001.79-2 8.937 8.937 0 001.073-2.239c-2.332-.683-3.656-1.062-3.965-1.14-.484 1.3-1.19 2.25-2.125 2.851-.93.598-1.976.899-3.136.899-1.434 0-2.621-.543-3.567-1.633-.945-1.09-1.433-2.395-1.472-3.918h13.91c.05-.453.078-1.094.078-1.914 0-3.047-.82-5.457-2.465-7.23-1.637-1.77-3.863-2.657-6.68-2.657m-3.293 5.137c.829-.961 1.926-1.445 3.293-1.445 1.446 0 2.547.43 3.301 1.292.758.86 1.168 2.055 1.235 3.594h-9.164c.062-1.332.507-2.476 1.335-3.441m-7.57-23.656h3.969v-28.18h-4.32v10.375c-.48-.688-1.266-1.34-2.356-1.942a7.052 7.052 0 00-3.484-.91c-2.711 0-4.852.961-6.422 2.883-1.567 1.926-2.356 4.461-2.356 7.621 0 3.11.829 5.64 2.473 7.602 1.649 1.957 3.75 2.937 6.305 2.937 1.289 0 2.472-.316 3.554-.949 1.082-.637 1.844-1.305 2.286-2.008zm-.351-10.153c0 2.192-.438 3.88-1.32 5.067-.88 1.187-2.106 1.78-3.68 1.78-1.59 0-2.86-.6-3.801-1.796-.945-1.203-1.418-2.887-1.418-5.05 0-2.153.473-3.829 1.418-5.02.941-1.196 2.21-1.79 3.8-1.79 1.575 0 2.801.587 3.68 1.77.883 1.18 1.32 2.86 1.32 5.04m-19.835 49.323h4.316v-11.039c0-3.27-.637-5.687-1.906-7.25-1.278-1.558-3.32-2.351-6.13-2.363-1.198 0-2.269.258-3.202.77-.934.515-1.656 1.12-2.164 1.816v-10.11h-4.32v28.176h4.32V155.97c0-3.965 1.504-5.95 4.511-5.95 1.606.032 2.766.504 3.489 1.434.722.93 1.086 2.438 1.086 4.516zm-11.996-39.171h4.32v-11.004c0-3.309-.625-5.739-1.871-7.301-1.25-1.55-3.305-2.34-6.164-2.352-1.192 0-2.285.27-3.293.801-1.004.535-1.7 1.133-2.078 1.8l-.43-2.19h-3.887v20.246h4.317v-11.004c0-3.973 1.504-5.957 4.515-5.957 1.59 0 2.746.472 3.477 1.425.726.95 1.094 2.461 1.094 4.532zm-8.25 21.175c-1.637-1.77-3.868-2.656-6.68-2.656-2.817 0-5.07.973-6.77 2.91-1.703 1.946-2.55 4.485-2.55 7.621 0 3.114.886 5.645 2.668 7.594 1.777 1.945 4.058 2.918 6.847 2.918 1.317 0 2.524-.184 3.625-.559 1.102-.375 2.016-.875 2.738-1.503a9.877 9.877 0 001.79-2 9.074 9.074 0 001.074-2.239c-2.332-.683-3.656-1.062-3.969-1.14-.48 1.3-1.188 2.25-2.121 2.851-.93.598-1.977.899-3.137.899-1.433 0-2.62-.543-3.566-1.633-.946-1.09-1.438-2.395-1.477-3.918h13.914c.051-.453.078-1.094.078-1.914 0-3.047-.824-5.457-2.464-7.23m-2.149 5.921h-9.164c.066-1.332.512-2.476 1.34-3.441.828-.961 1.922-1.445 3.293-1.445 1.445 0 2.547.43 3.3 1.292.755.86 1.169 2.055 1.231 3.594m-8.762-47.344h-4.32v20.247h4.32zm-4.59-3.085h4.864v-4.848h-4.863zm-8.687 62.503h4.316v-28.175h-4.316zm-9.762 0h4.32v-28.175h-4.32zm-.02-39.171h4.321v-11.004c0-3.309-.625-5.739-1.871-7.301-1.246-1.55-3.305-2.34-6.168-2.352-1.184 0-2.281.27-3.289.801-1.008.535-1.7 1.133-2.078 1.8l-.43-2.19h-3.887v20.246h4.317v-11.004c0-3.973 1.504-5.957 4.515-5.957 1.586 0 2.747.472 3.477 1.425.73.95 1.094 2.461 1.094 4.532zm-14.277 35.87c-1.585-.027-2.742-.503-3.464-1.44-.727-.934-1.086-2.434-1.086-4.497v-11.004h-4.32v11.04c0 3.296.613 5.718 1.835 7.269 1.227 1.55 3.227 2.324 6 2.324 1.266 0 2.407-.266 3.418-.805 1.02-.53 1.723-1.129 2.114-1.793l.43 2.207h3.886v-20.242h-4.316v11.004c0 1.996-.372 3.488-1.102 4.465-.738.984-1.867 1.473-3.395 1.473m-5.863-38.383c1.7-1.934 2.543-4.48 2.543-7.64 0-3.134-.848-5.665-2.55-7.602-1.704-1.934-3.993-2.903-6.876-2.903-2.914 0-5.21.961-6.898 2.883-1.688 1.926-2.527 4.461-2.527 7.621s.84 5.707 2.527 7.64c1.687 1.934 3.984 2.9 6.898 2.9 2.895 0 5.188-.966 6.883-2.9m-1.773-7.64c0 2.176-.457 3.864-1.375 5.059-.914 1.191-2.16 1.789-3.735 1.789-1.586 0-2.836-.598-3.742-1.79-.914-1.194-1.367-2.882-1.367-5.058 0-2.168.453-3.844 1.367-5.031.906-1.188 2.156-1.777 3.742-1.777 1.563 0 2.801.593 3.727 1.789.922 1.191 1.383 2.867 1.383 5.02m-16.446-23.958c1.723-1.582 2.582-3.832 2.582-6.75V67.547h-3.964l-.352 2.598c-.394-.77-1.125-1.461-2.191-2.079a6.881 6.881 0 00-3.508-.93c-2.621 0-4.762.977-6.414 2.93-1.656 1.957-2.485 4.48-2.485 7.575 0 3.093.844 5.625 2.536 7.59 1.683 1.964 3.808 2.949 6.363 2.949 1.176 0 2.316-.274 3.426-.825 1.109-.55 1.867-1.207 2.273-1.976v1.52c0 1.663-.43 2.996-1.281 3.992-.86.992-2.102 1.492-3.735 1.492-1.105 0-2.093-.262-2.953-.781-.863-.524-1.402-1.188-1.625-1.997l-4.21 1.157c.445 1.668 1.449 2.968 3.011 3.906 1.567.937 3.492 1.406 5.777 1.406 2.782 0 5.032-.793 6.75-2.375m-1.734-16.058c0 2.187-.441 3.879-1.32 5.062-.883 1.192-2.114 1.785-3.696 1.785-1.617 0-2.898-.597-3.843-1.793-.95-1.191-1.418-2.879-1.418-5.054 0-2.153.468-3.829 1.418-5.02.945-1.195 2.226-1.793 3.843-1.793 1.582 0 2.813.59 3.696 1.77.879 1.183 1.32 2.863 1.32 5.043m-18.34 24.02v5.901h-3.48v3.223h3.48v11.238c0 2.024.38 3.52 1.14 4.489.763.968 2.063 1.449 3.9 1.449h.507l2.582-.152v-3.48c-.234 0-.566.01-1 .034-.43.032-.738.043-.933.043-.707 0-1.196-.148-1.47-.453-.273-.3-.41-.851-.41-1.644v-11.524h4.2v-3.222h-4.2v-5.903zm-4.355-13.872h4.316v-11c0-3.309-.625-5.742-1.87-7.3-1.247-1.555-3.302-2.34-6.165-2.352-1.188 0-2.285.265-3.29.8-1.007.536-1.698 1.133-2.077 1.797l-.43-2.187h-3.89v20.242h4.32v-11c0-3.973 1.504-5.96 4.512-5.96 1.59 0 2.75.476 3.476 1.425.73.953 1.098 2.465 1.098 4.535zm-10.614 19.363c-1.46 0-2.78.23-3.957.696a7.081 7.081 0 00-2.98 2.199c-.809 1-1.285 2.226-1.426 3.672.492.078 1.219.21 2.176.398.957.192 1.66.324 2.102.403.043-1.2.414-2.114 1.125-2.739.707-.625 1.695-.933 2.96-.933.715 0 1.34.078 1.875.23.536.156.954.356 1.258.598.309.242.559.535.754.879.195.343.32.672.38.976.062.309.089.637.089.989v1.21h-5.195c-2.543 0-4.551.59-6.032 1.766-1.476 1.176-2.218 2.598-2.218 4.262 0 1.945.668 3.504 2.004 4.68 1.335 1.171 3.164 1.757 5.484 1.757 1.496-.039 2.781-.37 3.855-.992 1.075-.621 1.899-1.289 2.473-2.012.172.88.55 1.579 1.145 2.102.59.523 1.382.785 2.375.785.882 0 1.738-.101 2.554-.312v-3.536c-.258.106-.601.157-1.031.157-.406 0-.688-.157-.852-.469-.164-.309-.246-.777-.246-1.398v-7.043c0-2.762-.726-4.84-2.183-6.235-1.461-1.39-3.625-2.09-6.489-2.09m4.356 11.801v1.012c0 1.195-.496 2.258-1.484 3.183-.993.93-2.32 1.395-3.985 1.395-1.226 0-2.133-.27-2.71-.809-.579-.539-.868-1.199-.868-1.976 0-.285.063-.574.188-.867.12-.293.328-.59.613-.895.289-.305.726-.555 1.328-.75.602-.195 1.316-.293 2.152-.293zM312.234 87.79h3.887V67.547h-4.316v11c0 2-.368 3.492-1.106 4.469-.734.98-1.863 1.472-3.39 1.472-1.586-.027-2.747-.508-3.465-1.441-.727-.938-1.086-2.434-1.086-4.5v-11h-4.32v11.039c0 3.297.613 5.719 1.84 7.266 1.222 1.554 3.222 2.328 5.995 2.328 1.266 0 2.407-.27 3.422-.805 1.016-.535 1.715-1.133 2.11-1.793zm-13.195 19.773h-4.531l7.558 20.247h4.282l7.52-20.246h-4.513l-5.16 14.964zm-8.844-36.792h4.2v-3.223h-4.2v-5.902h-4.32v5.902h-3.48v3.223h3.48v11.234c0 2.027.383 3.523 1.145 4.488.761.969 2.058 1.453 3.898 1.453h.508l2.578-.156v-3.477c-.234 0-.567.012-.996.04a19.51 19.51 0 01-.938.035c-.703 0-1.191-.149-1.465-.45-.273-.3-.41-.847-.41-1.648zm-12.265-7.461h2.445v-3.696h-2.973c-3.71 0-5.566 1.817-5.566 5.453v2.48h-3.48v3.224h3.48v17.02h4.32V70.77h3.809v-3.223h-3.809V65.34c0-1.356.59-2.031 1.774-2.031m-18.27 1.152h4.867v-4.848h-4.867zm.274 23.328h4.32V67.547h-4.32zm2.882 19.363c-1.187 0-2.289.27-3.296.801-1 .535-1.696 1.133-2.075 1.8l-.425-2.19h-3.891v20.246h4.316v-11.004c0-3.973 1.504-5.957 4.516-5.957 1.59 0 2.75.472 3.476 1.425.731.95 1.094 2.461 1.094 4.532v11.004h4.32v-11.004c0-3.309-.624-5.739-1.87-7.301-1.25-1.55-3.305-2.34-6.165-2.352M250.773 70.77h4.2v-3.223h-4.2v-5.902h-4.32v5.902h-3.476v3.223h3.476v11.234c0 2.027.383 3.523 1.145 4.488.761.969 2.062 1.453 3.898 1.453h.508l2.578-.156v-3.477c-.234 0-.566.012-.996.04-.43.023-.742.035-.938.035-.703 0-1.191-.149-1.464-.45-.274-.3-.41-.847-.41-1.648zm-9.605 8.93c0-.923-.117-1.763-.356-2.513-.234-.753-.539-1.394-.91-1.93a5.96 5.96 0 00-1.433-1.417 10.003 10.003 0 00-1.715-1.004c-.563-.254-1.23-.48-2.004-.684-.77-.203-1.45-.347-2.031-.433a55.525 55.525 0 00-2.024-.278c-4.168-.464-6.254-1.812-6.254-4.046 0-.754.168-1.422.508-2.004.34-.586.79-1.043 1.348-1.375a6.748 6.748 0 011.84-.739 8.553 8.553 0 012.066-.246c.734 0 1.426.102 2.082.293a6.51 6.51 0 011.836.875c.57.395 1.035.922 1.41 1.598.371.676.594 1.453.672 2.336l4.32-.7a7.582 7.582 0 00-.972-3.453 7.993 7.993 0 00-2.34-2.597 11.523 11.523 0 00-3.262-1.594 12.476 12.476 0 00-3.746-.566c-.973 0-1.93.097-2.871.293-.937.195-1.848.507-2.734.937a9.647 9.647 0 00-2.336 1.574c-.668.621-1.207 1.391-1.61 2.317-.402.926-.605 1.941-.605 3.05 0 4.528 3.469 7.13 10.414 7.805.559.043 1.062.094 1.512.168.453.07.925.176 1.425.309.504.136.942.316 1.313.539.371.219.71.484 1.023.797.313.308.551.691.715 1.148.164.453.242.969.242 1.54 0 1.452-.593 2.593-1.785 3.425-1.191.828-2.676 1.246-4.445 1.246-1.145 0-2.172-.203-3.078-.601-.906-.407-1.613-.926-2.121-1.563a7.215 7.215 0 01-1.153-2.004 5.966 5.966 0 01-.39-2.101l-4.473.796c.024.875.176 1.743.45 2.59.273.852.702 1.684 1.288 2.504a9.465 9.465 0 002.141 2.149c.84.613 1.89 1.105 3.152 1.48 1.266.371 2.66.559 4.184.559 3.176 0 5.754-.782 7.734-2.348 1.98-1.562 2.973-3.61 2.973-6.133M110.414 195.465l69.441-28.485-.125-87.707-56.664-25.53L53.79 82.16l-.043 87.766zm-52.27-65.278l50.145 22.282-.02 37.222-50.144-22.593zm.004-13.367l62.672-25.699-.004 5.57-62.668 25.704zm.008-10.707l62.668-25.699-.004 5.973-62.668 25.703zm.004-10.781l62.668-25.703-.004 6.05-62.668 25.704zm62.676-35.941l-.004 5.507L58.16 90.602l.004-5.504zm54.57 59.66l-50.21-22.313.015-37.226 50.14 22.59zm.02 13.293l-62.766 25.742.004-5.574 62.754-25.735zm.015 10.695l-62.78 25.75v-5.973l62.773-25.742zm.02 10.777l-62.809 25.758.004-6.05 62.793-25.754zm-62.816 36l.003-5.507 62.82-25.766.009 5.504zm-2.133-41.152l-50.34-22.367 62.797-25.758 50.34 22.367zM224.93 99.63h-4.473v28.176h4.473zm0 39.176h-4.473v28.175h4.473v-12.562h12.078v12.562h4.472v-28.175h-4.472v11.8H224.93zm14.273-27.957c1.59 0 2.75.472 3.48 1.425.731.95 1.094 2.461 1.094 4.532v11.004h4.317v-11.004c0-3.309-.621-5.739-1.867-7.301-1.25-1.55-3.305-2.34-6.165-2.352-1.187 0-2.289.27-3.292.801-1.008.535-1.7 1.133-2.079 1.8l-.43-2.19h-3.89v20.246h4.32v-11.004c0-3.973 1.504-5.957 4.512-5.957m8.297 38.367c-1.688 1.922-2.531 4.46-2.531 7.617 0 3.16.844 5.707 2.531 7.64 1.684 1.934 3.984 2.9 6.898 2.9 2.895 0 5.188-.966 6.883-2.9 1.696-1.933 2.543-4.48 2.543-7.64 0-3.133-.851-5.664-2.554-7.602-1.7-1.933-3.993-2.902-6.872-2.902-2.914 0-5.214.961-6.898 2.887m1.79 7.617c0-2.168.452-3.844 1.362-5.027.91-1.188 2.157-1.785 3.746-1.785 1.559 0 2.801.597 3.723 1.792.926 1.192 1.387 2.868 1.387 5.02 0 2.18-.457 3.863-1.375 5.059-.918 1.191-2.16 1.789-3.735 1.789-1.59 0-2.835-.598-3.746-1.79-.91-1.195-1.363-2.878-1.363-5.058m19.727-7.602c-1.739 1.938-2.61 4.47-2.61 7.602 0 3.172.871 5.723 2.61 7.648 1.738 1.93 4.062 2.891 6.964 2.891 1.278 0 2.446-.191 3.508-.582 1.063-.383 1.946-.906 2.657-1.562a8.612 8.612 0 002.668-4.621c-2.215-.426-3.641-.696-4.278-.797-.328 1.246-.879 2.203-1.652 2.87-.778.669-1.73 1-2.863 1-1.668 0-2.954-.617-3.86-1.859-.906-1.238-1.36-2.898-1.36-4.988 0-2.078.454-3.73 1.36-4.96.906-1.235 2.192-1.852 3.86-1.852 1.066 0 1.988.332 2.765.984.774.656 1.332 1.61 1.668 2.867.25-.035 1.676-.305 4.281-.797a10.803 10.803 0 00-.703-2.027c-.3-.637-.699-1.246-1.191-1.832a7.86 7.86 0 00-1.7-1.5c-.64-.418-1.402-.75-2.288-1.004a10.37 10.37 0 00-2.872-.383c-2.902 0-5.226.969-6.964 2.902m21.964-23.933c1.7-1.934 2.547-4.48 2.547-7.64 0-3.134-.851-5.665-2.554-7.602-1.703-1.934-3.993-2.903-6.875-2.903-2.914 0-5.211.961-6.899 2.883-1.683 1.926-2.527 4.461-2.527 7.621s.844 5.707 2.527 7.64c1.688 1.934 3.985 2.9 6.899 2.9 2.894 0 5.191-.966 6.882-2.9m-1.773-7.64c0 2.176-.457 3.864-1.375 5.059-.914 1.191-2.16 1.789-3.734 1.789-1.586 0-2.832-.598-3.743-1.79-.91-1.194-1.367-2.882-1.367-5.058 0-2.168.457-3.844 1.367-5.031.91-1.188 2.157-1.777 3.743-1.777 1.562 0 2.8.593 3.726 1.789.922 1.191 1.383 2.867 1.383 5.02m3.856 21.148h-4.32v28.175h4.32V155.97c0-3.965 1.503-5.95 4.511-5.95 1.602.032 2.766.504 3.488 1.434.72.93 1.083 2.438 1.083 4.516v11.011h4.32v-11.039c0-3.27-.64-5.687-1.91-7.25-1.274-1.558-3.317-2.351-6.125-2.363-1.203 0-2.27.258-3.203.77-.934.515-1.657 1.12-2.164 1.816zm21.265 21.375c-.023 0-1.437.261-4.238.793.3 1.922 1.2 3.464 2.707 4.64 1.504 1.172 3.512 1.758 6.027 1.758 2.512 0 4.574-.566 6.184-1.703 1.61-1.133 2.414-2.734 2.414-4.813 0-.902-.156-1.699-.465-2.39-.309-.692-.703-1.25-1.191-1.668-.485-.422-1.118-.777-1.903-1.074-.781-.301-1.543-.508-2.289-.625-.742-.118-1.62-.254-2.633-.41-1.328-.133-2.316-.36-2.96-.684-.645-.324-.965-.871-.965-1.64 0-.637.332-1.188 1.004-1.65.671-.464 1.523-.694 2.55-.694 2.578 0 3.993 1.14 4.239 3.425 2.367-.453 3.793-.718 4.277-.797-.145-1.09-.473-2.05-.98-2.875a6.047 6.047 0 00-1.946-1.98 8.908 8.908 0 00-2.61-1.106 12.763 12.763 0 00-3.097-.359c-2.176 0-4.012.578-5.512 1.734-1.496 1.16-2.246 2.59-2.246 4.293 0 .926.14 1.735.418 2.418.282.684.66 1.223 1.145 1.614a6.28 6.28 0 001.652.968 8.359 8.359 0 001.961.54c.692.101 1.379.207 2.063.304.68.106 1.332.203 1.953.297a9.717 9.717 0 011.652.387c.48.168.863.418 1.145.754.28.332.421.75.421 1.25 0 .578-.18 1.07-.539 1.484-.359.41-.808.7-1.347.867-.543.164-1.004.282-1.39.344a6.4 6.4 0 01-1.005.098c-2.594 0-4.09-1.168-4.496-3.5m18.64-10.95c-1.738 1.938-2.605 4.47-2.605 7.602 0 3.172.867 5.723 2.606 7.648 1.742 1.93 4.062 2.891 6.969 2.891 1.277 0 2.445-.191 3.507-.582 1.059-.383 1.946-.906 2.657-1.562a8.776 8.776 0 001.726-2.153 8.508 8.508 0 00.942-2.469c-2.215-.425-3.641-.695-4.282-.796-.324 1.246-.875 2.203-1.648 2.87-.777.669-1.73 1-2.863 1-1.668 0-2.957-.617-3.86-1.859-.906-1.238-1.36-2.898-1.36-4.988 0-2.078.454-3.73 1.36-4.96.903-1.235 2.192-1.852 3.86-1.852 1.07 0 1.988.332 2.761.984.778.656 1.332 1.61 1.672 2.867.25-.035 1.676-.305 4.281-.797a10.531 10.531 0 00-.703-2.027c-.3-.637-.699-1.246-1.191-1.832a7.86 7.86 0 00-1.7-1.5c-.64-.418-1.402-.75-2.288-1.004a10.37 10.37 0 00-2.872-.383c-2.906 0-5.226.969-6.968 2.902m24.066-49.601h-4.863v4.848h4.863zm-.273 7.933h-4.32v20.247h4.32zm.258 31.243h-4.32v28.175h4.32V155.97c0-3.965 1.5-5.95 4.507-5.95 1.606.032 2.77.504 3.493 1.434.718.93 1.085 2.438 1.085 4.516v11.011h4.317v-11.039c0-3.27-.637-5.687-1.914-7.25-1.274-1.558-3.313-2.351-6.121-2.363-1.203 0-2.27.258-3.203.77-.938.515-1.66 1.12-2.164 1.816zm107.597 7.933h-3.89v20.242h4.32v-10.867c0-2.023.351-3.527 1.055-4.504.703-.98 1.793-1.468 3.261-1.468h2.29v-3.696a14.192 14.192 0 00-1.934-.117c-1.969 0-3.528.86-4.672 2.574l-.43-2.164" fill="#231f20"></path>
  </g>
</svg>
