<?xml version="1.0" encoding="utf-8"?>
<!-- Generator: Adobe Illustrator 16.0.0, SVG Export Plug-In . SVG Version: 6.00 Build 0)  -->
<!DOCTYPE svg PUBLIC "-//W3C//DTD SVG 1.1//EN" "http://www.w3.org/Graphics/SVG/1.1/DTD/svg11.dtd">
<svg version="1.1" id="Ebene_1" xmlns="http://www.w3.org/2000/svg" xmlns:xlink="http://www.w3.org/1999/xlink" x="0px" y="0px"
	 width="40px" height="40px" viewBox="0 0 40 40" enable-background="new 0 0 40 40" xml:space="preserve">
<path fill-rule="evenodd" clip-rule="evenodd" d="M40,20c0,11.046-8.955,20-20,20S0,31.046,0,20S8.955,0,20,0S40,8.954,40,20z
	 M20,1.5C9.782,1.5,1.5,9.782,1.5,20c0,10.219,8.282,18.5,18.5,18.5c10.219,0,18.5-8.281,18.5-18.5C38.5,9.782,30.219,1.5,20,1.5z"
	/>
<g>
	<path d="M23.833,37.042c-0.594-2.092-0.985-4.329,0.375-6.5c-0.034-0.684,1.093-0.468,1.03-0.001
		c-1.205,2.199-1.055,4.275-0.468,6.281L23.833,37.042z M14.789,36.707c0.063-3.685-0.438-7.421-1.714-10.033
		c0.664-0.258,0.733-1.113,1.936-0.83c-0.074,0.568-1.225,0.066-1.106,0.83c2.487,1.834,7.864-0.346,11.058,1.105
		c-2.629,1.263-6.779,0.324-9.42,0.221c-0.365,3.102,0.231,5.705,0.5,8.958L14.789,36.707z M20.263,26.396
		c-0.818-1.842,0.794-3.625,0.276-6.084C21.765,22.06,20.204,24.174,20.263,26.396z M21.368,23.908
		c1.337-3.166,0.957-8.163-0.829-10.507c-3.098,1.714-1.631,7.122-0.828,10.228c-3.653-4.342-1.149-9.908,0.552-14.651
		C22.986,12.211,23.758,21.766,21.368,23.908z"/>
</g>
</svg>
