<svg xmlns="http://www.w3.org/2000/svg" viewBox="0 0 72 72">
  <polygon points="46.29 18.48 44.27 14.41 37.45 18.48 44.13 22.55 46.29 18.48"/>
  <path fill="inherit" d="M44.86,25.24,33.75,18.46l11.32-6.75,3.37,6.8ZM41.15,18.5l2.24,1.36.75-1.41-.66-1.34Z"/>
  <polygon points="25.85 18.48 27.67 22.16 33.85 18.48 27.8 14.8 25.85 18.48"/>
  <path fill="inherit" d="M26.88,24.86,23.7,18.45l3.37-6.34L37.55,18.5ZM28,18.51l.47.95,1.67-1-1.6-1Z"/>
  <circle fill="inherit" cx="36.07" cy="29.33" r="1.37"/>
  <path fill="inherit"
        d="M36.07,32.62a3.29,3.29,0,1,1,3.29-3.29A3.29,3.29,0,0,1,36.07,32.62Zm0-3.83a.54.54,0,0,0-.53.54.54.54,0,1,0,1.07,0A.54.54,0,0,0,36.07,28.79Z"/>
  <circle fill="inherit" cx="36.07" cy="39.7" r="1.37"/>
  <path fill="inherit"
        d="M36.07,43a3.29,3.29,0,1,1,3.29-3.29A3.29,3.29,0,0,1,36.07,43Zm0-3.83a.54.54,0,1,0,.54.54A.54.54,0,0,0,36.07,39.16Z"/>
  <circle fill="inherit" cx="36" cy="49.91" r="1.37"/>
  <path fill="inherit"
        d="M36,53.2a3.29,3.29,0,1,1,3.29-3.29A3.29,3.29,0,0,1,36,53.2Zm0-3.82a.54.54,0,1,0,.54.53A.54.54,0,0,0,36,49.38Z"/>
  <polyline fill="inherit" points="68.98 5.11 56.58 18.48 68.98 27.96 36 68.56"/>
  <path fill="inherit"
        d="M36,70.47A1.88,1.88,0,0,1,34.8,70a1.91,1.91,0,0,1-.28-2.69L66.25,28.28,55.41,20l-.24-2.82L67.57,3.81a1.91,1.91,0,0,1,2.81,2.6l-11,11.83,10.73,8.2.32,2.72-33,40.6A1.87,1.87,0,0,1,36,70.47Z"/>
  <polyline fill="inherit" points="36 68.56 3.02 27.96 14.75 18.48 3.02 5.11"/>
  <path fill="inherit"
        d="M36,70.47a1.88,1.88,0,0,1-1.48-.71l-33-40.6.28-2.69L12,18.24,1.59,6.37A1.91,1.91,0,1,1,4.46,3.85L16.18,17.22,16,20,5.72,28.24,37.48,67.35A1.91,1.91,0,0,1,36,70.47Z"/>
  <path fill="inherit"
        d="M35.6,11.33h0C27.28,11.31,3.69,7.17,2.69,7a1.91,1.91,0,1,1,.67-3.76c.24,0,24.26,4.26,32.2,4.27h0c8.21,0,32.8-4.23,33.05-4.27A1.91,1.91,0,1,1,69.3,7C68.27,7.17,44.13,11.33,35.6,11.33Z"/>
</svg>
