<?xml version="1.0" encoding="utf-8"?>
<!-- Generator: Adobe Illustrator 16.0.0, SVG Export Plug-In . SVG Version: 6.00 Build 0)  -->
<!DOCTYPE svg PUBLIC "-//W3C//DTD SVG 1.1//EN" "http://www.w3.org/Graphics/SVG/1.1/DTD/svg11.dtd">
<svg version="1.1" id="Ebene_1" xmlns="http://www.w3.org/2000/svg" xmlns:xlink="http://www.w3.org/1999/xlink" x="0px" y="0px"
	 width="24px" height="24px" viewBox="0 0 24 24" enable-background="new 0 0 24 24" xml:space="preserve">
<path d="M16.146,6.17l-1.123-2.267l-3.145,1.875L9.023,4.037L7.9,6.15l1.06,2.137l2.927-1.745l3.066,1.871L16.146,6.17z
	 M12.023,8.68c0.605,0,1.097,0.491,1.097,1.097c0,0.606-0.491,1.097-1.097,1.097s-1.097-0.49-1.097-1.097
	C10.927,9.171,11.418,8.68,12.023,8.68z M12.023,12.14c0.605,0,1.097,0.491,1.097,1.097s-0.491,1.097-1.097,1.097
	s-1.097-0.49-1.097-1.097C10.927,12.631,11.418,12.14,12.023,12.14z M12,15.54c0.605,0,1.097,0.491,1.097,1.097
	S12.605,17.733,12,17.733s-1.097-0.491-1.097-1.097S11.395,15.54,12,15.54z M23.37,8.813L19.793,6.08l3.667-3.943
	c0.239-0.259,0.224-0.662-0.035-0.901c-0.166-0.154-0.393-0.202-0.596-0.148c-0.635,0.107-8.339,1.416-10.976,1.416
	C9.36,2.5,2.113,1.24,1.212,1.094c-0.214-0.075-0.461-0.033-0.641,0.13C0.51,1.28,0.462,1.347,0.428,1.418
	C0.426,1.42,0.425,1.422,0.424,1.425C0.422,1.429,0.42,1.433,0.418,1.438C0.395,1.489,0.376,1.546,0.367,1.605
	C0.33,1.839,0.426,2.063,0.599,2.201L4,6.08L0.6,8.823L0.507,9.72l11,13.533c0.119,0.15,0.301,0.238,0.493,0.237
	c0.147,0,0.29-0.051,0.404-0.145c0.071-0.058,0.126-0.129,0.165-0.206L23.477,9.72L23.37,8.813z M11.995,21.836L4.163,7.604
	l1.17-0.938L5.394,5.74L2.67,2.633c2.563,0.422,7.199,1.139,9.197,1.144c2.039,0,6.756-0.713,9.387-1.138L18.39,5.727l0.08,0.94
	l1.228,0.938L11.995,21.836z"/>
</svg>
