<svg xmlns="http://www.w3.org/2000/svg" viewBox="0 0 72 72">
  <defs>
    <style>.cls-1{fill:#fff;}.cls-2{fill:#1d1d1b;}</style>
  </defs>
  <rect class="cls-1" x="1.5" y="1.5" width="69" height="69" rx="10.51" ry="10.51"/>
  <path class="cls-2"
        d="M60,3a9,9,0,0,1,9,9V60a9,9,0,0,1-9,9H12a9,9,0,0,1-9-9V12a9,9,0,0,1,9-9H60m0-3H12A12,12,0,0,0,0,12V60A12,12,0,0,0,12,72H60A12,12,0,0,0,72,60V12A12,12,0,0,0,60,0Z"/>
  <circle class="cls-1" cx="35.93" cy="37.83" r="16.87"/>
  <path class="cls-2"
        d="M35.93,56.21A18.38,18.38,0,1,1,54.3,37.83,18.4,18.4,0,0,1,35.93,56.21Zm0-33.75A15.38,15.38,0,1,0,51.3,37.83,15.39,15.39,0,0,0,35.93,22.46Z"/>
  <path class="cls-2"
        d="M35.7,49.46a10.58,10.58,0,0,1-1.39-.09l.35-3a8.9,8.9,0,0,0,9.93-8.83,8.17,8.17,0,0,0-.07-1.11l3-.37a12.12,12.12,0,0,1,.09,1.48A11.9,11.9,0,0,1,35.7,49.46Z"/>
  <circle class="cls-2" cx="51.87" cy="19.22" r="1.5"/>
  <path class="cls-2" d="M51.87,22.22a3,3,0,1,1,3-3A3,3,0,0,1,51.87,22.22Zm0-3Z"/>
  <path class="cls-2" d="M18.6,13.78H0v-2.9H18.6a.76.76,0,0,0,.82-.66V1h2.89v9.22A3.63,3.63,0,0,1,18.6,13.78Z"/>
</svg>
