<?xml version="1.0" encoding="utf-8"?>
<!-- Generator: Adobe Illustrator 16.0.0, SVG Export Plug-In . SVG Version: 6.00 Build 0)  -->
<!DOCTYPE svg PUBLIC "-//W3C//DTD SVG 1.1//EN" "http://www.w3.org/Graphics/SVG/1.1/DTD/svg11.dtd">
<svg version="1.1" id="Ebene_1" xmlns="http://www.w3.org/2000/svg" xmlns:xlink="http://www.w3.org/1999/xlink" x="0px" y="0px"
	 width="24px" height="24px" viewBox="0 0 24 24" enable-background="new 0 0 24 24" xml:space="preserve">
<path d="M19.142,5.774c0-0.075-0.06-0.135-0.134-0.135h-6.936v-0.22h-0.27v0.22H7.562c-0.027,0-0.051,0.01-0.072,0.024L7.488,5.661
	L4.37,7.301l0.001,0.002c-0.037,0.024-0.063,0.063-0.063,0.11v12.924c0,0.074,0.061,0.135,0.135,0.135h12.924
	c0.048,0,0.087-0.026,0.111-0.063l0.001,0.001l1.641-3.118l-0.002-0.002c0.014-0.021,0.023-0.045,0.023-0.072v-5.003h0.159v-0.27
	h-0.159V5.774z M7.428,6.023v1.256H4.895L7.428,6.023z M4.578,7.548h2.85v9.615l-2.85,2.85V7.548z M17.232,20.203H4.769l2.85-2.85
	h9.614V20.203z M17.232,11.946h-0.438v0.27h0.438v4.869H7.697V7.548h4.106v0.504h0.27V7.548h5.16V11.946z M17.312,7.279H7.697V5.909
	h4.106v0.036v0.011h0.27V5.945V5.909h6.61L17.312,7.279z M17.502,19.887v-2.533h1.256L17.502,19.887z M18.873,17.084h-1.371V7.469
	l1.371-1.371v5.847h-0.079h-0.003v0.27h0.003h0.079V17.084z M12.072,9.126h-0.27V8.589h0.27V9.126z M12.072,10.2h-0.27V9.664h0.27
	V10.2z M12.072,11.274h-0.27v-0.537h0.27V11.274z M11.803,4.345h0.27v0.537h-0.27V4.345z M11.803,6.441h0.27v0.537h-0.27V6.441z
	 M11.803,3.805h-0.256l0.392-1.506l0.391,1.506h-0.256v0.002h-0.27V3.805z M11.436,12.414l0.193,0.187l-0.265,0.28l-0.194-0.187
	L11.436,12.414z M10.978,12.871l0.194,0.187l-0.265,0.28l-0.194-0.187L10.978,12.871z M10.521,13.328l0.193,0.188l-0.265,0.279
	l-0.194-0.187L10.521,13.328z M10.063,13.786l0.194,0.187l-0.265,0.28l-0.194-0.188L10.063,13.786z M9.77,14.473l0.185,0.178
	L8.66,15.429l0.732-1.321l0.185,0.178l0.001-0.001l0.194,0.187L9.77,14.473z M15.266,12.215h-0.51v-0.27h0.51V12.215z
	 M16.285,12.215h-0.51v-0.27h0.51V12.215z M17.814,11.946h0.51v0.27h-0.51V11.946z M13.227,12.215h-0.51v-0.27h0.51V12.215z
	 M14.246,12.215h-0.51v-0.27h0.51V12.215z M19.856,12.472v-0.256h-0.002v-0.27h0.002v-0.256l1.46,0.392L19.856,12.472z
	 M11.938,11.812c0.148,0,0.269,0.12,0.269,0.269s-0.121,0.269-0.269,0.269c-0.149,0-0.269-0.12-0.269-0.269
	S11.789,11.812,11.938,11.812z"/>
</svg>
