<?xml version="1.0" encoding="utf-8"?>
<!-- Generator: Adobe Illustrator 16.0.0, SVG Export Plug-In . SVG Version: 6.00 Build 0)  -->
<!DOCTYPE svg PUBLIC "-//W3C//DTD SVG 1.1//EN" "http://www.w3.org/Graphics/SVG/1.1/DTD/svg11.dtd">
<svg version="1.1" id="Ebene_1" xmlns="http://www.w3.org/2000/svg" xmlns:xlink="http://www.w3.org/1999/xlink" x="0px" y="0px"
	 width="24px" height="24px" viewBox="0 244 24 24" enable-background="new 0 244 24 24" xml:space="preserve">
<path d="M19,246H5c-2.209,0-4,1.791-4,4v17l4-3.542h14c2.209,0,4-1.791,4-4V250C23,247.791,21.209,246,19,246z M11.995,261.133
	l-1.313-2.203l1.33-0.66l1.307,0.697L11.995,261.133z M11.999,248.367c0.46,0,0.834,0.373,0.834,0.833v7.307
	c0,0.461-0.374,0.834-0.834,0.834s-0.833-0.373-0.833-0.834V249.2C11.166,248.74,11.539,248.367,11.999,248.367z"/>
</svg>
