<svg xmlns="http://www.w3.org/2000/svg" viewBox="0 0 72 72">
  <path fill="inherit"
        d="M8.72,3.26c.21,0,.42,0,.62,0,6.44.89,25.81,5.38,26,5.42l.68.16.68-.16c.19,0,19.55-4.53,26-5.42.2,0,.41,0,.62,0,3,0,5.69,3.2,5.69,6.71V62c0,3.5-2.74,6.7-5.74,6.7-.2,0-.4,0-.6,0-6.43-.82-25.81-5-26-5L36,63.47l-.63.14c-.2,0-19.59,4.22-26,5-.2,0-.4,0-.6,0-3,0-5.77-3.2-5.77-6.7V10C3,6.46,5.73,3.26,8.72,3.26m0-3C3.87.26,0,5,0,10V62c0,5,3.89,9.7,8.77,9.7a8.18,8.18,0,0,0,1-.06C16.38,70.78,36,66.54,36,66.54s19.63,4.24,26.26,5.09a8.18,8.18,0,0,0,1,.06C68.14,71.69,72,67,72,62V10C72,5,68.16.26,63.31.26a7.23,7.23,0,0,0-1,.07C55.63,1.24,36,5.8,36,5.8S16.4,1.24,9.75.33a7.23,7.23,0,0,0-1-.07Z"/>
  <rect fill="inherit" x="34.53" y="13.6" width="3" height="45.71"/>
  <polyline fill="inherit" points="50.23 4.28 50.23 17.03 55.1 11.7 60.48 17.03 60.48 2.07"/>
  <polygon fill="inherit"
           points="48.73 20.9 48.73 4.28 51.73 4.28 51.73 13.16 55.04 9.53 58.98 13.43 58.98 2.07 61.98 2.07 61.98 20.63 55.15 13.86 48.73 20.9"/>
</svg>
