<?xml version="1.0" encoding="utf-8"?>
<!-- Generator: Adobe Illustrator 16.0.0, SVG Export Plug-In . SVG Version: 6.00 Build 0)  -->
<!DOCTYPE svg PUBLIC "-//W3C//DTD SVG 1.1//EN" "http://www.w3.org/Graphics/SVG/1.1/DTD/svg11.dtd">
<svg version="1.1" id="Ebene_1" xmlns="http://www.w3.org/2000/svg" xmlns:xlink="http://www.w3.org/1999/xlink" x="0px" y="0px"
	 width="24px" height="24px" viewBox="0 244 24 24" enable-background="new 0 244 24 24" xml:space="preserve">
<path d="M12,244.985c-6.084,0-11.016,4.932-11.016,11.016S5.916,267.016,12,267.016S23.015,262.084,23.015,256
	S18.084,244.985,12,244.985z M12,245.986c5.53,0,10.015,4.483,10.015,10.014c0,5.53-4.484,10.014-10.015,10.014
	c-5.531,0-10.014-4.483-10.014-10.014C1.986,250.469,6.469,245.986,12,245.986 M12,247.159c-4.882,0-8.841,3.958-8.841,8.841
	s3.958,8.841,8.841,8.841c4.883,0,8.841-3.958,8.841-8.841S16.883,247.159,12,247.159z M12.835,261.878
	c0,0.461-0.374,0.835-0.835,0.835s-0.834-0.374-0.834-0.835v-7.316c0-0.461,0.374-0.835,0.834-0.835s0.835,0.374,0.835,0.835
	V261.878z M11.993,252.799l-1.315-2.207l1.332-0.661l1.308,0.698L11.993,252.799z"/>
</svg>
