<?xml version="1.0" encoding="utf-8"?>
<!-- Generator: Adobe Illustrator 16.0.0, SVG Export Plug-In . SVG Version: 6.00 Build 0)  -->
<!DOCTYPE svg PUBLIC "-//W3C//DTD SVG 1.1//EN" "http://www.w3.org/Graphics/SVG/1.1/DTD/svg11.dtd">
<svg version="1.1" id="Ebene_1" xmlns="http://www.w3.org/2000/svg" xmlns:xlink="http://www.w3.org/1999/xlink" x="0px" y="0px"
	 width="24px" height="24px" viewBox="0 244 24 24" enable-background="new 0 244 24 24" xml:space="preserve">
<path id="Black_Background" d="M12,246c5.522,0,10,4.477,10,10c0,5.522-4.478,10-10,10c-5.523,0-10-4.478-10-10
	C2,250.477,6.477,246,12,246 M12,245c-6.075,0-11,4.925-11,11s4.925,11,11,11s11-4.925,11-11S18.075,245,12,245z M11.993,252.803
	L10.68,250.6l1.33-0.66l1.307,0.697L11.993,252.803z M12,262.703c-0.46,0-0.833-0.373-0.833-0.833v-7.307
	c0-0.46,0.374-0.833,0.833-0.833c0.46,0,0.833,0.373,0.833,0.833v7.307C12.833,262.33,12.46,262.703,12,262.703z"/>
</svg>
