<?xml version="1.0" encoding="utf-8"?>
<!-- Generator: Adobe Illustrator 16.0.0, SVG Export Plug-In . SVG Version: 6.00 Build 0)  -->
<!DOCTYPE svg PUBLIC "-//W3C//DTD SVG 1.1//EN" "http://www.w3.org/Graphics/SVG/1.1/DTD/svg11.dtd">
<svg version="1.1" id="Ebene_1" xmlns="http://www.w3.org/2000/svg" xmlns:xlink="http://www.w3.org/1999/xlink" x="0px" y="0px"
	 width="24px" height="24px" viewBox="0 244 24 24" enable-background="new 0 244 24 24" xml:space="preserve">
<path id="Black_Background" d="M12,246c5.522,0,10,4.477,10,10c0,5.522-4.478,10-10,10c-5.523,0-10-4.478-10-10
	C2,250.477,6.477,246,12,246 M12,245c-6.075,0-11,4.925-11,11s4.925,11,11,11s11-4.925,11-11S18.075,245,12,245z"/>
<g>
	<path d="M14.398,251.054c-0.455-0.28-1.156-0.56-2.101-0.56c-1.033,0-1.821,0.508-1.821,1.295c0,0.91,0.875,1.243,2.188,1.681
		c1.61,0.525,2.853,1.19,2.853,2.766c0,0.911-0.438,1.577-1.138,2.119c0.297,0.244,0.665,0.821,0.665,1.541
		c0,1.837-1.697,2.625-3.326,2.625c-1.068,0-2.083-0.245-2.749-0.735l0.42-0.998c0.42,0.298,1.278,0.718,2.311,0.718
		c1.121,0,1.96-0.508,1.96-1.436c0-0.822-0.508-1.26-2.136-1.819c-1.803-0.613-3.046-1.262-3.046-2.767
		c0-0.666,0.35-1.453,1.278-2.048c-0.35-0.28-0.63-0.875-0.647-1.47c0-1.542,1.436-2.486,3.238-2.486
		c0.981,0,1.821,0.245,2.417,0.577L14.398,251.054z M11.58,256.954c0.893,0.314,1.593,0.578,1.996,0.84
		c0.438-0.314,0.665-0.806,0.665-1.348c0-0.666-0.42-1.226-1.558-1.628c-0.7-0.262-1.593-0.56-2.153-0.892
		c-0.56,0.402-0.805,0.84-0.805,1.366C9.724,255.921,10.197,256.447,11.58,256.954z"/>
</g>
</svg>
