<?xml version="1.0" encoding="utf-8"?>
<!-- Generator: Adobe Illustrator 16.0.0, SVG Export Plug-In . SVG Version: 6.00 Build 0)  -->
<!DOCTYPE svg PUBLIC "-//W3C//DTD SVG 1.1//EN" "http://www.w3.org/Graphics/SVG/1.1/DTD/svg11.dtd">
<svg version="1.1" id="Ebene_1" xmlns="http://www.w3.org/2000/svg" xmlns:xlink="http://www.w3.org/1999/xlink" x="0px" y="0px"
	 width="24px" height="24px" viewBox="0 244 24 24" enable-background="new 0 244 24 24" xml:space="preserve">
<path d="M20,244H4c-2.209,0-4,1.791-4,4v16c0,2.209,1.791,4,4,4h16c2.209,0,4-1.791,4-4v-16C24,245.791,22.209,244,20,244z M23,264
	c0,1.657-1.343,3-3,3H4c-1.657,0-3-1.343-3-3v-16c0-1.657,1.343-3,3-3h16c1.657,0,3,1.343,3,3V264z M4.974,259.942h15.957v0.703
	H4.974V259.942z M18.962,262.543H4.974v-0.703h13.987V262.543z M4.974,263.704h15.957v0.703H4.974V263.704z M4.375,260.293
	c0,0.347-0.281,0.627-0.627,0.627s-0.626-0.28-0.626-0.627c0-0.346,0.28-0.627,0.626-0.627S4.375,259.948,4.375,260.293z
	 M4.375,262.192c0,0.346-0.281,0.627-0.627,0.627s-0.626-0.281-0.626-0.627c0-0.347,0.28-0.627,0.626-0.627
	S4.375,261.845,4.375,262.192z M4.375,264.056c0,0.347-0.281,0.627-0.627,0.627s-0.626-0.28-0.626-0.627
	c0-0.346,0.28-0.626,0.626-0.626S4.375,263.71,4.375,264.056z M18.916,246.977H5.137l6.889,11.933L18.916,246.977z M12.29,257.396
	v-5.667l5.367-3.627L12.29,257.396z M17.596,247.505l-5.57,3.765l-5.57-3.765H17.596z M11.762,257.396l-5.366-9.294l5.366,3.627
	V257.396z"/>
</svg>
