<svg xmlns="http://www.w3.org/2000/svg" viewBox="0 0 72 72">
  <path fill="inherit"
        d="M60,3a9,9,0,0,1,9,9V60a9,9,0,0,1-9,9H12a9,9,0,0,1-9-9V12a9,9,0,0,1,9-9H60m0-3H12A12,12,0,0,0,0,12V60A12,12,0,0,0,12,72H60A12,12,0,0,0,72,60V12A12,12,0,0,0,60,0Z"/>
  <rect fill="inherit" x="1.93" y="40.31" width="68.14" height="3"/>
  <path fill="inherit"
        d="M56,47.79H15.42L15,47.38c-.51-.48-2-1.81-2.47-2.21s-2.39-1.55-3-2L7.4,42l2-1.29c.64-.41,2.41-1.55,3-2s2.08-1.89,2.62-2.42l.44-.43h41.2l.44.41c.77.73,2.18,2,2.68,2.38S62,40,63,40.5l2.56,1.4-2.63,1.26a36.34,36.34,0,0,0-3.28,1.76,31.68,31.68,0,0,0-2.52,2.41l-.44.46Zm-39.41-3H55.38a28.37,28.37,0,0,1,2.47-2.3,11.07,11.07,0,0,1,1.24-.75c-.43-.26-.83-.51-1.08-.69-.61-.45-1.86-1.59-2.53-2.22H16.67c-.65.63-1.83,1.76-2.41,2.21-.27.22-.74.54-1.23.87.52.33,1,.66,1.29.88C14.86,43.2,16,44.21,16.6,44.79Z"/>
  <rect fill="inherit" x="1.93" y="54.7" width="68.14" height="3"/>
  <path fill="inherit"
        d="M56,62.18H15.42L15,61.77c-.51-.48-2-1.82-2.47-2.21s-2.39-1.56-3-2L7.4,56.35l2-1.29c.64-.41,2.41-1.55,3-2s2.08-1.9,2.62-2.42l.44-.43h41.2l.44.41c.77.73,2.18,2,2.67,2.38S62,54.36,63,54.88l2.56,1.4-2.63,1.27a34,34,0,0,0-3.28,1.76,31.68,31.68,0,0,0-2.52,2.41l-.44.46Zm-39.41-3H55.38a26.9,26.9,0,0,1,2.47-2.3,11.07,11.07,0,0,1,1.24-.75c-.43-.26-.83-.51-1.08-.7-.61-.44-1.86-1.58-2.53-2.21H16.67c-.65.63-1.83,1.75-2.41,2.21-.27.21-.74.54-1.23.87.52.33,1,.65,1.29.87C14.86,57.58,16,58.6,16.6,59.18Z"/>
  <circle fill="inherit" cx="36.05" cy="27.14" r="1.89"/>
  <polygon fill="inherit"
           points="37.55 22.98 34.55 22.98 34.55 17.09 39.47 17.09 39.47 13.78 31.12 13.78 31.12 10.78 42.47 10.78 42.47 20.09 37.55 20.09 37.55 22.98"/>
</svg>
