<?xml version="1.0" encoding="utf-8"?>
<!-- Generator: Adobe Illustrator 16.0.0, SVG Export Plug-In . SVG Version: 6.00 Build 0)  -->
<!DOCTYPE svg PUBLIC "-//W3C//DTD SVG 1.1//EN" "http://www.w3.org/Graphics/SVG/1.1/DTD/svg11.dtd">
<svg version="1.1" id="Ebene_1" xmlns="http://www.w3.org/2000/svg" xmlns:xlink="http://www.w3.org/1999/xlink" x="0px" y="0px"
	 width="24px" height="24px" viewBox="0 0 24 24" enable-background="new 0 0 24 24" xml:space="preserve">
<path d="M18.838,7.869l1-0.12c0.024,0.2,0.036,0.402,0.036,0.604c0.004,2.689-2.174,4.873-4.863,4.876c-0.002,0-0.004,0-0.006,0
	c-0.191,0-0.381-0.01-0.57-0.033l0.113-1c0.152,0.017,0.305,0.026,0.457,0.026c2.135-0.001,3.865-1.734,3.863-3.87
	C18.868,8.19,18.858,8.029,18.838,7.869z M22.688,8.462c0,0.001,0,0.002,0,0.003c-0.006,4.187-3.4,7.58-7.588,7.583
	c-1.469,0-2.834-0.425-3.996-1.147c-0.055,0.11-0.115,0.219-0.206,0.311l-7.577,7.573c-0.221,0.221-0.521,0.344-0.833,0.34
	c-0.644,0.006-1.171-0.512-1.177-1.156c-0.003-0.316,0.124-0.621,0.35-0.844l7.587-7.563c0.046-0.046,0.104-0.066,0.155-0.104
	c-1.172-1.335-1.888-3.081-1.888-4.997c0-4.19,3.396-7.587,7.585-7.587C19.292,0.875,22.688,4.272,22.688,8.462z M21.688,8.465
	c-0.014-3.63-2.957-6.566-6.588-6.57c-3.637,0-6.585,2.949-6.585,6.587s2.949,6.586,6.585,6.586c3.639,0,6.588-2.949,6.588-6.586
	C21.688,8.476,21.688,8.471,21.688,8.465z"/>
</svg>
