<svg xmlns="http://www.w3.org/2000/svg" viewBox="0 0 36 36">
  <defs>
    <style>.cls-1{fill:#fff;}.cls-2{fill:#1d1d1b;}</style>
  </defs>
  <rect class="cls-1" x="0.99" y="0.99" width="34.02" height="34.02" rx="4.96" ry="4.96"/>
  <path class="cls-2"
        d="M30.05,2a4,4,0,0,1,4,4v24.1a4,4,0,0,1-4,4H6a4,4,0,0,1-4-4V6A4,4,0,0,1,6,2h24.1m0-2H6A6,6,0,0,0,0,6v24.1A6,6,0,0,0,6,36h24.1A6,6,0,0,0,36,30.05V6A6,6,0,0,0,30.05,0Z"/>
  <circle class="cls-1" cx="21.07" cy="14.11" r="8"/>
  <path class="cls-2"
        d="M21.07,23.11a9,9,0,1,1,9-9A9,9,0,0,1,21.07,23.11Zm0-16a7,7,0,1,0,7,7A7,7,0,0,0,21.07,7.11Z"/>
  <path class="cls-1" d="M25.85,13.37c0,.2,0,.41,0,.61A4.93,4.93,0,0,1,21,18.91a5.49,5.49,0,0,1-.58,0"/>
  <path class="cls-2"
        d="M21,19.91a5.22,5.22,0,0,1-.69,0l.23-2a3.44,3.44,0,0,0,.46,0A3.94,3.94,0,0,0,24.89,14a4,4,0,0,0,0-.49l2-.24a5.84,5.84,0,0,1,.05.73A5.94,5.94,0,0,1,21,19.91Z"/>
  <path class="cls-2"
        d="M6.83,31.1a1.78,1.78,0,0,1-1.24-.52,1.75,1.75,0,0,1,0-2.47l8.57-8.57A1.75,1.75,0,0,1,16.63,22L8.07,30.58A1.76,1.76,0,0,1,6.83,31.1Z"/>
</svg>
