<svg xmlns="http://www.w3.org/2000/svg" viewBox="0 0 72 72">
  <defs>
    <style>.cls-1{fill:#fff;}.cls-2{fill:#1d1d1b;}</style>
  </defs>
  <circle class="cls-1" cx="47.34" cy="24.71" r="21.26"/>
  <path class="cls-2"
        d="M47.34,47.46A22.76,22.76,0,1,1,70.1,24.71,22.78,22.78,0,0,1,47.34,47.46ZM47.34,5A19.76,19.76,0,1,0,67.1,24.71,19.78,19.78,0,0,0,47.34,5Z"/>
  <path class="cls-1" d="M60,22.74a14.56,14.56,0,0,1,.1,1.63,13.1,13.1,0,0,1-14.63,13"/>
  <path class="cls-2"
        d="M47.05,39a13.89,13.89,0,0,1-1.71-.1l.34-3a12.44,12.44,0,0,0,1.37.08A11.6,11.6,0,0,0,58.64,24.37a11.76,11.76,0,0,0-.09-1.45l3-.36a15.7,15.7,0,0,1,.11,1.81A14.61,14.61,0,0,1,47.05,39Z"/>
  <line class="cls-1" x1="32.26" y1="42.43" x2="9.5" y2="65.19"/>
  <path class="cls-2"
        d="M9.5,68.69a3.5,3.5,0,0,1-2.48-6L29.78,40a3.5,3.5,0,0,1,4.95,4.95L12,67.67A3.49,3.49,0,0,1,9.5,68.69Z"/>
</svg>
