<?xml version="1.0" encoding="utf-8"?>
<!-- Generator: Adobe Illustrator 16.0.0, SVG Export Plug-In . SVG Version: 6.00 Build 0)  -->
<!DOCTYPE svg PUBLIC "-//W3C//DTD SVG 1.1//EN" "http://www.w3.org/Graphics/SVG/1.1/DTD/svg11.dtd">
<svg version="1.1" id="Ebene_1" xmlns="http://www.w3.org/2000/svg" xmlns:xlink="http://www.w3.org/1999/xlink" x="0px" y="0px"
	 width="384px" height="384px" viewBox="0 0 384 384" enable-background="new 0 0 384 384" xml:space="preserve">
<g>
	<g>
		<circle fill="none" cx="-306" cy="256" r="256"/>
	</g>
	<g>
		<path d="M-174.188,469.411c-2.364,4.094-8.167,7.445-12.896,7.445h-237.832c-4.729,0-10.532-3.352-12.896-7.445l-118.916-205.965
			c-2.364-4.095-2.364-10.796,0-14.892L-437.812,42.59c2.364-4.095,8.167-7.446,12.896-7.446h237.832
			c4.729,0,10.531,3.351,12.896,7.446l118.915,205.964c2.364,4.095,2.364,10.796,0,14.892L-174.188,469.411z M-426.23,449.351
			c2.364,4.094,8.167,7.445,12.896,7.445h214.668c4.728,0,10.531-3.352,12.896-7.445l107.334-185.905
			c2.364-4.095,2.364-10.796,0-14.891L-185.771,62.65c-2.364-4.095-8.168-7.446-12.896-7.446h-214.668
			c-4.729,0-10.532,3.351-12.896,7.446l-107.333,185.904c-2.364,4.095-2.364,10.796,0,14.892L-426.23,449.351z"/>
	</g>
	<g transform="translate(0.000000,891.000000) scale(0.100000,-0.100000)">
		<path d="M-3873.759,7555.829c-92.881-16.538-241.753-67.437-337.183-114.517c-120.879-61.074-225.205-136.147-225.205-162.866
			c0-26.714-24.18-48.345-104.341-89.067c-31.807-17.817-71.26-40.718-85.249-50.894c-25.449-20.352-26.719-26.714-26.719-987.373
			c0-531.87,0-973.379,0-982.285c0-8.916,11.445-21.641,24.17-29.268c20.366-10.186,43.267-2.549,118.33,38.174
			c201.05,108.154,396.987,160.313,646.387,173.037c237.925,12.725,385.532-8.906,725.264-103.057l82.705-22.91l133.599,39.453
			c240.479,71.25,329.546,85.254,572.578,85.254c309.189-1.289,500.049-44.541,734.16-171.777
			c72.529-39.453,100.527-48.359,118.34-38.174c11.445,6.367,24.17,19.092,26.719,27.979c2.549,8.916,3.818,452.983,1.27,986.108
			l-2.539,969.565l-69.98,41.987l-69.98,42.002v118.33c0,64.883-6.357,129.785-12.725,143.774
			c-19.082,35.625-69.98,30.542-124.707-13.989c-25.439-20.366-81.426-53.442-123.408-72.529
			c-67.451-31.812-91.611-35.625-197.217-35.625c-109.438,0-132.339,5.083-235.396,47.07
			c-240.488,96.709-405.898,92.896-633.662-11.445l-97.964-45.815l-57.261,40.723c-73.809,53.442-245.581,133.599-343.545,160.327
			C-3527.666,7562.191-3778.33,7573.646-3873.759,7555.829z M-3425.874,7412.05c115.796-39.438,197.222-78.892,272.295-133.604
			l53.442-39.438v-866.504c0-475.869-3.823-863.95-8.906-861.416c-290.103,147.607-362.632,169.238-589.116,167.959
			c-204.863,0-313.018-25.449-502.598-118.33l-120.874-59.805v867.773c0,809.238,1.265,867.778,22.9,885.581
			c35.625,33.091,183.218,109.434,264.653,138.696C-3829.223,7464.213-3605.278,7471.854-3425.874,7412.05z M-2387.593,7300.082
			c171.772-59.805,230.298-73.799,318.101-73.799c115.781,1.27,189.57,20.356,321.904,86.523
			c5.088,2.544,7.637-384.268,6.367-858.867l-3.818-862.681l-100.518-50.894c-96.699-49.629-104.346-50.894-222.666-50.894
			c-110.708,0-133.608,5.078-236.665,47.065c-213.774,85.254-391.909,90.347-571.308,15.273
			c-43.267-17.808-87.803-35.625-99.248-39.443c-21.631-6.362-22.9,39.443-22.9,847.412v853.784l58.525,38.169
			c64.888,40.708,188.311,85.239,259.575,92.881C-2598.818,7354.794-2497.026,7338.251-2387.593,7300.082z M-4448.872,6227.455
			c0-479.692,0-875.415,1.27-880.503c0-5.088-22.9-19.082-50.898-31.797l-52.163-21.641v877.949v876.685l41.987,25.449
			c21.636,13.989,44.536,25.449,50.894,25.449C-4452.7,7099.047-4448.872,6707.138-4448.872,6227.455z M-1573.261,6170.199v-875.415
			l-133.604,53.438c-120.879,47.09-160.332,71.27-117.061,71.27c19.082,0,188.311,108.149,202.305,129.771
			c5.088,8.906,10.186,356.27,10.186,772.344c0,669.287,2.539,753.262,19.082,739.268
			C-1575.81,7046.869-1573.261,6932.353-1573.261,6170.199z M-3423.33,5527.641c110.703-36.904,220.122-91.616,278.662-139.966
			l38.169-30.547l-80.171,25.449c-211.211,64.893-328.271,80.156-587.832,80.156c-183.232,0-271.03-5.078-337.188-20.352
			c-48.359-11.445-90.347-19.082-92.891-16.533c-16.543,16.533,223.945,108.154,347.373,132.319
			C-3745.239,5581.068-3537.841,5565.81-3423.33,5527.641z M-2516.113,5483.104c59.805,0,15.269-14.004-105.605-31.807
			c-66.167-10.186-166.68-29.277-220.122-43.271c-54.712-13.984-100.522-22.891-103.071-20.352
			c-7.632,7.637,85.254,50.898,156.514,73.799c77.612,24.17,137.417,33.076,197.221,26.709
			C-2567.011,5485.644-2532.651,5483.104-2516.113,5483.104z"/>
	</g>
	<path fill="#685187" d="M-342.587,149.795c11.58,3.944,19.722,7.889,27.229,13.36l5.344,3.944v86.65
		c0,47.587-0.382,86.395-0.891,86.142c-29.01-14.761-36.263-16.924-58.912-16.796c-20.486,0-31.302,2.545-50.26,11.833l-12.087,5.98
		v-86.777c0-80.924,0.126-86.778,2.29-88.558c3.563-3.309,18.322-10.943,26.465-13.87
		C-382.922,144.579-360.528,143.815-342.587,149.795z"/>
	<path fill="#FFF9C3" d="M-238.759,160.992c17.177,5.98,23.03,7.38,31.81,7.38c11.578-0.127,18.957-2.036,32.19-8.652
		c0.509-0.254,0.764,38.427,0.637,85.887l-0.382,86.268l-10.052,5.089c-9.67,4.963-10.435,5.089-22.267,5.089
		c-11.071,0-13.361-0.508-23.667-4.707c-21.377-8.525-39.191-9.035-57.131-1.527c-4.327,1.781-8.78,3.563-9.925,3.944
		c-2.163,0.636-2.29-3.944-2.29-84.741v-85.378l5.853-3.817c6.489-4.071,18.831-8.524,25.958-9.288
		C-259.882,155.521-249.703,157.175-238.759,160.992z"/>
</g>
<g>
	<g>
		<circle fill="none" cx="192" cy="192" r="192"/>
	</g>
	<g>
		<path d="M290.858,352.059c-1.772,3.07-6.125,5.584-9.671,5.584H102.813c-3.546,0-7.898-2.514-9.671-5.584L3.955,197.585
			c-1.773-3.072-1.773-8.097,0-11.169L93.142,31.942c1.772-3.071,6.125-5.584,9.671-5.584h178.375c3.546,0,7.898,2.513,9.671,5.584
			l89.187,154.473c1.773,3.072,1.773,8.097,0,11.169L290.858,352.059z M101.827,337.013c1.774,3.07,6.126,5.584,9.673,5.584h161
			c3.546,0,7.898-2.514,9.672-5.584l80.501-139.429c1.772-3.071,1.772-8.097,0-11.168L282.172,46.988
			c-1.773-3.071-6.126-5.584-9.672-5.584h-161c-3.547,0-7.898,2.513-9.673,5.584L21.328,186.416c-1.773,3.072-1.773,8.097,0,11.169
			L101.827,337.013z"/>
	</g>
	<g transform="translate(0.000000,891.000000) scale(0.100000,-0.100000)">
		<path d="M1309.678,7894.374c-69.658-12.407-181.309-50.581-252.881-85.889c-90.664-45.806-168.906-102.109-168.906-122.148
			s-18.145-36.26-78.262-66.802c-23.848-13.364-53.438-30.542-63.936-38.169c-19.092-15.264-20.039-20.039-20.039-740.532
			c0-398.901,0-730.034,0-736.714c0-6.689,8.584-16.23,18.135-21.953c15.273-7.637,32.441-1.909,88.74,28.633
			c150.791,81.113,297.744,120.234,484.795,129.775c178.438,9.546,289.15-6.68,543.945-77.29l62.031-17.183l100.195,29.59
			c180.361,53.438,247.158,63.94,429.434,63.94c231.895-0.967,375.039-33.403,550.625-128.833
			c54.395-29.59,75.391-36.27,88.75-28.633c8.584,4.775,18.125,14.321,20.039,20.986c1.914,6.689,2.871,339.736,0.957,739.58
			l-1.904,727.178l-52.49,31.489l-52.48,31.499v88.75c0,48.662-4.766,97.339-9.551,107.832
			c-14.307,26.719-52.48,22.905-93.525-10.493c-19.082-15.278-61.064-40.083-92.559-54.399
			c-50.586-23.857-68.701-26.719-147.91-26.719c-82.08,0-99.258,3.813-176.543,35.303c-180.361,72.534-304.424,69.673-475.254-8.584
			l-73.467-34.36l-42.949,30.542c-55.352,40.083-184.18,100.2-257.656,120.244
			C1569.249,7899.144,1381.25,7907.733,1309.678,7894.374z M1645.586,7786.537c86.855-29.58,147.93-59.17,204.238-100.2
			l40.078-29.58v-649.878c0-356.904-2.871-647.964-6.68-646.064c-217.578,110.708-271.982,126.929-441.846,125.972
			c-153.643,0-234.756-19.087-376.943-88.75l-90.654-44.854v650.83c0,606.929,0.947,650.835,17.178,664.189
			c26.719,24.814,137.412,82.07,198.477,104.019C1343.086,7825.658,1511.045,7831.39,1645.586,7786.537z M2424.297,7702.562
			c128.838-44.854,172.734-55.352,238.584-55.352c86.836,0.952,142.178,15.269,241.426,64.893
			c3.818,1.909,5.732-288.198,4.775-644.15l-2.861-647.007l-75.391-38.174c-72.52-37.222-78.252-38.169-167.002-38.169
			c-83.027,0-100.205,3.809-177.49,35.298c-160.332,63.94-293.936,67.764-428.486,11.455c-32.451-13.354-65.859-26.719-74.434-29.58
			c-16.221-4.775-17.168,29.58-17.168,635.557v640.342l43.887,28.623c48.662,30.532,141.23,63.931,194.678,69.663
			C2265.889,7743.592,2342.227,7731.19,2424.297,7702.562z M878.35,6898.089c0-359.771,0-656.558,0.947-660.376
			c0-3.818-17.178-14.312-38.164-23.848l-39.131-16.23v658.462v657.515l31.494,19.087c16.221,10.493,33.398,19.087,38.164,19.087
			C875.479,7551.786,878.35,7257.85,878.35,6898.089z M3035.059,6855.15v-656.563l-100.205,40.078
			c-90.664,35.317-120.254,53.452-87.803,53.452c14.316,0,141.24,81.113,151.738,97.329c3.809,6.68,7.637,267.202,7.637,579.258
			c0,501.963,1.904,564.946,14.307,554.448C3033.145,7512.65,3035.059,7426.766,3035.059,6855.15z M1647.5,6373.231
			c83.027-27.681,165.098-68.711,209.004-104.976l28.613-22.91L1825,6264.432c-158.408,48.672-246.211,60.117-440.879,60.117
			c-137.422,0-203.262-3.809-252.891-15.264c-36.27-8.584-67.754-14.312-69.668-12.402
			c-12.402,12.402,167.959,81.118,260.527,99.243C1406.075,6413.299,1561.622,6401.854,1647.5,6373.231z M2327.911,6339.828
			c44.863,0,11.465-10.503-79.199-23.853c-49.629-7.642-125.01-21.963-165.088-32.456c-41.035-10.488-75.4-17.168-77.305-15.264
			c-5.723,5.728,63.936,38.174,117.383,55.347c58.213,18.13,103.066,24.81,147.92,20.034
			C2289.747,6341.732,2315.508,6339.828,2327.911,6339.828z"/>
	</g>
	<path fill="#685187" d="M164.559,112.346c8.686,2.958,14.793,5.917,20.424,10.02l4.008,2.958v64.988
		c0,35.69-0.287,64.796-0.668,64.606c-21.758-11.071-27.198-12.693-44.185-12.597c-15.364,0-23.476,1.909-37.694,8.875l-9.065,4.485
		v-65.083c0-60.693,0.095-65.083,1.718-66.419c2.672-2.481,13.741-8.207,19.848-10.402
		C134.309,108.434,151.105,107.861,164.559,112.346z"/>
	<path fill="#FFF9C3" d="M242.43,120.744c12.884,4.485,17.273,5.535,23.858,5.535c8.684-0.095,14.218-1.527,24.143-6.489
		c0.382-0.191,0.573,28.82,0.478,64.415l-0.286,64.701l-7.539,3.817c-7.252,3.722-7.825,3.817-16.7,3.817
		c-8.303,0-10.021-0.381-17.749-3.53c-16.033-6.394-29.394-6.776-42.849-1.146c-3.245,1.335-6.586,2.672-7.443,2.958
		c-1.622,0.478-1.717-2.958-1.717-63.556v-64.034l4.389-2.862c4.866-3.053,14.123-6.393,19.468-6.966
		C226.589,116.641,234.223,117.881,242.43,120.744z"/>
</g>
<g>
	<g>
		<circle fill="none" cx="530" cy="96" r="96"/>
	</g>
	<g>
		<path d="M579.43,176.029c-0.887,1.535-3.063,2.792-4.836,2.792h-89.188c-1.773,0-3.949-1.256-4.836-2.792l-44.593-77.237
			c-0.887-1.536-0.887-4.048,0-5.584l44.593-77.237c0.887-1.536,3.063-2.792,4.836-2.792h89.188c1.773,0,3.949,1.256,4.836,2.792
			l44.593,77.237c0.886,1.536,0.886,4.048,0,5.584L579.43,176.029z M484.914,168.506c0.887,1.535,3.063,2.792,4.836,2.792h80.5
			c1.773,0,3.949-1.257,4.836-2.792l40.25-69.714c0.887-1.536,0.887-4.048,0-5.584l-40.25-69.714
			c-0.887-1.536-3.063-2.792-4.836-2.792h-80.5c-1.773,0-3.949,1.256-4.836,2.792l-40.25,69.714c-0.887,1.536-0.887,4.048,0,5.584
			L484.914,168.506z"/>
	</g>
	<g transform="translate(0.000000,891.000000) scale(0.100000,-0.100000)">
		<path d="M4994.844,8402.186c-34.834-6.201-90.664-25.288-126.445-42.949c-45.332-22.9-84.453-51.05-84.453-61.069
			c0-10.015-9.072-18.13-39.131-33.403c-11.924-6.68-26.729-15.269-31.963-19.082c-9.551-7.632-10.02-10.02-10.02-370.264
			c0-199.453,0-365.02,0-368.359c0-3.345,4.287-8.115,9.063-10.977c7.637-3.818,16.221-0.957,44.375,14.316
			c75.391,40.557,148.867,60.117,242.393,64.888c89.219,4.771,144.57-3.34,271.973-38.647l31.016-8.589l50.107,14.795
			c90.176,26.719,123.574,31.968,214.707,31.968c115.947-0.479,187.52-16.699,275.313-64.414
			c27.197-14.795,37.695-18.135,44.375-14.316c4.297,2.388,9.063,7.158,10.02,10.493c0.957,3.345,1.436,169.868,0.469,369.79
			l-0.947,363.589l-26.24,15.742l-26.25,15.757v44.365c0,24.336-2.373,48.672-4.766,53.921c-7.148,13.359-26.24,11.45-46.758-5.249
			c-9.541-7.637-30.537-20.039-46.279-27.197c-25.303-11.929-34.355-13.359-73.955-13.359c-41.045,0-49.629,1.904-88.281,17.656
			c-90.176,36.26-152.207,34.834-237.617-4.297l-36.738-17.178l-21.475,15.269c-27.676,20.039-92.09,50.098-128.828,60.122
			C5124.629,8404.568,5030.625,8408.865,4994.844,8402.186z M5162.793,8348.27c43.428-14.79,73.965-29.585,102.119-50.103
			l20.039-14.79v-324.941c0-178.447-1.436-323.979-3.34-323.027c-108.789,55.352-135.986,63.467-220.928,62.979
			c-76.816,0-117.373-9.541-188.467-44.365l-45.332-22.432v325.42c0,303.462,0.479,325.41,8.594,332.09
			c13.359,12.412,68.701,41.035,99.238,52.012C5011.543,8367.83,5095.528,8370.691,5162.793,8348.27z M5552.149,8306.277
			c64.414-22.427,86.367-27.671,119.297-27.671c43.418,0.474,71.084,7.632,120.713,32.446c1.904,0.952,2.861-144.102,2.393-322.075
			l-1.445-323.506l-37.686-19.087c-36.27-18.608-39.131-19.082-83.506-19.082c-41.514,0-50.098,1.904-88.75,17.646
			c-80.166,31.973-146.963,33.882-214.238,5.732c-16.221-6.68-32.93-13.359-37.217-14.795c-8.115-2.388-8.584,14.795-8.584,317.783
			v320.166l21.943,14.316c24.336,15.264,70.615,31.963,97.344,34.824C5472.94,8326.795,5511.114,8320.594,5552.149,8306.277z
			 M4779.18,7904.046c0-179.888,0-328.281,0.469-330.19c0-1.909-8.594-7.158-19.082-11.924l-19.57-8.115v329.229v328.76
			l15.752,9.541c8.115,5.249,16.699,9.541,19.092,9.541C4777.735,8230.887,4779.18,8083.924,4779.18,7904.046z M5857.53,7882.571
			v-328.276l-50.107,20.039c-45.322,17.656-60.117,26.724-43.896,26.724c7.158,0,70.615,40.552,75.869,48.662
			c1.914,3.34,3.809,133.599,3.809,289.629c0,250.986,0.957,282.476,7.168,277.231
			C5856.563,8211.326,5857.53,8168.382,5857.53,7882.571z M5163.75,7641.609c41.523-13.833,82.549-34.351,104.502-52.48
			l14.307-11.455l-30.059,9.541c-79.209,24.336-123.105,30.059-220.43,30.059c-68.721,0-101.641-1.904-126.445-7.632
			c-18.145-4.292-33.887-7.153-34.844-6.201c-6.211,6.201,83.984,40.562,130.264,49.619
			C5043.038,7661.648,5120.801,7655.926,5163.75,7641.609z M5503.956,7624.91c22.432,0,5.732-5.249-39.6-11.924
			c-24.814-3.818-62.5-10.981-82.539-16.23c-20.527-5.244-37.705-8.584-38.662-7.627c-2.861,2.861,31.982,19.082,58.701,27.671
			c29.102,9.067,51.523,12.407,73.955,10.015C5484.874,7625.867,5497.754,7624.91,5503.956,7624.91z"/>
	</g>
	<path fill="#685187" d="M516.279,56.173c4.343,1.479,7.396,2.958,10.212,5.01l2.004,1.479v32.494
		c0,17.845-0.144,32.398-0.334,32.303c-10.879-5.535-13.599-6.347-22.093-6.298c-7.682,0-11.737,0.954-18.847,4.437l-4.533,2.243
		V95.299c0-30.346,0.048-32.541,0.859-33.209c1.336-1.241,6.87-4.104,9.924-5.201C501.154,54.217,509.553,53.931,516.279,56.173z"/>
	<path fill="#FFF9C3" d="M555.215,60.372c6.441,2.243,8.637,2.767,11.93,2.767c4.342-0.047,7.108-0.763,12.071-3.245
		c0.19-0.095,0.286,14.41,0.239,32.208l-0.145,32.351l-3.769,1.909c-3.627,1.861-3.913,1.908-8.351,1.908
		c-4.151,0-5.01-0.19-8.875-1.765c-8.017-3.197-14.696-3.388-21.424-0.573c-1.622,0.668-3.293,1.336-3.722,1.479
		c-0.812,0.239-0.858-1.479-0.858-31.778V63.616l2.194-1.432c2.434-1.526,7.062-3.196,9.734-3.482
		C547.294,58.32,551.111,58.941,555.215,60.372z"/>
</g>
<g>
	<g>
		<circle fill="none" cx="-486" cy="638" r="77.5"/>
	</g>
	<g>
		<path d="M-446.096,702.608c-0.716,1.239-2.473,2.253-3.904,2.253h-72c-1.432,0-3.188-1.014-3.904-2.253l-35.999-62.354
			c-0.716-1.24-0.716-3.268,0-4.508l35.999-62.354c0.716-1.239,2.473-2.253,3.904-2.253h72c1.432,0,3.188,1.014,3.904,2.253
			l35.999,62.354c0.715,1.24,0.715,3.268,0,4.508L-446.096,702.608z M-522.397,696.533c0.716,1.239,2.472,2.255,3.904,2.255h64.987
			c1.432,0,3.188-1.016,3.904-2.255l32.494-56.279c0.716-1.24,0.716-3.268,0-4.508l-32.494-56.279
			c-0.716-1.24-2.472-2.254-3.904-2.254h-64.987c-1.432,0-3.188,1.014-3.904,2.254l-32.494,56.279c-0.716,1.24-0.716,3.268,0,4.508
			L-522.397,696.533z"/>
	</g>
	<g transform="translate(0.000000,891.000000) scale(0.100000,-0.100000)">
		<path d="M-5106.346,2895.046c-28.125-5.01-73.193-20.42-102.08-34.678c-36.597-18.486-68.179-41.211-68.179-49.297
			s-7.324-14.639-31.592-26.963c-9.624-5.4-21.577-12.334-25.801-15.41c-7.71-6.162-8.091-8.086-8.091-298.906
			c0-161.016,0-294.678,0-297.373c0-2.705,3.462-6.553,7.319-8.867c6.162-3.076,13.091-0.771,35.82,11.563
			c60.864,32.734,120.181,48.525,195.684,52.383c72.026,3.848,116.709-2.695,219.561-31.201l25.039-6.934l40.449,11.943
			c72.798,21.572,99.761,25.811,173.335,25.811c93.599-0.391,151.382-13.486,222.256-52.002
			c21.953-11.943,30.43-14.639,35.825-11.563c3.467,1.934,7.314,5.781,8.086,8.477s1.157,137.129,0.381,298.525l-0.767,293.525
			l-21.182,12.705l-21.191,12.725v35.811c0,19.648-1.919,39.297-3.848,43.535c-5.771,10.781-21.187,9.238-37.749-4.238
			c-7.7-6.172-24.653-16.182-37.358-21.963c-20.43-9.619-27.739-10.781-59.707-10.781c-33.135,0-40.063,1.533-71.27,14.258
			c-72.798,29.268-122.871,28.115-191.826-3.477l-29.658-13.867l-17.334,12.334c-22.344,16.182-74.346,40.439-104.004,48.535
			C-5001.575,2896.97-5077.464,2900.437-5106.346,2895.046z M-4970.765,2851.521c35.059-11.943,59.712-23.887,82.441-40.449
			l16.177-11.943v-262.314c0-144.063-1.157-261.553-2.695-260.781c-87.827,44.688-109.78,51.23-178.354,50.84
			c-62.012,0-94.756-7.705-152.148-35.811l-36.597-18.115v262.715c0,244.971,0.386,262.695,6.938,268.086
			c10.786,10.02,55.464,33.135,80.117,41.992C-5092.869,2867.312-5025.066,2869.617-4970.765,2851.521z M-4656.438,2817.615
			c51.997-18.105,69.722-22.334,96.304-22.334c35.054,0.381,57.388,6.162,97.451,26.191c1.538,0.771,2.31-116.328,1.934-260
			l-1.167-261.172l-30.425-15.41c-29.277-15.02-31.592-15.4-67.412-15.4c-33.516,0-40.444,1.533-71.65,14.248
			c-64.717,25.811-118.638,27.344-172.949,4.629c-13.096-5.4-26.587-10.791-30.044-11.953c-6.553-1.924-6.934,11.953-6.934,256.553
			v258.467l17.715,11.553c19.648,12.324,57.007,25.801,78.584,28.115C-4720.384,2834.187-4689.568,2829.177-4656.438,2817.615z
			 M-5280.452,2492.898c0-145.215,0-265.02,0.381-266.553c0-1.543-6.938-5.781-15.405-9.629l-15.801-6.553v265.781v265.41
			l12.715,7.695c6.553,4.248,13.481,7.705,15.415,7.705C-5281.619,2756.755-5280.452,2638.113-5280.452,2492.898z
			 M-4409.91,2475.564v-265.01l-40.449,16.172c-36.592,14.258-48.535,21.572-35.439,21.572c5.781,0,57.007,32.744,61.25,39.287
			c1.543,2.695,3.076,107.852,3.076,233.818c0,202.607,0.771,228.037,5.786,223.799
			C-4410.691,2740.964-4409.91,2706.296-4409.91,2475.564z M-4969.993,2281.042c33.525-11.172,66.641-27.734,84.365-42.373
			l11.548-9.248l-24.263,7.705c-63.945,19.648-99.385,24.268-177.954,24.268c-55.479,0-82.051-1.543-102.075-6.162
			c-14.648-3.467-27.358-5.771-28.13-5.01c-5.015,5.01,67.798,32.744,105.161,40.059
			C-5067.444,2297.214-5004.666,2292.595-4969.993,2281.042z M-4695.345,2267.556c18.105,0,4.624-4.229-31.973-9.629
			c-20.029-3.076-50.454-8.857-66.631-13.096c-16.572-4.238-30.439-6.934-31.211-6.162c-2.31,2.314,25.82,15.41,47.388,22.334
			c23.496,7.324,41.597,10.02,59.702,8.086C-4710.75,2268.328-4700.354,2267.556-4695.345,2267.556z"/>
	</g>
	<path fill="#685187" d="M-497.076,605.848c3.506,1.194,5.971,2.389,8.244,4.045l1.618,1.194v26.231
		c0,14.406-0.116,26.155-0.27,26.078c-8.783-4.469-10.978-5.123-17.835-5.084c-6.201,0-9.476,0.771-15.215,3.581l-3.66,1.812
		v-26.271c0-24.497,0.039-26.27,0.694-26.809c1.079-1.002,5.546-3.313,8.012-4.199
		C-509.287,604.269-502.507,604.038-497.076,605.848z"/>
	<path fill="#FFF9C3" d="M-465.644,609.239c5.2,1.811,6.972,2.233,9.63,2.233c3.505-0.038,5.739-0.616,9.745-2.619
		c0.154-0.077,0.231,11.633,0.193,26l-0.117,26.117l-3.042,1.541c-2.928,1.502-3.159,1.54-6.741,1.54
		c-3.352,0-4.044-0.153-7.165-1.425c-6.472-2.581-11.864-2.734-17.295-0.463c-1.31,0.54-2.659,1.079-3.004,1.195
		c-0.655,0.192-0.693-1.195-0.693-25.655v-25.847l1.771-1.155c1.965-1.232,5.701-2.58,7.858-2.812
		C-472.038,607.581-468.957,608.082-465.644,609.239z"/>
</g>
<g>
	<g>
		<circle fill="none" cx="-514" cy="812" r="48"/>
	</g>
	<g>
		<path d="M-489.285,852.015c-0.443,0.768-1.531,1.396-2.418,1.396h-44.594c-0.887,0-1.975-0.628-2.418-1.396l-22.296-38.618
			c-0.443-0.769-0.443-2.024,0-2.793l22.296-38.618c0.443-0.768,1.531-1.396,2.418-1.396h44.594c0.887,0,1.975,0.628,2.418,1.396
			l22.296,38.618c0.443,0.769,0.443,2.024,0,2.793L-489.285,852.015z M-536.543,848.253c0.443,0.768,1.531,1.396,2.418,1.396h40.25
			c0.887,0,1.975-0.629,2.418-1.396l20.125-34.856c0.443-0.769,0.443-2.024,0-2.793l-20.125-34.856
			c-0.443-0.769-1.531-1.396-2.418-1.396h-40.25c-0.887,0-1.975,0.627-2.418,1.396l-20.125,34.856c-0.443,0.769-0.443,2.024,0,2.793
			L-536.543,848.253z"/>
	</g>
	<g transform="translate(0.000000,891.000000) scale(0.100000,-0.100000)">
		<path d="M-5292.576,1016.09c-17.417-3.105-45.332-12.646-63.223-21.475c-22.666-11.455-42.227-25.527-42.227-30.537
			c0-5-4.536-9.063-19.565-16.699c-5.962-3.34-13.364-7.637-15.981-9.541c-4.775-3.818-5.01-5.01-5.01-185.127
			c0-99.727,0-182.52,0-184.18c0-1.68,2.144-4.063,4.531-5.488c3.818-1.914,8.11-0.488,22.188,7.148
			c37.695,20.283,74.434,30.059,121.196,32.451c44.609,2.383,72.285-1.67,135.986-19.326l15.508-4.297l25.054,7.402
			c45.088,13.359,61.787,15.977,107.354,15.977c57.974-0.234,93.76-8.34,137.656-32.207c13.599-7.393,18.848-9.063,22.188-7.148
			c2.148,1.191,4.531,3.574,5.01,5.244s0.718,84.932,0.234,184.893l-0.474,181.797l-13.12,7.871l-13.125,7.871v22.188
			c0,12.168-1.187,24.336-2.383,26.963c-3.574,6.68-13.12,5.723-23.379-2.627c-4.771-3.818-15.269-10.02-23.14-13.594
			c-12.651-5.967-17.178-6.68-36.978-6.68c-20.522,0-24.814,0.947-44.141,8.828c-45.088,18.125-76.104,17.412-118.809-2.148
			l-18.369-8.594l-10.737,7.637c-13.838,10.02-46.045,25.049-64.414,30.059C-5227.683,1017.282-5274.685,1019.43-5292.576,1016.09z
			 M-5208.601,989.137c21.714-7.402,36.982-14.795,51.06-25.059l10.02-7.393V794.215c0-89.219-0.718-161.992-1.67-161.514
			c-54.395,27.676-67.993,31.729-110.464,31.494c-38.408,0-58.687-4.775-94.233-22.188l-22.666-11.211v162.705
			c0,151.729,0.239,162.705,4.297,166.045c6.68,6.211,34.351,20.518,49.619,26.006
			C-5284.226,998.913-5242.234,1000.348-5208.601,989.137z M-5013.923,968.141c32.207-11.221,43.184-13.838,59.648-13.838
			c21.709,0.234,35.542,3.818,60.356,16.221c0.952,0.479,1.431-72.051,1.196-161.035l-0.723-161.758l-18.843-9.541
			c-18.135-9.307-19.565-9.541-41.753-9.541c-20.757,0-25.049,0.957-44.375,8.828c-40.083,15.977-73.481,16.934-107.119,2.861
			c-8.11-3.34-16.465-6.68-18.608-7.393c-4.058-1.201-4.292,7.393-4.292,158.887v160.078l10.972,7.168
			c12.168,7.627,35.308,15.977,48.672,17.402C-5053.528,978.395-5034.441,975.29-5013.923,968.141z M-5400.408,767.018
			c0-89.941,0-164.141,0.234-165.088c0-0.957-4.297-3.584-9.541-5.967l-9.785-4.053V756.52v164.375l7.876,4.775
			c4.058,2.627,8.35,4.775,9.546,4.775C-5401.13,930.446-5400.408,856.959-5400.408,767.018z M-4861.233,756.286V592.145
			l-25.054,10.02c-22.661,8.828-30.059,13.359-21.948,13.359c3.579,0,35.308,20.273,37.935,24.336
			c0.957,1.67,1.904,66.797,1.904,144.814c0,125.488,0.479,141.24,3.584,138.613
			C-4861.716,920.661-4861.233,899.186-4861.233,756.286z M-5208.123,635.797c20.762-6.914,41.274-17.168,52.251-26.23l7.153-5.732
			l-15.029,4.775c-39.604,12.168-61.553,15.02-110.215,15.02c-34.36,0-50.82-0.947-63.223-3.809
			c-9.072-2.148-16.943-3.574-17.422-3.105c-3.105,3.105,41.992,20.283,65.132,24.814
			C-5268.479,645.817-5229.597,642.965-5208.123,635.797z M-5038.02,627.458c11.216,0,2.866-2.627-19.8-5.967
			c-12.407-1.904-31.25-5.488-41.27-8.115c-10.264-2.617-18.853-4.297-19.331-3.809c-1.431,1.426,15.991,9.531,29.351,13.828
			c14.551,4.531,25.762,6.211,36.978,5.01C-5047.561,627.926-5041.121,627.458-5038.02,627.458z"/>
	</g>
	<path fill="#685187" d="M-520.86,792.086c2.171,0.74,3.698,1.479,5.106,2.506l1.002,0.739v16.247
		c0,8.922-0.072,16.199-0.167,16.151c-5.439-2.768-6.799-3.173-11.046-3.149c-3.841,0-5.869,0.478-9.423,2.219l-2.267,1.121V811.65
		c0-15.173,0.024-16.271,0.43-16.604c0.668-0.621,3.435-2.052,4.962-2.601C-528.423,791.109-524.223,790.965-520.86,792.086z"/>
	<path fill="#FFF9C3" d="M-501.392,794.186c3.221,1.122,4.318,1.384,5.965,1.384c2.171-0.023,3.554-0.382,6.036-1.622
		c0.095-0.048,0.143,7.205,0.12,16.104l-0.072,16.176l-1.884,0.954c-1.813,0.931-1.957,0.954-4.175,0.954
		c-2.076,0-2.505-0.096-4.438-0.883c-4.008-1.598-7.348-1.693-10.712-0.286c-0.811,0.334-1.646,0.668-1.861,0.739
		c-0.406,0.12-0.429-0.739-0.429-15.889v-16.008l1.097-0.717c1.217-0.763,3.531-1.598,4.867-1.74
		C-505.353,793.161-503.444,793.471-501.392,794.186z"/>
</g>
<g>
	<g>
		<circle fill="none" cx="-380" cy="800" r="36"/>
	</g>
	<g>
		<path d="M-361.464,830.011c-0.333,0.576-1.148,1.047-1.813,1.047h-33.445c-0.665,0-1.481-0.471-1.813-1.047l-16.722-28.964
			c-0.333-0.576-0.333-1.518,0-2.094l16.722-28.964c0.333-0.576,1.148-1.047,1.813-1.047h33.445c0.665,0,1.481,0.471,1.813,1.047
			l16.722,28.964c0.333,0.576,0.333,1.518,0,2.094L-361.464,830.011z M-396.907,827.19c0.333,0.576,1.148,1.048,1.813,1.048h30.188
			c0.665,0,1.481-0.472,1.813-1.048l15.094-26.143c0.333-0.576,0.333-1.518,0-2.094l-15.094-26.143
			c-0.333-0.576-1.148-1.047-1.813-1.047h-30.188c-0.665,0-1.481,0.471-1.813,1.047l-15.094,26.143
			c-0.333,0.576-0.333,1.518,0,2.094L-396.907,827.19z"/>
	</g>
	<g transform="translate(0.000000,891.000000) scale(0.100000,-0.100000)">
		<path d="M-3914.431,1079.566c-13.062-2.324-33.999-9.482-47.417-16.104c-16.997-8.594-31.67-19.15-31.67-22.9
			c0-3.76-3.403-6.797-14.673-12.529c-4.473-2.51-10.024-5.732-11.987-7.158c-3.579-2.861-3.755-3.75-3.755-138.848
			c0-74.795,0-136.885,0-138.135c0-1.26,1.606-3.037,3.398-4.111c2.861-1.436,6.079-0.361,16.641,5.361
			c28.271,15.215,55.82,22.549,90.894,24.336c33.457,1.787,54.214-1.25,101.992-14.492l11.631-3.223l18.789,5.557
			c33.813,10.02,46.343,11.982,80.513,11.982c43.481-0.186,70.322-6.26,103.242-24.16c10.2-5.547,14.141-6.797,16.641-5.361
			c1.611,0.898,3.398,2.676,3.76,3.936c0.361,1.25,0.537,63.701,0.176,138.662l-0.356,136.348l-9.839,5.908l-9.844,5.908v16.641
			c0,9.121-0.889,18.242-1.787,20.215c-2.681,5.01-9.839,4.297-17.534-1.973c-3.579-2.861-11.45-7.51-17.354-10.195
			c-9.487-4.473-12.886-5.01-27.734-5.01c-15.391,0-18.608,0.713-33.105,6.621c-33.813,13.604-57.075,13.066-89.106-1.611
			l-13.779-6.445l-8.052,5.732c-10.376,7.51-34.531,18.789-48.311,22.549C-3865.759,1080.465-3901.013,1082.066-3914.431,1079.566z
			 M-3851.452,1059.352c16.289-5.547,27.739-11.094,38.296-18.789l7.515-5.547V913.16c0-66.914-0.537-121.494-1.25-121.133
			c-40.796,20.752-50.996,23.799-82.852,23.613c-28.804,0-44.014-3.574-70.674-16.641l-16.997-8.408v122.031
			c0,113.799,0.181,122.031,3.223,124.541c5.01,4.648,25.762,15.381,37.212,19.502
			C-3908.171,1066.686-3876.677,1067.76-3851.452,1059.352z M-3705.441,1043.6c24.155-8.408,32.388-10.371,44.736-10.371
			c16.284,0.176,26.655,2.861,45.269,12.158c0.713,0.361,1.074-54.033,0.898-120.771l-0.547-121.318l-14.131-7.158
			c-13.599-6.982-14.673-7.158-31.313-7.158c-15.566,0-18.784,0.723-33.281,6.621c-30.063,11.992-55.112,12.705-80.337,2.148
			c-6.084-2.5-12.354-5.01-13.96-5.547c-3.042-0.898-3.218,5.547-3.218,119.17v120.059l8.228,5.371
			c9.126,5.723,26.479,11.982,36.504,13.057C-3735.144,1051.295-3720.827,1048.971-3705.441,1043.6z M-3995.305,892.76
			c0-67.451,0-123.105,0.176-123.818c0-0.713-3.223-2.686-7.153-4.473l-7.344-3.037v123.457v123.281l5.908,3.584
			c3.047,1.973,6.265,3.574,7.158,3.574C-3995.847,1015.328-3995.305,960.221-3995.305,892.76z M-3590.925,884.713V761.607
			l-18.789,7.51c-16.997,6.621-22.544,10.02-16.46,10.02c2.681,0,26.479,15.215,28.452,18.262
			c0.713,1.25,1.426,50.098,1.426,108.604c0,94.121,0.361,105.928,2.686,103.965
			C-3591.286,1007.994-3590.925,991.891-3590.925,884.713z M-3851.091,794.352c15.571-5.195,30.957-12.881,39.189-19.678
			l5.361-4.297l-11.27,3.574c-29.702,9.131-46.162,11.27-82.661,11.27c-25.771,0-38.115-0.713-47.417-2.861
			c-6.807-1.602-12.705-2.676-13.066-2.324c-2.329,2.324,31.494,15.215,48.848,18.613
			C-3896.359,801.861-3867.194,799.723-3851.091,794.352z M-3723.513,788.092c8.408,0,2.148-1.973-14.854-4.473
			c-9.302-1.436-23.438-4.121-30.947-6.084c-7.7-1.973-14.141-3.223-14.502-2.861c-1.074,1.064,11.992,7.148,22.012,10.371
			c10.918,3.398,19.326,4.658,27.734,3.76C-3730.671,788.443-3725.837,788.092-3723.513,788.092z"/>
	</g>
	<path fill="#685187" d="M-385.145,785.065c1.629,0.555,2.774,1.109,3.83,1.879l0.751,0.555v12.186
		c0,6.691-0.054,12.149-0.125,12.113c-4.08-2.075-5.1-2.38-8.285-2.361c-2.88,0-4.401,0.357-7.067,1.664l-1.7,0.841v-12.203
		c0-11.38,0.018-12.203,0.322-12.454c0.501-0.465,2.576-1.538,3.721-1.95C-390.817,784.331-387.668,784.224-385.145,785.065z"/>
	<path fill="#FFF9C3" d="M-370.544,786.64c2.416,0.841,3.239,1.037,4.474,1.037c1.628-0.018,2.666-0.286,4.527-1.216
		c0.071-0.036,0.107,5.403,0.09,12.077l-0.055,12.132l-1.413,0.716c-1.36,0.698-1.467,0.716-3.131,0.716
		c-1.557,0-1.878-0.072-3.328-0.662c-3.006-1.199-5.511-1.271-8.034-0.215c-0.608,0.25-1.235,0.501-1.396,0.555
		c-0.304,0.09-0.322-0.555-0.322-11.917v-12.006l0.823-0.537c0.913-0.572,2.648-1.198,3.65-1.306
		C-373.514,785.871-372.083,786.103-370.544,786.64z"/>
</g>
<g>
	<g>
		<circle fill="none" cx="-288" cy="634" r="72"/>
	</g>
	<g>
		<path d="M-250.927,694.022c-0.665,1.152-2.297,2.094-3.627,2.094h-66.891c-1.33,0-2.962-0.941-3.627-2.094l-33.444-57.928
			c-0.665-1.152-0.665-3.035,0-4.188l33.444-57.928c0.665-1.152,2.297-2.094,3.627-2.094h66.891c1.33,0,2.962,0.941,3.627,2.094
			l33.444,57.928c0.665,1.152,0.665,3.035,0,4.188L-250.927,694.022z M-321.814,688.379c0.665,1.152,2.297,2.096,3.627,2.096h60.375
			c1.33,0,2.962-0.943,3.627-2.096l30.188-52.285c0.665-1.152,0.665-3.035,0-4.188l-30.188-52.285
			c-0.665-1.152-2.297-2.095-3.627-2.095h-60.375c-1.33,0-2.962,0.942-3.627,2.095l-30.188,52.285c-0.665,1.152-0.665,3.035,0,4.188
			L-321.814,688.379z"/>
	</g>
	<g transform="translate(0.000000,891.000000) scale(0.100000,-0.100000)">
		<path d="M-3108.864,2909.136c-26.123-4.648-67.998-18.965-94.834-32.207c-33.999-17.178-63.34-38.301-63.34-45.811
			s-6.807-13.594-29.346-25.049c-8.945-5.01-20.049-11.455-23.975-14.316c-7.163-5.723-7.515-7.51-7.515-277.695
			c0-149.59,0-273.76,0-276.27s3.218-6.084,6.797-8.232c5.728-2.861,12.163-0.713,33.281,10.742
			c56.543,30.42,111.65,45.088,181.792,48.662c66.914,3.574,108.428-2.5,203.984-28.984l23.262-6.445l37.578,11.104
			c67.632,20.039,92.681,23.975,161.03,23.975c86.958-0.361,140.639-12.529,206.484-48.311
			c20.396-11.104,28.271-13.604,33.281-10.742c3.223,1.797,6.797,5.371,7.515,7.881c0.718,2.5,1.074,127.393,0.352,277.334
			l-0.713,272.695l-19.678,11.807l-19.688,11.816v33.271c0,18.252-1.777,36.504-3.574,40.439
			c-5.361,10.02-19.678,8.594-35.068-3.936c-7.158-5.732-22.9-15.029-34.707-20.4c-18.979-8.945-25.771-10.02-55.469-10.02
			c-30.781,0-37.221,1.426-66.211,13.242c-67.632,27.197-114.155,26.133-178.213-3.223l-27.554-12.881l-16.108,11.455
			c-20.752,15.029-69.063,37.578-96.621,45.088C-3011.525,2910.923-3082.028,2914.146-3108.864,2909.136z M-2982.902,2868.697
			c32.573-11.094,55.474-22.178,76.587-37.578l15.029-11.084v-243.711c0-133.838-1.074-242.988-2.5-242.266
			c-81.592,41.504-101.992,47.598-165.698,47.227c-57.612,0-88.032-7.148-141.353-33.271l-33.994-16.826v244.063
			c0,227.598,0.356,244.063,6.445,249.072c10.02,9.307,51.523,30.771,74.424,39.014
			C-3096.339,2883.375-3033.351,2885.513-2982.902,2868.697z M-2690.885,2837.203c48.311-16.816,64.775-20.742,89.472-20.742
			c32.563,0.352,53.311,5.713,90.537,24.326c1.426,0.713,2.144-108.076,1.792-241.553l-1.084-242.637l-28.267-14.316
			c-27.197-13.955-29.346-14.307-62.627-14.307c-31.133,0-37.573,1.426-66.562,13.232c-60.127,23.984-110.225,25.41-160.679,4.297
			c-12.163-5-24.697-10.02-27.915-11.094c-6.084-1.797-6.436,11.094-6.436,238.34v240.127l16.455,10.732
			c18.252,11.445,52.964,23.975,73.008,26.123C-2750.29,2852.593-2721.662,2847.945-2690.885,2837.203z M-3270.612,2535.523
			c0-134.902,0-246.211,0.352-247.637c0-1.426-6.445-5.371-14.312-8.945l-14.678-6.084v246.924v246.572l11.812,7.158
			c6.089,3.936,12.529,7.148,14.321,7.148C-3271.696,2780.66-3270.612,2670.445-3270.612,2535.523z M-2461.852,2519.429v-246.211
			l-37.578,15.029c-33.994,13.242-45.088,20.039-32.92,20.039c5.366,0,52.959,30.42,56.899,36.504
			c1.436,2.51,2.856,100.195,2.856,217.217c0,188.242,0.718,211.855,5.376,207.93
			C-2462.575,2765.992-2461.852,2733.785-2461.852,2519.429z M-2982.184,2338.707c31.143-10.381,61.914-25.762,78.379-39.365
			l10.728-8.584l-22.544,7.148c-59.404,18.252-92.329,22.549-165.322,22.549c-51.543,0-76.23-1.436-94.834-5.723
			c-13.608-3.223-25.415-5.371-26.133-4.658c-4.658,4.658,62.988,30.43,97.695,37.227
			C-3072.721,2353.736-3014.396,2349.439-2982.184,2338.707z M-2727.028,2326.177c16.821,0,4.297-3.936-29.702-8.936
			c-18.608-2.871-46.875-8.242-61.904-12.178c-15.396-3.936-28.276-6.436-28.999-5.723c-2.144,2.148,23.989,14.316,44.028,20.752
			c21.826,6.807,38.643,9.307,55.464,7.52C-2741.344,2326.9-2731.681,2326.177-2727.028,2326.177z"/>
	</g>
	<path fill="#685187" d="M-298.29,604.13c3.257,1.109,5.547,2.218,7.659,3.758l1.503,1.108v24.371
		c0,13.384-0.107,24.299-0.25,24.227c-8.159-4.15-10.199-4.76-16.57-4.723c-5.761,0-8.803,0.715-14.135,3.327l-3.399,1.683v-24.406
		c0-22.76,0.036-24.406,0.645-24.907c1.002-0.931,5.152-3.077,7.442-3.901C-309.634,602.663-303.335,602.449-298.29,604.13z"/>
	<path fill="#FFF9C3" d="M-269.089,607.28c4.831,1.682,6.478,2.074,8.947,2.074c3.256-0.035,5.331-0.571,9.054-2.433
		c0.143-0.071,0.214,10.808,0.179,24.155l-0.108,24.264l-2.827,1.432c-2.72,1.396-2.935,1.431-6.263,1.431
		c-3.113,0-3.757-0.143-6.656-1.323c-6.013-2.398-11.022-2.541-16.068-0.43c-1.216,0.5-2.47,1.002-2.792,1.109
		c-0.608,0.18-0.644-1.109-0.644-23.834v-24.013l1.646-1.073c1.825-1.145,5.296-2.397,7.301-2.612
		C-275.029,605.741-272.166,606.206-269.089,607.28z"/>
</g>
<g>
	<g>
		<circle fill="none" cx="-102" cy="626" r="64"/>
	</g>
	<g>
		<path d="M-69.047,679.353c-0.591,1.023-2.042,1.861-3.224,1.861h-59.459c-1.182,0-2.633-0.838-3.224-1.861l-29.729-51.491
			c-0.591-1.024-0.591-2.698,0-3.723l29.729-51.491c0.591-1.023,2.042-1.861,3.224-1.861h59.459c1.182,0,2.633,0.838,3.224,1.861
			l29.729,51.491c0.591,1.024,0.591,2.698,0,3.723L-69.047,679.353z M-132.057,674.337c0.592,1.023,2.042,1.862,3.225,1.862h53.666
			c1.183,0,2.633-0.839,3.225-1.862l26.833-46.476c0.591-1.024,0.591-2.698,0-3.723l-26.833-46.476
			c-0.592-1.024-2.042-1.861-3.225-1.861h-53.666c-1.183,0-2.633,0.837-3.225,1.861l-26.833,46.476
			c-0.591,1.024-0.591,2.698,0,3.723L-132.057,674.337z"/>
	</g>
	<g transform="translate(0.000000,891.000000) scale(0.100000,-0.100000)">
		<path d="M-1223.434,2951.45c-23.223-4.131-60.439-16.855-84.297-28.633c-30.225-15.264-56.299-34.033-56.299-40.713
			c0-6.67-6.055-12.08-26.094-22.266c-7.949-4.453-17.813-10.186-21.309-12.725c-6.367-5.088-6.68-6.68-6.68-246.836
			c0-132.969,0-243.35,0-245.576c0-2.236,2.861-5.41,6.045-7.314c5.088-2.549,10.811-0.645,29.58,9.541
			c50.264,27.041,99.248,40.078,161.602,43.262c59.473,3.174,96.377-2.227,181.309-25.771l20.684-5.723l33.398,9.863
			c60.117,17.813,82.383,21.309,143.145,21.309c77.295-0.313,125.01-11.133,183.535-42.939c18.135-9.863,25.137-12.09,29.59-9.541
			c2.861,1.592,6.035,4.766,6.68,6.992c0.635,2.227,0.957,113.242,0.313,246.523l-0.635,242.402l-17.49,10.488l-17.5,10.508v29.57
			c0,16.23-1.582,32.451-3.184,35.957c-4.766,8.906-17.49,7.627-31.172-3.506c-6.357-5.088-20.352-13.359-30.85-18.135
			c-16.865-7.949-22.9-8.906-49.307-8.906c-27.363,0-33.086,1.27-58.848,11.777c-60.117,24.17-101.475,23.223-158.418-2.871
			l-24.492-11.445l-14.316,10.176c-18.447,13.359-61.387,33.398-85.879,40.078
			C-1136.91,2953.042-1199.576,2955.903-1223.434,2951.45z M-1111.471,2915.512c28.955-9.863,49.316-19.727,68.086-33.408
			l13.359-9.854V2655.62c0-118.965-0.957-215.986-2.227-215.352c-72.529,36.904-90.664,42.314-147.285,41.982
			c-51.211,0-78.252-6.357-125.645-29.57l-30.225-14.961v216.953c0,202.305,0.322,216.934,5.732,221.387
			c8.906,8.281,45.801,27.363,66.152,34.678C-1212.301,2928.549-1156.315,2930.454-1111.471,2915.512z M-851.901,2887.514
			c42.949-14.951,57.578-18.447,79.531-18.447c28.945,0.313,47.393,5.088,80.479,21.631c1.27,0.635,1.904-96.064,1.592-214.717
			l-0.957-215.674l-25.127-12.725c-24.18-12.402-26.084-12.715-55.674-12.715c-27.676,0-33.398,1.27-59.16,11.758
			c-53.447,21.318-97.979,22.588-142.832,3.828c-10.811-4.453-21.953-8.906-24.805-9.863c-5.41-1.602-5.723,9.863-5.723,211.855
			v213.438l14.629,9.551c16.221,10.176,47.07,21.309,64.893,23.213C-904.703,2901.196-879.254,2897.055-851.901,2887.514z
			 M-1367.213,2619.36c0-119.922,0-218.857,0.313-220.127c0-1.27-5.723-4.775-12.715-7.949l-13.047-5.41v219.482v219.18
			l10.498,6.357c5.41,3.506,11.133,6.357,12.725,6.357C-1368.17,2837.25-1367.213,2739.282-1367.213,2619.36z M-648.307,2605.043
			v-218.848l-33.408,13.359c-30.215,11.768-40.078,17.813-29.267,17.813c4.775,0,47.08,27.031,50.586,32.441
			c1.27,2.227,2.539,89.063,2.539,193.086c0,167.324,0.635,188.32,4.775,184.824
			C-648.952,2824.213-648.307,2795.581-648.307,2605.043z M-1110.826,2444.399c27.676-9.219,55.029-22.891,69.668-34.98l9.531-7.637
			l-20.039,6.357c-52.803,16.221-82.07,20.039-146.953,20.039c-45.811,0-67.754-1.27-84.297-5.088
			c-12.09-2.861-22.588-4.766-23.223-4.141c-4.141,4.141,55.986,27.051,86.836,33.086
			C-1191.305,2457.758-1139.459,2453.95-1110.826,2444.399z M-884.03,2433.266c14.961,0,3.828-3.496-26.396-7.949
			c-16.543-2.539-41.67-7.314-55.029-10.82c-13.682-3.496-25.137-5.723-25.771-5.078c-1.904,1.904,21.318,12.715,39.131,18.438
			c19.404,6.055,34.355,8.281,49.307,6.68C-896.744,2433.911-888.16,2433.266-884.03,2433.266z"/>
	</g>
	<path fill="#685187" d="M-111.147,599.449c2.896,0.986,4.932,1.973,6.809,3.341l1.336,0.985v21.663
		c0,11.896-0.096,21.599-0.223,21.535c-7.253-3.69-9.066-4.231-14.729-4.198c-5.121,0-7.825,0.636-12.564,2.957l-3.022,1.496
		v-21.695c0-20.23,0.032-21.693,0.573-22.139c0.891-0.828,4.58-2.736,6.615-3.468C-121.23,598.145-115.631,597.955-111.147,599.449z
		"/>
	<path fill="#FFF9C3" d="M-85.19,602.249c4.295,1.495,5.758,1.845,7.953,1.845c2.895-0.031,4.739-0.509,8.048-2.163
		c0.127-0.063,0.19,9.606,0.159,21.472l-0.096,21.567l-2.513,1.272c-2.418,1.24-2.608,1.271-5.567,1.271
		c-2.768,0-3.34-0.127-5.916-1.176c-5.345-2.132-9.798-2.259-14.283-0.383c-1.081,0.445-2.195,0.891-2.48,0.986
		c-0.541,0.16-0.572-0.986-0.572-21.186v-21.344l1.463-0.955c1.622-1.018,4.707-2.131,6.489-2.321
		C-90.47,600.88-87.925,601.294-85.19,602.249z"/>
</g>
</svg>
