<?xml version="1.0" encoding="utf-8"?>
<!-- Generator: Adobe Illustrator 16.0.0, SVG Export Plug-In . SVG Version: 6.00 Build 0)  -->
<!DOCTYPE svg PUBLIC "-//W3C//DTD SVG 1.1//EN" "http://www.w3.org/Graphics/SVG/1.1/DTD/svg11.dtd">
<svg version="1.1" id="Ebene_1" xmlns="http://www.w3.org/2000/svg" xmlns:xlink="http://www.w3.org/1999/xlink" x="0px" y="0px"
	 width="40px" height="40px" viewBox="0 0 40 40" enable-background="new 0 0 40 40" xml:space="preserve">
<g>
	<circle fill="none" cx="20" cy="20" r="20"/>
	<path fill="#8D6E63" d="M29.935,11.56c2.083-3.11,0.477-8.417-1.292-7.964C26.874,4.049,24.419,6,24.419,6h-0.002
		c0.418-2,1.193-2.67,2.135-3.234c1.101-0.657,0-0.766,0-0.766H20v36.746v-0.137c0.906,0,2.796-2.51,3.517-3.544
		c0.181-0.258,0.288-0.386,0.288-0.386l-1.849-2.934l-0.576-4.188l3.868-3l0.74-6.334l3.771-2.282
		c-0.298-0.671-0.655-1.259-1.052-1.73c-0.024-0.087-0.11-0.486,0.139-0.929C29.026,12.96,29.119,12.78,29.935,11.56z
		 M26.771,12.755l0.003,0.001c-0.074-0.037-0.148-0.074-0.223-0.109c-1.5-0.71-3.031-0.975-3.031-0.975s0.177-1.179,0.398-2.646
		c0.092-0.644,2.767-3.289,4.083-3.626c1.317-0.337,2.348,3.515,0.962,5.932C28.04,12.942,26.771,12.755,26.771,12.755z"/>
	<path fill="#FFE0B2" d="M20,2h-6.552c0,0-1.101,0.105,0,0.763c0.942,0.563,1.717,1.563,2.135,3.264l-0.002-0.019
		c0,0-2.455-1.955-4.225-2.408c-1.769-0.452-3.374,4.854-1.292,7.964c0.815,1.219,0.909,1.398,1.09,1.721
		c0.252,0.448,0.161,0.849,0.139,0.93c-1.523,1.813-2.468,5.343-1.681,8.648c0.822,3.456,6.583,11.85,6.583,11.85
		s2.672,4.032,3.805,4.032V2z M13.448,12.647c-0.074,0.036-0.148,0.073-0.222,0.109l0.002-0.001c0,0-1.269,0.188-2.193-1.424
		c-1.387-2.417-0.355-6.269,0.962-5.932c1.317,0.337,3.992,2.983,4.083,3.626c0.221,1.467,0.398,2.646,0.398,2.646
		S14.948,11.937,13.448,12.647z"/>
	<path d="M20,39.019c-0.36,0-1.016-0.219-2.541-2.118c-0.808-1.007-1.486-2.027-1.492-2.037c-0.234-0.341-5.796-8.472-6.621-11.938
		c-0.38-1.595-0.389-3.326-0.027-5.005c0.327-1.519,0.938-2.876,1.722-3.831c0.02-0.111,0.041-0.379-0.125-0.673l-0.032-0.057
		c-0.16-0.285-0.286-0.511-1.047-1.648c-1.422-2.125-1.25-5.309-0.262-7.16c0.434-0.813,0.991-1.26,1.568-1.26
		c0.094,0,0.188,0.012,0.281,0.035c1.25,0.32,2.793,1.333,3.659,1.953c-0.392-1.086-0.987-1.872-1.775-2.343
		c-0.298-0.178-0.687-0.458-0.614-0.827c0.074-0.376,0.565-0.479,0.713-0.501l0.041-0.003h13.124l0.021,0.003
		c0.149,0.022,0.639,0.125,0.713,0.501c0.073,0.369-0.315,0.649-0.614,0.827c-0.789,0.472-1.383,1.258-1.775,2.343
		c0.865-0.62,2.409-1.633,3.659-1.953c0.093-0.023,0.187-0.035,0.281-0.035c0.577,0,1.134,0.447,1.567,1.26
		c0.989,1.852,1.161,5.036-0.261,7.16c-0.757,1.131-0.884,1.357-1.044,1.643l-0.035,0.063c-0.164,0.292-0.145,0.554-0.125,0.67
		c0.397,0.482,0.75,1.069,1.05,1.744l0.098,0.22l-3.862,2.339l-0.738,6.317l-3.834,2.978l0.547,3.981l1.912,3.05l-0.097,0.147
		c-0.004,0.006-0.111,0.168-0.292,0.426C22.555,36.991,20.943,39.019,20,39.019z M11.144,3.839c-0.36,0-0.756,0.354-1.085,0.971
		c-0.893,1.672-1.057,4.67,0.234,6.598c0.773,1.156,0.904,1.39,1.069,1.685l0.032,0.057c0.298,0.53,0.201,1.006,0.164,1.139
		l-0.016,0.057l-0.038,0.046c-1.404,1.67-2.413,5.096-1.625,8.409c0.802,3.367,6.485,11.674,6.543,11.758
		c1.078,1.627,2.899,3.914,3.579,3.914c0.52,0,1.812-1.372,3.292-3.495c0.076-0.109,0.139-0.2,0.187-0.269l-1.786-2.85l-0.605-4.411
		l3.902-3.031l0.743-6.355l3.676-2.226c-0.267-0.56-0.572-1.046-0.91-1.448l-0.039-0.046l-0.016-0.059
		c-0.036-0.133-0.131-0.609,0.165-1.134l0.035-0.062c0.166-0.296,0.297-0.531,1.066-1.68c1.291-1.928,1.126-4.926,0.233-6.598
		c-0.329-0.617-0.725-0.971-1.085-0.971c-0.049,0-0.096,0.006-0.145,0.018c-1.693,0.434-4.098,2.331-4.122,2.35l-0.045,0.036
		l-0.5,0.13l0.108-0.445c0.404-1.641,1.164-2.805,2.259-3.46c0.197-0.118,0.288-0.201,0.328-0.248
		c-0.054-0.027-0.141-0.055-0.21-0.067H13.472c-0.075,0.014-0.159,0.041-0.211,0.067c0.041,0.046,0.131,0.13,0.328,0.248
		c1.096,0.656,1.856,1.82,2.26,3.463l0.281,1.143L15.39,6.19c-0.243-0.189-2.494-1.922-4.101-2.333
		C11.241,3.845,11.191,3.839,11.144,3.839z M26.896,13.035c-0.094,0-0.154-0.008-0.165-0.01l0.035-0.237l-0.115,0.212
		c-0.073-0.037-0.146-0.073-0.219-0.108c-1.443-0.683-2.944-0.949-2.958-0.951l-0.264-0.046l0.04-0.264c0,0,0.177-1.179,0.399-2.646
		c0.118-0.829,2.952-3.509,4.286-3.851c0.076-0.019,0.153-0.029,0.229-0.029c0.293,0,0.726,0.142,1.118,0.818
		c0.749,1.293,0.931,3.78-0.08,5.544C28.39,12.882,27.319,13.035,26.896,13.035z M26.847,12.487c0.013,0,0.03,0.001,0.049,0.001
		c0.328,0,1.162-0.126,1.832-1.293c0.966-1.685,0.667-3.984,0.081-4.997c-0.204-0.352-0.432-0.546-0.644-0.546
		c-0.031,0-0.063,0.004-0.094,0.012c-0.53,0.135-1.443,0.762-2.383,1.634c-0.937,0.869-1.472,1.584-1.498,1.766
		c-0.16,1.058-0.296,1.964-0.36,2.39c0.509,0.108,1.676,0.395,2.84,0.945C26.729,12.429,26.788,12.458,26.847,12.487z
		 M13.104,13.035c-0.423,0-1.494-0.153-2.306-1.567c-1.011-1.764-0.829-4.25-0.08-5.543c0.392-0.677,0.824-0.819,1.118-0.819
		c0.077,0,0.153,0.01,0.229,0.029c1.333,0.342,4.167,3.021,4.287,3.853l0.438,2.909l-0.263,0.045
		c-0.015,0.003-1.515,0.269-2.961,0.953c-0.07,0.035-0.144,0.07-0.216,0.107l-0.115-0.216l0.035,0.241
		C13.258,13.027,13.198,13.035,13.104,13.035z M11.836,5.652c-0.212,0-0.44,0.194-0.645,0.546c-0.587,1.013-0.885,3.313,0.081,4.997
		c0.67,1.167,1.504,1.293,1.832,1.293c0.02,0,0.036-0.001,0.049-0.001c0.059-0.029,0.117-0.058,0.175-0.086
		c1.166-0.552,2.333-0.838,2.842-0.947l-0.359-2.388c-0.027-0.184-0.562-0.899-1.498-1.768C13.373,6.426,12.46,5.8,11.93,5.665
		C11.898,5.656,11.867,5.652,11.836,5.652z"/>
</g>
</svg>
