<?xml version="1.0" encoding="utf-8"?>
<!-- Generator: Adobe Illustrator 16.0.0, SVG Export Plug-In . SVG Version: 6.00 Build 0)  -->
<!DOCTYPE svg PUBLIC "-//W3C//DTD SVG 1.1//EN" "http://www.w3.org/Graphics/SVG/1.1/DTD/svg11.dtd">
<svg version="1.1" id="Ebene_1" xmlns="http://www.w3.org/2000/svg" xmlns:xlink="http://www.w3.org/1999/xlink" x="0px" y="0px"
	 width="24px" height="24px" viewBox="0 0 24 24" enable-background="new 0 0 24 24" xml:space="preserve">
<path d="M17.333,3.89H7.076c-1.962,0-3.558,1.596-3.558,3.559v6.748v3.61v3.302l1.993-2.633l0.546-0.721h1.02h1.267h8.99
	c1.963,0,3.559-1.596,3.559-3.559V7.449C20.892,5.487,19.296,3.89,17.333,3.89z M19.973,14.266c0,1.387-1.125,2.51-2.511,2.51H8.247
	H6.948H5.406l-0.779,1.031v-0.091l-0.189,0.25v-3.7V7.35c0-1.386,1.125-2.51,2.511-2.51h10.514c1.386,0,2.509,1.124,2.511,2.51
	V14.266z M10.166,11.514c0,0.422-0.341,0.764-0.763,0.764c-0.422,0-0.763-0.341-0.763-0.764c0-0.421,0.341-0.762,0.763-0.762
	C9.824,10.751,10.166,11.092,10.166,11.514 M12.815,11.514c0,0.422-0.341,0.764-0.763,0.764c-0.422,0-0.763-0.341-0.763-0.764
	c0-0.421,0.341-0.762,0.763-0.762C12.474,10.751,12.815,11.092,12.815,11.514 M15.465,11.514c0,0.422-0.342,0.764-0.764,0.764
	s-0.763-0.341-0.763-0.764c0-0.421,0.341-0.762,0.763-0.762S15.465,11.092,15.465,11.514"/>
</svg>
