<?xml version="1.0" encoding="utf-8"?>
<!-- Generator: Adobe Illustrator 16.0.0, SVG Export Plug-In . SVG Version: 6.00 Build 0)  -->
<!DOCTYPE svg PUBLIC "-//W3C//DTD SVG 1.1//EN" "http://www.w3.org/Graphics/SVG/1.1/DTD/svg11.dtd">
<svg version="1.1" id="Ebene_1" xmlns="http://www.w3.org/2000/svg" xmlns:xlink="http://www.w3.org/1999/xlink" x="0px" y="0px"
	 width="24px" height="24px" viewBox="0 0 24 24" enable-background="new 0 0 24 24" xml:space="preserve">
<path d="M20.918,7.563h-0.914V6.692c0-0.167-0.131-0.301-0.29-0.301h-2.033V5.863c0-0.037-0.032-0.066-0.071-0.066h-2.597
	c-0.04,0-0.073,0.029-0.073,0.066v0.528h-0.299h-1.168c-0.657,0-1.216,0.436-1.424,1.044c-0.217-0.584-0.758-0.998-1.392-0.998
	H4.485c-0.159,0-0.287,0.135-0.287,0.301v0.87H3.266c-0.184,0-0.333,0.132-0.333,0.296v2.18C2.873,10.013,2.808,9.945,2.73,9.885
	C2.574,9.764,2.386,9.689,2.221,9.624c-0.058-0.022-0.17-0.071-0.278-0.118C1.877,9.478,1.81,9.448,1.754,9.425
	c-0.03-0.02-0.067-0.03-0.104-0.027C1.63,9.399,1.613,9.404,1.596,9.411l0,0c-0.001,0-0.001,0-0.001,0c0,0,0,0,0,0c0,0,0,0,0,0
	c0,0,0,0-0.001,0l0,0c0,0,0,0.001-0.001,0.001C1.575,9.42,1.56,9.43,1.547,9.443C1.521,9.469,1.505,9.501,1.502,9.536
	C1.485,9.592,1.466,9.659,1.448,9.725c-0.031,0.108-0.063,0.221-0.081,0.277c-0.052,0.162-0.111,0.345-0.112,0.536
	c0,0.185,0.052,0.356,0.104,0.521c0.039,0.125,0.076,0.245,0.088,0.364c0.007,0.077-0.004,0.17-0.058,0.205
	c-0.002,0.001-0.004,0.002-0.006,0.002c-0.017,0.008-0.041,0-0.06-0.005c-0.117-0.029-0.179-0.081-0.248-0.15
	c-0.063-0.062-0.065-0.113-0.123-0.152c-0.016-0.011-0.119,0.124-0.131,0.168c-0.057,0.216-0.005,0.404,0.039,0.529
	c0.072,0.207,0.201,0.359,0.328,0.47c0.178,0.157,0.378,0.28,0.585,0.371c0.075,0.032,0.379,0.151,0.447,0.208
	c0.041,0.034,0.091,0.106,0.043,0.183c-0.11,0.177-0.353,0.115-0.49,0.054c-0.11-0.049-0.186-0.118-0.295-0.238
	c-0.214-0.235-0.378-0.491-0.674-0.652c-0.079-0.042-0.161-0.076-0.239-0.109L0.553,12.3c-0.166-0.068-0.301-0.065-0.36-0.064
	c-0.027-0.005-0.056-0.004-0.083,0.005c-0.006,0.002-0.012,0.004-0.017,0.006c-0.073,0.032-0.11,0.111-0.084,0.184
	c0.124,0.35,0.208,0.696,0.252,1.026c0.044,0.333,0.131,0.757,0.416,1.082c0.147,0.17,0.382,0.299,0.601,0.383
	c-0.062,0.036-0.149,0.09-0.216,0.119c-0.183,0.082-0.39,0.115-0.586,0.141c-0.017,0.003-0.032,0.006-0.047,0.013
	c-0.046,0.021-0.081,0.063-0.09,0.112c-0.011,0.066,0.025,0.13,0.088,0.16c0.252,0.115,0.446,0.316,0.65,0.529
	c0.04,0.041,0.082,0.085,0.125,0.127c0.16,0.163,0.303,0.28,0.447,0.37c0.195,0.122,0.387,0.191,0.586,0.208
	c0.203,0.018,0.417-0.021,0.62-0.109c0.027-0.012,0.052-0.025,0.078-0.039v2.406c0,0.145,0.128,0.263,0.29,0.269
	c1.072,0.039,4.829,0.169,6.304,0.169c1.541,0,2.211,0.387,2.478,0.626c0.019,0.017,0.043,0.025,0.068,0.025
	c0.015,0,0.027-0.004,0.041-0.01c0.011,0.006,0.023,0.009,0.035,0.009c0.022,0,0.043-0.009,0.06-0.024
	c0.245-0.252,0.888-0.67,2.45-0.67c1.475,0,5.23-0.131,6.304-0.169c0.162-0.008,0.289-0.125,0.289-0.269V7.858
	C21.25,7.695,21.103,7.563,20.918,7.563z M4.615,7.152c0-0.165,0.134-0.298,0.297-0.298h5.745c0.594,0,1.077,0.516,1.077,1.15v9.933
	c0,0.2-0.193,0.347-0.384,0.285c-0.372-0.118-0.852-0.198-1.471-0.198c-1.105,0-3.717-0.103-4.978-0.154
	c-0.16-0.006-0.285-0.138-0.285-0.298V7.152z M3.349,8.142c0-0.065,0.053-0.118,0.118-0.118h0.731v2.526
	c-0.001-0.002-0.003-0.005-0.004-0.007c-0.075-0.112-0.195-0.27-0.408-0.366c-0.044-0.02-0.22-0.031-0.221-0.012
	c-0.005,0.067,0.036,0.102,0.046,0.187c0.012,0.094,0.015,0.172-0.036,0.275c-0.008,0.016-0.017,0.04-0.034,0.047
	c-0.002,0.001-0.004,0.002-0.006,0.002c-0.057,0.016-0.13-0.025-0.187-0.073V8.142z M4.198,12.096v0.169
	c-0.01-0.022-0.015-0.046-0.015-0.065C4.183,12.177,4.188,12.14,4.198,12.096z M3.151,14.464c-0.279-0.026-0.557-0.074-0.826-0.152
	c-0.27-0.078-0.53-0.187-0.765-0.335c-0.117-0.073-0.228-0.157-0.328-0.25s-0.191-0.195-0.271-0.305
	c-0.013-0.017-0.008-0.04,0.01-0.052c0.018-0.012,0.042-0.008,0.054,0.009C1.107,13.48,1.2,13.573,1.3,13.658
	c0.101,0.084,0.209,0.159,0.324,0.225c0.23,0.13,0.483,0.223,0.744,0.284c0.261,0.063,0.53,0.097,0.799,0.111
	c0.249,0.013,0.499,0.008,0.748-0.008l-0.042-0.089L3.48,13.355L3.269,12.91c-0.011,0.003-0.021,0.005-0.033,0.005
	c-0.002,0-0.004,0-0.006,0l-0.064-0.004l-0.031-0.002l-0.033-0.003l-0.064-0.007l-0.063-0.009c-0.011-0.001-0.021-0.003-0.032-0.004
	l-0.031-0.006c-0.021-0.004-0.042-0.007-0.063-0.012c-0.042-0.009-0.083-0.018-0.124-0.029c-0.041-0.009-0.081-0.022-0.122-0.034
	c-0.02-0.006-0.04-0.013-0.06-0.02l-0.029-0.01l-0.03-0.011c-0.079-0.028-0.156-0.059-0.232-0.093
	c-0.019-0.008-0.038-0.016-0.056-0.026l-0.056-0.027C2.102,12.598,2.066,12.58,2.03,12.56c-0.073-0.039-0.143-0.081-0.212-0.124
	c-0.069-0.044-0.136-0.089-0.202-0.138c-0.033-0.024-0.066-0.048-0.097-0.074c-0.016-0.012-0.032-0.024-0.047-0.038
	c-0.008-0.007-0.016-0.013-0.023-0.02s-0.014-0.016-0.016-0.029c-0.002-0.018,0.011-0.034,0.03-0.037c0.001,0,0.002,0,0.002,0h0.003
	C1.481,12.1,1.491,12.104,1.5,12.109l0.024,0.017c0.015,0.012,0.032,0.023,0.049,0.034c0.032,0.022,0.065,0.043,0.1,0.064
	c0.067,0.042,0.136,0.081,0.206,0.119c0.141,0.075,0.286,0.141,0.435,0.196c0.074,0.028,0.149,0.053,0.225,0.074l0.029,0.008
	l0.028,0.008c0.02,0.005,0.039,0.01,0.058,0.015c0.039,0.009,0.077,0.019,0.115,0.025c0.135,0.027,0.271,0.042,0.407,0.046
	L3.087,12.53l-0.396-0.825l-0.199-0.412l-0.199-0.411c-0.134-0.274-0.266-0.549-0.401-0.823c-0.01-0.021,0-0.046,0.022-0.056
	c0.023-0.01,0.049,0,0.06,0.021c0.135,0.273,0.271,0.547,0.407,0.819l0.204,0.41l0.205,0.409l0.411,0.817l0.085,0.167
	c0.075-0.093,0.142-0.191,0.2-0.297c0.019-0.032,0.036-0.066,0.053-0.099c0.008-0.017,0.016-0.034,0.024-0.051l0.012-0.025
	l0.012-0.026c0.031-0.069,0.058-0.14,0.083-0.211c0.049-0.143,0.088-0.29,0.117-0.439c0.014-0.075,0.026-0.15,0.034-0.226
	c0.004-0.038,0.008-0.076,0.011-0.114c0.001-0.019,0.002-0.038,0.004-0.057l0-0.028c0.001-0.01,0.004-0.019,0.014-0.029l0.002-0.001
	c0.013-0.013,0.036-0.014,0.049-0.002c0.001,0.001,0.001,0.001,0.002,0.002c0.01,0.01,0.013,0.019,0.014,0.03
	c0,0.009,0.001,0.019,0.001,0.029c0.001,0.02,0.002,0.04,0.002,0.059c0,0.04,0,0.079-0.002,0.118
	c-0.002,0.078-0.008,0.156-0.016,0.234c-0.008,0.078-0.02,0.156-0.034,0.233c-0.007,0.039-0.015,0.078-0.023,0.116l-0.014,0.058
	c-0.004,0.02-0.01,0.039-0.015,0.058c-0.021,0.076-0.044,0.153-0.072,0.228l-0.01,0.027L3.724,12.26
	c-0.007,0.019-0.014,0.037-0.022,0.056c-0.016,0.037-0.031,0.074-0.049,0.11c-0.017,0.036-0.037,0.072-0.056,0.108
	c-0.01,0.018-0.02,0.035-0.03,0.052l-0.016,0.027c-0.005,0.009-0.011,0.018-0.016,0.026l-0.033,0.052l-0.035,0.051L3.45,12.768
	l-0.019,0.025l-0.038,0.049c-0.001,0.002-0.003,0.003-0.005,0.005l0.227,0.449l0.415,0.816l0.042,0.082
	c0.042-0.042,0.084-0.084,0.125-0.127v0.327c-0.001,0.002-0.002,0.003-0.004,0.005c-0.004,0.003-0.008,0.008-0.011,0.01l0.003,0.009
	c0.004,0.007,0.008,0.014,0.012,0.021v0.397c-0.045-0.08-0.088-0.159-0.128-0.241c-0.018-0.037-0.036-0.074-0.053-0.111
	c-0.006,0.003-0.013,0.004-0.02,0.004c-0.002,0-0.004,0-0.005,0C3.711,14.498,3.431,14.491,3.151,14.464z M11.747,19.208
	c0,0.075-0.076,0.127-0.146,0.098c-0.459-0.184-1.122-0.325-2.075-0.325c-1.417,0-4.951-0.121-6.177-0.165v-2.583
	c0.19-0.211,0.332-0.48,0.42-0.803c0.009-0.031,0.016-0.061,0.023-0.09c0.028-0.108,0.056-0.169,0.071-0.264
	c0.012-0.012,0.075-0.333,0.335-0.234v3.151c0,0.148,0.11,0.268,0.25,0.273c0.924,0.04,4.16,0.173,5.431,0.173
	c0.87,0,1.417,0.169,1.756,0.353c0.068,0.038,0.112,0.109,0.112,0.188V19.208z M12.378,7.957c0-0.634,0.491-1.149,1.094-1.149h1.467
	v3.287c0,0.038,0.049,0.059,0.081,0.035l1.257-0.945c0.051-0.039,0.124-0.037,0.173,0.003l1.108,0.902
	c0.048,0.039,0.122,0.008,0.122-0.05V6.808h1.594c0.173,0,0.312,0.14,0.312,0.313v10.691c-1.108,0.046-4.112,0.166-5.326,0.166
	c-0.574,0-1.027,0.07-1.386,0.179c-0.227,0.068-0.457-0.097-0.458-0.334L12.378,7.957z M20.834,18.563
	c0,0.116-0.093,0.212-0.207,0.216c-1.378,0.048-4.627,0.157-5.97,0.157c-0.928,0-1.575,0.141-2.026,0.328
	c-0.071,0.029-0.148-0.023-0.148-0.102l-0.002-0.256c0-0.081,0.046-0.155,0.119-0.192c0.339-0.172,0.861-0.32,1.661-0.32
	c1.284,0,4.557-0.133,5.491-0.172c0.142-0.005,0.253-0.127,0.253-0.273V7.979h0.83V18.563z"/>
</svg>
