<?xml version="1.0" encoding="utf-8"?>
<!-- Generator: Adobe Illustrator 16.0.0, SVG Export Plug-In . SVG Version: 6.00 Build 0)  -->
<!DOCTYPE svg PUBLIC "-//W3C//DTD SVG 1.1//EN" "http://www.w3.org/Graphics/SVG/1.1/DTD/svg11.dtd">
<svg version="1.1" id="Ebene_1" xmlns="http://www.w3.org/2000/svg" xmlns:xlink="http://www.w3.org/1999/xlink" x="0px" y="0px"
	 width="24px" height="24px" viewBox="0 0 24 24" enable-background="new 0 0 24 24" xml:space="preserve">
<path d="M0,19.908c0,0.189,0.167,0.346,0.38,0.354c1.404,0.051,6.327,0.221,8.259,0.221c2.019,0,2.897,0.508,3.246,0.82
	c0.026,0.023,0.056,0.033,0.09,0.033c0.019,0,0.036-0.006,0.054-0.014c0.014,0.008,0.031,0.012,0.046,0.012
	c0.028,0,0.056-0.012,0.078-0.031c0.321-0.33,1.164-0.877,3.21-0.877c1.932,0,6.852-0.172,8.259-0.223
	C23.834,20.193,24,20.039,24,19.852V5.365c-0.003-0.214-0.194-0.386-0.438-0.386h-1.197V3.837c0-0.219-0.172-0.394-0.381-0.394
	h-2.662V2.751c0-0.048-0.043-0.086-0.095-0.086h-3.4c-0.054,0-0.098,0.038-0.098,0.086v0.692h-0.392h-1.53
	c-0.859,0-1.593,0.571-1.865,1.368c-0.284-0.765-0.993-1.308-1.823-1.308H2.033c-0.208,0-0.376,0.177-0.376,0.395v1.14h-1.22
	C0.194,5.037,0,5.21,0,5.425V19.908z M2.203,4.44c0-0.216,0.175-0.391,0.389-0.391h7.527c0.778,0,1.411,0.676,1.411,1.507V18.57
	c0,0.262-0.253,0.455-0.502,0.373c-0.488-0.154-1.117-0.26-1.928-0.26c-1.447,0-4.87-0.135-6.521-0.201
	c-0.21-0.01-0.374-0.18-0.374-0.391V4.44H2.203z M1.657,18.645c0,0.191,0.145,0.352,0.328,0.355c1.21,0.055,5.451,0.229,7.115,0.229
	c1.14,0,1.856,0.221,2.302,0.461c0.088,0.051,0.146,0.143,0.146,0.248v0.297c0,0.1-0.1,0.168-0.19,0.131
	c-0.602-0.242-1.47-0.428-2.719-0.428c-1.856,0-6.487-0.158-8.093-0.215L0.544,5.737h0.001c0-0.085,0.069-0.155,0.154-0.155h0.958
	V18.645z M12.374,5.495c0-0.831,0.644-1.505,1.434-1.505h1.922v4.307c0,0.049,0.064,0.077,0.105,0.045l1.647-1.238
	c0.066-0.051,0.161-0.049,0.227,0.004l1.452,1.182c0.062,0.051,0.158,0.011,0.158-0.065V3.989h2.089c0.228,0,0.409,0.183,0.409,0.41
	v14.007c-1.451,0.059-5.387,0.219-6.979,0.219c-0.752,0-1.346,0.09-1.815,0.234c-0.298,0.088-0.599-0.127-0.6-0.439L12.374,5.495z
	 M23.452,19.389c0,0.154-0.121,0.279-0.271,0.285c-1.805,0.063-6.062,0.205-7.821,0.205c-1.216,0-2.063,0.186-2.654,0.43
	c-0.092,0.037-0.193-0.029-0.193-0.133l-0.003-0.336c0-0.105,0.061-0.203,0.155-0.252c0.445-0.225,1.129-0.418,2.178-0.418
	c1.681,0,5.97-0.174,7.193-0.227c0.187-0.006,0.331-0.166,0.331-0.357V5.523h1.088v13.865H23.452z"/>
</svg>
