<?xml version="1.0" encoding="utf-8"?>
<!-- Generator: Adobe Illustrator 16.0.0, SVG Export Plug-In . SVG Version: 6.00 Build 0)  -->
<!DOCTYPE svg PUBLIC "-//W3C//DTD SVG 1.1//EN" "http://www.w3.org/Graphics/SVG/1.1/DTD/svg11.dtd">
<svg version="1.1" id="Ebene_1" xmlns="http://www.w3.org/2000/svg" xmlns:xlink="http://www.w3.org/1999/xlink" x="0px" y="0px"
	 width="24px" height="24px" viewBox="0 0 24 24" enable-background="new 0 0 24 24" xml:space="preserve">
<path d="M23.625,6.87h-1.032V5.886c0-0.188-0.147-0.34-0.328-0.34h-2.296V4.949c0-0.042-0.036-0.075-0.08-0.075h-2.934
	c-0.045,0-0.082,0.033-0.082,0.075v0.597h-0.338h-1.319c-0.742,0-1.373,0.492-1.608,1.179c-0.245-0.66-0.856-1.127-1.572-1.127
	h-6.97c-0.179,0-0.325,0.153-0.325,0.34V6.92H3.688c-0.208,0-0.376,0.149-0.376,0.334v2.462c-0.067-0.08-0.14-0.157-0.229-0.225
	C2.907,9.355,2.695,9.271,2.509,9.197C2.443,9.172,2.317,9.117,2.194,9.064C2.12,9.032,2.044,8.999,1.981,8.972
	C1.947,8.95,1.905,8.938,1.863,8.942c-0.021,0.001-0.042,0.006-0.06,0.015l0,0c-0.001,0-0.001,0-0.001,0.001c0,0,0,0-0.001,0
	c0,0,0,0,0,0c0,0,0,0-0.001,0l0,0c0,0,0,0.001-0.001,0.001c-0.019,0.008-0.036,0.019-0.05,0.034C1.717,9.022,1.7,9.059,1.696,9.097
	c-0.019,0.063-0.04,0.14-0.061,0.214C1.6,9.433,1.564,9.56,1.544,9.624c-0.059,0.183-0.125,0.39-0.126,0.605
	c-0.001,0.209,0.059,0.402,0.118,0.588c0.044,0.142,0.086,0.276,0.099,0.412c0.008,0.087-0.004,0.192-0.065,0.231
	c-0.003,0.001-0.004,0.002-0.007,0.003c-0.019,0.009-0.046-0.001-0.067-0.006c-0.132-0.033-0.202-0.091-0.28-0.169
	c-0.071-0.069-0.073-0.128-0.139-0.172c-0.018-0.013-0.134,0.14-0.148,0.189c-0.065,0.244-0.006,0.457,0.044,0.598
	c0.081,0.233,0.227,0.405,0.37,0.53c0.201,0.177,0.427,0.316,0.661,0.419c0.084,0.037,0.429,0.171,0.504,0.234
	c0.046,0.039,0.103,0.12,0.049,0.206c-0.124,0.2-0.399,0.131-0.553,0.062c-0.125-0.056-0.21-0.134-0.333-0.27
	c-0.242-0.266-0.427-0.555-0.761-0.736c-0.089-0.048-0.181-0.086-0.27-0.123l-0.015-0.005c-0.187-0.077-0.339-0.074-0.406-0.072
	c-0.031-0.005-0.063-0.004-0.094,0.005c-0.007,0.002-0.014,0.004-0.02,0.007c-0.082,0.036-0.124,0.125-0.095,0.208
	c0.14,0.396,0.235,0.786,0.285,1.159c0.05,0.376,0.148,0.854,0.47,1.222c0.167,0.192,0.431,0.338,0.678,0.433
	c-0.07,0.041-0.168,0.102-0.244,0.135c-0.206,0.093-0.44,0.13-0.662,0.158C0.518,15.478,0.5,15.48,0.483,15.488
	c-0.052,0.023-0.091,0.07-0.101,0.127C0.37,15.69,0.41,15.762,0.481,15.796c0.285,0.13,0.503,0.357,0.734,0.598
	c0.045,0.047,0.093,0.097,0.141,0.144c0.181,0.185,0.342,0.316,0.505,0.418c0.22,0.138,0.437,0.217,0.662,0.235
	c0.229,0.02,0.471-0.023,0.7-0.124c0.03-0.013,0.059-0.028,0.088-0.044v2.718c0,0.163,0.145,0.297,0.327,0.304
	c1.211,0.044,5.454,0.19,7.12,0.19c1.74,0,2.497,0.437,2.799,0.707c0.021,0.019,0.049,0.028,0.076,0.028
	c0.017,0,0.031-0.004,0.046-0.011c0.013,0.007,0.026,0.01,0.04,0.01c0.024,0,0.049-0.01,0.067-0.027
	c0.276-0.284,1.003-0.757,2.767-0.757c1.666,0,5.908-0.147,7.12-0.19C23.856,19.985,24,19.853,24,19.69V7.203
	C24,7.019,23.833,6.87,23.625,6.87z M5.212,6.405c0-0.186,0.151-0.337,0.336-0.337h6.488c0.671,0,1.216,0.582,1.216,1.298v11.219
	c0,0.226-0.218,0.391-0.434,0.321c-0.42-0.133-0.962-0.224-1.662-0.224c-1.249,0-4.198-0.116-5.622-0.174
	c-0.181-0.007-0.322-0.156-0.322-0.337V6.405z M3.782,7.523c0-0.073,0.06-0.133,0.133-0.133h0.826v2.853
	c-0.001-0.002-0.003-0.005-0.004-0.007c-0.084-0.126-0.22-0.305-0.461-0.413C4.226,9.8,4.027,9.788,4.026,9.81
	c-0.006,0.076,0.041,0.114,0.052,0.21c0.013,0.106,0.017,0.194-0.041,0.311C4.029,10.349,4.019,10.375,4,10.384
	c-0.002,0.001-0.004,0.002-0.007,0.003c-0.064,0.018-0.147-0.028-0.211-0.082V7.523z M4.741,11.989v0.191
	c-0.011-0.025-0.016-0.052-0.017-0.074C4.724,12.081,4.73,12.039,4.741,11.989z M3.559,14.663c-0.315-0.029-0.629-0.084-0.933-0.172
	c-0.304-0.088-0.599-0.211-0.864-0.378c-0.132-0.083-0.257-0.178-0.371-0.282c-0.113-0.105-0.216-0.221-0.305-0.345
	c-0.015-0.019-0.009-0.045,0.011-0.059c0.02-0.013,0.047-0.009,0.062,0.011c0.092,0.114,0.196,0.219,0.309,0.315
	c0.114,0.095,0.237,0.18,0.366,0.253c0.26,0.147,0.546,0.252,0.84,0.321c0.295,0.07,0.599,0.109,0.903,0.126
	c0.281,0.014,0.563,0.009,0.844-0.009l-0.047-0.101l-0.443-0.934l-0.239-0.502c-0.012,0.003-0.024,0.005-0.038,0.005
	c-0.002,0-0.005,0-0.007,0l-0.073-0.004l-0.036-0.003l-0.037-0.004L3.43,12.895l-0.071-0.011c-0.012-0.001-0.024-0.003-0.036-0.005
	l-0.035-0.007c-0.024-0.004-0.047-0.008-0.07-0.014c-0.047-0.01-0.094-0.02-0.14-0.033c-0.046-0.01-0.092-0.025-0.137-0.039
	c-0.023-0.006-0.045-0.014-0.068-0.022l-0.033-0.011l-0.034-0.012c-0.089-0.032-0.176-0.067-0.262-0.105
	c-0.021-0.009-0.042-0.018-0.063-0.029l-0.063-0.03c-0.042-0.021-0.083-0.042-0.124-0.064c-0.082-0.044-0.162-0.091-0.24-0.14
	c-0.078-0.05-0.154-0.101-0.228-0.155c-0.038-0.027-0.074-0.054-0.11-0.083c-0.018-0.013-0.036-0.027-0.053-0.042
	c-0.009-0.008-0.018-0.014-0.026-0.022s-0.016-0.018-0.018-0.033c-0.002-0.021,0.013-0.039,0.035-0.042c0.001,0,0.002,0,0.002,0
	h0.003c0.015-0.001,0.026,0.003,0.036,0.009l0.027,0.02c0.017,0.013,0.036,0.026,0.055,0.039c0.036,0.025,0.074,0.048,0.112,0.072
	c0.076,0.047,0.154,0.091,0.233,0.134c0.159,0.084,0.322,0.159,0.491,0.221c0.083,0.032,0.168,0.06,0.254,0.084l0.033,0.009
	l0.031,0.009c0.022,0.006,0.044,0.012,0.066,0.017c0.043,0.011,0.086,0.021,0.13,0.028c0.153,0.031,0.307,0.047,0.46,0.052
	l-0.099-0.208L3.04,11.548l-0.224-0.466l-0.225-0.464c-0.151-0.309-0.301-0.62-0.453-0.929c-0.011-0.023,0-0.052,0.025-0.063
	c0.026-0.011,0.056,0,0.068,0.024c0.152,0.309,0.306,0.618,0.459,0.925l0.23,0.463l0.232,0.461l0.464,0.923l0.096,0.188
	c0.084-0.105,0.16-0.216,0.226-0.335c0.021-0.036,0.041-0.074,0.06-0.112c0.009-0.02,0.019-0.038,0.028-0.057l0.014-0.029
	l0.013-0.029c0.035-0.078,0.066-0.158,0.094-0.239c0.056-0.161,0.1-0.328,0.132-0.497c0.016-0.084,0.029-0.169,0.039-0.254
	c0.005-0.042,0.009-0.085,0.013-0.129c0.002-0.021,0.003-0.042,0.004-0.064l0-0.031c0.001-0.011,0.004-0.021,0.016-0.033L4.354,10.8
	c0.015-0.015,0.04-0.016,0.055-0.002C4.41,10.799,4.41,10.8,4.411,10.8c0.011,0.011,0.014,0.021,0.016,0.034
	c0,0.01,0.001,0.021,0.001,0.033c0.001,0.022,0.002,0.044,0.002,0.066c0,0.045,0,0.089-0.002,0.133
	c-0.003,0.088-0.009,0.177-0.019,0.264c-0.009,0.088-0.022,0.176-0.039,0.263c-0.007,0.043-0.016,0.088-0.026,0.131l-0.016,0.065
	c-0.005,0.022-0.011,0.043-0.017,0.065c-0.023,0.086-0.05,0.173-0.082,0.258l-0.011,0.031l-0.013,0.032
	c-0.008,0.021-0.016,0.042-0.025,0.063c-0.018,0.042-0.035,0.084-0.056,0.125c-0.019,0.041-0.042,0.082-0.063,0.122
	c-0.011,0.02-0.022,0.039-0.034,0.059l-0.018,0.03c-0.005,0.01-0.012,0.02-0.018,0.029l-0.037,0.059l-0.039,0.057l-0.021,0.028
	l-0.021,0.028l-0.042,0.056c-0.001,0.002-0.003,0.004-0.006,0.006l0.256,0.507l0.469,0.922L4.6,14.359
	c0.047-0.048,0.096-0.096,0.141-0.144v0.369c-0.001,0.002-0.002,0.004-0.004,0.006c-0.004,0.003-0.009,0.009-0.013,0.011l0.004,0.01
	c0.004,0.008,0.01,0.016,0.013,0.024v0.449c-0.05-0.091-0.099-0.18-0.145-0.272c-0.02-0.042-0.041-0.084-0.06-0.126
	c-0.007,0.003-0.014,0.005-0.022,0.005c-0.002,0-0.004,0-0.006,0C4.192,14.702,3.875,14.694,3.559,14.663z M13.267,20.021
	c0,0.085-0.086,0.144-0.164,0.11c-0.519-0.207-1.267-0.367-2.344-0.367c-1.6,0-5.592-0.137-6.977-0.187v-2.917
	c0.215-0.238,0.375-0.543,0.475-0.907c0.01-0.035,0.018-0.068,0.026-0.102c0.032-0.122,0.063-0.19,0.08-0.298
	c0.013-0.013,0.085-0.376,0.378-0.265v3.56c0,0.168,0.125,0.302,0.282,0.309c1.043,0.046,4.698,0.195,6.133,0.195
	c0.982,0,1.601,0.191,1.983,0.398c0.077,0.043,0.127,0.123,0.127,0.213V20.021z M13.98,7.314c0-0.716,0.555-1.298,1.235-1.298h1.657
	v3.712c0,0.043,0.055,0.066,0.091,0.04l1.42-1.067c0.058-0.043,0.14-0.042,0.195,0.003l1.252,1.019
	c0.054,0.044,0.138,0.009,0.138-0.057v-3.65h1.8c0.195,0,0.353,0.159,0.353,0.353v12.075c-1.252,0.052-4.645,0.188-6.016,0.188
	c-0.648,0-1.16,0.079-1.565,0.202c-0.256,0.077-0.516-0.109-0.517-0.378L13.98,7.314z M23.53,19.292c0,0.132-0.104,0.24-0.234,0.244
	c-1.556,0.054-5.226,0.178-6.742,0.178c-1.048,0-1.778,0.159-2.288,0.37c-0.08,0.033-0.168-0.026-0.168-0.114l-0.002-0.289
	c0-0.092,0.052-0.176,0.134-0.217c0.383-0.194,0.973-0.362,1.876-0.362c1.45,0,5.146-0.15,6.201-0.194
	c0.16-0.005,0.286-0.144,0.286-0.309V7.34h0.938V19.292z"/>
</svg>
