<?xml version="1.0" encoding="utf-8"?>
<!-- Generator: Adobe Illustrator 16.0.0, SVG Export Plug-In . SVG Version: 6.00 Build 0)  -->
<!DOCTYPE svg PUBLIC "-//W3C//DTD SVG 1.1//EN" "http://www.w3.org/Graphics/SVG/1.1/DTD/svg11.dtd">
<svg version="1.1" id="Ebene_1" xmlns="http://www.w3.org/2000/svg" xmlns:xlink="http://www.w3.org/1999/xlink" x="0px" y="0px"
	 width="40px" height="40px" viewBox="0 0 40 40" enable-background="new 0 0 40 40" xml:space="preserve">
<path d="M38.459,22.268c-0.039-0.313-0.083-0.628-0.127-0.944c-0.213-1.521-0.434-3.094-0.078-4.568
	c0.015-0.045,0.021-0.093,0.021-0.143c0-0.265-0.214-0.48-0.479-0.48c-0.001,0-0.002,0-0.003,0c-0.004,0-0.007,0-0.011,0
	c-0.121,0.003-0.231,0.05-0.314,0.127c-1.248,1.143-2.798,1.98-4.44,2.412c0.555-1.287,0.728-2.726,0.475-4.076
	c-0.413-2.198-1.882-3.994-3.114-5.313c-0.331-0.354-0.675-0.707-1.007-1.048c-1.027-1.052-2.089-2.141-2.856-3.381
	c-0.088-0.142-0.242-0.228-0.409-0.228c-0.004,0-0.008,0-0.012,0c-0.171,0.004-0.326,0.099-0.409,0.249
	c-1.443,2.619-1.542,5.6-1.638,8.482c-0.021,0.637-0.042,1.296-0.079,1.934c-0.025,0.437-0.088,0.91-0.366,1.106
	c-0.079,0.055-0.172,0.083-0.277,0.083c-0.304,0-0.646-0.226-0.777-0.514c-0.23-0.502-0.117-1.151,0.019-1.773
	c0.054-0.246,0.109-0.492,0.165-0.738c0.301-1.32,0.612-2.684,0.539-4.07c-0.081-1.53-0.781-3.461-2.505-4.294
	c-0.066-0.032-0.138-0.048-0.209-0.048c-0.084,0-0.168,0.022-0.242,0.065c-0.139,0.081-0.228,0.225-0.237,0.384
	c-0.073,1.116-0.361,1.762-0.856,1.92c-0.076,0.023-0.156,0.036-0.237,0.036c-0.348,0-0.771-0.224-1.162-0.616
	c-0.491-0.492-0.881-1.075-1.294-1.692c-0.512-0.767-1.042-1.561-1.793-2.183c-0.769-0.637-1.675-1.023-2.553-1.396
	c-0.272-0.116-0.742-0.423-1.195-0.72c-0.512-0.335-0.994-0.651-1.346-0.801C9.59,0.013,9.525,0,9.462,0
	C9.393,0,9.323,0.015,9.259,0.044C9.136,0.102,9.042,0.209,9.002,0.34C8.9,0.672,8.737,1.272,8.564,1.908
	c-0.162,0.601-0.331,1.222-0.428,1.54C7.857,4.359,7.568,5.301,7.561,6.299C7.554,7.274,7.819,8.19,8.076,9.076
	c0.207,0.713,0.402,1.386,0.463,2.079c0.028,0.329,0.041,1.129-0.458,1.444c-0.133,0.084-0.279,0.125-0.448,0.125
	c-0.407,0-0.936-0.237-1.571-0.706c-0.084-0.062-0.184-0.094-0.285-0.094c-0.054,0-0.109,0.009-0.161,0.028
	c-0.151,0.054-0.265,0.179-0.305,0.334c-0.473,1.854,0.554,3.634,1.673,4.681c1.014,0.948,2.258,1.589,3.461,2.208
	c0.225,0.116,0.449,0.231,0.672,0.349c0.563,0.297,1.133,0.628,1.368,1.128c0.105,0.222,0.102,0.532-0.009,0.77
	c-0.054,0.116-0.157,0.266-0.34,0.314c-0.046,0.012-0.092,0.019-0.141,0.019c-0.301,0-0.645-0.228-0.941-0.45
	c-0.512-0.383-1.03-0.79-1.531-1.184c-2.267-1.783-4.61-3.626-7.544-4.208c-0.031-0.006-0.063-0.009-0.094-0.009
	c-0.136,0-0.268,0.058-0.359,0.162c-0.113,0.128-0.15,0.306-0.097,0.468c0.455,1.386,0.604,2.899,0.748,4.363
	c0.047,0.474,0.095,0.963,0.152,1.445c0.216,1.793,0.646,4.073,2.061,5.804c0.87,1.063,2.082,1.856,3.424,2.261
	c-1.389,0.979-3.027,1.626-4.705,1.845c-0.21,0.027-0.378,0.189-0.412,0.398s0.071,0.416,0.262,0.51
	c1.368,0.675,2.438,1.864,3.471,3.013c0.213,0.237,0.425,0.473,0.641,0.706c1.229,1.329,2.925,2.882,5.14,3.097
	C12.374,39.992,12.544,40,12.712,40c1.607,0,3.324-0.76,4.591-2.033c1.164-1.169,2.015-2.758,2.529-4.719
	c0.043-0.164,0.083-0.329,0.123-0.494c0.153-0.626,0.298-1.218,0.583-1.746c0.059-0.11,0.296-0.234,0.525-0.354
	c0.341-0.178,0.77-0.424,1.114-0.837c0.158,0.283,0.321,0.563,0.491,0.852c0.876,1.468,1.916,2.836,3.19,4.034
	c0.639,0.596,1.339,1.123,2.101,1.585c0.382,0.23,0.78,0.433,1.198,0.611c0.209,0.09,0.423,0.168,0.644,0.241
	c0.11,0.036,0.505,0.143,0.505,0.143s0.063,0.016,0.06,0.015c-0.031-0.008,0.171,0.032,0.279,0.026c0.006,0,0.142-0.013,0.301-0.044
	c0.186-0.037,0.322-0.273-0.077-1.33c-0.041-0.019-0.091-0.036-0.13-0.046l-0.048-0.011l-0.084-0.015l-0.137-0.026
	c-0.09-0.018-0.181-0.039-0.271-0.062c-0.181-0.047-0.363-0.103-0.544-0.166c-0.361-0.127-0.719-0.284-1.067-0.464
	c-0.7-0.357-1.354-0.82-1.967-1.336c-1.229-1.036-2.268-2.315-3.147-3.696c-0.197-0.309-0.367-0.636-0.549-0.955
	c0.203,0.053,0.404,0.089,0.606,0.089c0.519,0,0.928-0.175,1.256-0.315c0.188-0.08,0.365-0.156,0.476-0.156
	c0.014,0,0.024,0.001,0.035,0.003c0.587,0.122,1.133,0.392,1.711,0.678c0.152,0.075,0.304,0.15,0.456,0.223
	c1.581,0.75,3.118,1.131,4.567,1.131c0.226,0,0.452-0.009,0.673-0.028c2.01-0.168,3.81-1.142,4.816-2.604
	C38.78,26.362,38.685,24.064,38.459,22.268z M37.123,27.922c-0.98,1.425-2.727,2.253-4.46,2.398
	c-0.212,0.018-0.422,0.026-0.633,0.026c-1.518,0-3.008-0.442-4.36-1.085c-0.742-0.352-1.464-0.769-2.275-0.938
	c-0.045-0.01-0.089-0.014-0.134-0.014c-0.473,0-0.979,0.471-1.731,0.471c-0.288,0-0.612-0.074-0.982-0.262
	c-0.037-0.069-0.081-0.135-0.118-0.205c1.755-2.405,3.134-5.086,4.006-7.926c0.892-2.886,1.246-5.934,1.007-8.932
	c-0.006-0.069-0.065-0.123-0.136-0.12c-0.072,0.004-0.127,0.065-0.124,0.136c0.15,2.971-0.287,5.956-1.241,8.755
	c-0.894,2.633-2.23,5.103-3.896,7.315c-0.29-0.604-0.575-1.22-0.863-1.826l-2.145-4.544l-1.269-2.702
	c0.006-0.005,0.012-0.01,0.017-0.017c0.548-0.674,0.804-1.453,1.012-2.216c0.195-0.77,0.326-1.546,0.404-2.325
	c0.082-0.778,0.132-1.558,0.151-2.336c0.009-0.39,0.013-0.779,0.011-1.168l-0.009-0.583l-0.009-0.292
	c-0.007-0.097,0.008-0.195-0.048-0.291c-0.009-0.014-0.021-0.027-0.037-0.035c-0.044-0.022-0.097-0.004-0.118,0.04
	c-0.051,0.097-0.034,0.193-0.038,0.29L19.1,9.827l-0.017,0.579c-0.015,0.386-0.037,0.771-0.063,1.157
	c-0.054,0.77-0.138,1.537-0.252,2.295c-0.109,0.76-0.273,1.511-0.491,2.234c-0.19,0.63-0.433,1.262-0.8,1.76l-2.711-5.774
	L10.537,2.96c-0.048-0.102-0.169-0.148-0.271-0.102c-0.104,0.047-0.149,0.169-0.103,0.272l4.145,9.157l2.627,5.875
	c-0.733-0.018-1.506-0.227-2.246-0.472c-0.792-0.262-1.575-0.569-2.345-0.913c-0.77-0.343-1.531-0.708-2.284-1.093l-1.122-0.591
	l-0.556-0.305l-0.276-0.155c-0.093-0.05-0.176-0.117-0.293-0.126c-0.019-0.001-0.038,0.002-0.055,0.013
	c-0.04,0.026-0.053,0.079-0.027,0.12c0.064,0.101,0.164,0.142,0.252,0.201l0.271,0.167L8.8,15.338
	c0.365,0.217,0.733,0.43,1.103,0.64c0.741,0.418,1.493,0.817,2.257,1.196c0.764,0.379,1.547,0.833,2.354,1.136
	c0.809,0.292,1.641,0.69,2.568,0.69c0.003,0,0.008,0,0.011,0c0.039,0,0.076-0.117,0.111-0.13l1.208,2.648l2.043,4.565l0.878,1.95
	c-2.86-0.126-5.709-0.703-8.387-1.749c-2.756-1.073-5.322-2.663-7.498-4.69c-0.052-0.047-0.132-0.048-0.181,0.002
	c-0.051,0.051-0.051,0.133,0.001,0.183c2.14,2.113,4.7,3.9,7.482,5.076C15.531,28.036,18.525,29,21.549,29c0.004,0,0.009,0,0.012,0
	c0.045,0,0.088-0.102,0.129-0.114c0.078,0.162,0.163,0.313,0.244,0.469c-0.531,0.816-1.536,0.901-1.819,1.427
	c-0.394,0.73-0.539,1.551-0.747,2.345c-0.433,1.649-1.178,3.269-2.405,4.502c-1.119,1.124-2.679,1.891-4.25,1.891
	c-0.152,0-0.305-0.007-0.457-0.022c-1.956-0.19-3.534-1.541-4.833-2.945c-1.3-1.404-2.515-2.967-4.252-3.823
	c2.103-0.274,4.134-1.183,5.741-2.568c-1.628-0.236-3.135-1.079-4.148-2.319c-1.262-1.542-1.718-3.575-1.956-5.557
	c-0.239-1.981-0.301-4.01-0.922-5.899c3.464,0.687,6.104,3.228,8.88,5.305c0.361,0.27,0.786,0.545,1.23,0.545
	c0.087,0,0.176-0.011,0.264-0.034c0.704-0.187,0.959-1.123,0.66-1.754s-0.951-1.017-1.579-1.348c-1.403-0.74-2.88-1.409-4.028-2.483
	c-1.147-1.074-1.928-2.671-1.535-4.211c0.538,0.396,1.217,0.799,1.856,0.799c0.244,0,0.482-0.059,0.705-0.199
	c0.61-0.386,0.74-1.2,0.68-1.893C8.875,9.475,8.029,7.952,8.042,6.302c0.007-0.92,0.281-1.825,0.554-2.714
	C8.795,2.938,9.263,1.13,9.462,0.48c0.625,0.267,1.916,1.255,2.542,1.521c0.855,0.364,1.725,0.737,2.434,1.324
	c1.271,1.052,1.891,2.68,3.053,3.844c0.4,0.401,0.943,0.758,1.503,0.758c0.127,0,0.255-0.019,0.383-0.059
	c0.907-0.289,1.13-1.425,1.189-2.346c1.432,0.691,2.151,2.317,2.234,3.887s-0.356,3.13-0.693,4.681
	c-0.151,0.693-0.277,1.44,0.015,2.076c0.209,0.456,0.722,0.795,1.214,0.795c0.194,0,0.385-0.053,0.553-0.17
	c0.456-0.32,0.54-0.934,0.57-1.472c0.198-3.463-0.046-7.119,1.658-10.211c1.047,1.692,2.559,3.045,3.921,4.504
	c1.362,1.458,2.625,3.115,2.993,5.074c0.295,1.574-0.03,3.27-0.898,4.667c2.096-0.338,4.099-1.307,5.662-2.739
	c-0.463,1.88-0.05,3.816,0.188,5.714C38.22,24.226,38.237,26.303,37.123,27.922z"/>
</svg>
