<?xml version="1.0" encoding="utf-8"?>
<!-- Generator: Adobe Illustrator 16.0.0, SVG Export Plug-In . SVG Version: 6.00 Build 0)  -->
<!DOCTYPE svg PUBLIC "-//W3C//DTD SVG 1.1//EN" "http://www.w3.org/Graphics/SVG/1.1/DTD/svg11.dtd">
<svg version="1.1" id="Ebene_1" xmlns="http://www.w3.org/2000/svg" xmlns:xlink="http://www.w3.org/1999/xlink" x="0px" y="0px"
	 width="24px" height="24px" viewBox="0 0 24 24" enable-background="new 0 0 24 24" xml:space="preserve">
<path d="M23.293,13.174c-0.023-0.188-0.052-0.379-0.079-0.564c-0.135-0.933-0.258-1.814-0.056-2.657
	c0.052-0.21-0.039-0.432-0.229-0.542c-0.137-0.083-0.311-0.089-0.46-0.022c-0.047,0.022-0.087,0.05-0.126,0.085
	c-0.447,0.416-0.946,0.835-1.509,1.1c-0.205,0.095-0.51,0.19-0.729,0.263c0.226-0.695,0.356-1.526,0.223-2.23
	c-0.262-1.362-1.16-2.455-1.917-3.26c-0.752-0.798-1.456-1.72-2.094-2.75c-0.14-0.214-0.412-0.291-0.634-0.186
	c-0.016,0.008-0.036,0.016-0.052,0.027c-0.075,0.048-0.134,0.115-0.174,0.188c-0.122,0.137-0.396,0.453-0.55,0.992l-0.013,0.043
	c-0.071,0.253-0.146,0.519-0.194,0.8c-0.178,1.039,0.143,1.967,0.313,2.969c0.087,0.511,0.114,0.835,0.023,1.204
	c-0.114,0.455-0.439,1.16-1.103,1.053c-0.283-0.046-0.37-0.317-0.374-0.483c-0.012-0.281,0.293-1.257,0.354-1.502
	c0.177-0.685,0.26-1.419,0.22-2.171c-0.033-0.535-0.162-1.16-0.542-1.766c-0.227-0.366-0.601-0.884-1.261-1.199
	c-0.137-0.063-0.681-0.103-0.683-0.043c-0.014,0.222,0.111,0.336,0.143,0.611c0.04,0.311,0.048,0.564-0.107,0.905
	c-0.028,0.055-0.055,0.13-0.108,0.154c-0.004,0-0.012,0.004-0.02,0.004c-0.192,0.059-0.453-0.111-0.631-0.287
	c-0.279-0.275-0.507-0.614-0.748-0.972c-0.315-0.465-0.64-0.95-1.113-1.338C8.585,1.205,8.007,0.961,7.493,0.744
	C7.311,0.668,6.966,0.508,6.63,0.354C6.426,0.263,6.222,0.168,6.047,0.089C5.953,0.025,5.839-0.008,5.725,0.001
	C5.666,0.005,5.608,0.02,5.561,0.043H5.557l0,0c-0.002,0-0.002,0-0.004,0.004c0,0,0,0-0.004,0l0,0c0,0,0,0-0.004,0
	C5.495,0.075,5.45,0.106,5.406,0.15c-0.081,0.083-0.13,0.19-0.138,0.301c-0.05,0.186-0.113,0.408-0.167,0.622
	C5.006,1.431,4.905,1.797,4.852,1.987C4.69,2.517,4.508,3.122,4.508,3.743C4.503,4.354,4.67,4.913,4.826,5.455
	C4.947,5.867,5.062,6.261,5.098,6.65C5.121,6.9,5.085,7.209,4.919,7.319C4.912,7.324,4.905,7.328,4.902,7.328
	c-0.054,0.03-0.133,0-0.188-0.016c-0.36-0.095-0.55-0.265-0.764-0.495c-0.194-0.2-0.202-0.368-0.38-0.499
	c-0.052-0.038-0.37,0.403-0.408,0.55C2.983,7.577,3.146,8.194,3.284,8.606c0.226,0.673,0.622,1.176,1.014,1.54
	c0.55,0.512,1.167,0.92,1.809,1.219c0.23,0.107,1.174,0.499,1.381,0.681c0.127,0.115,0.282,0.349,0.139,0.598
	c-0.341,0.576-1.097,0.38-1.517,0.179c-0.34-0.163-0.578-0.391-0.914-0.784c-0.662-0.772-1.172-1.612-2.084-2.136
	c-0.244-0.141-0.497-0.253-0.738-0.36L2.33,9.529C1.82,9.303,1.404,9.313,1.222,9.317C1.139,9.301,1.047,9.305,0.964,9.335
	c-0.022,0.008-0.04,0.012-0.06,0.02C0.685,9.459,0.57,9.721,0.647,9.96c0.384,1.148,0.646,2.282,0.78,3.365
	c0.138,1.092,0.403,2.491,1.285,3.561c0.461,0.548,1.182,0.976,1.858,1.252c-0.19,0.122-0.463,0.296-0.665,0.393
	c-0.57,0.266-1.21,0.382-1.813,0.46c-0.052,0.007-0.099,0.022-0.145,0.043c-0.144,0.067-0.251,0.206-0.277,0.372
	c-0.037,0.212,0.073,0.428,0.269,0.521c0.778,0.383,1.38,1.045,2.01,1.736c0.126,0.139,0.253,0.281,0.384,0.419
	c0.499,0.535,0.938,0.923,1.386,1.223c0.6,0.401,1.193,0.621,1.813,0.684c0.629,0.054,1.291-0.07,1.915-0.365
	c0.469-0.22,0.912-0.531,1.28-0.905c0.716-0.723,1.235-1.704,1.548-2.907c0.028-0.104,0.048-0.202,0.071-0.296
	c0.085-0.358,0.174-0.548,0.222-0.868c0.035-0.036,0.229-1.104,1.049-0.765c-0.146-0.265-0.283-0.538-0.412-0.81
	c-0.056-0.125-0.11-0.241-0.162-0.366c-0.023,0.005-0.043,0.01-0.057,0.014c-0.007,0-0.015,0-0.019,0
	c-0.867,0.028-1.738,0.009-2.599-0.082c-0.865-0.087-1.724-0.242-2.555-0.499c-0.835-0.254-1.641-0.612-2.368-1.1
	c-0.366-0.247-0.707-0.521-1.017-0.827c-0.309-0.305-0.594-0.637-0.835-0.993c-0.042-0.06-0.024-0.135,0.029-0.175
	c0.054-0.034,0.129-0.021,0.168,0.028l0,0c0.251,0.336,0.534,0.64,0.846,0.918c0.311,0.273,0.647,0.522,1.003,0.734
	c0.712,0.43,1.496,0.73,2.3,0.938c0.808,0.205,1.639,0.316,2.47,0.359c0.772,0.042,1.544,0.03,2.312-0.027l-0.125-0.289
	l-1.214-2.712l-0.659-1.464c-0.032,0.008-0.063,0.016-0.099,0.016c-0.008,0-0.016,0-0.02,0l-0.202-0.012l-0.097-0.008l-0.097-0.008
	l-0.202-0.023l-0.194-0.032c-0.034-0.004-0.063-0.008-0.096-0.012l-0.097-0.022c-0.065-0.011-0.133-0.021-0.196-0.037
	c-0.127-0.032-0.253-0.06-0.38-0.095c-0.127-0.031-0.254-0.075-0.376-0.11c-0.061-0.022-0.127-0.042-0.186-0.063l-0.091-0.036
	L8.3,11.049c-0.246-0.091-0.483-0.194-0.715-0.309c-0.059-0.028-0.116-0.052-0.174-0.083L7.235,10.57
	c-0.111-0.063-0.226-0.123-0.336-0.186c-0.224-0.13-0.444-0.269-0.658-0.41C6.032,9.83,5.822,9.679,5.616,9.525
	C5.513,9.446,5.414,9.362,5.319,9.279C5.268,9.24,5.222,9.2,5.172,9.157C5.147,9.135,5.125,9.115,5.101,9.089
	C5.076,9.067,5.058,9.042,5.052,8.994C5.046,8.935,5.085,8.881,5.145,8.875c0.002,0,0.004,0,0.006,0h0.008
	C5.2,8.874,5.232,8.884,5.26,8.903L5.331,8.96c0.047,0.038,0.103,0.076,0.148,0.113c0.103,0.07,0.208,0.141,0.311,0.21
	C6,9.422,6.21,9.551,6.428,9.675c0.439,0.242,0.883,0.458,1.344,0.637C8,10.404,8.233,10.487,8.47,10.556l0.087,0.028l0.087,0.025
	c0.057,0.016,0.121,0.032,0.178,0.048c0.118,0.028,0.233,0.059,0.356,0.081c0.416,0.091,0.839,0.136,1.259,0.152l-0.269-0.606
	L8.943,7.581L8.332,6.227L7.719,4.873c-0.412-0.898-0.824-1.797-1.239-2.7c-0.032-0.069-0.004-0.15,0.067-0.182
	c0.071-0.036,0.15-0.004,0.186,0.065l0,0c0.416,0.898,0.835,1.796,1.255,2.692l0.632,1.346l0.635,1.342l1.271,2.682l0.261,0.548
	c0.229-0.307,0.439-0.632,0.618-0.972c0.059-0.107,0.11-0.218,0.164-0.327c0.026-0.057,0.05-0.112,0.075-0.168l0.038-0.085
	l0.04-0.085c0.095-0.228,0.178-0.459,0.253-0.696c0.155-0.47,0.275-0.951,0.362-1.441c0.045-0.245,0.081-0.495,0.109-0.741
	c0.016-0.125,0.023-0.249,0.036-0.372c0.007-0.063,0.009-0.125,0.013-0.186L12.499,5.5c0.002-0.03,0.009-0.062,0.042-0.091
	l0.007-0.006c0.042-0.043,0.109-0.047,0.151-0.001c0,0,0.004,0.001,0.004,0.003c0.033,0.034,0.041,0.065,0.043,0.095
	c0,0.034,0.002,0.062,0.004,0.095c0,0.065,0.002,0.128,0.002,0.192c0,0.129-0.002,0.257-0.006,0.384
	c-0.008,0.257-0.027,0.513-0.047,0.771c-0.028,0.253-0.06,0.509-0.107,0.766c-0.021,0.126-0.044,0.253-0.071,0.38l-0.042,0.19
	c-0.013,0.063-0.029,0.127-0.047,0.186c-0.062,0.251-0.137,0.501-0.224,0.748l-0.03,0.095l-0.036,0.091
	c-0.026,0.062-0.046,0.123-0.067,0.183c-0.05,0.125-0.099,0.241-0.154,0.364c-0.054,0.12-0.113,0.237-0.17,0.356
	c-0.031,0.06-0.065,0.115-0.097,0.176l-0.048,0.087c-0.012,0.03-0.031,0.058-0.045,0.085l-0.105,0.166l-0.111,0.166l-0.052,0.083
	l-0.059,0.081l-0.119,0.161c-0.003,0.008-0.008,0.014-0.011,0.02l0.705,1.477l1.281,2.676l0.129,0.272
	c0.526-0.55,1.021-1.126,1.466-1.731c0.503-0.674,0.946-1.383,1.305-2.131c0.356-0.756,0.622-1.548,0.746-2.371
	c0.06-0.408,0.087-0.824,0.071-1.241s-0.071-0.83-0.165-1.237l0,0c-0.013-0.067,0.029-0.135,0.09-0.146
	c0.063-0.016,0.129,0.024,0.15,0.087c0.121,0.416,0.2,0.843,0.228,1.278c0.038,0.436,0.034,0.873-0.016,1.309
	c-0.087,0.869-0.324,1.716-0.661,2.52c-0.332,0.804-0.764,1.563-1.245,2.286c-0.482,0.722-1.022,1.403-1.59,2.049
	c-0.014,0.016-0.027,0.027-0.038,0.039l0.011,0.027c0.056,0.111,0.109,0.218,0.163,0.325c0.216,0.428,0.178,0.368,0.432,0.768
	c0,0,0.005,0.017,0.01,0.044l0,0c0,0.004,0,0.008,0,0.02c0,0.04,0,0.087-0.014,0.143c-0.017,0.075-0.047,0.148-0.123,0.198
	c-0.104,0.06-0.218,0.035-0.301,0c-0.046-0.021-0.084-0.036-0.088-0.043l-0.003-0.005c0.007,0.016,0.012,0.023,0.02,0.036
	c0.003,0.014,0.008,0.021,0.018,0.037l0,0c0.09,0.159,0.154,0.275,0.231,0.404c0.26,0.436,0.54,0.863,0.856,1.267
	c0.315,0.401,0.656,0.788,1.038,1.143c0.382,0.356,0.797,0.677,1.251,0.953c0.116,0.067,0.228,0.131,0.348,0.194
	c0.125,0.063,0.242,0.119,0.367,0.175c0.129,0.052,0.257,0.099,0.386,0.143c0.046,0.02,0.091,0.031,0.137,0.043
	c0.083,0.054,0.192,0.083,0.297,0.077l0.02-0.004h0.021h0.018c0.007,0,0.016,0,0.041-0.004c-0.393,0.133,0.806-0.021,0.157-0.923
	c-0.092-0.042-0.078-0.031-0.1-0.042c-0.012,0-0.021-0.003-0.025-0.003l-0.009-0.008l-0.031-0.005h-0.023
	c-0.021-0.004-0.04-0.007-0.06-0.011c-0.008,0.004-0.02,0.007-0.032,0.011c-0.016,0-0.022,0-0.039,0.005c-0.008,0-0.021,0-0.034,0
	c0.026-0.009,0.042-0.016,0.058-0.027c-0.041-0.009-0.091-0.017-0.136-0.028c-0.104-0.024-0.212-0.056-0.315-0.092
	c-0.106-0.035-0.212-0.075-0.316-0.118c-0.107-0.047-0.212-0.095-0.313-0.146c-0.408-0.212-0.797-0.475-1.156-0.772
	c-0.364-0.304-0.701-0.645-1.01-1.005c-0.313-0.364-0.598-0.753-0.863-1.156c-0.004-0.008-0.233-0.404-0.273-0.476
	c0.266-0.815,1.16-0.272,1.212-0.285c0.273,0.167,0.479,0.227,0.808,0.389c0.087,0.041,0.179,0.087,0.272,0.133
	c1.129,0.528,2.218,0.748,3.227,0.661c0.523-0.042,1.046-0.188,1.517-0.408c0.626-0.294,1.141-0.722,1.501-1.24
	c0.349-0.515,0.559-1.115,0.63-1.833C23.403,14.48,23.384,13.898,23.293,13.174z"/>
</svg>
