<?xml version="1.0" encoding="utf-8"?>
<!-- Generator: Adobe Illustrator 16.0.0, SVG Export Plug-In . SVG Version: 6.00 Build 0)  -->
<!DOCTYPE svg PUBLIC "-//W3C//DTD SVG 1.1//EN" "http://www.w3.org/Graphics/SVG/1.1/DTD/svg11.dtd">
<svg version="1.1" id="Ebene_1" xmlns="http://www.w3.org/2000/svg" xmlns:xlink="http://www.w3.org/1999/xlink" x="0px" y="0px"
	 width="24px" height="24px" viewBox="0 0 24 24" enable-background="new 0 0 24 24" xml:space="preserve">
<path id="Black_Background_3_" d="M12,1.09c6.025,0,10.91,4.886,10.91,10.91c0,6.025-4.885,10.909-10.91,10.909S1.09,18.025,1.09,12
	C1.09,5.976,5.975,1.09,12,1.09 M12,0C5.374,0,0,5.374,0,12c0,6.627,5.374,12,12,12s12-5.373,12-12C24,5.374,18.626,0,12,0z
	 M12,19.313c-0.503,0-0.908-0.408-0.908-0.907v-6.864c0-0.504,0.405-0.908,0.908-0.908c0.504,0,0.908,0.404,0.908,0.908v6.864
	C12.908,18.904,12.504,19.313,12,19.313z M12.127,8.849h-0.195c-0.454,0-0.825-0.372-0.825-0.826V7.458
	c0-0.454,0.371-0.825,0.825-0.825h0.195c0.454,0,0.826,0.371,0.826,0.825v0.564C12.953,8.477,12.581,8.849,12.127,8.849z"/>
</svg>
