<?xml version="1.0" encoding="utf-8"?>
<!-- Generator: Adobe Illustrator 16.0.0, SVG Export Plug-In . SVG Version: 6.00 Build 0)  -->
<!DOCTYPE svg PUBLIC "-//W3C//DTD SVG 1.1//EN" "http://www.w3.org/Graphics/SVG/1.1/DTD/svg11.dtd">
<svg version="1.1" id="Ebene_1" xmlns="http://www.w3.org/2000/svg" xmlns:xlink="http://www.w3.org/1999/xlink" x="0px" y="0px"
	 width="24px" height="24px" viewBox="0 0 24 24" enable-background="new 0 0 24 24" xml:space="preserve">
<path d="M7.228,7.841c0.132,0.146,0.197,0.324,0.197,0.536c0,0.211-0.066,0.388-0.197,0.528C7.096,9.047,6.904,9.117,6.649,9.117
	c-0.254,0-0.445-0.07-0.575-0.212c-0.129-0.14-0.193-0.317-0.193-0.528c0-0.212,0.064-0.391,0.194-0.536
	c0.129-0.146,0.32-0.218,0.574-0.218C6.904,7.623,7.096,7.695,7.228,7.841z M6.115,16.163h1.053v-6.155H6.115V16.163z
	 M19.214,14.062c0.215,0.177,0.479,0.594,0.479,1.112c0,1.326-1.226,1.896-2.4,1.896c-0.771,0-1.504-0.178-1.983-0.53l0.305-0.721
	c0.302,0.215,0.922,0.518,1.667,0.518c0.809,0,1.414-0.366,1.414-1.036c0-0.594-0.366-0.909-1.541-1.314
	c-1.302-0.442-2.198-0.909-2.198-1.997c0-0.479,0.252-1.049,0.922-1.478c-0.252-0.202-0.455-0.631-0.469-1.062
	c0-1.111,1.038-1.794,2.339-1.794c0.708,0,1.313,0.177,1.743,0.417l-0.266,0.72c-0.328-0.202-0.834-0.404-1.516-0.404
	c-0.746,0-1.314,0.366-1.314,0.935c0,0.657,0.632,0.896,1.58,1.213c1.162,0.379,2.059,0.859,2.059,1.996
	C20.034,13.188,19.719,13.67,19.214,14.062z M19.112,12.684c0-0.481-0.304-0.885-1.124-1.176c-0.506-0.189-1.15-0.404-1.554-0.644
	c-0.405,0.291-0.582,0.606-0.582,0.985c-0.002,0.456,0.34,0.834,1.338,1.201c0.646,0.228,1.149,0.416,1.441,0.606
	C18.948,13.429,19.112,13.074,19.112,12.684z M11.556,20.432h0.683V3.352h-0.683V20.432z"/>
</svg>
