<?xml version="1.0" encoding="utf-8"?>
<!-- Generator: Adobe Illustrator 16.0.0, SVG Export Plug-In . SVG Version: 6.00 Build 0)  -->
<!DOCTYPE svg PUBLIC "-//W3C//DTD SVG 1.1//EN" "http://www.w3.org/Graphics/SVG/1.1/DTD/svg11.dtd">
<svg version="1.1" id="Ebene_1" xmlns="http://www.w3.org/2000/svg" xmlns:xlink="http://www.w3.org/1999/xlink" x="0px" y="0px"
	 width="24px" height="24px" viewBox="0 0 24 24" enable-background="new 0 0 24 24" xml:space="preserve">
<path d="M6.024,6.792c0.165,0.182,0.247,0.406,0.247,0.671S6.188,7.949,6.024,8.125C5.859,8.302,5.618,8.39,5.3,8.39
	c-0.318,0-0.558-0.088-0.72-0.265C4.418,7.949,4.338,7.728,4.338,7.463s0.081-0.489,0.243-0.671C4.742,6.61,4.982,6.519,5.3,6.519
	C5.618,6.519,5.859,6.61,6.024,6.792z M4.631,17.213h1.318V9.506H4.631V17.213z M21.033,14.581c0.27,0.222,0.601,0.744,0.601,1.394
	c0,1.66-1.534,2.373-3.006,2.373c-0.965,0-1.883-0.223-2.483-0.664l0.381-0.902c0.379,0.27,1.154,0.648,2.088,0.648
	c1.013,0,1.771-0.459,1.771-1.298c0-0.743-0.458-1.139-1.93-1.646c-1.63-0.555-2.753-1.139-2.753-2.5
	c0-0.601,0.316-1.313,1.154-1.851c-0.315-0.253-0.569-0.791-0.586-1.329c0-1.392,1.299-2.247,2.928-2.247
	c0.887,0,1.646,0.222,2.184,0.522l-0.333,0.902c-0.411-0.253-1.044-0.506-1.897-0.506c-0.935,0-1.646,0.459-1.646,1.171
	c0,0.823,0.791,1.123,1.979,1.519c1.455,0.475,2.578,1.076,2.578,2.5C22.061,13.488,21.665,14.091,21.033,14.581z M20.906,12.855
	c0-0.602-0.381-1.107-1.408-1.472c-0.633-0.237-1.439-0.506-1.945-0.807c-0.507,0.364-0.729,0.759-0.729,1.234
	c-0.002,0.571,0.426,1.044,1.676,1.503c0.809,0.285,1.439,0.521,1.805,0.76C20.7,13.789,20.906,13.346,20.906,12.855z
	 M11.444,22.559h0.855V1.171h-0.855V22.559z"/>
</svg>
