<?xml version="1.0" encoding="utf-8"?>
<!-- Generator: Adobe Illustrator 16.0.0, SVG Export Plug-In . SVG Version: 6.00 Build 0)  -->
<!DOCTYPE svg PUBLIC "-//W3C//DTD SVG 1.1//EN" "http://www.w3.org/Graphics/SVG/1.1/DTD/svg11.dtd">
<svg version="1.1" id="Ebene_1" xmlns="http://www.w3.org/2000/svg" xmlns:xlink="http://www.w3.org/1999/xlink" x="0px" y="0px"
	 width="24px" height="24px" viewBox="0 0 24 24" enable-background="new 0 0 24 24" xml:space="preserve">
<path d="M20,0H4C1.791,0,0,1.791,0,4v16c0,2.209,1.791,4,4,4h16c2.209,0,4-1.791,4-4V4C24,1.791,22.209,0,20,0z M23,20
	c0,1.657-1.343,3-3,3H4c-1.657,0-3-1.343-3-3V4c0-1.657,1.343-3,3-3h16c1.657,0,3,1.343,3,3V20z M4.975,15.941h15.958v0.703H4.975
	V15.941z M18.962,18.543H4.975V17.84h13.987V18.543z M4.975,19.704h15.958v0.703H4.975V19.704z M4.375,16.293
	c0,0.347-0.28,0.627-0.627,0.627c-0.346,0-0.627-0.28-0.627-0.627c0-0.346,0.281-0.627,0.627-0.627
	C4.095,15.666,4.375,15.947,4.375,16.293z M4.375,18.191c0,0.346-0.28,0.626-0.627,0.626c-0.346,0-0.627-0.28-0.627-0.626
	s0.281-0.627,0.627-0.627C4.095,17.564,4.375,17.846,4.375,18.191z M4.375,20.056c0,0.347-0.28,0.627-0.627,0.627
	c-0.346,0-0.627-0.28-0.627-0.627c0-0.346,0.281-0.626,0.627-0.626C4.095,19.43,4.375,19.71,4.375,20.056z M16.969,9.624
	c-0.011-0.087-0.023-0.174-0.036-0.259c-0.061-0.428-0.119-0.831-0.025-1.218c0.024-0.097-0.019-0.199-0.105-0.249
	c-0.065-0.039-0.145-0.041-0.211-0.01c-0.021,0.01-0.04,0.022-0.058,0.039c-0.205,0.19-0.434,0.383-0.692,0.505
	c-0.094,0.044-0.235,0.087-0.333,0.121c0.102-0.319,0.162-0.7,0.101-1.023c-0.12-0.624-0.533-1.126-0.88-1.495
	c-0.344-0.365-0.667-0.789-0.961-1.261c-0.062-0.098-0.187-0.133-0.288-0.085c-0.009,0.003-0.017,0.008-0.024,0.013
	c-0.035,0.022-0.062,0.052-0.08,0.086c-0.056,0.063-0.182,0.208-0.253,0.455l-0.005,0.019c-0.033,0.117-0.068,0.238-0.09,0.367
	c-0.082,0.476,0.066,0.902,0.145,1.361c0.04,0.234,0.052,0.384,0.01,0.552c-0.052,0.208-0.202,0.532-0.506,0.482
	c-0.13-0.021-0.169-0.145-0.171-0.222c-0.005-0.128,0.133-0.576,0.162-0.688c0.082-0.314,0.12-0.651,0.101-0.996
	c-0.014-0.245-0.074-0.532-0.248-0.809c-0.105-0.168-0.275-0.406-0.578-0.55c-0.063-0.03-0.312-0.047-0.313-0.019
	c-0.007,0.102,0.051,0.153,0.066,0.28c0.017,0.143,0.021,0.26-0.051,0.415c-0.012,0.025-0.024,0.06-0.049,0.071
	c-0.002,0.001-0.005,0.002-0.009,0.003c-0.088,0.027-0.207-0.051-0.289-0.132c-0.128-0.127-0.232-0.282-0.343-0.446
	c-0.145-0.214-0.294-0.437-0.51-0.614c-0.222-0.182-0.487-0.293-0.722-0.393C9.641,3.889,9.481,3.816,9.328,3.745
	C9.235,3.703,9.14,3.659,9.061,3.623c-0.043-0.029-0.095-0.044-0.148-0.04c-0.027,0.002-0.053,0.009-0.076,0.02c0,0-0.001,0-0.001,0
	l0,0c-0.001,0-0.001,0-0.002,0.001c0,0,0,0-0.001,0v0c0,0-0.001,0-0.002,0.001C8.808,3.617,8.786,3.632,8.767,3.651
	c-0.037,0.038-0.06,0.088-0.063,0.139C8.68,3.875,8.652,3.977,8.626,4.075C8.582,4.239,8.537,4.407,8.512,4.493
	c-0.074,0.244-0.157,0.52-0.158,0.806c-0.001,0.28,0.074,0.537,0.147,0.785c0.056,0.189,0.108,0.369,0.124,0.549
	c0.011,0.115-0.006,0.256-0.082,0.307C8.54,6.941,8.537,6.943,8.535,6.944c-0.024,0.012-0.06-0.001-0.086-0.008
	C8.284,6.892,8.196,6.814,8.098,6.71C8.009,6.617,8.006,6.54,7.924,6.48C7.901,6.464,7.755,6.666,7.738,6.733
	C7.656,7.058,7.73,7.341,7.793,7.53C7.896,7.84,8.078,8.07,8.258,8.237c0.253,0.235,0.536,0.421,0.83,0.558
	c0.105,0.049,0.538,0.229,0.634,0.313c0.058,0.052,0.128,0.16,0.062,0.274C9.628,9.648,9.282,9.557,9.089,9.464
	C8.933,9.39,8.825,9.285,8.671,9.105c-0.304-0.354-0.537-0.739-0.956-0.98C7.603,8.06,7.487,8.009,7.376,7.96L7.357,7.952
	C7.122,7.849,6.931,7.854,6.847,7.856C6.809,7.848,6.768,7.85,6.729,7.863C6.72,7.866,6.711,7.869,6.703,7.873
	C6.601,7.921,6.549,8.04,6.585,8.15c0.176,0.527,0.296,1.047,0.357,1.544c0.063,0.501,0.186,1.141,0.589,1.631
	c0.21,0.253,0.542,0.45,0.853,0.576c-0.088,0.054-0.212,0.135-0.306,0.18c-0.26,0.122-0.554,0.174-0.831,0.211
	c-0.023,0.003-0.046,0.01-0.066,0.02c-0.066,0.031-0.115,0.094-0.127,0.169c-0.016,0.098,0.034,0.196,0.124,0.24
	c0.357,0.175,0.632,0.478,0.921,0.797c0.058,0.063,0.117,0.129,0.177,0.192c0.229,0.245,0.43,0.422,0.635,0.559
	c0.275,0.184,0.548,0.285,0.832,0.313c0.288,0.026,0.591-0.031,0.878-0.166c0.215-0.101,0.418-0.244,0.587-0.416
	c0.328-0.332,0.567-0.781,0.71-1.333c0.012-0.046,0.022-0.093,0.033-0.136c0.039-0.164,0.079-0.253,0.101-0.397
	c0.017-0.016,0.107-0.506,0.481-0.35c-0.066-0.123-0.13-0.247-0.188-0.373c-0.026-0.056-0.051-0.111-0.075-0.167
	c-0.01,0.002-0.019,0.004-0.027,0.005c-0.003,0-0.006,0-0.008,0c-0.397,0.013-0.796,0.004-1.191-0.037
	c-0.396-0.041-0.79-0.112-1.172-0.229s-0.752-0.281-1.085-0.504C8.619,10.366,8.463,10.24,8.32,10.1
	C8.178,9.96,8.049,9.807,7.937,9.643C7.919,9.617,7.926,9.582,7.951,9.564C7.976,9.547,8.01,9.553,8.028,9.577v0
	c0.115,0.153,0.245,0.293,0.388,0.42s0.297,0.24,0.46,0.338c0.327,0.196,0.686,0.335,1.055,0.429
	c0.37,0.094,0.751,0.146,1.133,0.166c0.353,0.019,0.707,0.013,1.06-0.013l-0.059-0.132l-0.556-1.244l-0.302-0.671
	c-0.014,0.004-0.029,0.007-0.046,0.007c-0.003,0-0.006,0-0.009,0l-0.092-0.006l-0.045-0.003L10.97,8.864l-0.091-0.011l-0.09-0.014
	c-0.015-0.002-0.029-0.004-0.044-0.007L10.7,8.823c-0.029-0.006-0.06-0.011-0.089-0.018c-0.059-0.014-0.117-0.026-0.175-0.043
	c-0.059-0.015-0.116-0.034-0.173-0.051c-0.028-0.01-0.057-0.02-0.085-0.03l-0.043-0.015l-0.041-0.016
	C9.982,8.608,9.873,8.56,9.766,8.509C9.739,8.496,9.712,8.484,9.686,8.47L9.606,8.43C9.555,8.401,9.502,8.374,9.451,8.344
	C9.349,8.285,9.248,8.222,9.15,8.157C9.053,8.091,8.957,8.022,8.863,7.95C8.817,7.914,8.771,7.877,8.727,7.839
	C8.703,7.82,8.682,7.801,8.659,7.782c-0.011-0.01-0.022-0.02-0.033-0.03C8.615,7.741,8.607,7.729,8.604,7.708
	C8.601,7.681,8.62,7.656,8.647,7.653c0.001,0,0.002,0,0.003,0h0.004c0.02-0.001,0.033,0.004,0.045,0.013l0.034,0.026
	c0.022,0.017,0.046,0.034,0.068,0.051c0.047,0.033,0.094,0.065,0.142,0.097c0.096,0.063,0.193,0.123,0.293,0.179
	C9.436,8.13,9.641,8.229,9.852,8.312c0.105,0.042,0.212,0.08,0.32,0.112l0.04,0.013l0.041,0.011
	c0.026,0.007,0.054,0.015,0.081,0.022c0.055,0.013,0.108,0.027,0.164,0.038c0.19,0.042,0.385,0.063,0.577,0.069l-0.124-0.277
	l-0.561-1.241l-0.282-0.621l-0.282-0.62C9.638,5.405,9.449,4.992,9.259,4.58C9.244,4.547,9.258,4.51,9.29,4.495
	C9.322,4.48,9.359,4.494,9.375,4.526v0c0.19,0.412,0.384,0.823,0.576,1.234l0.289,0.617l0.291,0.615l0.583,1.231l0.12,0.251
	c0.105-0.14,0.202-0.289,0.283-0.446c0.027-0.049,0.051-0.1,0.076-0.15c0.012-0.026,0.023-0.051,0.034-0.077l0.018-0.039
	l0.017-0.039c0.044-0.104,0.082-0.21,0.117-0.318c0.07-0.216,0.126-0.437,0.166-0.662c0.021-0.112,0.037-0.226,0.049-0.339
	c0.007-0.057,0.012-0.114,0.016-0.171c0.003-0.029,0.004-0.057,0.006-0.085l0.002-0.043c0.001-0.014,0.005-0.028,0.019-0.042
	l0.003-0.003c0.019-0.02,0.05-0.021,0.069-0.001c0.001,0,0.002,0.001,0.002,0.002c0.015,0.015,0.019,0.03,0.021,0.044
	c0,0.015,0.001,0.029,0.002,0.044c0,0.029,0.001,0.059,0.001,0.088c0,0.059-0.001,0.118-0.003,0.176
	c-0.004,0.118-0.012,0.235-0.023,0.353c-0.012,0.117-0.027,0.234-0.048,0.351c-0.01,0.059-0.021,0.117-0.033,0.175l-0.02,0.087
	c-0.006,0.029-0.014,0.058-0.021,0.086c-0.029,0.115-0.063,0.229-0.103,0.342L11.87,7.851l-0.016,0.042
	c-0.011,0.028-0.021,0.056-0.031,0.084c-0.023,0.056-0.045,0.111-0.07,0.167c-0.024,0.055-0.052,0.108-0.078,0.163
	c-0.014,0.027-0.029,0.053-0.043,0.08l-0.022,0.04c-0.007,0.013-0.015,0.026-0.022,0.039L11.54,8.542l-0.05,0.076l-0.024,0.039
	l-0.027,0.037l-0.054,0.074c-0.002,0.003-0.004,0.006-0.007,0.009l0.323,0.676l0.588,1.228l0.06,0.124
	c0.24-0.251,0.467-0.515,0.673-0.794c0.229-0.308,0.433-0.633,0.596-0.978s0.285-0.709,0.343-1.086
	c0.028-0.188,0.04-0.379,0.033-0.57s-0.032-0.38-0.076-0.567v0c-0.007-0.03,0.012-0.061,0.042-0.068
	c0.029-0.007,0.059,0.011,0.067,0.04c0.055,0.191,0.091,0.388,0.107,0.587s0.014,0.4-0.007,0.599
	c-0.04,0.399-0.15,0.788-0.304,1.156c-0.153,0.369-0.35,0.718-0.571,1.049c-0.222,0.331-0.469,0.644-0.731,0.94
	c-0.006,0.006-0.011,0.011-0.017,0.016l0.006,0.012c0.024,0.052,0.049,0.101,0.074,0.151c0.099,0.195,0.082,0.169,0.199,0.352
	c0,0,0.001,0.008,0.003,0.019c0,0,0,0,0,0c0,0.003,0,0.005,0,0.009c0.001,0.018,0,0.041-0.005,0.066
	c-0.007,0.034-0.021,0.07-0.057,0.091c-0.048,0.028-0.101,0.015-0.138,0c-0.021-0.009-0.038-0.018-0.04-0.02l-0.002-0.001
	c0.003,0.006,0.005,0.009,0.008,0.015c0.003,0.005,0.004,0.009,0.008,0.016h0.001c0.04,0.073,0.071,0.126,0.106,0.186
	c0.12,0.199,0.249,0.395,0.394,0.58c0.144,0.186,0.301,0.362,0.476,0.524c0.174,0.163,0.364,0.311,0.573,0.437
	c0.053,0.031,0.105,0.061,0.16,0.089s0.11,0.055,0.168,0.079c0.058,0.025,0.116,0.047,0.177,0.067
	c0.021,0.007,0.041,0.013,0.063,0.02c0.039,0.025,0.087,0.039,0.137,0.036l0.009-0.001l0.009-0.001h0.007
	c0.004,0,0.007,0,0.017-0.002c-0.179,0.062,0.372-0.01,0.073-0.424c-0.042-0.02-0.036-0.014-0.045-0.018
	c-0.005,0-0.008-0.002-0.01-0.002l-0.005-0.002l-0.014-0.002l-0.01-0.001c-0.01-0.002-0.019-0.003-0.027-0.005
	c-0.004,0.002-0.01,0.004-0.016,0.006c-0.006,0-0.011,0-0.017,0.001c-0.005,0-0.01,0.001-0.015,0.001
	c0.01-0.005,0.019-0.008,0.027-0.012c-0.021-0.004-0.041-0.008-0.063-0.013c-0.048-0.012-0.097-0.026-0.146-0.042
	c-0.049-0.018-0.097-0.035-0.146-0.056c-0.048-0.021-0.095-0.043-0.142-0.067c-0.188-0.095-0.365-0.217-0.532-0.354
	c-0.165-0.139-0.32-0.294-0.463-0.46c-0.142-0.167-0.273-0.345-0.394-0.531c-0.002-0.004-0.107-0.186-0.125-0.216
	c0.121-0.375,0.532-0.128,0.555-0.131c0.126,0.076,0.22,0.102,0.37,0.176c0.041,0.02,0.083,0.041,0.126,0.061
	c0.517,0.243,1.015,0.345,1.479,0.305c0.24-0.021,0.48-0.085,0.695-0.187c0.287-0.135,0.524-0.332,0.688-0.57
	c0.161-0.236,0.256-0.511,0.29-0.84C17.02,10.224,17.012,9.956,16.969,9.624z M14.765,13.843c0.003,0.001,0.007,0.002,0.008,0.003
	l0,0c-0.001,0-0.002-0.001-0.005-0.002c-0.004-0.002-0.003,0-0.012-0.003L14.765,13.843z"/>
</svg>
