<?xml version="1.0" encoding="utf-8"?>
<!-- Generator: Adobe Illustrator 16.0.0, SVG Export Plug-In . SVG Version: 6.00 Build 0)  -->
<!DOCTYPE svg PUBLIC "-//W3C//DTD SVG 1.1//EN" "http://www.w3.org/Graphics/SVG/1.1/DTD/svg11.dtd">
<svg version="1.1" id="Ebene_1" xmlns="http://www.w3.org/2000/svg" xmlns:xlink="http://www.w3.org/1999/xlink" x="0px" y="0px"
	 width="24px" height="24px" viewBox="0 0 24 24" enable-background="new 0 0 24 24" xml:space="preserve">
<path d="M22.217,17.262v0.808H3.88v-0.808H22.217z M19.953,19.444H3.88v0.807h16.073V19.444z M3.88,22.393h18.337v-0.807H3.88
	V22.393z M2.469,16.945c-0.397,0-0.719,0.322-0.719,0.721c0,0.397,0.322,0.72,0.719,0.72c0.399,0,0.721-0.322,0.721-0.72
	C3.19,17.268,2.868,16.945,2.469,16.945z M2.469,19.127c-0.397,0-0.719,0.322-0.719,0.72s0.322,0.721,0.719,0.721
	c0.399,0,0.721-0.323,0.721-0.721S2.868,19.127,2.469,19.127z M2.469,21.27c-0.397,0-0.719,0.322-0.719,0.721
	c0,0.396,0.322,0.72,0.719,0.72c0.399,0,0.721-0.323,0.721-0.72C3.19,21.592,2.868,21.27,2.469,21.27z M16.364,14.006
	c0.042-0.018,0.021-0.021-0.026-0.005c0.006,0.001,0.01,0.002,0.014,0.003C16.356,14.004,16.36,14.005,16.364,14.006z M16.297,14.6
	c-0.002,0-0.003-0.001-0.004-0.001c0.004,0.001,0.009,0.002,0.01,0.002c0.001,0.001,0.001,0.001,0,0.001
	C16.302,14.601,16.301,14.601,16.297,14.6z M6.644,11.239c0.279,0.339,0.722,0.602,1.137,0.769
	c-0.118,0.072-0.283,0.182-0.409,0.239c-0.344,0.162-0.738,0.231-1.108,0.281c-0.031,0.005-0.061,0.014-0.088,0.026
	c-0.089,0.042-0.153,0.125-0.17,0.226c-0.021,0.131,0.046,0.261,0.166,0.319c0.477,0.233,0.842,0.637,1.229,1.063
	c0.077,0.085,0.156,0.172,0.235,0.258c0.305,0.326,0.573,0.563,0.847,0.744c0.368,0.244,0.731,0.381,1.11,0.416
	c0.384,0.036,0.788-0.04,1.171-0.221c0.286-0.134,0.557-0.326,0.783-0.555c0.438-0.443,0.757-1.042,0.947-1.779
	c0.016-0.061,0.03-0.122,0.044-0.182c0.053-0.217,0.105-0.336,0.135-0.529c0.021-0.021,0.143-0.676,0.642-0.465
	c-0.088-0.165-0.173-0.331-0.251-0.499c-0.035-0.075-0.068-0.149-0.102-0.222c-0.012,0.003-0.023,0.005-0.036,0.006
	c-0.003,0.001-0.008,0.001-0.011,0.001c-0.529,0.017-1.06,0.005-1.589-0.049c-0.527-0.055-1.053-0.151-1.563-0.307
	c-0.509-0.156-1.002-0.375-1.446-0.672C8.095,9.961,7.886,9.792,7.696,9.605c-0.191-0.186-0.363-0.391-0.512-0.61
	C7.16,8.961,7.169,8.914,7.203,8.891c0.034-0.023,0.078-0.016,0.103,0.016C7.46,9.111,7.634,9.3,7.824,9.469
	c0.19,0.169,0.396,0.319,0.614,0.45c0.435,0.263,0.914,0.447,1.407,0.573c0.493,0.125,1.001,0.194,1.511,0.222
	c0.47,0.025,0.942,0.016,1.413-0.018l-0.078-0.175l-0.742-1.66l-0.402-0.895c-0.018,0.006-0.04,0.01-0.061,0.01
	c-0.004,0-0.008-0.001-0.012-0.001l-0.122-0.008l-0.061-0.004l-0.06-0.007L11.11,7.941l-0.12-0.018
	c-0.02-0.003-0.04-0.006-0.06-0.01l-0.059-0.012c-0.04-0.007-0.08-0.014-0.119-0.023c-0.078-0.019-0.156-0.036-0.233-0.059
	c-0.078-0.02-0.155-0.045-0.231-0.069c-0.038-0.012-0.075-0.025-0.113-0.039l-0.057-0.02L10.063,7.67
	c-0.15-0.056-0.295-0.119-0.439-0.187C9.589,7.466,9.553,7.449,9.518,7.431L9.411,7.377C9.342,7.34,9.273,7.302,9.204,7.263
	c-0.136-0.079-0.27-0.162-0.401-0.25c-0.13-0.088-0.258-0.18-0.382-0.276C8.359,6.688,8.298,6.64,8.238,6.589
	c-0.031-0.025-0.06-0.051-0.09-0.076c-0.015-0.014-0.03-0.027-0.044-0.04C8.09,6.459,8.078,6.441,8.075,6.414
	C8.071,6.378,8.096,6.345,8.132,6.341C8.134,6.34,8.135,6.34,8.136,6.34h0.006c0.025-0.002,0.044,0.007,0.059,0.016l0.045,0.036
	c0.031,0.022,0.062,0.045,0.093,0.067c0.062,0.044,0.125,0.088,0.189,0.13c0.127,0.084,0.257,0.163,0.39,0.238
	c0.265,0.151,0.54,0.282,0.821,0.394c0.141,0.054,0.283,0.106,0.426,0.149l0.054,0.017l0.055,0.014
	c0.036,0.01,0.072,0.021,0.108,0.03c0.073,0.017,0.146,0.036,0.219,0.05c0.255,0.055,0.513,0.084,0.77,0.091l-0.166-0.369
	l-0.748-1.656L10.082,4.72L9.705,3.893C9.453,3.342,9.202,2.791,8.947,2.241c-0.019-0.043,0-0.094,0.042-0.113
	c0.043-0.02,0.094-0.001,0.114,0.042c0.254,0.55,0.511,1.098,0.768,1.645l0.386,0.824l0.389,0.821l0.777,1.642l0.16,0.335
	c0.142-0.187,0.27-0.385,0.378-0.595c0.036-0.066,0.069-0.134,0.102-0.2c0.016-0.035,0.03-0.069,0.046-0.103l0.023-0.052
	l0.021-0.051c0.059-0.139,0.11-0.281,0.157-0.424c0.095-0.287,0.168-0.583,0.222-0.883c0.026-0.15,0.049-0.302,0.065-0.453
	c0.008-0.076,0.016-0.153,0.021-0.229c0.003-0.038,0.005-0.076,0.007-0.113l0.002-0.058c0.002-0.018,0.008-0.038,0.025-0.056
	l0.004-0.004c0.024-0.027,0.066-0.028,0.094-0.002c0,0.001,0.001,0.002,0.002,0.003c0.02,0.019,0.024,0.039,0.028,0.058
	c0,0.021,0,0.04,0.001,0.06c0.001,0.039,0.002,0.079,0.002,0.118c0,0.078-0.001,0.157-0.003,0.235
	c-0.006,0.158-0.017,0.314-0.032,0.471c-0.016,0.156-0.037,0.313-0.063,0.468c-0.014,0.078-0.029,0.155-0.044,0.232l-0.026,0.117
	c-0.009,0.039-0.019,0.077-0.028,0.115c-0.039,0.154-0.083,0.306-0.136,0.457l-0.019,0.056L12.41,6.661
	c-0.014,0.037-0.027,0.074-0.042,0.111c-0.03,0.075-0.06,0.15-0.094,0.222c-0.032,0.073-0.068,0.146-0.104,0.217
	c-0.018,0.036-0.038,0.071-0.056,0.107l-0.03,0.053c-0.01,0.018-0.021,0.035-0.03,0.052l-0.063,0.104l-0.066,0.102l-0.033,0.052
	l-0.036,0.048l-0.072,0.099c-0.003,0.005-0.005,0.008-0.008,0.012l0.429,0.901l0.785,1.639l0.079,0.166
	c0.32-0.336,0.623-0.689,0.898-1.06c0.304-0.411,0.576-0.845,0.794-1.305c0.218-0.459,0.381-0.947,0.457-1.449
	c0.038-0.251,0.054-0.505,0.045-0.759c-0.009-0.255-0.043-0.509-0.102-0.757V5.215c-0.01-0.04,0.016-0.08,0.056-0.09
	c0.039-0.01,0.079,0.014,0.09,0.052c0.073,0.256,0.121,0.518,0.144,0.784s0.019,0.534-0.009,0.799
	c-0.054,0.532-0.201,1.052-0.406,1.543c-0.205,0.492-0.466,0.958-0.762,1.399c-0.295,0.442-0.624,0.859-0.976,1.254
	c-0.007,0.008-0.015,0.015-0.022,0.022l0.008,0.016c0.033,0.069,0.065,0.136,0.1,0.201c0.132,0.26,0.109,0.226,0.266,0.47
	c0,0,0.002,0.011,0.003,0.024c0,0,0,0,0-0.001c0.001,0.005,0.001,0.008,0.001,0.014c0,0,0,0,0-0.001
	c0.002,0.022,0,0.052-0.006,0.084c-0.009,0.046-0.027,0.096-0.077,0.125c-0.063,0.038-0.133,0.021-0.182,0
	c-0.028-0.012-0.048-0.023-0.053-0.025c-0.001,0-0.005-0.003-0.005-0.003c0.004,0.008,0.007,0.013,0.012,0.021
	c0.003,0.007,0.005,0.012,0.01,0.021l0.001,0c0.053,0.098,0.095,0.169,0.143,0.249c0.159,0.266,0.331,0.526,0.525,0.773
	c0.19,0.247,0.401,0.482,0.634,0.699c0.231,0.217,0.486,0.414,0.765,0.582c0.069,0.042,0.141,0.081,0.214,0.119
	c0.073,0.037,0.147,0.073,0.224,0.105c0.077,0.033,0.155,0.063,0.235,0.09c0.028,0.009,0.056,0.018,0.084,0.025
	c0.054,0.034,0.116,0.053,0.183,0.048h0.012l0.011-0.001l0.01-0.001c0.006,0,0.01,0,0.022-0.002
	c-0.238,0.082,0.495-0.014,0.098-0.566c-0.057-0.025-0.049-0.018-0.061-0.022c-0.006-0.002-0.01-0.002-0.012-0.003l-0.008-0.002
	l-0.018-0.003L16.4,14.012c-0.013-0.002-0.024-0.004-0.036-0.006c-0.006,0.002-0.013,0.005-0.021,0.008
	c-0.008,0-0.015,0-0.022,0.001c-0.007,0-0.013,0.001-0.019,0.001c0.013-0.006,0.024-0.011,0.035-0.015
	c-0.027-0.007-0.055-0.012-0.083-0.018c-0.064-0.016-0.129-0.035-0.194-0.057c-0.064-0.022-0.129-0.047-0.193-0.074
	c-0.063-0.027-0.127-0.057-0.189-0.089c-0.251-0.127-0.487-0.29-0.71-0.474c-0.221-0.185-0.427-0.392-0.617-0.614
	c-0.189-0.224-0.364-0.46-0.525-0.708c-0.003-0.006-0.144-0.25-0.168-0.29c0.163-0.499,0.712-0.17,0.741-0.174
	c0.168,0.101,0.293,0.137,0.493,0.235c0.055,0.027,0.111,0.055,0.169,0.081c0.688,0.325,1.353,0.461,1.974,0.407
	c0.32-0.027,0.641-0.113,0.927-0.248c0.383-0.18,0.7-0.444,0.917-0.762c0.215-0.315,0.342-0.681,0.389-1.12
	c0.034-0.326,0.024-0.685-0.033-1.127c-0.015-0.115-0.031-0.232-0.048-0.345C19.104,8.055,19.026,7.517,19.151,7
	c0.031-0.13-0.025-0.264-0.141-0.332c-0.088-0.051-0.193-0.055-0.282-0.013c-0.027,0.013-0.053,0.031-0.076,0.052
	c-0.274,0.253-0.579,0.511-0.924,0.673c-0.126,0.059-0.314,0.117-0.444,0.162c0.135-0.426,0.216-0.935,0.134-1.366
	c-0.16-0.831-0.711-1.502-1.174-1.993c-0.458-0.487-0.889-1.053-1.281-1.682c-0.082-0.132-0.248-0.179-0.385-0.114
	c-0.011,0.005-0.021,0.01-0.032,0.017c-0.047,0.03-0.083,0.07-0.107,0.115c-0.074,0.085-0.242,0.278-0.336,0.607L14.095,3.15
	c-0.045,0.158-0.091,0.319-0.12,0.49c-0.109,0.635,0.088,1.203,0.193,1.816c0.054,0.313,0.069,0.512,0.013,0.735
	c-0.069,0.279-0.27,0.71-0.674,0.644c-0.175-0.028-0.226-0.193-0.229-0.296c-0.006-0.172,0.178-0.768,0.217-0.918
	c0.109-0.419,0.161-0.868,0.135-1.328c-0.019-0.327-0.1-0.71-0.331-1.079c-0.142-0.225-0.368-0.542-0.771-0.734
	c-0.084-0.041-0.416-0.063-0.418-0.025C12.1,2.59,12.177,2.658,12.196,2.829c0.022,0.19,0.028,0.346-0.067,0.553
	c-0.016,0.033-0.032,0.079-0.064,0.095c-0.004,0.002-0.008,0.003-0.012,0.003c-0.117,0.037-0.276-0.067-0.386-0.176
	c-0.171-0.17-0.31-0.376-0.457-0.595c-0.193-0.286-0.392-0.582-0.68-0.819c-0.295-0.243-0.65-0.393-0.963-0.525
	C9.457,1.319,9.245,1.222,9.04,1.128C8.917,1.071,8.789,1.013,8.683,0.965c-0.057-0.04-0.126-0.06-0.198-0.054
	c-0.036,0.003-0.07,0.013-0.101,0.028H8.382H8.38c0,0.001-0.001,0.001-0.001,0.001H8.378c0,0.001-0.001,0.001-0.002,0.001
	c-0.03,0.015-0.059,0.036-0.084,0.061C8.241,1.054,8.212,1.12,8.206,1.189C8.175,1.301,8.139,1.437,8.104,1.568
	C8.046,1.786,7.986,2.011,7.951,2.125C7.853,2.45,7.741,2.818,7.74,3.2C7.739,3.573,7.839,3.916,7.937,4.247
	C8.011,4.5,8.081,4.739,8.103,4.979c0.014,0.154-0.008,0.342-0.111,0.41C7.99,5.392,7.986,5.394,7.982,5.396
	C7.949,5.41,7.904,5.394,7.868,5.385c-0.22-0.059-0.337-0.163-0.469-0.302C7.281,4.959,7.278,4.856,7.167,4.776
	c-0.03-0.022-0.225,0.248-0.248,0.338c-0.108,0.434-0.01,0.811,0.073,1.063c0.137,0.414,0.38,0.72,0.621,0.944
	C7.949,7.435,8.328,7.682,8.72,7.864C8.861,7.93,9.438,8.17,9.566,8.283c0.077,0.069,0.171,0.213,0.082,0.365
	c-0.207,0.355-0.668,0.233-0.927,0.11c-0.208-0.101-0.352-0.239-0.558-0.48C7.758,7.806,7.448,7.292,6.889,6.97
	c-0.15-0.087-0.305-0.155-0.453-0.22L6.411,6.74C6.098,6.603,5.842,6.608,5.729,6.612c-0.051-0.01-0.105-0.008-0.157,0.009
	C5.561,6.625,5.55,6.63,5.539,6.635C5.403,6.699,5.332,6.856,5.381,7.003C5.615,7.707,5.776,8.4,5.858,9.064
	C5.941,9.733,6.105,10.586,6.644,11.239z"/>
</svg>
