<?xml version="1.0" encoding="utf-8"?>
<!-- Generator: Adobe Illustrator 16.0.0, SVG Export Plug-In . SVG Version: 6.00 Build 0)  -->
<!DOCTYPE svg PUBLIC "-//W3C//DTD SVG 1.1//EN" "http://www.w3.org/Graphics/SVG/1.1/DTD/svg11.dtd">
<svg version="1.1" id="Ebene_1" xmlns="http://www.w3.org/2000/svg" xmlns:xlink="http://www.w3.org/1999/xlink" x="0px" y="0px"
	 width="24px" height="24px" viewBox="0 0 24 24" enable-background="new 0 0 24 24" xml:space="preserve">
<path fill="none" d="M34.857,32.761l-0.024-0.003c0.024,0.006,0.021,0.002,0.033,0.006c0.008,0.001,0.011,0.001,0.013,0.002
	c0.001,0,0.001-0.001,0-0.001C34.876,32.764,34.867,32.763,34.857,32.761z"/>
<path fill="none" d="M34.762,31.546c0.013-0.003,0.025-0.005,0.039-0.008c0.016-0.002,0.031-0.004,0.046-0.005
	c0.017-0.008,0.031-0.015,0.042-0.021c-0.009-0.001-0.018-0.002-0.026-0.003c-0.01,0-0.02-0.002-0.029-0.003
	C34.812,31.518,34.787,31.53,34.762,31.546z"/>
<path d="M34.889,31.513c0.085-0.046,0.036-0.049-0.056-0.006c0.01,0.001,0.02,0.003,0.029,0.003
	C34.871,31.511,34.88,31.512,34.889,31.513z"/>
<path d="M20.001,0H4C1.791,0,0,1.791,0,4v16c0,2.209,1.791,4,4,4h16.001C22.21,24,24,22.209,24,20V4C24,1.791,22.21,0,20.001,0z
	 M23.001,20c0,1.657-1.344,3-3,3H4c-1.656,0-3-1.343-3-3V4c0-1.657,1.344-3,3-3h16.001c1.656,0,3,1.343,3,3V20z M10.393,19.647
	V18.45c0.608-0.076,1.081-0.597,1.081-1.226c0-0.682-0.555-1.235-1.236-1.235c-0.681,0-1.235,0.554-1.235,1.235
	c0,0.629,0.473,1.149,1.081,1.226v1.197c0,0.37,0.301,0.671,0.671,0.671h1.032v-0.31h-1.032
	C10.555,20.009,10.393,19.847,10.393,19.647z M9.313,17.225c0-0.511,0.415-0.926,0.925-0.926c0.511,0,0.926,0.415,0.926,0.926
	s-0.415,0.926-0.926,0.926C9.728,18.15,9.313,17.735,9.313,17.225z M18.184,19.404h-5.595v-0.465h5.595V19.404z M12.589,19.932h3.87
	v0.465h-3.87V19.932z M12.589,20.925h7.178v0.465h-7.178V20.925z M11.241,2.933H5.646V2.468h5.595V2.933z M11.241,3.925H4.971V3.46
	h6.271V3.925z M6.201,4.918V4.453h5.04v0.465H6.201z M15.187,7.119v-2.91c0-0.37-0.301-0.671-0.672-0.671h-2.483v0.31h2.483
	c0.2,0,0.362,0.162,0.362,0.361v2.91c-0.608,0.077-1.081,0.597-1.081,1.226c0,0.682,0.555,1.235,1.235,1.235
	c0.682,0,1.235-0.554,1.235-1.235C16.267,7.716,15.795,7.196,15.187,7.119z M15.031,9.271c-0.51,0-0.926-0.415-0.926-0.926
	c0-0.51,0.416-0.925,0.926-0.925c0.511,0,0.926,0.415,0.926,0.925C15.957,8.855,15.542,9.271,15.031,9.271z M5.124,16.317
	c0.008,0.009,0.017,0.018,0.024,0.025C5.139,16.335,5.131,16.326,5.124,16.317L5.124,16.317z M8.97,16.651
	c-0.067-0.06-0.134-0.121-0.199-0.18c-0.326-0.298-0.635-0.579-1.016-0.723c-0.096-0.036-0.157-0.131-0.15-0.232
	c0.005-0.078,0.049-0.146,0.113-0.185c0.021-0.012,0.042-0.021,0.065-0.026c0.279-0.065,0.549-0.174,0.801-0.323
	c0.092-0.054,0.181-0.113,0.265-0.177c-0.328-0.098-0.631-0.274-0.869-0.513c-0.459-0.461-0.646-1.1-0.759-1.605
	c-0.111-0.501-0.285-1.019-0.515-1.54C6.658,11.039,6.7,10.914,6.8,10.854c0.008-0.004,0.016-0.009,0.024-0.013
	c0.039-0.017,0.08-0.022,0.119-0.018c0.086-0.012,0.281-0.035,0.53,0.048l0.02,0.006c0.118,0.039,0.241,0.079,0.362,0.135
	c0.271,0.123,0.511,0.283,0.689,0.409c0.111,0.078,0.222,0.159,0.328,0.237c0.1,0.074,0.202,0.15,0.305,0.222
	c0.029,0.021,0.061,0.043,0.09,0.065c0.158,0.114,0.32,0.233,0.471,0.251c0.063,0.007,0.142-0.011,0.203-0.047
	c0.048-0.028,0.081-0.064,0.09-0.098c0.002-0.009,0.008-0.035-0.021-0.086c-0.068-0.112-0.199-0.217-0.353-0.278
	c-0.108-0.045-0.225-0.086-0.337-0.126c-0.313-0.111-0.637-0.226-0.918-0.44c-0.199-0.153-0.392-0.417-0.525-0.723
	c-0.082-0.187-0.211-0.55-0.159-0.89c0.011-0.07,0.052-0.13,0.111-0.164C7.853,9.331,7.88,9.321,7.908,9.316
	C8.007,9.3,8.105,9.349,8.152,9.438c0.068,0.13,0.216,0.258,0.336,0.292c0.027,0.008,0.064,0.014,0.088,0
	c0.002-0.002,0.005-0.003,0.008-0.006C8.657,9.665,8.66,9.52,8.639,9.402C8.604,9.221,8.533,9.044,8.458,8.855
	c-0.099-0.246-0.2-0.5-0.227-0.785C8.204,7.778,8.263,7.488,8.314,7.233c0.018-0.09,0.047-0.267,0.076-0.437
	c0.017-0.104,0.034-0.21,0.05-0.298c0-0.053,0.018-0.105,0.052-0.148c0.018-0.021,0.039-0.04,0.063-0.054
	c0.001-0.001,0.001-0.001,0.002-0.001C8.558,6.295,8.559,6.295,8.56,6.294C8.582,6.28,8.608,6.271,8.636,6.266
	c0.055-0.01,0.109,0,0.155,0.026C8.876,6.32,8.978,6.356,9.076,6.391c0.163,0.057,0.332,0.116,0.42,0.143
	c0.248,0.078,0.53,0.167,0.773,0.331c0.237,0.16,0.411,0.371,0.579,0.576c0.129,0.156,0.25,0.304,0.393,0.421
	c0.092,0.075,0.221,0.143,0.309,0.107c0.003-0.002,0.006-0.003,0.009-0.004c0.023-0.015,0.035-0.05,0.042-0.077
	c0.027-0.122-0.014-0.313-0.095-0.436c-0.056-0.083-0.051-0.193,0.011-0.271c0.019-0.022,0.04-0.042,0.064-0.056
	c0.059-0.035,0.131-0.043,0.198-0.019c0.321,0.118,0.578,0.406,0.702,0.567c0.203,0.265,0.343,0.56,0.38,0.809
	c0.054,0.35-0.001,0.688-0.055,1.017c-0.019,0.117-0.038,0.238-0.052,0.356c-0.019,0.163,0.009,0.329,0.075,0.442
	c0.03,0.051,0.056,0.058,0.064,0.06c0.033,0.009,0.081-0.003,0.129-0.031c0.062-0.036,0.114-0.096,0.139-0.155
	c0.057-0.141,0.031-0.34,0.006-0.534c-0.005-0.036-0.009-0.073-0.013-0.11c-0.015-0.123-0.031-0.251-0.048-0.373
	c-0.018-0.132-0.036-0.267-0.052-0.402c-0.023-0.217-0.048-0.505-0.026-0.801c0.01-0.133,0.033-0.26,0.057-0.383l0.004-0.02
	c0.048-0.258,0.162-0.418,0.213-0.488c0.016-0.036,0.04-0.07,0.073-0.096c0.008-0.006,0.016-0.011,0.023-0.016
	c0.1-0.059,0.229-0.035,0.302,0.06c0.106,0.139,0.216,0.271,0.327,0.4c-0.053,0.055-0.104,0.113-0.146,0.177
	c-0.124-0.144-0.25-0.286-0.365-0.437c0.015,0.018-0.144,0.146-0.199,0.442c-0.022,0.125-0.047,0.25-0.057,0.377
	c-0.019,0.253-0.002,0.507,0.026,0.758c0.028,0.259,0.069,0.517,0.099,0.775c0.026,0.239,0.084,0.527-0.009,0.757
	c-0.044,0.109-0.132,0.207-0.235,0.268c-0.173,0.103-0.387,0.103-0.512-0.11c-0.099-0.169-0.128-0.39-0.105-0.587
	c0.051-0.44,0.175-0.877,0.108-1.311c-0.066-0.435-0.517-1.041-0.934-1.193c0.168,0.254,0.218,0.697-0.023,0.84
	c-0.012,0.007-0.024,0.014-0.038,0.02c-0.187,0.076-0.394-0.02-0.543-0.143c-0.355-0.292-0.573-0.728-0.955-0.985
	C9.926,6.912,9.675,6.833,9.426,6.755C9.273,6.707,8.902,6.574,8.681,6.499L8.677,6.494c0,0.001,0,0.002,0,0.004
	C8.676,6.497,8.674,6.497,8.673,6.496l0.003,0.006c-0.041,0.23-0.103,0.62-0.134,0.777c-0.052,0.255-0.104,0.514-0.08,0.77
	c0.042,0.459,0.319,0.859,0.404,1.311c0.036,0.191,0.021,0.419-0.137,0.545c-0.012,0.01-0.023,0.018-0.035,0.024
	c-0.241,0.143-0.606-0.114-0.747-0.384C7.88,9.984,8.194,10.67,8.544,10.938c0.349,0.267,0.791,0.369,1.201,0.536
	c0.184,0.074,0.363,0.207,0.463,0.374c0.128,0.212,0.023,0.4-0.148,0.502c-0.104,0.062-0.231,0.092-0.349,0.078
	C9.466,12.398,9.24,12.21,9.044,12.07c-0.213-0.149-0.419-0.31-0.633-0.459c-0.207-0.146-0.421-0.282-0.651-0.388
	c-0.116-0.053-0.237-0.092-0.358-0.132c-0.285-0.094-0.474-0.017-0.483-0.038c0.225,0.509,0.408,1.039,0.529,1.584
	c0.121,0.544,0.303,1.097,0.696,1.491c0.316,0.316,0.759,0.509,1.218,0.53c-0.193,0.203-0.417,0.38-0.659,0.523
	c-0.27,0.159-0.563,0.278-0.866,0.349c0.49,0.185,0.863,0.565,1.249,0.911C9.04,16.508,9.004,16.579,8.97,16.651
	C8.97,16.651,8.97,16.651,8.97,16.651z M14.65,8.374c-0.106-0.094-0.202-0.198-0.303-0.297c0.029-0.071,0.072-0.135,0.121-0.193
	c0.11,0.11,0.222,0.217,0.335,0.315c0.229,0.202,0.486,0.45,0.696,0.747c-0.061,0.049-0.128,0.088-0.202,0.115
	C15.114,8.809,14.887,8.581,14.65,8.374z M10.985,17.225c0,0.038-0.006,0.074-0.011,0.109c-0.142,0.039-0.284,0.062-0.425,0.062
	c-0.293,0-0.58-0.077-0.879-0.237c-0.054-0.029-0.108-0.061-0.162-0.095c0.018-0.078,0.048-0.151,0.089-0.219
	c0.287,0.187,0.604,0.319,0.951,0.318c0.144,0,0.286-0.026,0.424-0.07C10.979,17.136,10.985,17.18,10.985,17.225z M17.437,11.64
	c-0.02-0.087-0.041-0.175-0.062-0.26c-0.104-0.429-0.202-0.835-0.146-1.237c0.008-0.051-0.001-0.105-0.029-0.153
	c-0.063-0.105-0.195-0.144-0.303-0.09c-0.006,0.002-0.011,0.005-0.016,0.008c-0.006,0.004-0.013,0.008-0.019,0.013
	c-0.015,0.011-0.028,0.023-0.039,0.036c-0.19,0.212-0.414,0.395-0.665,0.543c-0.092,0.055-0.186,0.104-0.282,0.147
	c0.072-0.336,0.063-0.686-0.032-1.01c-0.011-0.038-0.026-0.074-0.04-0.111c-0.064,0.043-0.134,0.08-0.205,0.111
	c0.007,0.022,0.017,0.043,0.022,0.065c0.126,0.43,0.082,0.91-0.12,1.322c0.271-0.071,0.533-0.183,0.776-0.326
	c0.269-0.159,0.514-0.358,0.723-0.591c-0.077,0.535,0.091,1.063,0.209,1.584c0.119,0.521,0.181,1.098-0.084,1.579
	c-0.13,0.233-0.328,0.423-0.561,0.561c-0.188,0.111-0.4,0.189-0.614,0.229c-0.478,0.089-0.969,0.005-1.417-0.156
	c-0.217-0.077-0.429-0.174-0.659-0.198c-0.18-0.019-0.373,0.241-0.686,0.189c-0.066-0.094-0.131-0.189-0.192-0.287
	c-0.03-0.049-0.061-0.098-0.091-0.147l-0.008-0.013c0.006-0.005,0.011-0.012,0.016-0.018c0.241-0.331,0.464-0.676,0.659-1.037
	c0.194-0.361,0.361-0.738,0.483-1.132c0.121-0.394,0.196-0.804,0.199-1.217c0.001-0.189-0.016-0.379-0.046-0.565
	c-0.061-0.045-0.119-0.093-0.172-0.147c0.007,0.04,0.017,0.08,0.021,0.12c0.026,0.194,0.032,0.392,0.021,0.587
	c-0.021,0.393-0.111,0.779-0.245,1.148c-0.134,0.37-0.312,0.725-0.515,1.063c-0.186,0.307-0.392,0.6-0.614,0.881l-0.073-0.121
	l-0.724-1.203l-0.396-0.662c0.002-0.003,0.004-0.006,0.006-0.01l0.048-0.081l0.023-0.04l0.022-0.042l0.043-0.083l0.04-0.085
	c0.007-0.015,0.014-0.028,0.021-0.042l0.019-0.044c0.012-0.028,0.024-0.057,0.035-0.086c0.022-0.058,0.046-0.116,0.065-0.175
	c0.021-0.059,0.037-0.117,0.055-0.177c0.009-0.029,0.017-0.06,0.025-0.09l0.012-0.044l0.01-0.046c0.029-0.119,0.053-0.24,0.071-0.36
	c0.004-0.03,0.01-0.062,0.013-0.092l0.012-0.091c0.007-0.061,0.013-0.121,0.017-0.183c0.009-0.121,0.015-0.243,0.015-0.364
	c0.001-0.122-0.002-0.243-0.01-0.364c-0.004-0.061-0.009-0.121-0.015-0.182c-0.003-0.03-0.007-0.061-0.01-0.091
	c-0.002-0.015-0.004-0.03-0.007-0.045c-0.003-0.016-0.009-0.03-0.024-0.044c-0.001-0.001-0.002-0.001-0.002-0.002
	c-0.022-0.018-0.055-0.014-0.072,0.009l-0.002,0.003C11.91,8.31,11.907,8.325,11.907,8.34l0.003,0.044
	c0.001,0.029,0.002,0.059,0.003,0.088c0.001,0.06,0.001,0.118,0.001,0.177c-0.002,0.118-0.008,0.236-0.018,0.354
	c-0.02,0.235-0.055,0.468-0.105,0.695c-0.025,0.114-0.055,0.228-0.09,0.338l-0.013,0.042l-0.014,0.041
	c-0.01,0.027-0.019,0.055-0.028,0.082c-0.021,0.055-0.04,0.108-0.063,0.162c-0.068,0.169-0.152,0.332-0.247,0.485l-0.147-0.246
	L10.47,9.396L10.11,8.792L9.753,8.188c-0.237-0.403-0.477-0.806-0.712-1.21l0,0C9.022,6.945,8.981,6.936,8.95,6.954
	c-0.031,0.018-0.042,0.059-0.023,0.09c0.236,0.404,0.47,0.81,0.704,1.215l0.351,0.608l0.35,0.609l0.696,1.219l0.155,0.272
	c-0.198,0.014-0.399,0.01-0.6-0.015c-0.057-0.005-0.114-0.014-0.172-0.021c-0.028-0.005-0.057-0.011-0.085-0.016l-0.043-0.007
	L10.24,10.9c-0.114-0.022-0.227-0.052-0.339-0.084c-0.225-0.065-0.445-0.146-0.661-0.242c-0.107-0.048-0.213-0.1-0.317-0.155
	c-0.053-0.027-0.104-0.056-0.155-0.086c-0.025-0.015-0.051-0.029-0.075-0.045l-0.038-0.023c-0.013-0.007-0.027-0.012-0.047-0.009
	l-0.004,0.001c-0.001,0-0.002,0-0.003,0c-0.027,0.007-0.045,0.034-0.039,0.062c0.005,0.021,0.015,0.033,0.026,0.043
	c0.013,0.01,0.024,0.019,0.037,0.027c0.024,0.018,0.05,0.035,0.074,0.052c0.051,0.035,0.101,0.068,0.152,0.101
	c0.103,0.065,0.207,0.126,0.314,0.185c0.106,0.058,0.216,0.112,0.327,0.162c0.056,0.025,0.111,0.05,0.168,0.073l0.085,0.034
	c0.028,0.011,0.058,0.021,0.086,0.031c0.115,0.042,0.232,0.08,0.352,0.112l0.044,0.013l0.045,0.011
	c0.03,0.008,0.061,0.015,0.09,0.021c0.061,0.013,0.121,0.026,0.183,0.037c0.061,0.011,0.122,0.019,0.184,0.027
	c0.031,0.004,0.063,0.006,0.094,0.01l0.046,0.005c0.016,0.001,0.031,0.001,0.047,0.002l0.094,0.006l0.094,0.002l0.047,0.001
	l0.047-0.001l0.095-0.003c0.003,0,0.007,0,0.01,0c0.017-0.002,0.032-0.006,0.047-0.013l0.375,0.659l0.691,1.223l0.073,0.13
	c-0.359,0.061-0.722,0.102-1.086,0.117c-0.395,0.016-0.79,0-1.179-0.06c-0.389-0.061-0.771-0.168-1.125-0.338
	c-0.177-0.085-0.347-0.186-0.505-0.302s-0.306-0.248-0.439-0.394l0,0c-0.021-0.022-0.057-0.025-0.08-0.006
	c-0.025,0.021-0.028,0.058-0.008,0.082c0.132,0.157,0.278,0.303,0.438,0.433c0.16,0.129,0.333,0.243,0.515,0.342
	c0.363,0.196,0.76,0.327,1.163,0.41s0.814,0.118,1.225,0.121s0.82-0.026,1.227-0.078c0.002-0.001,0.005-0.001,0.008-0.001
	c0.01-0.002,0.019-0.005,0.027-0.008c0.031,0.054,0.062,0.108,0.094,0.163c0.064,0.109,0.132,0.217,0.202,0.323
	c-0.125,0.244-0.405,0.294-0.47,0.449c-0.09,0.214-0.107,0.445-0.144,0.672c-0.075,0.471-0.237,0.941-0.545,1.318
	c-0.076,0.094-0.163,0.178-0.257,0.256c0.027,0.078,0.049,0.157,0.062,0.241c0.137-0.104,0.267-0.218,0.376-0.351
	c0.302-0.371,0.502-0.852,0.594-1.429c0.007-0.048,0.014-0.096,0.021-0.142c0.024-0.17,0.047-0.33,0.105-0.472
	c0.015-0.018,0.067-0.052,0.102-0.075c0.087-0.057,0.205-0.135,0.299-0.261c0.016,0.022,0.032,0.045,0.049,0.068
	c0.142,0.193,0.294,0.38,0.46,0.556c0.166,0.177,0.345,0.342,0.54,0.491c0.194,0.15,0.404,0.283,0.631,0.393
	c0.057,0.026,0.114,0.052,0.174,0.075c0.059,0.024,0.118,0.046,0.18,0.065s0.124,0.036,0.188,0.051
	c0.021,0.006,0.044,0.01,0.066,0.015c0.043,0.022,0.093,0.031,0.145,0.023l0.008-0.002l0.009-0.001l0.008-0.001
	c0.003-0.001,0.007-0.002,0.017-0.004c-0.178,0.08,0.381-0.047,0.034-0.442c-0.046-0.016-0.04-0.011-0.049-0.013
	c-0.005-0.001-0.008-0.001-0.01-0.002h-0.006l-0.014-0.002h-0.011c-0.009-0.001-0.019-0.001-0.028-0.002
	c-0.004,0.002-0.009,0.005-0.015,0.008c-0.006,0-0.012,0.001-0.018,0.001c-0.005,0.002-0.01,0.002-0.015,0.003
	c0.01-0.005,0.019-0.01,0.026-0.014c-0.021-0.002-0.043-0.005-0.064-0.008c-0.051-0.007-0.103-0.017-0.154-0.029
	c-0.052-0.012-0.103-0.026-0.153-0.043c-0.052-0.016-0.103-0.034-0.153-0.054c-0.202-0.08-0.396-0.188-0.58-0.313
	c-0.185-0.126-0.357-0.271-0.521-0.427c-0.162-0.158-0.314-0.328-0.456-0.507c-0.011-0.014-0.021-0.027-0.032-0.042
	c0.159-0.02,0.287-0.087,0.381-0.137c0.036-0.02,0.092-0.049,0.114-0.054c0.152,0.018,0.304,0.075,0.464,0.136
	c0.044,0.016,0.09,0.033,0.135,0.05c0.551,0.197,1.067,0.253,1.538,0.166c0.243-0.045,0.481-0.134,0.69-0.257
	c0.279-0.166,0.502-0.39,0.646-0.648c0.141-0.257,0.211-0.546,0.215-0.885C17.547,12.246,17.512,11.974,17.437,11.64z
	 M15.485,16.012c0.003,0,0.007,0.001,0.008,0.001v0.001c-0.001-0.001-0.002-0.001-0.005-0.001c-0.005-0.002-0.003,0-0.013-0.002
	L15.485,16.012z"/>
</svg>
