<?xml version="1.0" encoding="utf-8"?>
<!-- Generator: Adobe Illustrator 16.0.0, SVG Export Plug-In . SVG Version: 6.00 Build 0)  -->
<!DOCTYPE svg PUBLIC "-//W3C//DTD SVG 1.1//EN" "http://www.w3.org/Graphics/SVG/1.1/DTD/svg11.dtd">
<svg version="1.1" id="Ebene_1" xmlns="http://www.w3.org/2000/svg" xmlns:xlink="http://www.w3.org/1999/xlink" x="0px" y="0px"
	 width="24px" height="24px" viewBox="0 0 24 24" enable-background="new 0 0 24 24" xml:space="preserve">
<path d="M10.491,3.846c0.204,0.2,0.306,0.475,0.306,0.823c0,0.345-0.157,0.685-0.47,1.021L10.01,6.009
	c-0.141,0.16-0.212,0.389-0.212,0.689H9.261c0.004-0.234,0.03-0.42,0.078-0.556c0.048-0.136,0.147-0.287,0.296-0.453l0.38-0.399
	c0.163-0.188,0.244-0.389,0.244-0.604c0-0.207-0.053-0.369-0.16-0.486S9.839,4.025,9.635,4.025c-0.198,0-0.356,0.054-0.476,0.16
	c-0.12,0.107-0.18,0.25-0.18,0.43H8.441c0.004-0.32,0.116-0.578,0.335-0.774c0.22-0.197,0.506-0.295,0.858-0.295
	C10.001,3.545,10.286,3.646,10.491,3.846z M9.554,7.322c-0.105,0-0.184,0.03-0.237,0.091s-0.08,0.136-0.08,0.226
	s0.027,0.164,0.08,0.223C9.371,7.92,9.449,7.95,9.554,7.95c0.104,0,0.184-0.029,0.238-0.088c0.054-0.059,0.082-0.133,0.082-0.223
	S9.846,7.474,9.792,7.413S9.659,7.322,9.554,7.322z M12.857,18.522L12.857,18.522c-0.003-0.004-0.005-0.008-0.009-0.012
	C12.851,18.515,12.853,18.518,12.857,18.522z M12.84,18.498l-0.003-0.002c0.004,0.006,0.007,0.009,0.011,0.015
	c-0.003-0.005-0.007-0.01-0.009-0.014L12.84,18.498z M12.883,18.51c-0.023-0.005-0.039-0.011-0.042-0.012
	C12.844,18.499,12.86,18.505,12.883,18.51L12.883,18.51z M14.917,5.337h-0.806l1.64,2.306h0.417l2.374-4.324l-0.931,0.02
	l-1.662,3.465L14.917,5.337z M18.207,4.766c0.438,0.471,0.704,1.068,0.704,1.721c0,1.513-1.405,2.739-3.139,2.739
	c-0.969,0-1.834-0.384-2.41-0.986c-0.23,0.215-0.482,0.417-0.771,0.587c-0.226,0.133-0.96,1.876-1.356,1.876
	c-0.242,0,0.143-1.294-0.072-1.294c-0.005,0-0.011,0.001-0.016,0.002c-0.479,0.12-0.991,0.185-1.523,0.185
	c-2.683,0-4.858-1.653-4.858-3.692c0-1.914,1.914-3.486,4.366-3.674c0.162-0.012,0.326-0.019,0.493-0.019
	c0.166,0,0.331,0.006,0.493,0.019c1.69,0.129,3.112,0.923,3.84,2.028c0.514-0.319,1.14-0.509,1.817-0.509
	c0.392,0,0.763,0.067,1.108,0.182l-0.185,0.384c-0.289-0.09-0.599-0.143-0.924-0.143c-1.497,0-2.715,1.039-2.715,2.315
	c0,1.277,1.218,2.315,2.715,2.315s2.716-1.039,2.716-2.315c0-0.495-0.185-0.954-0.496-1.33L18.207,4.766z M12.956,7.689
	c-0.204-0.363-0.322-0.77-0.322-1.202c0-0.716,0.318-1.366,0.833-1.854c-0.651-1.069-2.127-1.819-3.845-1.819
	c-2.319,0-4.205,1.362-4.205,3.036c0,1.673,1.886,3.036,4.205,3.036C10.982,8.886,12.187,8.414,12.956,7.689z M24,4v16
	c0,2.209-1.791,4-4,4H4c-2.209,0-4-1.791-4-4V4c0-2.209,1.791-4,4-4h16C22.209,0,24,1.791,24,4z M23,4c0-1.657-1.343-3-3-3H4
	C2.343,1,1,2.343,1,4v16c0,1.657,1.343,3,3,3h16c1.657,0,3-1.343,3-3V4z M13.049,18.32c0.001-0.003,0.002-0.005,0.003-0.008
	c0.021,0.026,0.147,0.181,0.149,0.184c0.141,0.154,0.29,0.301,0.448,0.435c0.159,0.134,0.328,0.255,0.506,0.357
	s0.365,0.188,0.558,0.247c0.048,0.015,0.097,0.028,0.146,0.04c0.049,0.011,0.098,0.021,0.146,0.028
	c0.049,0.007,0.097,0.013,0.146,0.016c0.021,0.001,0.041,0.002,0.062,0.002c-0.008,0.004-0.017,0.01-0.024,0.016
	c0.004-0.002,0.009-0.003,0.014-0.004s0.01-0.002,0.016-0.003c0.005-0.003,0.011-0.006,0.014-0.008c0.009,0,0.018,0,0.027-0.001
	h0.01h0.013h0.005c0.003,0.001,0.006,0.001,0.01,0.001c0.009,0.002,0.003-0.002,0.046,0.009c0.342,0.341-0.177,0.498-0.014,0.411
	c-0.009,0.003-0.013,0.004-0.016,0.005l-0.007,0.001l-0.008,0.002l-0.009,0.002c-0.047,0.012-0.095,0.007-0.136-0.012
	c-0.021-0.002-0.042-0.005-0.063-0.008c-0.061-0.009-0.12-0.021-0.179-0.034c-0.058-0.014-0.115-0.029-0.171-0.047
	c-0.057-0.018-0.111-0.037-0.166-0.058c-0.217-0.085-0.42-0.192-0.608-0.316s-0.364-0.265-0.526-0.416
	c-0.164-0.15-0.313-0.313-0.455-0.481c-0.042-0.05-0.079-0.095-0.127-0.157c0.002,0.001,0.014-0.006,0.025-0.013
	c0.037,0.008,0.088,0.012,0.13-0.022c0.032-0.026,0.04-0.063,0.042-0.096v0.001c0.01-0.008,0.018-0.015,0.016-0.017
	c-0.011-0.021-0.011-0.03-0.02-0.048c-0.004-0.015-0.006-0.024-0.006-0.024S13.047,18.312,13.049,18.32z M15.23,20.048
	c0.009,0.002,0.007,0,0.012,0.001c0.003,0.001,0.004,0.001,0.004,0.001c0.001,0,0.001,0,0.001,0
	c-0.002-0.001-0.005-0.001-0.008-0.001L15.23,20.048z M13.055,18.392c0.002-0.024,0-0.047-0.004-0.063l0,0
	C13.055,18.344,13.057,18.367,13.055,18.392z M16.718,15.479c-0.116-0.393-0.226-0.763-0.188-1.143
	c0.009-0.095-0.046-0.183-0.135-0.217c-0.068-0.025-0.145-0.015-0.204,0.025c-0.019,0.013-0.035,0.028-0.05,0.046
	c-0.172,0.213-0.364,0.432-0.596,0.589c-0.085,0.057-0.215,0.121-0.304,0.169c0.055-0.317,0.062-0.687-0.041-0.98
	c-0.198-0.567-0.662-0.973-1.044-1.263c-0.378-0.287-0.745-0.633-1.091-1.029c-0.071-0.083-0.196-0.095-0.287-0.033
	c-0.007,0.005-0.015,0.01-0.021,0.016c-0.031,0.026-0.053,0.059-0.065,0.094c-0.045,0.068-0.146,0.226-0.181,0.47l-0.003,0.018
	c-0.017,0.116-0.034,0.236-0.038,0.36c-0.014,0.462,0.185,0.837,0.322,1.257c0.07,0.214,0.101,0.353,0.083,0.518
	c-0.022,0.204-0.122,0.534-0.42,0.537c-0.128,0.001-0.181-0.109-0.194-0.182c-0.021-0.119,0.051-0.563,0.064-0.674
	c0.036-0.309,0.028-0.632-0.037-0.953c-0.046-0.229-0.144-0.489-0.347-0.721c-0.124-0.142-0.319-0.337-0.628-0.424
	c-0.064-0.018-0.305,0.007-0.303,0.034c0.007,0.097,0.07,0.135,0.102,0.253c0.035,0.131,0.055,0.241,0.007,0.398
	c-0.008,0.025-0.015,0.061-0.037,0.075c-0.003,0.001-0.005,0.003-0.008,0.004c-0.081,0.04-0.206-0.014-0.295-0.077
	c-0.14-0.099-0.261-0.227-0.389-0.364c-0.167-0.178-0.34-0.362-0.571-0.495c-0.236-0.135-0.506-0.196-0.745-0.251
	c-0.083-0.02-0.245-0.062-0.402-0.104c-0.094-0.025-0.192-0.05-0.273-0.071c-0.045-0.021-0.097-0.026-0.148-0.013
	c-0.025,0.006-0.049,0.017-0.07,0.031c0,0,0,0-0.001,0.001c0,0,0,0-0.001,0.001c0,0,0,0-0.001,0c0,0,0,0,0,0
	c0,0,0,0.001-0.001,0.001c-0.021,0.015-0.039,0.032-0.055,0.053c-0.031,0.042-0.045,0.093-0.043,0.142
	c-0.011,0.083-0.023,0.183-0.035,0.28c-0.02,0.161-0.041,0.327-0.054,0.412c-0.038,0.242-0.081,0.515-0.043,0.785
	c0.037,0.264,0.143,0.492,0.247,0.714c0.079,0.17,0.153,0.33,0.193,0.496c0.025,0.106,0.029,0.243-0.038,0.303
	c-0.002,0.002-0.004,0.004-0.007,0.006c-0.021,0.015-0.056,0.009-0.083,0.006c-0.165-0.014-0.259-0.073-0.368-0.154
	c-0.097-0.073-0.11-0.146-0.197-0.188c-0.024-0.013-0.137,0.202-0.144,0.269c-0.035,0.319,0.075,0.573,0.159,0.74
	c0.14,0.275,0.345,0.462,0.54,0.59c0.274,0.18,0.571,0.309,0.871,0.389c0.108,0.029,0.546,0.128,0.649,0.191
	c0.063,0.039,0.145,0.13,0.096,0.248c-0.114,0.275-0.457,0.246-0.655,0.19c-0.16-0.045-0.277-0.125-0.449-0.27
	c-0.339-0.283-0.613-0.607-1.047-0.767c-0.117-0.042-0.234-0.071-0.348-0.099l-0.019-0.005c-0.239-0.059-0.423-0.022-0.503-0.007
	c-0.038-0.001-0.076,0.008-0.112,0.026c-0.008,0.004-0.016,0.009-0.022,0.013c-0.092,0.063-0.126,0.183-0.077,0.28
	c0.239,0.468,0.424,0.938,0.55,1.395c0.127,0.463,0.331,1.044,0.784,1.438c0.235,0.205,0.58,0.336,0.894,0.402
	c-0.077,0.065-0.185,0.162-0.269,0.22c-0.232,0.156-0.507,0.254-0.768,0.335c-0.022,0.006-0.042,0.016-0.061,0.028
	c-0.06,0.04-0.098,0.107-0.1,0.18c-0.002,0.096,0.06,0.179,0.151,0.206c0.367,0.105,0.67,0.345,0.991,0.599
	c0.063,0.051,0.129,0.103,0.195,0.153c0.251,0.192,0.468,0.326,0.683,0.421c0.289,0.128,0.563,0.179,0.84,0.157
	c0.279-0.021,0.563-0.125,0.82-0.299c0.192-0.131,0.367-0.299,0.507-0.488c0.271-0.366,0.439-0.828,0.502-1.371
	c0.005-0.045,0.01-0.09,0.014-0.134c0.015-0.16,0.042-0.25,0.042-0.39c0.014-0.018,0.035-0.494,0.415-0.408
	c-0.08-0.104-0.157-0.211-0.23-0.32c-0.032-0.048-0.064-0.096-0.095-0.144c-0.008,0.003-0.017,0.006-0.025,0.009
	c-0.002,0-0.005,0.001-0.008,0.002c-0.378,0.077-0.762,0.134-1.147,0.16c-0.385,0.026-0.772,0.023-1.154-0.024
	c-0.381-0.048-0.758-0.141-1.107-0.297c-0.174-0.077-0.341-0.17-0.497-0.278s-0.299-0.232-0.429-0.368
	c-0.02-0.021-0.019-0.056,0.003-0.076c0.022-0.021,0.055-0.021,0.075-0.001h0c0.131,0.125,0.275,0.236,0.429,0.332
	c0.153,0.097,0.316,0.178,0.486,0.243c0.339,0.132,0.702,0.203,1.069,0.231c0.367,0.028,0.739,0.014,1.108-0.029
	c0.34-0.04,0.679-0.104,1.014-0.186l-0.074-0.114l-0.7-1.08l-0.379-0.582c-0.013,0.007-0.028,0.012-0.043,0.015
	c-0.002,0-0.006,0-0.009,0.001l-0.088,0.009l-0.044,0.005l-0.044,0.003l-0.088,0.004l-0.088,0.002c-0.015,0-0.03,0.001-0.044,0.001
	l-0.044-0.001c-0.029-0.001-0.059-0.001-0.088-0.003c-0.058-0.003-0.116-0.006-0.174-0.012c-0.058-0.005-0.115-0.014-0.172-0.021
	c-0.028-0.004-0.057-0.01-0.085-0.014l-0.043-0.008l-0.042-0.008c-0.113-0.021-0.224-0.048-0.334-0.078
	c-0.027-0.008-0.055-0.015-0.082-0.023l-0.082-0.025c-0.054-0.018-0.107-0.035-0.16-0.056c-0.106-0.039-0.211-0.081-0.314-0.127
	c-0.103-0.046-0.203-0.095-0.302-0.147c-0.049-0.026-0.098-0.054-0.146-0.081c-0.024-0.015-0.048-0.029-0.072-0.044
	c-0.012-0.007-0.024-0.015-0.036-0.022s-0.021-0.019-0.027-0.037c-0.007-0.025,0.008-0.052,0.034-0.06c0,0,0.002,0,0.002-0.001H8.55
	c0.019-0.005,0.032-0.002,0.044,0.004l0.036,0.02c0.024,0.012,0.049,0.024,0.073,0.036c0.049,0.023,0.098,0.046,0.148,0.068
	c0.1,0.043,0.202,0.083,0.305,0.12c0.206,0.073,0.417,0.133,0.629,0.177c0.107,0.021,0.214,0.04,0.322,0.053l0.041,0.005
	l0.041,0.004c0.027,0.003,0.054,0.006,0.081,0.008c0.054,0.003,0.108,0.008,0.162,0.009c0.188,0.008,0.377-0.004,0.563-0.03
	l-0.157-0.24l-0.704-1.076l-0.353-0.538l-0.354-0.537c-0.236-0.357-0.472-0.716-0.71-1.072c-0.019-0.028-0.01-0.065,0.019-0.085
	c0.029-0.019,0.067-0.012,0.085,0.016l0,0C9.06,12.52,9.3,12.875,9.54,13.23l0.36,0.532l0.361,0.532l0.725,1.063l0.148,0.217
	c0.083-0.148,0.155-0.304,0.212-0.466c0.019-0.051,0.036-0.103,0.052-0.154c0.008-0.025,0.016-0.052,0.023-0.078l0.011-0.039
	l0.011-0.039c0.028-0.104,0.051-0.211,0.07-0.318c0.039-0.214,0.062-0.432,0.07-0.65c0.004-0.108,0.004-0.218,0.001-0.327
	c-0.001-0.055-0.004-0.109-0.008-0.163c-0.001-0.027-0.004-0.055-0.006-0.081l-0.004-0.041c-0.001-0.014,0.001-0.027,0.012-0.043
	l0.002-0.003c0.015-0.022,0.045-0.028,0.067-0.014c0,0.001,0.001,0.001,0.002,0.002c0.016,0.012,0.021,0.024,0.025,0.038
	c0.003,0.015,0.005,0.028,0.008,0.042c0.005,0.027,0.009,0.056,0.013,0.083c0.008,0.055,0.015,0.11,0.021,0.167
	c0.012,0.11,0.02,0.223,0.024,0.335s0.004,0.226,0.001,0.338c-0.001,0.057-0.005,0.113-0.008,0.17l-0.007,0.085
	c-0.002,0.028-0.006,0.057-0.009,0.085c-0.013,0.113-0.029,0.227-0.051,0.339l-0.008,0.042l-0.009,0.043
	c-0.006,0.027-0.012,0.056-0.019,0.084c-0.015,0.056-0.028,0.112-0.045,0.168c-0.016,0.056-0.035,0.11-0.054,0.166
	c-0.009,0.027-0.02,0.055-0.03,0.082l-0.015,0.041c-0.005,0.014-0.011,0.026-0.017,0.041l-0.034,0.081l-0.038,0.08l-0.019,0.039
	l-0.021,0.039l-0.041,0.079c-0.001,0.003-0.003,0.006-0.005,0.01l0.399,0.583l0.729,1.06l0.074,0.106
	c0.196-0.275,0.378-0.562,0.54-0.857c0.177-0.327,0.328-0.667,0.439-1.019c0.109-0.351,0.179-0.714,0.183-1.078
	c0.002-0.182-0.013-0.363-0.044-0.541c-0.032-0.179-0.082-0.354-0.149-0.521v-0.001c-0.011-0.027,0.003-0.059,0.031-0.07
	c0.027-0.011,0.058,0,0.069,0.026c0.078,0.171,0.14,0.351,0.182,0.535c0.043,0.185,0.067,0.374,0.074,0.564
	c0.015,0.382-0.039,0.767-0.137,1.139s-0.238,0.732-0.406,1.08s-0.363,0.683-0.576,1.005c-0.004,0.007-0.009,0.013-0.014,0.019
	l0.008,0.01c0.03,0.045,0.061,0.088,0.091,0.131c0.121,0.166,0.102,0.145,0.239,0.298c0,0,0.005,0.007,0.007,0.009
	c0.065-0.373,0.493-0.208,0.515-0.214c0.131,0.051,0.225,0.06,0.378,0.104c0.042,0.013,0.086,0.025,0.13,0.037
	c0.527,0.145,1.019,0.159,1.459,0.044c0.228-0.059,0.449-0.159,0.642-0.288c0.257-0.175,0.458-0.399,0.583-0.65
	c0.122-0.248,0.177-0.522,0.166-0.838c-0.008-0.234-0.052-0.485-0.137-0.791C16.765,15.638,16.741,15.557,16.718,15.479z"/>
</svg>
