<?xml version="1.0" encoding="utf-8"?>
<!-- Generator: Adobe Illustrator 16.0.0, SVG Export Plug-In . SVG Version: 6.00 Build 0)  -->
<!DOCTYPE svg PUBLIC "-//W3C//DTD SVG 1.1//EN" "http://www.w3.org/Graphics/SVG/1.1/DTD/svg11.dtd">
<svg version="1.1" id="Ebene_1" xmlns="http://www.w3.org/2000/svg" xmlns:xlink="http://www.w3.org/1999/xlink" x="0px" y="0px"
	 width="24px" height="24px" viewBox="0 0 24 24" enable-background="new 0 0 24 24" xml:space="preserve">
<path fill="#FFFFFF" d="M11.734,13.92c-0.005,0.01-0.012,0.02-0.017,0.027c0.011-0.015,0.01-0.014,0.017-0.025V13.92z"/>
<polygon fill="#FFFFFF" points="10.414,15.36 10.414,15.36 10.415,15.36 "/>
<path d="M12.219,9.835c0.004,0.007,0.007,0.011,0.01,0.018c-0.002-0.005-0.006-0.012-0.008-0.017L12.219,9.835z"/>
<path d="M14.736,12.142c0.003,0.001,0.005,0.001,0.005,0.001c0.001,0,0.001,0,0,0c-0.001-0.001-0.005-0.001-0.008-0.002l-0.01-0.002
	C14.733,12.142,14.731,12.14,14.736,12.142"/>
<path d="M16.534,19.335l1.737-3.621l0.973-0.021l-2.481,4.52h-0.435l-1.715-2.41h0.842L16.534,19.335z M9.434,22.399
	c-2.592,0.114-4.768-1.323-4.852-3.206c-0.083-1.882,1.957-3.507,4.549-3.622c0.459-0.021,0.91,0.017,1.349,0.093
	c0.042-0.052,0.085-0.105,0.128-0.159c0.466-0.589,0.954-1.319,1.11-1.558c0.005-0.009,0.011-0.019,0.016-0.026v0.002
	c0.017-0.025,0.037-0.059,0.037-0.059s-0.002,0.083-0.001,0.214c0.097,0.42,0.353,1.66,0.339,1.845
	c0.011,0.021,0.019,0.048,0.031,0.067c0.124,0.212,0.29,0.338,0.46,0.455c0.212,0.149,0.422,0.3,0.579,0.553
	c0.127-0.18,0.273-0.345,0.434-0.498c-0.262-0.27-0.912-0.718-0.912-0.718s-0.482-2.372-0.507-2.439
	c-0.077-0.154-0.208-0.247-0.361-0.255c-0.208-0.023-0.365,0.137-0.429,0.239c-0.001,0-0.388,0.669-0.545,0.907
	c-0.104,0.159-0.358,0.512-0.525,0.739c-0.399-0.053-0.808-0.084-1.232-0.064c-2.962,0.131-5.283,2.063-5.183,4.313
	c0.099,2.252,2.582,3.971,5.544,3.84c1.737-0.077,3.236-0.783,4.174-1.799c-0.159-0.151-0.307-0.311-0.434-0.486
	C12.39,21.691,11.018,22.33,9.434,22.399z M9.024,21.095c-0.059,0.066-0.088,0.149-0.087,0.25c0.001,0.098,0.032,0.181,0.091,0.245
	c0.06,0.064,0.147,0.096,0.262,0.095c0.116-0.001,0.204-0.034,0.263-0.1s0.088-0.148,0.087-0.247
	c-0.001-0.1-0.032-0.183-0.091-0.248c-0.061-0.067-0.149-0.101-0.265-0.1C9.169,20.991,9.082,21.026,9.024,21.095z M10.122,19.179
	c0.344-0.373,0.512-0.751,0.509-1.133c-0.004-0.384-0.118-0.688-0.347-0.906c-0.227-0.219-0.543-0.326-0.948-0.323
	c-0.389,0.003-0.704,0.115-0.945,0.334c-0.242,0.221-0.362,0.506-0.363,0.86l0.594-0.006c-0.002-0.199,0.064-0.358,0.194-0.477
	c0.132-0.118,0.307-0.18,0.525-0.182c0.225-0.002,0.397,0.061,0.516,0.19c0.119,0.128,0.179,0.307,0.181,0.534
	c0.002,0.238-0.086,0.46-0.264,0.669l-0.417,0.445c-0.162,0.185-0.27,0.353-0.322,0.503c-0.053,0.151-0.079,0.357-0.082,0.615
	l0.595-0.005c-0.003-0.331,0.072-0.586,0.226-0.764L10.122,19.179z M19.133,16.771l-0.241,0.439
	c0.438,0.454,0.714,1.025,0.714,1.659c0,1.444-1.38,2.622-3.075,2.622s-3.074-1.178-3.074-2.622c0-1.446,1.379-2.622,3.074-2.622
	c0.334,0,0.649,0.057,0.95,0.141l0.21-0.437c-0.365-0.111-0.752-0.184-1.16-0.184c-1.963,0-3.554,1.389-3.554,3.102
	s1.591,3.101,3.554,3.101s3.554-1.388,3.554-3.101C20.084,18.057,19.719,17.324,19.133,16.771z M5.876,7.443
	C5.806,6.88,5.67,6.291,5.471,5.694C5.43,5.569,5.488,5.435,5.605,5.38c0.009-0.004,0.018-0.008,0.028-0.011
	c0.045-0.015,0.091-0.017,0.134-0.008C5.861,5.359,6.079,5.353,6.346,5.47l0.02,0.009c0.126,0.056,0.257,0.113,0.385,0.186
	c0.474,0.273,0.737,0.709,1.081,1.11C8.008,6.98,8.129,7.098,8.306,7.183c0.219,0.105,0.61,0.208,0.786-0.093
	c0.076-0.129-0.004-0.252-0.07-0.31c-0.108-0.096-0.597-0.3-0.717-0.355C7.972,6.269,7.651,6.06,7.364,5.793
	c-0.203-0.189-0.41-0.45-0.525-0.801C6.769,4.778,6.684,4.458,6.776,4.09c0.02-0.076,0.185-0.305,0.211-0.286
	c0.093,0.067,0.096,0.154,0.197,0.26C7.295,4.182,7.395,4.27,7.582,4.319c0.03,0.009,0.069,0.022,0.097,0.01
	c0.003-0.002,0.006-0.004,0.009-0.006c0.086-0.057,0.105-0.217,0.093-0.348C7.763,3.771,7.703,3.569,7.64,3.354
	C7.558,3.073,7.472,2.783,7.473,2.465c0.002-0.323,0.095-0.636,0.179-0.912c0.03-0.097,0.08-0.288,0.13-0.473
	c0.03-0.112,0.061-0.227,0.087-0.322C7.874,0.7,7.898,0.643,7.941,0.6c0.022-0.022,0.046-0.039,0.073-0.052c0,0,0.001,0,0.001-0.001
	h0.001h0.001c0-0.001,0.001-0.001,0.001-0.001h0.001L8.02,0.545c0.026-0.012,0.055-0.02,0.085-0.022
	c0.061-0.005,0.121,0.012,0.168,0.045c0.09,0.04,0.199,0.09,0.304,0.138c0.174,0.081,0.354,0.163,0.446,0.202
	C9.289,1.02,9.59,1.147,9.841,1.353c0.244,0.201,0.414,0.453,0.577,0.695c0.125,0.186,0.243,0.362,0.389,0.506
	c0.092,0.092,0.227,0.18,0.327,0.15c0.004-0.001,0.007-0.002,0.01-0.004c0.027-0.013,0.042-0.052,0.054-0.08
	c0.081-0.176,0.077-0.309,0.058-0.47c-0.017-0.144-0.082-0.202-0.075-0.318c0.002-0.032,0.284-0.013,0.355,0.021
	c0.342,0.164,0.535,0.434,0.654,0.624c0.197,0.313,0.266,0.639,0.281,0.916c0.022,0.391-0.021,0.771-0.114,1.127
	c-0.033,0.127-0.189,0.634-0.184,0.779c0.003,0.088,0.046,0.227,0.194,0.252c0.344,0.056,0.514-0.311,0.572-0.547
	c0.048-0.19,0.034-0.359-0.011-0.624c-0.09-0.52-0.257-1.002-0.165-1.541c0.025-0.145,0.064-0.283,0.103-0.415l0.006-0.022
	c0.08-0.279,0.224-0.443,0.286-0.515c0.021-0.038,0.052-0.073,0.091-0.098c0.009-0.005,0.019-0.01,0.027-0.014
	c0.116-0.055,0.257-0.015,0.326,0.097c0.335,0.534,0.699,1.014,1.089,1.427c0.392,0.417,0.86,0.987,0.996,1.693
	c0.069,0.366,0.001,0.797-0.114,1.159c0.11-0.038,0.271-0.087,0.378-0.137c0.293-0.138,0.551-0.357,0.784-0.572
	c0.02-0.018,0.041-0.033,0.064-0.044c0.075-0.035,0.165-0.032,0.239,0.011c0.098,0.058,0.146,0.172,0.119,0.282
	c-0.106,0.438-0.04,0.895,0.03,1.379c0.013,0.096,0.027,0.195,0.041,0.293c0.047,0.376,0.056,0.679,0.026,0.957
	c-0.039,0.372-0.147,0.683-0.329,0.95c-0.185,0.27-0.454,0.494-0.778,0.646c-0.243,0.115-0.516,0.187-0.787,0.211
	c-0.527,0.046-1.09-0.069-1.676-0.344c-0.048-0.023-0.097-0.047-0.143-0.07C13.373,9.63,13.268,9.6,13.125,9.514
	c-0.024,0.003-0.491-0.275-0.629,0.149c0.021,0.035,0.14,0.241,0.143,0.245c0.137,0.21,0.285,0.412,0.445,0.601
	c0.162,0.189,0.337,0.364,0.524,0.522c0.188,0.155,0.39,0.293,0.603,0.401c0.053,0.027,0.106,0.053,0.161,0.076
	c0.054,0.023,0.109,0.044,0.164,0.063c0.055,0.018,0.11,0.035,0.165,0.047c0.023,0.006,0.047,0.011,0.07,0.016
	c-0.009,0.003-0.02,0.007-0.03,0.012c0.005,0,0.011-0.001,0.016-0.001c0.007-0.001,0.013-0.001,0.02-0.001
	c0.007-0.002,0.013-0.004,0.018-0.007c0.01,0.002,0.02,0.004,0.03,0.006l0.012,0.002l0.015,0.002l0.006,0.002
	c0.003,0,0.005,0.001,0.011,0.002c0.01,0.004,0.004-0.002,0.052,0.019c0.338,0.469-0.285,0.55-0.083,0.481
	c-0.011,0.001-0.016,0.002-0.019,0.002l-0.009,0.001h-0.01l-0.009,0.001c-0.058,0.003-0.111-0.012-0.155-0.041
	c-0.024-0.007-0.048-0.015-0.071-0.021c-0.068-0.023-0.135-0.048-0.2-0.076c-0.064-0.028-0.128-0.058-0.189-0.09
	c-0.063-0.032-0.123-0.065-0.182-0.101c-0.236-0.143-0.452-0.31-0.649-0.494s-0.376-0.384-0.539-0.594
	c-0.163-0.209-0.31-0.431-0.444-0.656c-0.041-0.067-0.076-0.128-0.121-0.211c0.002,0.003,0.017-0.004,0.032-0.01
	c0.041,0.018,0.096,0.033,0.152,0c0.038-0.023,0.046-0.063,0.055-0.099c0.015-0.008,0.031-0.017,0.03-0.02
	c0.001,0.003-0.016,0.011-0.03,0.019c0.013-0.056,0.012-0.11,0.012-0.11c-0.133-0.207-0.113-0.177-0.226-0.398
	c-0.029-0.056-0.057-0.112-0.084-0.171l-0.007-0.014c0.007-0.006,0.013-0.011,0.019-0.018c0.299-0.336,0.578-0.69,0.83-1.065
	c0.25-0.374,0.471-0.77,0.646-1.188c0.173-0.417,0.298-0.858,0.344-1.309c0.023-0.225,0.026-0.453,0.008-0.678
	C14,4.583,13.959,4.36,13.897,4.143c-0.01-0.032-0.044-0.052-0.077-0.044c-0.034,0.008-0.055,0.043-0.047,0.077
	c0.05,0.211,0.078,0.426,0.086,0.642s-0.006,0.432-0.038,0.645c-0.064,0.427-0.203,0.84-0.388,1.23
	c-0.186,0.391-0.416,0.76-0.674,1.108c-0.234,0.316-0.491,0.614-0.763,0.899L11.93,8.56l-0.666-1.391l-0.366-0.765
	c0.003-0.003,0.006-0.007,0.008-0.01l0.061-0.084l0.03-0.042l0.028-0.043l0.057-0.086l0.053-0.089
	c0.008-0.015,0.017-0.029,0.025-0.044l0.025-0.046c0.016-0.029,0.033-0.059,0.048-0.09c0.031-0.061,0.062-0.122,0.089-0.184
	c0.03-0.062,0.054-0.125,0.079-0.188c0.013-0.032,0.025-0.063,0.037-0.095l0.017-0.048l0.017-0.048
	c0.044-0.128,0.082-0.257,0.115-0.388c0.008-0.032,0.017-0.065,0.023-0.098l0.023-0.098c0.013-0.066,0.026-0.132,0.037-0.198
	c0.022-0.132,0.041-0.264,0.054-0.397c0.013-0.133,0.022-0.266,0.027-0.399c0.002-0.067,0.003-0.133,0.003-0.2
	c0-0.033-0.001-0.067-0.002-0.1c0-0.017-0.001-0.034-0.002-0.051c-0.001-0.016-0.006-0.033-0.022-0.05
	c-0.001-0.001-0.001-0.001-0.002-0.002c-0.023-0.022-0.059-0.021-0.08,0.002l-0.003,0.003c-0.015,0.016-0.02,0.032-0.021,0.048
	l-0.003,0.049c-0.001,0.032-0.003,0.064-0.006,0.096c-0.004,0.065-0.009,0.129-0.016,0.194c-0.015,0.129-0.033,0.257-0.056,0.384
	c-0.046,0.255-0.108,0.506-0.188,0.75c-0.04,0.122-0.083,0.242-0.133,0.359l-0.019,0.045l-0.019,0.043
	c-0.014,0.03-0.027,0.058-0.04,0.087c-0.028,0.057-0.055,0.114-0.085,0.17c-0.093,0.179-0.202,0.347-0.322,0.505L10.6,5.777
	L9.939,4.383L9.61,3.686L9.282,2.988C9.064,2.522,8.846,2.058,8.63,1.591C8.613,1.554,8.569,1.539,8.533,1.555
	c-0.036,0.017-0.052,0.06-0.035,0.096c0.216,0.467,0.429,0.935,0.643,1.403l0.32,0.701l0.318,0.702l0.635,1.406l0.141,0.314
	c-0.218-0.006-0.438-0.031-0.654-0.078C9.839,6.087,9.777,6.071,9.716,6.057C9.685,6.049,9.654,6.039,9.624,6.032L9.578,6.019
	L9.532,6.005C9.41,5.968,9.289,5.925,9.17,5.878C8.932,5.783,8.698,5.671,8.473,5.544C8.36,5.48,8.25,5.413,8.142,5.341
	c-0.055-0.035-0.108-0.072-0.161-0.11C7.955,5.213,7.929,5.193,7.903,5.174L7.864,5.145C7.852,5.136,7.836,5.129,7.814,5.13
	L7.81,5.131H7.807C7.775,5.135,7.754,5.163,7.758,5.194C7.76,5.217,7.77,5.231,7.782,5.244c0.012,0.011,0.025,0.022,0.037,0.033
	C7.845,5.299,7.87,5.321,7.896,5.342c0.05,0.043,0.102,0.085,0.155,0.125c0.105,0.082,0.214,0.16,0.325,0.235
	c0.11,0.074,0.224,0.145,0.34,0.212c0.057,0.033,0.117,0.065,0.177,0.097l0.088,0.046c0.031,0.015,0.061,0.029,0.091,0.044
	C9.194,6.158,9.318,6.212,9.444,6.26l0.048,0.018L9.54,6.294c0.032,0.012,0.064,0.023,0.096,0.034
	c0.065,0.02,0.13,0.041,0.195,0.059C9.897,6.405,9.964,6.42,10.03,6.436c0.034,0.007,0.067,0.013,0.101,0.02l0.05,0.01
	c0.016,0.003,0.034,0.006,0.05,0.008l0.102,0.016l0.103,0.012l0.051,0.006l0.052,0.003l0.104,0.007c0.003,0,0.006,0,0.009,0
	c0.019,0,0.037-0.002,0.053-0.007l0.341,0.759l0.629,1.409l0.067,0.149c-0.399,0.029-0.801,0.037-1.2,0.015
	C10.109,8.819,9.679,8.762,9.26,8.655C8.841,8.548,8.435,8.391,8.065,8.168C7.881,8.057,7.706,7.93,7.544,7.786
	C7.383,7.643,7.235,7.483,7.105,7.31C7.084,7.283,7.046,7.276,7.018,7.295c-0.03,0.02-0.037,0.06-0.017,0.089
	c0.127,0.186,0.272,0.36,0.435,0.518C7.597,8.061,7.774,8.204,7.963,8.33C8.339,8.582,8.759,8.768,9.19,8.9
	c0.433,0.133,0.879,0.214,1.328,0.261c0.448,0.045,0.899,0.056,1.348,0.041c0.003,0,0.006,0,0.009,0
	c0.011-0.001,0.021-0.003,0.031-0.006c0.028,0.063,0.056,0.125,0.085,0.189c0.067,0.142,0.139,0.283,0.214,0.422
	c-0.424-0.178-0.526,0.378-0.545,0.396c-0.024,0.164-0.069,0.265-0.114,0.449c-0.012,0.051-0.024,0.102-0.038,0.154
	c-0.161,0.626-0.432,1.134-0.804,1.51c-0.191,0.195-0.421,0.357-0.664,0.473c-0.325,0.151-0.669,0.217-0.994,0.187
	c-0.322-0.03-0.63-0.146-0.942-0.353c-0.233-0.155-0.461-0.356-0.719-0.633c-0.068-0.072-0.135-0.146-0.199-0.218
	c-0.329-0.362-0.639-0.705-1.044-0.902c-0.102-0.05-0.159-0.161-0.141-0.272c0.014-0.085,0.069-0.156,0.145-0.191
	c0.023-0.011,0.048-0.019,0.075-0.022c0.314-0.043,0.647-0.101,0.94-0.239c0.107-0.05,0.247-0.142,0.347-0.204
	C7.156,9.799,6.78,9.577,6.543,9.289C6.086,8.734,5.946,8.011,5.876,7.443z M12.491,9.673c0.001-0.003,0.002-0.005,0.003-0.007
	C12.493,9.668,12.492,9.67,12.491,9.673C12.491,9.673,12.491,9.673,12.491,9.673z"/>
<path d="M12.221,9.836c0.002,0.005,0.006,0.012,0.008,0.017c0.003,0.005,0.004,0.01,0.009,0.017h0.001
	c0.002,0.002,0.017-0.004,0.032-0.011C12.246,9.849,12.223,9.837,12.221,9.836"/>
<path fill="#FFFFFF" d="M14.794,11.637c0.036-0.015,0.017-0.018-0.022-0.004c0.003,0.001,0.008,0.002,0.012,0.003
	C14.787,11.636,14.79,11.637,14.794,11.637"/>
<path fill="#FFFFFF" d="M12.271,9.859c0.041,0.018,0.096,0.034,0.152,0c0.038-0.023,0.046-0.062,0.055-0.099
	c0.013-0.057,0.012-0.11,0.012-0.11c-0.133-0.207-0.113-0.178-0.226-0.398c-0.029-0.057-0.057-0.113-0.084-0.171l-0.007-0.014
	c0.007-0.006,0.013-0.012,0.019-0.018c0.299-0.336,0.578-0.69,0.829-1.065c0.25-0.375,0.472-0.77,0.646-1.188
	c0.174-0.417,0.299-0.858,0.345-1.309c0.023-0.226,0.026-0.453,0.008-0.678c-0.02-0.226-0.06-0.449-0.122-0.666
	c-0.009-0.032-0.043-0.052-0.076-0.044c-0.034,0.008-0.055,0.042-0.047,0.076v0.001c0.05,0.211,0.078,0.426,0.086,0.642
	c0.008,0.216-0.006,0.432-0.038,0.645c-0.064,0.427-0.203,0.84-0.388,1.23C13.248,7.084,13.018,7.452,12.76,7.8
	c-0.234,0.316-0.491,0.615-0.762,0.9L11.93,8.559l-0.666-1.39l-0.365-0.766c0.003-0.002,0.006-0.006,0.008-0.009l0.06-0.084
	l0.031-0.042l0.028-0.043l0.057-0.087l0.052-0.088c0.008-0.015,0.018-0.029,0.026-0.045l0.024-0.045
	c0.017-0.03,0.033-0.059,0.049-0.09c0.03-0.061,0.061-0.122,0.089-0.184c0.029-0.062,0.053-0.125,0.079-0.188
	c0.013-0.032,0.024-0.064,0.036-0.096l0.018-0.047l0.016-0.048c0.044-0.128,0.082-0.258,0.115-0.388
	c0.008-0.033,0.017-0.065,0.024-0.098l0.022-0.098c0.013-0.066,0.027-0.132,0.037-0.198c0.023-0.132,0.041-0.265,0.054-0.397
	c0.014-0.133,0.023-0.267,0.027-0.399c0.002-0.067,0.003-0.134,0.003-0.201c0-0.033-0.001-0.066-0.002-0.1
	c0-0.016-0.001-0.033-0.002-0.05c0-0.017-0.005-0.033-0.022-0.05c-0.001-0.001-0.001-0.002-0.002-0.003
	c-0.022-0.021-0.059-0.02-0.08,0.002l-0.003,0.004c-0.015,0.016-0.019,0.032-0.02,0.048L11.62,3.427
	c-0.001,0.033-0.003,0.065-0.006,0.097c-0.004,0.064-0.01,0.129-0.017,0.193c-0.014,0.129-0.033,0.258-0.055,0.385
	c-0.046,0.255-0.109,0.506-0.189,0.75c-0.04,0.121-0.083,0.242-0.133,0.359l-0.018,0.044l-0.02,0.044
	c-0.014,0.029-0.026,0.058-0.04,0.087c-0.027,0.057-0.055,0.114-0.085,0.17c-0.093,0.178-0.201,0.347-0.321,0.505L10.6,5.776
	l-0.66-1.393L9.61,3.686L9.283,2.988C9.064,2.522,8.846,2.057,8.629,1.59c-0.016-0.036-0.06-0.052-0.096-0.035
	c-0.036,0.017-0.052,0.06-0.035,0.096c0.215,0.467,0.428,0.935,0.642,1.402l0.32,0.702l0.319,0.702l0.635,1.406l0.14,0.314
	c-0.218-0.006-0.437-0.031-0.653-0.078C9.838,6.087,9.777,6.071,9.715,6.056C9.685,6.048,9.654,6.039,9.625,6.031L9.579,6.019
	L9.533,6.005C9.411,5.968,9.29,5.924,9.169,5.878C8.932,5.783,8.699,5.671,8.473,5.544C8.36,5.48,8.25,5.412,8.142,5.341
	c-0.055-0.036-0.107-0.072-0.16-0.11C7.956,5.213,7.929,5.193,7.903,5.174L7.864,5.145c-0.013-0.01-0.029-0.016-0.05-0.015H7.81
	H7.807C7.775,5.134,7.753,5.163,7.757,5.193c0.002,0.024,0.012,0.038,0.025,0.05c0.011,0.012,0.024,0.023,0.037,0.033
	C7.845,5.298,7.871,5.32,7.896,5.342C7.946,5.384,7.999,5.426,8.05,5.467c0.106,0.082,0.214,0.16,0.325,0.234
	C8.486,5.776,8.6,5.846,8.715,5.913c0.058,0.034,0.117,0.066,0.177,0.098l0.089,0.045c0.03,0.016,0.06,0.03,0.091,0.044
	c0.122,0.058,0.246,0.112,0.372,0.159l0.048,0.018l0.048,0.017c0.032,0.011,0.063,0.023,0.095,0.033
	c0.066,0.021,0.13,0.042,0.196,0.059c0.065,0.019,0.132,0.034,0.199,0.05c0.033,0.007,0.066,0.013,0.1,0.02l0.05,0.01
	c0.017,0.003,0.034,0.005,0.051,0.008l0.102,0.016l0.102,0.012l0.052,0.005l0.052,0.004l0.103,0.007c0.003,0,0.007,0,0.01,0
	c0.018,0,0.036-0.002,0.053-0.008l0.34,0.76l0.629,1.409l0.068,0.149c-0.4,0.029-0.801,0.036-1.201,0.014
	c-0.432-0.023-0.863-0.081-1.282-0.188C8.84,8.548,8.435,8.391,8.065,8.168C7.88,8.057,7.707,7.929,7.543,7.786
	C7.382,7.642,7.235,7.483,7.104,7.31V7.309C7.083,7.282,7.045,7.276,7.018,7.295C6.988,7.315,6.981,7.355,7,7.384
	c0.127,0.186,0.273,0.36,0.435,0.518c0.161,0.159,0.339,0.301,0.527,0.427C8.338,8.582,8.758,8.767,9.19,8.9
	c0.433,0.132,0.879,0.214,1.327,0.26c0.448,0.046,0.899,0.057,1.349,0.042c0.003,0,0.006-0.001,0.008-0.001
	c0.011-0.001,0.021-0.003,0.032-0.005c0.027,0.062,0.055,0.125,0.085,0.188c0.067,0.143,0.138,0.284,0.213,0.423
	c0.005,0.009,0.009,0.019,0.014,0.028l0.002,0.001C12.223,9.837,12.246,9.849,12.271,9.859"/>
</svg>
