<?xml version="1.0" encoding="utf-8"?>
<!-- Generator: Adobe Illustrator 16.0.0, SVG Export Plug-In . SVG Version: 6.00 Build 0)  -->
<!DOCTYPE svg PUBLIC "-//W3C//DTD SVG 1.1//EN" "http://www.w3.org/Graphics/SVG/1.1/DTD/svg11.dtd">
<svg version="1.1" id="Ebene_1" xmlns="http://www.w3.org/2000/svg" xmlns:xlink="http://www.w3.org/1999/xlink" x="0px" y="0px"
	 width="24px" height="24px" viewBox="0 0 24 24" enable-background="new 0 0 24 24" xml:space="preserve">
<g>
	<path d="M2.711,7.496C2.58,7.389,2.387,7.41,2.279,7.541L0.3,9.982c-0.142,0.176-0.142,0.44,0,0.616l1.979,2.441
		c0.061,0.075,0.149,0.113,0.238,0.113c0.068,0,0.136-0.022,0.193-0.068c0.132-0.106,0.152-0.3,0.045-0.432L0.84,10.291l1.916-2.363
		C2.863,7.796,2.843,7.603,2.711,7.496z"/>
	<path d="M23.717,9.982l-1.979-2.441c-0.107-0.132-0.302-0.151-0.432-0.045c-0.132,0.106-0.152,0.3-0.045,0.432l1.915,2.363
		l-1.915,2.363c-0.107,0.132-0.087,0.325,0.045,0.432c0.057,0.046,0.125,0.068,0.193,0.068c0.089,0,0.178-0.038,0.238-0.113
		l1.978-2.44C23.861,10.423,23.861,10.157,23.717,9.982z"/>
	<circle cx="12.271" cy="21.541" r="0.741"/>
	<circle cx="10.046" cy="21.541" r="0.741"/>
	<circle cx="14.496" cy="21.541" r="0.741"/>
	<path d="M15.736,14.885c0.004,0.001,0.009,0.001,0.013,0.002s0.008,0.002,0.012,0.002C15.8,14.872,15.778,14.868,15.736,14.885z"/>
	<path d="M15.685,15.435c0.01,0.004,0.009,0.002,0.014,0.004c0.004,0.001,0.005,0.001,0.006,0.001c-0.001,0-0.005-0.001-0.01-0.003
		L15.685,15.435z"/>
	<path d="M18.37,9.913c-0.076-0.528-0.147-1.026-0.032-1.503c0.029-0.12-0.023-0.245-0.13-0.307
		c-0.081-0.047-0.179-0.05-0.261-0.012c-0.025,0.012-0.049,0.028-0.07,0.048c-0.254,0.234-0.535,0.472-0.854,0.622
		c-0.116,0.055-0.291,0.109-0.411,0.15c0.125-0.393,0.2-0.864,0.123-1.263c-0.147-0.769-0.656-1.389-1.084-1.843
		c-0.424-0.451-0.823-0.974-1.186-1.556c-0.076-0.122-0.229-0.165-0.356-0.105c-0.01,0.004-0.02,0.01-0.029,0.016
		c-0.043,0.026-0.076,0.064-0.099,0.106c-0.068,0.078-0.225,0.257-0.312,0.561l-0.007,0.024c-0.041,0.144-0.084,0.294-0.111,0.452
		c-0.101,0.588,0.082,1.112,0.178,1.679c0.051,0.289,0.065,0.473,0.014,0.68c-0.064,0.257-0.25,0.657-0.624,0.595
		c-0.161-0.026-0.209-0.178-0.212-0.274c-0.006-0.158,0.164-0.71,0.201-0.848c0.101-0.387,0.147-0.803,0.124-1.228
		c-0.018-0.303-0.092-0.658-0.307-0.999c-0.13-0.207-0.34-0.5-0.713-0.679c-0.077-0.037-0.385-0.058-0.387-0.022
		c-0.008,0.125,0.064,0.188,0.082,0.345c0.021,0.176,0.026,0.321-0.063,0.512c-0.014,0.031-0.03,0.073-0.06,0.087
		c-0.003,0.002-0.007,0.003-0.011,0.004c-0.108,0.033-0.255-0.062-0.356-0.163c-0.158-0.157-0.287-0.348-0.423-0.551
		c-0.179-0.264-0.363-0.538-0.63-0.757c-0.272-0.225-0.6-0.363-0.889-0.485c-0.102-0.042-0.297-0.132-0.487-0.22
		c-0.115-0.052-0.232-0.106-0.331-0.15C8.604,2.792,8.54,2.774,8.475,2.779C8.441,2.782,8.41,2.791,8.381,2.804
		c-0.001,0-0.001,0.001-0.002,0.001S8.378,2.806,8.378,2.806c-0.001,0-0.001,0-0.002,0v0.001c-0.001,0-0.001,0-0.002,0v0.001
		C8.346,2.821,8.318,2.84,8.296,2.863C8.249,2.911,8.222,2.972,8.217,3.036C8.187,3.14,8.154,3.265,8.122,3.387
		C8.068,3.588,8.013,3.796,7.98,3.901C7.89,4.202,7.787,4.543,7.785,4.896C7.784,5.241,7.877,5.558,7.967,5.864
		c0.069,0.234,0.134,0.455,0.154,0.677C8.134,6.683,8.114,6.857,8.019,6.92c-0.003,0.002-0.006,0.004-0.01,0.006
		c-0.03,0.014-0.072-0.002-0.105-0.01C7.7,6.862,7.592,6.766,7.47,6.638C7.36,6.523,7.357,6.427,7.256,6.353
		c-0.028-0.02-0.209,0.23-0.23,0.313c-0.1,0.401-0.008,0.75,0.068,0.982C7.22,8.031,7.445,8.315,7.667,8.521
		c0.312,0.29,0.662,0.519,1.024,0.688C8.822,9.27,9.355,9.492,9.474,9.597C9.545,9.66,9.632,9.793,9.549,9.935
		c-0.192,0.327-0.617,0.214-0.857,0.1C8.5,9.943,8.367,9.814,8.177,9.592C7.802,9.155,7.515,8.68,6.998,8.382
		C6.859,8.302,6.717,8.24,6.579,8.179l-0.022-0.01C6.267,8.042,6.03,8.048,5.926,8.051C5.879,8.041,5.829,8.043,5.781,8.06
		C5.77,8.063,5.76,8.067,5.75,8.072C5.623,8.131,5.559,8.277,5.604,8.413c0.216,0.651,0.365,1.292,0.441,1.906
		c0.077,0.618,0.228,1.407,0.726,2.012c0.259,0.313,0.669,0.555,1.052,0.709c-0.109,0.068-0.261,0.167-0.378,0.222
		c-0.319,0.151-0.682,0.216-1.024,0.262c-0.029,0.004-0.057,0.012-0.082,0.022c-0.082,0.039-0.142,0.117-0.157,0.209
		c-0.02,0.121,0.043,0.242,0.153,0.296c0.441,0.216,0.779,0.589,1.137,0.983c0.071,0.079,0.144,0.159,0.217,0.238
		c0.282,0.302,0.53,0.52,0.783,0.688c0.34,0.228,0.676,0.353,1.027,0.385c0.355,0.033,0.729-0.036,1.083-0.203
		c0.265-0.124,0.515-0.303,0.724-0.514c0.405-0.41,0.7-0.963,0.875-1.645c0.015-0.058,0.028-0.113,0.041-0.168
		c0.049-0.201,0.098-0.312,0.124-0.489c0.021-0.02,0.132-0.625,0.594-0.432c-0.082-0.152-0.16-0.306-0.232-0.461
		c-0.032-0.067-0.063-0.136-0.093-0.205c-0.012,0.003-0.022,0.006-0.034,0.007h-0.01c-0.489,0.017-0.98,0.005-1.47-0.046
		c-0.488-0.051-0.973-0.139-1.445-0.283c-0.471-0.145-0.927-0.347-1.338-0.622c-0.205-0.137-0.398-0.293-0.574-0.465
		c-0.176-0.173-0.335-0.362-0.473-0.565c-0.022-0.032-0.013-0.075,0.018-0.097c0.031-0.021,0.072-0.014,0.095,0.016
		c0.142,0.189,0.303,0.362,0.479,0.519c0.176,0.156,0.366,0.295,0.567,0.417c0.403,0.242,0.845,0.413,1.301,0.529
		c0.456,0.117,0.926,0.179,1.398,0.205c0.435,0.024,0.872,0.016,1.306-0.016l-0.072-0.162l-0.685-1.535l-0.372-0.828
		c-0.018,0.006-0.037,0.009-0.057,0.009c-0.003,0-0.008,0-0.011,0l-0.113-0.008L11.069,9.3l-0.056-0.006l-0.112-0.013l-0.11-0.017
		c-0.019-0.004-0.037-0.006-0.056-0.009L10.68,9.244c-0.037-0.007-0.073-0.014-0.109-0.022c-0.072-0.017-0.145-0.033-0.217-0.054
		c-0.071-0.019-0.141-0.042-0.213-0.064c-0.035-0.011-0.069-0.024-0.104-0.036L9.985,9.05L9.933,9.03
		C9.795,8.978,9.66,8.92,9.528,8.857C9.495,8.841,9.462,8.825,9.429,8.809l-0.098-0.05C9.266,8.724,9.202,8.69,9.139,8.653
		c-0.126-0.073-0.25-0.15-0.371-0.231S8.53,8.256,8.415,8.167c-0.058-0.045-0.114-0.09-0.17-0.137
		C8.218,8.007,8.189,7.983,8.162,7.959c-0.014-0.012-0.027-0.024-0.04-0.036C8.108,7.909,8.098,7.894,8.095,7.869
		C8.091,7.835,8.114,7.804,8.148,7.801C8.149,7.8,8.15,7.8,8.151,7.8h0.006c0.023-0.002,0.04,0.005,0.055,0.016l0.042,0.031
		C8.282,7.868,8.31,7.889,8.339,7.91c0.057,0.041,0.115,0.081,0.175,0.12c0.118,0.077,0.238,0.151,0.361,0.22
		C9.12,8.389,9.374,8.511,9.634,8.614c0.13,0.051,0.261,0.098,0.394,0.138l0.05,0.015l0.05,0.014c0.034,0.009,0.067,0.019,0.1,0.028
		c0.068,0.016,0.135,0.033,0.202,0.046c0.236,0.051,0.475,0.078,0.713,0.085l-0.154-0.342l-0.691-1.531L9.951,6.301L9.602,5.537
		c-0.233-0.509-0.464-1.019-0.7-1.528C8.884,3.97,8.901,3.923,8.94,3.905c0.04-0.019,0.087-0.001,0.105,0.038l0.001,0.001
		C9.28,4.452,9.518,4.958,9.757,5.466l0.356,0.76l0.359,0.76l0.719,1.518l0.149,0.31c0.13-0.172,0.249-0.356,0.349-0.551
		c0.033-0.06,0.063-0.123,0.093-0.185c0.016-0.031,0.029-0.063,0.043-0.094l0.022-0.048l0.02-0.048
		c0.054-0.128,0.102-0.259,0.145-0.392c0.087-0.266,0.155-0.539,0.205-0.817c0.025-0.138,0.045-0.278,0.061-0.419
		c0.008-0.069,0.014-0.14,0.02-0.21c0.002-0.035,0.004-0.071,0.006-0.105l0.003-0.053c0.001-0.018,0.006-0.035,0.022-0.052
		l0.003-0.004c0.023-0.025,0.063-0.026,0.087-0.003l0.003,0.003c0.017,0.018,0.022,0.036,0.024,0.055
		c0.001,0.018,0.001,0.036,0.002,0.055c0.001,0.036,0.002,0.072,0.002,0.109c0,0.072-0.001,0.145-0.003,0.218
		c-0.005,0.145-0.015,0.29-0.029,0.434c-0.015,0.145-0.035,0.289-0.06,0.433c-0.011,0.073-0.026,0.144-0.04,0.216l-0.024,0.107
		c-0.008,0.036-0.018,0.071-0.026,0.107c-0.036,0.142-0.077,0.283-0.125,0.422l-0.018,0.053l-0.02,0.051
		c-0.013,0.035-0.025,0.07-0.039,0.104c-0.028,0.069-0.055,0.138-0.087,0.205c-0.029,0.068-0.063,0.134-0.096,0.201
		c-0.017,0.033-0.035,0.065-0.053,0.098l-0.026,0.049c-0.009,0.017-0.02,0.032-0.029,0.048l-0.057,0.097l-0.062,0.094l-0.03,0.047
		l-0.033,0.046l-0.067,0.091c-0.002,0.004-0.005,0.007-0.008,0.011l0.398,0.834l0.726,1.515l0.073,0.153
		c0.296-0.31,0.576-0.636,0.831-0.98c0.281-0.38,0.532-0.782,0.734-1.207c0.201-0.425,0.353-0.875,0.422-1.34
		c0.035-0.232,0.05-0.467,0.042-0.702c-0.009-0.235-0.04-0.47-0.094-0.7V6.759c-0.009-0.037,0.014-0.074,0.052-0.083
		c0.036-0.008,0.072,0.013,0.082,0.048c0.068,0.236,0.112,0.48,0.133,0.725c0.021,0.246,0.018,0.494-0.008,0.739
		c-0.05,0.492-0.186,0.972-0.375,1.427s-0.432,0.886-0.704,1.294c-0.273,0.408-0.578,0.794-0.903,1.161
		c-0.006,0.007-0.014,0.014-0.021,0.02l0.008,0.015c0.03,0.064,0.061,0.125,0.092,0.187c0.122,0.24,0.102,0.209,0.245,0.433v0.001
		l0,0c0,0,0.001,0.005,0.001,0.006c0.001,0.004,0.001,0.008,0.002,0.017l0,0c0.001,0.004,0.001,0.005,0.001,0.011
		c0-0.001,0-0.001,0-0.001c0.002,0.022,0,0.051-0.007,0.082c0,0,0.001,0,0.001-0.001c-0.008,0.043-0.025,0.088-0.07,0.115
		c-0.098,0.058-0.22-0.025-0.221-0.026c0.002,0.003,0.003,0.005,0.005,0.009c0.003,0.008,0.006,0.017,0.014,0.028
		c0,0,0.001-0.001,0.001,0c0.049,0.09,0.088,0.157,0.132,0.23c0.147,0.245,0.307,0.486,0.484,0.715
		c0.178,0.228,0.372,0.446,0.588,0.646c0.214,0.2,0.449,0.383,0.707,0.537c0.064,0.039,0.13,0.076,0.198,0.111
		c0.067,0.035,0.136,0.067,0.206,0.097c0.071,0.031,0.144,0.059,0.218,0.083c0.025,0.01,0.052,0.018,0.078,0.025
		c0.048,0.031,0.106,0.048,0.168,0.044l0.011-0.001h0.011l0.009-0.001c0.004,0,0.009-0.001,0.021-0.002
		c-0.222,0.075,0.458-0.013,0.09-0.524c-0.053-0.022-0.046-0.016-0.057-0.021c-0.005-0.001-0.009-0.002-0.011-0.003l-0.007-0.001
		l-0.017-0.003l-0.013-0.002c-0.011-0.002-0.022-0.004-0.033-0.006c-0.005,0.003-0.012,0.005-0.019,0.008h-0.021
		c-0.006,0.001-0.012,0.001-0.018,0.002c0.012-0.006,0.023-0.012,0.033-0.015c-0.025-0.005-0.051-0.01-0.076-0.016
		c-0.06-0.015-0.12-0.033-0.18-0.053c-0.061-0.021-0.12-0.043-0.179-0.067c-0.06-0.025-0.118-0.054-0.176-0.083
		c-0.231-0.118-0.452-0.268-0.656-0.438c-0.205-0.171-0.396-0.362-0.571-0.568c-0.175-0.206-0.337-0.426-0.485-0.656
		c-0.004-0.005-0.133-0.229-0.155-0.267c0.151-0.462,0.658-0.157,0.686-0.16c0.154,0.092,0.271,0.126,0.456,0.216
		c0.051,0.025,0.103,0.051,0.155,0.076c0.637,0.299,1.251,0.425,1.826,0.376c0.296-0.027,0.592-0.105,0.856-0.229
		c0.354-0.167,0.647-0.41,0.849-0.704c0.198-0.291,0.315-0.63,0.358-1.036c0.032-0.302,0.022-0.633-0.03-1.042
		C18.4,10.125,18.385,10.017,18.37,9.913z"/>
</g>
</svg>
