<?xml version="1.0" encoding="utf-8"?>
<!-- Generator: Adobe Illustrator 16.0.0, SVG Export Plug-In . SVG Version: 6.00 Build 0)  -->
<!DOCTYPE svg PUBLIC "-//W3C//DTD SVG 1.1//EN" "http://www.w3.org/Graphics/SVG/1.1/DTD/svg11.dtd">
<svg version="1.1" id="Ebene_1" xmlns="http://www.w3.org/2000/svg" xmlns:xlink="http://www.w3.org/1999/xlink" x="0px" y="0px"
	 width="24px" height="24px" viewBox="0 0 24 24" enable-background="new 0 0 24 24" xml:space="preserve">
<path d="M-2.626,16.004c-0.255,0-0.507-0.11-0.68-0.324l-2.453-3.025c-0.326-0.398-0.327-0.982-0.001-1.386l2.454-3.026
	C-3.002,7.866-2.45,7.81-2.075,8.113C-1.7,8.418-1.643,8.969-1.947,9.344l-2.122,2.617l2.122,2.617
	c0.304,0.375,0.247,0.926-0.128,1.23C-2.237,15.94-2.432,16.004-2.626,16.004z"/>
<path d="M26.625,16.004c-0.193,0-0.388-0.063-0.55-0.195c-0.376-0.305-0.434-0.855-0.129-1.23l2.122-2.617l-2.122-2.617
	c-0.305-0.375-0.247-0.926,0.129-1.231c0.375-0.305,0.927-0.247,1.23,0.128l2.453,3.025c0.325,0.396,0.323,0.998-0.007,1.396
	l-2.446,3.018C27.133,15.894,26.88,16.004,26.625,16.004z"/>
<g>
	<circle cx="10.118" cy="19.894" r="0.627"/>
	<circle cx="12.017" cy="19.894" r="0.627"/>
	<circle cx="13.882" cy="19.894" r="0.627"/>
</g>
<path d="M20,0H4C1.791,0,0,1.791,0,4v16c0,2.209,1.791,4,4,4h16c2.209,0,4-1.791,4-4V4C24,1.791,22.209,0,20,0z M23,20
	c0,1.656-1.343,3-3,3H4c-1.657,0-3-1.344-3-3V4c0-1.657,1.343-3,3-3h16c1.657,0,3,1.343,3,3V20z M17.242,11.119
	c-0.012-0.094-0.025-0.187-0.039-0.279c-0.066-0.46-0.127-0.894-0.027-1.31c0.025-0.104-0.02-0.214-0.113-0.268
	c-0.068-0.042-0.154-0.044-0.227-0.011c-0.023,0.011-0.043,0.024-0.063,0.042c-0.221,0.205-0.467,0.412-0.744,0.543
	c-0.102,0.047-0.252,0.093-0.359,0.13c0.111-0.343,0.176-0.753,0.109-1.101c-0.129-0.671-0.572-1.211-0.945-1.608
	c-0.371-0.393-0.719-0.849-1.033-1.357c-0.068-0.105-0.203-0.143-0.313-0.091c-0.008,0.003-0.018,0.008-0.025,0.014
	c-0.037,0.023-0.066,0.056-0.086,0.092c-0.061,0.068-0.195,0.224-0.271,0.49L13.1,6.426c-0.035,0.125-0.072,0.256-0.096,0.395
	c-0.088,0.512,0.07,0.97,0.154,1.464c0.043,0.252,0.057,0.413,0.012,0.594c-0.057,0.224-0.217,0.572-0.544,0.519
	c-0.14-0.022-0.182-0.156-0.184-0.238c-0.006-0.138,0.144-0.62,0.174-0.741c0.087-0.338,0.128-0.7,0.108-1.071
	c-0.016-0.264-0.08-0.573-0.267-0.871c-0.112-0.181-0.296-0.437-0.622-0.592c-0.067-0.032-0.336-0.051-0.337-0.021
	c-0.007,0.109,0.055,0.165,0.071,0.301c0.019,0.154,0.023,0.279-0.054,0.446c-0.013,0.027-0.026,0.065-0.053,0.076
	c-0.002,0.001-0.006,0.002-0.01,0.003c-0.095,0.029-0.223-0.055-0.311-0.142c-0.138-0.136-0.25-0.303-0.369-0.479
	c-0.156-0.23-0.316-0.47-0.549-0.661C9.986,5.214,9.701,5.094,9.448,4.986C9.358,4.949,9.187,4.87,9.022,4.794
	C8.921,4.749,8.82,4.702,8.734,4.663C8.688,4.632,8.632,4.615,8.575,4.62C8.546,4.622,8.518,4.629,8.494,4.641H8.492l0,0
	c-0.001,0-0.001,0-0.002,0.001c0,0,0,0-0.001,0l0,0c0,0-0.001,0-0.002,0.001c-0.025,0.013-0.048,0.029-0.069,0.05
	c-0.04,0.041-0.065,0.094-0.068,0.149C8.325,4.934,8.294,5.043,8.267,5.149c-0.047,0.176-0.096,0.357-0.123,0.45
	c-0.08,0.262-0.169,0.56-0.17,0.867C7.973,6.767,8.054,7.043,8.132,7.31C8.192,7.514,8.248,7.708,8.266,7.9
	c0.012,0.124-0.006,0.276-0.088,0.331C8.174,8.232,8.171,8.234,8.169,8.235C8.143,8.249,8.104,8.234,8.076,8.227
	C7.899,8.18,7.804,8.095,7.699,7.983C7.603,7.884,7.6,7.801,7.511,7.736c-0.025-0.018-0.182,0.2-0.2,0.272
	c-0.088,0.35-0.008,0.654,0.06,0.857c0.111,0.333,0.307,0.581,0.5,0.76c0.272,0.253,0.577,0.454,0.893,0.601
	c0.113,0.053,0.579,0.247,0.682,0.336c0.062,0.057,0.138,0.172,0.067,0.295c-0.168,0.286-0.54,0.188-0.748,0.088
	c-0.167-0.08-0.284-0.192-0.45-0.386c-0.327-0.381-0.578-0.795-1.029-1.054c-0.12-0.07-0.245-0.125-0.364-0.178L6.901,9.32
	C6.648,9.209,6.443,9.214,6.353,9.216C6.312,9.208,6.268,9.21,6.226,9.224C6.216,9.228,6.207,9.23,6.198,9.235
	c-0.109,0.051-0.166,0.18-0.127,0.298c0.189,0.567,0.318,1.126,0.384,1.661c0.068,0.539,0.2,1.229,0.634,1.756
	c0.227,0.271,0.583,0.482,0.917,0.619c-0.094,0.059-0.228,0.145-0.329,0.193c-0.28,0.131-0.596,0.188-0.894,0.227
	C6.758,13.992,6.734,14,6.712,14.01c-0.071,0.033-0.124,0.102-0.137,0.184c-0.018,0.104,0.036,0.211,0.133,0.256
	c0.384,0.189,0.68,0.516,0.991,0.857c0.063,0.068,0.125,0.139,0.19,0.207c0.246,0.264,0.462,0.455,0.683,0.602
	c0.296,0.199,0.589,0.307,0.895,0.338c0.31,0.027,0.636-0.035,0.944-0.18c0.231-0.109,0.45-0.262,0.632-0.447
	c0.353-0.357,0.61-0.84,0.764-1.434c0.013-0.051,0.023-0.1,0.035-0.146c0.042-0.176,0.085-0.271,0.109-0.428
	c0.018-0.018,0.114-0.545,0.518-0.377c-0.072-0.131-0.14-0.266-0.203-0.4c-0.028-0.061-0.055-0.119-0.081-0.18
	c-0.011,0.002-0.021,0.004-0.028,0.006c-0.003,0-0.007,0-0.009,0c-0.428,0.014-0.857,0.004-1.282-0.041
	c-0.426-0.043-0.85-0.119-1.261-0.246c-0.411-0.125-0.809-0.302-1.167-0.542c-0.181-0.122-0.349-0.258-0.503-0.408
	c-0.152-0.15-0.292-0.315-0.412-0.491c-0.02-0.028-0.012-0.066,0.015-0.085c0.027-0.018,0.063-0.011,0.083,0.014l0,0
	c0.124,0.165,0.264,0.315,0.417,0.452c0.154,0.136,0.319,0.258,0.495,0.363c0.352,0.211,0.738,0.36,1.135,0.462
	c0.398,0.102,0.808,0.156,1.219,0.178c0.38,0.02,0.761,0.014,1.141-0.014l-0.063-0.143l-0.599-1.338l-0.325-0.722
	c-0.015,0.004-0.031,0.007-0.049,0.007c-0.003,0-0.007,0-0.01,0l-0.099-0.006l-0.048-0.003l-0.048-0.004l-0.099-0.012l-0.096-0.015
	c-0.017-0.002-0.032-0.004-0.047-0.007l-0.048-0.01c-0.032-0.006-0.065-0.011-0.096-0.019c-0.063-0.016-0.125-0.029-0.188-0.046
	c-0.063-0.016-0.125-0.037-0.186-0.055c-0.03-0.011-0.062-0.021-0.091-0.032L9.89,10.088L9.846,10.07
	c-0.121-0.045-0.238-0.096-0.353-0.152C9.464,9.905,9.435,9.892,9.407,9.877L9.321,9.834c-0.055-0.031-0.112-0.06-0.167-0.092
	C9.044,9.678,8.936,9.61,8.83,9.54C8.726,9.469,8.623,9.395,8.521,9.318c-0.05-0.039-0.099-0.079-0.146-0.12
	C8.35,9.178,8.327,9.158,8.302,9.137C8.29,9.126,8.279,9.116,8.267,9.104C8.255,9.093,8.246,9.08,8.243,9.057
	C8.24,9.028,8.26,9.001,8.289,8.998c0.001,0,0.002,0,0.003,0h0.004c0.021-0.001,0.036,0.004,0.049,0.014L8.381,9.04
	c0.024,0.018,0.05,0.037,0.073,0.055c0.051,0.035,0.102,0.07,0.153,0.104c0.104,0.068,0.208,0.132,0.315,0.193
	c0.216,0.119,0.436,0.226,0.663,0.315c0.113,0.045,0.228,0.086,0.344,0.12l0.043,0.014l0.044,0.012
	c0.028,0.008,0.059,0.016,0.087,0.024c0.059,0.014,0.116,0.029,0.176,0.04c0.205,0.045,0.414,0.068,0.621,0.075l-0.133-0.298
	l-0.604-1.334L9.861,7.691L9.558,7.024C9.355,6.58,9.152,6.136,8.947,5.692C8.932,5.657,8.946,5.617,8.981,5.601
	C9.015,5.584,9.055,5.6,9.072,5.634l0,0c0.205,0.443,0.413,0.886,0.62,1.328l0.311,0.664l0.313,0.662l0.627,1.324l0.129,0.27
	c0.113-0.151,0.217-0.311,0.305-0.48c0.029-0.053,0.054-0.107,0.081-0.161c0.013-0.028,0.025-0.055,0.037-0.083l0.019-0.042
	l0.019-0.042c0.047-0.112,0.088-0.226,0.125-0.343c0.076-0.232,0.136-0.47,0.179-0.712c0.022-0.121,0.04-0.243,0.054-0.365
	c0.007-0.061,0.012-0.123,0.017-0.184c0.004-0.031,0.005-0.061,0.007-0.091l0.002-0.046c0.001-0.015,0.005-0.03,0.021-0.045
	l0.003-0.003c0.021-0.022,0.054-0.023,0.074-0.001c0.001,0,0.002,0.001,0.002,0.002c0.017,0.016,0.021,0.032,0.022,0.047
	c0,0.017,0.001,0.031,0.002,0.047c0,0.032,0.001,0.063,0.001,0.095c0,0.063-0.001,0.127-0.003,0.189
	c-0.004,0.127-0.013,0.253-0.024,0.38c-0.013,0.125-0.029,0.251-0.052,0.378c-0.011,0.063-0.022,0.125-0.035,0.188l-0.021,0.093
	c-0.007,0.032-0.015,0.063-0.023,0.092c-0.03,0.124-0.067,0.247-0.11,0.369l-0.015,0.047l-0.018,0.045
	c-0.012,0.03-0.022,0.06-0.033,0.09c-0.025,0.061-0.049,0.119-0.076,0.18c-0.026,0.059-0.056,0.116-0.084,0.175
	C11.532,9.73,11.516,9.758,11.5,9.788l-0.023,0.043c-0.007,0.014-0.016,0.028-0.023,0.042l-0.052,0.082l-0.054,0.082l-0.026,0.041
	l-0.029,0.04l-0.058,0.08c-0.002,0.003-0.004,0.006-0.007,0.009l0.348,0.728l0.632,1.321l0.064,0.135
	c0.259-0.272,0.504-0.556,0.723-0.855c0.248-0.332,0.467-0.682,0.643-1.052c0.176-0.372,0.307-0.763,0.369-1.169
	c0.029-0.202,0.043-0.407,0.035-0.613s-0.035-0.409-0.082-0.61l0,0c-0.006-0.033,0.014-0.066,0.045-0.073
	c0.031-0.008,0.064,0.012,0.074,0.043c0.059,0.206,0.098,0.417,0.113,0.632c0.018,0.214,0.016,0.43-0.008,0.645
	c-0.043,0.429-0.16,0.847-0.326,1.243c-0.164,0.397-0.377,0.772-0.615,1.128c-0.238,0.356-0.504,0.693-0.784,1.01
	c-0.007,0.008-0.013,0.014-0.02,0.02l0.007,0.014c0.026,0.055,0.053,0.107,0.08,0.16c0.106,0.211,0.088,0.182,0.213,0.379
	c0,0,0.002,0.008,0.004,0.021l0,0c0,0.002,0,0.004,0,0.01c0,0.02,0,0.043-0.006,0.07c-0.008,0.037-0.023,0.074-0.061,0.098
	c-0.052,0.029-0.108,0.018-0.148,0c-0.023-0.01-0.041-0.018-0.043-0.021l-0.003-0.002c0.004,0.008,0.006,0.012,0.01,0.018
	c0.002,0.006,0.004,0.01,0.009,0.018l0,0c0.044,0.078,0.076,0.135,0.114,0.199c0.128,0.215,0.267,0.426,0.423,0.625
	s0.324,0.389,0.512,0.563c0.188,0.176,0.393,0.334,0.617,0.471c0.057,0.033,0.113,0.064,0.172,0.096
	c0.061,0.031,0.119,0.059,0.18,0.086c0.064,0.025,0.127,0.049,0.191,0.07c0.023,0.01,0.045,0.016,0.068,0.021
	c0.041,0.027,0.094,0.041,0.146,0.039l0.01-0.002h0.01h0.008c0.004,0,0.008,0,0.02-0.002c-0.193,0.066,0.398-0.01,0.078-0.455
	c-0.045-0.021-0.039-0.016-0.049-0.02c-0.006,0-0.01-0.002-0.012-0.002l-0.004-0.004l-0.016-0.002h-0.012
	c-0.01-0.002-0.02-0.004-0.029-0.006c-0.004,0.002-0.01,0.004-0.016,0.006c-0.008,0-0.012,0-0.02,0.002c-0.004,0-0.01,0-0.016,0
	c0.012-0.004,0.021-0.008,0.029-0.014c-0.021-0.004-0.045-0.008-0.068-0.014c-0.051-0.012-0.104-0.027-0.156-0.045
	s-0.104-0.037-0.156-0.059c-0.053-0.023-0.104-0.047-0.154-0.072c-0.201-0.104-0.393-0.234-0.57-0.381
	c-0.18-0.15-0.346-0.318-0.498-0.496c-0.154-0.18-0.295-0.371-0.426-0.57c-0.002-0.004-0.115-0.199-0.135-0.234
	c0.131-0.402,0.572-0.135,0.598-0.141c0.135,0.082,0.236,0.111,0.398,0.191c0.043,0.021,0.088,0.043,0.135,0.066
	c0.557,0.26,1.094,0.369,1.592,0.326c0.258-0.021,0.516-0.092,0.748-0.201c0.309-0.145,0.563-0.357,0.74-0.613
	c0.172-0.254,0.275-0.549,0.311-0.903C17.297,11.764,17.287,11.476,17.242,11.119z M14.766,13.844c0.002,0,0.006,0.002,0.008,0.002
	l0,0c-0.002,0-0.002,0-0.006-0.002s-0.002,0-0.012-0.003L14.766,13.844z"/>
</svg>
