<?xml version="1.0" encoding="utf-8"?>
<!-- Generator: Adobe Illustrator 16.0.0, SVG Export Plug-In . SVG Version: 6.00 Build 0)  -->
<!DOCTYPE svg PUBLIC "-//W3C//DTD SVG 1.1//EN" "http://www.w3.org/Graphics/SVG/1.1/DTD/svg11.dtd">
<svg version="1.1" id="Ebene_1" xmlns="http://www.w3.org/2000/svg" xmlns:xlink="http://www.w3.org/1999/xlink" x="0px" y="0px"
	 width="195.57px" height="80px" viewBox="21.496 8.793 195.57 80" enable-background="new 21.496 8.793 195.57 80"
	 xml:space="preserve">
<g>
	<path fill="#B9CC34" d="M71.263,53.584c-7.89,0-14.307-6.447-14.307-14.372s6.418-14.371,14.307-14.371
		c7.89,0,14.307,6.447,14.307,14.371C85.571,47.137,79.153,53.584,71.263,53.584 M71.263,30.472c-4.798,0-8.702,3.921-8.702,8.741
		s3.904,8.74,8.702,8.74c4.799,0,8.702-3.92,8.702-8.74S76.063,30.472,71.263,30.472"/>
	<path fill="#CBCBCB" d="M74.365,75.685h-6.829c-3.586,0-5.969-2.488-6.811-3.957l-3.418-5.963
		c-0.216-0.376-0.392-0.755-0.532-1.133h3.113l2.984-5.189l-0.707,1.232c-0.001,0.008-0.615,1.206,0,2.28l3.418,5.963
		c0.006,0.006,0.726,1.135,1.953,1.135h6.792c0.149-0.008,1.4-0.108,1.988-1.134l3.22-5.615c0.014-0.028,0.81-1.561,0-2.976
		l-3.219-5.616c-0.005-0.006-0.725-1.133-1.951-1.133h-2.814c3.224-0.063,6.191-1.204,8.556-3.078
		c0.473,0.496,0.831,0.988,1.067,1.401l3.22,5.616c1.946,3.391,0.915,7,0,8.594l-3.22,5.614
		C79.386,74.85,76.052,75.685,74.365,75.685 M58.038,56.592l2.689-4.688c0.052-0.093,0.107-0.184,0.163-0.272L58.038,56.592
		 M65.668,54.579l1.008-1.752c1.355,0.461,2.801,0.724,4.302,0.754h-3.441C67.529,53.583,66.31,53.642,65.668,54.579 M71.263,47.953
		c-0.073,0-0.146,0-0.218-0.002h0.437C71.41,47.952,71.336,47.953,71.263,47.953"/>
	<path fill="#86970F" d="M71.551,53.581h-0.573c-1.501-0.03-2.946-0.293-4.302-0.754l1.184-2.059l-1.552-2.699
		c0.461-0.084,0.88-0.12,1.229-0.12h3.51c0.072,0.001,0.145,0.002,0.218,0.002s0.146-0.001,0.218-0.002h2.883
		c2.579,0,4.534,1.284,5.742,2.552C77.742,52.376,74.775,53.517,71.551,53.581"/>
	<path fill="#0A7485" d="M56.775,64.631H43.949l-6.354-11.051H31.24v-5.63h6.358l6.351-11.05h13.193
		c-0.122,0.752-0.186,1.525-0.186,2.312c0,4.404,1.982,8.351,5.098,10.989c-0.424,0.406-0.819,0.88-1.165,1.429l0.497-0.862
		l-4.735-8.237h-9.468l-4.734,8.237L47.184,59h9.468l1.386-2.409l-0.731,1.275C56.567,59.158,55.748,61.878,56.775,64.631
		 M62.872,59.443l2.711-4.73c0.027-0.048,0.055-0.092,0.085-0.135L62.872,59.443"/>
	<path fill="#006124" d="M62.054,50.203c-3.116-2.639-5.098-6.586-5.098-10.99c0-0.787,0.063-1.559,0.186-2.312h2.747l6.42,11.169
		C65.014,48.305,63.39,48.921,62.054,50.203"/>
	<path fill="#005562" d="M59.888,64.631h-3.113c-1.027-2.753-0.208-5.475,0.532-6.765l0.731-1.275l2.852-4.961
		c0.346-0.549,0.74-1.022,1.165-1.429c1.35,1.144,2.914,2.041,4.622,2.623l-1.008,1.753c-0.029,0.043-0.057,0.087-0.084,0.135
		l-2.712,4.73L59.888,64.631"/>
	<path fill="#004E1B" d="M66.676,52.827c-1.708-0.583-3.272-1.479-4.622-2.624c1.335-1.282,2.96-1.897,4.253-2.132l1.552,2.699
		L66.676,52.827"/>
	<path fill="#B9CC34" d="M77.433,33.054c-0.007-0.001-0.011-0.002-0.011-0.002s0-0.003-0.002-0.011
		C77.425,33.045,77.428,33.049,77.433,33.054 M83.404,31.614c-1.151-1.849-2.709-3.417-4.546-4.577
		c0.422-0.704,0.961-1.417,1.651-2.109c2.775-2.786,5.895-3.144,7.313-3.144c0.489,0,0.777,0.042,0.777,0.042
		s0.645,4.377-3.089,8.126C84.818,30.646,84.105,31.189,83.404,31.614"/>
	<path fill="#6DA82E" d="M78.199,33.095c-0.434,0-0.709-0.034-0.767-0.041c-0.004-0.004-0.008-0.008-0.013-0.013
		c-0.026-0.199-0.359-3.01,1.438-6.004c1.837,1.161,3.396,2.729,4.546,4.577C81.288,32.893,79.264,33.095,78.199,33.095"/>
	<g>
		<path fill="#5A5A5A" d="M103.586,38.685h-1.417v-5.107h-4.606v5.107h-1.417V28.028h1.417v4.428h4.606v-4.428h1.417V38.685z"/>
		<path fill="#5A5A5A" d="M111.232,38.08c-0.462,0.462-1.116,0.693-1.963,0.693h-0.945c-0.846,0-1.486-0.216-1.919-0.649
			c-0.551-0.551-0.826-1.776-0.826-3.675c0-1.899,0.275-3.125,0.826-3.675c0.433-0.433,1.062-0.649,1.889-0.649h0.03h0.945
			c0.846,0,1.486,0.216,1.919,0.649c0.61,0.61,0.885,1.899,0.826,3.867l-0.059,2.067C111.936,37.16,111.695,37.618,111.232,38.08z
			 M110.318,31.835c-0.207-0.433-0.591-0.649-1.151-0.649h-0.753c-0.551,0-0.934,0.216-1.151,0.649
			c-0.197,0.404-0.295,1.349-0.295,2.834c0,1.162,0.098,1.958,0.295,2.391c0.197,0.433,0.585,0.649,1.166,0.649h0.738
			c0.541,0,0.924-0.216,1.151-0.649c0.207-0.394,0.31-1.191,0.31-2.391C110.628,33.214,110.524,32.27,110.318,31.835z"/>
		<path fill="#5A5A5A" d="M117.137,31.187h-0.693h-0.016c-0.551,0-0.93,0.214-1.136,0.642c-0.207,0.428-0.31,1.254-0.31,2.479
			c0,1.225,0.098,2.099,0.295,2.62c0.197,0.521,0.581,0.782,1.151,0.782h0.708c0.413,0,0.74-0.057,0.981-0.17
			c0.241-0.113,0.504-0.292,0.79-0.539l0.708,0.769c-0.276,0.374-0.61,0.634-1.005,0.782c-0.394,0.147-0.909,0.221-1.55,0.221
			h-0.782c-0.806,0-1.427-0.216-1.859-0.649c-0.551-0.551-0.827-1.776-0.827-3.675c0-1.899,0.276-3.125,0.827-3.675
			c0.432-0.433,1.073-0.649,1.919-0.649h0.014h0.752c0.867,0,1.517,0.147,1.949,0.443c0.217,0.157,0.408,0.364,0.576,0.62
			l-0.901,0.738C118.357,31.433,117.826,31.187,117.137,31.187z"/>
		<path fill="#5A5A5A" d="M127.204,38.685h-1.328v-5.063c0-0.629-0.015-1.073-0.045-1.329c-0.068-0.738-0.486-1.107-1.254-1.107
			h-0.887c-0.472,0-0.805,0.157-1.003,0.472c-0.148,0.236-0.223,0.9-0.223,1.993v5.034h-1.343V27.053h1.343v3.514l0.34-0.207
			c0.266-0.157,0.631-0.236,1.093-0.236h0.812c0.856,0,1.486,0.217,1.89,0.649s0.605,1.136,0.605,2.111V38.685L127.204,38.685z"/>
		<path fill="#5A5A5A" d="M134.762,36.692v0.015c0,0.63-0.206,1.132-0.62,1.506c-0.413,0.374-1.008,0.56-1.786,0.56h-0.812
			c-0.63,0-1.132-0.076-1.506-0.229c-0.374-0.152-0.703-0.416-0.989-0.789l0.842-0.753c0.246,0.275,0.484,0.462,0.716,0.562
			c0.23,0.098,0.533,0.147,0.906,0.147h0.769c0.345,0,0.632-0.103,0.864-0.31s0.347-0.497,0.347-0.872
			c0-0.669-0.118-1.092-0.354-1.269c-0.119-0.088-0.252-0.147-0.398-0.177l-2.17-0.56c-0.53-0.128-0.896-0.315-1.092-0.561
			c-0.217-0.256-0.324-0.649-0.324-1.181v-0.561c0-0.649,0.199-1.162,0.598-1.536c0.397-0.374,0.985-0.562,1.763-0.562h0.591
			c0.61,0,1.108,0.074,1.491,0.222c0.383,0.148,0.723,0.408,1.018,0.782l-0.855,0.738c-0.236-0.256-0.473-0.433-0.708-0.531
			c-0.236-0.099-0.542-0.148-0.916-0.148h-0.546c-0.324,0-0.6,0.079-0.826,0.236s-0.34,0.374-0.34,0.649
			c0,0.354,0.016,0.603,0.044,0.745c0.029,0.143,0.057,0.236,0.082,0.28c0.024,0.044,0.085,0.111,0.185,0.199
			c0.099,0.099,0.236,0.172,0.413,0.222l2.185,0.531c0.541,0.138,0.91,0.334,1.108,0.59c0.216,0.275,0.324,0.758,0.324,1.447
			L134.762,36.692L134.762,36.692z"/>
		<path fill="#5A5A5A" d="M139.885,31.187h-0.694h-0.016c-0.551,0-0.93,0.214-1.137,0.642c-0.206,0.428-0.31,1.254-0.31,2.479
			c0,1.225,0.099,2.099,0.296,2.62c0.195,0.521,0.58,0.782,1.15,0.782h0.708c0.413,0,0.741-0.057,0.981-0.17
			c0.241-0.113,0.505-0.292,0.79-0.539l0.708,0.769c-0.275,0.374-0.61,0.634-1.005,0.782c-0.392,0.147-0.909,0.221-1.55,0.221
			h-0.782c-0.807,0-1.427-0.216-1.859-0.649c-0.552-0.551-0.827-1.776-0.827-3.675c0-1.899,0.275-3.125,0.827-3.675
			c0.433-0.433,1.072-0.649,1.919-0.649h0.015h0.753c0.866,0,1.517,0.147,1.948,0.443c0.218,0.157,0.409,0.364,0.576,0.62
			l-0.9,0.738C141.105,31.433,140.574,31.187,139.885,31.187z"/>
		<path fill="#5A5A5A" d="M149.953,38.685h-1.329v-5.063c0-0.629-0.015-1.073-0.044-1.329c-0.069-0.738-0.488-1.107-1.255-1.107
			h-0.886c-0.472,0-0.807,0.157-1.004,0.472c-0.148,0.236-0.222,0.9-0.222,1.993v5.034h-1.344V27.053h1.344v3.514l0.339-0.207
			c0.266-0.157,0.631-0.236,1.093-0.236h0.812c0.856,0,1.486,0.217,1.89,0.649s0.605,1.136,0.605,2.111L149.953,38.685
			L149.953,38.685z"/>
		<path fill="#5A5A5A" d="M157.526,38.124c-0.403,0.433-1.034,0.649-1.891,0.649h-1.004c-0.855,0-1.486-0.216-1.889-0.649
			c-0.404-0.433-0.605-1.131-0.605-2.096v-5.816h1.343v5.078c0,0.63,0.011,1.072,0.03,1.329c0.068,0.728,0.486,1.092,1.254,1.092
			h0.737c0.769,0,1.186-0.364,1.255-1.092c0.021-0.257,0.029-0.699,0.029-1.329v-5.078h1.344v5.816
			C158.131,36.992,157.928,37.691,157.526,38.124z"/>
		<path fill="#5A5A5A" d="M162.855,38.685h-0.428c-0.768,0-1.309-0.157-1.623-0.472c-0.315-0.315-0.473-0.855-0.473-1.624v-9.536
			h1.344v8.916c0,0.354,0.016,0.657,0.044,0.907c0.029,0.251,0.109,0.45,0.236,0.598l0.148,0.118
			c0.088,0.079,0.314,0.118,0.679,0.118h0.074v0.975H162.855z"/>
		<path fill="#5A5A5A" d="M169.675,36.973l0.886,0.738c-0.354,0.472-0.729,0.768-1.122,0.886c-0.393,0.118-0.856,0.177-1.387,0.177
			h-1.063c-0.826,0-1.456-0.216-1.891-0.649c-0.551-0.551-0.826-1.85-0.826-3.896c0-1.752,0.275-2.903,0.826-3.454
			c0.434-0.433,1.083-0.649,1.949-0.649h0.015h0.871c1.753,0,2.628,0.896,2.628,2.686c0,0.787-0.097,1.309-0.289,1.564
			c-0.19,0.257-0.656,0.383-1.395,0.383h-3.203l0.017,0.68c0,0.66,0.087,1.195,0.264,1.608c0.197,0.443,0.587,0.664,1.168,0.664
			h0.943C168.765,37.71,169.301,37.465,169.675,36.973z M169.232,32.721c0-0.492-0.119-0.875-0.354-1.151
			c-0.217-0.256-0.571-0.384-1.063-0.384h-0.709c-0.552,0-0.935,0.221-1.151,0.664c-0.178,0.364-0.265,0.93-0.265,1.698v0.221h2.981
			c0.285,0,0.462-0.113,0.53-0.34c0.02-0.108,0.03-0.256,0.03-0.443V32.721L169.232,32.721z"/>
	</g>
	<g>
		<path fill="#5A5A5A" d="M104.084,56.566c-0.693,0.208-1.391,0.312-2.089,0.312h-1.708c-1.519,0-2.646-0.36-3.38-1.084
			c-0.427-0.428-0.762-1.038-1.004-1.832c-0.244-0.795-0.365-2.001-0.365-3.62c0-1.619,0.121-2.822,0.365-3.611
			c0.242-0.789,0.577-1.396,1.004-1.823c0.734-0.723,1.861-1.084,3.38-1.084h1.333c1.53,0,2.597,0.255,3.202,0.765
			c0.344,0.309,0.653,0.748,0.925,1.317l-1.691,1.192c-0.295-0.534-0.611-0.877-0.942-1.032c-0.332-0.154-0.818-0.231-1.458-0.231
			h-1.565c-0.866,0-1.443,0.306-1.735,0.916c-0.29,0.611-0.436,1.812-0.436,3.602c0,1.792,0.145,2.994,0.436,3.61
			c0.291,0.618,0.869,0.926,1.735,0.926h1.849c0.723,0,1.251-0.153,1.583-0.463V51.74h-2.401v-1.887h4.642v5.854
			C105.338,56.072,104.777,56.359,104.084,56.566z"/>
		<path fill="#5A5A5A" d="M114.998,56.666c-0.451,0.142-1.062,0.213-1.833,0.213h-1.476c-1.198,0-2.082-0.284-2.651-0.854
			c-0.723-0.712-1.084-2.161-1.084-4.35c0-2.187,0.362-3.637,1.084-4.349c0.569-0.581,1.483-0.871,2.74-0.871h1.246
			c1.233,0,2.144,0.293,2.731,0.88s0.881,1.426,0.881,2.517c0,1.092-0.14,1.817-0.419,2.179c-0.278,0.361-0.904,0.542-1.876,0.542
			h-4.145c0.035,0.854,0.148,1.483,0.338,1.887c0.189,0.402,0.634,0.604,1.334,0.604h1.333c0.605,0,1.044-0.095,1.316-0.285
			c0.273-0.19,0.509-0.439,0.71-0.747l1.495,1.246C116.201,56.013,115.626,56.476,114.998,56.666z M114.482,49.87
			c0-0.558-0.119-0.96-0.356-1.21c-0.237-0.249-0.658-0.374-1.263-0.374h-1.015c-0.699,0-1.146,0.205-1.342,0.614
			c-0.195,0.41-0.3,1.058-0.311,1.949h3.843c0.189,0,0.312-0.039,0.364-0.117c0.054-0.077,0.081-0.263,0.081-0.56L114.482,49.87
			L114.482,49.87z"/>
		<path fill="#5A5A5A" d="M118.36,56.771v-1.707h2.117v-6.297c0-0.202-0.026-0.333-0.08-0.391c-0.053-0.06-0.175-0.09-0.364-0.09
			h-1.263v-1.708h2.295c0.604,0,1.019,0.14,1.245,0.418c0.225,0.278,0.338,0.714,0.338,1.307v6.76h1.779v1.707H118.36z
			 M122.176,45.254c-0.255,0.255-0.561,0.382-0.915,0.382c-0.355,0-0.662-0.126-0.916-0.382c-0.256-0.255-0.383-0.558-0.383-0.907
			c0-0.35,0.127-0.652,0.383-0.907c0.255-0.255,0.561-0.382,0.916-0.382c0.354,0,0.661,0.127,0.915,0.382
			c0.256,0.254,0.383,0.557,0.383,0.907C122.558,44.696,122.43,44.999,122.176,45.254z"/>
		<path fill="#5A5A5A" d="M133.115,56.122c-0.551,0.505-1.39,0.756-2.518,0.756h-1.173c-0.914,0-1.631-0.106-2.153-0.32
			c-0.521-0.213-0.989-0.623-1.404-1.227l1.422-1.263c0.023,0.048,0.049,0.083,0.072,0.106c0.022,0.023,0.041,0.047,0.052,0.071
			c0.285,0.32,0.558,0.536,0.818,0.649c0.261,0.112,0.641,0.169,1.139,0.169h1.121c0.438,0,0.776-0.104,1.014-0.312
			c0.237-0.208,0.355-0.489,0.355-0.845c0-0.533-0.106-0.884-0.32-1.049c-0.119-0.072-0.261-0.125-0.427-0.16l-3.095-0.658
			c-0.688-0.154-1.187-0.416-1.494-0.783c-0.309-0.367-0.462-0.895-0.462-1.583v-0.427c0-0.854,0.272-1.533,0.817-2.038
			c0.546-0.504,1.377-0.756,2.49-0.756h0.854c0.938,0,1.671,0.104,2.205,0.312c0.533,0.208,1.007,0.607,1.423,1.2l-1.423,1.263
			c-0.023-0.035-0.047-0.064-0.071-0.088c-0.023-0.024-0.041-0.047-0.054-0.071c-0.271-0.32-0.551-0.531-0.836-0.632
			c-0.284-0.101-0.682-0.152-1.191-0.152h-0.8c-0.463,0-0.802,0.072-1.015,0.214c-0.214,0.142-0.321,0.347-0.321,0.614
			s0.014,0.46,0.036,0.579c0.06,0.295,0.297,0.485,0.711,0.568l3.096,0.658c0.699,0.154,1.2,0.425,1.503,0.809
			c0.303,0.386,0.453,0.935,0.453,1.646v0.711C133.942,54.939,133.667,55.618,133.115,56.122z"/>
		<path fill="#5A5A5A" d="M142.89,56.666c-0.45,0.142-1.062,0.213-1.831,0.213h-1.478c-1.197,0-2.081-0.284-2.649-0.854
			c-0.724-0.712-1.085-2.161-1.085-4.35c0-2.187,0.361-3.637,1.085-4.349c0.568-0.581,1.482-0.871,2.739-0.871h1.245
			c1.234,0,2.144,0.293,2.73,0.88c0.588,0.587,0.881,1.426,0.881,2.517c0,1.092-0.14,1.817-0.419,2.179
			c-0.278,0.361-0.904,0.542-1.877,0.542h-4.145c0.036,0.854,0.149,1.483,0.338,1.887c0.19,0.402,0.635,0.604,1.335,0.604h1.334
			c0.604,0,1.043-0.095,1.315-0.285s0.51-0.439,0.711-0.747l1.495,1.246C144.094,56.013,143.52,56.476,142.89,56.666z
			 M142.375,49.87c0-0.558-0.119-0.96-0.355-1.21c-0.238-0.249-0.659-0.374-1.264-0.374h-1.014c-0.699,0-1.147,0.205-1.344,0.614
			c-0.195,0.41-0.299,1.058-0.311,1.949h3.843c0.189,0,0.311-0.039,0.364-0.117c0.053-0.077,0.08-0.263,0.08-0.56V49.87z"/>
		<path fill="#5A5A5A" d="M152.995,56.771v-5.834c0-0.747-0.012-1.26-0.035-1.539c-0.024-0.279-0.089-0.506-0.196-0.685
			c-0.189-0.284-0.611-0.427-1.263-0.427h-1.121c-0.652,0-1.066,0.143-1.244,0.427c-0.107,0.178-0.173,0.406-0.196,0.685
			c-0.022,0.279-0.035,0.792-0.035,1.539v5.834h-2.17v-6.723c0-1.234,0.27-2.142,0.809-2.722c0.54-0.581,1.415-0.871,2.624-0.871
			h1.548c1.221,0,2.102,0.29,2.642,0.871c0.54,0.581,0.81,1.488,0.81,2.722v6.723H152.995z"/>
		<path fill="#5A5A5A" d="M164.042,56.771v-5.834c0-0.747-0.012-1.26-0.035-1.539c-0.023-0.279-0.088-0.506-0.195-0.685
			c-0.189-0.284-0.604-0.427-1.246-0.427h-1.244c-0.569,0-0.94,0.134-1.112,0.4c-0.172,0.267-0.257,1.028-0.257,2.286v5.799h-2.171
			V42.755h2.171v4.038c0.355-0.226,0.912-0.339,1.671-0.339h1.139c1.222,0,2.102,0.29,2.643,0.872
			c0.539,0.58,0.809,1.488,0.809,2.722v6.723L164.042,56.771L164.042,56.771z"/>
		<path fill="#5A5A5A" d="M175.152,56.666c-0.45,0.142-1.061,0.213-1.832,0.213h-1.476c-1.198,0-2.082-0.284-2.651-0.854
			c-0.723-0.712-1.084-2.161-1.084-4.35c0-2.187,0.361-3.637,1.084-4.349c0.569-0.581,1.483-0.871,2.74-0.871h1.245
			c1.234,0,2.145,0.293,2.731,0.88c0.586,0.587,0.88,1.426,0.88,2.517c0,1.092-0.139,1.817-0.419,2.179
			c-0.279,0.361-0.904,0.542-1.877,0.542h-4.145c0.036,0.854,0.149,1.483,0.339,1.887c0.189,0.402,0.634,0.604,1.334,0.604h1.333
			c0.605,0,1.044-0.095,1.317-0.285c0.272-0.19,0.509-0.439,0.71-0.747l1.495,1.246C176.355,56.013,175.781,56.476,175.152,56.666z
			 M174.636,49.87c0-0.558-0.119-0.96-0.356-1.21c-0.237-0.249-0.658-0.374-1.263-0.374h-1.013c-0.701,0-1.147,0.205-1.345,0.614
			c-0.195,0.41-0.299,1.058-0.312,1.949h3.844c0.189,0,0.311-0.039,0.363-0.117c0.054-0.077,0.081-0.263,0.081-0.56V49.87z"/>
		<path fill="#5A5A5A" d="M178.513,56.771v-1.707h2.117v-6.297c0-0.202-0.026-0.333-0.08-0.391c-0.053-0.06-0.175-0.09-0.364-0.09
			h-1.264v-1.708h2.296c0.604,0,1.019,0.14,1.245,0.418c0.225,0.278,0.338,0.714,0.338,1.307v6.76h1.779v1.707H178.513z
			 M182.329,45.254c-0.255,0.255-0.561,0.382-0.915,0.382c-0.355,0-0.662-0.126-0.916-0.382c-0.256-0.255-0.383-0.558-0.383-0.907
			c0-0.35,0.127-0.652,0.383-0.907c0.255-0.255,0.561-0.382,0.916-0.382c0.354,0,0.661,0.127,0.915,0.382
			c0.256,0.254,0.383,0.557,0.383,0.907C182.712,44.696,182.585,44.999,182.329,45.254z"/>
		<path fill="#5A5A5A" d="M198.845,56.771v-5.834c0-0.747-0.012-1.26-0.035-1.539c-0.022-0.279-0.089-0.506-0.195-0.685
			c-0.189-0.284-0.61-0.427-1.263-0.427h-1.156c-0.569,0-0.942,0.134-1.121,0.4c-0.178,0.267-0.267,1.023-0.267,2.268v5.816h-2.169
			v-5.816c0-0.829-0.01-1.372-0.026-1.626c-0.018-0.256-0.074-0.46-0.169-0.614c-0.202-0.284-0.604-0.427-1.211-0.427h-1.155
			c-0.652,0-1.067,0.143-1.245,0.427c-0.107,0.178-0.173,0.406-0.196,0.685c-0.022,0.278-0.035,0.792-0.035,1.538v5.835h-2.17
			v-6.724c0-1.233,0.27-2.141,0.81-2.721c0.539-0.581,1.414-0.872,2.622-0.872h1.335c1.363,0,2.224,0.268,2.579,0.801
			c0.439-0.534,1.257-0.801,2.455-0.801h1.334c1.222,0,2.102,0.291,2.642,0.872c0.539,0.581,0.81,1.488,0.81,2.721v6.724
			L198.845,56.771L198.845,56.771z"/>
	</g>
	<g>
		<path fill="#5A5A5A" d="M97.533,69.159c0,0.954,0.183,1.608,0.546,1.963c0.364,0.334,0.985,0.502,1.861,0.502
			c0.855,0,1.451-0.248,1.785-0.737c0.257-0.375,0.383-0.971,0.383-1.787v-7.012h1.418v7.365c0,1.073-0.271,1.904-0.812,2.495
			c-0.255,0.294-0.607,0.517-1.055,0.664c-0.447,0.147-0.888,0.223-1.322,0.223h-1.033c-0.452,0-0.899-0.075-1.343-0.223
			c-0.442-0.147-0.792-0.369-1.048-0.664c-0.531-0.591-0.796-1.407-0.796-2.45v-7.41h1.417v7.012L97.533,69.159L97.533,69.159z"/>
		<path fill="#5A5A5A" d="M111.867,72.745h-1.329v-5.063c0-0.631-0.014-1.073-0.044-1.329c-0.069-0.737-0.497-1.107-1.284-1.107
			h-0.783c-0.777,0-1.2,0.369-1.269,1.107c-0.019,0.256-0.03,0.699-0.03,1.329v5.063h-1.342v-5.801c0-0.974,0.202-1.678,0.605-2.11
			c0.403-0.433,1.038-0.649,1.904-0.649h1.078c0.856,0,1.486,0.217,1.889,0.649c0.404,0.433,0.605,1.137,0.605,2.11V72.745z"/>
		<path fill="#5A5A5A" d="M118.245,72.745h-4.591v-0.974h1.757v-5.89c0-0.247-0.039-0.398-0.118-0.458
			c-0.108-0.118-0.266-0.178-0.473-0.178h-0.826v-0.974h1.684c0.423,0,0.708,0.094,0.856,0.28c0.147,0.188,0.221,0.498,0.221,0.931
			v6.288h1.491L118.245,72.745L118.245,72.745z M116.429,62.811c-0.167,0.168-0.367,0.252-0.598,0.252s-0.431-0.084-0.597-0.252
			c-0.167-0.167-0.251-0.366-0.251-0.597c0-0.232,0.084-0.431,0.251-0.599c0.167-0.167,0.366-0.25,0.597-0.25
			s0.431,0.083,0.598,0.25c0.167,0.168,0.25,0.366,0.25,0.599C116.68,62.445,116.596,62.643,116.429,62.811z"/>
		<path fill="#5A5A5A" d="M125.329,64.272c-0.02,1.968-0.182,3.36-0.487,4.178c-0.028,0.069-0.393,0.812-1.092,2.229l-1.048,2.067
			h-0.855l-1.034-2.067l-1.092-2.213c-0.315-0.838-0.478-2.234-0.487-4.192h1.343c0.01,1.378,0.111,2.51,0.303,3.396
			s0.357,1.5,0.495,1.845c0.138,0.344,0.384,0.9,0.738,1.668l0.177,0.384l0.162-0.384l0.737-1.668
			c0.403-1.013,0.649-2.104,0.737-3.277c0.03-0.462,0.055-1.115,0.075-1.963L125.329,64.272L125.329,64.272z"/>
		<path fill="#5A5A5A" d="M132.077,71.032l0.885,0.738c-0.354,0.472-0.729,0.769-1.121,0.885c-0.395,0.119-0.856,0.178-1.388,0.178
			h-1.063c-0.826,0-1.456-0.217-1.889-0.649c-0.551-0.551-0.827-1.85-0.827-3.896c0-1.752,0.276-2.903,0.827-3.454
			c0.432-0.433,1.081-0.649,1.948-0.649h0.015h0.872c1.751,0,2.627,0.896,2.627,2.687c0,0.787-0.096,1.309-0.289,1.563
			c-0.19,0.257-0.656,0.385-1.395,0.385h-3.202l0.016,0.679c0,0.659,0.088,1.195,0.266,1.608c0.195,0.444,0.585,0.665,1.165,0.665
			h0.945C131.166,71.77,131.703,71.524,132.077,71.032z M131.634,66.781c0-0.491-0.119-0.876-0.355-1.151
			c-0.216-0.255-0.569-0.384-1.063-0.384h-0.708c-0.552,0-0.936,0.222-1.15,0.664c-0.179,0.365-0.266,0.931-0.266,1.699v0.221h2.981
			c0.285,0,0.462-0.114,0.531-0.34c0.019-0.108,0.029-0.256,0.029-0.442V66.781L131.634,66.781z"/>
		<path fill="#5A5A5A" d="M138.541,65.246h-0.974c-0.536,0-0.827,0.157-0.87,0.473c-0.069,0.427-0.104,1.086-0.104,1.978v4.074h1.27
			v0.974h-3.809V71.77h1.195v-4.827c0-1.054,0.178-1.768,0.531-2.14c0.256-0.414,0.802-0.62,1.639-0.62h1.122V65.246L138.541,65.246
			z"/>
		<path fill="#5A5A5A" d="M145.583,70.751v0.016c0,0.63-0.206,1.132-0.62,1.506c-0.413,0.373-1.009,0.562-1.786,0.562h-0.812
			c-0.63,0-1.132-0.077-1.505-0.229c-0.374-0.154-0.704-0.417-0.99-0.791l0.841-0.753c0.247,0.275,0.486,0.463,0.716,0.563
			c0.231,0.098,0.534,0.146,0.908,0.146h0.768c0.344,0,0.632-0.103,0.864-0.31c0.231-0.206,0.347-0.497,0.347-0.872
			c0-0.668-0.119-1.092-0.354-1.27c-0.118-0.087-0.252-0.147-0.398-0.176l-2.17-0.562c-0.53-0.128-0.895-0.316-1.092-0.561
			c-0.217-0.258-0.324-0.65-0.324-1.182V66.28c0-0.65,0.199-1.161,0.597-1.536c0.399-0.373,0.986-0.561,1.764-0.561h0.591
			c0.61,0,1.108,0.073,1.491,0.222c0.384,0.147,0.723,0.408,1.019,0.783l-0.856,0.737c-0.236-0.258-0.472-0.434-0.708-0.531
			c-0.236-0.1-0.541-0.148-0.915-0.148h-0.546c-0.324,0-0.6,0.08-0.827,0.236c-0.227,0.157-0.34,0.374-0.34,0.649
			c0,0.354,0.015,0.603,0.044,0.745c0.03,0.143,0.057,0.236,0.083,0.28c0.022,0.045,0.085,0.112,0.184,0.199
			c0.099,0.099,0.236,0.173,0.413,0.222l2.185,0.532c0.542,0.138,0.911,0.334,1.108,0.591c0.216,0.275,0.324,0.757,0.324,1.445
			L145.583,70.751L145.583,70.751z"/>
		<path fill="#5A5A5A" d="M151.651,72.745h-4.591v-0.974h1.757v-5.89c0-0.247-0.04-0.398-0.119-0.458
			c-0.108-0.118-0.266-0.178-0.473-0.178h-0.826v-0.974h1.683c0.424,0,0.709,0.094,0.857,0.28c0.147,0.188,0.221,0.498,0.221,0.931
			v6.288h1.491V72.745z M149.836,62.811c-0.167,0.168-0.367,0.252-0.598,0.252c-0.231,0-0.431-0.084-0.598-0.252
			c-0.167-0.167-0.251-0.366-0.251-0.597c0-0.232,0.084-0.431,0.251-0.599c0.167-0.167,0.366-0.25,0.598-0.25
			c0.23,0,0.431,0.083,0.598,0.25c0.166,0.168,0.251,0.366,0.251,0.599C150.087,62.445,150.002,62.643,149.836,62.811z"/>
		<path fill="#5A5A5A" d="M157.039,72.833h-1.019c-0.886,0-1.53-0.217-1.934-0.649s-0.605-1.132-0.605-2.096v-4.842h-1.033v-0.974
			h1.033v-2.185h1.358v2.185h1.83v0.974h-1.83v4.074c0,1.073,0.074,1.731,0.223,1.978c0.206,0.315,0.585,0.473,1.137,0.473h0.84
			V72.833L157.039,72.833z"/>
		<g>
			<path fill="#5A5A5A" d="M163.891,75.262c-0.403,0.437-1.014,0.656-1.831,0.656h-2.494v-1.048h2.347
				c0.463,0,0.782-0.123,0.959-0.369c0.178-0.246,0.267-0.852,0.267-1.815v-0.399l-0.325,0.192
				c-0.295,0.177-0.689,0.266-1.181,0.266h-0.693c-0.856,0-1.487-0.227-1.891-0.679c-0.403-0.453-0.604-1.19-0.604-2.214v-5.58
				h1.344v4.604c0,0.631,0.01,1.073,0.029,1.329c0.069,0.729,0.487,1.092,1.254,1.092h0.841c0.463,0,0.782-0.133,0.96-0.398
				c0.178-0.265,0.266-0.944,0.266-2.036v-4.591h1.358v8.886C164.498,74.122,164.295,74.823,163.891,75.262z"/>
		</g>
	</g>
</g>
</svg>
