<?xml version="1.0" encoding="utf-8"?>
<!-- Generator: Adobe Illustrator 16.0.0, SVG Export Plug-In . SVG Version: 6.00 Build 0)  -->
<!DOCTYPE svg PUBLIC "-//W3C//DTD SVG 1.1//EN" "http://www.w3.org/Graphics/SVG/1.1/DTD/svg11.dtd">
<svg version="1.1" id="Ebene_1" xmlns="http://www.w3.org/2000/svg" xmlns:xlink="http://www.w3.org/1999/xlink" x="0px" y="0px"
	 width="500px" height="500px" viewBox="0 0 500 500" enable-background="new 0 0 500 500" xml:space="preserve">
<g>
	<path fill="#5461af" d="M207.336,373.812c-2.299,0-4.164-1.865-4.164-4.163v-76.335c0-2.3,1.865-4.164,4.164-4.164
		c2.299,0,4.163,1.864,4.163,4.164v76.335C211.5,371.948,209.635,373.812,207.336,373.812z M228.287,356.306V306.66
		c0-2.299-1.864-4.163-4.164-4.163c-2.299,0-4.164,1.865-4.164,4.163v49.646c0,2.299,1.864,4.164,4.164,4.164
		C226.423,360.47,228.287,358.604,228.287,356.306z M245.073,342.876v-22.787c0-2.298-1.865-4.163-4.164-4.163
		c-2.299,0-4.164,1.865-4.164,4.163v22.787c0,2.299,1.865,4.163,4.164,4.163C243.208,347.039,245.073,345.175,245.073,342.876z
		 M177.926,342.876v-22.787c0-2.298-1.864-4.163-4.163-4.163c-2.3,0-4.164,1.865-4.164,4.163v22.787
		c0,2.299,1.864,4.163,4.164,4.163C176.062,347.039,177.926,345.175,177.926,342.876z M194.713,356.306V306.66
		c0-2.299-1.865-4.163-4.164-4.163c-2.299,0-4.164,1.865-4.164,4.163v49.646c0,2.299,1.864,4.164,4.164,4.164
		C192.848,360.47,194.713,358.604,194.713,356.306z M295.301,366.114v-69.264c0-2.299-1.864-4.163-4.163-4.163
		c-2.3,0-4.164,1.864-4.164,4.163v69.264c0,2.299,1.864,4.163,4.164,4.163C293.437,370.277,295.301,368.413,295.301,366.114z
		 M278.779,341.821v-20.678c0-2.299-1.864-4.163-4.164-4.163c-2.299,0-4.164,1.864-4.164,4.163v20.678
		c0,2.3,1.865,4.166,4.164,4.166C276.915,345.987,278.779,344.119,278.779,341.821z M312.22,356.927v-50.889
		c0-2.298-1.864-4.164-4.163-4.164c-2.301,0-4.164,1.866-4.164,4.164v50.889c0,2.299,1.863,4.163,4.164,4.163
		C310.355,361.09,312.22,359.226,312.22,356.927z M329.007,341.821v-20.678c0-2.299-1.864-4.163-4.167-4.163
		c-2.299,0-4.163,1.864-4.163,4.163v20.678c0,2.3,1.864,4.166,4.163,4.166C327.143,345.985,329.007,344.119,329.007,341.821z
		 M261.859,354.007v-45.049c0-2.298-1.863-4.163-4.166-4.163c-2.299,0-4.163,1.865-4.163,4.163v45.049
		c0,2.299,1.864,4.163,4.163,4.163C259.996,358.17,261.859,356.306,261.859,354.007z"/>
	<path d="M400.134,218.769c0.825,2.981,3.731,4.989,6.895,4.603c3.482-0.424,5.961-3.593,5.534-7.076
		c-2.358-19.317-8.677-38.269-18.035-55.663c-9.473-17.338-22.051-33.136-37.146-46.214c-15.06-13.106-32.564-23.528-51.393-30.56
		c-9.411-3.53-19.165-6.158-29.064-7.968c-9.907-1.766-19.967-2.643-30.017-2.682c-10.049,0.039-20.111,0.916-30.017,2.682
		c-9.897,1.81-19.65,4.438-29.061,7.968c-18.832,7.031-36.34,17.453-51.396,30.56c-15.094,13.078-27.672,28.876-37.145,46.214
		c-9.36,17.395-15.677,36.346-18.037,55.663c-0.378,3.069,1.534,6.038,4.604,6.893c3.381,0.938,6.882-1.041,7.822-4.422l0.011-0.035
		c4.816-17.334,12.033-33.774,21.781-48.468c9.602-14.772,21.686-27.746,35.351-38.486c13.689-10.726,29.056-19.159,45.357-24.792
		c8.148-2.812,16.51-4.986,25.008-6.38c8.487-1.437,17.098-2.163,25.721-2.146c8.622-0.017,17.235,0.71,25.721,2.146
		c8.497,1.394,16.863,3.568,25.014,6.38c16.296,5.633,31.664,14.066,45.353,24.792c13.665,10.741,25.752,23.714,35.349,38.486
		c9.748,14.693,16.969,31.134,21.784,48.468L400.134,218.769z M88.29,386.787c16.746,0,30.447-13.699,30.447-30.446v-83.226
		c0-16.748-13.701-30.449-30.447-30.449h-1.288c-16.747,0-30.448,13.701-30.448,30.449v83.225c0,16.747,13.701,30.447,30.448,30.447
		H88.29 M44.948,277.336c-13.678,8.845-22.326,21.785-22.326,36.221c0,14.432,8.65,27.367,22.326,36.213V277.336z M406.975,386.787
		h1.288c16.747,0,30.448-13.699,30.448-30.446v-83.226c0-16.748-13.701-30.449-30.448-30.449h-1.288
		c-16.746,0-30.448,13.701-30.448,30.449v83.225C376.526,373.085,390.229,386.787,406.975,386.787 M450.315,349.772
		c13.676-8.847,22.326-21.78,22.326-36.214c0-14.435-8.648-27.374-22.326-36.219V349.772z"/>
</g>
</svg>
