<?xml version="1.0" encoding="utf-8"?>
<!-- Generator: Adobe Illustrator 16.0.0, SVG Export Plug-In . SVG Version: 6.00 Build 0)  -->
<!DOCTYPE svg PUBLIC "-//W3C//DTD SVG 1.1//EN" "http://www.w3.org/Graphics/SVG/1.1/DTD/svg11.dtd">
<svg version="1.1" id="Ebene_1" xmlns="http://www.w3.org/2000/svg" xmlns:xlink="http://www.w3.org/1999/xlink" x="0px" y="0px"
	 width="24px" height="24px" viewBox="0 0 24 24" enable-background="new 0 0 24 24" xml:space="preserve">
<path d="M6.842,21.523c1.932-0.748,3.527-1.685,4.745-2.787c-0.364-0.334-0.908-0.954-1.286-1.932
	c-0.032-0.084-0.03-0.177,0.008-0.258c0.034-0.08,0.103-0.145,0.187-0.173c0.031-0.013,0.072-0.021,0.112-0.021
	c0.14,0,0.262,0.084,0.311,0.213c0.348,0.9,0.876,1.463,1.146,1.707c0.837-0.863,1.455-1.817,1.833-2.842
	c-0.317-0.058-0.75-0.172-1.248-0.399c-0.958-0.44-1.826-1.142-2.579-2.081c-0.054-0.066-0.081-0.156-0.07-0.244
	c0.009-0.088,0.054-0.168,0.126-0.223c0.121-0.098,0.347-0.083,0.458,0.053c0.703,0.88,1.508,1.525,2.398,1.922
	c0.479,0.213,0.871,0.303,1.119,0.338c0.271-1.006,0.324-2.061,0.151-3.137c-0.376-0.028-1.108-0.107-1.943-0.327
	c-1.37-0.359-2.437-0.94-3.17-1.724C9.082,9.546,9.049,9.458,9.053,9.37c0.003-0.084,0.04-0.166,0.103-0.226
	c0.138-0.124,0.35-0.112,0.469,0.014c1.306,1.395,3.549,1.743,4.495,1.829c-0.276-1.137-0.796-2.26-1.546-3.343
	C11.91,7.674,9.589,7.713,8.225,6.77C8.152,6.722,8.101,6.643,8.087,6.556C8.072,6.468,8.092,6.381,8.141,6.311
	c0.101-0.142,0.308-0.183,0.456-0.086c0.961,0.663,2.593,0.765,3.492,0.767c-1.236-1.569-2.894-2.971-4.7-3.969
	C7.314,2.98,7.259,2.911,7.233,2.828C7.209,2.736,7.219,2.651,7.26,2.574c0.086-0.157,0.299-0.217,0.453-0.128
	c1.812,1.001,3.487,2.4,4.761,3.969c0.013-0.587-0.033-1.369-0.296-1.981c-0.071-0.17,0.005-0.359,0.17-0.433
	c0.181-0.062,0.363,0.008,0.437,0.169c0.479,1.12,0.349,2.618,0.297,3.048c0.742,1.062,1.277,2.168,1.596,3.293
	c0.396-0.715,0.918-1.999,0.581-3.384c-0.021-0.087-0.005-0.177,0.042-0.251c0.047-0.075,0.119-0.126,0.204-0.146l0.076-0.009
	c0.151,0,0.282,0.103,0.321,0.25c0.508,2.1-0.674,3.966-1.018,4.452c0.176,1.003,0.174,1.995-0.008,2.954
	c0.824-0.67,2.087-2.026,2.087-4.035c0-0.182,0.147-0.331,0.331-0.331s0.33,0.149,0.33,0.331c0,1.346-0.488,2.59-1.452,3.694
	c-0.62,0.714-1.258,1.153-1.552,1.337c-0.325,0.995-0.854,1.936-1.576,2.801c1.301-0.369,3.477-1.289,4.357-3.41
	c0.07-0.166,0.272-0.246,0.436-0.177c0.166,0.069,0.245,0.265,0.176,0.433c-0.324,0.773-0.82,1.463-1.477,2.049
	c-0.523,0.474-1.155,0.881-1.874,1.213c-1.083,0.502-2.073,0.695-2.424,0.753c-1.304,1.241-3.039,2.286-5.157,3.106
	c0,0,0.235,0.398,0.408,0.397c4.204-0.033,10.37-1.942,11.12-8.261C19.575,6.154,11.174,0.904,5.314,1.51
	c0.851,9.545,4.402,10.075,4.51,13.832c0.09,3.154-2.229,4.278-2.983,5.499C6.62,21.197,6.842,21.523,6.842,21.523z"/>
</svg>
