<?xml version="1.0" encoding="utf-8"?>
<!-- Generator: Adobe Illustrator 16.0.0, SVG Export Plug-In . SVG Version: 6.00 Build 0)  -->
<!DOCTYPE svg PUBLIC "-//W3C//DTD SVG 1.1//EN" "http://www.w3.org/Graphics/SVG/1.1/DTD/svg11.dtd">
<svg version="1.1" id="Ebene_1" xmlns="http://www.w3.org/2000/svg" xmlns:xlink="http://www.w3.org/1999/xlink" x="0px" y="0px"
	 width="24px" height="24px" viewBox="0 0 24 24" enable-background="new 0 0 24 24" xml:space="preserve">
<g>
	<g>
		<rect x="7.027" y="17.902" width="11.019" height="0.463"/>
		<path d="M21.926,3.83c0-2.112-1.719-3.83-3.83-3.83H5.904c-2.112,0-3.83,1.718-3.83,3.83v16.34c0,2.111,1.718,3.83,3.83,3.83
			h12.192c2.11,0,3.829-1.719,3.829-3.83L21.926,3.83L21.926,3.83z M21.416,20.17c0,1.83-1.488,3.318-3.32,3.318H5.904
			c-1.83,0-3.319-1.488-3.319-3.318V3.83c0-1.83,1.489-3.319,3.319-3.319h12.192c1.83,0,3.319,1.489,3.319,3.319L21.416,20.17
			L21.416,20.17z"/>
		<circle cx="5.646" cy="18.135" r="0.512"/>
		<rect x="7.027" y="19.311" width="10.331" height="0.461"/>
		<circle cx="5.646" cy="19.541" r="0.512"/>
		<rect x="7.027" y="20.716" width="11.894" height="0.462"/>
		<circle cx="5.646" cy="20.947" r="0.512"/>
	</g>
	<path d="M8.364,15.677c1.362-0.527,2.487-1.188,3.345-1.966c-0.257-0.235-0.64-0.672-0.907-1.362
		c-0.023-0.059-0.021-0.123,0.006-0.181c0.023-0.056,0.073-0.102,0.132-0.122c0.022-0.009,0.05-0.014,0.079-0.014
		c0.099,0,0.184,0.059,0.218,0.15c0.246,0.634,0.618,1.03,0.809,1.202c0.592-0.607,1.025-1.28,1.294-2.002
		c-0.225-0.041-0.529-0.122-0.881-0.282c-0.676-0.311-1.287-0.804-1.818-1.467c-0.038-0.046-0.057-0.11-0.049-0.172
		c0.007-0.062,0.038-0.119,0.089-0.157c0.085-0.069,0.244-0.059,0.323,0.038c0.496,0.62,1.063,1.075,1.691,1.354
		c0.338,0.15,0.615,0.213,0.79,0.239c0.191-0.709,0.227-1.453,0.106-2.212c-0.266-0.02-0.782-0.076-1.37-0.23
		c-0.966-0.253-1.718-0.663-2.236-1.216C9.943,7.232,9.919,7.17,9.922,7.107c0.002-0.059,0.028-0.116,0.072-0.159
		c0.098-0.088,0.247-0.079,0.331,0.01c0.92,0.983,2.501,1.229,3.168,1.289c-0.195-0.802-0.562-1.593-1.09-2.357
		C11.936,5.912,10.3,5.939,9.338,5.274C9.287,5.24,9.251,5.185,9.241,5.124C9.23,5.062,9.245,5,9.279,4.951
		C9.351,4.85,9.497,4.822,9.601,4.89c0.677,0.468,1.829,0.54,2.462,0.541c-0.872-1.106-2.04-2.094-3.313-2.798
		c-0.053-0.03-0.092-0.079-0.11-0.137c-0.018-0.064-0.01-0.125,0.018-0.179c0.062-0.111,0.211-0.153,0.32-0.09
		c1.277,0.706,2.458,1.692,3.356,2.798c0.009-0.413-0.023-0.965-0.208-1.397c-0.05-0.12,0.003-0.253,0.12-0.305
		c0.128-0.043,0.255,0.005,0.308,0.119c0.338,0.789,0.245,1.846,0.21,2.149c0.522,0.749,0.901,1.529,1.124,2.322
		c0.279-0.504,0.647-1.409,0.41-2.385c-0.014-0.062-0.004-0.125,0.029-0.177c0.033-0.053,0.084-0.089,0.145-0.104l0.054-0.006
		c0.106,0,0.2,0.073,0.226,0.177c0.358,1.48-0.474,2.795-0.717,3.138c0.124,0.708,0.122,1.406-0.006,2.083
		C14.61,10.165,15.5,9.209,15.5,7.792c0-0.128,0.104-0.234,0.234-0.234c0.128,0,0.232,0.105,0.232,0.234
		c0,0.949-0.344,1.825-1.023,2.604c-0.438,0.503-0.888,0.813-1.095,0.943c-0.229,0.701-0.602,1.363-1.111,1.974
		c0.917-0.261,2.45-0.909,3.072-2.403c0.05-0.118,0.193-0.174,0.307-0.125c0.117,0.049,0.173,0.186,0.124,0.304
		c-0.229,0.547-0.579,1.033-1.04,1.445c-0.37,0.333-0.814,0.621-1.321,0.854c-0.764,0.354-1.462,0.491-1.71,0.53
		c-0.919,0.876-2.142,1.613-3.636,2.19c0,0,0.166,0.282,0.288,0.282c2.964-0.024,7.31-1.371,7.839-5.824
		c0.681-5.728-5.242-9.428-9.374-9.001c0.6,6.729,3.104,7.103,3.18,9.751c0.063,2.223-1.571,3.016-2.103,3.876
		C8.207,15.446,8.364,15.677,8.364,15.677z"/>
</g>
</svg>
