<?xml version="1.0" encoding="utf-8"?>
<!-- Generator: Adobe Illustrator 16.0.0, SVG Export Plug-In . SVG Version: 6.00 Build 0)  -->
<!DOCTYPE svg PUBLIC "-//W3C//DTD SVG 1.1//EN" "http://www.w3.org/Graphics/SVG/1.1/DTD/svg11.dtd">
<svg version="1.1" id="Ebene_1" xmlns="http://www.w3.org/2000/svg" xmlns:xlink="http://www.w3.org/1999/xlink" x="0px" y="0px"
	 width="24px" height="24px" viewBox="0 0 24 24" enable-background="new 0 0 24 24" xml:space="preserve">
<path d="M13.646,2.011c0.25,0.246,0.375,0.584,0.375,1.012c0,0.424-0.192,0.842-0.576,1.255l-0.39,0.392
	c-0.175,0.197-0.262,0.479-0.262,0.847h-0.661c0.005-0.288,0.036-0.516,0.096-0.683c0.06-0.167,0.18-0.353,0.365-0.558l0.466-0.49
	c0.202-0.231,0.3-0.479,0.3-0.743c0-0.255-0.064-0.454-0.196-0.598c-0.13-0.144-0.319-0.215-0.569-0.215
	c-0.245,0-0.438,0.066-0.586,0.197c-0.148,0.131-0.223,0.307-0.223,0.528h-0.661c0.005-0.393,0.142-0.71,0.411-0.952
	c0.271-0.242,0.625-0.363,1.057-0.363C13.043,1.641,13.394,1.765,13.646,2.011z M12.493,6.285c-0.127,0-0.226,0.037-0.29,0.112
	c-0.063,0.075-0.098,0.167-0.098,0.278c0,0.11,0.032,0.201,0.098,0.274c0.066,0.071,0.162,0.108,0.29,0.108
	c0.128,0,0.228-0.035,0.293-0.108c0.066-0.073,0.101-0.164,0.101-0.274c0-0.111-0.034-0.203-0.101-0.278
	C12.719,6.322,12.622,6.285,12.493,6.285z M19.088,3.844h-0.991l2.018,2.836h0.511l2.921-5.318L22.4,1.387l-2.044,4.261
	L19.088,3.844z M23.133,3.142C23.671,3.721,24,4.456,24,5.258c0,1.861-1.729,3.369-3.862,3.369c-1.191,0-2.255-0.473-2.964-1.213
	c-0.281,0.265-0.591,0.513-0.946,0.722c-0.281,0.164-1.188,1.967-1.674,1.967c-0.296,0,0.18-1.252-0.083-1.252
	c-0.007,0-0.016,0.001-0.021,0.003c-0.59,0.147-1.219,0.228-1.872,0.228c-3.301,0-5.974-2.033-5.974-4.541
	c0-2.354,2.354-4.287,5.37-4.518C12.173,0.008,12.375,0,12.579,0s0.408,0.007,0.607,0.023c2.078,0.159,3.826,1.135,4.723,2.494
	c0.632-0.392,1.4-0.625,2.233-0.625c0.482,0,0.939,0.082,1.362,0.224l-0.231,0.472c-0.353-0.11-0.737-0.176-1.138-0.176
	c-1.84,0-3.339,1.278-3.339,2.847c0,1.571,1.499,2.847,3.339,2.847c1.842,0,3.343-1.277,3.343-2.847c0-0.609-0.23-1.173-0.609-1.636
	L23.133,3.142z M16.677,6.737C16.425,6.29,16.28,5.79,16.28,5.258c0-0.88,0.392-1.68,1.023-2.28c-0.8-1.314-2.615-2.237-4.727-2.237
	c-2.852,0-5.173,1.674-5.173,3.733c0,2.057,2.32,3.733,5.173,3.733C14.248,8.208,15.73,7.628,16.677,6.737z"/>
<g>
	<path d="M6.813,18.523c-0.031-0.079-0.028-0.168,0.008-0.245C6.854,18.202,6.92,18.141,7,18.113
		c0.03-0.013,0.069-0.019,0.107-0.019c0.134,0,0.25,0.079,0.296,0.203c0.333,0.86,0.838,1.396,1.096,1.63
		c0.8-0.825,1.389-1.736,1.752-2.714c-0.305-0.055-0.717-0.164-1.193-0.383c-0.916-0.421-1.744-1.089-2.463-1.988
		c-0.052-0.063-0.077-0.148-0.067-0.232c0.009-0.084,0.051-0.161,0.121-0.213c0.116-0.095,0.332-0.079,0.438,0.051
		c0.671,0.84,1.441,1.457,2.291,1.836c0.457,0.203,0.833,0.287,1.07,0.322c0.26-0.961,0.308-1.968,0.145-2.997
		c-0.359-0.027-1.06-0.103-1.855-0.313c-1.309-0.344-2.328-0.898-3.029-1.647c-0.058-0.061-0.09-0.145-0.085-0.229
		c0.002-0.081,0.038-0.158,0.098-0.215c0.132-0.119,0.334-0.107,0.448,0.013c1.248,1.333,3.39,1.665,4.294,1.747
		c-0.265-1.086-0.76-2.159-1.477-3.193C8.35,9.801,6.133,9.838,4.83,8.937C4.761,8.891,4.711,8.815,4.698,8.731
		C4.684,8.648,4.703,8.565,4.75,8.498c0.096-0.136,0.294-0.175,0.436-0.082c0.918,0.634,2.478,0.731,3.336,0.732
		C8.217,8.761,7.883,8.386,7.529,8.023c-0.073-0.065-0.145-0.13-0.213-0.198C6.343,6.87,5.227,6.017,4.032,5.356
		C3.96,5.316,3.907,5.25,3.883,5.17C3.859,5.083,3.869,5.001,3.908,4.928c0.083-0.15,0.286-0.208,0.433-0.123
		c0.613,0.339,1.2,0.739,1.769,1.164C5.947,5.515,5.854,5.037,5.854,4.542c0-0.083,0.01-0.164,0.015-0.246
		c-1.31-0.361-2.621-0.508-3.82-0.384c0.813,9.12,4.206,9.625,4.309,13.214c0.086,3.014-2.129,4.087-2.85,5.253
		c-0.211,0.342,0.001,0.653,0.001,0.653c1.845-0.714,3.37-1.609,4.533-2.663C7.694,20.05,7.174,19.457,6.813,18.523z"/>
	<path d="M9.47,9.365c0.709,1.015,1.221,2.071,1.524,3.146c0.33-0.597,0.751-1.608,0.639-2.737c-0.765-0.085-1.49-0.269-2.15-0.54
		C9.479,9.28,9.474,9.331,9.47,9.365z"/>
	<path d="M12.578,9.832c-0.104,0-0.207-0.009-0.31-0.012c0.124,1.712-0.785,3.152-1.075,3.561c0.168,0.959,0.165,1.906-0.008,2.823
		c0.788-0.641,1.993-1.937,1.993-3.855c0-0.174,0.143-0.316,0.316-0.316s0.316,0.142,0.316,0.316c0,1.285-0.467,2.474-1.386,3.529
		c-0.594,0.683-1.204,1.102-1.484,1.277c-0.311,0.951-0.815,1.848-1.506,2.675c1.243-0.354,3.319-1.231,4.163-3.257
		c0.066-0.159,0.262-0.236,0.416-0.169c0.158,0.066,0.234,0.252,0.166,0.412c-0.309,0.74-0.783,1.398-1.408,1.958
		c-0.501,0.451-1.104,0.841-1.791,1.158C9.946,20.412,9,20.598,8.665,20.651c-1.245,1.187-2.902,2.185-4.926,2.968
		c0,0,0.225,0.382,0.39,0.381c4.016-0.031,9.905-1.856,10.622-7.891c0.285-2.401-0.289-4.539-1.38-6.33
		C13.106,9.804,12.843,9.832,12.578,9.832z"/>
</g>
</svg>
