<?xml version="1.0" encoding="utf-8"?>
<!-- Generator: Adobe Illustrator 16.0.0, SVG Export Plug-In . SVG Version: 6.00 Build 0)  -->
<!DOCTYPE svg PUBLIC "-//W3C//DTD SVG 1.1//EN" "http://www.w3.org/Graphics/SVG/1.1/DTD/svg11.dtd">
<svg version="1.1" id="Ebene_1" xmlns="http://www.w3.org/2000/svg" xmlns:xlink="http://www.w3.org/1999/xlink" x="0px" y="0px"
	 width="24px" height="24px" viewBox="0 0 24 24" enable-background="new 0 0 24 24" xml:space="preserve">
<g>
	<line fill="none" stroke="#000000" stroke-linecap="round" stroke-miterlimit="10" x1="2.789" y1="7.873" x2="2.789" y2="16.127"/>
	<line fill="none" stroke="#000000" stroke-linecap="round" stroke-miterlimit="10" x1="1.008" y1="9.569" x2="1.008" y2="14.432"/>
	
		<line fill="none" stroke="#000000" stroke-linecap="round" stroke-miterlimit="10" x1="21.211" y1="16.127" x2="21.211" y2="7.873"/>
	
		<line fill="none" stroke="#000000" stroke-linecap="round" stroke-miterlimit="10" x1="22.992" y1="14.432" x2="22.992" y2="9.569"/>
	<g>
		<path d="M20.197,17.281V6.718c0-1.492-1.209-2.701-2.701-2.701H6.69c-1.491,0-2.701,1.209-2.701,2.701v10.563
			c0,1.492,1.21,2.701,2.701,2.701h10.806C18.988,19.982,20.197,18.773,20.197,17.281z M6.69,19.309
			c-1.118,0-2.025-0.908-2.025-2.026V6.718c0-1.119,0.907-2.025,2.025-2.025h10.806c1.119,0,2.025,0.906,2.025,2.025v10.563
			c0,1.119-0.906,2.025-2.025,2.025H6.69V19.309z"/>
		<circle cx="9.949" cy="18.013" r="0.592"/>
		<circle cx="12.093" cy="18.013" r="0.592"/>
		<circle cx="14.238" cy="18.013" r="0.592"/>
	</g>
</g>
<path d="M9.428,15.958c0.962-0.372,1.758-0.841,2.365-1.39c-0.182-0.167-0.452-0.477-0.64-0.964
	c-0.016-0.041-0.015-0.088,0.003-0.128c0.017-0.04,0.052-0.072,0.093-0.086c0.016-0.007,0.036-0.011,0.057-0.011
	c0.07,0,0.131,0.042,0.155,0.107c0.173,0.448,0.437,0.729,0.571,0.851c0.417-0.431,0.725-0.907,0.915-1.416
	c-0.158-0.029-0.374-0.087-0.623-0.2c-0.478-0.22-0.911-0.569-1.287-1.039c-0.026-0.033-0.039-0.078-0.035-0.122
	c0.005-0.043,0.027-0.083,0.063-0.111c0.06-0.049,0.172-0.042,0.228,0.026c0.351,0.439,0.753,0.761,1.196,0.958
	c0.24,0.107,0.436,0.151,0.56,0.169c0.136-0.502,0.161-1.028,0.076-1.565c-0.188-0.014-0.554-0.053-0.97-0.163
	c-0.683-0.179-1.214-0.469-1.581-0.859c-0.03-0.032-0.046-0.076-0.043-0.12c0.001-0.042,0.02-0.083,0.05-0.113
	c0.069-0.062,0.175-0.056,0.233,0.007c0.651,0.695,1.77,0.869,2.242,0.911c-0.138-0.566-0.396-1.126-0.771-1.667
	c-0.331,0.015-1.488,0.035-2.168-0.436c-0.036-0.024-0.061-0.063-0.069-0.107c-0.007-0.044,0.003-0.087,0.027-0.123
	C10.126,8.3,10.23,8.28,10.303,8.329c0.479,0.331,1.292,0.382,1.741,0.382c-0.617-0.783-1.443-1.481-2.344-1.979
	C9.664,6.711,9.635,6.676,9.623,6.635C9.611,6.589,9.616,6.547,9.637,6.508C9.679,6.43,9.786,6.4,9.862,6.444
	c0.904,0.499,1.74,1.197,2.375,1.979c0.006-0.292-0.018-0.683-0.147-0.988c-0.036-0.085,0.002-0.179,0.084-0.216
	c0.091-0.031,0.182,0.004,0.219,0.084c0.239,0.558,0.174,1.305,0.148,1.52c0.37,0.529,0.638,1.081,0.796,1.642
	c0.196-0.356,0.458-0.997,0.29-1.687c-0.011-0.044-0.004-0.088,0.021-0.125c0.023-0.038,0.059-0.063,0.102-0.073l0.037-0.004
	c0.076,0,0.142,0.051,0.161,0.125c0.253,1.046-0.335,1.977-0.507,2.219c0.088,0.5,0.086,0.995-0.005,1.473
	c0.412-0.334,1.041-1.011,1.041-2.013c0-0.091,0.074-0.165,0.165-0.165s0.165,0.074,0.165,0.165c0,0.671-0.244,1.292-0.725,1.843
	c-0.31,0.356-0.627,0.575-0.773,0.667c-0.162,0.495-0.426,0.965-0.786,1.396c0.649-0.184,1.733-0.643,2.173-1.699
	c0.035-0.084,0.137-0.124,0.217-0.088c0.083,0.035,0.123,0.13,0.088,0.214c-0.161,0.387-0.408,0.73-0.736,1.022
	c-0.261,0.236-0.576,0.439-0.935,0.604c-0.539,0.251-1.033,0.348-1.209,0.375c-0.65,0.62-1.515,1.141-2.571,1.549
	c0,0,0.117,0.2,0.204,0.199c2.096-0.016,5.17-0.97,5.545-4.119c0.48-4.051-3.709-6.669-6.631-6.367
	c0.424,4.759,2.195,5.024,2.249,6.897c0.045,1.573-1.112,2.134-1.488,2.741C9.317,15.795,9.428,15.958,9.428,15.958z"/>
</svg>
