<?xml version="1.0" encoding="utf-8"?>
<!-- Generator: Adobe Illustrator 16.0.0, SVG Export Plug-In . SVG Version: 6.00 Build 0)  -->
<!DOCTYPE svg PUBLIC "-//W3C//DTD SVG 1.1//EN" "http://www.w3.org/Graphics/SVG/1.1/DTD/svg11.dtd">
<svg enable-background="new 0 0 342 336.818" height="336.818px" id="Ebene_1" version="1.1" viewBox="0 0 342 336.818"
     width="342px" x="0px" xml:space="preserve" xmlns="http://www.w3.org/2000/svg"
     y="0px">
<path d="M268.811,158.905c0,24.651-0.082,49.305,0.096,73.954c0.024,3.463-1.209,5.488-3.914,7.221
	c-11.407,7.305-22.826,14.596-34.102,22.1c-3.035,2.02-6.109,2.221-9.447,1.881c-2.785-0.281-5.563-0.736-8.354-0.84
	c-10.941-0.406-21.892-0.617-32.832-1.064c-14.064-0.572-28.123-1.313-42.185-1.969c-14.563-0.678-29.123-1.318-43.683-2.018
	c-5.618-0.271-11.228-0.797-16.848-0.939c-3.263-0.082-4.378-1.529-4.347-4.621c0.085-8.494,0.021-16.988,0.021-25.484
	c-0.001-40.477,0.089-80.951-0.122-121.425c-0.023-4.658,1.614-7.328,5.33-9.646c10.931-6.815,21.867-13.639,32.502-20.898
	c3.849-2.626,7.668-2.723,11.816-2.397c2.624,0.205,5.232,0.713,7.857,0.809c11.108,0.405,22.226,0.618,33.333,1.068
	c14.063,0.57,28.123,1.31,42.185,1.964c14.562,0.678,29.123,1.313,43.683,2.024c4.786,0.233,9.57,0.968,14.345,0.873
	c3.85-0.076,4.749,1.363,4.729,4.954C268.75,109.268,268.809,134.087,268.811,158.905z M224.198,184.884c0-10.824,0-21.649,0-32.475
	c-0.001-12.655-0.095-25.313,0.063-37.969c0.04-3.267-0.972-4.319-4.267-4.316c-5.113,0.004-10.225-0.639-15.343-0.888
	c-14.556-0.706-29.115-1.347-43.673-2.021c-14.227-0.659-28.447-1.408-42.677-1.97c-11.604-0.458-23.216-0.748-34.825-1.015
	c-5.632-0.129-5.641-0.026-5.641,5.366c-0.002,45.463-0.001,90.926-0.001,136.389c0,1.166,0.056,2.334,0.004,3.498
	c-0.09,2.014,0.638,3.02,2.843,3.109c5.12,0.211,10.227,0.703,15.345,0.963c13.724,0.699,27.449,1.357,41.176,1.988
	c15.224,0.701,30.446,1.42,45.673,2.004c11.605,0.447,23.218,0.695,34.826,1.033c0.499,0.016,1.004,0.004,1.495,0.076
	c4.971,0.736,4.995,0.74,4.997-4.332C224.203,231.178,224.197,208.032,224.198,184.884z M228.817,182.852
	c0,23.146-0.012,46.289,0.032,69.436c0.002,1.23,0.467,2.459,0.717,3.689c1.008-0.498,2.074-0.904,3.013-1.51
	c9.159-5.906,18.207-11.994,27.493-17.693c3.071-1.887,4.21-3.949,4.194-7.525c-0.13-30.305-0.073-60.609-0.073-90.914
	c0-15.651,0.013-31.305-0.031-46.955c-0.003-1.046-0.44-2.091-0.678-3.136c-0.867,0.39-1.799,0.681-2.594,1.186
	c-9.059,5.75-18.029,11.641-27.172,17.252c-3.617,2.221-5.08,4.792-5.025,9.237C228.962,138.227,228.816,160.542,228.817,182.852z
	 M257.459,84.628c-3.092-0.569-5.314-1.24-7.566-1.354c-15.058-0.754-30.119-1.379-45.179-2.064
	c-6.614-0.303-13.227-0.696-19.843-0.966c-17.225-0.701-34.451-1.328-51.675-2.054c-3.786-0.159-7.563-0.847-11.339-0.82
	c-2.173,0.015-4.559,0.564-6.463,1.589c-4.063,2.184-7.913,4.777-11.783,7.306c-5.95,3.886-11.843,7.858-18.255,12.123
	c3.313,0.467,5.911,0.997,8.531,1.17c6.439,0.426,12.892,0.712,19.34,1.01c14.894,0.688,29.788,1.344,44.681,2.024
	c6.781,0.311,13.559,0.719,20.343,0.967c10.775,0.396,21.558,0.648,32.332,1.062c3.121,0.118,6.228,0.753,9.346,0.813
	c2.093,0.039,4.577,0.107,6.231-0.907C236.43,98.232,246.513,91.636,257.459,84.628z"/>
</svg>
