<?xml version="1.0" encoding="utf-8"?>
<!-- Generator: Adobe Illustrator 16.0.0, SVG Export Plug-In . SVG Version: 6.00 Build 0)  -->
<!DOCTYPE svg PUBLIC "-//W3C//DTD SVG 1.1//EN" "http://www.w3.org/Graphics/SVG/1.1/DTD/svg11.dtd">
<svg enable-background="new 0 -240 1920 1280" height="1280px" id="Ebene_1" version="1.1" viewBox="0 -240 1920 1280"
     width="1920px" x="0px" xml:space="preserve" xmlns="http://www.w3.org/2000/svg"
     y="0px">
<path d="M875.09,646.212c-9.674-23.324-20.41-46.209-30.91-69.185c-1.076-2.353-2.982-4.469-4.902-6.27
	c-11.172-10.491-22.558-20.756-33.692-31.288c-14.854-14.05-29.502-28.316-44.325-42.401c-8.057-7.658-16.206-15.227-24.497-22.631
	c-2.409-2.152-5.247-4.123-8.238-5.271c-12.635-4.849-25.458-8.906-38.103-13.728c-12.318-4.7-24.503-9.536-36.744-14.341
	c-3.616,0-7.23,0-10.844,0c-3.644,0-7.203,2.635-10.948,3.439c-37.658,8.085-75.361,15.806-112.999,23.982
	c-3.666,0.796-7.584,2.478-10.334,4.955c-7.146,6.441-13.914,13.307-20.467,20.365c-20.041,21.59-39.43,43.789-60.06,64.794
	c-9.483,9.657-15.298,19.353-17.018,33.245c-4.689,37.882-11.171,75.536-16.869,113.295c-0.911,6.043-0.234,11.814,2.397,17.586
	c9.365,20.529,18.132,41.334,27.661,61.783c2.734,5.865,6.523,11.664,11.136,16.149c15.951,15.5,32.565,30.312,48.76,45.562
	c15.113,14.235,29.775,28.945,45.121,42.914c5.441,4.953,11.916,9.227,18.626,12.225c10.967,4.902,22.563,8.099,33.794,12.426
	c12.024,4.637,23.933,9.312,35.896,14.115c3.614,0,7.229,0,10.843,0c2.214,0,4.368-1.649,6.65-2.142
	c38.516-8.3,77.005-16.603,115.607-24.466c8.579-1.748,15.088-5.39,19.982-12.395c1.033-1.477,2.079-2.936,3.308-4.241
	c20.392-21.671,40.85-43.269,61.218-64.962c6.583-7.008,13.337-13.9,19.257-21.442c2.614-3.333,4.059-8.019,4.796-12.304
	c2.603-15.098,4.677-30.287,6.944-45.441c3.695-24.672,7.716-49.297,10.858-74.037C877.841,659.876,877.59,652.242,875.09,646.212z
	 M731.87,486.386c4.868,4.884,10.366,9.135,15.392,13.866c22.554,21.221,45.014,42.537,67.567,63.759
	c3.934,3.7,8.188,7.055,12.224,10.651c3.169,2.83,4.194,6.373,3.54,10.607c-3.792,24.658-7.505,49.327-11.236,73.992
	c-2.115,13.969-4.201,27.938-6.343,41.903c-0.268,1.748-0.765,3.464-1.492,6.686c-10.309,2.218-20.272,4.354-30.237,6.5
	c-25.878,5.569-51.818,10.856-77.597,16.861c-9.232,2.153-15.64,0.035-22.445-6.657c-23.792-23.399-48.225-46.142-72.466-69.085
	c-7.639-7.228-15.415-14.31-23.146-21.44c-3.105-2.864-4.139-6.031-3.445-10.469c4.41-28.212,8.503-56.471,12.672-84.717
	c0.879-5.949,1.741-11.9,2.461-17.867c1.282-10.625,2.081-11.88,12.872-14.244c24.682-5.404,49.424-10.538,74.139-15.795
	c11.474-2.44,22.991-4.701,34.39-7.472C723.83,482.225,727.916,482.421,731.87,486.386z M679.164,740.816
	c-3.039,4-5.42,7.78-8.422,10.978c-21.178,22.568-42.51,44.99-63.721,67.524c-3.903,4.149-7.372,8.708-11.251,12.886
	c-1.974,2.126-4.406,3.824-7.319,6.302c-35.954-31.815-69.69-64.937-105.324-97.788c30.191-33.219,59.985-65.562,91.38-98.043
	C609.76,675.161,644.509,707.211,679.164,740.816z M543.658,475.531c2.213-0.76,4.372-1.759,6.643-2.241
	c30.55-6.484,61.105-12.95,91.693-19.252c3.137-0.646,6.8-1.094,9.709-0.111c16.172,5.465,32.188,11.402,50.047,17.818
	c-3.141,1.605-4.656,2.816-6.35,3.183c-30.83,6.622-61.689,13.089-92.516,19.724c-6.69,1.441-12.813,0.893-19.248-1.809
	c-10.235-4.295-20.874-7.615-31.313-11.425c-3.017-1.103-5.93-2.474-8.895-3.721C543.509,476.973,543.583,476.254,543.658,475.531z
	 M405.936,707.983c0.625-6.048,0.999-11.967,1.881-17.806c5.245-34.743,10.516-69.483,16.075-104.176
	c0.574-3.595,2.388-7.522,4.83-10.204c16.576-18.207,33.542-36.057,50.236-54.155c10.177-11.029,20.063-22.321,30.131-33.446
	c1.595-1.765,3.448-3.288,5.491-5.211c2.331,0.662,4.635,1.184,6.839,1.965c18.704,6.621,37.406,13.244,56.075,19.969
	c7.277,2.621,8.328,4.558,7.187,12.163c-5.178,34.448-10.466,68.878-15.473,103.348c-1.049,7.228-4.202,12.925-9.145,18.105
	c-21.772,22.819-43.431,45.746-65.077,68.688c-6.383,6.769-12.583,13.71-18.876,20.563c-3.203,3.485-6.978,4.343-11.459,2.698
	c-17.771-6.527-35.574-12.977-53.35-19.508C409.92,710.468,408.691,709.539,405.936,707.983z M599.755,908.088
	c-16.719-5.918-33.424-11.891-50.079-17.989c-2.501-0.913-5.06-2.205-7.018-3.963c-7.137-6.412-14.047-13.079-21.013-19.681
	c-23.982-22.736-47.384-46.137-72.231-67.886c-8.973-7.854-13.563-17.224-18.216-27.179c-5.351-11.431-10.426-22.989-15.497-34.55
	c-0.996-2.273-1.423-4.796-2.668-9.145c4.999,1.146,8.155,1.551,11.082,2.589c13.881,4.931,27.983,9.4,41.424,15.346
	c6.648,2.939,12.473,8.252,17.919,13.299c14.989,13.881,29.453,28.329,44.373,42.29c16.883,15.798,34.063,31.279,51.027,46.987
	c1.916,1.775,3.768,3.907,4.856,6.245c7.37,15.798,14.564,31.681,21.706,47.585c0.928,2.066,1.229,4.417,2.102,7.688
	C604.205,909.044,601.883,908.842,599.755,908.088z M842.477,795.039c-10.043,10.783-20.172,21.486-30.235,32.25
	c-16.839,18.01-33.719,35.979-50.419,54.116c-4.478,4.862-9.665,7.774-16.114,9.126c-37.992,7.963-75.944,16.1-113.92,24.143
	c-1.423,0.301-2.917,0.254-5.499,0.46c-9.573-21.259-19.162-42.54-28.938-64.244c5.93-7.005,10.73-13.16,16.037-18.853
	c12.303-13.203,24.951-26.084,37.26-39.276c11.891-12.745,23.562-25.694,35.269-38.607c3.495-3.854,7.165-7.203,12.519-8.333
	c35.331-7.454,70.635-15.033,105.966-22.471c8.073-1.702,9.425-1.375,12.45,5.113c9.648,20.692,18.936,41.552,28.303,62.224
	C844.029,792.548,843.46,793.986,842.477,795.039z M865.99,661.901c-4.396,31.534-9.026,63.039-13.66,94.539
	c-0.425,2.87-1.322,5.672-2.542,10.77c-6.29-13.674-10.899-25.761-17.207-36.887c-7.695-13.562-6.998-27.089-4.38-41.678
	c4.451-24.828,7.602-49.886,11.377-74.836c0.436-2.851,1.373-5.627,2.079-8.438c0.631-0.095,1.265-0.188,1.896-0.286
	c2.057,4.506,4.134,8.997,6.164,13.514c5.057,11.238,10.262,22.416,15.018,33.779C865.936,655.245,866.423,658.823,865.99,661.901z"
/>
  <path d="M1485.793,678.99c-12.521-11.238-25.209-22.396-37.567-33.814c-18.771-17.345-37.415-34.873-56.087-52.322
	c-18.01-16.83-36.058-33.648-54.058-50.492c-19.323-18.076-38.686-36.123-57.938-54.274c-13.567-12.792-26.981-25.756-40.488-38.612
	c-7.091-6.748-11.416-6.317-18.063,1.138c-10.997,12.337-22.056,24.626-33.319,36.72c-12.302,13.204-24.904,26.127-37.303,39.238
	c-8.883,9.392-17.68,18.871-26.464,28.354c-21.861,23.591-43.671,47.232-65.552,70.805c-9.819,10.579-19.797,21.011-29.64,31.568
	c-6.352,6.816-12.618,13.712-18.859,20.628c-4.87,5.394-4.836,7.802-0.011,13.122c0.808,0.891,1.67,1.738,2.564,2.543
	c11.822,10.675,23.772,21.205,35.453,32.028c19.409,17.981,38.638,36.154,57.96,54.23c18,16.844,36.036,33.651,54.04,50.491
	c19.322,18.076,38.654,36.139,57.924,54.273c12.485,11.748,24.824,23.653,37.299,35.408c6.451,6.082,10.742,5.819,16.77-0.916
	c3.203-3.58,6.066-7.477,9.361-10.966c12.803-13.558,25.764-26.968,38.578-40.515c8.264-8.735,16.422-17.576,24.553-26.434
	c19.105-20.815,38.055-41.769,57.273-62.477c12.893-13.887,26.271-27.318,39.184-41.186c10.235-10.992,20.103-22.499,30.371-33.461
	c5.314-5.676,11.838-10.667,17.259-15.97c0-2.409,0-4.818,0-7.229C1487.22,680.252,1486.668,679.778,1485.793,678.99z
	 M1027.51,676.372c10.88-11.639,21.946-23.103,32.779-34.785c20.636-22.251,41.138-44.618,61.714-66.925
	c8.149-8.834,16.285-17.686,24.538-26.427c12.383-13.113,24.963-26.047,37.275-39.231c11.07-11.852,21.88-23.949,32.84-35.906
	c0.746-0.813,1.768-1.371,4.399-3.366c-13.495,90.269-26.706,178.644-39.897,266.894c-8.139-0.129-147.055-50.005-156.172-55.891
	C1025.8,679.288,1026.381,677.576,1027.51,676.372z M1238.965,887.4c-3.081-2.317-6.385-4.39-9.197-6.994
	c-11.237-10.411-22.336-20.968-33.458-31.503c-23.56-22.309-47.051-44.684-70.656-66.938c-17.919-16.893-35.96-33.654-53.978-50.436
	c-7.249-6.752-14.633-13.359-21.854-20.143c-1.612-1.51-2.8-3.473-5.307-6.647c3.498,0.747,5.237,0.908,6.822,1.481
	c40.985,14.834,81.919,29.802,122.962,44.47c5.792,2.069,8.618,6.094,10.882,11.157c8.102,18.107,16.243,36.195,24.338,54.301
	c9.688,21.674,19.354,43.357,29.012,65.044c0.716,1.603,1.285,3.273,1.918,4.912C1239.957,886.534,1239.459,886.965,1238.965,887.4z
	 M1446.076,715.609c-9.75,10.644-19.787,21.027-29.613,31.599c-22.52,24.221-44.972,48.504-67.471,72.74
	c-9.004,9.698-18.009,19.395-27.104,29.002c-12.618,13.326-25.367,26.526-37.954,39.876c-3.297,3.493-6.089,7.452-9.348,10.984
	c-2.182,2.367-4.773,4.36-8.144,7.384c-2.194-3.512-4.194-6.037-5.479-8.881c-10.777-23.856-21.441-47.768-32.115-71.674
	c-9.316-20.883-18.627-41.773-27.884-62.684c-1.3-2.936-2.253-6.023-3.776-10.153c4.339-1.569,7.77-3.278,11.4-4.05
	c61.225-13.012,122.477-25.901,183.725-38.831c20.316-4.288,40.623-8.634,60.946-12.89c1.937-0.406,3.97-0.365,5.956-0.533
	c0.223,0.568,0.443,1.133,0.666,1.701C1455.292,704.684,1450.9,710.346,1446.076,715.609z M1462.525,682.207
	c-88.725,18.889-177.467,37.709-267.85,56.885c3.805-32.197,9.014-62.559,13.516-93.012c4.479-30.319,8.717-60.675,13.453-90.951
	c4.756-30.375,8.477-60.933,14.402-92.307c2.586,1.784,3.894,2.46,4.92,3.435c13.299,12.62,26.514,25.333,39.841,37.928
	c21.187,20.021,42.402,40.011,63.677,59.938c16.445,15.404,32.973,30.719,49.505,46.025c22.924,21.222,45.898,42.389,68.812,63.628
	c1.684,1.559,3.025,3.485,4.984,5.774C1465.575,680.694,1464.138,681.865,1462.525,682.207z"/>
  <g>
	<path d="M508.256,185.77c0-68.365,0.022-136.731-0.05-205.095c-0.005-4.38,1.159-9.111-3.112-13.859
		c-6.864-0.72-14.571-1.829-22.315-2.252c-8.111-0.441-16.272,0.075-24.383-0.36c-17.387-0.931-34.744-2.473-52.139-3.264
		c-20.418-0.93-40.861-1.326-61.294-1.959c-0.902-0.03-1.803-0.123-2.704-0.177c-18.884-1.121-37.767-2.253-56.651-3.356
		c-9.591-0.563-19.202-0.875-28.774-1.647c-17.469-1.404-33.515,0.391-48.511,11.647c-17.771,13.336-37.134,24.549-55.807,36.678
		c0,94.586,0,189.169,0,283.753c6.509,1.099,12.98,2.685,19.535,3.187c12.273,0.942,24.595,1.266,36.898,1.835
		c26.71,1.233,53.417,2.585,80.134,3.646c20.727,0.829,41.467,1.288,62.202,1.916c1.202,0.039,2.404,0.139,3.607,0.201
		c21.895,1.124,43.805,2.04,65.68,3.471c8.624,0.564,15.852-2.055,22.83-6.679c19.065-12.641,38.147-25.267,57.43-37.572
		c5.46-3.483,7.629-7.671,7.525-14.098C508.055,223.118,508.256,204.444,508.256,185.77z M418.49,288.493
		c-24.126-0.784-48.163-1.424-72.184-2.382c-26.413-1.054-52.817-2.394-79.225-3.623c-25.506-1.184-51.018-2.25-76.513-3.649
		c-8.608-0.47-17.171-1.795-25.372-2.686c-2.657-7.905-3.072-251.844-0.463-262.255c3.072-0.378,6.55-1.3,9.978-1.15
		c22.202,0.966,44.393,2.167,66.588,3.296c0.901,0.046,1.802,0.142,2.703,0.171c20.131,0.629,40.271,1.031,60.387,1.943
		c17.392,0.788,34.755,2.178,52.136,3.248c3.604,0.222,7.223,0.166,10.831,0.3c16.517,0.621,33.035,1.235,49.546,1.95
		c1.726,0.075,3.425,0.794,5.899,1.401c0.374,3.254,1.059,6.443,1.062,9.629c0.06,79.806,0.044,159.61,0.05,239.416
		C423.918,279.28,423.988,284.46,418.49,288.493z M415.058,11.101c-5.951-0.726-11.952-1.171-17.944-1.405
		c-18.922-0.738-37.852-1.262-56.775-1.981c-12.005-0.458-24.01-0.996-35.999-1.714c-17.081-1.018-34.15-2.243-51.226-3.359
		c-2.102-0.137-4.212-0.139-6.318-0.205c-20.129-0.621-40.26-1.231-60.389-1.888c-1.449-0.047-2.887-0.432-5.494-0.84
		c1.703-1.929,2.554-3.407,3.825-4.246c14.562-9.627,29.04-19.395,43.912-28.523c3.239-1.987,7.921-2.006,11.972-2.178
		c4.166-0.177,8.366,0.679,12.56,0.891c23.395,1.189,46.796,2.318,70.194,3.469c0.601,0.028,1.201,0.08,1.804,0.097
		c20.43,0.63,40.871,1.027,61.289,1.955c17.391,0.791,34.748,2.355,52.135,3.263c8.711,0.455,17.463,0.076,26.188,0.347
		c4.091,0.127,8.161,0.897,12.244,1.376c0.166,0.808,0.333,1.614,0.5,2.419c-9.961,6.632-19.897,13.3-29.893,19.879
		c-4.271,2.813-8.892,5.141-12.937,8.236C428.728,11.269,422.198,11.97,415.058,11.101z M486.26,251.573
		c-13.501,7.887-26.39,16.826-39.563,25.275c-2.669,1.712-5.476,3.208-9.633,5.625c-0.483-4.47-1.056-7.31-1.056-10.153
		c-0.046-80.421,0.01-160.845-0.117-241.266c-0.009-6.786,2.435-10.987,8.35-14.546C458.16,8.131,471.602-1.037,485.26-9.849
		c2.703-1.746,5.504-3.339,10.264-6.209c0.314,5.444,0.665,8.667,0.666,11.89c0.03,79.519-0.091,159.039,0.189,238.556
		C496.408,242.793,493.324,247.448,486.26,251.573z"/>
    <path d="M1765.822,76.039c-16.596-37.386-33.621-74.582-50.144-112c-2.701-6.115-6.559-9.312-12.673-11.479
		c-36.574-12.975-73.075-26.161-109.487-39.593c-5.942-2.191-11.364-2.574-17.528-1.233c-48.498,10.547-97.049,20.83-145.591,31.181
		c-17.357,3.702-34.717,7.38-52.083,11.043c-5.535,1.167-8.853,3.725-9.501,10.097c-1.03,10.148-3.246,20.171-4.752,30.28
		c-7.352,49.347-14.633,98.704-21.936,148.056c-1.318,8.915-2.625,17.835-4.149,28.186c1.019,3.117,2.095,7.462,3.833,11.524
		c4.143,9.675,8.619,19.207,12.923,28.813c11.565,25.801,23.253,51.547,34.567,77.454c3.17,7.255,8.299,11.298,15.573,13.759
		c13.962,4.725,27.778,9.873,41.64,14.894c22.065,7.986,44.131,15.977,66.163,24.051c5.251,1.922,10.334,2.149,15.882,0.949
		c38.515-8.323,77.092-16.36,115.634-24.538c27.365-5.807,54.719-11.664,82.065-17.553c8.083-1.741,9.91-3.935,11.045-11.901
		c2.443-17.26,4.916-34.519,7.517-51.753c7.492-49.63,15.117-99.238,22.454-148.892C1767.816,83.726,1767.313,79.4,1765.822,76.039z
		 M1698.888-29.214c0,2.712,0.36,5.585-0.053,8.342c-6.716,44.855-13.553,89.692-20.312,134.541
		c-2.094,13.906-4.036,27.838-6.366,43.944c-10.714-9.678-19.719-17.532-28.414-25.717c-23.632-22.235-47.083-44.663-70.701-66.912
		c-17.271-16.268-34.709-32.358-52.024-48.574c-2.152-2.013-4.026-4.321-6.108-6.583
		C1522.152,5.549,1689.426-30.082,1698.888-29.214z M1424.281-44.076c50.87-10.806,101.763-21.507,152.616-32.405
		c4.951-1.062,9.309-0.597,14.027,1.134c25.403,9.322,50.914,18.357,76.371,27.542c3.914,1.414,7.738,3.091,11.603,4.647
		c0.015,0.662,0.03,1.323,0.045,1.985c-2.533,0.691-5.038,1.511-7.604,2.057C1616.653-27.46,1561.97-15.783,1507.245-4.31
		c-3.971,0.832-8.649,1.271-12.343-0.005C1463.96-15,1433.169-26.13,1402.335-37.126c-0.003-0.626-0.007-1.257-0.01-1.884
		C1409.64-40.702,1416.934-42.517,1424.281-44.076z M1381.969-30.152c33.595,12.167,67.351,24.394,101.53,36.775
		c-1.499,6.199-5.03,9.863-8.457,13.482c-13.015,13.75-26.215,27.326-39.191,41.115c-17.089,18.156-34.087,36.397-51.019,54.704
		c-9.779,10.576-19.346,21.353-29.051,31.996c-0.314,0.348-1.108,0.254-1.678,0.367
		C1353.837,133.265,1377.754-22.19,1381.969-30.152z M1481.467,317.091c-23.762-8.547-47.44-17.339-71.271-25.683
		c-5.954-2.086-9.126-5.58-11.583-11.347c-8.604-20.18-17.904-40.061-26.867-60.089c-2.164-4.837-4.04-9.8-6.049-14.706
		c0.577-0.26,1.155-0.521,1.734-0.783c7.815,6.946,15.745,13.774,23.428,20.867c11.035,10.19,21.851,20.614,32.83,30.863
		c16.681,15.578,33.459,31.05,50.105,46.665c4.532,4.25,8.737,8.847,12.314,14.698
		C1484.556,317.429,1482.887,317.602,1481.467,317.091z M1527.408,321.989c-1.822,1.899-4.029,3.425-6.796,5.741
		c-6.447-5.481-12.792-10.429-18.63-15.916c-23.87-22.442-47.538-45.102-71.374-67.579c-17.927-16.908-35.974-33.686-54.02-50.464
		c-5.72-5.314-11.676-10.375-17.394-15.693c-2.137-1.982-3.907-4.363-6.055-6.8c5.257-6.272,9.826-12.196,14.89-17.667
		c11.223-12.137,22.726-24.017,34.061-36.054c19.367-20.569,38.768-41.104,58.002-61.797c10.836-11.657,21.33-23.631,32.059-35.392
		c1.577-1.729,3.589-3.063,5.989-5.072c3.305,2.375,6.706,4.293,9.464,6.895c14.867,14.037,29.487,28.329,44.353,42.368
		c19.008,17.952,38.142,35.77,57.265,53.599c16.264,15.164,32.612,30.229,48.869,45.398c2.387,2.23,4.462,4.793,7.541,8.129
		c-2.212,3.286-3.919,6.722-6.434,9.404c-12.951,13.82-26.276,27.29-39.149,41.18c-18.373,19.828-36.364,40.016-54.718,59.861
		C1552.876,295.588,1540.104,308.755,1527.408,321.989z M1712.74,291.045c-54.662,11.568-109.337,23.067-164.022,34.511
		c-0.719,0.15-1.618-0.55-3.791-1.362c4.538-5.408,8.471-10.563,12.879-15.265c20.74-22.128,41.702-44.05,62.405-66.209
		c17.607-18.843,34.974-37.908,54.216-58.796c16.652,35.675,31.594,69.55,46.781,104.104
		C1717.694,289.303,1715.29,290.509,1712.74,291.045z M1755.214,92.073c-5.959,39.181-11.729,78.389-17.549,117.589
		c-2.469,16.632-4.869,33.271-7.409,49.892c-0.302,1.983-1.293,3.858-2.635,7.712c-4.289-8.941-7.986-16.253-11.342-23.721
		c-9.112-20.277-17.65-40.827-27.312-60.84c-4.039-8.367-4.979-16.424-3.65-25.247c5.986-39.779,11.873-79.578,17.855-119.362
		c2.233-14.845,4.618-29.666,6.977-44.492c0.225-1.418,0.768-2.782,1.166-4.17c0.724-0.177,1.448-0.355,2.172-0.534
		c3.59,7.463,7.346,14.854,10.746,22.401c9.627,21.366,18.999,42.847,28.726,64.165
		C1755.448,80.916,1756.111,86.189,1755.214,92.073z"/>
    <path d="M1151.367,94.379c-0.869-15.884-1.926-31.772-3.421-47.612c-1.116-11.862-1.596-23.689-7.344-34.941
		c-8.748-17.126-16.824-34.709-23.54-52.715c-3.959-10.612-10.658-15.641-20.683-19.001c-18.539-6.22-36.743-13.433-55.217-19.855
		c-4.734-1.644-9.952-2.617-14.957-2.647c-36.744-0.217-73.487-0.133-110.231-0.084c-2.995,0.004-6.057,0.138-8.974,0.75
		c-40.042,8.431-80.06,16.989-120.103,25.417c-4.928,1.036-8.933,3.235-12.302,6.957c-7.464,8.247-15.347,16.137-22.441,24.685
		c-2.501,3.011-3.96,7.399-4.592,11.366c-4.204,26.424-8.098,52.899-12.003,79.372c-2.15,14.569-5.256,29.119-5.873,43.761
		c-0.667,15.856,0.763,31.833,1.808,47.725c1.44,21.866,3.261,43.713,5.198,65.544c0.39,4.383,1.433,8.916,3.178,12.946
		c9.218,21.252,18.908,42.299,28.096,63.561c2.723,6.307,6.798,9.983,13.329,12.221c20.208,6.927,40.174,14.569,60.357,21.575
		c4.737,1.645,9.946,2.568,14.957,2.648c18.669,0.306,37.346,0.122,56.018,0.127c12.647,0.002,25.311-0.312,37.946,0.086
		c15.153,0.477,30.018-0.796,44.693-4.699c6.68-1.774,13.513-2.991,20.28-4.43c26.197-5.563,52.422-10.989,78.564-16.797
		c4.234-0.94,8.761-2.781,11.99-5.559c6.834-5.871,13.208-12.359,19.184-19.116c5.331-6.029,9.519-12.394,10.609-21.265
		c3.227-26.25,7.805-52.329,11.741-78.493c2.057-13.673,5.034-27.344,5.503-41.087
		C1153.714,128.042,1152.285,111.182,1151.367,94.379z M774.617-32.134c7.305-9.02,16.493-13.716,28.163-15.959
		c36.339-6.989,72.451-15.177,108.68-22.758c4.38-0.917,8.939-1.35,13.416-1.367c31.025-0.114,62.051-0.1,93.076-0.009
		c3.879,0.011,8.011-0.023,11.592,1.212c19.628,6.776,39.126,13.931,58.651,20.999c1.38,0.499,2.628,1.358,5.177,2.704
		c-5.758,6.678-10.551,12.808-16.005,18.277c-2.165,2.17-5.665,3.474-8.777,4.152c-30.877,6.715-61.798,13.218-92.707,19.78
		c-3.238,0.687-6.595,1.029-9.696,2.105c-15.056,5.222-30.562,5.772-46.313,5.53c-24.992-0.385-50-0.171-75-0.056
		c-6.407,0.03-12.405-0.965-18.476-3.271c-16.878-6.415-33.975-12.261-50.965-18.38c-2.49-0.896-4.879-2.061-8.637-3.666
		C769.826-26.435,772.272-29.242,774.617-32.134z M1068.336-2.158c-4.537,30.87-9.186,61.723-13.897,92.566
		c-0.297,1.955-1.335,3.794-2.293,6.407c-11.807-7.713-85.668-77.347-90.283-85.27c35.125-7.449,69.871-14.818,106.019-22.481
		C1068.106-7.097,1068.689-4.559,1068.336-2.158z M758.702-10.63c19.97,7.244,38.721,14.046,59.143,21.455
		c-3.84,5.111-6.471,9.363-9.82,12.941c-13.15,14.041-26.579,27.822-39.802,41.797c-5.985,6.327-11.676,12.93-17.617,19.296
		c-1.522,1.631-3.494,2.842-7.045,5.669C748.747,55.877,753.614,23.371,758.702-10.63z M811.283,309.708
		c-5.932-2.112-11.684-5.07-17.79-6.268c-11.054-2.173-15.709-9.901-19.289-19.248c-1.819-4.747-4.238-9.26-6.27-13.933
		c-1.004-2.307-1.741-4.732-2.896-7.927c8.545,3.372,46.904,38.312,55.363,50.338C816.465,311.394,813.849,310.617,811.283,309.708z
		 M957.939,325.98c-31.612-0.137-63.227,0.053-94.835-0.241c-3.561-0.036-7.835-1.59-10.517-3.905
		c-9.778-8.436-19.05-17.461-28.463-26.32c-21.456-20.187-42.237-41.162-64.625-60.259c-9.59-8.179-12.812-16.256-13.062-28.365
		c-0.438-21.265-3.266-42.473-4.684-63.733c-0.579-8.664-0.096-17.396-0.096-28.513c4.802-5.314,10.579-11.821,16.477-18.219
		c21.173-22.984,42.385-45.933,63.592-68.886c1.43-1.545,3.101-2.896,4.371-4.559c5.227-6.833,12.018-8.805,20.544-8.67
		c27.692,0.433,55.4,0.432,83.092,0.013c9.436-0.143,16.418,2.816,23.199,9.451c23.208,22.705,46.971,44.84,70.577,67.134
		c6.334,5.98,12.63,12.038,19.376,17.531c7.222,5.883,9.354,13.69,9.875,22.306c1.32,21.883,2.506,43.771,3.817,65.654
		c0.448,7.488,1.527,14.964,1.492,22.443c-0.016,3.318-1.281,7.283-3.361,9.823c-6.272,7.661-13.186,14.801-19.913,22.088
		c-21.189,22.968-42.453,45.872-63.573,68.901C967.55,323.669,963.579,326.003,957.939,325.98z M1079.294,302.014
		c-27.333,5.873-54.689,11.643-82.056,17.351c-1.868,0.389-3.885,0.051-7.97,0.051c24.958-26.877,48.689-52.439,72.426-77.996
		c0.96,0.134,1.923,0.267,2.884,0.402c8.198,18.509,16.392,37.011,25.083,56.629
		C1085.271,299.986,1082.357,301.358,1079.294,302.014z M1141.262,151.103c-3.737,25.588-7.655,51.148-11.501,76.717
		c-1.521,10.112-3.3,20.19-4.438,30.341c-0.946,8.465-3.761,15.616-10.525,21.149c-4.109,3.363-7.761,7.279-12.481,11.775
		c-2.464-4.748-4.51-8.325-6.23-12.055c-7.805-16.938-15.613-33.875-23.179-50.921c-1.417-3.188-2.233-6.836-2.468-10.327
		c-1.329-19.776-2.381-39.57-3.556-59.355c-0.622-10.497-1.304-20.988-1.954-31.481c-0.976-15.77,1.97-31.162,4.335-46.627
		c4.002-26.153,7.807-52.337,11.688-78.507c0.045-0.298,0.111-0.606,0.075-0.899c-2.269-18.365,11.65-26.824,23.636-39.508
		c4.723,10.102,8.563,18.149,12.254,26.263c4.861,10.678,9.465,21.477,14.451,32.096c3.001,6.386,4.439,12.901,4.767,19.99
		c0.665,14.388,2.136,28.738,3.154,43.113c0.807,11.388,1.407,22.791,2.152,34.185c0.373,5.688,1.223,11.372,1.203,17.053
		C1142.629,139.774,1142.084,145.484,1141.262,151.103z"/>
</g>
  <rect fill="none" height="1280" width="1920" x="0" y="-240"/>
</svg>
