<?xml version="1.0" encoding="utf-8"?>
<!-- Generator: Adobe Illustrator 16.0.0, SVG Export Plug-In . SVG Version: 6.00 Build 0)  -->
<!DOCTYPE svg PUBLIC "-//W3C//DTD SVG 1.1//EN" "http://www.w3.org/Graphics/SVG/1.1/DTD/svg11.dtd">
<svg enable-background="new 0 0 40 40" height="40px" id="Ebene_1" version="1.1" viewBox="0 0 40 40"
     width="40px" x="0px" xml:space="preserve" xmlns="http://www.w3.org/2000/svg" y="0px">
<rect fill="#E6E6E6" height="40" width="40"/>
  <path d="M34.807,10.125H5.193l14.805,25.648L34.807,10.125z M20.564,32.52V20.338L32.1,12.543L20.564,32.52z M31.971,11.261
	l-11.973,8.091l-11.97-8.091H31.971z M19.431,32.52L7.902,12.544l11.53,7.794L19.431,32.52L19.431,32.52z"/>
  <path d="M20.564,32.52V20.338L32.1,12.543L20.564,32.52z M31.971,11.261l-11.973,8.091l-11.97-8.091H31.971z
	 M19.431,32.52L7.902,12.544l11.53,7.794L19.431,32.52L19.431,32.52z" fill="#F7931E"/>
</svg>
