<?xml version="1.0" encoding="utf-8"?>
<!-- Generator: Adobe Illustrator 16.0.0, SVG Export Plug-In . SVG Version: 6.00 Build 0)  -->
<!DOCTYPE svg PUBLIC "-//W3C//DTD SVG 1.1//EN" "http://www.w3.org/Graphics/SVG/1.1/DTD/svg11.dtd">
<svg version="1.1" id="Ebene_1" xmlns="http://www.w3.org/2000/svg" xmlns:xlink="http://www.w3.org/1999/xlink" x="0px" y="0px"
	 width="40px" height="40px" viewBox="0 0 40 40" enable-background="new 0 0 40 40" xml:space="preserve">
<g>
	<path fill="#AEC30B" d="M36.259,22.051c-0.034-0.278-0.073-0.558-0.112-0.838c-0.194-1.387-0.396-2.82-0.061-4.184
		c0.023-0.092-0.017-0.188-0.099-0.236c-0.034-0.02-0.071-0.03-0.109-0.03c-0.052,0-0.104,0.019-0.145,0.056
		c-1.25,1.145-2.831,1.954-4.493,2.306c0.625-1.205,0.843-2.605,0.598-3.909c-0.358-1.906-1.645-3.478-2.725-4.635
		c-0.294-0.314-0.595-0.623-0.896-0.932c-0.924-0.947-1.88-1.925-2.576-3.051c-0.039-0.063-0.108-0.1-0.183-0.1
		c-0.002,0-0.004,0-0.006,0c-0.075,0-0.146,0.042-0.183,0.109c-1.263,2.292-1.35,4.923-1.434,7.47
		c-0.02,0.58-0.039,1.158-0.072,1.731c-0.025,0.463-0.095,0.924-0.418,1.15c-0.106,0.075-0.231,0.113-0.37,0.113
		c-0.354,0-0.735-0.251-0.889-0.583c-0.232-0.508-0.126-1.127,0.002-1.718c0.048-0.219,0.098-0.438,0.147-0.658
		c0.266-1.164,0.54-2.368,0.477-3.576c-0.068-1.304-0.66-2.948-2.114-3.65c-0.03-0.014-0.062-0.021-0.094-0.021
		c-0.037,0-0.074,0.01-0.108,0.03c-0.062,0.036-0.101,0.1-0.105,0.171c-0.072,1.108-0.37,1.73-0.913,1.903
		c-0.089,0.028-0.182,0.042-0.276,0.042c-0.502,0-0.961-0.384-1.189-0.613c-0.453-0.454-0.823-1.007-1.181-1.542
		c-0.448-0.672-0.912-1.366-1.558-1.902c-0.663-0.548-1.457-0.886-2.226-1.213c-0.261-0.111-0.688-0.39-1.101-0.66
		c-0.447-0.293-0.871-0.571-1.167-0.697c-0.027-0.012-0.056-0.018-0.084-0.018c-0.029,0-0.058,0.007-0.084,0.018
		c0,0,0.477,1.587,0.844,2.384c0.367,0.796,10.731,23.346,10.731,23.346c0.037-0.097,0.068-0.201,0.093-0.314
		c0.331,0.168,0.65,0.249,0.968,0.249c0.42,0,0.763-0.146,1.037-0.263c0.196-0.084,0.366-0.156,0.509-0.156
		c0.026,0,0.051,0.002,0.075,0.007c0.551,0.114,1.05,0.361,1.578,0.623c0.135,0.066,0.269,0.134,0.404,0.197
		c1.382,0.656,2.722,0.989,3.983,0.989c0.195,0,0.391-0.009,0.582-0.024c1.729-0.145,3.277-0.979,4.139-2.231
		C36.541,25.615,36.455,23.616,36.259,22.051z"/>
	<path fill="#D9EA95" d="M11.356,4.795c-0.303-0.659-0.844-2.41-0.844-2.41c-0.002,0.001-0.005,0.001-0.007,0.002
		c-0.056,0.025-0.097,0.073-0.114,0.132c-0.09,0.292-0.241,0.849-0.387,1.387c-0.146,0.54-0.299,1.098-0.387,1.385
		C9.374,6.09,9.121,6.916,9.114,7.775c-0.006,0.838,0.227,1.641,0.452,2.417c0.179,0.618,0.364,1.257,0.42,1.896
		c0.028,0.333,0.037,1.145-0.508,1.489c-0.153,0.097-0.322,0.145-0.515,0.145c-0.415,0-0.915-0.219-1.528-0.671
		c-0.038-0.028-0.082-0.042-0.128-0.042c-0.024,0-0.049,0.004-0.072,0.013c-0.067,0.024-0.118,0.08-0.136,0.149
		c-0.398,1.564,0.479,3.076,1.432,3.968c0.882,0.826,1.979,1.39,3.039,1.936c0.201,0.104,0.402,0.208,0.602,0.313
		c0.535,0.281,1.077,0.599,1.315,1.104c0.122,0.258,0.119,0.599-0.007,0.869c-0.068,0.146-0.2,0.333-0.443,0.397
		c-0.058,0.016-0.119,0.023-0.181,0.023c-0.33,0-0.675-0.225-0.969-0.444c-0.459-0.343-0.913-0.7-1.369-1.06
		c-2.004-1.575-4.074-3.204-6.642-3.713c-0.014-0.003-0.028-0.004-0.042-0.004c-0.061,0-0.119,0.026-0.161,0.073
		c-0.05,0.057-0.066,0.136-0.042,0.209c0.413,1.258,0.547,2.62,0.677,3.938c0.042,0.429,0.085,0.858,0.136,1.284
		c0.189,1.571,0.564,3.567,1.792,5.069c0.84,1.026,2.051,1.762,3.376,2.06c-1.34,1.045-2.978,1.733-4.658,1.952
		c-0.094,0.013-0.168,0.085-0.184,0.179c-0.016,0.093,0.032,0.185,0.116,0.227c1.26,0.621,2.228,1.697,3.163,2.738
		c0.188,0.211,0.378,0.421,0.568,0.627c1.072,1.158,2.547,2.511,4.45,2.695c0.143,0.015,0.285,0.021,0.428,0.021
		c1.379,0,2.854-0.654,3.944-1.75c1.013-1.017,1.753-2.401,2.202-4.114c0.037-0.145,0.073-0.29,0.108-0.436
		c0.141-0.573,0.273-1.114,0.54-1.609c0.084-0.156,0.304-0.271,0.558-0.404c0.427-0.224,0.977-0.513,1.239-1.203
		C22.088,28.115,11.66,5.454,11.356,4.795z"/>
	<path fill="#1C1C1B" d="M10.597,2.582c0.558,0.238,1.71,1.12,2.268,1.357c0.764,0.325,1.54,0.658,2.172,1.182
		c1.134,0.939,1.688,2.392,2.725,3.43c0.357,0.358,0.842,0.676,1.341,0.676c0.113,0,0.228-0.017,0.342-0.053
		c0.81-0.257,1.008-1.272,1.062-2.093c1.277,0.617,1.92,2.067,1.993,3.468c0.074,1.401-0.317,2.793-0.619,4.177
		c-0.134,0.618-0.247,1.285,0.014,1.852c0.187,0.407,0.644,0.709,1.083,0.709c0.173,0,0.344-0.047,0.494-0.152
		c0.406-0.286,0.481-0.833,0.509-1.314c0.177-3.09-0.041-6.352,1.479-9.111c0.934,1.509,2.283,2.717,3.499,4.019
		c1.215,1.301,2.342,2.78,2.67,4.528c0.264,1.404-0.027,2.918-0.801,4.165c1.869-0.302,3.657-1.166,5.052-2.444
		c-0.413,1.678-0.044,3.406,0.168,5.099c0.213,1.693,0.229,3.548-0.767,4.992c-0.875,1.271-2.433,2.011-3.979,2.14
		c-0.188,0.016-0.377,0.023-0.564,0.023c-1.354,0-2.685-0.395-3.892-0.968c-0.661-0.314-1.306-0.687-2.03-0.837
		c-0.04-0.008-0.079-0.012-0.119-0.012c-0.422,0-0.873,0.42-1.546,0.42c-0.32,0-0.691-0.096-1.133-0.377
		c-0.144,1.617-1.583,1.548-1.913,2.161c-0.352,0.651-0.482,1.385-0.668,2.093c-0.385,1.473-1.051,2.917-2.146,4.018
		c-0.999,1.003-2.391,1.688-3.792,1.688c-0.137,0-0.272-0.006-0.408-0.02c-1.745-0.17-3.153-1.375-4.313-2.628
		c-1.159-1.253-2.243-2.647-3.793-3.412c1.876-0.244,3.688-1.056,5.122-2.292c-1.452-0.211-2.797-0.962-3.702-2.068
		c-1.126-1.377-1.532-3.191-1.745-4.959s-0.269-3.578-0.822-5.264c3.091,0.613,5.446,2.879,7.924,4.734
		c0.322,0.241,0.702,0.486,1.098,0.486c0.078,0,0.157-0.009,0.235-0.029c0.629-0.167,0.856-1.002,0.59-1.565
		c-0.267-0.564-0.85-0.907-1.409-1.203c-1.253-0.66-2.57-1.258-3.595-2.216c-1.024-0.958-1.72-2.384-1.37-3.758
		c0.48,0.353,1.086,0.713,1.656,0.713c0.219,0,0.431-0.052,0.63-0.178c0.544-0.344,0.66-1.07,0.606-1.688
		c-0.128-1.463-0.882-2.821-0.871-4.293C9.335,6.956,9.58,6.148,9.823,5.354C10.001,4.775,10.419,3.162,10.597,2.582 M35.878,16.978
		h0.002 M10.597,2.153c-0.063,0-0.124,0.013-0.182,0.04c-0.11,0.051-0.193,0.147-0.229,0.264c-0.091,0.296-0.235,0.832-0.39,1.399
		C9.65,4.392,9.5,4.946,9.413,5.229C9.164,6.042,8.907,6.884,8.9,7.774c-0.007,0.87,0.23,1.687,0.46,2.478
		c0.184,0.636,0.358,1.237,0.412,1.855c0.025,0.294,0.037,1.007-0.408,1.289c-0.119,0.075-0.25,0.112-0.4,0.112
		c-0.362,0-0.834-0.212-1.401-0.63c-0.075-0.055-0.164-0.083-0.255-0.083c-0.048,0-0.098,0.008-0.145,0.025
		c-0.134,0.048-0.235,0.16-0.271,0.298c-0.423,1.655,0.494,3.243,1.492,4.177c0.904,0.846,2.015,1.418,3.088,1.971
		c0.2,0.104,0.401,0.206,0.6,0.312c0.503,0.265,1.011,0.561,1.222,1.006c0.094,0.199,0.09,0.475-0.008,0.688
		c-0.049,0.104-0.141,0.236-0.304,0.28c-0.041,0.011-0.082,0.017-0.126,0.017c-0.268,0-0.575-0.203-0.84-0.402
		c-0.457-0.341-0.919-0.704-1.366-1.057c-2.022-1.591-4.114-3.235-6.731-3.754c-0.028-0.005-0.056-0.008-0.084-0.008
		c-0.121,0-0.239,0.051-0.321,0.145c-0.101,0.114-0.134,0.273-0.086,0.418c0.406,1.236,0.539,2.587,0.667,3.894
		c0.042,0.422,0.085,0.859,0.137,1.289c0.192,1.6,0.576,3.634,1.839,5.179c0.776,0.948,1.857,1.656,3.056,2.018
		c-1.239,0.874-2.702,1.451-4.199,1.646c-0.188,0.024-0.337,0.168-0.368,0.354c-0.03,0.187,0.064,0.372,0.234,0.455
		c1.221,0.603,2.175,1.663,3.097,2.689c0.19,0.211,0.38,0.422,0.571,0.629c1.098,1.186,2.61,2.571,4.587,2.764
		c0.147,0.015,0.299,0.021,0.449,0.021c1.435,0,2.966-0.678,4.096-1.813c1.039-1.044,1.799-2.461,2.257-4.211
		c0.038-0.146,0.074-0.293,0.11-0.44c0.137-0.56,0.266-1.087,0.52-1.558c0.054-0.098,0.265-0.209,0.469-0.316
		c0.453-0.237,1.098-0.575,1.373-1.408c0.279,0.111,0.553,0.165,0.827,0.165c0.464,0,0.828-0.155,1.121-0.28
		c0.168-0.072,0.326-0.14,0.425-0.14c0.012,0,0.022,0.001,0.032,0.003c0.523,0.109,1.01,0.351,1.526,0.605
		c0.135,0.067,0.271,0.135,0.407,0.199c1.41,0.67,2.781,1.009,4.075,1.009c0.201,0,0.402-0.008,0.6-0.024
		c1.794-0.15,3.4-1.019,4.298-2.324c1.126-1.636,1.04-3.686,0.839-5.289c-0.035-0.279-0.074-0.561-0.113-0.842
		c-0.19-1.357-0.387-2.761-0.069-4.076c0.013-0.04,0.019-0.083,0.019-0.127c0-0.237-0.19-0.429-0.428-0.429h-0.001
		c-0.004,0-0.007,0-0.011,0c-0.108,0.002-0.206,0.045-0.28,0.113c-1.114,1.019-2.496,1.767-3.963,2.152
		c0.495-1.148,0.65-2.432,0.424-3.637c-0.368-1.961-1.679-3.564-2.778-4.741c-0.296-0.316-0.603-0.631-0.899-0.935
		c-0.916-0.939-1.863-1.91-2.548-3.017c-0.078-0.126-0.217-0.203-0.365-0.203c-0.004,0-0.007,0-0.011,0
		c-0.152,0.004-0.291,0.088-0.365,0.222c-1.288,2.337-1.376,4.997-1.461,7.569c-0.019,0.568-0.038,1.156-0.071,1.725
		c-0.022,0.39-0.078,0.813-0.327,0.987c-0.07,0.049-0.153,0.074-0.247,0.074c-0.271,0-0.575-0.202-0.693-0.459
		c-0.205-0.448-0.104-1.027,0.017-1.582c0.048-0.22,0.098-0.439,0.147-0.659c0.269-1.177,0.546-2.395,0.48-3.632
		c-0.072-1.365-0.697-3.088-2.235-3.831c-0.059-0.029-0.123-0.043-0.187-0.043c-0.074,0-0.149,0.02-0.216,0.059
		c-0.123,0.072-0.203,0.2-0.212,0.342c-0.065,0.996-0.322,1.572-0.764,1.713c-0.068,0.021-0.14,0.032-0.212,0.032
		c-0.311,0-0.688-0.2-1.037-0.55c-0.438-0.439-0.786-0.959-1.154-1.51c-0.457-0.684-0.931-1.393-1.601-1.947
		c-0.685-0.568-1.494-0.913-2.277-1.246c-0.244-0.104-0.662-0.377-1.067-0.643c-0.456-0.299-0.887-0.581-1.2-0.715
		C10.71,2.165,10.653,2.153,10.597,2.153L10.597,2.153z"/>
	<path fill="#103636" d="M29.698,34.233c-0.037-0.017-0.081-0.032-0.116-0.042l-0.043-0.01l-0.074-0.014l-0.123-0.022
		c-0.08-0.017-0.16-0.035-0.241-0.056c-0.162-0.042-0.324-0.091-0.485-0.147c-0.323-0.113-0.642-0.253-0.953-0.414
		c-0.624-0.318-1.208-0.732-1.755-1.192c-1.097-0.925-2.023-2.066-2.809-3.299c-0.333-0.523-0.643-1.064-0.931-1.617
		c1.566-2.146,2.796-4.539,3.575-7.072c0.795-2.576,1.111-5.295,0.897-7.971c-0.005-0.063-0.059-0.11-0.121-0.107
		c-0.063,0.003-0.113,0.058-0.11,0.122c0.135,2.651-0.256,5.314-1.107,7.813c-0.797,2.35-1.99,4.554-3.478,6.528
		c-0.259-0.539-0.513-1.089-0.771-1.63l-1.913-4.055l-1.132-2.411c0.005-0.005,0.011-0.009,0.015-0.015
		c0.489-0.602,0.718-1.297,0.902-1.978c0.175-0.687,0.292-1.38,0.361-2.075c0.073-0.694,0.117-1.39,0.135-2.084
		c0.008-0.348,0.012-0.695,0.01-1.042l-0.008-0.521l-0.008-0.26c-0.006-0.087,0.007-0.174-0.043-0.26
		c-0.007-0.012-0.02-0.024-0.033-0.031c-0.038-0.02-0.086-0.003-0.105,0.035c-0.045,0.086-0.03,0.172-0.033,0.258l-0.004,0.258
		l-0.016,0.517c-0.014,0.344-0.033,0.688-0.056,1.032c-0.048,0.687-0.123,1.371-0.225,2.048c-0.098,0.678-0.244,1.348-0.438,1.993
		c-0.17,0.562-0.386,1.126-0.714,1.57L15.33,12.93l-3.774-8.135c-0.043-0.091-0.15-0.132-0.242-0.09
		c-0.093,0.042-0.134,0.15-0.092,0.243l3.698,8.171l2.345,5.243c-0.655-0.017-1.344-0.202-2.004-0.421
		c-0.707-0.233-1.406-0.508-2.093-0.814c-0.687-0.306-1.367-0.631-2.038-0.976l-1.001-0.527L9.633,15.35l-0.247-0.138
		c-0.083-0.044-0.157-0.105-0.262-0.113c-0.016-0.001-0.033,0.002-0.048,0.011c-0.036,0.023-0.047,0.071-0.024,0.107
		c0.057,0.09,0.146,0.126,0.225,0.18l0.242,0.149l0.486,0.294c0.326,0.194,0.654,0.384,0.984,0.571
		c0.661,0.374,1.332,0.729,2.014,1.067c0.682,0.339,1.381,0.939,2.1,1.21c0.723,0.261,1.465,0.813,2.293,0.813
		c0.003,0,0.007,0,0.01,0c0.035,0,0.067-0.301,0.099-0.313l1.078,2.265l1.823,4.025l0.783,1.715
		c-2.552-0.113-5.095-0.64-7.483-1.571c-2.46-0.957-4.749-2.383-6.691-4.192c-0.046-0.042-0.117-0.046-0.161-0.001
		c-0.045,0.046-0.045,0.116,0.001,0.161c1.909,1.886,4.194,3.214,6.677,4.263c2.482,1.054,5.154,1.648,7.853,1.648
		c0.002,0,0.007,0,0.01,0c0.04,0,0.078,0.175,0.115,0.163c0.269,0.556,0.558,1.192,0.873,1.726c0.781,1.309,1.71,2.598,2.847,3.666
		c0.57,0.531,1.195,1.034,1.874,1.448c0.341,0.205,0.697,0.403,1.07,0.562c0.186,0.08,0.377,0.158,0.573,0.223
		c0.099,0.032,0.451,0.132,0.451,0.132s0.056,0.016,0.053,0.015c-0.027-0.007,0.152,0.03,0.25,0.024
		c0.005,0,0.126-0.011,0.268-0.038C29.933,35.388,30.055,35.177,29.698,34.233z"/>
</g>
<circle fill="none" cx="20" cy="20" r="20"/>
</svg>
