<?xml version="1.0" encoding="utf-8"?>
<!-- Generator: Adobe Illustrator 16.0.0, SVG Export Plug-In . SVG Version: 6.00 Build 0)  -->
<!DOCTYPE svg PUBLIC "-//W3C//DTD SVG 1.1//EN" "http://www.w3.org/Graphics/SVG/1.1/DTD/svg11.dtd">
<svg version="1.1" id="Ebene_1" xmlns="http://www.w3.org/2000/svg" xmlns:xlink="http://www.w3.org/1999/xlink" x="0px" y="0px"
	 width="480px" height="480px" viewBox="0 0 480 480" enable-background="new 0 0 480 480" xml:space="preserve">
<g>
	<path fill="#AEC30B" d="M457.237,268.596c-0.438-3.291-0.928-6.582-1.416-9.89c-2.434-16.356-4.936-33.292-0.754-49.395
		c0.298-1.085-0.21-2.214-1.226-2.792c-0.419-0.236-0.892-0.342-1.364-0.342c-0.666,0-1.313,0.237-1.82,0.665
		c-15.614,13.514-35.376,23.071-56.151,27.228c7.806-14.23,10.519-30.763,7.456-46.157c-4.462-22.492-20.549-41.063-34.045-54.717
		c-3.675-3.71-7.439-7.352-11.203-11.009c-11.552-11.185-23.506-22.747-32.206-36.041c-0.489-0.735-1.347-1.208-2.275-1.208
		c-1.015,0.019-1.892,0.524-2.347,1.332c-15.786,27.042-16.889,58.129-17.939,88.183c-0.158,4.752-0.454,9.487-0.684,14.213
		c-0.191,4.253,0.122,8.77-0.964,12.927c-0.699,2.687-2.187,5.321-4.584,6.913c-3.675,2.459-8.927,1.996-12.709-0.307
		c-3.116-1.917-5.426-4.996-6.302-8.418c-0.158-0.666-0.262-1.314-0.334-1.97c-0.576-5.214,1.193-10.861,2.383-15.936
		c1.277-5.453,2.869-10.845,4.323-16.244c2.906-10.765,5.461-21.792,4.831-32.959c-0.859-15.412-8.244-34.806-26.431-43.084
		c-0.367-0.185-0.771-0.272-1.154-0.272c-0.474,0-0.947,0.123-1.349,0.342c-0.772,0.428-1.28,1.181-1.331,2.022
		c-0.893,13.084-4.647,20.436-11.402,22.483c-1.112,0.341-2.276,0.499-3.458,0.499c-6.275,0-12.008-4.533-14.878-7.237
		c-5.644-5.366-10.275-11.886-14.739-18.212c-5.626-7.921-11.411-16.129-19.481-22.439c-8.279-6.495-18.213-10.484-27.813-14.344
		c-3.265-1.304-8.585-4.604-13.75-7.798c-5.61-3.457-10.896-6.74-14.607-8.227c-0.324-0.14-0.7-0.192-1.042-0.192
		c-0.394,0-0.771,0.069-1.13,0.236c-0.012,0.004-0.019,0.012-0.031,0.017c0.01,0.028,0.034,0.064,0.038,0.09
		c0.169,0.914,5.568,14.67,15.445,35.379c26.761,56.11,82.849,169.77,129.881,266.714c0.224-0.689,0.428-1.401,0.6-2.152
		c4.131,1.978,8.118,2.939,12.094,2.939c5.234,0,9.521-1.731,12.953-3.115c2.469-0.979,4.586-1.839,6.371-1.839
		c0.314,0,0.63,0.034,0.928,0.089c6.878,1.348,13.125,4.271,19.727,7.369c1.679,0.787,3.361,1.575,5.058,2.327
		c17.258,7.736,34.012,11.673,49.781,11.673c2.449,0,4.882-0.103,7.28-0.296c21.618-1.699,40.958-11.553,51.74-26.342
		C460.757,310.673,459.689,287.079,457.237,268.596z"/>
	<path fill="#D9EA95" d="M135.354,36.551c-0.006-0.025-0.03-0.061-0.039-0.089c-0.684,0.301-1.189,0.868-1.404,1.541
		c-1.129,3.439-3.011,10.02-4.84,16.366c-1.829,6.379-3.728,12.953-4.823,16.357c-3.063,9.436-6.214,19.184-6.31,29.328
		c-0.07,9.891,2.852,19.376,5.645,28.531c2.24,7.299,4.578,14.843,5.26,22.388c0.35,3.946,0.463,13.513-6.346,17.582
		c-1.925,1.146-4.018,1.725-6.423,1.725c-5.199,0-11.448-2.6-19.123-7.938c-0.464-0.324-1.024-0.49-1.575-0.49
		c-0.306,0-0.631,0.035-0.92,0.149c-0.84,0.289-1.46,0.928-1.68,1.75c-4.98,18.484,5.969,36.319,17.889,46.856
		c11.019,9.733,24.715,16.418,37.966,22.852c2.521,1.216,5.05,2.458,7.544,3.692c6.669,3.334,13.443,7.082,16.436,13.033
		c1.522,3.045,1.471,7.07-0.087,10.274c-1.776,3.604-4.918,6.142-9.111,5.32c-2.581-0.524-4.087,0-12.296-3.887
		c-16.025-7.559-23.787-20.705-38.298-30.605c-18.195-12.418-38.07-23.296-60.334-27.455c-0.175-0.034-0.359-0.052-0.517-0.052
		c-0.752,0-1.487,0.298-2.031,0.857c-0.62,0.666-0.822,1.594-0.516,2.459c5.164,14.852,6.844,30.946,8.454,46.499
		c0.526,5.058,1.059,10.134,1.707,15.174c2.346,18.555,7.046,42.096,22.406,59.847c10.484,12.113,25.617,20.792,42.175,24.312
		c-16.759,12.34-37.214,20.479-58.217,23.052c-1.165,0.157-2.101,1.017-2.292,2.102c-0.203,1.102,0.411,2.188,1.451,2.695
		c15.735,7.334,27.831,20.044,39.542,32.33c2.363,2.486,4.726,4.972,7.115,7.387c13.389,13.671,31.812,29.651,55.6,31.84
		c1.785,0.156,3.563,0.243,5.356,0.243c17.241,0,35.671-7.719,49.307-20.671c12.656-12.008,21.906-28.355,27.516-48.591
		c0.465-1.696,0.912-3.413,1.355-5.128c1.762-6.774,3.405-13.144,6.749-19.008c1.049-1.839,3.797-3.187,6.982-4.76
		c5.639-2.821,13.045-6.496,16.05-15.772c-47.076-97.041-103.148-210.665-129.879-266.714
		C140.966,51.32,135.52,37.464,135.354,36.551z"/>
	<path d="M463.452,267.791c-0.438-3.292-0.928-6.583-1.401-9.875c-2.363-15.873-4.778-32.17-0.909-47.022
		c1.015-3.841-0.736-7.885-4.254-9.846c-1.331-0.752-2.854-1.146-4.41-1.146c-2.188,0-4.271,0.771-5.918,2.188
		c-11.639,10.073-25.938,17.907-41.133,22.711c4.219-12.384,5.198-25.538,2.696-38.106c-4.796-24.146-21.616-43.629-35.743-57.911
		c-3.711-3.746-7.508-7.422-11.307-11.097c-11.325-10.966-22.999-22.283-31.313-34.99c-1.663-2.502-4.465-4.025-7.527-4.025
		c-3.342,0.069-6.197,1.714-7.771,4.418c-16.576,28.435-17.696,60.317-18.78,91.151c-0.105,3.063-0.262,6.108-0.422,9.154
		l-0.263,4.961c-0.051,1.243-0.069,2.496-0.089,3.763c-0.034,2.871-0.069,5.593-0.666,7.877c-0.399,1.506-1.136,2.704-2.011,3.291
		c-0.717,0.49-1.647,0.596-2.293,0.596c-1.26,0-2.589-0.376-3.657-1.042c-1.717-1.059-3.028-2.774-3.484-4.603
		c-0.089-0.358-0.158-0.736-0.191-1.111c-0.368-3.264,0.647-7.334,1.628-11.236l0.63-2.583c0.874-3.763,1.924-7.509,2.959-11.254
		l1.313-4.787c2.799-10.379,5.741-22.493,5.04-34.956c-0.962-17.223-9.363-38.999-30.088-48.44
		c-1.173-0.542-2.469-0.832-3.764-0.832c-1.522,0-3.045,0.394-4.376,1.129c-2.651,1.452-4.357,4.104-4.568,7.098
		c-0.473,6.887-2.047,15.42-6.958,16.891c-0.517,0.157-1.077,0.227-1.628,0.227c-4.288,0-8.822-3.852-10.564-5.523
		c-5.233-4.944-9.653-11.219-13.959-17.276c-5.88-8.313-11.955-16.882-20.715-23.77c-9.006-7.019-19.341-11.175-29.344-15.21
		c-2.757-1.094-8.087-4.394-12.743-7.298c-5.899-3.614-11.404-7.027-15.613-8.725c-1.076-0.428-2.222-0.647-3.387-0.647
		c-1.25,0-2.546,0.271-3.674,0.77c-2.311,1.025-4.105,2.976-4.875,5.382c-1.095,3.439-2.994,9.994-4.822,16.357
		c-1.864,6.495-3.728,12.996-4.822,16.348c-3.186,9.882-6.503,20.078-6.59,31.21c-0.096,10.878,2.95,20.803,5.907,30.412
		c2.136,7.011,4.358,14.213,5.023,21.154c0.123,1.522,0.631,9.25-3.316,11.614c-0.972,0.55-1.951,0.804-3.229,0.804
		c-3.815,0-9.049-2.275-15.516-6.791c-1.541-1.059-3.318-1.61-5.181-1.61c-1.024,0-1.986,0.157-2.941,0.48
		c-2.792,0.929-4.927,3.205-5.697,6.057c-5.758,21.241,6.451,41.405,19.771,53.186c11.665,10.3,25.756,17.163,39.374,23.778
		l7.491,3.693c5.742,2.852,11.508,5.985,13.627,10.222c0.639,1.277,0.587,3.238-0.113,4.689c-0.429,0.894-1.199,1.962-1.898,1.962
		c-0.999-0.176-1.61-0.263-2.24-0.332c-1.541-0.193-3.298-0.423-8.945-3.097c-8.384-3.961-14.441-9.787-20.838-15.975
		c-4.971-4.761-10.091-9.715-16.602-14.143c-14.502-9.873-36.74-23.587-62.715-28.461c-0.394-0.053-1.287-0.141-1.68-0.141
		c-2.495,0-4.875,1.025-6.582,2.828c-2.223,2.39-2.959,5.759-1.882,8.822c4.927,14.178,6.564,29.896,8.156,45.09
		c0.516,5.11,1.059,10.223,1.698,15.315c2.477,19.43,7.422,44.162,23.875,63.153c8.481,9.784,19.595,17.471,32.154,22.336
		c-13.496,7.703-28.803,12.828-44.215,14.702c-3.929,0.508-7.027,3.413-7.692,7.263c-0.674,3.869,1.364,7.755,4.988,9.436
		c14.642,6.844,26.326,19.116,37.641,30.981c2.381,2.505,4.744,5.009,7.15,7.456c14.16,14.439,33.712,31.332,59.54,33.697
		c1.986,0.174,3.946,0.261,5.916,0.261c18.799,0,38.84-8.364,53.631-22.388c13.496-12.795,23.316-30.104,29.241-51.461
		c0.472-1.715,0.929-3.43,1.383-5.161c1.663-6.424,3.202-12.413,6.126-17.539c0.387-0.316,2.748-1.489,4.325-2.26
		c4.011-1.991,9.754-4.861,14.208-10.255c1.125,1.908,2.273,3.804,3.451,5.687c9.767,15.475,21.371,30.142,35.586,42.78
		c7.124,6.268,14.947,11.921,23.435,16.803c4.255,2.436,8.7,4.621,13.357,6.512c2.345,0.946,4.725,1.804,7.176,2.556
		c7.154,2.447,20.448,8.479,11.902-12.516c-0.455-0.191-0.999-0.368-1.437-0.471l-0.541-0.125l-0.927-0.174l-1.542-0.264
		c-0.997-0.174-1.994-0.4-3.011-0.646c-2.028-0.475-4.062-1.069-6.091-1.734c-4.007-1.347-7.997-2.994-11.883-4.899
		c-7.808-3.763-15.107-8.647-21.934-14.073c-13.724-10.905-25.293-24.401-35.113-38.944c-1.036-1.538-2.045-3.091-3.045-4.65
		c0.785,0.06,1.572,0.096,2.363,0.096c6.459,0,11.571-2.063,15.3-3.57c1.418-0.575,3.359-1.363,4.041-1.398
		c5.829,1.19,11.727,3.957,17.977,6.862l5.146,2.379c18.083,8.105,35.69,12.22,52.354,12.22c2.607,0,5.217-0.106,7.771-0.3
		c23.421-1.872,44.478-12.672,56.311-28.914C467.145,312.599,466.06,287.428,463.452,267.791z M447.208,329.299
		c-10.779,14.791-30.122,24.643-51.74,26.342c-2.398,0.193-4.829,0.296-7.28,0.296c-15.77,0-32.538-3.937-49.778-11.673
		c-1.699-0.769-3.38-1.559-5.061-2.346c-6.6-3.08-12.847-6.003-19.727-7.353c-0.298-0.053-0.613-0.089-0.928-0.089
		c-1.785,0-3.902,0.859-6.369,1.841c-3.435,1.382-7.721,3.115-12.955,3.115c-2.241,0-4.489-0.318-6.764-0.942
		c-1.437-2.417-2.827-4.862-4.188-7.323c19.584-25.354,34.943-53.591,44.684-83.506c9.941-30.397,13.897-62.514,11.236-94.118
		c-0.069-0.736-0.754-1.287-1.522-1.251c-0.806,0.053-1.419,0.684-1.385,1.453c1.683,31.27-3.202,62.733-13.844,92.236
		c-9.964,27.738-24.889,53.744-43.462,77.064c-3.23-6.352-6.402-12.842-9.627-19.249l-23.911-47.856l-14.155-28.48
		c0.062-0.063,0.131-0.115,0.188-0.182c6.109-7.098,8.961-15.307,11.272-23.331c2.188-8.122,3.658-16.315,4.516-24.506
		c0.92-8.209,1.471-16.418,1.689-24.61c0.087-4.104,0.139-8.208,0.104-12.313l-0.069-6.143l-0.089-3.064
		c-0.095-1.042,0.071-2.065-0.56-3.09c-0.087-0.14-0.237-0.279-0.412-0.35c-0.479-0.235-1.075-0.061-1.313,0.411
		c-0.568,1.015-0.393,2.021-0.428,3.046l-0.054,3.063l-0.175,6.091c-0.184,4.052-0.429,8.121-0.7,12.174
		c-0.613,8.122-1.541,16.182-2.818,24.198c-1.216,7.99-3.063,15.894-5.46,23.534c-2.146,6.63-4.842,13.282-8.943,18.534
		l-30.239-60.841L149.77,64.031c-0.517-1.077-1.864-1.558-3.029-1.077c-1.146,0.499-1.672,1.794-1.128,2.871l46.227,96.48
		l29.302,61.906c-8.176-0.189-16.799-2.387-25.048-4.976c-8.84-2.756-17.583-6.004-26.151-9.626
		c-8.604-3.596-17.083-7.448-25.494-11.5l-12.507-6.222l-6.206-3.23l-3.079-1.628c-1.06-0.516-1.952-1.234-3.282-1.332
		c-0.193-0.017-0.412,0.019-0.586,0.132c-0.456,0.263-0.595,0.84-0.308,1.252c0.719,1.076,1.812,1.505,2.792,2.135l3.029,1.759
		l6.101,3.474c4.069,2.294,8.174,4.518,12.296,6.74c8.262,4.412,16.646,8.604,25.162,12.603c8.534,3.974,17.258,7.614,26.238,10.827
		c9.032,3.063,18.317,5.873,28.663,6.125h0.122c0.438,0,0.856-0.087,1.242-0.231l13.47,28.456l22.8,48.398l9.769,20.675
		c-31.9-1.317-63.674-7.317-93.534-18.329c-30.735-11.306-59.346-28.021-83.631-49.396c-0.569-0.505-1.471-0.489-2.005,0.035
		c-0.576,0.56-0.56,1.417,0,1.958c23.875,22.25,52.424,40.067,83.449,52.46c31.043,12.446,64.44,19.569,98.152,21.601
		c0.036,0,0.104,0,0.14,0c0.499,0.018,0.975-0.061,1.428-0.191c1.317,2.566,2.662,5.123,4.065,7.654
		c-3.619,5.603-9.154,8.36-13.597,10.584c-3.186,1.573-5.935,2.923-6.982,4.76c-3.346,5.864-4.998,12.233-6.74,19.008
		c-0.465,1.717-0.893,3.432-1.356,5.128c-5.629,20.235-14.878,36.583-27.534,48.591c-13.618,12.952-32.066,20.671-49.308,20.671
		c-1.776,0-3.57-0.087-5.339-0.243c-23.805-2.188-42.228-18.169-55.617-31.821c-2.39-2.432-4.753-4.919-7.099-7.405
		c-11.727-12.286-23.822-24.994-39.541-32.33c-1.058-0.506-1.653-1.592-1.452-2.693c0.176-1.085,1.112-1.944,2.275-2.102
		c21.003-2.572,41.475-10.712,58.217-23.034c-16.542-3.535-31.673-12.218-42.175-24.331c-15.342-17.73-20.042-41.29-22.405-59.847
		c-0.63-5.04-1.165-10.114-1.707-15.155c-1.61-15.571-3.273-31.666-8.436-46.518c-0.307-0.867-0.106-1.794,0.516-2.459
		c0.525-0.559,1.26-0.857,2.014-0.857c0.174,0,0.357,0.019,0.516,0.054c22.282,4.157,42.14,15.035,60.354,27.454
		c14.492,9.9,22.271,23.062,38.279,30.605c8.209,3.887,9.715,3.362,12.313,3.887c0.543,0.105,1.061,0.159,1.559,0.159
		c3.405,0,5.986-2.347,7.553-5.479c1.575-3.204,1.609-7.229,0.087-10.258c-2.994-5.968-9.767-9.715-16.436-13.05
		c-2.511-1.234-5.042-2.477-7.545-3.693c-13.267-6.434-26.946-13.101-37.965-22.852c-11.92-10.537-22.886-28.373-17.906-46.857
		c0.219-0.822,0.839-1.461,1.679-1.75c0.307-0.113,0.613-0.149,0.919-0.149c0.551,0,1.129,0.166,1.592,0.49
		c7.677,5.338,13.907,7.938,19.107,7.938c2.406,0,4.498-0.577,6.441-1.724c6.808-4.069,6.704-13.635,6.327-17.583
		c-0.682-7.526-3.02-15.088-5.26-22.387c-2.792-9.154-5.697-18.642-5.627-28.531c0.097-10.144,3.23-19.893,6.292-29.328
		c1.112-3.404,2.994-9.978,4.841-16.357c1.811-6.345,3.71-12.926,4.822-16.364c0.218-0.684,0.734-1.262,1.453-1.559
		c0.341-0.167,0.734-0.236,1.111-0.236c0.359,0,0.718,0.07,1.06,0.191c3.711,1.488,8.997,4.771,14.59,8.227
		c5.163,3.195,10.483,6.495,13.766,7.799c9.583,3.859,19.516,7.851,27.795,14.345c8.087,6.311,13.872,14.519,19.482,22.439
		c4.463,6.328,9.093,12.847,14.755,18.212c2.871,2.704,8.585,7.238,14.877,7.238c1.165,0,2.328-0.157,3.44-0.499
		c6.772-2.048,10.519-9.399,11.411-22.483c0.053-0.841,0.56-1.594,1.331-2.005c0.403-0.237,0.873-0.359,1.347-0.359
		c0.386,0,0.789,0.087,1.156,0.272c18.187,8.28,25.571,27.69,26.431,43.068c0.628,11.184-1.927,22.211-4.831,32.985
		c-1.454,5.409-3.045,10.781-4.341,16.235c-1.174,5.076-2.941,10.72-2.365,15.936c0.072,0.655,0.177,1.304,0.334,1.97
		c0.876,3.422,3.167,6.502,6.302,8.419c2.047,1.242,4.517,1.959,6.932,1.959c2.067,0,4.077-0.525,5.775-1.654
		c2.399-1.592,3.887-4.21,4.588-6.915c1.084-4.156,0.771-8.672,0.962-12.926c0.228-4.726,0.525-9.459,0.682-14.213
		c1.053-30.054,2.153-61.14,17.941-88.183c0.455-0.806,1.332-1.313,2.347-1.332c0.927,0,1.786,0.473,2.275,1.209
		c8.701,13.294,20.654,24.855,32.206,36.041c3.765,3.657,7.526,7.299,11.201,11.009c13.498,13.653,29.566,32.225,34.047,54.716
		c3.081,15.395,0.352,31.927-7.474,46.157c20.793-4.157,40.555-13.715,56.169-27.228c0.508-0.428,1.154-0.664,1.82-0.664
		c0.473,0,0.945,0.105,1.364,0.358c1.016,0.561,1.523,1.689,1.226,2.775c-4.184,16.102-1.682,33.038,0.752,49.394
		c0.49,3.31,0.979,6.599,1.401,9.89C459.689,287.079,460.757,310.693,447.208,329.299z"/>
</g>
</svg>
