<?xml version="1.0" encoding="utf-8"?>
<!-- Generator: Adobe Illustrator 16.0.0, SVG Export Plug-In . SVG Version: 6.00 Build 0)  -->
<!DOCTYPE svg PUBLIC "-//W3C//DTD SVG 1.1//EN" "http://www.w3.org/Graphics/SVG/1.1/DTD/svg11.dtd">
<svg version="1.1" id="Ebene_1" xmlns="http://www.w3.org/2000/svg" xmlns:xlink="http://www.w3.org/1999/xlink" x="0px" y="0px"
	 width="900px" height="400px" viewBox="0 0 900 400" enable-background="new 0 0 900 400" xml:space="preserve">
<text transform="matrix(1 0 0 1 164.6726 354.1504)" opacity="0.4" enable-background="new    " font-family="'Roboto'" font-size="29">Leider haben wir zu diesem Objekt kein Bild.</text>
<g id="XMLID_592_">
	<g id="XMLID_572_">
		<g id="XMLID_312_">
			<path id="XMLID_313_" fill="#1D1D1B" d="M424.034,94.62"/>
		</g>
	</g>
</g>
<g opacity="0.4">
	<path fill="#1D1D1B" d="M525.172,107.55c0-13.08-10.313-23.721-22.992-23.721H398.51c-12.837,0-23.682,10.863-23.682,23.721
		v103.668c0,12.656,10.624,22.953,23.682,22.953h103.668c12.893,0,22.992-10.082,22.992-22.953L525.172,107.55L525.172,107.55z
		 M521.647,211.218c0,10.714-8.733,19.431-19.469,19.431H398.51c-10.645,0-18.982-8.535-18.982-19.43V107.55
		c0-10.667,8.338-19.022,18.982-19.022h103.668c10.918,0,19.469,8.356,19.469,19.022V211.218L521.647,211.218z"/>
	<path fill="#1D1D1B" d="M386.574,189.538h126.852V97.924H386.574V189.538z M391.386,103.231h117.227v81H391.386V103.231z"/>
	<path d="M468.503,135.445c-0.565-1.272-1.242-2.388-1.995-3.282c-0.045-0.166-0.208-0.923,0.264-1.761
		c0.345-0.612,0.52-0.955,2.067-3.268c3.948-5.897,0.904-15.966-2.449-15.108c-3.355,0.859-8.01,4.552-8.01,4.552l-0.004,0.001
		c0.792-3.22,2.261-5.172,4.047-6.24c2.088-1.247,0-1.561,0-1.561h-24.846c0,0-2.088,0.313,0,1.561
		c1.786,1.068,3.256,3.021,4.048,6.245l-0.005-0.006c0,0-4.654-3.692-8.01-4.552c-3.354-0.857-6.397,9.211-2.449,15.108
		c1.547,2.313,1.723,2.655,2.066,3.268c0.478,0.849,0.306,1.612,0.263,1.767c-2.889,3.438-4.68,10.131-3.188,16.4
		c1.56,6.553,12.482,22.469,12.482,22.469s5.066,7.646,7.215,7.646c1.718,0,5.302-4.891,6.668-6.85
		c0.343-0.49,0.546-0.797,0.546-0.797l-3.506-5.596l-1.093-7.957l7.334-5.695l1.404-12.015L468.503,135.445z M437.576,129.195
		c-0.141,0.068-0.281,0.138-0.421,0.208l0.005-0.003c0,0-2.405,0.355-4.158-2.699c-2.63-4.584-0.674-11.887,1.824-11.248
		c2.497,0.64,7.568,5.656,7.743,6.876c0.419,2.783,0.755,5.018,0.755,5.018S440.42,127.849,437.576,129.195z M456.675,127.346
		c0,0,0.336-2.234,0.756-5.018c0.174-1.22,5.246-6.236,7.743-6.876c2.498-0.639,4.453,6.664,1.824,11.248
		c-1.753,3.055-4.158,2.699-4.158,2.699l0.005,0.003c-0.141-0.07-0.281-0.14-0.422-0.208
		C459.58,127.849,456.675,127.346,456.675,127.346z"/>
</g>
<path opacity="0.4" fill="#C1272D" enable-background="new    " d="M450,29.119c-74.381,0-134.896,60.514-134.896,134.896
	c0,74.381,60.515,134.896,134.896,134.896c74.382,0,134.896-60.515,134.896-134.896C584.894,89.633,524.382,29.119,450,29.119z
	 M450,62.154c22.11,0,42.582,7.104,59.3,19.119l-142.04,142.04c-12.016-16.715-19.119-37.187-19.119-59.296
	C348.139,107.848,393.834,62.154,450,62.154z M450,265.874c-22.153,0-42.661-7.131-59.396-19.188l142.067-142.066
	c12.058,16.734,19.188,37.242,19.188,59.396C551.859,220.182,506.166,265.874,450,265.874z"/>
</svg>
