<?xml version="1.0" encoding="utf-8"?>
<!-- Generator: Adobe Illustrator 16.0.0, SVG Export Plug-In . SVG Version: 6.00 Build 0)  -->
<!DOCTYPE svg PUBLIC "-//W3C//DTD SVG 1.1//EN" "http://www.w3.org/Graphics/SVG/1.1/DTD/svg11.dtd">
<svg version="1.1" id="Ebene_1" xmlns="http://www.w3.org/2000/svg" xmlns:xlink="http://www.w3.org/1999/xlink" x="0px" y="0px"
	 width="900px" height="400px" viewBox="0 0 900 400" enable-background="new 0 0 900 400" xml:space="preserve">
<text transform="matrix(1 0 0 1 164.6721 354.1501)" opacity="0.4" enable-background="new" font-family="'Roboto-Regular'" font-size="29">Leider haben wir zu diesem Objekt kein Bild.</text>
<g id="XMLID_592_">
	<g id="XMLID_572_">
		<g id="XMLID_312_">
			<path id="XMLID_313_" fill="#1D1D1B" d="M424.033,94.62"/>
		</g>
	</g>
</g>
<g opacity="0.4">
	<path fill="#1D1D1B" d="M525.172,107.55c0-13.079-10.313-23.721-22.992-23.721H398.51c-12.837,0-23.682,10.863-23.682,23.721
		v103.669c0,12.655,10.624,22.952,23.682,22.952h103.668c12.893,0,22.992-10.082,22.992-22.952L525.172,107.55L525.172,107.55z
		 M521.647,211.219c0,10.714-8.733,19.431-19.469,19.431H398.51c-10.645,0-18.982-8.535-18.982-19.43V107.55
		c0-10.667,8.339-19.021,18.982-19.021h103.668c10.918,0,19.469,8.355,19.469,19.021V211.219L521.647,211.219z"/>
	<path fill="#1D1D1B" d="M386.574,189.538h126.852V97.924H386.574V189.538z M391.386,103.231h117.227v81H391.386V103.231z"/>
	<path d="M463.498,118.996c1.071,0.165,2.147,0.394,3.223,0.769c3.946,1.392,5.889,1.887,7.234,1.887c0,0,2.509,0.042,4.134-0.316
		c1.554-0.343,2.82-0.788,4.877-1.785c0.138-0.059,0.192,9.363,0.166,20.92l-0.102,20.999l-2.52,1.25
		c-2.434,1.213-2.628,1.241-5.594,1.241c-2.774,0-3.352-0.119-5.943-1.145c-5.375-2.065-9.854-2.198-14.349-0.366
		c-1.086,0.43-2.208,0.865-2.498,0.961c-0.544,0.156-0.582-0.961-0.582-20.642v-20.796l1.468-0.934
		c2.353-1.438,4.927-2.111,7.602-2.18L463.498,118.996z M461.969,115.919c-2.903-0.155-5.641,0.477-8.909,1.933l-2.467,1.117
		l-1.442-0.989c-1.854-1.309-6.172-3.26-8.635-3.905c-2.257-0.595-8.552-0.875-10.952-0.445c-2.335,0.403-6.071,1.644-8.47,2.789
		c-3.04,1.488-5.659,3.319-5.659,3.969c0,0.651-0.604,1.173-2.628,2.17c-0.796,0.431-1.785,0.989-2.134,1.237
		c-0.641,0.494-0.672,0.655-0.672,24.039c0,12.966,0,23.717,0,23.937c0,0.219,0.288,0.522,0.608,0.706
		c0.509,0.247,1.085,0.064,2.967-0.93c5.055-2.633,9.972-3.901,16.235-4.208c5.975-0.311,9.679,0.211,18.218,2.509l2.074,0.549
		l3.368-0.962c6.034-1.73,8.273-2.069,14.376-2.069c7.762,0.032,12.555,1.09,18.435,4.181c1.827,0.961,2.526,1.176,2.979,0.925
		c0.289-0.147,0.609-0.453,0.664-0.683c0.074-0.21,0.102-11.03,0.046-24.01l-0.073-23.609l-1.758-1.026l-1.749-1.021v-2.88
		c0-1.584-0.156-3.168-0.32-3.498c-0.412-0.75-1.978-0.806-2.592-0.096c-0.219,0.279-1.172,0.929-2.106,1.424
		c-0.971,0.518-3.255,2.111-7.518,1.731c-1.186-0.092-3.188-0.619-4.886-1.273c-1.029-0.384-1.99-0.687-2.93-0.938
		C466.039,116.593,464.867,116.066,461.969,115.919z M413.869,168.204l-1.31,0.526v-21.382v-21.356l1.063-0.619
		c0.54-0.338,1.117-0.618,1.273-0.618c0.128,0,0.229,9.542,0.229,21.238c0,11.676,0,21.309,0.027,21.437
		C415.151,167.55,414.575,167.897,413.869,168.204z M446.816,166.57c-5.301-1.594-8.241-1.96-14.761-1.96
		c-4.597,0-6.804,0.128-8.466,0.49c-1.213,0.28-2.275,0.472-2.335,0.403c-0.417-0.403,5.627-2.642,8.731-3.228
		c2.807-0.544,8.012-0.173,10.887,0.75c2.785,0.898,5.531,2.234,7.001,3.416l0.961,0.732L446.816,166.57z M448.995,142.452
		c0,11.581-0.101,21.045-0.229,20.977c-7.28-3.594-9.112-4.121-14.793-4.083c-5.143,0-7.871,0.618-12.624,2.875l-3.031,1.465
		v-21.146c0-19.707,0.028-21.135,0.567-21.565c0.897-0.806,4.606-2.665,6.652-3.38c5.142-1.74,10.769-1.922,15.279-0.466
		c2.912,0.961,4.954,1.923,6.841,3.259l1.341,0.962L448.995,142.452L448.995,142.452z M461.008,164.889
		c-1.658,0.251-4.186,0.709-5.526,1.048c-1.374,0.343-2.528,0.567-2.593,0.503c-0.188-0.192,2.14-1.246,3.934-1.799
		c1.951-0.591,3.453-0.81,4.954-0.655c0.612,0.064,1.464,0.12,1.887,0.12C465.164,164.111,464.042,164.459,461.008,164.889z
		 M487.352,168.694l-3.356-1.292c-3.043-1.154-4.032-1.74-2.948-1.74c0.491,0,4.734-2.638,5.073-3.159
		c0.124-0.229,0.262-8.681,0.262-18.811c0-16.304,0.063-18.351,0.477-18.002c0.415,0.339,0.488,3.123,0.488,21.695v21.309H487.352z"
		/>
</g>
<path opacity="0.4" fill="#C1272D" enable-background="new    " d="M450,29.119c-74.381,0-134.896,60.514-134.896,134.896
	c0,74.381,60.516,134.896,134.896,134.896c74.382,0,134.896-60.515,134.896-134.896C584.894,89.633,524.382,29.119,450,29.119z
	 M450,62.154c22.109,0,42.582,7.104,59.3,19.119l-142.04,142.04c-12.016-16.715-19.119-37.188-19.119-59.296
	C348.139,107.848,393.834,62.154,450,62.154z M450,265.874c-22.153,0-42.661-7.131-59.396-19.188L532.671,104.62
	c12.058,16.734,19.188,37.242,19.188,59.396C551.859,220.182,506.166,265.874,450,265.874z"/>
</svg>
