<?xml version="1.0" encoding="utf-8"?>
<!-- Generator: Adobe Illustrator 16.0.0, SVG Export Plug-In . SVG Version: 6.00 Build 0)  -->
<!DOCTYPE svg PUBLIC "-//W3C//DTD SVG 1.1//EN" "http://www.w3.org/Graphics/SVG/1.1/DTD/svg11.dtd">
<svg version="1.1" id="Ebene_1" xmlns="http://www.w3.org/2000/svg" xmlns:xlink="http://www.w3.org/1999/xlink" x="0px" y="0px"
	 width="100px" height="100px" viewBox="0 0 100 100" enable-background="new 0 0 100 100" xml:space="preserve">
<g id="XMLID_592_">
	<g id="XMLID_572_">
		<g id="XMLID_312_">
			<path id="XMLID_313_" fill="#1D1D1B" d="M-52.966-84.38"/>
		</g>
	</g>
</g>
<g>
	<g opacity="0.5">
		<path fill="#1D1D1B" d="M76.921,31.574c0-4.685-3.692-8.495-8.233-8.495H31.56c-4.597,0-8.481,3.89-8.481,8.495v37.127
			c0,4.531,3.805,8.22,8.481,8.22h37.125c4.617,0,8.233-3.61,8.233-8.22L76.921,31.574L76.921,31.574z M75.659,68.701
			c0,3.836-3.128,6.958-6.974,6.958H31.56c-3.812,0-6.798-3.058-6.798-6.958V31.574c0-3.82,2.986-6.813,6.798-6.813h37.125
			c3.91,0,6.974,2.993,6.974,6.813V68.701z"/>
		<path fill="#1D1D1B" d="M27.286,60.938h45.429V28.127H27.286V60.938z M29.009,30.027h41.982v29.009H29.009V30.027z"/>
		<path d="M55.422,34.358c0.431,0.066,0.863,0.158,1.295,0.309c1.586,0.559,2.365,0.758,2.906,0.758c0,0,1.008,0.017,1.661-0.127
			c0.623-0.138,1.133-0.316,1.958-0.717c0.056-0.024,0.077,3.761,0.066,8.404l-0.04,8.435l-1.012,0.503
			c-0.979,0.487-1.056,0.498-2.248,0.498c-1.114,0-1.346-0.048-2.387-0.46c-2.159-0.829-3.958-0.883-5.765-0.147
			c-0.436,0.174-0.887,0.348-1.003,0.387c-0.219,0.063-0.233-0.387-0.233-8.292v-8.354l0.589-0.375
			c0.945-0.577,1.979-0.848,3.054-0.875L55.422,34.358z M54.808,33.122c-1.166-0.063-2.266,0.191-3.579,0.776l-0.99,0.449
			l-0.579-0.397c-0.745-0.526-2.479-1.31-3.469-1.569c-0.907-0.239-3.436-0.351-4.399-0.178c-0.938,0.162-2.439,0.66-3.402,1.12
			c-1.222,0.598-2.273,1.333-2.273,1.595c0,0.261-0.243,0.471-1.056,0.872c-0.32,0.173-0.718,0.397-0.857,0.497
			c-0.258,0.199-0.271,0.263-0.271,9.656c0,5.208,0,9.527,0,9.615s0.116,0.21,0.245,0.283c0.204,0.1,0.436,0.025,1.191-0.373
			c2.03-1.057,4.006-1.566,6.522-1.689c2.399-0.125,3.888,0.085,7.317,1.007l0.834,0.221l1.353-0.386
			c2.424-0.694,3.323-0.831,5.774-0.831c3.118,0.013,5.044,0.438,7.405,1.679c0.733,0.386,1.016,0.473,1.197,0.371
			c0.116-0.059,0.244-0.182,0.267-0.273c0.029-0.085,0.04-4.43,0.019-9.645l-0.029-9.483l-0.706-0.412l-0.703-0.41v-1.157
			c0-0.636-0.063-1.273-0.129-1.405c-0.165-0.302-0.794-0.324-1.041-0.039c-0.088,0.112-0.471,0.374-0.846,0.572
			c-0.39,0.208-1.308,0.848-3.021,0.695c-0.476-0.037-1.279-0.248-1.962-0.511c-0.414-0.154-0.8-0.276-1.177-0.377
			C56.443,33.393,55.972,33.181,54.808,33.122z M35.486,54.125l-0.526,0.211v-8.589v-8.578l0.427-0.248
			c0.217-0.136,0.448-0.249,0.511-0.249c0.052,0,0.093,3.833,0.093,8.531c0,4.689,0,8.56,0.011,8.612
			C36.001,53.862,35.77,54.002,35.486,54.125z M48.721,53.469c-2.13-0.641-3.311-0.788-5.93-0.788c-1.847,0-2.732,0.052-3.4,0.197
			c-0.487,0.112-0.914,0.189-0.938,0.162c-0.168-0.162,2.26-1.062,3.507-1.297c1.128-0.219,3.219-0.07,4.374,0.302
			c1.118,0.36,2.222,0.897,2.812,1.372l0.387,0.294L48.721,53.469z M49.597,43.781c0,4.651-0.041,8.454-0.092,8.426
			c-2.925-1.444-3.66-1.656-5.942-1.641c-2.066,0-3.162,0.248-5.071,1.154l-1.218,0.589v-8.494c0-7.916,0.012-8.49,0.229-8.663
			c0.36-0.324,1.85-1.07,2.672-1.357c2.065-0.699,4.326-0.772,6.138-0.188c1.17,0.386,1.99,0.772,2.748,1.31l0.539,0.386
			L49.597,43.781L49.597,43.781z M54.422,52.793c-0.666,0.102-1.682,0.285-2.221,0.422c-0.552,0.138-1.015,0.228-1.041,0.202
			c-0.075-0.077,0.859-0.5,1.58-0.723c0.784-0.237,1.387-0.326,1.99-0.264c0.246,0.026,0.589,0.048,0.758,0.048
			C56.092,52.48,55.641,52.62,54.422,52.793z M65.005,54.321l-1.349-0.519c-1.223-0.463-1.62-0.698-1.185-0.698
			c0.197,0,1.902-1.06,2.038-1.27c0.05-0.092,0.104-3.488,0.104-7.556c0-6.549,0.026-7.372,0.191-7.231
			c0.168,0.136,0.197,1.254,0.197,8.714v8.56H65.005z"/>
	</g>
	<path opacity="0.4" fill="#C1272D" enable-background="new    " d="M50,2.5C23.809,2.5,2.5,23.809,2.5,50
		c0,26.191,21.309,47.5,47.5,47.5c26.191,0,47.5-21.309,47.5-47.5C97.5,23.809,76.191,2.5,50,2.5z M50,14.132
		c7.785,0,14.994,2.501,20.881,6.732L20.865,70.88c-4.231-5.886-6.732-13.095-6.732-20.88C14.133,30.223,30.223,14.132,50,14.132z
		 M50,85.867c-7.801,0-15.022-2.512-20.914-6.758l50.023-50.024c4.246,5.893,6.758,13.114,6.758,20.915
		C85.867,69.777,69.777,85.867,50,85.867z"/>
</g>
</svg>
