<?xml version="1.0" encoding="utf-8"?>
<!-- Generator: Adobe Illustrator 16.0.0, SVG Export Plug-In . SVG Version: 6.00 Build 0)  -->
<!DOCTYPE svg PUBLIC "-//W3C//DTD SVG 1.1//EN" "http://www.w3.org/Graphics/SVG/1.1/DTD/svg11.dtd">
<svg version="1.1" id="Ebene_1" xmlns="http://www.w3.org/2000/svg" xmlns:xlink="http://www.w3.org/1999/xlink" x="0px" y="0px"
	 width="149.526px" height="80px" viewBox="0 0 149.526 80" enable-background="new 0 0 149.526 80" xml:space="preserve">
<path fill-rule="evenodd" clip-rule="evenodd" fill="#00618F" d="M134.006,65.756c-0.448,0.036-0.888,0.072-1.327,0.072
	c-0.4,0-0.81-0.036-1.21-0.072v0.126l0.645,0.24c0.281,0.106,0.36,0.179,0.381,0.429c0.028,0.438,0.038,0.876,0.038,1.305v2.161
	l-2.782-3.377c-0.233-0.286-0.439-0.572-0.625-0.884c-0.292,0.036-0.586,0.072-0.878,0.072c-0.313,0-0.625-0.036-0.938-0.072v0.126
	c0.313,0.088,0.615,0.186,0.917,0.312l0.128,0.179v1.769c0,1.144-0.068,2.475-0.107,2.761c-0.011,0.081-0.099,0.161-0.234,0.205
	l-0.742,0.26v0.124c0.419-0.036,0.829-0.071,1.249-0.071c0.43,0,0.87,0.035,1.299,0.071v-0.124l-0.645-0.188
	c-0.283-0.08-0.351-0.151-0.381-0.294c-0.029-0.17-0.049-1.931-0.049-3.109v-1l2.002,2.438c0.664,0.821,1.337,1.634,1.961,2.482
	h0.235c-0.02-1.018-0.02-2.046-0.02-2.411c0-0.519,0.079-2.099,0.107-2.823c0.01-0.16,0.107-0.25,0.322-0.321l0.653-0.215V65.756z
	 M122.759,71.491c0.438-0.036,1.005-0.071,1.492-0.071c0.431,0,0.997,0.035,1.455,0.071v-0.124l-0.753-0.233
	c-0.242-0.08-0.271-0.115-0.281-0.803c-0.01-0.537-0.029-1.083-0.029-1.618s0.02-1.081,0.029-1.616
	c0.02-0.839,0.028-0.902,0.215-0.966l0.819-0.248v-0.126c-0.487,0.036-0.966,0.072-1.455,0.072c-0.547,0-1.024-0.036-1.492-0.072
	v0.126l0.819,0.248c0.186,0.063,0.195,0.127,0.215,0.966c0.01,0.535,0.029,1.081,0.029,1.616s-0.02,1.081-0.029,1.618
	c-0.01,0.688-0.04,0.723-0.283,0.803l-0.751,0.233V71.491z M119.262,69.24h-2.196l1.123-2.367L119.262,69.24z M114.977,71.491
	c0.362-0.036,0.722-0.071,1.083-0.071c0.391,0,0.771,0.035,1.152,0.071v-0.124l-0.84-0.278c0.138-0.499,0.294-1.027,0.557-1.482
	c0.41-0.009,0.811-0.018,1.221-0.018s0.83,0.009,1.239,0.018c0.138,0.268,0.45,1.108,0.567,1.482
	c-0.293,0.108-0.714,0.224-0.957,0.278v0.124c0.439-0.036,0.869-0.071,1.309-0.071c0.517,0,1.024,0.035,1.541,0.071v-0.124
	l-0.819-0.26c-0.829-1.813-1.708-3.672-2.489-5.53h-0.215c-0.703,1.609-1.758,3.663-2.606,5.494
	c-0.234,0.117-1.099,0.216-1.332,0.296L114.977,71.491z M105.214,71.491c0.38-0.036,0.761-0.071,1.142-0.071
	c0.42,0,0.83,0.035,1.249,0.071v-0.124l-0.508-0.161c-0.273-0.081-0.361-0.17-0.361-0.375c0-0.6,0.187-3.118,0.313-4.298
	c0.811,1.634,1.63,3.261,2.324,4.958h0.126c0.733-1.635,1.476-3.172,2.333-4.859c0.089,0.438,0.548,3.832,0.548,4.278
	c0,0.081-0.099,0.206-0.43,0.305l-0.479,0.152v0.124c0.45-0.036,0.898-0.071,1.358-0.071c0.458,0,0.917,0.035,1.366,0.071v-0.124
	l-0.527-0.136c-0.233-0.062-0.352-0.124-0.399-0.4c-0.108-0.564-0.538-3.824-0.538-4.44c0-0.161,0.078-0.214,0.479-0.356l0.43-0.151
	v-0.126c-0.654,0.036-1.299,0.063-1.874,0.072c-0.645,1.401-1.318,2.804-2.09,4.171c-0.684-1.385-1.356-2.77-1.962-4.171
	c-0.586-0.01-1.239-0.036-1.864-0.072v0.126l0.557,0.186c0.186,0.063,0.254,0.161,0.254,0.322c0,0.662-0.254,2.957-0.498,4.352
	c-0.049,0.294-0.089,0.339-0.43,0.455l-0.517,0.17V71.491z M91.545,71.491c0.381-0.036,0.762-0.071,1.143-0.071
	c0.42,0,0.829,0.035,1.25,0.071v-0.124l-0.508-0.161c-0.274-0.081-0.362-0.17-0.362-0.375c0-0.6,0.186-3.118,0.313-4.298
	c0.811,1.634,1.631,3.261,2.324,4.958h0.127c0.731-1.635,1.474-3.172,2.333-4.859c0.088,0.438,0.546,3.832,0.546,4.278
	c0,0.081-0.098,0.206-0.43,0.305l-0.478,0.152v0.124c0.449-0.036,0.898-0.071,1.356-0.071c0.459,0,0.918,0.035,1.366,0.071v-0.124
	l-0.527-0.136c-0.232-0.062-0.351-0.124-0.399-0.4c-0.107-0.564-0.537-3.824-0.537-4.44c0-0.161,0.078-0.214,0.479-0.356l0.43-0.151
	v-0.126c-0.653,0.036-1.298,0.063-1.875,0.072c-0.644,1.401-1.317,2.804-2.088,4.171c-0.684-1.385-1.357-2.77-1.963-4.171
	c-0.586-0.01-1.24-0.036-1.865-0.072v0.126l0.558,0.186c0.186,0.063,0.254,0.161,0.254,0.322c0,0.662-0.254,2.957-0.499,4.352
	c-0.049,0.294-0.087,0.339-0.429,0.455l-0.518,0.17V71.491z M88.081,69.24h-2.197l1.124-2.367L88.081,69.24z M83.794,71.491
	c0.361-0.036,0.723-0.071,1.084-0.071c0.392,0,0.772,0.035,1.152,0.071v-0.124l-0.84-0.278c0.138-0.499,0.293-1.027,0.557-1.482
	c0.41-0.009,0.811-0.018,1.221-0.018s0.829,0.009,1.239,0.018c0.137,0.268,0.449,1.108,0.566,1.482
	c-0.294,0.108-0.712,0.224-0.957,0.278v0.124c0.44-0.036,0.868-0.071,1.309-0.071c0.518,0,1.024,0.035,1.543,0.071v-0.124
	l-0.82-0.26c-0.831-1.813-1.709-3.672-2.49-5.53h-0.215c-0.702,1.609-1.757,3.663-2.606,5.494c-0.234,0.117-0.508,0.216-0.742,0.296
	V71.491z M73.962,67.274h0.137l0.293-0.714c0.136-0.303,0.233-0.339,1.699-0.339v3.895c0,0.445-0.021,0.679-0.078,0.803
	c-0.049,0.117-0.265,0.224-1.006,0.448v0.124c0.459-0.036,0.888-0.071,1.494-0.071s1.034,0.035,1.492,0.071v-0.124
	c-0.74-0.225-0.946-0.331-1.004-0.448c-0.059-0.124-0.078-0.357-0.078-0.803v-3.895c1.463,0,1.562,0.036,1.697,0.339l0.293,0.714
	h0.137v-1.518c-0.849,0.036-1.688,0.072-2.537,0.072s-1.688-0.036-2.538-0.072V67.274z M68.676,66.13
	c0.293,0,0.585-0.008,0.898-0.008c0.918,0,1.513,0.339,1.513,1.125c0,0.983-0.839,1.117-1.747,1.117h-0.665V66.13z M66.792,71.491
	c0.469-0.036,1.035-0.071,1.533-0.071c0.342,0,0.996,0.035,1.416,0.071v-0.124l-0.781-0.242c-0.254-0.071-0.283-0.277-0.283-1.438
	V68.66h0.751c0.605,0.723,1.475,1.866,2.099,2.831c0.244-0.018,0.489-0.036,0.723-0.036c0.225,0,0.459,0.019,0.683,0.036v-0.124
	c-0.546-0.09-0.595-0.152-1.162-0.931l-1.347-1.839c0.898-0.134,1.601-0.563,1.601-1.465c0-0.894-0.839-1.376-2.128-1.376
	c-0.693,0-1.25,0.072-1.757,0.072c-0.527,0-0.986-0.036-1.348-0.072v0.126l0.82,0.248c0.214,0.063,0.244,0.127,0.244,0.966v3.234
	c0,0.688-0.039,0.723-0.313,0.803l-0.752,0.233V71.491z M65.55,65.756c-0.391,0.036-0.771,0.072-1.143,0.072
	c-0.43,0-0.85-0.036-1.269-0.072v0.126l0.537,0.151c0.264,0.08,0.41,0.152,0.429,0.312c0.079,0.616,0.088,2.037,0.088,3.135
	c0,1.073-0.615,1.653-1.641,1.653c-1.552,0-1.835-0.75-1.835-1.894c0-1.376,0-2.144,0.029-2.67c0.019-0.313,0.097-0.349,0.634-0.536
	l0.45-0.151v-0.126c-0.518,0.036-1.024,0.072-1.542,0.072c-0.459,0-0.74-0.036-1.219-0.072v0.126l0.525,0.248
	c0.273,0.099,0.302,0.277,0.302,1.028v2.51c0,1.367,0.986,1.931,2.402,1.931c1.455,0,2.382-0.644,2.402-2.377
	c0.019-1.591,0-2.323,0.019-2.822c0.01-0.188,0.146-0.27,0.4-0.366l0.43-0.151V65.756z M124.979,52.328h0.229l0.492-1.295
	c0.23-0.548,0.395-0.611,2.855-0.611v7.046c0,0.808-0.032,1.229-0.131,1.455c-0.082,0.208-0.443,0.403-1.69,0.808v0.226
	c0.771-0.064,1.493-0.129,2.511-0.129s1.739,0.064,2.511,0.129V59.73c-1.247-0.404-1.592-0.6-1.69-0.808
	c-0.098-0.227-0.131-0.647-0.131-1.455v-7.046c2.461,0,2.625,0.063,2.855,0.611l0.492,1.295h0.229V49.58
	c-1.428,0.064-2.839,0.13-4.267,0.13s-2.839-0.065-4.266-0.13V52.328z M120.41,55.882h-3.691l1.887-4.282L120.41,55.882z
	 M113.207,59.956c0.606-0.064,1.214-0.129,1.82-0.129c0.657,0,1.297,0.064,1.938,0.129V59.73l-1.412-0.502
	c0.23-0.905,0.492-1.857,0.936-2.684c0.689-0.016,1.361-0.031,2.052-0.031c0.688,0,1.395,0.016,2.084,0.031
	c0.229,0.487,0.755,2.007,0.952,2.684c-0.493,0.196-1.198,0.404-1.608,0.502v0.226c0.738-0.064,1.46-0.129,2.198-0.129
	c0.869,0,1.723,0.064,2.594,0.129V59.73l-1.379-0.47c-1.395-3.28-2.872-6.643-4.185-10.004h-0.361
	c-1.181,2.909-2.954,6.626-4.381,9.94c-0.395,0.209-0.854,0.387-1.247,0.533V59.956z M121.394,47.867
	c0-0.372-0.393-0.743-0.804-0.743c-0.378,0-0.771,0.388-0.771,0.743c0,0.421,0.378,0.808,0.771,0.808
	C121.017,48.674,121.394,48.303,121.394,47.867z M118.145,47.867c0-0.372-0.394-0.743-0.804-0.743c-0.395,0-0.771,0.388-0.771,0.743
	c0,0.421,0.36,0.808,0.771,0.808C117.768,48.674,118.145,48.303,118.145,47.867z M104.159,52.328h0.229l0.491-1.295
	c0.23-0.548,0.395-0.611,2.856-0.611v7.046c0,0.808-0.033,1.229-0.132,1.455c-0.081,0.208-0.443,0.403-1.689,0.808v0.226
	c0.771-0.064,1.492-0.129,2.51-0.129s1.739,0.064,2.512,0.129V59.73c-1.248-0.404-1.593-0.6-1.69-0.808
	c-0.1-0.227-0.132-0.647-0.132-1.455v-7.046c2.461,0,2.625,0.063,2.855,0.611l0.492,1.295h0.229V49.58
	c-1.428,0.064-2.839,0.13-4.267,0.13s-2.839-0.065-4.266-0.13V52.328z M96.948,59.956c0.738-0.064,1.69-0.129,2.511-0.129
	c0.723,0,1.674,0.064,2.445,0.129V59.73l-1.264-0.421c-0.41-0.146-0.459-0.209-0.477-1.455c-0.016-0.969-0.049-1.955-0.049-2.924
	c0-0.97,0.033-1.956,0.049-2.925c0.033-1.521,0.05-1.633,0.361-1.746l1.379-0.453V49.58c-0.82,0.064-1.625,0.13-2.445,0.13
	c-0.918,0-1.723-0.065-2.511-0.13v0.227l1.379,0.453c0.312,0.113,0.328,0.226,0.361,1.746c0.016,0.969,0.047,1.955,0.047,2.925
	c0,0.969-0.031,1.955-0.047,2.924c-0.017,1.246-0.066,1.31-0.477,1.455l-1.264,0.421V59.956z M86.907,59.697
	c0.936,0.356,1.641,0.453,2.428,0.453c3.233,0,4.3-1.617,4.3-3.022c0-3.346-5.136-2.698-5.136-5.236c0-1.083,0.95-1.874,1.984-1.874
	c0.559,0,1.101,0.097,1.658,0.307l0.641,1.794h0.18l0.099-2.215c-0.688-0.308-1.739-0.518-2.429-0.518
	c-1.772,0-3.609,0.954-3.609,2.909c0,3.039,5.136,2.846,5.136,5.14c0,1.503-1.198,2.085-2.511,2.085
	c-0.41,0-1.182-0.095-1.674-0.371l-0.558-2.086h-0.229L86.907,59.697z M77.229,50.259c0.494,0,0.985-0.018,1.51-0.018
	c1.544,0,2.545,0.615,2.545,2.037c0,1.778-1.412,2.02-2.938,2.02h-1.117V50.259z M74.063,59.956c0.788-0.064,1.74-0.129,2.577-0.129
	c0.573,0,1.673,0.064,2.378,0.129V59.73l-1.313-0.437c-0.426-0.13-0.477-0.501-0.477-2.602v-1.859h1.266
	c1.017,1.311,2.477,3.379,3.527,5.123c0.41-0.032,0.82-0.064,1.214-0.064c0.378,0,0.771,0.032,1.149,0.064V59.73
	c-0.92-0.163-1.002-0.274-1.953-1.682l-2.265-3.329c1.509-0.243,2.691-1.018,2.691-2.65c0-1.615-1.411-2.489-3.578-2.489
	c-1.164,0-2.1,0.13-2.953,0.13c-0.885,0-1.657-0.065-2.264-0.13v0.227l1.379,0.453c0.361,0.113,0.409,0.226,0.409,1.746v5.849
	c0,1.246-0.065,1.31-0.524,1.455l-1.263,0.421V59.956z M63.818,57.854c0,1.246-0.066,1.31-0.525,1.455l-1.264,0.421v0.226
	c1.182-0.064,2.757-0.129,4.2-0.129c0.919,0,3.447,0.064,4.299,0.129v-1.228c0-0.469,0.066-0.954,0.099-1.423h-0.23
	c-0.295,0.954-0.476,1.47-0.672,1.714c-0.165,0.193-0.411,0.209-2.167,0.209c-0.738,0-1.509-0.048-2.281-0.064
	c-0.033-0.679-0.082-1.422-0.082-2.165v-2.197h1.707c1.986,0,2.167,0.031,2.314,0.387l0.426,1.228h0.23
	c-0.017-0.679-0.033-1.291-0.033-1.955c0-0.598,0.017-1.211,0.033-1.826h-0.23l-0.426,1.147c-0.147,0.356-0.328,0.39-2.314,0.39
	h-1.707v-1.989c0-0.68,0.049-1.276,0.082-1.843c0.607-0.016,1.362-0.032,2.313-0.032c1.888,0,2.019,0,2.183,0.452l0.427,1.213h0.23
	c-0.016-0.372-0.049-0.921-0.049-1.164c0-0.242,0.033-0.824,0.05-1.229c-1.444,0.064-2.987,0.13-4.545,0.13
	c-1.247,0-2.494-0.065-3.856-0.13v0.227l1.378,0.453c0.361,0.113,0.411,0.226,0.411,1.746V57.854z M84.268,35.74
	c0,1.438-0.075,1.512-0.598,1.68l-1.439,0.487v0.261c1.346-0.075,3.139-0.149,4.782-0.149c1.046,0,3.922,0.074,4.893,0.149v-1.42
	c0-0.541,0.075-1.101,0.112-1.644h-0.262c-0.336,1.103-0.54,1.699-0.766,1.979c-0.187,0.225-0.467,0.243-2.465,0.243
	c-0.84,0-1.717-0.056-2.596-0.075c-0.037-0.783-0.093-1.643-0.093-2.502v-2.54h1.941c2.259,0,2.466,0.037,2.634,0.448l0.485,1.419
	h0.263c-0.02-0.785-0.039-1.495-0.039-2.26c0-0.69,0.02-1.4,0.039-2.111h-0.263l-0.485,1.327c-0.168,0.411-0.375,0.449-2.634,0.449
	h-1.941v-2.298c0-0.785,0.056-1.476,0.093-2.13c0.69-0.018,1.551-0.036,2.632-0.036c2.149,0,2.299,0,2.486,0.522l0.484,1.401h0.262
	c-0.019-0.43-0.056-1.064-0.056-1.345c0-0.28,0.037-0.953,0.056-1.419c-1.644,0.075-3.398,0.149-5.174,0.149
	c-1.418,0-2.838-0.074-4.39-0.149v0.261l1.57,0.523c0.41,0.13,0.467,0.261,0.467,2.016V35.74z M67.505,38.167
	c0.896-0.075,1.979-0.149,2.933-0.149c0.654,0,1.904,0.074,2.708,0.149v-0.261l-1.494-0.506c-0.487-0.149-0.542-0.578-0.542-3.006
	V32.21h5.527v2.185c0,2.428-0.057,2.856-0.541,3.006l-1.495,0.506v0.261c0.803-0.075,2.054-0.149,2.708-0.149
	c0.952,0,2.037,0.074,2.932,0.149v-0.261l-1.437-0.487c-0.523-0.168-0.599-0.242-0.599-1.68v-6.762c0-1.755,0.056-1.886,0.469-2.016
	l1.566-0.523v-0.261c-0.951,0.075-1.867,0.149-2.743,0.149c-0.954,0-1.906-0.074-2.896-0.149v0.261l1.401,0.468
	c0.561,0.186,0.635,0.316,0.635,1.232v3.344H71.11v-3.344c0-0.916,0.074-1.046,0.634-1.232l1.402-0.468v-0.261
	c-0.99,0.075-1.943,0.149-2.896,0.149c-0.878,0-1.793-0.074-2.745-0.149v0.261l1.568,0.523c0.411,0.13,0.468,0.261,0.468,2.016
	v6.762c0,1.438-0.075,1.512-0.599,1.68l-1.437,0.487V38.167z M55.782,29.352h0.26l0.561-1.494c0.262-0.635,0.449-0.709,3.25-0.709
	v8.143c0,0.934-0.038,1.419-0.148,1.681c-0.095,0.243-0.505,0.466-1.924,0.935v0.261c0.877-0.075,1.698-0.149,2.857-0.149
	c1.158,0,1.979,0.074,2.857,0.149v-0.261c-1.418-0.469-1.811-0.691-1.924-0.935c-0.112-0.262-0.149-0.747-0.149-1.681v-8.143
	c2.801,0,2.988,0.074,3.25,0.709l0.559,1.494h0.261v-3.175c-1.625,0.075-3.23,0.149-4.855,0.149c-1.625,0-3.229-0.074-4.855-0.149
	V29.352z M45.201,35.74c0,1.438-0.075,1.512-0.598,1.68l-1.438,0.487v0.261c1.344-0.075,3.137-0.149,4.78-0.149
	c1.046,0,3.922,0.074,4.893,0.149v-1.42c0-0.541,0.074-1.101,0.111-1.644h-0.261c-0.335,1.103-0.541,1.699-0.765,1.979
	c-0.188,0.225-0.467,0.243-2.466,0.243c-0.84,0-1.717-0.056-2.595-0.075c-0.039-0.783-0.094-1.643-0.094-2.502v-2.54h1.942
	c2.259,0,2.463,0.037,2.632,0.448l0.486,1.419h0.262c-0.02-0.785-0.038-1.495-0.038-2.26c0-0.69,0.018-1.4,0.038-2.111h-0.262
	l-0.486,1.327c-0.169,0.411-0.373,0.449-2.632,0.449H46.77v-2.298c0-0.785,0.055-1.476,0.094-2.13
	c0.692-0.018,1.549-0.036,2.633-0.036c2.148,0,2.297,0,2.484,0.522l0.486,1.401h0.261c-0.019-0.43-0.057-1.064-0.057-1.345
	c0-0.28,0.038-0.953,0.057-1.419c-1.644,0.075-3.398,0.149-5.172,0.149c-1.422,0-2.841-0.074-4.39-0.149v0.261l1.568,0.523
	c0.41,0.13,0.467,0.261,0.467,2.016V35.74z M35.316,38.391c3.717,0,5.939-2.931,5.939-6.629c0-3.398-2.203-5.808-5.64-5.808
	c-3.772,0-6.106,2.614-6.106,6.33C29.509,35.31,31.433,38.391,35.316,38.391z M35.503,37.776c-2.726,0-4.09-2.542-4.09-6.387
	c0-2.653,1.401-4.819,3.997-4.819c3.082,0,3.942,2.969,3.942,6.089C39.352,35.198,38.342,37.776,35.503,37.776z M24.297,36.654
	c0,0.132-0.019,0.412-0.038,0.691c-0.655,0.225-1.363,0.319-2.148,0.319c-2.781,0-4.687-2.225-4.687-5.437
	c0-3.735,2.221-5.546,4.856-5.546c0.728,0,1.849,0.167,2.036,0.41c0.279,0.355,0.635,1.383,0.896,2.186h0.261
	c-0.02-0.542-0.038-1.083-0.038-1.625c0-0.466,0.018-0.952,0.038-1.438c-0.803-0.168-1.625-0.261-2.652-0.261
	c-3.307,0-7.302,2.166-7.302,6.443c0,3.511,2.615,5.995,6.872,5.995c1.251,0,2.801-0.299,3.511-0.522
	c-0.018-0.337-0.038-0.653-0.038-0.841v-2.876c0-0.393,0.057-0.579,0.392-0.747l1.177-0.56v-0.262
	c-0.821,0.038-1.643,0.149-2.483,0.149c-0.897,0-1.794-0.111-2.69-0.149v0.262l1.121,0.429c0.841,0.318,0.917,0.43,0.917,0.729
	V36.654z M52.613,71.491c0.507-0.036,0.976-0.071,1.455-0.071c0.576,0,0.986,0.035,1.513,0.071v-0.124l-0.752-0.233
	c-0.292-0.08-0.332-0.115-0.332-0.803v-1.688h0.86c1.181,0,1.288,0.018,1.375,0.214l0.254,0.679h0.136
	c-0.009-0.374-0.019-0.715-0.019-1.081c0-0.331,0.01-0.669,0.019-1.01h-0.136l-0.254,0.634c-0.087,0.197-0.194,0.216-1.375,0.216
	h-0.86v-1.002c0-0.356,0.029-0.714,0.049-1.07h2.041c0.273,0,0.391,0,0.498,0.268l0.234,0.652h0.137
	c-0.009-0.25-0.019-0.51-0.019-0.759c0-0.206,0.01-0.421,0.019-0.626c-0.791,0.036-1.591,0.072-2.392,0.072
	c-0.8,0-1.591-0.036-2.45-0.072v0.126l0.82,0.248c0.215,0.063,0.244,0.127,0.244,0.966v3.234c0,0.688-0.04,0.723-0.312,0.803
	l-0.752,0.233V71.491z M44.713,71.491c0.439-0.036,1.005-0.071,1.493-0.071c0.43,0,0.996,0.035,1.455,0.071v-0.124l-0.751-0.233
	c-0.244-0.08-0.273-0.115-0.283-0.803c-0.01-0.537-0.029-1.083-0.029-1.618s0.02-1.081,0.029-1.616
	c0.02-0.839,0.029-0.902,0.215-0.966l0.819-0.248v-0.126c-0.488,0.036-0.966,0.072-1.455,0.072c-0.546,0-1.024-0.036-1.493-0.072
	v0.126l0.82,0.248c0.186,0.063,0.196,0.127,0.215,0.966c0.01,0.535,0.029,1.081,0.029,1.616s-0.02,1.081-0.029,1.618
	c-0.01,0.688-0.04,0.723-0.283,0.803l-0.751,0.233V71.491z M48.745,71.491c0.419-0.036,0.839-0.071,1.269-0.071
	c0.478,0,0.966,0.035,1.436,0.071v-0.124c-0.244-0.055-0.508-0.152-0.606-0.197c-0.029-0.01-0.175-0.124-0.234-0.179l-2.87-2.796
	l2.313-1.85c0.38-0.303,0.801-0.401,1.064-0.463v-0.126c-0.361,0.036-0.722,0.072-1.083,0.072c-0.42,0-0.849-0.036-1.269-0.072
	v0.126c0.41,0.133,0.683,0.186,0.683,0.285c0,0.09-0.195,0.276-0.546,0.57l-2.06,1.716l2.46,2.448
	c0.088,0.089,0.166,0.144,0.166,0.214c0,0.063-0.176,0.107-0.723,0.251V71.491z M43.097,65.756
	c-0.449,0.036-0.888,0.072-1.328,0.072c-0.4,0-0.81-0.036-1.211-0.072v0.126l0.645,0.24c0.283,0.106,0.361,0.179,0.38,0.429
	c0.03,0.438,0.039,0.876,0.039,1.305v2.161L38.84,66.64c-0.234-0.286-0.439-0.572-0.625-0.884c-0.292,0.036-0.585,0.072-0.878,0.072
	c-0.312,0-0.625-0.036-0.937-0.072v0.126c0.312,0.088,0.615,0.186,0.917,0.312l0.127,0.179v1.769c0,1.144-0.068,2.475-0.107,2.761
	c-0.009,0.081-0.097,0.161-0.234,0.205l-0.742,0.26v0.124c0.419-0.036,0.829-0.071,1.25-0.071c0.43,0,0.869,0.035,1.298,0.071
	v-0.124l-0.645-0.188c-0.283-0.08-0.351-0.151-0.381-0.294c-0.029-0.17-0.048-1.931-0.048-3.109v-1l2.001,2.438
	c0.664,0.821,1.337,1.634,1.962,2.482h0.234c-0.019-1.018-0.019-2.046-0.019-2.411c0-0.519,0.078-2.099,0.107-2.823
	c0.009-0.16,0.107-0.25,0.322-0.321l0.654-0.215V65.756z M33.032,69.24h-2.197l1.123-2.367L33.032,69.24z M28.747,71.491
	c0.361-0.036,0.723-0.071,1.083-0.071c0.391,0,0.771,0.035,1.152,0.071v-0.124l-0.84-0.278c0.137-0.499,0.293-1.027,0.557-1.482
	c0.41-0.009,0.811-0.018,1.22-0.018c0.41,0,0.83,0.009,1.24,0.018c0.137,0.268,0.449,1.108,0.566,1.482
	c-0.293,0.108-0.712,0.224-0.957,0.278v0.124c0.439-0.036,0.869-0.071,1.309-0.071c0.518,0,1.025,0.035,1.542,0.071v-0.124
	l-0.82-0.26c-0.83-1.813-1.708-3.672-2.489-5.53h-0.215c-0.703,1.609-1.757,3.663-2.606,5.494c-0.234,0.117-0.507,0.216-0.742,0.296
	V71.491z M24.021,66.13c0.293,0,0.585-0.008,0.898-0.008c0.918,0,1.513,0.339,1.513,1.125c0,0.983-0.839,1.117-1.748,1.117h-0.664
	V66.13z M22.137,71.491c0.468-0.036,1.035-0.071,1.533-0.071c0.342,0,0.996,0.035,1.416,0.071v-0.124l-0.781-0.242
	c-0.253-0.071-0.283-0.277-0.283-1.438V68.66h0.751c0.605,0.723,1.474,1.866,2.099,2.831c0.245-0.018,0.489-0.036,0.723-0.036
	c0.224,0,0.458,0.019,0.683,0.036v-0.124c-0.546-0.09-0.595-0.152-1.161-0.931l-1.348-1.839c0.898-0.134,1.601-0.563,1.601-1.465
	c0-0.894-0.839-1.376-2.128-1.376c-0.693,0-1.25,0.072-1.758,0.072c-0.526,0-0.985-0.036-1.347-0.072v0.126l0.82,0.248
	c0.214,0.063,0.243,0.127,0.243,0.966v3.234c0,0.688-0.039,0.723-0.312,0.803l-0.751,0.233V71.491z M15.837,71.491
	c0.508-0.036,0.976-0.071,1.455-0.071c0.576,0,0.986,0.035,1.513,0.071v-0.124l-0.751-0.233c-0.293-0.08-0.333-0.115-0.333-0.803
	v-1.688h0.859c1.182,0,1.289,0.018,1.377,0.214l0.253,0.679h0.136c-0.01-0.374-0.02-0.715-0.02-1.081c0-0.331,0.01-0.669,0.02-1.01
	h-0.136l-0.253,0.634c-0.088,0.197-0.196,0.216-1.377,0.216h-0.859v-1.002c0-0.356,0.03-0.714,0.049-1.07h2.041
	c0.273,0,0.39,0,0.498,0.268l0.234,0.652h0.136c-0.009-0.25-0.019-0.51-0.019-0.759c0-0.206,0.009-0.421,0.019-0.626
	c-0.79,0.036-1.591,0.072-2.392,0.072c-0.8,0-1.591-0.036-2.45-0.072v0.126l0.82,0.248c0.214,0.063,0.244,0.127,0.244,0.966v3.234
	c0,0.688-0.039,0.723-0.312,0.803l-0.752,0.233V71.491z M49.983,49.806l0.459,0.16c0.525,0.179,0.64,0.228,0.902,0.825
	c1.034,2.344,2.708,6.417,3.774,9.358h0.377c1.509-4.04,2.806-7.225,3.839-9.438c0.263-0.549,0.493-0.728,1.198-0.905V49.58
	c-0.492,0.064-0.985,0.13-1.494,0.13c-0.624,0-1.247-0.065-1.87-0.13v0.227c0.722,0.228,1.23,0.403,1.23,0.581
	c0,0.179-0.066,0.356-0.164,0.646c-0.574,1.796-1.494,4.123-2.495,6.482c-0.771-1.713-2.871-6.739-2.871-7.079
	c0-0.177,0.147-0.258,0.902-0.47l0.574-0.16V49.58c-0.689,0.064-1.395,0.13-2.084,0.13c-0.755,0-1.526-0.065-2.281-0.13V49.806z
	 M43.102,59.956c0.738-0.064,1.69-0.129,2.51-0.129c0.723,0,1.674,0.064,2.445,0.129V59.73l-1.264-0.421
	c-0.41-0.146-0.459-0.209-0.476-1.455c-0.017-0.969-0.049-1.955-0.049-2.924c0-0.97,0.032-1.956,0.049-2.925
	c0.033-1.521,0.049-1.633,0.361-1.746l1.378-0.453V49.58c-0.82,0.064-1.625,0.13-2.445,0.13c-0.918,0-1.723-0.065-2.51-0.13v0.227
	l1.378,0.453c0.312,0.113,0.328,0.226,0.361,1.746c0.016,0.969,0.049,1.955,0.049,2.925c0,0.969-0.033,1.955-0.049,2.924
	c-0.017,1.246-0.066,1.31-0.477,1.455l-1.263,0.421V59.956z M40.159,49.58c-0.755,0.064-1.493,0.13-2.231,0.13
	c-0.673,0-1.362-0.065-2.035-0.13v0.227l1.083,0.436c0.476,0.194,0.607,0.324,0.64,0.776c0.049,0.792,0.066,1.584,0.066,2.359v3.911
	l-0.033,0.033l-4.644-6.143c-0.394-0.516-0.739-1.034-1.05-1.6c-0.492,0.064-0.984,0.13-1.477,0.13c-0.525,0-1.051-0.065-1.576-0.13
	v0.227c0.525,0.16,1.034,0.339,1.542,0.566l0.213,0.322v3.2c0,2.069-0.115,4.478-0.18,4.994c-0.017,0.146-0.165,0.291-0.394,0.371
	l-1.248,0.47v0.226c0.707-0.064,1.395-0.129,2.101-0.129c0.722,0,1.461,0.064,2.183,0.129V59.73l-1.083-0.34
	c-0.476-0.146-0.591-0.275-0.64-0.533c-0.049-0.306-0.082-3.491-0.082-5.625v-1.809h0.033l3.331,4.411
	c1.116,1.487,2.249,2.958,3.298,4.494h0.394c-0.033-1.844-0.033-3.701-0.033-4.364c0-0.938,0.131-3.799,0.18-5.107
	c0.017-0.291,0.181-0.453,0.542-0.582l1.099-0.387V49.58z M27.059,49.58c-0.657,0.064-1.297,0.13-1.92,0.13
	c-0.722,0-1.428-0.065-2.133-0.13v0.227l0.902,0.275c0.443,0.145,0.689,0.274,0.722,0.564c0.131,1.116,0.148,3.687,0.148,5.674
	c0,1.939-1.034,2.989-2.756,2.989c-2.609,0-3.085-1.357-3.085-3.427c0-2.488,0-3.877,0.049-4.831c0.033-0.566,0.164-0.63,1.067-0.97
	l0.755-0.275V49.58c-0.87,0.064-1.723,0.13-2.593,0.13c-0.771,0-1.542-0.065-2.347-0.13v0.227l1.182,0.453
	c0.459,0.177,0.509,0.5,0.509,1.858v4.542c0,2.471,1.657,3.49,4.037,3.49c2.445,0,4.004-1.165,4.036-4.299
	c0.034-2.877,0-4.202,0.034-5.107c0.016-0.34,0.246-0.484,0.672-0.662l0.723-0.275V49.58z M108.015,30.409
	c0.007,0.022,0.122,0.603,0.122,0.697s0.206,0.459,0.31,0.671c0.231,0.467,0.537,0.984,0.867,1.395
	c0.388,0.486,1.157,1.105,1.672,1.441c0.681,0.438,1.567,0.672,2.271,0.677c0.113,0,0.25,0.029,0.412,0.078
	c0.056,0.07,0.097,0.139,0.097,0.234c0,0.552-1.756,2.699-2.36,2.699c-0.326,0-0.748-0.372-1.033-0.559
	c-0.887-0.576-1.803-1.584-2.336-2.472c-0.283-0.478-0.919-1.526-0.919-2.031c0-0.094,0.038-0.34,0.038-0.434
	c0-0.095,0.34-1.228,0.34-1.322c0-0.095,0.377-1.02,0.377-1.115L108.015,30.409z M105.379,35.96c0.227,0,0.645,0.773,0.738,0.925
	c0.076,0.123,0.822,1.2,1.021,1.54c0.42,0.713,1.603,2.225,1.602,2.318c0,0,0.073,0.193-0.001,0.265
	c-0.034,0.033-0.017,0.052-0.111,0.052c-0.094,0-0.364,0.021-0.596-0.205c-0.187-0.184-2.842-4.22-2.842-4.668
	C105.191,36.092,105.286,35.96,105.379,35.96z M107.539,35.625c0.059-0.034,0.174-0.002,0.174-0.002
	c0.809,1.062,1.571,2.298,2.705,2.842c0.218,0.103,0.482,0.217,0.646,0.381c0.228,0.231,0.775,1.118,0.775,1.458
	c0,0.331-0.367,0.341-0.472,0.341c-0.203,0-0.783-0.285-0.953-0.371c-1.715-0.888-2.475-2.916-2.919-4.369
	C107.496,35.905,107.442,35.678,107.539,35.625z M102.181,24.141c0.104-0.003,0.235-0.012,0.36,0.047
	c0.147,0.204,0.001,0.614,0.299,0.807c0.072,0.013,0.145,0.05,0.238,0.05c0.426,0,0.794-0.68,0.851-0.68
	c0.095,0,0.27,0.114,0.433,0.158c0,0,0.029,0.072,0,0.196c-0.027,0.11-0.816,1.085-0.953,1.178
	c-0.062,0.042-0.185,0.104-0.303,0.151c-0.143,0.062-0.348,0.091-0.442,0.091c-0.453,0-0.756-0.623-0.756-0.907
	C101.908,24.908,102.038,24.452,102.181,24.141z M114.147,36.984c0.289,0.08,0.358,0.671,0.358,0.869
	c0,0.325-0.274,1.378-0.755,1.378c-0.096,0-0.228-0.094-0.321-0.094c-0.227,0-0.699,0.473-0.699,0.623
	c0,0.293,0.538,0.342,0.927,0.396c0.202,0.028,0.521,0.002,0.521,0.002c0.382-0.298,0.267-0.885,0.65-1.235
	c0.074-0.035,0.147-0.051,0.295-0.085h0.127c0.015,0.013,0.464,0.706,0.464,0.886c0,0.822-1.97,1.266-2.323,1.266
	c-0.893,0-1.341-1.483-1.341-1.965c0-0.43,0.193-0.718,0.585-0.718c0.095,0,0.718,0.227,0.813,0.227
	c0.354,0,0.453-0.388,0.453-0.585c0-0.095-0.081-0.397-0.075-0.491C113.839,37.204,113.979,36.983,114.147,36.984z M120.207,36.307
	c0.113,0.004,0.088,0.236,0.088,0.313c0.013,0.457,0.013,0.217-0.011,0.527c-0.007,0.518-0.359,1.17-0.581,1.551
	c-0.213,0.368-1.438,2.254-2.23,2.254c-0.449,0-1.04-0.7-1.04-1.002c0-0.222,0.312-0.32,0.505-0.373
	c0.194-0.051,0.39-0.112,0.564-0.187c0.974-0.44,1.683-1.414,2.207-2.284c0.12-0.2,0.223-0.688,0.327-0.747
	C120.095,36.324,120.127,36.304,120.207,36.307z M119.741,31.431c0.117,0.042,0.158,0.05,0.19,0.204
	c0.167,0.785,0.355,2.347,0.355,2.44c0,0.436-0.377,1.215-0.585,1.563c-0.278,0.463-0.81,1.206-1.272,1.553
	c-0.088,0.066-1.515,1.027-2.091,1.077c-0.41,0.037-1.081-0.623-1.252-0.875c-0.241-0.353-0.418-0.73-0.593-1.061
	c-0.123-0.231-0.328-0.595-0.328-0.689c0-0.142,0.162-0.26,0.242-0.274c0.038-0.004,0.926-0.149,1.242-0.286
	c1.441-0.623,3.333-1.727,3.854-3.375C119.536,31.6,119.61,31.509,119.741,31.431z M115.412,27.255c0,0.303-0.236,0.548-0.51,0.548
	c-0.095,0-0.098,0-0.133-0.041c-0.043-0.051,0.004-0.172,0.004-0.172c-0.004-0.094,0.149-0.26,0.148-0.354
	c-0.003-0.171-0.037-0.281-0.068-0.638C115.258,26.757,115.412,26.873,115.412,27.255z M116.791,22.288
	c0.218,0,0.354,0.208,0.36,0.359c0.004,0.15-0.208,0.321-0.303,0.321c-0.175,0-0.298-0.225-0.303-0.378
	C116.543,22.515,116.655,22.288,116.791,22.288z M110.008,22.25c0.257,0,0.266,0.231,0.266,0.302c0,0.175-0.132,0.377-0.283,0.377
	c-0.273,0-0.321-0.217-0.321-0.34C109.669,22.363,109.789,22.25,110.008,22.25z M117.168,21.041c0.096,0,0.183,0.071,0.305,0.085
	c0.321,0.038,0.924,0.35,0.924,0.765c0,0.095-0.04,0.273-0.13,0.435c-0.167-0.156-0.354-0.382-0.575-0.567h-0.102
	c-0.03,0.033-0.063-0.018-0.063,0.077s0.036,0.124,0.075,0.211c-0.043,0.048-0.038,0.091-0.131,0.091
	c-0.058,0-0.454-0.188-0.682-0.188c-0.396,0-0.907,0.302-1.02,0.302c-0.095,0-0.17-0.113-0.17-0.208c0-0.454,0.719-0.34,0.719-0.681
	c0-0.174,0.457-0.246,0.471-0.246C116.886,21.116,117.075,21.041,117.168,21.041z M109.121,20.776c0.313-0.024,0.451-0.016,0.57,0
	c0.398,0.095,1.188,0.43,1.188,0.945c0,0.094-0.019,0.188-0.113,0.188c-0.094,0-0.345-0.264-0.439-0.265h-0.253
	c-0.03,0.033-0.025-0.018-0.025,0.077c0,0.094,0.076,0.094,0.076,0.188c0,0.095-0.038,0.095-0.045,0.147
	c-0.402-0.052-0.612,0.047-1.081,0.152c-0.007-0.128-0.007-0.241-0.007-0.347c-0.033-0.032-0.02-0.026-0.114-0.026
	c-0.303,0-0.528,0.566-0.831,0.566c-0.227,0-0.34-0.208-0.34-0.34c0-0.406,0.483-0.981,0.879-1.16
	C108.727,20.839,108.929,20.815,109.121,20.776z M109.614,20.323c0.305,0.038,0.339,0,0.379,0c0.303,0.038,0.678,0.059,0.951,0.201
	c0.473,0.241,1.177,0.68,1.578,1.166c0.066,0.081,0.208,0.665,0.208,0.844c0,0.094-0.265,1.144-0.265,1.454
	c0,0.223,0.189,1.096,0.189,1.19c0,0.193,0.024,0.516-0.163,0.772c-0.166-0.022-0.744-0.947-0.744-1.283
	c0-0.496,0.453-0.576,0.453-1.247c0-0.123-0.022-0.227-0.15-0.227c-0.095,0-0.497,0.454-0.591,0.453c0,0-0.203,0.063-0.303-0.001
	c-0.041-0.027-0.09-0.092-0.09-0.092c0.159-0.261,0.454-0.615,0.454-0.833c0-0.15-0.399-0.448-0.506-0.434
	c-0.229,0.075-0.056,0.399-0.074,0.55c-0.048,0.34-0.496,0.81-0.836,0.81c-0.166,0-0.59-0.186-0.686-0.285
	c-0.396-0.419-0.203-0.48-0.203-0.849c0-0.095-0.038-0.057-0.032-0.119c-0.024,0.005-0.024-0.032-0.119-0.032
	c-0.25,0-0.491,0.397-0.491,0.548c0,0.288,0.188,0.652,0.603,0.748c-0.122,0.262-0.211,0.291-0.395,0.291
	c-0.713,0-0.628-0.945-0.943-0.945c-0.096,0-0.189,0.076-0.284,0.076s-0.277-0.175-0.362-0.245c-0.154-0.128-0.129-0.271-0.129-0.36
	C107.063,21.168,108.129,20.413,109.614,20.323z M121.684,19.756c0.377,0,0.982,0.529,0.982,0.907c0,0.104-0.107,0.245-0.169,0.25
	c-0.679,0.071-1.04,0.765-1.04,1.242c0,0.525,0.35,0.932,0.931,1.197c0.123,0.057,0.318,0.078,0.413,0.078s0.385-0.092,0.592-0.21
	c0.335-0.198,0.508-0.827,0.927-0.664c0.321,0.419,0.424,0.719,0.424,1.073c0,0.566-1.261,0.774-1.417,0.774
	c-0.595,0-1.444-0.365-1.97-0.989c-0.217-0.26-0.407-0.592-0.543-0.887c-0.154-0.334-0.264-0.754-0.264-0.995
	C120.55,21.107,121.032,19.756,121.684,19.756z M119.701,15.412c0.094,0,0.486,0.152,0.722,0.212
	c0.956,0.247,1.346,1.377,1.535,2.108c0.021,0.085,0.051,0.19,0.051,0.285s-0.004,0.206-0.045,0.364c0,0-0.015,0.09-0.11,0.09
	c-0.227,0-0.43-0.177-0.694-0.498c-0.33-0.406-0.501-0.931-0.808-1.361c-0.18-0.246-0.444-0.472-0.665-0.668
	c-0.066-0.061-0.296-0.208-0.307-0.344c-0.006-0.078,0.01-0.118,0.04-0.143C119.481,15.409,119.606,15.412,119.701,15.412z
	 M111.729,13.862c1.02,0,1.615,0.605,2.55,0.605c0.095,0,1.604-0.151,1.7-0.151c0.613,0,1.506,0.786,1.61,1.528
	c0.019,0.146,0.052,0.342,0.052,0.437c0,0.094-0.188,1.152-0.188,1.247c0,0.978,1.095,1.634,1.095,2.494
	c0,0.246-0.125,0.67-0.316,0.83c-0.131-0.028-0.413-0.256-0.503-0.293c-0.294-0.137-0.88-0.272-0.975-0.272
	c-0.935,0-2.107,0.604-2.622,1.09c-0.255,0.24-0.306,0.973-0.306,1.251c0,0.675,0.34,1.299,0.34,1.946
	c0,0.094-0.114,1.329-0.127,1.362c0.014,0.071,0.014,0.186,0.022,0.302c-0.01,0.042-0.009-0.001-0.009,0.093s0.188,0.756,0.188,0.85
	c0,0.454-0.277,0.813-0.754,0.813c-0.227,0-0.491-0.189-0.491-0.416c0-0.241-0.19-0.626-0.331-0.711
	c-0.062-0.038-0.104-0.044-0.198-0.044s-0.424,0.413-0.66,0.567c-0.193-0.102-0.127-0.331-0.32-0.331
	c-0.265,0-0.266,0.307-0.266,0.331c0,0.331,0.424,0.755,0.773,0.755c0.096,0,0.607-0.236,0.702-0.236
	c0.283,0,0.445,0.517,0.493,0.564c0.084,0.09,0.222,0.145,0.316,0.145s0.321-0.253,0.415-0.253c0.317,0,0.492,0.066,0.877,0.14
	c0.158,0.03,0.329,0.049,0.458-0.172c0.081-0.139,0.069-0.151,0.146-0.253c0.095-0.081,0.148-0.146,0.263-0.188
	c0.117-0.047,0.466-0.498,0.466-0.655c0-0.769-0.566-0.528-0.566-1.374v-0.576c0-0.095-0.227-1.053-0.227-1.148
	c0-0.335,0.604-0.023,0.604-0.416c0-0.151-0.643-0.505-0.643-0.718c0-0.269,0.604-0.537,0.705-0.565
	c0.1,0.129,0.051,0.084,0.051,0.207c0,0.358,0.14,0.775,0.655,0.931c0.043,0.013,0.214,0.033,0.309,0.033s0.305-0.091,0.441-0.2
	c0.227-0.179,0.395-0.661,0.344-0.921c0,0-0.029-0.051,0.064-0.051c0.227,0,0.491,0.298,0.491,0.397c0,0.288-0.469,0.93-0.732,0.987
	c-0.265,0.057-0.526,0.088-0.781,0.195c-0.07,0.096,0,0.133,0,0.133c0.178,0.11,0.306,0.079,0.306,0.234
	c0,0.095-0.189,0.265-0.189,0.359c0,0.278,0.203,0.34,0.303,0.34c0.33,0,1.13-0.499,1.31-0.896c0.08-0.175,0.05-0.54,0.05-0.635
	c0-0.161,0.198-0.483,0.248-0.508c0.136-0.069,0.36,0.098,0.417,0.314c0.047,0.189,0.091,0.553,0.091,0.647
	c0,0.689-0.374,1.198-0.341,1.888c0.034,0.605-0.037,1.021-0.037,1.116c0,0.095-0.096,0.52-0.166,0.779
	c-0.029,0.104-1.379,2.696-1.897,2.696h-0.449c-0.094,0-0.103-0.067-0.154-0.119c-0.063-0.062-0.105-0.203-0.105-0.316
	s0.034-0.226,0.002-0.334c-0.038-0.118-0.177-0.327-0.271-0.327c-0.387,0-0.613,0.303-0.831,0.303c-0.213,0-0.595-0.454-0.981-0.454
	c-0.478,0-0.591,0.604-0.925,0.604c-0.412,0-0.455-0.642-0.983-0.642c-0.448,0-0.393,0.453-0.926,0.453
	c-0.094,0-0.432-0.249-0.526-0.249c-0.378,0-0.426,0.576-0.455,0.643c0.067,0.027,0.094,0.137,0.188,0.137
	c0.096,0,0.389-0.275,0.483-0.275s0.546,0.454,0.695,0.458c0.169,0.004,0.788-0.286,0.883-0.286c0.094,0,0.502,0.196,0.597,0.196
	c0.41,0,0.79-0.321,1.14-0.321c0.278,0,0.756,0.193,0.756,0.491c0,0.543-0.534,0.755-0.889,0.755c-0.094,0-1.114-0.264-1.208-0.264
	c-0.198,0-1.039,0.051-1.039,0.377c0,0.227,0.562,0.383,0.661,0.377c0.203-0.01,0.868-0.151,0.963-0.151
	c0.529,0,1.398,0.127,1.398,0.907c0,0.892-0.921,1.247-1.536,1.247h-1.473c-0.973-0.019-3.483-2.499-3.703-2.686
	c0,0-0.392-0.545-0.392-0.64c0-0.094-0.201-0.428-0.291-0.654c-0.057-0.142-0.128-0.266-0.189-0.456
	c-0.035-0.107-0.362-1.138-0.429-1.667c-0.032-0.256,0.123-0.752-0.09-0.813c-0.196,0.069-0.346,0.567-0.606,0.567
	c-0.094,0-0.421-0.159-0.458-0.21c-0.067-0.085-0.164-0.254-0.193-0.409c-0.047-0.26-0.085-0.74-0.085-0.834
	c0-1.011,0.755-0.441,0.83-1.512l-0.112-3.57c0-0.855,0.638-1.526,0.879-2.479c0.042-0.18-0.01-0.524-0.01-0.619
	c0-2.05,1.037-3.547,3.115-3.693C110.703,13.99,111.634,13.862,111.729,13.862z M118.756,10.954c0.094,0,0.149,0.016,0.232,0.077
	c0.045,0.041,0.056,0.063,0.053,0.11c-0.002,0.044-0.012,0.074-0.053,0.099c-0.378,0.121-1.271,1.322-1.348,1.546
	c-0.077,0.227-0.15,0.548-0.15,0.642c0,0.156,0.07,0.321,0.207,0.321c0.095,0,0.416-0.141,0.601-0.18
	c0.341-0.071,0.93-0.161,1.023-0.161c0.605,0,1.606,0.557,1.606,1.133c0,0.095-0.004,0.225-0.085,0.337
	c-0.077,0.108-0.278-0.194-0.394-0.253c-0.171-0.086-0.485-0.159-0.579-0.159c-0.916,0-1.024,0.604-1.662,0.604
	c-0.284,0-0.483-0.017-0.78-0.385c-0.151-0.185-0.093-0.509-0.214-0.76c-0.063-0.127-0.258-0.223-0.353-0.335
	c-0.09-0.108-0.188-0.272-0.23-0.423c-0.028-0.108-0.056-0.256-0.018-0.413c0.133-0.559,0.299-0.896,0.731-1.221
	C117.473,11.438,118.458,10.954,118.756,10.954z M109.103,10.5c0.095,0,0.246,0.038,0.34,0.038c0.095,0,0.544,0.191,0.747,0.314
	c0.169,0.104,0.352,0.272,0.563,0.353c0.278,0.108,0.806,0.202,0.899,0.202c0.166,0,1.157-0.188,1.171-0.188
	c0.388,0,1.243,0.551,1.513,0.914c0.09,0.123,0.131,0.389,0.131,0.483c0,0.095-0.037,0.359-0.037,0.454
	c0,0.175-0.228,0.453-0.397,0.453c-0.207,0-0.452-0.804-0.52-0.875c-0.344-0.387-1.421-0.938-1.974-0.938
	c-0.047,0-0.396,0.023-0.396,0.226c0,0.425,1.096,0.596,1.096,1.021c0,0.137-0.227,0.227-0.302,0.227
	c-0.26,0-0.924-0.549-1.046-0.597c-0.368-0.146-0.79-0.235-1.166-0.31c-0.456-0.011-0.527,0-0.563,0
	c-0.649,0.169-1.182,0.759-1.603,1.352c-0.105,0.15-0.101,0.499-0.194,0.499c-0.095,0-0.473-0.113-0.566-0.113
	c-0.804,0-1.111,0.557-1.111,1.266c0,0.198-0.099,0.423-0.23,0.579c-0.099,0.118-0.378,0.271-0.473,0.271
	c-0.273,0-0.453-0.208-0.453-0.358c0-0.095,0.012-0.17,0.038-0.265c0.025-0.091,0.235-0.494,0.391-0.692
	c0.672-0.85,1.598-1.606,2.603-2.135c0.167-0.085,0.433-0.072,0.607-0.152c0.094-0.042,0.781-0.502,0.781-0.724
	c0-0.095-0.175-0.248-0.285-0.285c0,0-1.123,0.05-1.22,0.033c-0.018-0.015-0.044-0.051-0.044-0.146c0-0.179,0.238-0.278,0.346-0.359
	C108.041,10.821,108.8,10.5,109.103,10.5z M133.209,44.09H15.702l0.059-0.948l78.483,0.097c0.076-4.543,5.039-5.287,10.294-8.044
	l-0.044-0.118c-0.044-0.535-1.941-3.166-1.964-3.816c-0.043-1.238,2.998-2.861,3.021-3.173c-0.219-0.29-0.44-0.582-0.633-0.891
	c-0.219-0.011-1.05,0.872-2.124,0.872c-2.695,0-2.592-3.217-1.474-4.892c-1.542-3.102,0.259-3.05,0.15-3.854
	c-0.109-0.82-0.343-1.442-0.34-2.314c0,0-0.019-0.47,0.05-0.641c0.314-0.791,0.983-0.536,0.971-1.503
	c-0.021-1.645,1.385-2.324,2.618-2.979c0.233-0.124,0.03-1.53,1.32-2.242c1.507-0.831,3.519-1.532,4.996-0.39
	c1.333-0.658,3.063-0.853,4.532-0.944c1.092-0.068,1.578,0.417,2.178,1.225l0.148,0.245c1.063-0.714,1.75-0.436,2.171,0.646
	c1.767-1.312,4.793,2.058,3.684,4.458l0.063,0.138c1.41,0.364,1.583,3.246,1.674,4.339c0.075,0.881-0.439,1.552-0.489,2.304
	c-0.008,0.096,0.148,0.2,0.209,0.25c0.651,0.543,0.826,0.645,1.036,1.488c0.219,0.878,0.172,2.056-0.396,2.83
	c-1.171,1.601-2.03,0.978-3.547,0.551c-0.151,0.206-0.607,0.817-0.629,1.039c4.604,2.363,3.727,2.077,1.798,6.505
	c-0.049,0.112-0.398,0.898-0.399,0.956c-0.002,0.056,0.115,0.11,0.15,0.132c0.833,0.483,6.569,2.729,8.252,4.192
	c1.435,1.246,1.659,3.117,1.693,3.631L133.209,44.09z"/>
</svg>
