<?xml version="1.0" encoding="utf-8"?>
<!-- Generator: Adobe Illustrator 16.0.0, SVG Export Plug-In . SVG Version: 6.00 Build 0)  -->
<!DOCTYPE svg PUBLIC "-//W3C//DTD SVG 1.1//EN" "http://www.w3.org/Graphics/SVG/1.1/DTD/svg11.dtd">
<svg version="1.1" id="Ebene_1" xmlns="http://www.w3.org/2000/svg" xmlns:xlink="http://www.w3.org/1999/xlink" x="0px" y="0px"
	 width="238.562px" height="97.587px" viewBox="0 0 238.562 97.587" enable-background="new 0 0 238.562 97.587"
	 xml:space="preserve">
<g>
	<path fill="#B9CC34" d="M60.708,54.637c-9.624,0-17.452-7.863-17.452-17.53s7.829-17.53,17.452-17.53
		c9.624,0,17.452,7.864,17.452,17.53S70.332,54.637,60.708,54.637 M60.708,26.445c-5.853,0-10.615,4.783-10.615,10.662
		c0,5.879,4.762,10.661,10.615,10.661c5.854,0,10.615-4.782,10.615-10.661C71.323,31.228,66.562,26.445,60.708,26.445"/>
	<path fill="#CBCBCB" d="M64.491,81.596h-8.33c-4.375,0-7.281-3.035-8.308-4.826l-4.17-7.273c-0.263-0.459-0.478-0.922-0.649-1.383
		h3.798l3.639-6.33l-0.862,1.504c-0.002,0.01-0.751,1.471,0,2.781l4.17,7.273c0.007,0.008,0.886,1.385,2.382,1.385h8.285
		c0.182-0.01,1.708-0.133,2.425-1.383l3.928-6.85c0.017-0.035,0.988-1.904,0-3.629l-3.927-6.852
		c-0.006-0.006-0.884-1.381-2.38-1.381h-3.434c3.933-0.078,7.552-1.469,10.438-3.754c0.576,0.604,1.013,1.205,1.302,1.709
		l3.927,6.85c2.374,4.137,1.117,8.539,0,10.484l-3.927,6.848C70.616,80.578,66.549,81.596,64.491,81.596 M44.575,58.307l3.28-5.719
		c0.064-0.113,0.131-0.223,0.198-0.332L44.575,58.307 M53.883,55.85l1.229-2.137c1.652,0.563,3.416,0.883,5.247,0.92h-4.197
		C56.152,54.635,54.666,54.707,53.883,55.85 M60.708,47.768c-0.089,0-0.178-0.001-0.266-0.003h0.532
		C60.886,47.767,60.797,47.768,60.708,47.768"/>
	<path fill="#86970F" d="M61.058,54.633h-0.699c-1.831-0.037-3.594-0.357-5.247-0.92l1.443-2.511l-1.892-3.292
		c0.562-0.103,1.073-0.146,1.499-0.146h4.281c0.088,0.002,0.177,0.003,0.266,0.003s0.178-0.001,0.266-0.003h3.517
		c3.145,0,5.53,1.567,7.004,3.114C68.61,53.164,64.991,54.555,61.058,54.633"/>
	<path fill="#0A7485" d="M43.034,68.113H27.388l-7.75-13.48h-7.752v-6.868h7.756l7.747-13.479h16.094
		c-0.148,0.918-0.226,1.86-0.226,2.82c0,5.372,2.418,10.187,6.218,13.405c-0.517,0.496-0.999,1.074-1.421,1.744l0.606-1.054
		l-5.775-10.047H31.335l-5.775,10.047l5.775,10.044h11.549l1.69-2.939l-0.892,1.555C42.781,61.436,41.781,64.754,43.034,68.113
		 M50.471,61.783l3.308-5.77c0.033-0.057,0.067-0.111,0.104-0.164L50.471,61.783"/>
	<path fill="#006124" d="M49.474,50.512c-3.8-3.218-6.218-8.033-6.218-13.405c0-0.96,0.077-1.902,0.226-2.82h3.351l7.831,13.624
		C53.085,48.198,51.103,48.949,49.474,50.512"/>
	<path fill="#005562" d="M46.832,68.113h-3.798c-1.253-3.359-0.253-6.678,0.648-8.252l0.892-1.555l3.478-6.051
		c0.422-0.67,0.904-1.248,1.421-1.744c1.647,1.396,3.555,2.49,5.638,3.201l-1.229,2.137c-0.036,0.053-0.07,0.107-0.104,0.164
		l-3.308,5.77L46.832,68.113"/>
	<path fill="#004E1B" d="M55.112,53.713c-2.083-0.711-3.991-1.805-5.638-3.201c1.629-1.563,3.611-2.314,5.189-2.601l1.892,3.292
		L55.112,53.713"/>
	<path fill="#B9CC34" d="M68.233,29.594c-0.009-0.001-0.014-0.002-0.014-0.002s0-0.004-0.001-0.014
		C68.223,29.583,68.228,29.588,68.233,29.594 M75.516,27.838c-1.404-2.255-3.304-4.168-5.545-5.583
		c0.515-0.858,1.173-1.729,2.014-2.573c3.385-3.399,7.191-3.835,8.921-3.835c0.597,0,0.947,0.052,0.947,0.052
		s0.786,5.34-3.767,9.913C77.242,26.657,76.373,27.32,75.516,27.838"/>
	<path fill="#6DA82E" d="M69.168,29.644c-0.53,0-0.866-0.041-0.936-0.05c-0.005-0.005-0.01-0.01-0.015-0.016
		c-0.033-0.243-0.439-3.671,1.753-7.324c2.242,1.416,4.142,3.328,5.545,5.583C72.936,29.398,70.468,29.644,69.168,29.644"/>
	<g>
		<path fill="#5A5A5A" d="M100.135,36.463h-1.729v-6.23h-5.618v6.23h-1.729v-13h1.729v5.402h5.618v-5.402h1.729V36.463z"/>
		<path fill="#5A5A5A" d="M109.463,35.725c-0.564,0.564-1.362,0.846-2.395,0.846h-1.152c-1.032,0-1.813-0.264-2.341-0.792
			c-0.672-0.672-1.008-2.167-1.008-4.483c0-2.317,0.336-3.811,1.008-4.483c0.528-0.528,1.296-0.792,2.305-0.792h0.036h1.152
			c1.032,0,1.813,0.264,2.341,0.792c0.744,0.744,1.08,2.317,1.008,4.717l-0.072,2.521C110.321,34.603,110.027,35.161,109.463,35.725
			z M108.347,28.108c-0.252-0.528-0.72-0.792-1.404-0.792h-0.918c-0.672,0-1.14,0.264-1.404,0.792
			c-0.24,0.492-0.36,1.645-0.36,3.457c0,1.417,0.12,2.389,0.36,2.917c0.24,0.528,0.714,0.792,1.422,0.792h0.9
			c0.66,0,1.128-0.264,1.404-0.792c0.252-0.48,0.378-1.453,0.378-2.917C108.725,29.789,108.599,28.637,108.347,28.108z"/>
		<path fill="#5A5A5A" d="M116.666,27.316h-0.846h-0.019c-0.672,0-1.134,0.261-1.386,0.783c-0.252,0.522-0.378,1.53-0.378,3.025
			c0,1.494,0.12,2.56,0.36,3.196s0.708,0.954,1.404,0.954h0.864c0.504,0,0.903-0.069,1.197-0.207s0.615-0.357,0.964-0.657
			l0.864,0.937c-0.337,0.456-0.744,0.774-1.225,0.954s-1.11,0.27-1.891,0.27h-0.954c-0.984,0-1.741-0.264-2.269-0.792
			c-0.672-0.672-1.008-2.167-1.008-4.483c0-2.317,0.336-3.811,1.008-4.483c0.528-0.528,1.309-0.792,2.341-0.792h0.018h0.918
			c1.057,0,1.849,0.18,2.377,0.541c0.264,0.192,0.498,0.444,0.702,0.756l-1.099,0.9C118.154,27.616,117.507,27.316,116.666,27.316z"
			/>
		<path fill="#5A5A5A" d="M128.946,36.463h-1.621v-6.176c0-0.768-0.018-1.309-0.054-1.621c-0.084-0.9-0.594-1.35-1.53-1.35h-1.081
			c-0.576,0-0.983,0.192-1.224,0.576c-0.181,0.288-0.271,1.098-0.271,2.431v6.14h-1.639V22.274h1.639v4.286l0.414-0.252
			c0.324-0.192,0.769-0.288,1.333-0.288h0.99c1.044,0,1.813,0.264,2.305,0.792s0.738,1.386,0.738,2.575V36.463z"/>
		<path fill="#5A5A5A" d="M138.166,34.032v0.018c0,0.768-0.252,1.38-0.757,1.836c-0.504,0.456-1.23,0.684-2.179,0.684h-0.99
			c-0.768,0-1.38-0.093-1.836-0.279s-0.858-0.507-1.207-0.963l1.026-0.918c0.301,0.336,0.592,0.564,0.873,0.685
			c0.282,0.12,0.651,0.18,1.107,0.18h0.937c0.42,0,0.771-0.126,1.054-0.378s0.423-0.606,0.423-1.063
			c0-0.816-0.145-1.332-0.432-1.548c-0.145-0.108-0.307-0.18-0.486-0.216l-2.647-0.684c-0.647-0.156-1.092-0.384-1.332-0.684
			c-0.264-0.312-0.396-0.792-0.396-1.44v-0.684c0-0.792,0.243-1.417,0.729-1.873s1.203-0.685,2.151-0.685h0.721
			c0.744,0,1.351,0.09,1.818,0.271c0.468,0.18,0.882,0.498,1.242,0.954l-1.044,0.9c-0.288-0.312-0.576-0.528-0.864-0.648
			s-0.66-0.18-1.116-0.18h-0.666c-0.396,0-0.732,0.096-1.009,0.288c-0.276,0.192-0.414,0.456-0.414,0.792
			c0,0.432,0.018,0.735,0.054,0.909c0.036,0.174,0.069,0.288,0.1,0.342c0.029,0.054,0.104,0.135,0.225,0.243
			c0.12,0.12,0.288,0.21,0.504,0.27l2.665,0.648c0.66,0.168,1.11,0.408,1.351,0.72c0.264,0.336,0.396,0.924,0.396,1.765V34.032z"/>
		<path fill="#5A5A5A" d="M144.415,27.316h-0.847h-0.018c-0.673,0-1.135,0.261-1.387,0.783c-0.252,0.522-0.378,1.53-0.378,3.025
			c0,1.494,0.12,2.56,0.36,3.196c0.239,0.636,0.708,0.954,1.404,0.954h0.864c0.504,0,0.903-0.069,1.197-0.207
			s0.615-0.357,0.963-0.657l0.864,0.937c-0.336,0.456-0.744,0.774-1.225,0.954c-0.479,0.18-1.11,0.27-1.891,0.27h-0.954
			c-0.984,0-1.74-0.264-2.269-0.792c-0.672-0.672-1.008-2.167-1.008-4.483c0-2.317,0.336-3.811,1.008-4.483
			c0.528-0.528,1.309-0.792,2.341-0.792h0.018h0.919c1.056,0,1.849,0.18,2.377,0.541c0.264,0.192,0.498,0.444,0.702,0.756
			l-1.099,0.9C145.903,27.616,145.255,27.316,144.415,27.316z"/>
		<path fill="#5A5A5A" d="M156.695,36.463h-1.621v-6.176c0-0.768-0.018-1.309-0.054-1.621c-0.084-0.9-0.595-1.35-1.53-1.35h-1.08
			c-0.576,0-0.984,0.192-1.225,0.576c-0.181,0.288-0.271,1.098-0.271,2.431v6.14h-1.639V22.274h1.639v4.286l0.414-0.252
			c0.324-0.192,0.769-0.288,1.333-0.288h0.99c1.044,0,1.813,0.264,2.305,0.792s0.738,1.386,0.738,2.575V36.463z"/>
		<path fill="#5A5A5A" d="M165.933,35.779c-0.492,0.528-1.261,0.792-2.305,0.792h-1.225c-1.044,0-1.813-0.264-2.305-0.792
			c-0.492-0.528-0.738-1.38-0.738-2.557v-7.094h1.639v6.194c0,0.768,0.012,1.308,0.036,1.621c0.084,0.888,0.594,1.332,1.53,1.332
			h0.9c0.937,0,1.446-0.444,1.53-1.332c0.024-0.313,0.036-0.853,0.036-1.621v-6.194h1.639v7.094
			C166.671,34.398,166.425,35.25,165.933,35.779z"/>
		<path fill="#5A5A5A" d="M172.434,36.463h-0.522c-0.936,0-1.596-0.192-1.98-0.576c-0.384-0.384-0.576-1.044-0.576-1.98V22.274
			h1.639V33.15c0,0.432,0.019,0.801,0.054,1.107c0.036,0.306,0.133,0.549,0.288,0.729l0.181,0.144
			c0.107,0.096,0.384,0.144,0.828,0.144h0.09V36.463z"/>
		<path fill="#5A5A5A" d="M180.753,34.374l1.08,0.9c-0.433,0.576-0.889,0.937-1.368,1.081c-0.48,0.144-1.045,0.216-1.692,0.216
			h-1.297c-1.008,0-1.776-0.264-2.305-0.792c-0.672-0.672-1.008-2.257-1.008-4.753c0-2.137,0.336-3.541,1.008-4.213
			c0.528-0.528,1.32-0.792,2.377-0.792h0.018h1.063c2.137,0,3.205,1.093,3.205,3.277c0,0.96-0.117,1.596-0.352,1.908
			c-0.233,0.313-0.801,0.468-1.701,0.468h-3.907l0.019,0.829c0,0.804,0.107,1.458,0.323,1.962c0.24,0.54,0.715,0.81,1.423,0.81
			h1.152C179.643,35.274,180.297,34.975,180.753,34.374z M180.213,29.188c0-0.6-0.145-1.068-0.433-1.404
			c-0.264-0.312-0.696-0.468-1.296-0.468h-0.864c-0.673,0-1.141,0.27-1.405,0.81c-0.216,0.444-0.323,1.134-0.323,2.071v0.27h3.637
			c0.348,0,0.564-0.138,0.648-0.415c0.023-0.132,0.036-0.312,0.036-0.54V29.188z"/>
	</g>
	<g>
		<path fill="#5A5A5A" d="M100.743,58.275c-0.846,0.254-1.696,0.38-2.549,0.38h-2.083c-1.852,0-3.226-0.44-4.123-1.323
			c-0.521-0.521-0.93-1.266-1.226-2.235c-0.297-0.969-0.445-2.44-0.445-4.415s0.148-3.443,0.445-4.405
			c0.296-0.962,0.705-1.703,1.226-2.224c0.896-0.882,2.271-1.323,4.123-1.323h1.627c1.866,0,3.168,0.311,3.906,0.933
			c0.419,0.376,0.796,0.912,1.128,1.606l-2.062,1.454c-0.361-0.651-0.745-1.07-1.15-1.258c-0.405-0.188-0.998-0.282-1.779-0.282
			h-1.909c-1.056,0-1.761,0.373-2.116,1.117c-0.354,0.745-0.532,2.21-0.532,4.394c0,2.185,0.177,3.652,0.532,4.404
			c0.354,0.753,1.06,1.129,2.116,1.129h2.256c0.882,0,1.526-0.188,1.931-0.564v-3.276H97.13v-2.3h5.663v7.139
			C102.273,57.672,101.589,58.022,100.743,58.275z"/>
		<path fill="#5A5A5A" d="M114.056,58.396c-0.55,0.173-1.295,0.26-2.235,0.26h-1.801c-1.461,0-2.539-0.347-3.233-1.041
			c-0.882-0.868-1.323-2.637-1.323-5.306c0-2.668,0.441-4.437,1.323-5.305c0.694-0.709,1.808-1.063,3.342-1.063h1.519
			c1.504,0,2.615,0.358,3.331,1.074c0.716,0.716,1.075,1.739,1.075,3.07s-0.17,2.217-0.51,2.658c-0.34,0.44-1.103,0.661-2.289,0.661
			h-5.056c0.043,1.042,0.181,1.809,0.412,2.301c0.231,0.491,0.774,0.737,1.627,0.737h1.627c0.738,0,1.273-0.116,1.605-0.347
			c0.333-0.232,0.622-0.536,0.868-0.912l1.823,1.52C115.524,57.6,114.823,58.164,114.056,58.396z M113.427,50.106
			c0-0.68-0.145-1.171-0.434-1.476c-0.289-0.304-0.803-0.456-1.541-0.456h-1.237c-0.853,0-1.399,0.25-1.638,0.749
			c-0.238,0.499-0.365,1.291-0.379,2.376h4.687c0.231,0,0.38-0.047,0.445-0.142c0.065-0.094,0.098-0.321,0.098-0.683V50.106z"/>
		<path fill="#5A5A5A" d="M118.157,58.525v-2.083h2.582v-7.681c0-0.246-0.032-0.405-0.098-0.477
			c-0.064-0.073-0.213-0.109-0.444-0.109h-1.541v-2.083h2.8c0.737,0,1.243,0.17,1.519,0.51c0.274,0.34,0.412,0.871,0.412,1.595
			v8.245h2.17v2.083H118.157z M122.812,44.476c-0.311,0.311-0.684,0.466-1.117,0.466s-0.807-0.155-1.117-0.466
			c-0.312-0.311-0.467-0.68-0.467-1.107s0.155-0.795,0.467-1.106c0.311-0.311,0.684-0.466,1.117-0.466s0.807,0.155,1.117,0.466
			c0.312,0.311,0.467,0.68,0.467,1.106S123.123,44.165,122.812,44.476z"/>
		<path fill="#5A5A5A" d="M136.156,57.733c-0.672,0.615-1.695,0.922-3.07,0.922h-1.432c-1.114,0-1.989-0.13-2.626-0.391
			c-0.636-0.26-1.207-0.759-1.714-1.497l1.736-1.54c0.028,0.058,0.058,0.101,0.087,0.13c0.028,0.029,0.05,0.058,0.064,0.087
			c0.348,0.391,0.68,0.654,0.998,0.792s0.781,0.206,1.389,0.206h1.367c0.535,0,0.947-0.127,1.237-0.38
			c0.289-0.253,0.434-0.597,0.434-1.03c0-0.651-0.13-1.078-0.391-1.28c-0.145-0.087-0.318-0.152-0.521-0.195l-3.775-0.803
			c-0.839-0.188-1.447-0.507-1.823-0.955s-0.563-1.092-0.563-1.932v-0.52c0-1.042,0.332-1.87,0.998-2.485
			c0.665-0.615,1.678-0.922,3.037-0.922h1.042c1.143,0,2.039,0.126,2.69,0.38c0.65,0.253,1.229,0.741,1.735,1.464l-1.735,1.541
			c-0.029-0.043-0.058-0.079-0.087-0.108s-0.051-0.058-0.065-0.086c-0.332-0.391-0.672-0.648-1.02-0.771
			c-0.347-0.123-0.832-0.185-1.454-0.185h-0.976c-0.564,0-0.977,0.087-1.237,0.261c-0.261,0.173-0.391,0.423-0.391,0.749
			s0.015,0.561,0.044,0.705c0.072,0.361,0.361,0.593,0.867,0.694l3.775,0.803c0.854,0.188,1.465,0.518,1.834,0.987
			s0.553,1.139,0.553,2.007v0.868C137.165,56.29,136.829,57.118,136.156,57.733z"/>
		<path fill="#5A5A5A" d="M148.08,58.396c-0.549,0.173-1.294,0.26-2.234,0.26h-1.801c-1.461,0-2.539-0.347-3.233-1.041
			c-0.882-0.868-1.323-2.637-1.323-5.306c0-2.668,0.441-4.437,1.323-5.305c0.694-0.709,1.809-1.063,3.342-1.063h1.519
			c1.505,0,2.615,0.358,3.331,1.074c0.716,0.716,1.074,1.739,1.074,3.07s-0.17,2.217-0.511,2.658
			c-0.34,0.44-1.103,0.661-2.289,0.661h-5.056c0.044,1.042,0.182,1.809,0.413,2.301c0.231,0.491,0.773,0.737,1.627,0.737h1.627
			c0.738,0,1.273-0.116,1.606-0.347c0.332-0.232,0.621-0.536,0.867-0.912l1.823,1.52C149.549,57.6,148.848,58.164,148.08,58.396z
			 M147.451,50.106c0-0.68-0.145-1.171-0.434-1.476c-0.29-0.304-0.803-0.456-1.541-0.456h-1.236c-0.854,0-1.399,0.25-1.639,0.749
			c-0.238,0.499-0.365,1.291-0.38,2.376h4.688c0.231,0,0.379-0.047,0.444-0.142c0.065-0.094,0.098-0.321,0.098-0.683V50.106z"/>
		<path fill="#5A5A5A" d="M160.406,58.525v-7.117c0-0.911-0.015-1.537-0.043-1.877c-0.029-0.34-0.108-0.618-0.239-0.835
			c-0.231-0.347-0.745-0.521-1.54-0.521h-1.367c-0.796,0-1.302,0.174-1.519,0.521c-0.131,0.217-0.21,0.495-0.239,0.835
			c-0.028,0.34-0.043,0.966-0.043,1.877v7.117h-2.647v-8.201c0-1.505,0.329-2.612,0.987-3.32c0.658-0.709,1.726-1.063,3.2-1.063
			h1.888c1.49,0,2.564,0.354,3.223,1.063c0.658,0.708,0.987,1.815,0.987,3.32v8.201H160.406z"/>
		<path fill="#5A5A5A" d="M173.882,58.525v-7.117c0-0.911-0.015-1.537-0.043-1.877c-0.029-0.34-0.108-0.618-0.239-0.835
			c-0.231-0.347-0.737-0.521-1.519-0.521h-1.519c-0.694,0-1.146,0.163-1.356,0.488c-0.21,0.326-0.314,1.254-0.314,2.788v7.074
			h-2.647V41.427h2.647v4.926c0.434-0.275,1.113-0.413,2.039-0.413h1.389c1.49,0,2.564,0.354,3.223,1.063
			c0.658,0.708,0.987,1.815,0.987,3.32v8.201H173.882z"/>
		<path fill="#5A5A5A" d="M187.434,58.396c-0.549,0.173-1.294,0.26-2.234,0.26h-1.801c-1.461,0-2.539-0.347-3.233-1.041
			c-0.882-0.868-1.323-2.637-1.323-5.306c0-2.668,0.441-4.437,1.323-5.305c0.694-0.709,1.809-1.063,3.342-1.063h1.519
			c1.505,0,2.615,0.358,3.331,1.074c0.716,0.716,1.074,1.739,1.074,3.07s-0.17,2.217-0.511,2.658
			c-0.34,0.44-1.103,0.661-2.289,0.661h-5.056c0.044,1.042,0.182,1.809,0.413,2.301c0.231,0.491,0.773,0.737,1.627,0.737h1.627
			c0.738,0,1.273-0.116,1.606-0.347c0.332-0.232,0.621-0.536,0.867-0.912l1.823,1.52C188.902,57.6,188.201,58.164,187.434,58.396z
			 M186.805,50.106c0-0.68-0.145-1.171-0.434-1.476c-0.29-0.304-0.803-0.456-1.541-0.456h-1.236c-0.854,0-1.399,0.25-1.639,0.749
			c-0.238,0.499-0.365,1.291-0.38,2.376h4.688c0.231,0,0.379-0.047,0.444-0.142c0.065-0.094,0.098-0.321,0.098-0.683V50.106z"/>
		<path fill="#5A5A5A" d="M191.535,58.525v-2.083h2.582v-7.681c0-0.246-0.032-0.405-0.098-0.477
			c-0.064-0.073-0.213-0.109-0.444-0.109h-1.541v-2.083h2.8c0.737,0,1.243,0.17,1.519,0.51c0.274,0.34,0.412,0.871,0.412,1.595
			v8.245h2.17v2.083H191.535z M196.189,44.476c-0.311,0.311-0.684,0.466-1.117,0.466s-0.807-0.155-1.117-0.466
			c-0.312-0.311-0.467-0.68-0.467-1.107s0.155-0.795,0.467-1.106c0.311-0.311,0.684-0.466,1.117-0.466s0.807,0.155,1.117,0.466
			c0.312,0.311,0.467,0.68,0.467,1.106S196.501,44.165,196.189,44.476z"/>
		<path fill="#5A5A5A" d="M216.337,58.525v-7.117c0-0.911-0.015-1.537-0.044-1.877c-0.028-0.34-0.108-0.618-0.238-0.835
			c-0.231-0.347-0.745-0.521-1.541-0.521h-1.41c-0.694,0-1.149,0.163-1.367,0.488c-0.217,0.326-0.325,1.248-0.325,2.766v7.096
			h-2.646V51.43c0-1.012-0.012-1.674-0.033-1.984c-0.021-0.312-0.09-0.561-0.206-0.749c-0.246-0.347-0.737-0.521-1.476-0.521h-1.41
			c-0.796,0-1.302,0.174-1.519,0.521c-0.131,0.217-0.21,0.495-0.239,0.835c-0.028,0.34-0.043,0.966-0.043,1.877v7.117h-2.647v-8.201
			c0-1.505,0.329-2.612,0.987-3.32c0.658-0.709,1.726-1.063,3.2-1.063h1.628c1.663,0,2.712,0.326,3.146,0.977
			c0.535-0.651,1.533-0.977,2.994-0.977h1.627c1.49,0,2.564,0.354,3.223,1.063c0.658,0.708,0.987,1.815,0.987,3.32v8.201H216.337z"
			/>
	</g>
	<g>
		<path fill="#5A5A5A" d="M92.753,73.635c0,1.164,0.222,1.962,0.666,2.395c0.444,0.408,1.201,0.612,2.269,0.612
			c1.044,0,1.771-0.301,2.178-0.9c0.313-0.456,0.468-1.183,0.468-2.179V65.01h1.729v8.984c0,1.309-0.33,2.323-0.99,3.043
			c-0.312,0.36-0.741,0.631-1.287,0.811c-0.546,0.18-1.083,0.271-1.612,0.271h-1.26c-0.552,0-1.098-0.091-1.639-0.271
			c-0.54-0.18-0.966-0.45-1.278-0.811c-0.648-0.72-0.972-1.716-0.972-2.988V65.01h1.729v8.553V73.635z"/>
		<path fill="#5A5A5A" d="M110.237,78.01h-1.621v-6.176c0-0.769-0.018-1.309-0.054-1.62c-0.084-0.9-0.606-1.351-1.566-1.351h-0.955
			c-0.948,0-1.464,0.45-1.548,1.351c-0.024,0.312-0.036,0.852-0.036,1.62v6.176h-1.638v-7.076c0-1.188,0.246-2.047,0.738-2.574
			c0.492-0.528,1.266-0.793,2.323-0.793h1.314c1.044,0,1.813,0.265,2.305,0.793c0.492,0.527,0.738,1.386,0.738,2.574V78.01z"/>
		<path fill="#5A5A5A" d="M118.017,78.01h-5.6v-1.188h2.143v-7.184c0-0.301-0.048-0.486-0.144-0.559
			c-0.132-0.144-0.324-0.216-0.576-0.216h-1.008v-1.188h2.053c0.516,0,0.864,0.114,1.044,0.342c0.18,0.229,0.27,0.606,0.27,1.135
			v7.67h1.819V78.01z M115.802,65.893c-0.204,0.204-0.447,0.306-0.729,0.306s-0.525-0.102-0.729-0.306s-0.306-0.447-0.306-0.729
			s0.102-0.525,0.306-0.729s0.447-0.306,0.729-0.306s0.525,0.102,0.729,0.306s0.306,0.447,0.306,0.729
			S116.006,65.688,115.802,65.893z"/>
		<path fill="#5A5A5A" d="M126.659,67.675c-0.024,2.4-0.223,4.099-0.595,5.096c-0.035,0.084-0.479,0.99-1.332,2.719l-1.278,2.521
			h-1.044l-1.261-2.521l-1.332-2.701c-0.385-1.021-0.583-2.725-0.595-5.113h1.639c0.012,1.681,0.135,3.061,0.369,4.142
			c0.234,1.08,0.436,1.83,0.604,2.25s0.468,1.099,0.9,2.035l0.216,0.468l0.198-0.468l0.899-2.035c0.492-1.236,0.793-2.568,0.9-3.997
			c0.036-0.564,0.066-1.362,0.091-2.395H126.659z"/>
		<path fill="#5A5A5A" d="M134.889,75.921l1.08,0.9c-0.432,0.576-0.889,0.937-1.368,1.08c-0.48,0.145-1.045,0.217-1.692,0.217
			h-1.297c-1.008,0-1.776-0.265-2.305-0.793c-0.672-0.672-1.008-2.256-1.008-4.753c0-2.137,0.336-3.541,1.008-4.213
			c0.528-0.528,1.32-0.793,2.377-0.793h0.018h1.063c2.137,0,3.205,1.093,3.205,3.277c0,0.96-0.117,1.597-0.352,1.908
			c-0.233,0.313-0.801,0.469-1.701,0.469h-3.907l0.019,0.828c0,0.804,0.107,1.458,0.324,1.962c0.239,0.541,0.714,0.811,1.422,0.811
			h1.152C133.778,76.821,134.433,76.521,134.889,75.921z M134.349,70.735c0-0.6-0.145-1.068-0.433-1.404
			c-0.264-0.312-0.696-0.468-1.296-0.468h-0.864c-0.673,0-1.141,0.27-1.404,0.81c-0.217,0.444-0.324,1.135-0.324,2.071v0.27h3.637
			c0.348,0,0.564-0.138,0.648-0.414c0.023-0.132,0.036-0.312,0.036-0.54V70.735z"/>
		<path fill="#5A5A5A" d="M142.775,68.863h-1.188c-0.654,0-1.009,0.191-1.062,0.576c-0.084,0.52-0.127,1.324-0.127,2.412v4.97h1.549
			v1.188h-4.646v-1.188h1.459v-5.888c0-1.286,0.216-2.156,0.647-2.61c0.312-0.505,0.978-0.757,1.999-0.757h1.368V68.863z"/>
		<path fill="#5A5A5A" d="M151.365,75.579v0.018c0,0.769-0.252,1.381-0.757,1.837c-0.504,0.456-1.23,0.685-2.179,0.685h-0.99
			c-0.768,0-1.38-0.094-1.836-0.279c-0.456-0.187-0.858-0.507-1.207-0.964l1.026-0.918c0.301,0.336,0.592,0.564,0.873,0.685
			c0.282,0.12,0.651,0.18,1.107,0.18h0.937c0.42,0,0.771-0.126,1.054-0.378s0.423-0.606,0.423-1.063
			c0-0.816-0.145-1.332-0.432-1.549c-0.145-0.107-0.307-0.18-0.486-0.216l-2.647-0.684c-0.647-0.156-1.092-0.385-1.332-0.685
			c-0.264-0.313-0.396-0.792-0.396-1.44v-0.685c0-0.792,0.243-1.416,0.729-1.872s1.203-0.685,2.151-0.685h0.721
			c0.744,0,1.351,0.09,1.818,0.271c0.468,0.18,0.882,0.498,1.242,0.954l-1.044,0.9c-0.288-0.313-0.576-0.528-0.864-0.648
			s-0.66-0.18-1.116-0.18h-0.666c-0.396,0-0.732,0.096-1.009,0.288c-0.276,0.191-0.414,0.456-0.414,0.792
			c0,0.432,0.018,0.735,0.054,0.909s0.069,0.288,0.1,0.342c0.029,0.055,0.104,0.136,0.225,0.243c0.12,0.12,0.288,0.21,0.504,0.271
			l2.665,0.648c0.66,0.168,1.11,0.408,1.351,0.72c0.264,0.336,0.396,0.925,0.396,1.765V75.579z"/>
		<path fill="#5A5A5A" d="M158.767,78.01h-5.6v-1.188h2.143v-7.184c0-0.301-0.049-0.486-0.145-0.559
			c-0.132-0.144-0.324-0.216-0.576-0.216h-1.008v-1.188h2.052c0.517,0,0.865,0.114,1.045,0.342c0.18,0.229,0.27,0.606,0.27,1.135
			v7.67h1.819V78.01z M156.552,65.893c-0.204,0.204-0.447,0.306-0.729,0.306s-0.525-0.102-0.729-0.306s-0.306-0.447-0.306-0.729
			s0.102-0.525,0.306-0.729s0.447-0.306,0.729-0.306s0.525,0.102,0.729,0.306s0.306,0.447,0.306,0.729
			S156.756,65.688,156.552,65.893z"/>
		<path fill="#5A5A5A" d="M165.339,78.118h-1.243c-1.08,0-1.866-0.265-2.358-0.793c-0.492-0.527-0.738-1.38-0.738-2.557v-5.905
			h-1.261v-1.188h1.261V65.01h1.656v2.665h2.233v1.188h-2.233v4.969c0,1.309,0.091,2.113,0.271,2.413
			c0.252,0.384,0.714,0.576,1.387,0.576h1.026V78.118z"/>
		<g>
			<path fill="#5A5A5A" d="M173.698,81.08c-0.492,0.534-1.236,0.801-2.233,0.801h-3.043v-1.278h2.863c0.564,0,0.954-0.15,1.17-0.45
				c0.217-0.3,0.324-1.038,0.324-2.215v-0.486l-0.396,0.234c-0.36,0.216-0.841,0.324-1.44,0.324h-0.847
				c-1.044,0-1.813-0.276-2.305-0.828c-0.492-0.553-0.738-1.452-0.738-2.701v-6.806h1.639v5.617c0,0.769,0.012,1.309,0.036,1.621
				c0.084,0.888,0.594,1.332,1.53,1.332h1.026c0.564,0,0.954-0.162,1.17-0.486c0.217-0.324,0.324-1.152,0.324-2.484v-5.6h1.657
				v10.839C174.437,79.69,174.19,80.546,173.698,81.08z"/>
		</g>
	</g>
</g>
</svg>
