<?xml version="1.0" encoding="utf-8"?>
<!-- Generator: Adobe Illustrator 16.0.0, SVG Export Plug-In . SVG Version: 6.00 Build 0)  -->
<!DOCTYPE svg PUBLIC "-//W3C//DTD SVG 1.1//EN" "http://www.w3.org/Graphics/SVG/1.1/DTD/svg11.dtd">
<svg version="1.1" id="Ebene_1" xmlns="http://www.w3.org/2000/svg" xmlns:xlink="http://www.w3.org/1999/xlink" x="0px" y="0px"
	 width="238.562px" height="97.587px" viewBox="0 0 238.562 97.587" enable-background="new 0 0 238.562 97.587"
	 xml:space="preserve">
<g>
	<path fill="#1D1D1B" d="M78.085,25.81c4.553-4.572,3.767-9.913,3.767-9.913s-0.35-0.052-0.947-0.052
		c-1.73,0-5.537,0.436-8.921,3.835c-0.84,0.845-1.499,1.715-2.014,2.573c-0.003,0.005-0.006,0.011-0.009,0.016
		c-2.687-1.697-5.853-2.694-9.254-2.694c-8.666,0-15.855,6.383-17.205,14.71h-0.021H27.388l-7.747,13.479h-7.756v6.868h7.752
		l7.75,13.48h15.646c0.172,0.461,0.386,0.924,0.649,1.383l4.17,7.273c1.027,1.791,3.932,4.826,8.308,4.826h8.33
		c2.058,0,6.125-1.018,8.306-4.826l3.927-6.848c1.117-1.945,2.374-6.348,0-10.484l-3.927-6.85c-0.289-0.504-0.726-1.105-1.302-1.709
		c-0.003-0.004-0.007-0.007-0.011-0.011c4.058-3.212,6.676-8.181,6.676-13.762c0-3.401-0.985-6.569-2.661-9.26
		c0.005-0.003,0.011-0.006,0.017-0.009C76.373,27.319,77.242,26.656,78.085,25.81z M60.708,26.444c2.931,0,5.587,1.199,7.51,3.135
		c0.001,0.007,0.001,0.012,0.001,0.012s0.005,0,0.011,0.001c1.91,1.929,3.092,4.585,3.092,7.514c0,5.859-4.73,10.626-10.557,10.658
		H60.65c-5.826-0.032-10.557-4.799-10.557-10.658C50.093,31.227,54.855,26.444,60.708,26.444z M25.561,51.202l5.775-10.048h11.549
		l5.775,10.048l-0.606,1.054c-0.067,0.109-0.134,0.219-0.198,0.332l-3.28,5.719l-1.69,2.939H31.335L25.561,51.202z M70.799,66.494
		l-3.928,6.85c-0.716,1.25-2.243,1.373-2.425,1.383h-8.285c-1.496,0-2.375-1.377-2.382-1.385l-4.17-7.273
		c-0.751-1.311-0.002-2.771,0-2.781l0.862-1.504l3.412-5.934c0.783-1.143,2.27-1.215,2.278-1.217h4.197h0.273
		c0.026,0,0.051,0.004,0.077,0.004s0.051-0.004,0.077-0.004h0.273h3.434c1.496,0,2.374,1.375,2.38,1.381l3.927,6.852
		C71.787,64.59,70.815,66.459,70.799,66.494z"/>
	<polygon fill="#1D1D1B" points="92.789,30.232 98.407,30.232 98.407,36.462 100.135,36.462 100.135,23.462 98.407,23.462 
		98.407,28.864 92.789,28.864 92.789,23.462 91.061,23.462 91.061,36.462 92.789,36.462 	"/>
	<path fill="#1D1D1B" d="M105.916,36.57h1.152c1.032,0,1.831-0.282,2.395-0.846c0.564-0.564,0.858-1.122,0.882-1.674l0.072-2.521
		c0.072-2.4-0.264-3.973-1.008-4.717c-0.528-0.528-1.309-0.792-2.341-0.792h-1.152h-0.036c-1.008,0-1.776,0.264-2.305,0.792
		c-0.672,0.672-1.008,2.167-1.008,4.483c0,2.316,0.336,3.811,1.008,4.483C104.104,36.306,104.884,36.57,105.916,36.57z
		 M104.62,28.108c0.264-0.528,0.732-0.792,1.404-0.792h0.918c0.684,0,1.152,0.264,1.404,0.792s0.378,1.681,0.378,3.457
		c0,1.464-0.126,2.437-0.378,2.917c-0.276,0.528-0.744,0.792-1.404,0.792h-0.9c-0.708,0-1.182-0.264-1.422-0.792
		c-0.24-0.528-0.36-1.5-0.36-2.917C104.26,29.752,104.379,28.6,104.62,28.108z"/>
	<path fill="#1D1D1B" d="M115.622,36.57h0.954c0.78,0,1.41-0.09,1.891-0.27s0.888-0.498,1.225-0.954l-0.864-0.937
		c-0.349,0.3-0.67,0.519-0.964,0.657s-0.693,0.207-1.197,0.207h-0.864c-0.696,0-1.164-0.318-1.404-0.954s-0.36-1.702-0.36-3.196
		c0-1.495,0.126-2.503,0.378-3.025c0.252-0.522,0.714-0.783,1.386-0.783h0.019h0.846c0.841,0,1.488,0.3,1.944,0.9l1.099-0.9
		c-0.204-0.313-0.438-0.564-0.702-0.756c-0.528-0.36-1.32-0.541-2.377-0.541h-0.918h-0.018c-1.032,0-1.813,0.264-2.341,0.792
		c-0.672,0.672-1.008,2.167-1.008,4.483c0,2.316,0.336,3.811,1.008,4.483C113.881,36.306,114.638,36.57,115.622,36.57z"/>
	<path fill="#1D1D1B" d="M127.325,36.462h1.621v-7.076c0-1.188-0.246-2.046-0.738-2.575s-1.261-0.792-2.305-0.792h-0.99
		c-0.564,0-1.009,0.096-1.333,0.288l-0.414,0.252v-4.286h-1.639v14.188h1.639v-6.14c0-1.333,0.09-2.143,0.271-2.431
		c0.24-0.384,0.647-0.576,1.224-0.576h1.081c0.937,0,1.446,0.45,1.53,1.35c0.036,0.312,0.054,0.853,0.054,1.621V36.462z"/>
	<path fill="#1D1D1B" d="M135.141,35.274h-0.937c-0.456,0-0.825-0.06-1.107-0.18c-0.281-0.12-0.572-0.348-0.873-0.685l-1.026,0.918
		c0.349,0.456,0.751,0.777,1.207,0.963s1.068,0.279,1.836,0.279h0.99c0.948,0,1.675-0.228,2.179-0.684
		c0.505-0.456,0.757-1.068,0.757-1.836v-0.018v-0.738c0-0.84-0.133-1.428-0.396-1.765c-0.24-0.312-0.69-0.552-1.351-0.72
		l-2.665-0.648c-0.216-0.06-0.384-0.15-0.504-0.27c-0.12-0.108-0.195-0.189-0.225-0.243c-0.03-0.054-0.063-0.168-0.1-0.342
		c-0.036-0.174-0.054-0.477-0.054-0.909c0-0.336,0.138-0.6,0.414-0.792c0.276-0.192,0.612-0.288,1.009-0.288h0.666
		c0.456,0,0.828,0.06,1.116,0.18s0.576,0.336,0.864,0.648l1.044-0.9c-0.36-0.456-0.774-0.774-1.242-0.954
		c-0.468-0.18-1.074-0.271-1.818-0.271h-0.721c-0.948,0-1.665,0.229-2.151,0.685s-0.729,1.08-0.729,1.873v0.684
		c0,0.648,0.133,1.128,0.396,1.44c0.24,0.3,0.685,0.528,1.332,0.684l2.647,0.684c0.18,0.036,0.342,0.108,0.486,0.216
		c0.287,0.216,0.432,0.732,0.432,1.548c0,0.456-0.141,0.811-0.423,1.063S135.561,35.274,135.141,35.274z"/>
	<path fill="#1D1D1B" d="M143.37,36.57h0.954c0.78,0,1.411-0.09,1.891-0.27c0.48-0.18,0.889-0.498,1.225-0.954l-0.864-0.937
		c-0.348,0.3-0.669,0.519-0.963,0.657s-0.693,0.207-1.197,0.207h-0.864c-0.696,0-1.165-0.318-1.404-0.954
		c-0.24-0.636-0.36-1.702-0.36-3.196c0-1.495,0.126-2.503,0.378-3.025c0.252-0.522,0.714-0.783,1.387-0.783h0.018h0.847
		c0.84,0,1.488,0.3,1.944,0.9l1.099-0.9c-0.204-0.313-0.438-0.564-0.702-0.756c-0.528-0.36-1.321-0.541-2.377-0.541h-0.919h-0.018
		c-1.032,0-1.813,0.264-2.341,0.792c-0.672,0.672-1.008,2.167-1.008,4.483c0,2.316,0.336,3.811,1.008,4.483
		C141.63,36.306,142.386,36.57,143.37,36.57z"/>
	<path fill="#1D1D1B" d="M155.021,28.666c0.036,0.312,0.054,0.853,0.054,1.621v6.176h1.621v-7.076c0-1.188-0.246-2.046-0.738-2.575
		s-1.261-0.792-2.305-0.792h-0.99c-0.564,0-1.009,0.096-1.333,0.288l-0.414,0.252v-4.286h-1.639v14.188h1.639v-6.14
		c0-1.333,0.09-2.143,0.271-2.431c0.24-0.384,0.648-0.576,1.225-0.576h1.08C154.426,27.316,154.937,27.766,155.021,28.666z"/>
	<path fill="#1D1D1B" d="M166.671,26.127h-1.639v6.194c0,0.768-0.012,1.308-0.036,1.621c-0.084,0.888-0.594,1.332-1.53,1.332h-0.9
		c-0.937,0-1.446-0.444-1.53-1.332c-0.024-0.313-0.036-0.853-0.036-1.621v-6.194h-1.639v7.094c0,1.177,0.246,2.029,0.738,2.557
		c0.492,0.528,1.261,0.792,2.305,0.792h1.225c1.044,0,1.813-0.264,2.305-0.792c0.492-0.528,0.738-1.38,0.738-2.557V26.127z"/>
	<path fill="#1D1D1B" d="M171.911,36.462h0.522v-1.188h-0.09c-0.444,0-0.721-0.048-0.828-0.144l-0.181-0.144
		c-0.155-0.18-0.252-0.423-0.288-0.729c-0.035-0.306-0.054-0.675-0.054-1.107V22.274h-1.639v11.632c0,0.936,0.192,1.596,0.576,1.98
		C170.315,36.271,170.976,36.462,171.911,36.462z"/>
	<path fill="#1D1D1B" d="M181.833,35.274l-1.08-0.9c-0.456,0.601-1.11,0.9-1.963,0.9h-1.152c-0.708,0-1.183-0.27-1.423-0.81
		c-0.216-0.504-0.323-1.158-0.323-1.962l-0.019-0.829h3.907c0.9,0,1.468-0.156,1.701-0.468c0.234-0.312,0.352-0.948,0.352-1.908
		c0-2.185-1.068-3.277-3.205-3.277h-1.063h-0.018c-1.057,0-1.849,0.264-2.377,0.792c-0.672,0.672-1.008,2.077-1.008,4.213
		c0,2.497,0.336,4.081,1.008,4.753c0.528,0.528,1.297,0.792,2.305,0.792h1.297c0.647,0,1.212-0.072,1.692-0.216
		C180.944,36.21,181.4,35.85,181.833,35.274z M175.892,30.197c0-0.937,0.107-1.627,0.323-2.071c0.265-0.54,0.732-0.81,1.405-0.81
		h0.864c0.6,0,1.032,0.156,1.296,0.468c0.288,0.336,0.433,0.804,0.433,1.404v0.324c0,0.228-0.013,0.408-0.036,0.54
		c-0.084,0.276-0.301,0.415-0.648,0.415h-3.637V30.197z"/>
	<path fill="#1D1D1B" d="M97.13,52.385h2.929v3.276c-0.405,0.376-1.049,0.564-1.931,0.564h-2.256c-1.056,0-1.761-0.376-2.116-1.129
		c-0.354-0.752-0.532-2.22-0.532-4.404s0.177-3.649,0.532-4.395c0.354-0.745,1.06-1.117,2.116-1.117h1.909
		c0.781,0,1.375,0.094,1.779,0.282c0.405,0.188,0.789,0.607,1.15,1.258l2.062-1.454c-0.333-0.694-0.709-1.229-1.128-1.606
		c-0.738-0.622-2.04-0.933-3.906-0.933h-1.627c-1.852,0-3.226,0.441-4.123,1.323c-0.521,0.521-0.93,1.262-1.226,2.224
		c-0.297,0.962-0.445,2.43-0.445,4.405c0,1.975,0.148,3.446,0.445,4.415c0.296,0.97,0.705,1.715,1.226,2.235
		c0.896,0.883,2.271,1.323,4.123,1.323h2.083c0.853,0,1.703-0.126,2.549-0.38c0.846-0.253,1.53-0.604,2.05-1.052v-7.139H97.13
		V52.385z"/>
	<path fill="#1D1D1B" d="M116.161,56.703l-1.823-1.52c-0.246,0.376-0.536,0.68-0.868,0.912c-0.333,0.23-0.868,0.347-1.605,0.347
		h-1.627c-0.854,0-1.396-0.246-1.627-0.737c-0.231-0.492-0.369-1.259-0.412-2.301h5.056c1.186,0,1.949-0.221,2.289-0.661
		c0.34-0.441,0.51-1.327,0.51-2.658c0-1.332-0.358-2.355-1.075-3.071c-0.716-0.716-1.826-1.074-3.331-1.074h-1.519
		c-1.534,0-2.647,0.354-3.342,1.063c-0.882,0.868-1.323,2.637-1.323,5.305c0,2.669,0.441,4.438,1.323,5.306
		c0.694,0.694,1.772,1.041,3.233,1.041h1.801c0.94,0,1.685-0.087,2.235-0.26C114.823,58.164,115.524,57.6,116.161,56.703z
		 M108.577,48.923c0.239-0.499,0.785-0.749,1.638-0.749h1.237c0.738,0,1.251,0.152,1.541,0.456c0.29,0.305,0.434,0.796,0.434,1.476
		v0.369c0,0.361-0.032,0.589-0.098,0.683c-0.065,0.095-0.213,0.142-0.445,0.142h-4.687
		C108.212,50.215,108.339,49.422,108.577,48.923z"/>
	<path fill="#1D1D1B" d="M125.557,56.442h-2.17v-8.246c0-0.724-0.138-1.255-0.412-1.595c-0.275-0.34-0.781-0.51-1.519-0.51h-2.8
		v2.083h1.541c0.231,0,0.38,0.036,0.444,0.109c0.065,0.072,0.098,0.231,0.098,0.477v7.682h-2.582v2.083h7.399V56.442z"/>
	<path fill="#1D1D1B" d="M121.694,44.942c0.434,0,0.807-0.155,1.117-0.466c0.312-0.311,0.467-0.68,0.467-1.107
		s-0.155-0.795-0.467-1.106c-0.311-0.311-0.684-0.466-1.117-0.466s-0.807,0.155-1.117,0.466c-0.312,0.311-0.467,0.68-0.467,1.106
		s0.155,0.796,0.467,1.107C120.888,44.787,121.261,44.942,121.694,44.942z"/>
	<path fill="#1D1D1B" d="M134.778,51.387l-3.775-0.803c-0.506-0.102-0.795-0.333-0.867-0.695c-0.029-0.145-0.044-0.38-0.044-0.705
		s0.13-0.575,0.391-0.749c0.261-0.174,0.673-0.261,1.237-0.261h0.976c0.622,0,1.107,0.062,1.454,0.185
		c0.348,0.123,0.688,0.38,1.02,0.771c0.015,0.028,0.036,0.057,0.065,0.086s0.058,0.065,0.087,0.108l1.735-1.541
		c-0.506-0.723-1.085-1.211-1.735-1.464c-0.651-0.253-1.548-0.38-2.69-0.38h-1.042c-1.359,0-2.372,0.308-3.037,0.922
		c-0.666,0.615-0.998,1.443-0.998,2.485v0.52c0,0.84,0.188,1.484,0.563,1.932s0.984,0.767,1.823,0.955l3.775,0.803
		c0.202,0.043,0.376,0.108,0.521,0.195c0.261,0.202,0.391,0.629,0.391,1.28c0,0.434-0.145,0.777-0.434,1.03
		c-0.29,0.253-0.702,0.38-1.237,0.38h-1.367c-0.607,0-1.07-0.068-1.389-0.206s-0.65-0.401-0.998-0.792
		c-0.015-0.029-0.036-0.058-0.064-0.087c-0.029-0.029-0.059-0.072-0.087-0.13l-1.736,1.54c0.507,0.738,1.078,1.237,1.714,1.497
		c0.637,0.261,1.512,0.391,2.626,0.391h1.432c1.375,0,2.398-0.307,3.07-0.922c0.673-0.615,1.009-1.443,1.009-2.484v-0.868
		c0-0.868-0.184-1.537-0.553-2.007S135.632,51.574,134.778,51.387z"/>
	<path fill="#1D1D1B" d="M148.08,58.396c0.768-0.231,1.469-0.796,2.105-1.692l-1.823-1.52c-0.246,0.376-0.535,0.68-0.867,0.912
		c-0.333,0.23-0.868,0.347-1.606,0.347h-1.627c-0.854,0-1.396-0.246-1.627-0.737c-0.231-0.492-0.369-1.259-0.413-2.301h5.056
		c1.187,0,1.949-0.221,2.289-0.661c0.341-0.441,0.511-1.327,0.511-2.658c0-1.332-0.358-2.355-1.074-3.071
		c-0.716-0.716-1.826-1.074-3.331-1.074h-1.519c-1.533,0-2.647,0.354-3.342,1.063c-0.882,0.868-1.323,2.637-1.323,5.305
		c0,2.669,0.441,4.438,1.323,5.306c0.694,0.694,1.772,1.041,3.233,1.041h1.801C146.786,58.655,147.531,58.568,148.08,58.396z
		 M142.602,48.923c0.239-0.499,0.785-0.749,1.639-0.749h1.236c0.738,0,1.251,0.152,1.541,0.456c0.289,0.305,0.434,0.796,0.434,1.476
		v0.369c0,0.361-0.032,0.589-0.098,0.683c-0.065,0.095-0.213,0.142-0.444,0.142h-4.688
		C142.236,50.215,142.363,49.422,142.602,48.923z"/>
	<path fill="#1D1D1B" d="M155.416,51.408c0-0.911,0.015-1.538,0.043-1.877c0.029-0.34,0.108-0.618,0.239-0.835
		c0.217-0.347,0.723-0.521,1.519-0.521h1.367c0.795,0,1.309,0.174,1.54,0.521c0.131,0.217,0.21,0.495,0.239,0.835
		c0.028,0.34,0.043,0.966,0.043,1.877v7.117h2.647v-8.201c0-1.505-0.329-2.612-0.987-3.321c-0.658-0.709-1.732-1.063-3.223-1.063
		h-1.888c-1.475,0-2.542,0.354-3.2,1.063c-0.658,0.708-0.987,1.815-0.987,3.321v8.201h2.647V51.408z"/>
	<path fill="#1D1D1B" d="M172.319,45.94h-1.389c-0.926,0-1.605,0.138-2.039,0.413v-4.926h-2.647v17.099h2.647v-7.074
		c0-1.534,0.104-2.462,0.314-2.788c0.21-0.325,0.662-0.488,1.356-0.488h1.519c0.781,0,1.287,0.174,1.519,0.521
		c0.131,0.217,0.21,0.495,0.239,0.835c0.028,0.34,0.043,0.966,0.043,1.877v7.117h2.647v-8.201c0-1.505-0.329-2.612-0.987-3.321
		C174.884,46.294,173.81,45.94,172.319,45.94z"/>
	<path fill="#1D1D1B" d="M186.849,56.096c-0.333,0.23-0.868,0.347-1.606,0.347h-1.627c-0.854,0-1.396-0.246-1.627-0.737
		c-0.231-0.492-0.369-1.259-0.413-2.301h5.056c1.187,0,1.949-0.221,2.289-0.661c0.341-0.441,0.511-1.327,0.511-2.658
		c0-1.332-0.358-2.355-1.074-3.071c-0.716-0.716-1.826-1.074-3.331-1.074h-1.519c-1.533,0-2.647,0.354-3.342,1.063
		c-0.882,0.868-1.323,2.637-1.323,5.305c0,2.669,0.441,4.438,1.323,5.306c0.694,0.694,1.772,1.041,3.233,1.041h1.801
		c0.94,0,1.686-0.087,2.234-0.26c0.768-0.231,1.469-0.796,2.105-1.692l-1.823-1.52C187.47,55.56,187.181,55.863,186.849,56.096z
		 M181.955,48.923c0.239-0.499,0.785-0.749,1.639-0.749h1.236c0.738,0,1.251,0.152,1.541,0.456c0.289,0.305,0.434,0.796,0.434,1.476
		v0.369c0,0.361-0.032,0.589-0.098,0.683c-0.065,0.095-0.213,0.142-0.444,0.142h-4.688C181.59,50.215,181.717,49.422,181.955,48.923
		z"/>
	<path fill="#1D1D1B" d="M196.765,48.197c0-0.724-0.138-1.255-0.412-1.595c-0.275-0.34-0.781-0.51-1.519-0.51h-2.8v2.083h1.541
		c0.231,0,0.38,0.036,0.444,0.109c0.065,0.072,0.098,0.231,0.098,0.477v7.682h-2.582v2.083h7.399v-2.083h-2.17V48.197z"/>
	<path fill="#1D1D1B" d="M195.072,44.942c0.434,0,0.807-0.155,1.117-0.466c0.312-0.311,0.467-0.68,0.467-1.107
		s-0.155-0.795-0.467-1.106c-0.311-0.311-0.684-0.466-1.117-0.466s-0.807,0.155-1.117,0.466c-0.312,0.311-0.467,0.68-0.467,1.106
		s0.155,0.796,0.467,1.107C194.266,44.787,194.639,44.942,195.072,44.942z"/>
	<path fill="#1D1D1B" d="M217.997,47.003c-0.658-0.709-1.732-1.063-3.223-1.063h-1.627c-1.461,0-2.459,0.326-2.994,0.977
		c-0.435-0.651-1.483-0.977-3.146-0.977h-1.628c-1.475,0-2.542,0.354-3.2,1.063c-0.658,0.708-0.987,1.815-0.987,3.321v8.201h2.647
		v-7.117c0-0.911,0.015-1.538,0.043-1.877c0.029-0.34,0.108-0.618,0.239-0.835c0.217-0.347,0.723-0.521,1.519-0.521h1.41
		c0.738,0,1.229,0.174,1.476,0.521c0.116,0.188,0.185,0.438,0.206,0.749c0.021,0.311,0.033,0.973,0.033,1.985v7.096h2.646V51.43
		c0-1.519,0.108-2.441,0.325-2.767c0.218-0.325,0.673-0.488,1.367-0.488h1.41c0.796,0,1.31,0.174,1.541,0.521
		c0.13,0.217,0.21,0.495,0.238,0.835c0.029,0.34,0.044,0.966,0.044,1.877v7.117h2.647v-8.201
		C218.984,48.819,218.655,47.712,217.997,47.003z"/>
	<path fill="#1D1D1B" d="M98.334,73.563c0,0.996-0.156,1.723-0.468,2.179c-0.408,0.6-1.134,0.9-2.178,0.9
		c-1.068,0-1.825-0.204-2.269-0.612c-0.444-0.433-0.666-1.23-0.666-2.395v-0.072V65.01h-1.729v9.039
		c0,1.272,0.324,2.269,0.972,2.988c0.312,0.36,0.738,0.631,1.278,0.811c0.541,0.18,1.086,0.271,1.639,0.271h1.26
		c0.528,0,1.065-0.091,1.612-0.271c0.546-0.18,0.975-0.45,1.287-0.811c0.66-0.72,0.99-1.734,0.99-3.043V65.01h-1.729V73.563z"/>
	<path fill="#1D1D1B" d="M107.194,67.566h-1.314c-1.057,0-1.831,0.265-2.323,0.793c-0.492,0.527-0.738,1.386-0.738,2.574v7.076
		h1.638v-6.176c0-0.769,0.012-1.309,0.036-1.62c0.084-0.9,0.6-1.351,1.548-1.351h0.955c0.96,0,1.482,0.45,1.566,1.351
		c0.036,0.312,0.054,0.852,0.054,1.62v6.176h1.621v-7.076c0-1.188-0.246-2.047-0.738-2.574
		C109.006,67.831,108.238,67.566,107.194,67.566z"/>
	<path fill="#1D1D1B" d="M114.343,64.434c-0.204,0.204-0.306,0.447-0.306,0.729s0.102,0.525,0.306,0.729s0.447,0.306,0.729,0.306
		s0.525-0.102,0.729-0.306s0.306-0.447,0.306-0.729s-0.102-0.525-0.306-0.729s-0.447-0.306-0.729-0.306
		S114.547,64.229,114.343,64.434z"/>
	<path fill="#1D1D1B" d="M116.197,69.151c0-0.528-0.09-0.906-0.27-1.135c-0.18-0.228-0.528-0.342-1.044-0.342h-2.053v1.188h1.008
		c0.252,0,0.444,0.072,0.576,0.216c0.096,0.072,0.144,0.258,0.144,0.559v7.184h-2.143v1.188h5.6v-1.188h-1.819V69.151z"/>
	<path fill="#1D1D1B" d="M124.948,70.069c-0.107,1.429-0.408,2.761-0.9,3.997l-0.899,2.035l-0.198,0.468l-0.216-0.468
		c-0.433-0.937-0.732-1.615-0.9-2.035s-0.369-1.17-0.604-2.25c-0.234-1.081-0.357-2.461-0.369-4.142h-1.639
		c0.012,2.389,0.21,4.093,0.595,5.113l1.332,2.701l1.261,2.521h1.044l1.278-2.521c0.853-1.729,1.297-2.635,1.332-2.719
		c0.372-0.997,0.57-2.695,0.595-5.096h-1.62C125.015,68.707,124.984,69.505,124.948,70.069z"/>
	<path fill="#1D1D1B" d="M135.617,72.752c0.234-0.312,0.352-0.948,0.352-1.908c0-2.185-1.068-3.277-3.205-3.277h-1.063h-0.018
		c-1.057,0-1.849,0.265-2.377,0.793c-0.672,0.672-1.008,2.076-1.008,4.213c0,2.497,0.336,4.081,1.008,4.753
		c0.528,0.528,1.297,0.793,2.305,0.793h1.297c0.647,0,1.212-0.072,1.692-0.217c0.479-0.144,0.937-0.504,1.368-1.08l-1.08-0.9
		c-0.456,0.601-1.11,0.9-1.963,0.9h-1.152c-0.708,0-1.183-0.27-1.422-0.811c-0.217-0.504-0.324-1.158-0.324-1.962l-0.019-0.828
		h3.907C134.816,73.221,135.384,73.064,135.617,72.752z M130.027,72.014v-0.27c0-0.937,0.107-1.627,0.324-2.071
		c0.264-0.54,0.731-0.81,1.404-0.81h0.864c0.6,0,1.032,0.156,1.296,0.468c0.288,0.336,0.433,0.805,0.433,1.404v0.324
		c0,0.229-0.013,0.408-0.036,0.54c-0.084,0.276-0.301,0.414-0.648,0.414H130.027z"/>
	<path fill="#1D1D1B" d="M139.408,68.323c-0.432,0.454-0.647,1.324-0.647,2.61v5.888h-1.459v1.188h4.646v-1.188h-1.549v-4.97
		c0-1.088,0.043-1.893,0.127-2.412c0.053-0.385,0.407-0.576,1.062-0.576h1.188v-1.297h-1.368
		C140.386,67.566,139.72,67.818,139.408,68.323z"/>
	<path fill="#1D1D1B" d="M149.618,72.356l-2.665-0.648c-0.216-0.061-0.384-0.15-0.504-0.271c-0.12-0.107-0.195-0.188-0.225-0.243
		c-0.03-0.054-0.063-0.168-0.1-0.342s-0.054-0.478-0.054-0.909c0-0.336,0.138-0.601,0.414-0.792
		c0.276-0.192,0.612-0.288,1.009-0.288h0.666c0.456,0,0.828,0.06,1.116,0.18s0.576,0.336,0.864,0.648l1.044-0.9
		c-0.36-0.456-0.774-0.774-1.242-0.954c-0.468-0.181-1.074-0.271-1.818-0.271h-0.721c-0.948,0-1.665,0.229-2.151,0.685
		s-0.729,1.08-0.729,1.872v0.685c0,0.648,0.133,1.128,0.396,1.44c0.24,0.3,0.685,0.528,1.332,0.685l2.647,0.684
		c0.18,0.036,0.342,0.108,0.486,0.216c0.287,0.217,0.432,0.732,0.432,1.549c0,0.456-0.141,0.811-0.423,1.063
		s-0.634,0.378-1.054,0.378h-0.937c-0.456,0-0.825-0.06-1.107-0.18c-0.281-0.12-0.572-0.349-0.873-0.685l-1.026,0.918
		c0.349,0.457,0.751,0.777,1.207,0.964c0.456,0.186,1.068,0.279,1.836,0.279h0.99c0.948,0,1.675-0.229,2.179-0.685
		c0.505-0.456,0.757-1.068,0.757-1.837v-0.018v-0.738c0-0.84-0.133-1.429-0.396-1.765C150.729,72.765,150.278,72.524,149.618,72.356
		z"/>
	<path fill="#1D1D1B" d="M156.947,69.151c0-0.528-0.09-0.906-0.27-1.135c-0.18-0.228-0.528-0.342-1.045-0.342h-2.052v1.188h1.008
		c0.252,0,0.444,0.072,0.576,0.216c0.096,0.072,0.145,0.258,0.145,0.559v7.184h-2.143v1.188h5.6v-1.188h-1.819V69.151z"/>
	<path fill="#1D1D1B" d="M155.093,64.434c-0.204,0.204-0.306,0.447-0.306,0.729s0.102,0.525,0.306,0.729s0.447,0.306,0.729,0.306
		s0.525-0.102,0.729-0.306s0.306-0.447,0.306-0.729s-0.102-0.525-0.306-0.729s-0.447-0.306-0.729-0.306
		S155.297,64.229,155.093,64.434z"/>
	<path fill="#1D1D1B" d="M162.926,76.245c-0.18-0.3-0.271-1.104-0.271-2.413v-4.969h2.233v-1.188h-2.233V65.01h-1.656v2.665h-1.261
		v1.188h1.261v5.905c0,1.177,0.246,2.029,0.738,2.557c0.492,0.528,1.278,0.793,2.358,0.793h1.243v-1.297h-1.026
		C163.64,76.821,163.178,76.629,162.926,76.245z"/>
	<path fill="#1D1D1B" d="M172.779,73.274c0,1.332-0.107,2.16-0.324,2.484c-0.216,0.324-0.605,0.486-1.17,0.486h-1.026
		c-0.937,0-1.446-0.444-1.53-1.332c-0.024-0.313-0.036-0.853-0.036-1.621v-5.617h-1.639v6.806c0,1.249,0.246,2.148,0.738,2.701
		c0.492,0.552,1.261,0.828,2.305,0.828h0.847c0.6,0,1.08-0.108,1.44-0.324l0.396-0.234v0.486c0,1.177-0.107,1.915-0.324,2.215
		c-0.216,0.3-0.605,0.45-1.17,0.45h-2.863v1.278h3.043c0.997,0,1.741-0.267,2.233-0.801s0.738-1.39,0.738-2.566V67.675h-1.657
		V73.274z"/>
</g>
</svg>
