<?xml version="1.0" encoding="utf-8"?>
<!-- Generator: Adobe Illustrator 16.0.0, SVG Export Plug-In . SVG Version: 6.00 Build 0)  -->
<!DOCTYPE svg PUBLIC "-//W3C//DTD SVG 1.1//EN" "http://www.w3.org/Graphics/SVG/1.1/DTD/svg11.dtd">
<svg version="1.1" id="Ebene_1" xmlns="http://www.w3.org/2000/svg" xmlns:xlink="http://www.w3.org/1999/xlink" x="0px" y="0px"
	 width="24px" height="22.536px" viewBox="34.894 37.452 24 22.536" enable-background="new 34.894 37.452 24 22.536"
	 xml:space="preserve">
<g>
	<path fill="#1D1D1B" d="M57.585,40.867c1.561-1.567,1.292-3.398,1.292-3.398s-0.12-0.018-0.325-0.018
		c-0.593,0-1.898,0.149-3.058,1.314c-0.288,0.29-0.514,0.588-0.69,0.882c-0.001,0.001-0.002,0.004-0.003,0.005
		c-0.921-0.582-2.006-0.923-3.172-0.923c-2.97,0-5.434,2.188-5.897,5.042h-0.007h-5.516l-2.656,4.62h-2.659v2.354h2.658l2.656,4.621
		h5.363c0.059,0.158,0.132,0.316,0.222,0.474l1.43,2.493c0.352,0.614,1.348,1.654,2.847,1.654h2.855
		c0.705,0,2.099-0.349,2.847-1.654l1.346-2.347c0.383-0.667,0.814-2.177,0-3.594l-1.346-2.348c-0.099-0.173-0.249-0.379-0.446-0.586
		c-0.001-0.002-0.002-0.003-0.003-0.004c1.391-1.101,2.288-2.804,2.288-4.717c0-1.166-0.338-2.251-0.912-3.174
		c0.001-0.001,0.004-0.002,0.006-0.003C56.998,41.384,57.296,41.157,57.585,40.867z M51.629,41.084c1.005,0,1.915,0.411,2.574,1.075
		c0.001,0.002,0.001,0.004,0.001,0.004s0.001,0,0.003,0c0.655,0.661,1.06,1.572,1.06,2.575c0,2.008-1.622,3.643-3.619,3.653h-0.04
		c-1.997-0.011-3.619-1.645-3.619-3.653C47.99,42.724,49.623,41.084,51.629,41.084z M39.582,49.571l1.979-3.444h3.958l1.98,3.444
		l-0.208,0.361c-0.023,0.037-0.046,0.075-0.068,0.113L46.1,52.006l-0.579,1.007h-3.959L39.582,49.571z M55.088,54.812l-1.346,2.348
		c-0.245,0.429-0.769,0.471-0.831,0.475h-2.84c-0.513,0-0.814-0.473-0.816-0.475l-1.429-2.493c-0.257-0.449-0.001-0.95,0-0.953
		l0.295-0.516l1.169-2.034c0.268-0.392,0.778-0.416,0.781-0.417h1.438h0.094c0.009,0,0.018,0.001,0.026,0.001
		s0.017-0.001,0.026-0.001h0.094h1.177c0.513,0,0.814,0.472,0.816,0.474l1.346,2.349C55.427,54.16,55.094,54.8,55.088,54.812z"/>
</g>
</svg>
