<?xml version="1.0" encoding="utf-8"?>
<!-- Generator: Adobe Illustrator 16.0.0, SVG Export Plug-In . SVG Version: 6.00 Build 0)  -->
<!DOCTYPE svg PUBLIC "-//W3C//DTD SVG 1.1//EN" "http://www.w3.org/Graphics/SVG/1.1/DTD/svg11.dtd">
<svg version="1.1" id="Ebene_1" xmlns="http://www.w3.org/2000/svg" xmlns:xlink="http://www.w3.org/1999/xlink" x="0px" y="0px"
	 width="100px" height="100px" viewBox="0 0 100 100" enable-background="new 0 0 100 100" xml:space="preserve">
<g id="XMLID_592_">
	<g id="XMLID_572_">
		<g id="XMLID_312_">
			<path id="XMLID_313_" fill="#1D1D1B" d="M-52.966-84.38"/>
		</g>
	</g>
</g>
<g>
	<g opacity="0.4">
		<path fill="#1D1D1B" d="M76.921,31.574c0-4.685-3.692-8.495-8.233-8.495H31.56c-4.597,0-8.481,3.89-8.481,8.495v37.127
			c0,4.531,3.805,8.22,8.481,8.22h37.125c4.617,0,8.234-3.61,8.234-8.22L76.921,31.574L76.921,31.574z M75.659,68.701
			c0,3.836-3.128,6.958-6.974,6.958H31.56c-3.812,0-6.798-3.058-6.798-6.958V31.574c0-3.82,2.986-6.813,6.798-6.813h37.125
			c3.91,0,6.974,2.993,6.974,6.813V68.701z"/>
		<path fill="#1D1D1B" d="M27.286,60.938h45.429V28.127H27.286V60.938z M29.009,30.027h41.982v29.009H29.009V30.027z"/>
		<path d="M44.89,54.441c2.072-0.801,3.783-1.805,5.088-2.987c-0.39-0.358-0.974-1.023-1.378-2.073
			c-0.035-0.088-0.032-0.188,0.008-0.274c0.037-0.085,0.11-0.155,0.201-0.186c0.034-0.013,0.077-0.021,0.12-0.021
			c0.15,0,0.281,0.09,0.333,0.229c0.374,0.964,0.94,1.566,1.229,1.829c0.897-0.925,1.559-1.948,1.966-3.046
			c-0.342-0.061-0.805-0.185-1.339-0.43c-1.027-0.472-1.958-1.223-2.765-2.231c-0.058-0.071-0.086-0.167-0.074-0.262
			c0.01-0.094,0.057-0.18,0.135-0.238c0.13-0.105,0.372-0.089,0.491,0.057c0.753,0.943,1.619,1.636,2.572,2.061
			c0.512,0.228,0.935,0.323,1.201,0.363c0.29-1.079,0.346-2.209,0.161-3.365c-0.403-0.03-1.188-0.116-2.083-0.351
			c-1.468-0.386-2.612-1.008-3.4-1.849c-0.064-0.068-0.1-0.162-0.095-0.256c0.003-0.091,0.042-0.178,0.11-0.243
			c0.149-0.133,0.375-0.12,0.503,0.016c1.4,1.495,3.806,1.869,4.819,1.96c-0.297-1.219-0.854-2.423-1.657-3.585
			c-0.711,0.033-3.201,0.074-4.663-0.937c-0.078-0.052-0.133-0.137-0.148-0.23c-0.016-0.094,0.006-0.187,0.058-0.263
			c0.108-0.152,0.331-0.196,0.489-0.092c1.031,0.711,2.781,0.821,3.746,0.822c-1.327-1.683-3.104-3.186-5.041-4.256
			c-0.081-0.045-0.14-0.119-0.167-0.208c-0.027-0.098-0.016-0.189,0.028-0.272c0.092-0.168,0.321-0.232,0.486-0.137
			c1.942,1.074,3.74,2.574,5.104,4.256c0.014-0.628-0.035-1.468-0.316-2.124c-0.075-0.183,0.006-0.386,0.184-0.464
			c0.193-0.066,0.389,0.008,0.469,0.182c0.514,1.2,0.373,2.807,0.318,3.269c0.796,1.139,1.37,2.325,1.711,3.532
			c0.424-0.767,0.982-2.144,0.623-3.629c-0.021-0.094-0.006-0.189,0.044-0.27c0.052-0.08,0.129-0.136,0.22-0.157l0.082-0.009
			c0.163,0,0.305,0.11,0.344,0.268c0.545,2.251-0.721,4.252-1.09,4.773c0.188,1.076,0.186,2.139-0.009,3.168
			c0.884-0.718,2.238-2.172,2.238-4.328c0-0.195,0.159-0.354,0.354-0.354s0.354,0.159,0.354,0.354c0,1.443-0.522,2.777-1.558,3.963
			c-0.666,0.765-1.35,1.237-1.664,1.433c-0.35,1.067-0.916,2.075-1.69,3.002c1.396-0.397,3.728-1.382,4.674-3.657
			c0.075-0.178,0.293-0.265,0.466-0.19c0.18,0.075,0.264,0.283,0.188,0.462c-0.349,0.831-0.88,1.571-1.582,2.198
			c-0.563,0.507-1.239,0.944-2.011,1.301c-1.161,0.539-2.223,0.746-2.6,0.808c-1.398,1.332-3.258,2.451-5.53,3.33
			c0,0,0.251,0.43,0.437,0.428c4.508-0.034,11.118-2.084,11.924-8.856c1.034-8.712-7.973-14.342-14.258-13.691
			c0.912,10.235,4.72,10.805,4.836,14.833c0.096,3.382-2.391,4.587-3.199,5.896C44.651,54.094,44.89,54.441,44.89,54.441z"/>
	</g>
	<path opacity="0.4" fill="#C1272D" enable-background="new    " d="M50,2.5C23.809,2.5,2.5,23.809,2.5,50
		c0,26.191,21.309,47.5,47.5,47.5c26.191,0,47.5-21.309,47.5-47.5C97.5,23.809,76.191,2.5,50,2.5z M50,14.132
		c7.785,0,14.994,2.501,20.881,6.732L20.865,70.88c-4.231-5.886-6.732-13.095-6.732-20.88C14.133,30.223,30.223,14.132,50,14.132z
		 M50,85.867c-7.801,0-15.022-2.512-20.914-6.758l50.023-50.024c4.246,5.893,6.758,13.114,6.758,20.915
		C85.867,69.777,69.777,85.867,50,85.867z"/>
</g>
</svg>
