<?xml version="1.0" encoding="utf-8"?>
<!-- Generator: Adobe Illustrator 15.0.2, SVG Export Plug-In . SVG Version: 6.00 Build 0)  -->
<!DOCTYPE svg PUBLIC "-//W3C//DTD SVG 1.1//EN" "http://www.w3.org/Graphics/SVG/1.1/DTD/svg11.dtd">
<svg version="1.1" id="Ebene_1" xmlns="http://www.w3.org/2000/svg" xmlns:xlink="http://www.w3.org/1999/xlink" x="0px" y="0px"
	 width="900px" height="400px" viewBox="0 0 900 400" enable-background="new 0 0 900 400" xml:space="preserve">
<text transform="matrix(1 0 0 1 158.2139 354.1504)" opacity="0.4" font-family="'Myriad-Bold'" font-size="29">Leider haben wir zu diesem Mineral kein Bild.</text>
<g id="XMLID_592_">
	<g id="XMLID_572_">
		<g id="XMLID_312_">
			<path id="XMLID_313_" fill="#1D1D1B" d="M424.034,94.62"/>
		</g>
	</g>
</g>
<g opacity="0.4">
	<path fill="#1D1D1B" d="M493.424,93h-88.262C393.128,93,383,103.164,383,115.196v88.262C383,215.487,393.128,225,405.162,225
		h88.262c12.03,0,21.576-9.513,21.576-21.542v-88.262C515,103.164,505.454,93,493.424,93z M508,203.458
		c0,8.01-6.569,14.542-14.576,14.542h-88.262c-8.011,0-14.162-6.532-14.162-14.542v-88.262c0-8.009,6.151-14.196,14.162-14.196
		h88.262c8.007,0,14.576,6.187,14.576,14.196V203.458z"/>
	<path fill="#1D1D1B" d="M395,185h108v-78H395V185z M403,115h92v62h-92V115z"/>
	<polygon fill="#1D1D1B" points="449.586,172.54 479.401,120 419.167,120 	"/>
</g>
<path opacity="0.4" fill="#C1272D" d="M453.646,29.119c-74.381,0-134.896,60.514-134.896,134.896
	c0,74.382,60.514,134.896,134.896,134.896c74.382,0,134.896-60.514,134.896-134.896C588.541,89.633,528.027,29.119,453.646,29.119z
	 M453.646,62.154c22.11,0,42.582,7.104,59.299,19.119l-142.04,142.04c-12.015-16.716-19.119-37.187-19.119-59.298
	C351.786,107.848,397.479,62.154,453.646,62.154z M453.646,265.874c-22.154,0-42.662-7.131-59.396-19.188l142.067-142.068
	c12.057,16.734,19.188,37.242,19.188,59.396C555.505,220.181,509.812,265.874,453.646,265.874z"/>
</svg>
