<?xml version="1.0" encoding="utf-8"?>
<!-- Generator: Adobe Illustrator 15.0.2, SVG Export Plug-In . SVG Version: 6.00 Build 0)  -->
<!DOCTYPE svg PUBLIC "-//W3C//DTD SVG 1.1//EN" "http://www.w3.org/Graphics/SVG/1.1/DTD/svg11.dtd">
<svg version="1.1" id="Ebene_1" xmlns="http://www.w3.org/2000/svg" xmlns:xlink="http://www.w3.org/1999/xlink" x="0px" y="0px"
	 width="100px" height="100px" viewBox="0 0 100 100" enable-background="new 0 0 100 100" xml:space="preserve">
<g id="XMLID_592_">
	<g id="XMLID_572_">
		<g id="XMLID_312_">
			<path id="XMLID_313_" fill="#1D1D1B" d="M-52.966-84.38"/>
		</g>
	</g>
</g>
<g>
	<g opacity="0.4">
		<path fill="#1D1D1B" d="M64.007,24.994H32.928c-4.237,0-7.804,3.578-7.804,7.815v31.079c0,4.236,3.566,7.586,7.804,7.586h31.079
			c4.236,0,7.598-3.35,7.598-7.586V32.81C71.604,28.572,68.243,24.994,64.007,24.994z M69.14,63.889c0,2.82-2.313,5.121-5.133,5.121
			H32.928c-2.82,0-4.986-2.301-4.986-5.121V32.81c0-2.82,2.166-4.999,4.986-4.999h31.079c2.819,0,5.133,2.179,5.133,4.999V63.889z"
			/>
		<path fill="#1D1D1B" d="M29.35,57.389h38.029V29.924H29.35V57.389z M32.166,32.74h32.396v21.832H32.166V32.74z"/>
		<polygon fill="#1D1D1B" points="48.57,53.002 59.069,34.502 37.859,34.502 		"/>
	</g>
	<path opacity="0.4" fill="#C1272D" d="M50,2.5C23.809,2.5,2.5,23.809,2.5,50S23.809,97.5,50,97.5S97.5,76.191,97.5,50
		S76.191,2.5,50,2.5z M50,14.132c7.785,0,14.994,2.501,20.881,6.732L20.865,70.88c-4.231-5.886-6.732-13.095-6.732-20.88
		C14.133,30.223,30.223,14.132,50,14.132z M50,85.867c-7.801,0-15.022-2.511-20.914-6.757L79.11,29.085
		c4.245,5.893,6.757,13.114,6.757,20.915C85.867,69.777,69.777,85.867,50,85.867z"/>
</g>
</svg>
