<?xml version="1.0" encoding="utf-8"?>
<!-- Generator: Adobe Illustrator 16.0.0, SVG Export Plug-In . SVG Version: 6.00 Build 0)  -->
<!DOCTYPE svg PUBLIC "-//W3C//DTD SVG 1.1//EN" "http://www.w3.org/Graphics/SVG/1.1/DTD/svg11.dtd">
<svg version="1.1" id="Ebene_1" xmlns="http://www.w3.org/2000/svg" xmlns:xlink="http://www.w3.org/1999/xlink" x="0px" y="0px"
	 width="500px" height="500px" viewBox="0 0 499.674 500" enable-background="new 0 0 500 500" xml:space="preserve">
<g>
	<path fill="#5461af" d="M217.529,286.354l93.073-58.598c7.916-4.984,7.916-13.139,0-18.123l-93.073-58.598
		c-7.917-4.984-14.394-1.408-14.394,7.946v119.426C203.136,287.762,209.612,291.338,217.529,286.354z"/>
	<path d="M413.501,86.401H86.174c-20.317,0-36.847,16.529-36.847,36.846V282.15h17.75l2.25-155.903
		c0-10.943,8.903-19.846,19.847-19.846l324.327-3c10.943,0,19.846,8.903,19.846,19.846l-0.046,3.158h17.046v-3.158
		C450.347,102.93,433.817,86.401,413.501,86.401z M430.347,311.141c0,10.943-8.901,19.846-19.846,19.846l-324.327,3
		c-10.943,0-19.847-8.902-19.847-19.846l0.045-3.158H49.327v3.158c0,20.316,16.529,36.846,36.847,36.846h327.327
		c20.316,0,36.846-16.529,36.846-36.846V155.237h-17.75L430.347,311.141z M425.837,390.1h-102v15h102c4.144,0,7.5-3.357,7.5-7.5
		S429.979,390.1,425.837,390.1z M153.337,381.6c-6.125,0-11.441,3.445-14.13,8.5h-65.37c-4.142,0-7.5,3.357-7.5,7.5
		s3.358,7.5,7.5,7.5h65.37c2.689,5.055,8.005,8.5,14.13,8.5s11.441-3.445,14.13-8.5h140.87v-15h-140.87
		C164.778,385.045,159.462,381.6,153.337,381.6z"/>
</g>
</svg>
