<?xml version="1.0" encoding="utf-8"?>
<!-- Generator: Adobe Illustrator 16.0.0, SVG Export Plug-In . SVG Version: 6.00 Build 0)  -->
<!DOCTYPE svg PUBLIC "-//W3C//DTD SVG 1.1//EN" "http://www.w3.org/Graphics/SVG/1.1/DTD/svg11.dtd">
<svg enable-background="new 0 0 24 24" height="24px" id="Ebene_1" version="1.1" viewBox="0 0 24 24"
     width="24px" x="0px" xml:space="preserve" xmlns="http://www.w3.org/2000/svg" y="0px">
<g>
	<path d="M20.63,3.022H6.208c-0.062,0-0.124,0.014-0.182,0.042C6.013,3.069,6,3.074,5.989,3.08L2.061,5.146
		c-0.025,0.013-0.048,0.03-0.067,0.05C1.897,5.28,1.839,5.399,1.839,5.525v16.284c0,0.243,0.197,0.441,0.438,0.441h16.288
		c0.128,0,0.25-0.06,0.336-0.162c0.017-0.018,0.03-0.038,0.042-0.063l2.066-3.927c0.006-0.014,0.012-0.025,0.016-0.039
		c0.025-0.057,0.039-0.118,0.039-0.181V3.494c0.001-0.011,0.002-0.022,0.002-0.033C21.065,3.219,20.871,3.022,20.63,3.022z
		 M5.77,4.208v0.88H3.994L5.77,4.208z M2.716,5.964H5.77V17.7l-3.054,3.053V5.964z M18.125,21.371H3.338l3.053-3.051h11.734V21.371z
		 M18.125,17.443H6.646V5.964h5.145L11.79,7.013l0.537,0l0.001-1.05h5.797V17.443z M18.383,5.088H6.646V3.899h5.145v0.963h0.537
		V3.899h7.244L18.383,5.088z M19,20.095V18.32h0.882L19,20.095z M20.191,11.766H19.13v0.53h1.062v5.146H19V5.708l1.191-1.189V11.766
		z"/>
  <circle cx="12.025" cy="12.065" r="0.504"/>
  <rect height="1.075" width="0.537" x="11.79" y="8.088"/>
  <polygon points="11.791,2.71 12.328,2.71 12.328,2.332 12.685,2.332 12.06,0 11.434,2.332 11.791,2.332 	"/>
  <polygon points="8.969,14.621 8.683,14.896 8.437,14.639 7.185,16.703 9.301,15.541 9.055,15.284 9.341,15.009 	"/>
  <path
    d="M12.327,11.084v-0.845H11.79v0.832c0.077-0.019,0.152-0.048,0.235-0.048C12.132,11.022,12.229,11.054,12.327,11.084z"/>
  <rect height="0.536" transform="matrix(-0.6924 -0.7215 0.7215 -0.6924 6.1926 31.1556)" width="0.537" x="9.469"
        y="13.99"/>
  <rect height="0.53" width="1.061" x="17.009" y="11.766"/>
  <rect height="0.53" width="1.062" x="14.887" y="11.766"/>
  <polygon points="24,12.032 21.668,11.406 21.668,11.762 21.266,11.762 21.266,12.299 21.668,12.299 21.668,12.654 	"/>
  <path
    d="M13.02,12.295h0.806v-0.53h-0.819c0.03,0.096,0.061,0.193,0.061,0.298C13.066,12.146,13.038,12.22,13.02,12.295z"/>
  <rect height="0.537" transform="matrix(-0.6924 -0.7215 0.7215 -0.6924 8.0442 30.4547)" width="0.537" x="10.245"
        y="13.244"/>
  <path d="M10.911,12.76l0.372,0.388l0.215-0.205c-0.158-0.098-0.286-0.225-0.374-0.386L10.911,12.76z"/>
</g>
</svg>
