<?xml version="1.0" encoding="utf-8"?>
<!-- Generator: Adobe Illustrator 16.0.0, SVG Export Plug-In . SVG Version: 6.00 Build 0)  -->
<!DOCTYPE svg PUBLIC "-//W3C//DTD SVG 1.1//EN" "http://www.w3.org/Graphics/SVG/1.1/DTD/svg11.dtd">
<svg version="1.1" id="Ebene_1" xmlns="http://www.w3.org/2000/svg" xmlns:xlink="http://www.w3.org/1999/xlink" x="0px" y="0px"
	 width="24px" height="24px" viewBox="0 0 24 24" enable-background="new 0 0 24 24" xml:space="preserve">
<path d="M12,2.909c5.02,0,9.091,4.069,9.091,9.091c0,5.02-4.071,9.091-9.091,9.091c-5.021,0-9.091-4.071-9.091-9.091
	C2.909,6.979,6.979,2.909,12,2.909 M12,2C6.477,2,2,6.477,2,12c0,5.522,4.477,10,10,10c5.522,0,10-4.478,10-10
	C22,6.477,17.522,2,12,2z M14.183,7.503c-0.414-0.256-1.052-0.51-1.911-0.51c-0.938,0-1.655,0.462-1.655,1.177
	c0,0.828,0.795,1.13,1.989,1.529c1.463,0.477,2.594,1.082,2.594,2.514c0,0.827-0.398,1.433-1.035,1.927
	c0.271,0.222,0.604,0.745,0.604,1.4c0,1.669-1.542,2.387-3.023,2.387c-0.97,0-1.893-0.224-2.498-0.669l0.382-0.907
	c0.381,0.271,1.161,0.653,2.1,0.653c1.018,0,1.782-0.462,1.782-1.306c0-0.747-0.461-1.146-1.941-1.653
	C9.931,13.489,8.8,12.897,8.8,11.53c0-0.605,0.318-1.321,1.161-1.862C9.644,9.414,9.389,8.873,9.374,8.332
	c0-1.402,1.305-2.259,2.944-2.259c0.891,0,1.655,0.222,2.197,0.524L14.183,7.503z M11.62,12.866
	c0.812,0.285,1.448,0.525,1.814,0.764c0.397-0.285,0.604-0.732,0.604-1.226c0-0.605-0.383-1.113-1.416-1.479
	c-0.636-0.238-1.449-0.509-1.958-0.812c-0.509,0.366-0.731,0.764-0.731,1.242C9.933,11.927,10.363,12.406,11.62,12.866z"/>
</svg>
