<?xml version="1.0" encoding="utf-8"?>
<!-- Generator: Adobe Illustrator 16.0.0, SVG Export Plug-In . SVG Version: 6.00 Build 0)  -->
<!DOCTYPE svg PUBLIC "-//W3C//DTD SVG 1.1//EN" "http://www.w3.org/Graphics/SVG/1.1/DTD/svg11.dtd">
<svg version="1.1" id="Ebene_1" xmlns="http://www.w3.org/2000/svg" xmlns:xlink="http://www.w3.org/1999/xlink" x="0px" y="0px"
	 width="24px" height="24px" viewBox="0 0 24 24" enable-background="new 0 0 24 24" xml:space="preserve">
<g>
	<path d="M2.711,7.496C2.58,7.389,2.387,7.41,2.279,7.541L0.3,9.982c-0.142,0.176-0.142,0.44,0,0.616l1.979,2.441
		c0.061,0.075,0.149,0.113,0.238,0.113c0.068,0,0.136-0.022,0.193-0.068c0.132-0.105,0.152-0.3,0.045-0.432L0.84,10.291l1.916-2.363
		C2.863,7.796,2.843,7.603,2.711,7.496z"/>
	<path d="M23.717,9.982l-1.979-2.441c-0.107-0.132-0.303-0.151-0.432-0.045c-0.133,0.106-0.152,0.3-0.045,0.432l1.914,2.363
		l-1.914,2.363c-0.107,0.132-0.088,0.324,0.045,0.432c0.057,0.046,0.125,0.068,0.192,0.068c0.089,0,0.178-0.038,0.237-0.113
		l1.979-2.44C23.861,10.423,23.861,10.157,23.717,9.982z"/>
	<circle cx="12.271" cy="21.541" r="0.741"/>
	<circle cx="10.046" cy="21.541" r="0.741"/>
	<circle cx="14.496" cy="21.541" r="0.741"/>
	<path d="M15.736,14.885c0.004,0.001,0.009,0.001,0.013,0.002c0.004,0.002,0.008,0.002,0.013,0.002
		C15.8,14.872,15.777,14.868,15.736,14.885z"/>
	<path d="M15.686,15.436c0.01,0.004,0.008,0.002,0.014,0.004c0.004,0,0.005,0,0.006,0c-0.001,0-0.005,0-0.01-0.002L15.686,15.436z"
		/>
	<path d="M18.611,6.273H5.388l6.611,11.453L18.611,6.273z M12.253,16.273v-5.439l5.151-3.48L12.253,16.273z M17.345,6.78
		l-5.346,3.613L6.654,6.78H17.345z M11.746,16.273l-5.149-8.92l5.149,3.48V16.273z"/>
</g>
</svg>
