<?xml version="1.0" encoding="utf-8"?>
<!-- Generator: Adobe Illustrator 16.0.0, SVG Export Plug-In . SVG Version: 6.00 Build 0)  -->
<!DOCTYPE svg PUBLIC "-//W3C//DTD SVG 1.1//EN" "http://www.w3.org/Graphics/SVG/1.1/DTD/svg11.dtd">
<svg version="1.1" id="Ebene_1" xmlns="http://www.w3.org/2000/svg" xmlns:xlink="http://www.w3.org/1999/xlink" x="0px" y="0px"
	 width="24px" height="24px" viewBox="0 0 24 24" enable-background="new 0 0 24 24" xml:space="preserve">
<path d="M4.974,15.941h15.958v0.703H4.974V15.941z M18.962,18.543H4.974V17.84h13.987L18.962,18.543L18.962,18.543z M4.974,19.704
	h15.958v0.703H4.974V19.704z M4.375,16.293c0,0.348-0.281,0.627-0.627,0.627s-0.626-0.279-0.626-0.627
	c0-0.346,0.28-0.627,0.626-0.627S4.375,15.948,4.375,16.293z M4.375,18.191c0,0.347-0.281,0.627-0.627,0.627
	s-0.626-0.28-0.626-0.627s0.28-0.627,0.626-0.627S4.375,17.845,4.375,18.191z M4.375,20.057c0,0.346-0.281,0.627-0.627,0.627
	s-0.626-0.281-0.626-0.627c0-0.347,0.28-0.627,0.626-0.627S4.375,19.71,4.375,20.057z M18.916,2.977H5.137l6.889,11.934
	L18.916,2.977z M12.29,13.396V7.729l5.367-3.627L12.29,13.396z M17.596,3.505l-5.57,3.765l-5.57-3.765H17.596z M11.762,13.396
	L6.396,4.102l5.366,3.627V13.396z"/>
</svg>
